<svg xmlns="http://www.w3.org/2000/svg" width="190" height="190" viewBox="0 0 190 190">
  <g id="Grupo_1029967" data-name="Grupo 1029967" transform="translate(-705 -2194)">
    <g id="Grupo_1024924" data-name="Grupo 1024924" transform="translate(306 1332)">
      <circle id="Elipse_8399" data-name="Elipse 8399" cx="95" cy="95" r="95" transform="translate(399 862)" fill="#fff"/>
    </g>
    <g id="contenedor-de-basura" transform="translate(733.496 2212.891)">
      <path id="Trazado_724856" data-name="Trazado 724856" d="M108.5,15.46h19.044V38.742H108.5Z" transform="translate(-51.518 -0.768)" fill="#afafaf"/>
      <path id="Trazado_724857" data-name="Trazado 724857" d="M62.43,26.832H81.474V44.561H62.43Z" transform="translate(-27.944 -6.587)" fill="#e8e8e8"/>
      <g id="Grupo_1024948" data-name="Grupo 1024948" transform="translate(34.486 20.245)">
        <path id="Trazado_724858" data-name="Trazado 724858" d="M62.43,26.832h7.162V44.561H62.43Z" transform="translate(-62.43 -26.832)" fill="#afafaf"/>
      </g>
      <path id="Trazado_724859" data-name="Trazado 724859" d="M154.57,26.832h19.044V44.561H154.57Z" transform="translate(-75.092 -6.587)" fill="#afafaf"/>
      <g id="Grupo_1024949" data-name="Grupo 1024949" transform="translate(91.36 20.245)">
        <path id="Trazado_724860" data-name="Trazado 724860" d="M178.9,26.832h7.162V44.561H178.9Z" transform="translate(-178.903 -26.832)" fill="#e8e8e8"/>
      </g>
      <path id="Trazado_724861" data-name="Trazado 724861" d="M113.1,152.845H73.438a4.619,4.619,0,0,1-4.583-4.041L60.127,79.632h66.285L117.684,148.8A4.62,4.62,0,0,1,113.1,152.845Z" transform="translate(-26.765 -33.604)" fill="#4db1f0"/>
      <g id="Grupo_1024950" data-name="Grupo 1024950" transform="translate(33.362 46.028)">
        <path id="Trazado_724862" data-name="Trazado 724862" d="M76.017,148.8,67.289,79.632H60.127L68.855,148.8a4.619,4.619,0,0,0,4.583,4.041H80.6A4.62,4.62,0,0,1,76.017,148.8Z" transform="translate(-60.127 -79.632)" fill="#115089"/>
      </g>
      <g id="Grupo_1024951" data-name="Grupo 1024951" transform="translate(79.174 46.027)">
        <path id="Trazado_724863" data-name="Trazado 724863" d="M158.529,148.8l8.728-69.173h7.162L165.691,148.8a4.619,4.619,0,0,1-4.583,4.041h-7.162a4.619,4.619,0,0,0,4.583-4.041Z" transform="translate(-153.946 -79.631)" fill="#63e2e7"/>
      </g>
      <path id="Trazado_724864" data-name="Trazado 724864" d="M122.1,63.14H51.856a4.027,4.027,0,0,0,0,8.053H122.1a4.027,4.027,0,0,0,0-8.053Z" transform="translate(-20.473 -25.165)" fill="#9e9e9e"/>
      <g id="Grupo_1024952" data-name="Grupo 1024952" transform="translate(27.356 37.975)">
        <path id="Trazado_724865" data-name="Trazado 724865" d="M54.991,67.167a4.027,4.027,0,0,1,4.027-4.027H51.856a4.027,4.027,0,0,0,0,8.053h7.162A4.027,4.027,0,0,1,54.991,67.167Z" transform="translate(-47.829 -63.14)" fill="#707070"/>
      </g>
      <g id="Grupo_1024953" data-name="Grupo 1024953" transform="translate(94.463 37.975)">
        <path id="Trazado_724866" data-name="Trazado 724866" d="M189.285,67.167a4.027,4.027,0,0,0-4.027-4.027h7.162a4.027,4.027,0,1,1,0,8.053h-7.162A4.027,4.027,0,0,0,189.285,67.167Z" transform="translate(-185.258 -63.14)" fill="#cecece"/>
      </g>
      <g id="Grupo_1024957" data-name="Grupo 1024957" transform="translate(7.82 13.96)">
        <circle id="Elipse_8579" data-name="Elipse 8579" cx="19.422" cy="19.422" r="19.422" transform="translate(39.262 46.555)" fill="#ffa031"/>
        <g id="Grupo_1024956" data-name="Grupo 1024956">
          <g id="Grupo_1024954" data-name="Grupo 1024954">
            <path id="Trazado_724867" data-name="Trazado 724867" d="M17.343,239.04H8.552a.732.732,0,0,0,0,1.465h8.791a.732.732,0,0,0,0-1.465Z" transform="translate(-7.82 -129.133)" fill="#12263f"/>
            <path id="Trazado_724868" data-name="Trazado 724868" d="M236.7,239.04h-8.791a.732.732,0,0,0,0,1.465H236.7a.732.732,0,0,0,0-1.465Z" transform="translate(-120.065 -129.133)" fill="#12263f"/>
            <path id="Trazado_724869" data-name="Trazado 724869" d="M125.116,239.04H36.753a.732.732,0,0,0,0,1.465h88.363a.732.732,0,1,0,0-1.465Z" transform="translate(-22.25 -129.133)" fill="#12263f"/>
            <path id="Trazado_724870" data-name="Trazado 724870" d="M8.552,119.973h115.9a.732.732,0,1,0,0-1.465H90a5.332,5.332,0,0,0,1.643-3.217l8.648-68.532h1.333a4.759,4.759,0,0,0,0-9.518H99.254v-17a.732.732,0,0,0-.732-.732H79.478a.732.732,0,0,0-.732.732v17H76.758V14.692a.732.732,0,0,0-.732-.732H56.982a.732.732,0,0,0-.732.732v22.55H54.262v-17a.732.732,0,0,0-.732-.732H34.486a.732.732,0,0,0-.732.732v17H31.383a4.759,4.759,0,0,0,0,9.518h1.333l8.648,68.532a5.33,5.33,0,0,0,1.643,3.217H8.552a.732.732,0,1,0,0,1.464Zm71.658-99H97.79V37.242H80.211Zm-22.5-5.553H75.294V37.242H57.715Zm-22.5,5.553H52.8V37.242H35.219ZM28.089,42a3.3,3.3,0,0,1,3.294-3.294h70.242a3.294,3.294,0,0,1,0,6.588H31.383A3.3,3.3,0,0,1,28.089,42Zm14.728,73.108L34.192,46.76H98.816l-8.625,68.349a3.893,3.893,0,0,1-3.856,3.4H46.673A3.894,3.894,0,0,1,42.817,115.109Z" transform="translate(-7.82 -13.96)" fill="#12263f"/>
            <path id="Trazado_724871" data-name="Trazado 724871" d="M106.881,107.8a20.154,20.154,0,1,0,20.154,20.154A20.177,20.177,0,0,0,106.881,107.8Zm0,38.843a18.689,18.689,0,1,1,18.689-18.689A18.71,18.71,0,0,1,106.881,146.643Z" transform="translate(-48.197 -61.978)" fill="#12263f"/>
          </g>
          <g id="Grupo_1024955" data-name="Grupo 1024955" transform="translate(44.376 51.667)">
            <path id="Trazado_724872" data-name="Trazado 724872" d="M117.366,122.036l-1.991-1.991a.937.937,0,1,0-1.325,1.325l.452.452a12.3,12.3,0,0,0-10.476,8.341.937.937,0,1,0,1.777.6,10.43,10.43,0,0,1,8.548-7.034l-.3.3a.937.937,0,0,0,1.325,1.325l1.991-1.991a.937.937,0,0,0,0-1.325Z" transform="translate(-101.399 -119.771)" fill="#12263f"/>
            <path id="Trazado_724873" data-name="Trazado 724873" d="M109.687,156.954a10.429,10.429,0,0,1-7.035-8.549l.3.3a.937.937,0,1,0,1.325-1.325l-1.991-1.991a.937.937,0,0,0-1.325,0l-1.991,1.991a.937.937,0,0,0,1.325,1.325l.452-.452a12.3,12.3,0,0,0,8.343,10.477.937.937,0,1,0,.6-1.778Z" transform="translate(-98.697 -132.74)" fill="#12263f"/>
            <path id="Trazado_724874" data-name="Trazado 724874" d="M137.066,154.613a.937.937,0,0,0-1.187.591,10.43,10.43,0,0,1-8.548,7.033l.3-.3a.937.937,0,1,0-1.325-1.325l-1.991,1.991a.937.937,0,0,0,0,1.325l1.991,1.991a.937.937,0,0,0,1.325-1.325l-.452-.452a12.3,12.3,0,0,0,10.476-8.341.937.937,0,0,0-.591-1.187Z" transform="translate(-111.667 -137.574)" fill="#12263f"/>
            <path id="Trazado_724875" data-name="Trazado 724875" d="M144.844,135.123a.937.937,0,0,0-1.325,0l-.452.452a12.3,12.3,0,0,0-8.341-10.476.937.937,0,0,0-.6,1.777,10.43,10.43,0,0,1,7.033,8.548l-.3-.3a.937.937,0,0,0-1.325,1.325l1.991,1.991a.937.937,0,0,0,1.325,0l1.991-1.991A.937.937,0,0,0,144.844,135.123Z" transform="translate(-116.501 -122.472)" fill="#12263f"/>
          </g>
        </g>
      </g>
    </g>
  </g>
</svg>
