<svg xmlns="http://www.w3.org/2000/svg" xmlns:xlink="http://www.w3.org/1999/xlink" width="640.395" height="282.791" viewBox="0 0 640.395 282.791">
  <defs>
    <clipPath id="clip-path">
      <rect id="Rectángulo_350125" data-name="Rectángulo 350125" width="640.395" height="216.389" fill="none"/>
    </clipPath>
  </defs>
  <g id="Grupo_1027372" data-name="Grupo 1027372" transform="translate(-149.605 -3920.492)">
    <path id="Trazado_720937" data-name="Trazado 720937" d="M336.672,168.574c-7.081,0-14.555.16-22.216.478-15.937.665-32.24,2.133-48.453,4.365a468.286,468.286,0,0,0-49.84,9.65,412.341,412.341,0,0,0-43.728,13.571c-.479.178-.893.332-1.3.49-4.855,1.843-9.611,3.754-14.181,5.7l-.753.323c-3.276,1.411-6.519,2.863-9.662,4.325-3.651,1.7-7.446,3.555-11.6,5.688-7.34,3.77-14.518,7.85-21.334,12.127-3.018,1.894-6.088,3.9-9.126,5.975-3.281,2.237-6.582,4.622-10.09,7.29a214.567,214.567,0,0,0-17.868,15.2A182.433,182.433,0,0,0,61.8,269.517c-1.9,2.288-3.817,4.766-5.871,7.574-2.309,3.159-4.544,6.524-6.831,10.288-1.654,2.717-3.3,5.709-5.039,9.146-1.575,3.119-3.059,6.453-4.54,10.193-1.215,3.076-2.319,6.335-3.375,9.966a107.878,107.878,0,0,0-2.654,11.554,105.087,105.087,0,0,0,.667,39.526,111.764,111.764,0,0,0,5.808,19.119,125.529,125.529,0,0,0,7.57,15.564l.083.146.122.214c1.336,2.3,2.75,4.6,4.228,6.858,1.268,1.943,2.706,4.012,4.4,6.325,2.832,3.877,5.984,7.761,9.633,11.875.134.152.248.277.358.4l.1.113.1.115q2.747,3.036,5.767,6.118c2.02,2.054,4.192,4.152,6.64,6.413l.5.464c2.477,2.252,5.038,4.481,7.636,6.647a.556.556,0,0,0-.484.512.621.621,0,0,0,.675.547H88.39l1.109.905a.8.8,0,0,0,.957,0,.482.482,0,0,0,.195-.382.494.494,0,0,0-.195-.388l-.182-.146,173.72.011h319.6l-.077.056-.006-.005-.748.6-.731.586a.5.5,0,0,0-.2.387.5.5,0,0,0,.2.387.749.749,0,0,0,.475.157.764.764,0,0,0,.478-.157l.6-.481.605-.483.1-.086.064-.06.007,0q.337-.27.67-.544l.084-.063.1-.083.137-.114.064-.051,2.365-.049a.559.559,0,1,0,0-1.093h-1l.122-.084c.072-.061.109-.093.146-.126l.993-.83.059-.06.006.006.132-.11.5-.43.464-.393.113-.093c2.756-2.369,5.448-4.8,8-7.233l.321-.3.273-.263.129-.121L598.1,438l.218-.209.212-.2.781-.759a.69.69,0,0,0,.063-.068c2.965-2.92,5.8-5.89,8.424-8.828l.312-.347.528-.6.243-.277c.3-.341.555-.636.808-.931.466-.549.9-1.057,1.331-1.569l.125-.144.112-.135.206-.245.2-.238c1.265-1.536,2.364-2.9,3.394-4.229,1.421-1.822,2.9-3.826,4.511-6.124a137.941,137.941,0,0,0,7.475-11.922l.116-.2.175-.318a.373.373,0,0,0,.036-.074c.979-1.785,1.932-3.612,2.834-5.428,1.056-2.126,2.09-4.411,3.258-7.2a113.925,113.925,0,0,0,5.434-16.59,106.268,106.268,0,0,0,2.653-16.2,103.711,103.711,0,0,0,.153-15.839,105.7,105.7,0,0,0-2.052-14.893,112.3,112.3,0,0,0-5.119-17.236,123.243,123.243,0,0,0-6.985-14.991,139.421,139.421,0,0,0-9.87-15.479q-1.725-2.35-3.6-4.728c-1.326-1.682-2.794-3.453-4.62-5.573-3.2-3.716-6.768-7.483-10.9-11.514-3.414-3.328-7.17-6.7-11.486-10.314-4.042-3.383-8.422-6.763-13.388-10.334a274.086,274.086,0,0,0-26.279-16.57,323.613,323.613,0,0,0-30.484-14.872l-.206-.087c-6.612-2.806-13.375-5.452-20.143-7.882-6.476-2.329-13.442-4.616-20.7-6.8A443.706,443.706,0,0,0,431,177.2l-.109-.021-.092-.02-.482-.089-.471-.087c-6.081-1.126-12.278-2.154-18.471-3.066-5.494-.81-11.295-1.55-17.733-2.264-10.177-1.128-20.854-1.963-31.73-2.485-.139-.008-.245-.013-.345-.016-7.905-.364-15.929-.556-23.851-.573-.348,0-.7,0-1.046,0M46.132,295.291l.007-.027.044-.05c-.1.188-.2.376-.3.565.074-.146.15-.293.225-.44l.017-.034h0v0l.014-.026Z" transform="translate(148.066 3751.918)" fill="#e1f1fb"/>
    <g id="Grupo_1026443" data-name="Grupo 1026443" transform="translate(149.605 3972.443)">
      <rect id="Rectángulo_350122" data-name="Rectángulo 350122" width="57.144" height="57.144" transform="translate(474.377 84.807)" fill="#1c466d"/>
      <path id="Trazado_727068" data-name="Trazado 727068" d="M425.66,320.409h80.734l-9.081-29.15Z" transform="translate(-212.748 -154.204)" fill="#005353"/>
      <g id="Grupo_1026442" data-name="Grupo 1026442">
        <g id="Enmascarar_grupo_1026441" data-name="Enmascarar grupo 1026441" clip-path="url(#clip-path)">
          <path id="Trazado_727069" data-name="Trazado 727069" d="M452.951,14.868S388.92,89.776,394,101.643l5.085,11.866-11.035,17.354,18.466,43.819,46.43-17.415Z" transform="translate(-197.498 -7.946)" fill="#065958"/>
          <path id="Trazado_727070" data-name="Trazado 727070" d="M519.95,367.266V346.744A28.255,28.255,0,0,1,532.8,323.293l3.843-2.562h90.333v46.535Z" transform="translate(-264.625 -171.408)" fill="#1c466d"/>
          <path id="Trazado_727071" data-name="Trazado 727071" d="M747.858,312.765v7.882c0,9.027,7.719,16.346,17.24,16.346h21.935a7.119,7.119,0,0,0,7.3-6.922l7.143,3.951a23.978,23.978,0,0,0,11.593,2.971h23.567c12.707,0,23.008-9.766,23.008-21.813v-2.414Z" transform="translate(-380.617 -167.151)" fill="#1c466d"/>
          <path id="Trazado_727072" data-name="Trazado 727072" d="M641.388,14.868h-132.4l-5.47,23.955a213.051,213.051,0,0,0,.22,95.927l5.25,22.518h234.4V14.868Z" transform="translate(-253.534 -7.946)" fill="#065958"/>
          <path id="Trazado_727073" data-name="Trazado 727073" d="M605.08,38.823l5.47-23.955H591.881A14.335,14.335,0,0,0,577.72,25.7l-3,13.125a213.044,213.044,0,0,0,.22,95.927l5.25,22.518H610.55L605.3,134.75a213.059,213.059,0,0,1-.22-95.927" transform="translate(-289.773 -7.946)" fill="#383721"/>
          <path id="Trazado_727074" data-name="Trazado 727074" d="M623.255,38.823l5.47-23.955H598.369L592.9,38.823a213.044,213.044,0,0,0,.22,95.927l5.25,22.517h30.357l-5.25-22.517a213.053,213.053,0,0,1-.22-95.927" transform="translate(-299.024 -7.946)" fill="#005353"/>
          <path id="Trazado_727075" data-name="Trazado 727075" d="M611.4,38.823l5.47-23.955H586.512l-5.47,23.955a213.046,213.046,0,0,0,.22,95.927l5.25,22.517h30.357l-5.25-22.517a213.054,213.054,0,0,1-.22-95.927" transform="translate(-292.989 -7.946)" fill="#9fd2d6"/>
          <path id="Trazado_727076" data-name="Trazado 727076" d="M722.432,38.823l5.47-23.955H709.234A14.335,14.335,0,0,0,695.073,25.7l-3,13.125a213.043,213.043,0,0,0,.22,95.927l5.25,22.518H727.9l-5.25-22.518a213.057,213.057,0,0,1-.22-95.927" transform="translate(-349.499 -7.946)" fill="#383721"/>
          <path id="Trazado_727077" data-name="Trazado 727077" d="M740.61,38.823l5.47-23.955H715.723l-5.47,23.955a213.052,213.052,0,0,0,.22,95.927l5.25,22.517H746.08l-5.25-22.517a213.053,213.053,0,0,1-.22-95.927" transform="translate(-358.751 -7.946)" fill="#005353"/>
          <path id="Trazado_727078" data-name="Trazado 727078" d="M728.752,38.823l5.47-23.955H703.865L698.4,38.823a213.055,213.055,0,0,0,.22,95.927l5.25,22.517h30.357l-5.25-22.517a213.05,213.05,0,0,1-.22-95.927" transform="translate(-352.716 -7.946)" fill="#9fd2d6"/>
          <path id="Trazado_727079" data-name="Trazado 727079" d="M839.786,38.823l5.47-23.955H826.587A14.334,14.334,0,0,0,812.426,25.7l-3,13.125a213.048,213.048,0,0,0,.22,95.927l5.25,22.518h30.357l-5.25-22.518a213.056,213.056,0,0,1-.22-95.927" transform="translate(-409.226 -7.946)" fill="#383721"/>
          <path id="Trazado_727080" data-name="Trazado 727080" d="M857.963,38.823l5.47-23.955H833.076l-5.47,23.955a213.055,213.055,0,0,0,.221,95.927l5.25,22.517h30.357l-5.25-22.517a213.053,213.053,0,0,1-.22-95.927" transform="translate(-418.476 -7.946)" fill="#005353"/>
          <path id="Trazado_727081" data-name="Trazado 727081" d="M846.106,38.823l5.47-23.955H821.219l-5.47,23.955a213.055,213.055,0,0,0,.22,95.927l5.25,22.517h30.357l-5.25-22.517a213.054,213.054,0,0,1-.22-95.927" transform="translate(-412.442 -7.946)" fill="#9fd2d6"/>
          <path id="Trazado_727082" data-name="Trazado 727082" d="M587,0l-.193.02a353.152,353.152,0,0,0-66.6,6.9h234.4L754.536,0Z" transform="translate(-264.758)" fill="#005353"/>
          <path id="Trazado_727083" data-name="Trazado 727083" d="M949.006,348.149H922.5V327.627a28.254,28.254,0,0,1,12.846-23.452,15.412,15.412,0,0,1,8.54-2.562h50.1l21.777,43.863Z" transform="translate(-469.498 -161.191)" fill="#1c466d"/>
          <path id="Trazado_727084" data-name="Trazado 727084" d="M585.453,362.463c0,16.453-11.959,29.791-26.711,29.791s-26.711-13.338-26.711-29.791,11.959-29.791,26.711-29.791,26.711,13.338,26.711,29.791" transform="translate(-270.773 -177.79)" fill="#12263f"/>
          <path id="Trazado_727085" data-name="Trazado 727085" d="M585.938,377.25c0,9.339-6.01,16.91-13.424,16.91s-13.423-7.571-13.423-16.91,6.01-16.91,13.423-16.91,13.424,7.571,13.424,16.91" transform="translate(-284.545 -192.576)" fill="#fff"/>
          <path id="Trazado_727086" data-name="Trazado 727086" d="M699.908,362.463c0,16.453-11.959,29.791-26.711,29.791s-26.711-13.338-26.711-29.791,11.959-29.791,26.711-29.791,26.711,13.338,26.711,29.791" transform="translate(-329.025 -177.79)" fill="#12263f"/>
          <path id="Trazado_727087" data-name="Trazado 727087" d="M700.393,377.25c0,9.339-6.01,16.91-13.424,16.91s-13.424-7.571-13.424-16.91,6.01-16.91,13.424-16.91,13.424,7.571,13.424,16.91" transform="translate(-342.796 -192.576)" fill="#fff"/>
          <path id="Trazado_727088" data-name="Trazado 727088" d="M1022.368,362.463c0,16.453-11.959,29.791-26.711,29.791s-26.711-13.338-26.711-29.791,11.959-29.791,26.711-29.791,26.711,13.338,26.711,29.791" transform="translate(-493.138 -177.79)" fill="#12263f"/>
          <path id="Trazado_727089" data-name="Trazado 727089" d="M1022.853,377.25c0,9.339-6.01,16.91-13.424,16.91s-13.424-7.571-13.424-16.91,6.01-16.91,13.424-16.91,13.424,7.571,13.424,16.91" transform="translate(-506.91 -192.576)" fill="#fff"/>
          <path id="Trazado_727090" data-name="Trazado 727090" d="M747.671,323.443,743.6,320.73H704.893l4.069,2.713a29.92,29.92,0,0,1,13.6,24.834v21.732h38.71V348.277a29.921,29.921,0,0,0-13.6-24.834" transform="translate(-358.751 -171.408)" fill="#1c466d"/>
          <path id="Trazado_727091" data-name="Trazado 727091" d="M1099.194,46.043l-71.576-.007c-7.951,0-14.391,6.118-14.372,13.656.063,25.16.164,78.223-.041,99.741a8.742,8.742,0,0,0,8.971,8.582h.324a20.947,20.947,0,0,1,18.262,10.326l18.84,33.072a15.559,15.559,0,0,0,13.564,7.67H1147.4V127.237a29.77,29.77,0,0,0-3.538-14.043l-31.9-59.71a14.424,14.424,0,0,0-12.771-7.441" transform="translate(-515.664 -24.603)" fill="#065958"/>
          <path id="Trazado_727092" data-name="Trazado 727092" d="M718.313,67.678l14.006,19.745-9.481,5.517,26.43-.674,5.348-17.156-6.51,4.041-7.381-10.327a8.546,8.546,0,0,0-8.343-3.412Z" transform="translate(-365.581 -34.899)" fill="#fff"/>
          <path id="Trazado_727093" data-name="Trazado 727093" d="M690.156,74.522,671.865,90.772l13.5,11.364,17.8-16.183L694.31,73.382c-1.215-1.725-2.558-.279-4.154,1.139" transform="translate(-341.941 -38.797)" fill="#fff"/>
          <path id="Trazado_727094" data-name="Trazado 727094" d="M795.26,174.174l-24.735,4.03-1.427-10.46-10.173,23.137,14.319,11.65-1.223-7.285,12.959-2.157a8.193,8.193,0,0,0,6.7-5.819Z" transform="translate(-386.249 -89.647)" fill="#fff"/>
          <path id="Trazado_727095" data-name="Trazado 727095" d="M805.408,144.771,797.259,122.3,780.8,129.317l8.286,22.021,15.719-2.507c2.158-.344,1.316-2.1.6-4.06" transform="translate(-397.382 -65.359)" fill="#fff"/>
          <path id="Trazado_727096" data-name="Trazado 727096" d="M657.034,182.212l4.915-23.334,10.809,2.494L653.636,144.06l-16.611,8.487,7.611,1.534-2.531,12.242a7.723,7.723,0,0,0,3.323,8.018Z" transform="translate(-324.21 -76.99)" fill="#fff"/>
          <path id="Trazado_727097" data-name="Trazado 727097" d="M684.765,208.791l25.051.861-1-17.087-24.652-.576-3.177,14.81c-.436,2.033,1.592,1.918,3.779,1.993" transform="translate(-346.553 -102.604)" fill="#fff"/>
          <path id="Trazado_727098" data-name="Trazado 727098" d="M1042.879,111.04h88l-19.207-40.359H1047.89a5,5,0,0,0-5.011,4.983Z" transform="translate(-530.766 -37.774)" fill="#fff"/>
          <rect id="Rectángulo_350123" data-name="Rectángulo 350123" width="8.769" height="40.359" transform="translate(543.931 32.907)" fill="#12263f"/>
          <rect id="Rectángulo_350124" data-name="Rectángulo 350124" width="56.052" height="21.379" transform="translate(584.343 176.454)" fill="#12263f"/>
          <path id="Trazado_727099" data-name="Trazado 727099" d="M1258.168,288.527l-27.325-7.971v7.266a15.285,15.285,0,0,0,11.6,14.567l15.722,4.24Z" transform="translate(-626.429 -149.937)" fill="#f8dab7"/>
          <path id="Trazado_727100" data-name="Trazado 727100" d="M1130.875,247.259h-45.786l-.009-.163c-.006-.1-.675-10.033-11.53-20.814-5.667-5.628-13.751-8.023-19.535-9.041a56.822,56.822,0,0,0-11.314-.869l-.191.009v-51a.181.181,0,0,1,.362,0v50.636a58.259,58.259,0,0,1,11.209.881c5.837,1.027,14,3.448,19.731,9.142a43.09,43.09,0,0,1,9.966,14.631,24.375,24.375,0,0,1,1.65,6.24h45.084V165.385a.181.181,0,0,1,.362,0Z" transform="translate(-530.578 -88.295)" fill="#fff"/>
          <path id="Trazado_727102" data-name="Trazado 727102" d="M119.571,436.356a6.723,6.723,0,0,1-3-1.239c.116-.3-.135-1.294.665-2.068.875-.847,1.785-.282,3.852-.47s2.721-1.459,4.924-2.84,3.221-6.246,4.165-6.543,3.02.663,5.5.789a10.863,10.863,0,0,0,3.171-.1c.909,1.241-2.1,6.047-1.985,7.846a6.629,6.629,0,0,1-.409,2.942,41.453,41.453,0,0,1-5.858,1.332,52.633,52.633,0,0,1-11.027.349" transform="translate(-59.33 -226.139)" fill="#2e2e47"/>
          <path id="Trazado_727103" data-name="Trazado 727103" d="M115.934,448.422a.154.154,0,0,0,.044-.065,6.728,6.728,0,0,0,3,1.239A52.636,52.636,0,0,0,130,449.247a41.45,41.45,0,0,0,5.858-1.332.526.526,0,0,1,.236.5c0,.389.14,2.044-.25,2.364s-4.329.547-5.134.613-.461-.846-.692-1.1-2.246.091-3.1.221-.386.258-.53.59-.566.182-2.153.253-6.963-.723-7.738-.821a1.109,1.109,0,0,1-1.1-1.195,1.055,1.055,0,0,1,.53-.918" transform="translate(-58.733 -239.379)" fill="#cc8b70"/>
          <path id="Trazado_727104" data-name="Trazado 727104" d="M233.5,111.741l-30.027,24.947s-36.188,19.7-35.041,22.927,7.447,6.14,14.018,6.511,34.423-18.063,43.181-29.189,11.947-26.985,7.869-25.2" transform="translate(-85.706 -59.643)" fill="#ffa031"/>
          <path id="Trazado_727105" data-name="Trazado 727105" d="M330.837,438.037a8.558,8.558,0,0,0,3.291-1.23c-.051-.295.421-1.285-.214-2.054-.694-.841-1.735-.28-3.775-.467s-2.418-1.449-4.332-2.821.755-6.2-.13-6.5-3.188.657-5.712.782a10.66,10.66,0,0,1-3.171-.1c-1.189,1.232-1.84,6.005-2.352,7.792a6.241,6.241,0,0,0-.237,2.922,36.278,36.278,0,0,0,5.6,1.325,52.738,52.738,0,0,0,11.027.349" transform="translate(-159.875 -227.085)" fill="#2e2e47"/>
          <path id="Trazado_727106" data-name="Trazado 727106" d="M333.483,450.018a.112.112,0,0,1-.029-.065,8.547,8.547,0,0,1-3.291,1.23,52.735,52.735,0,0,1-11.026-.349,36.267,36.267,0,0,1-5.6-1.325.69.69,0,0,0-.349.5c-.082.386-.592,2.03-.27,2.347s4.239.544,5.035.61.651-.84.94-1.1,2.241.091,3.069.22.331.257.4.587.53.181,2.113.251,7.17-.716,7.972-.813a1.454,1.454,0,0,0,1.368-1.186.821.821,0,0,0-.331-.912" transform="translate(-159.201 -240.232)" fill="#cc8b70"/>
          <path id="Trazado_727107" data-name="Trazado 727107" d="M272.119,148.656l2.292-16.053L260.535,159.47a80.05,80.05,0,0,0,11.584-10.814" transform="translate(-132.598 -70.867)" fill="#2e2e47"/>
          <path id="Trazado_727108" data-name="Trazado 727108" d="M244.244,163.379c0-.04,4.487-43.081-2.67-50.168-4.46-4.416-14.2-4.977-19.472-3.8-9.248,2.059-15.372,41.3-24.817,56.707-23.138,37.759-54.791,91.386-54.791,91.386s1.228,1.487,7.5,1.552c5.9.061,8.18-1.023,8.18-1.023L217.2,185.2l20.612,23.563-12.9,48.736s1.326,1.553,6.908,2.1a53.757,53.757,0,0,0,9.8.071s19.4-39.651,19.442-53.461c.04-12.664-15.636-31.788-16.815-42.833" transform="translate(-72.521 -58.186)" fill="#ffa031"/>
          <path id="Trazado_727109" data-name="Trazado 727109" d="M298.053,113.21c-4.46-4.416-14.2-4.977-19.472-3.8-9.247,2.059-15.372,41.3-24.816,56.707-.1.161-.2.322-.3.484,4.659,3.823,14.81,4.255,14.81,4.255,1.868-4.373,15.005-60.532,15.72-61.2s5.065-.664,6.525.249-9.956,62.387-9.956,62.387c7.589.249,17.6.332,24.494-2.934-.925-2.336.149-49.06-7.009-56.148" transform="translate(-129.001 -58.186)" fill="#fff"/>
          <path id="Trazado_727110" data-name="Trazado 727110" d="M335.187,207.715c-.067-2.272-.144-4.805-.246-7.484a128.05,128.05,0,0,1-19.927-.2c-.462,2.605-.908,5.1-1.323,7.411,4.817.432,9.141.575,12.741.575,3.823,0,6.832-.16,8.754-.3" transform="translate(-159.651 -106.903)" fill="#daeefd"/>
          <path id="Trazado_727111" data-name="Trazado 727111" d="M264.973,198.523a127.706,127.706,0,0,0,12.876,2.884c.577-2.278,1.192-4.737,1.828-7.294a119.06,119.06,0,0,1-12.23-2.69c-.808,2.442-1.631,4.829-2.474,7.1" transform="translate(-134.856 -102.303)" fill="#c1bfbd"/>
          <path id="Trazado_727112" data-name="Trazado 727112" d="M298.782,135.542s-.963,20.085-5.6,29.053S280.4,177.63,273.389,180.869s-20.434,2.956-20.434,2.956,25.776-15,31.732-22.8,14.095-25.482,14.095-25.482" transform="translate(-128.74 -72.438)" fill="#2e2e47"/>
          <path id="Trazado_727113" data-name="Trazado 727113" d="M321.709,376.926l-1.408,5.32c3.471.947,12.239,3.253,19.27,4.4.727-1.675,1.473-3.421,2.219-5.207a199.442,199.442,0,0,1-20.08-4.511" transform="translate(-163.015 -201.44)" fill="#daeefd"/>
          <path id="Trazado_727114" data-name="Trazado 727114" d="M335.628,400.039a68.045,68.045,0,0,1-18.544-4.768l-1.428,5.4a73.762,73.762,0,0,0,17.6,4.612c.722-1.571,1.523-3.336,2.37-5.24" transform="translate(-160.651 -211.245)" fill="#daeefd"/>
          <path id="Trazado_727115" data-name="Trazado 727115" d="M173.34,367.529q-1.614,2.709-3.119,5.24a47.56,47.56,0,0,0,12.423,10.716l3.544-4.373a42.609,42.609,0,0,1-12.848-11.582" transform="translate(-86.633 -196.418)" fill="#daeefd"/>
          <path id="Trazado_727116" data-name="Trazado 727116" d="M83.35,205.016l10.106-10.381a8.655,8.655,0,0,1,7.913-2.373l41.139,8.425a8.212,8.212,0,0,1,6.224,5.4l4.315,13.2Z" transform="translate(-42.42 -102.655)" fill="#3d8dc0"/>
          <path id="Trazado_727117" data-name="Trazado 727117" d="M110.447,409.9l.018-.648-2.015-.01c-3.494-.146-6.555,4.641-6.836,10.692s2.323,11.075,5.818,11.221c.081,0,.161,0,.24,0l2.194.013.02-.741c2.372-1.548,4.17-5.4,4.382-9.966.224-4.825-1.386-9-3.82-10.564" transform="translate(-51.704 -218.711)" fill="#2e2e47"/>
          <path id="Trazado_727118" data-name="Trazado 727118" d="M118.922,420.49c-.281,6.051-3.342,10.839-6.836,10.692s-6.1-5.17-5.818-11.221,3.342-10.839,6.836-10.692,6.1,5.17,5.818,11.221" transform="translate(-54.074 -218.724)" fill="#2e2e47"/>
          <path id="Trazado_727119" data-name="Trazado 727119" d="M69.649,232.124,56.931,319.786a2.861,2.861,0,0,0,2.338,3.05l43.95,9.148a3.032,3.032,0,0,0,3.416-1.7l30.744-84.818Z" transform="translate(-28.967 -124.054)" fill="#3d8dc0"/>
          <path id="Trazado_727120" data-name="Trazado 727120" d="M149.577,230.418,80.359,216.01a3.324,3.324,0,0,0-4.095,3.492l.41,3.512A2.893,2.893,0,0,0,79,225.47L146.416,239.5a3.067,3.067,0,0,0,3.113-1.176l2.124-2.964a3.171,3.171,0,0,0-2.077-4.944" transform="translate(-38.803 -115.401)" fill="#bae0fa"/>
          <path id="Trazado_727121" data-name="Trazado 727121" d="M98.682,291.4l.861,7.255-2.065,1.54,4.6.732,2.267-5.666-1.437,1.143-.46-3.8c-.11-.954-.568-1.529-1.168-1.469Z" transform="translate(-49.611 -155.593)" fill="#fff"/>
          <path id="Trazado_727122" data-name="Trazado 727122" d="M93.29,292.882l-4.423,4.886,1.431,4.373,4.334-4.881-.537-4.616c-.074-.634-.418-.189-.8.238" transform="translate(-45.228 -156.229)" fill="#fff"/>
          <path id="Trazado_727123" data-name="Trazado 727123" d="M103.545,330.464l-4.574.476.576-3.625-3.567,7.533,1.551,4.5.361-2.533,2.4-.265c.6-.059,1.23-.742,1.61-1.744Z" transform="translate(-48.848 -174.927)" fill="#fff"/>
          <path id="Trazado_727124" data-name="Trazado 727124" d="M108.412,321.1l.361-7.974-3.384,1.8-.3,7.824,2.9-.284c.4-.039.391-.669.423-1.365" transform="translate(-53.483 -167.341)" fill="#fff"/>
          <path id="Trazado_727125" data-name="Trazado 727125" d="M79.712,328.2l2.677-7.792,1.665,1.245-1.933-6.609L78.6,317.343l1.19.8-1.4,4.09a4.192,4.192,0,0,0-.057,2.859Z" transform="translate(-39.753 -168.371)" fill="#fff"/>
          <path id="Trazado_727126" data-name="Trazado 727126" d="M82.519,337.822l4.244,1.206,1.169-5.874-4.2-1.094L82.025,337c-.235.679.124.713.494.818" transform="translate(-41.708 -177.463)" fill="#fff"/>
          <path id="Trazado_727127" data-name="Trazado 727127" d="M101.247,240.671l55.832,17.254,2.063-5.2Z" transform="translate(-51.529 -128.622)" fill="#2e2e47"/>
          <path id="Trazado_727128" data-name="Trazado 727128" d="M162.4,410.5l.018-.648-2.015-.01c-3.494-.146-6.555,4.641-6.837,10.692s2.323,11.075,5.818,11.222c.08,0,.161,0,.24,0l2.194.013.02-.741c2.372-1.548,4.17-5.4,4.382-9.966.224-4.825-1.386-9-3.82-10.564" transform="translate(-78.143 -219.031)" fill="#2e2e47"/>
          <path id="Trazado_727129" data-name="Trazado 727129" d="M170.87,421.089c-.281,6.052-3.342,10.838-6.836,10.692s-6.1-5.17-5.818-11.222,3.342-10.838,6.836-10.692,6.1,5.17,5.818,11.222" transform="translate(-80.513 -219.044)" fill="#2e2e47"/>
          <path id="Trazado_727130" data-name="Trazado 727130" d="M171.023,428.535c-.111,2.393-1.321,4.286-2.7,4.228s-2.412-2.045-2.3-4.437,1.321-4.286,2.7-4.228,2.412,2.044,2.3,4.437" transform="translate(-84.49 -226.65)" fill="#fff"/>
          <path id="Trazado_727131" data-name="Trazado 727131" d="M206.863,241.831a1.8,1.8,0,0,1-.947-.267,1.6,1.6,0,0,1-.51-2.282l3.829-5.582-13.538-2.78-3.891,5.26a1.8,1.8,0,0,1-2.423.4,1.6,1.6,0,0,1-.426-2.3l4.555-6.158a1.786,1.786,0,0,1,1.792-.665l17.132,3.518a1.719,1.719,0,0,1,1.24.984,1.575,1.575,0,0,1-.15,1.527l-5.2,7.587a1.766,1.766,0,0,1-1.46.75" transform="translate(-96.009 -121.543)" fill="#bae0fa"/>
          <path id="Trazado_727132" data-name="Trazado 727132" d="M284.055,123.154l-19.821,27.468s-25.054,12.473-29.258,16.615c-2.492,2.455-.525,9.13,6.046,9.5s26.678-5.939,35.436-17.066c6.68-8.487,13.619-28.878,12.785-35.117a2.989,2.989,0,0,0-5.188-1.4" transform="translate(-119.059 -65.274)" fill="#ffa031"/>
          <path id="Trazado_727133" data-name="Trazado 727133" d="M227.922,225.116s-7.568,2.768-7.462,2.989,2.587.775,2.587.941-4.286,1.094-4.127,2.408c.109.9,3.753.671,5.5.893s5.722-3.522,6.656-3.854-1.094-4.14-3.153-3.377" transform="translate(-111.415 -120.255)" fill="#ffa982"/>
          <path id="Trazado_727134" data-name="Trazado 727134" d="M330.607,75.768s.116,4.088-1.619,5.4-2.526.948-3.574.245-.71-6.977,1.288-6.8,3.475.671,3.906,1.153" transform="translate(-165.321 -39.874)" fill="#2e2e47"/>
          <path id="Trazado_727135" data-name="Trazado 727135" d="M322.265,89.436s-.057,6.882.088,9.708c.033.643-.074,1.625-1.4,1.7-1.354.081-4.085-.373-5.153-1.287-.535-.458,1.068-2.782,1.38-5.148a30.458,30.458,0,0,1,.786-4.307c.231-.368,3.831-1.33,4.3-.67" transform="translate(-160.667 -47.677)" fill="#ffa982"/>
          <path id="Trazado_727136" data-name="Trazado 727136" d="M308.329,71.283s-.3,1.776-.769,3.385c-.289,1-.681,1.826-1.15,3.3a3.811,3.811,0,0,0,2.406,4.946c2.77,1.124,6.161.533,7.289-.769a8.857,8.857,0,0,0,1.572-3.421s.5.764,1.339-.173,1.829-2.5.854-2.965-1.321.333-1.536.187.044-1.762,0-3.114c-.044-1.317-6.129-4.607-10-1.377" transform="translate(-155.837 -37.36)" fill="#ffa982"/>
          <path id="Trazado_727137" data-name="Trazado 727137" d="M306.036,86.452a.071.071,0,0,0-.13-.02,5.321,5.321,0,0,0-.745,2.171c-.051,1.136-.321,2.53.238,3.334s2.652,1.718,4.269,1.919a8.617,8.617,0,0,0,4.673-.643,6.414,6.414,0,0,0,2.153-3.556c-.008-.8.23-2.435.279-2.88s-.542-.338-.664-.19-2.84,3.265-3.974,2.751c-1.218-.552-1.76-1.806-3.327-1.965-2.111-.213-2.435.185-2.772-.919" transform="translate(-155.254 -46.173)" fill="#2e2e47"/>
          <path id="Trazado_727138" data-name="Trazado 727138" d="M318.768,78.63a.11.11,0,0,0,.051.017,7.988,7.988,0,0,1,1.766.48.112.112,0,0,0,.143-.055.1.1,0,0,0-.058-.136,8.093,8.093,0,0,0-1.831-.495.108.108,0,0,0-.119.094.1.1,0,0,0,.048.1" transform="translate(-162.21 -41.921)" fill="#2e2e47"/>
          <path id="Trazado_727139" data-name="Trazado 727139" d="M308.677,89.211s1.49.314,3.54.7a4.272,4.272,0,0,1-1.675.8,3.575,3.575,0,0,1-.57.089c-.667.05-1.341-.449-1.318-.977.011-.248.02-.486.022-.609" transform="translate(-157.087 -47.677)" fill="#fff"/>
          <path id="Trazado_727140" data-name="Trazado 727140" d="M319.622,86.514c-.089.371-.762.541-1.5.381s-1.27-.59-1.181-.96.762-.541,1.5-.381,1.27.59,1.181.96" transform="translate(-161.298 -45.69)" fill="#f2836d"/>
          <path id="Trazado_727141" data-name="Trazado 727141" d="M308.367,83.606a.867.867,0,0,1-1.079.473c-.507-.109-.846-.5-.757-.869a.867.867,0,0,1,1.079-.473c.507.109.846.5.757.869" transform="translate(-156 -44.202)" fill="#f2836d"/>
          <path id="Trazado_727142" data-name="Trazado 727142" d="M327.593,78.023s-.259,2.815.179,3.124.811.229,1.235-.194,1.168-2.837.848-3.046a7.555,7.555,0,0,0-2.262.116" transform="translate(-166.688 -41.598)" fill="#2e2e47"/>
          <path id="Trazado_727143" data-name="Trazado 727143" d="M312.324,82.575a4.256,4.256,0,0,0-1.35.9c-.255.41-.423.67-.25,1.052a1.114,1.114,0,0,0,1.459.325c.662-.277.142-2.278.142-2.278" transform="translate(-158.104 -44.131)" fill="#ffa982"/>
          <path id="Trazado_727144" data-name="Trazado 727144" d="M310.79,82.02A1.942,1.942,0,0,0,312.444,82a.1.1,0,0,0,.068-.132.111.111,0,0,0-.139-.064c-.833.272-1.43.223-1.639-.134a.906.906,0,0,1,.33-1.087,3.3,3.3,0,0,0,1.571-2.863c-.274-.764-1.98-.413-2.053-.4a.1.1,0,0,0-.083.124.11.11,0,0,0,.131.079c.441-.093,1.624-.227,1.8.262a3.161,3.161,0,0,1-1.5,2.635,1.1,1.1,0,0,0-.383,1.348.756.756,0,0,0,.246.254" transform="translate(-157.996 -41.271)" fill="#2e2e47"/>
          <path id="Trazado_727145" data-name="Trazado 727145" d="M317.889,81.3a.109.109,0,0,0,.044.016c.008,0,.806.122,1.942.41a.11.11,0,0,0,.134-.074.1.1,0,0,0-.077-.127c-1.148-.291-1.956-.412-1.964-.414a.109.109,0,0,0-.125.087.1.1,0,0,0,.047.1" transform="translate(-161.763 -43.345)" fill="#2e2e47"/>
          <path id="Trazado_727146" data-name="Trazado 727146" d="M318.871,81.515a.519.519,0,0,0-.626.1.917.917,0,0,0-.006,1.033.567.567,0,0,0,.828-.057,1.283,1.283,0,0,0,.184-.852.817.817,0,0,0-.38-.228" transform="translate(-161.886 -43.532)" fill="#2e2e47"/>
          <path id="Trazado_727147" data-name="Trazado 727147" d="M309.817,79.284a.121.121,0,0,0,.034.014,13.631,13.631,0,0,1,1.379.427.112.112,0,0,0,.142-.057.1.1,0,0,0-.061-.135,13.7,13.7,0,0,0-1.406-.436.11.11,0,0,0-.134.074.1.1,0,0,0,.045.112" transform="translate(-157.655 -42.271)" fill="#2e2e47"/>
          <path id="Trazado_727148" data-name="Trazado 727148" d="M310.788,79.69c-.065-.128-.407-.325-.616-.12a1,1,0,0,0-.2.908c.095.247.467.171.61-.006a.962.962,0,0,0,.2-.782" transform="translate(-157.739 -42.477)" fill="#2e2e47"/>
          <path id="Trazado_727149" data-name="Trazado 727149" d="M303.382,72.409s-6.671.646-6.378,1.324,3.687,1.741,5.843,1.851,9.98.7,10.267.536c.171-.095-4.363-1.083-7.212-2.118a5.188,5.188,0,0,1-2.52-1.593" transform="translate(-151.154 -38.698)" fill="#2e2e47"/>
          <path id="Trazado_727150" data-name="Trazado 727150" d="M319.987,61.771a24.276,24.276,0,0,0-2.46-.539,22.2,22.2,0,0,1,6.118.078,6.33,6.33,0,0,1,3.818,3.437c.445,1.168-.1,2.836-.3,4.293l-.293,1.377s-2.491-.186-3.206-.341l-.248-.055a16.055,16.055,0,0,0,.121-4.262,4.939,4.939,0,0,0-3.552-3.988" transform="translate(-161.603 -32.631)" fill="#ffa031"/>
          <path id="Trazado_727151" data-name="Trazado 727151" d="M313.688,61.434a24.44,24.44,0,0,1,2.46.539A4.939,4.939,0,0,1,319.7,65.96a16.053,16.053,0,0,1-.121,4.262c-6.108-1.346-8.92-2.8-9.6-3.489,0,0,.844-4.772,3.255-5.225q.22-.041.449-.074" transform="translate(-157.764 -32.832)" fill="#ffd3b5"/>
          <path id="Trazado_727152" data-name="Trazado 727152" d="M344.671,332.965c-.312,0-1.161-.343-4.331-3.128-1.833-1.61-3.575-3.279-3.592-3.3a.165.165,0,0,1,0-.243.188.188,0,0,1,.256,0c3.3,3.164,7.032,6.361,7.66,6.319.074-.89-3.341-4.159-5.181-5.921-.725-.694-1.3-1.242-1.606-1.576-.158-.171-.13-.294-.078-.367.218-.306,1.169-.067,5.995,1.51a50.088,50.088,0,0,0,5.645,1.657c-1.732-1.556-12.966-4.5-13.08-4.527a.171.171,0,0,1-.127-.211.182.182,0,0,1,.222-.12c.468.122,11.481,3,13.246,4.619.078.072.287.263.167.45-.213.33-1.255.07-6.191-1.543a50.411,50.411,0,0,0-5.446-1.609c.32.336.876.868,1.511,1.476,2.86,2.738,5.416,5.273,5.284,6.214a.318.318,0,0,1-.221.27.4.4,0,0,1-.134.023m4.874-4.928h0Z" transform="translate(-171.12 -172.651)" fill="#2e2e47"/>
          <path id="Trazado_727153" data-name="Trazado 727153" d="M341.993,319.191a.178.178,0,0,1-.18-.153.175.175,0,0,1,.161-.19c.529-.054,12.99-1.329,13.964-1.246a.176.176,0,0,1,.165.187.179.179,0,0,1-.2.155c-.747-.066-9.415.786-13.893,1.245h-.019" transform="translate(-173.963 -169.734)" fill="#2e2e47"/>
          <path id="Trazado_727154" data-name="Trazado 727154" d="M270.123,271.359a.18.18,0,0,1-.171-.115.17.17,0,0,1,.111-.219c.054-.018,5.491-1.806,11.671-3.531,8.311-2.319,13.934-3.426,16.716-3.286,2.816.14,3.206.55,3.231.892.09,1.241-6.352,2.433-6.417,2.445a71.364,71.364,0,0,1-8.148.86l11.237,1.784a.173.173,0,0,1,.149.2.181.181,0,0,1-.209.141l-12.9-2.048a.174.174,0,0,1-.151-.181.177.177,0,0,1,.175-.16,79.6,79.6,0,0,0,9.78-.931c3.488-.637,6.156-1.643,6.124-2.083,0-.044-.112-.434-2.888-.573-6.545-.329-28.032,6.728-28.249,6.8a.189.189,0,0,1-.059.01" transform="translate(-137.385 -141.194)" fill="#2e2e47"/>
          <path id="Trazado_727155" data-name="Trazado 727155" d="M303.506,187.121a17.768,17.768,0,0,1-4.549-1.14c-2.173-.721-4.277-1.535-4.3-1.543a.168.168,0,0,1-.1-.224.185.185,0,0,1,.236-.094c5.2,2.015,8.711,2.921,8.984,2.6a.173.173,0,0,0-.008-.034c-.282-.93-4.86-2.174-7.678-2.74a.173.173,0,0,1-.143-.182.177.177,0,0,1,.172-.158,73.5,73.5,0,0,0,8.082-.662,65.505,65.505,0,0,0-9.114.092.178.178,0,0,1-.192-.161.175.175,0,0,1,.169-.182c.875-.051,8.576-.487,9.556.021.18.093.171.22.158.271-.044.183-.1.412-4.443.722-1.054.075-2.112.136-2.9.178,2.194.5,6.343,1.593,6.681,2.705a.345.345,0,0,1-.1.387c-.066.056-.166.141-.516.141" transform="translate(-149.908 -97.519)" fill="#2e2e47"/>
          <path id="Trazado_727156" data-name="Trazado 727156" d="M244.57,173.716a.993.993,0,0,1-.5-.208c-2.036-1.4-4.514-7.887-4.618-8.163a.169.169,0,0,1,.109-.22.184.184,0,0,1,.232.1c.026.067,2.544,6.664,4.49,8a.939.939,0,0,0,.252.136c.108-.481-1.343-3.354-2.794-5.817a.166.166,0,0,1,.05-.221.188.188,0,0,1,.238.017c2.507,2.41,4.927,4.254,5.288,4.026.16-.322-1.578-2.7-4.676-5.97a.166.166,0,0,1,.013-.243.189.189,0,0,1,.256.013c.012.013,1.229,1.3,2.414,2.688,2.187,2.564,2.388,3.253,2.349,3.548a.335.335,0,0,1-.155.25c-.283.179-.912.13-3.275-1.852-.588-.494-1.159-1-1.6-1.41.291.518.656,1.179,1,1.848,1.573,3.028,1.287,3.269,1.133,3.4a.314.314,0,0,1-.208.073" transform="translate(-121.863 -88.242)" fill="#2e2e47"/>
        </g>
      </g>
    </g>
  </g>
</svg>
