<svg id="Grupo_1027382" data-name="Grupo 1027382" xmlns="http://www.w3.org/2000/svg" xmlns:xlink="http://www.w3.org/1999/xlink" width="362" height="357.987" viewBox="0 0 362 357.987">
  <defs>
    <clipPath id="clip-path">
      <rect id="Rectángulo_350070" data-name="Rectángulo 350070" width="362" height="357.987" fill="#2e6a90"/>
    </clipPath>
    <clipPath id="clip-path-2">
      <path id="Trazado_726850" data-name="Trazado 726850" d="M152.7,23.593C75.277,33.713,39.331,90.879,32.12,102.249-7.3,164.408-15.218,258.573,35.607,318.342c33.594,39.506,80.06,48.943,104.1,53.826a228.275,228.275,0,0,0,44.919,4.388h.171c31.666-.013,74.176-6.48,112.516-33.989a129.7,129.7,0,0,0,19.843-16.707C372.978,267.091,385.729,125,302.706,55.442c-30.239-25.334-74.531-34.127-114.653-34.126A274.6,274.6,0,0,0,152.7,23.593" transform="translate(0 -21.316)" fill="#d7e6f0"/>
    </clipPath>
    <clipPath id="clip-path-3">
      <rect id="Rectángulo_350006" data-name="Rectángulo 350006" width="362" height="357.986" fill="none"/>
    </clipPath>
    <clipPath id="clip-path-4">
      <rect id="Rectángulo_350004" data-name="Rectángulo 350004" width="64.847" height="241.773" fill="none"/>
    </clipPath>
    <clipPath id="clip-path-5">
      <rect id="Rectángulo_350005" data-name="Rectángulo 350005" width="26.22" height="116.351" fill="none"/>
    </clipPath>
    <clipPath id="clip-path-6">
      <path id="Trazado_726855" data-name="Trazado 726855" d="M1460.111,1000.484a13.329,13.329,0,1,0,13.329-13.329,13.329,13.329,0,0,0-13.329,13.329" transform="translate(-1460.111 -987.155)" fill="none"/>
    </clipPath>
    <linearGradient id="linear-gradient" x1="-7.057" y1="8.658" x2="-7.053" y2="8.658" gradientUnits="objectBoundingBox">
      <stop offset="0" stop-color="#fdf53f"/>
      <stop offset="1" stop-color="#d93c65"/>
    </linearGradient>
    <clipPath id="clip-path-7">
      <path id="Trazado_726856" data-name="Trazado 726856" d="M1473.275,1081.663h-13.329s-1.061,7.616,10.835,27.88a2.983,2.983,0,0,0,2.492,1.522,3.03,3.03,0,0,0,2.494-1.567c11.895-20.265,10.812-27.835,10.812-27.835Z" transform="translate(-1459.922 -1081.663)" fill="none"/>
    </clipPath>
    <linearGradient id="linear-gradient-2" x1="-6.501" y1="7.435" x2="-6.496" y2="7.435" xlink:href="#linear-gradient"/>
    <clipPath id="clip-path-9">
      <rect id="Rectángulo_350009" data-name="Rectángulo 350009" width="15.392" height="15.394" fill="none"/>
    </clipPath>
    <clipPath id="clip-path-10">
      <path id="Trazado_726859" data-name="Trazado 726859" d="M1501.682,1035.324a7.266,7.266,0,1,1,7.266,7.266,7.274,7.274,0,0,1-7.266-7.266m-.86,0a8.126,8.126,0,1,0,8.126-8.126,8.135,8.135,0,0,0-8.126,8.126" transform="translate(-1500.822 -1027.198)" fill="none"/>
    </clipPath>
    <linearGradient id="linear-gradient-3" x1="-10.355" y1="12.217" x2="-10.348" y2="12.217" xlink:href="#linear-gradient"/>
    <clipPath id="clip-path-12">
      <path id="Trazado_726866" data-name="Trazado 726866" d="M287.129,1626.923l104.688-4.01,101.539,5.612,108.444-4.786-7.939-11.821c-24.745-15.148-45.688-30.612-59.572-46.665l-247.154-62.431Z" transform="translate(-287.129 -1502.823)" fill="#265e91"/>
    </clipPath>
    <clipPath id="clip-path-14">
      <path id="Trazado_726884" data-name="Trazado 726884" d="M938.735,1023.39a15.137,15.137,0,0,1-2.431,3.194c-2.249,1.845-5.276,1.057-8.267.268-3.159-.833-6.277-1.666-8.389.607,1.454,1.587.353,4.428-1.391,5.63-7.437,5.126-15.755,4.706-24.071,4.286-7.83-.4-15.659-.792-22.755,3.44-1.592.95-3.067,2.128-4.716,2.961-5.573,2.814-12.154,1.284-18-.806s-11.815-4.729-17.931-3.971c6.306,1.64,12.063,5.089,18.172,7.441s13.063,3.545,18.965.647c4.162-2.044,7.373-5.558,11.907-6.776,4.892-1.315,10.517-.615,15.457.21a35.315,35.315,0,0,0,4.836.648c2.915.079,5.769-.779,8.632-1.376a48.831,48.831,0,0,1,16.79-.547c1.047.148,2.264.47,2.666,1.521a7.92,7.92,0,0,1,.222,1.7c.478,3.273,5.311,7.042,7.306,9.635,3.021,3.927,6.451,8.4,5.384,13.894-1.184,6.091-7.313,9.244-12.693,11.534-1.391.592-3.073,2.112-2.2,3.415.479.712,1.456.748,2.122,1.257,1.041.8,1.007,2.579.258,3.69a6.754,6.754,0,0,1-3.17,2.2,55.39,55.39,0,0,1-17.2,4.191,12.276,12.276,0,0,1-.36,14.8,20.936,20.936,0,0,1-5.667,4.19c-7.18,4.136-13.219,6.487-20.022,7.632-3.4.572-11.762,1.856-15.78,1.9-1.494,8.338,13.169,3.283,17.475,1.56l14.227-5.7c5.761-2.306,11.73-4.755,15.991-9.52,3.228-3.609,5.29-8.363,8.881-11.55,1.724-1.53,3.737-2.638,5.514-4.1,4.714-3.87,6.94-11.481,11.125-3.159,2.458,4.888,8.521,5.685,13.657,6.3s10.408,1.695,14.735,4.75,7.538,8.5,6.853,14.013c-.193,1.555-.675,3.169-.189,4.648.518,1.576,1.978,2.522,3.334,3.339l9.34,5.628c3.475,2.094,7.3,4.684,8.088,8.883.95,5.063-2.7,9.434-2.9,14.3-.18,4.52,2.591,7.226,5.85,9.912,2.881,2.374,6.036,4.888,7.077,8.628.426,1.531.459,3.17.94,4.683.454,1.431-.295,8.025.526,9.253,1.243,1.86,2.795,4,4.038,5.862.366.549,1.073-.381,1.807-1.312.7-.881,1.417-1.762,1.9-1.386-.161-2.571-1.753-4.73-3.1-6.864-3.338-5.308-5.382-11.34-7.924-17.094-2.008-4.544-4.974-10.016-5.282-15.123-.427-7.086,5.074-14.861,1.25-20.65-10.756-3.4-21.817-10.81-24.114-22.611-.486-2.5-.589-5.194-1.919-7.306a10.039,10.039,0,0,0-3.328-3.057c-6.846-4.249-15.2-4.327-22.733-6.893-3.191-1.086-6.684-3.243-7.019-6.823-.187-2,.689-3.905,1.447-5.74,1.906-4.615,3.2-9.813,2.017-14.7-1.643-6.79-7.625-11.443-9.909-18.016a5.466,5.466,0,0,1-.373-2.752,6.035,6.035,0,0,1,2.328-3.219l17.959-15.6a11.2,11.2,0,0,0-5.151-1.225,12.454,12.454,0,0,0-10.1,5.2" transform="translate(-830.787 -1018.187)" fill="#265e91"/>
    </clipPath>
    <clipPath id="clip-path-16">
      <rect id="Rectángulo_350017" data-name="Rectángulo 350017" width="2.362" height="245.146" fill="none"/>
    </clipPath>
    <clipPath id="clip-path-18">
      <rect id="Rectángulo_350020" data-name="Rectángulo 350020" width="104.278" height="251.013" fill="none"/>
    </clipPath>
    <clipPath id="clip-path-19">
      <path id="Trazado_726886" data-name="Trazado 726886" d="M394.245,981.839a23.571,23.571,0,1,0,23.571-23.571,23.571,23.571,0,0,0-23.571,23.571" transform="translate(-394.245 -958.268)" fill="#ffa031"/>
    </clipPath>
    <clipPath id="clip-path-20">
      <path id="Trazado_726887" data-name="Trazado 726887" d="M417.525,1125.476H393.954s-1.877,13.464,19.16,49.3a5.274,5.274,0,0,0,4.408,2.689,5.356,5.356,0,0,0,4.411-2.767c21.034-35.838,19.12-49.221,19.12-49.221Z" transform="translate(-393.911 -1125.476)" fill="#ffa031"/>
    </clipPath>
    <clipPath id="clip-path-22">
      <rect id="Rectángulo_350024" data-name="Rectángulo 350024" width="27.221" height="27.221" fill="none"/>
    </clipPath>
    <clipPath id="clip-path-23">
      <path id="Trazado_726890" data-name="Trazado 726890" d="M467.759,1043.452a12.85,12.85,0,1,1,12.85,12.85,12.865,12.865,0,0,1-12.85-12.85m-1.521,0a14.371,14.371,0,1,0,14.371-14.371,14.387,14.387,0,0,0-14.371,14.371" transform="translate(-466.238 -1029.081)" fill="none"/>
    </clipPath>
    <linearGradient id="linear-gradient-4" x1="-2.09" y1="7.842" x2="-2.086" y2="7.842" gradientUnits="objectBoundingBox">
      <stop offset="0" stop-color="#e1473d"/>
      <stop offset="1" stop-color="#e9605a"/>
    </linearGradient>
    <clipPath id="clip-path-25">
      <rect id="Rectángulo_350027" data-name="Rectángulo 350027" width="14.063" height="5.493" fill="none"/>
    </clipPath>
    <clipPath id="clip-path-26">
      <rect id="Rectángulo_350028" data-name="Rectángulo 350028" width="3.582" height="11.455" fill="none"/>
    </clipPath>
    <clipPath id="clip-path-27">
      <path id="Trazado_726893" data-name="Trazado 726893" d="M1126.472,633.144a13.329,13.329,0,1,0,13.329-13.329,13.329,13.329,0,0,0-13.329,13.329" transform="translate(-1126.472 -619.815)" fill="#ffa031"/>
    </clipPath>
    <clipPath id="clip-path-28">
      <path id="Trazado_726894" data-name="Trazado 726894" d="M1139.637,714.324h-13.329s-1.061,7.616,10.835,27.88a2.984,2.984,0,0,0,2.493,1.522,3.03,3.03,0,0,0,2.494-1.567c11.895-20.265,10.812-27.835,10.812-27.835Z" transform="translate(-1126.283 -714.324)" fill="#ffa031"/>
    </clipPath>
    <clipPath id="clip-path-31">
      <path id="Trazado_726897" data-name="Trazado 726897" d="M1168.042,667.984a7.266,7.266,0,1,1,7.266,7.266,7.275,7.275,0,0,1-7.266-7.266m-.86,0a8.126,8.126,0,1,0,8.126-8.126,8.135,8.135,0,0,0-8.126,8.126" transform="translate(-1167.183 -659.858)" fill="none"/>
    </clipPath>
    <linearGradient id="linear-gradient-5" x1="-9.254" y1="16.795" x2="-9.246" y2="16.795" xlink:href="#linear-gradient-4"/>
    <clipPath id="clip-path-33">
      <rect id="Rectángulo_350035" data-name="Rectángulo 350035" width="7.951" height="3.107" fill="none"/>
    </clipPath>
    <clipPath id="clip-path-34">
      <rect id="Rectángulo_350036" data-name="Rectángulo 350036" width="2.026" height="6.477" fill="none"/>
    </clipPath>
    <clipPath id="clip-path-35">
      <rect id="Rectángulo_350037" data-name="Rectángulo 350037" width="104.148" height="247.263" fill="none"/>
    </clipPath>
    <clipPath id="clip-path-36">
      <path id="Trazado_726905" data-name="Trazado 726905" d="M1946.564,1925.582l4.653,5.4,1.373-3.22a52.336,52.336,0,0,0,11.353-10.428,27.076,27.076,0,0,1-6.376-4.505c-2.878,8.547-11,12.756-11,12.756" transform="translate(-1946.564 -1912.826)" fill="none"/>
    </clipPath>
    <linearGradient id="linear-gradient-6" x1="-14.187" y1="6.058" x2="-14.18" y2="6.058" gradientUnits="objectBoundingBox">
      <stop offset="0" stop-color="#febbba"/>
      <stop offset="1" stop-color="#ff928e"/>
    </linearGradient>
    <clipPath id="clip-path-37">
      <path id="Trazado_726906" data-name="Trazado 726906" d="M1855.353,2653.658a1.143,1.143,0,0,0-.025.3,69.048,69.048,0,0,0,12.919.072c.01-.039.021-.076.028-.116.246-1.416.41-4.588-1.345-9.728l-2.912-.181s-7.28,3.769-8.664,9.655" transform="translate(-1855.327 -2644.003)" fill="#2e6a90"/>
    </clipPath>
    <clipPath id="clip-path-39">
      <path id="Trazado_726908" data-name="Trazado 726908" d="M1916.948,2611.712l-.771,5.278a1.218,1.218,0,0,0,.988,1.417,8.22,8.22,0,0,0,1.909,0,.97.97,0,0,0,.815-.812l1.136-5.948Z" transform="translate(-1916.162 -2611.646)" fill="none"/>
    </clipPath>
    <linearGradient id="linear-gradient-7" x1="-42.494" y1="2.927" x2="-42.472" y2="2.927" xlink:href="#linear-gradient-6"/>
    <clipPath id="clip-path-41">
      <path id="Trazado_726910" data-name="Trazado 726910" d="M1668.671,2653.429c-7.807,2.005-11.7,6.4-13.227,8.6a.821.821,0,0,0-.068.134c2.315.154,8.211.487,13.173.267a17.329,17.329,0,0,0,5.719-.912c-.118-5.389-1.84-8.273-1.84-8.273Z" transform="translate(-1655.377 -2653.25)" fill="#2e6a90"/>
    </clipPath>
    <clipPath id="clip-path-42">
      <path id="Trazado_726911" data-name="Trazado 726911" d="M1754.6,2609.156a1.113,1.113,0,0,0,.861,1.1,8.627,8.627,0,0,0,2.584,0,.819.819,0,0,0,.678-.75c.172-1.655.619-5.923.657-6.2l-4.887-.833Z" transform="translate(-1754.491 -2602.469)" fill="none"/>
    </clipPath>
    <linearGradient id="linear-gradient-8" x1="-38.367" y1="2.691" x2="-38.345" y2="2.691" xlink:href="#linear-gradient-6"/>
    <clipPath id="clip-path-43">
      <path id="Trazado_726912" data-name="Trazado 726912" d="M1753.968,2003.073a334.813,334.813,0,0,0-7.651,77.981,1.679,1.679,0,0,0,1.358,1.614,19.557,19.557,0,0,0,4.212.419,1.559,1.559,0,0,0,1.464-1.324c1.151-7.478,7.772-49.605,11.82-56.493,0,0,3.339,37.372,2.777,56.8a.92.92,0,0,0,.827.944,15.416,15.416,0,0,0,3.375-.064,1.232,1.232,0,0,0,1.08-1.062c.8-6.326,5.412-43.977,4.755-71.035-.037-1.526-4.167-8.1-4.167-8.1Z" transform="translate(-1746.255 -2002.754)" fill="#1c466d"/>
    </clipPath>
    <clipPath id="clip-path-44">
      <path id="Trazado_726913" data-name="Trazado 726913" d="M1707.267,1590.8q-2.127,3.651-4.256,7.3a3.847,3.847,0,0,1,.785,1.1c2.723,5.748,13.05,28.706,11.336,42.79a1.329,1.329,0,0,0,1.137,1.49c3.962.525,15.759,1.795,21.835-.755a.933.933,0,0,0,.571-.881,103.438,103.438,0,0,1,4.4-29.877,16.516,16.516,0,0,0,.4-1.677c3.486,7.053,3.448,12.851,1.912,17.412a27.1,27.1,0,0,0,6.376,4.505c14.253-18.21,1.611-35.85-4.125-42.275a8.778,8.778,0,0,0-5.593-2.887c-3.309-.363-9.261-1.515-15.781-1.515-6.452,0-13.46,1.129-19.006,5.269" transform="translate(-1703.011 -1585.527)" fill="#ffa031"/>
    </clipPath>
    <clipPath id="clip-path-45">
      <path id="Trazado_726914" data-name="Trazado 726914" d="M1842.148,1516.025c4.984,3.4,11.726,1.248,11.726,1.248l-1.373-12.024-7.065-.225Z" transform="translate(-1842.148 -1505.023)" fill="none"/>
    </clipPath>
    <linearGradient id="linear-gradient-9" x1="-16.174" y1="13.618" x2="-16.165" y2="13.618" xlink:href="#linear-gradient-6"/>
    <clipPath id="clip-path-46">
      <path id="Trazado_726915" data-name="Trazado 726915" d="M1814.7,1397.645c-.161.156-6.667,13.458-6.667,13.458l7.675,3.553,8.04-11.692s-4.687-5.849-7.715-5.849a1.84,1.84,0,0,0-1.332.528" transform="translate(-1808.03 -1397.117)" fill="none"/>
    </clipPath>
    <linearGradient id="linear-gradient-10" x1="-11.711" y1="9.8" x2="-11.705" y2="9.8" xlink:href="#linear-gradient-6"/>
    <clipPath id="clip-path-47">
      <path id="Trazado_726916" data-name="Trazado 726916" d="M1798.123,1358.9c-.692,2.5,3.01,4.194,5.325,4.449,1.7.188,2.662,2.026,3.052,2.988a1.218,1.218,0,0,1-.074,1.068l-3.7,6.392a1.18,1.18,0,0,1-.2.263c-.446.428-1.973,1.677-3.2.03a10.716,10.716,0,0,0-3.052-3.2,1.214,1.214,0,0,0-1.63.566,45.311,45.311,0,0,0-2.5,6.208,1.208,1.208,0,0,0,.727,1.471,33.678,33.678,0,0,0,7.328,2.01,1.215,1.215,0,0,0,1.141-.507c1.138-1.613,4.345-6.12,5.447-7.253,1.023-1.052,2.949-.693,3.818-.459a1.22,1.22,0,0,0,.968-.143,2.676,2.676,0,0,0,.943-4.089,1.216,1.216,0,0,1,.349-1.657,2.688,2.688,0,0,0,.969-3.829,3.789,3.789,0,0,0-4.135-1.942,1.262,1.262,0,0,1-1.335-.714.8.8,0,0,0-.635-.484,1.179,1.179,0,0,1-.977-1.369,3.111,3.111,0,0,0-1.794-3.536,4.245,4.245,0,0,0-2-.526c-2.405,0-4.291,2.284-4.838,4.259" transform="translate(-1792.098 -1354.641)" fill="#1c466d"/>
    </clipPath>
    <clipPath id="clip-path-48">
      <path id="Trazado_726917" data-name="Trazado 726917" d="M1895.353,1490.15s1.515,2.578,4.356-.074c2.284-2.132.782-3.971-1.091-4.1l-.081,0c-1.832,0-3.184,4.174-3.184,4.174" transform="translate(-1895.353 -1485.975)" fill="none"/>
    </clipPath>
    <linearGradient id="linear-gradient-11" x1="-27.124" y1="18.814" x2="-27.109" y2="18.814" xlink:href="#linear-gradient-6"/>
    <clipPath id="clip-path-49">
      <path id="Trazado_726918" data-name="Trazado 726918" d="M2018.044,1652.744c.01.08,1.014,8.056-1.288,14.687l.646.225c2.357-6.786,1.331-14.918,1.32-15Z" transform="translate(-2016.756 -1652.655)" fill="none"/>
    </clipPath>
    <linearGradient id="linear-gradient-12" x1="-21.644" y1="10.67" x2="-21.633" y2="10.67" xlink:href="#linear-gradient-4"/>
    <clipPath id="clip-path-50">
      <path id="Trazado_726919" data-name="Trazado 726919" d="M1899.508,2115.407c-.24.14-5.889,3.459-6.662,6.654a.343.343,0,0,0,.252.413.364.364,0,0,0,.087.01.342.342,0,0,0,.326-.262c.705-2.913,6.285-6.191,6.342-6.224a.342.342,0,0,0-.172-.638.337.337,0,0,0-.172.047" transform="translate(-1892.836 -2115.36)" fill="none"/>
    </clipPath>
    <linearGradient id="linear-gradient-13" x1="-24.579" y1="8.84" x2="-24.566" y2="8.84" gradientUnits="objectBoundingBox">
      <stop offset="0" stop-color="#09005d"/>
      <stop offset="1" stop-color="#1a0f91"/>
    </linearGradient>
    <clipPath id="clip-path-51">
      <path id="Trazado_726920" data-name="Trazado 726920" d="M1541.947,1597.725c-6.118,4.983-14.3,13.167-27.094,11.458a16.243,16.243,0,0,0-1.589,7.925c8.486,3.845,21.889,6.358,34.721-6.136l8.456-16.792a9.88,9.88,0,0,0-3.906-.7c-2.634,0-6.387.822-10.588,4.244" transform="translate(-1513.239 -1593.481)" fill="#ffa031"/>
    </clipPath>
    <clipPath id="clip-path-52">
      <path id="Trazado_726921" data-name="Trazado 726921" d="M1392.109,1668.325a39.067,39.067,0,0,0,8.812,5.435,16.241,16.241,0,0,1,1.589-7.925,37.033,37.033,0,0,1-13.787-5.114l-4.268-2.209s-2.023,4.252,7.654,9.813" transform="translate(-1384.279 -1658.512)" fill="none"/>
    </clipPath>
    <linearGradient id="linear-gradient-14" x1="-6.903" y1="6.083" x2="-6.898" y2="6.083" xlink:href="#linear-gradient-6"/>
    <clipPath id="clip-path-53">
      <path id="Trazado_726922" data-name="Trazado 726922" d="M1295.092,1629c1.956.717,1.844,1.82,1.844,1.82l-8.531,3.592a3.122,3.122,0,0,0-1.792,2.026l-.45,1.585a39.287,39.287,0,0,0,16.028-1.521l2.164-2.943a9.107,9.107,0,0,0-4.205-4.433c-3.919-1.859-6.594-3.028-6.594-3.028a2.584,2.584,0,0,0,1.536,2.9" transform="translate(-1286.163 -1626.101)" fill="none"/>
    </clipPath>
    <linearGradient id="linear-gradient-15" x1="-7.451" y1="7.231" x2="-7.445" y2="7.231" xlink:href="#linear-gradient-6"/>
    <clipPath id="clip-path-54">
      <path id="Trazado_726923" data-name="Trazado 726923" d="M2109.863,2720.692c-3.012.345-3.613,3.3-2.24,3.893s5.969.776,8.356.239c2.049-.461,3.745.308,5.656.461a1.215,1.215,0,0,0,1.284-.962,6.01,6.01,0,0,0-1.617-5.024c-1.975,1.8-3.577.034-4.114-.19.022.354-4.312,1.239-7.325,1.584" transform="translate(-2106.924 -2719.108)" fill="#2e6a90"/>
    </clipPath>
    <clipPath id="clip-path-55">
      <path id="Trazado_726924" data-name="Trazado 726924" d="M2138.368,1478.393c-12.122-1.138-8.456,8.818-8.456,8.818s7.366,2.2,1.221,11.926,1.428,13.295,1.428,13.295c1.121,10.625,15.84,6.632,15.84,6.632,5.954,4.42,14.47.251,15.664-4.2a4.613,4.613,0,0,0-2.775-5.821c4.406-1.99,8.076-7.85,2.026-16.794S2146.9,1489,2146.9,1489c2.068-5.023-1.937-6.954-1.937-6.954a4.376,4.376,0,0,0-4.663-3.905,7.354,7.354,0,0,0-1.933.256" transform="translate(-2128.729 -1478.137)" fill="#1c466d"/>
    </clipPath>
    <clipPath id="clip-path-56">
      <path id="Trazado_726925" data-name="Trazado 726925" d="M2084.409,1709.179a2.455,2.455,0,0,0-1.331.983c-2.1,3.111-10.4,15.99-7.2,20.663,4.635,6.771,8.173,22.193,8.173,22.193,7.886,6.423,15.115-1.546,15.115-1.546-4.1-8.346.577-27.633,2.35-34.161a4.088,4.088,0,0,0-1.178-4.074,16.574,16.574,0,0,0-11.451-4.7,15.8,15.8,0,0,0-4.475.637" transform="translate(-2075.15 -1708.542)" fill="none"/>
    </clipPath>
    <linearGradient id="linear-gradient-16" x1="-9.06" y1="2.708" x2="-9.056" y2="2.708" xlink:href="#linear-gradient-4"/>
    <clipPath id="clip-path-57">
      <path id="Trazado_726926" data-name="Trazado 726926" d="M2168.867,1609.914c.557,1.784-.087,11.806-.087,11.806a7.541,7.541,0,0,0,7.568,1.219c-.265-4.4-.892-15-.892-15Z" transform="translate(-2168.78 -1607.937)" fill="none"/>
    </clipPath>
    <linearGradient id="linear-gradient-17" x1="-14.892" y1="10.83" x2="-14.885" y2="10.83" xlink:href="#linear-gradient-6"/>
    <clipPath id="clip-path-58">
      <path id="Trazado_726927" data-name="Trazado 726927" d="M2117.678,1524.584s-7.422,14.017-1.46,17,11.247-6.981,11.247-6.981,1.181-7.285-1.355-9.362a6.964,6.964,0,0,0-4.311-1.13,19.858,19.858,0,0,0-4.121.475" transform="translate(-2113.9 -1524.109)" fill="none"/>
    </clipPath>
    <linearGradient id="linear-gradient-18" x1="-9.991" y1="6.08" x2="-9.986" y2="6.08" xlink:href="#linear-gradient-6"/>
    <clipPath id="clip-path-59">
      <path id="Trazado_726928" data-name="Trazado 726928" d="M2143.048,1496.378s-4.064,1.558-4.4,3.537,6.445,2.862,8.29,2.7l2.506,7.467s3.4-7.8,1.11-11.73a5.037,5.037,0,0,0-4.625-2.463,9.126,9.126,0,0,0-2.883.487" transform="translate(-2138.638 -1495.892)" fill="#1c466d"/>
    </clipPath>
    <clipPath id="clip-path-60">
      <path id="Trazado_726929" data-name="Trazado 726929" d="M2204.449,1580.852l.433,1.927c1.776,1.1,6.122-1.532,4.346-4.028a1.524,1.524,0,0,0-1.264-.742c-1.657,0-3.515,2.844-3.515,2.844" transform="translate(-2204.449 -1578.008)" fill="none"/>
    </clipPath>
    <linearGradient id="linear-gradient-19" x1="-32.589" y1="18.405" x2="-32.574" y2="18.405" xlink:href="#linear-gradient-6"/>
    <clipPath id="clip-path-61">
      <path id="Trazado_726930" data-name="Trazado 726930" d="M2062.166,2223.145s-4.074,15.907-4.743,18.869a4.874,4.874,0,0,0,.525,3.5l23.321,38.905c.086.147,2.644-2.705,2.317-3.5-2.095-5.088-7.487-19.345-8.828-25.658-1.524-7.174-9.491-13-9.491-13l12.141-18.7-3.914-1.442Z" transform="translate(-2057.303 -2222.115)" fill="none"/>
    </clipPath>
    <linearGradient id="linear-gradient-20" x1="-4.437" y1="1.104" x2="-4.435" y2="1.104" xlink:href="#linear-gradient-6"/>
    <clipPath id="clip-path-62">
      <path id="Trazado_726931" data-name="Trazado 726931" d="M2180.533,2204.012l-.359,16.895s.817,34.88.928,39.834a43.474,43.474,0,0,1-.093,7.222c-.038.348.155.483.373.618a2.7,2.7,0,0,0,3.8-.27l-.348-1.313a10.263,10.263,0,0,1,.539-2.88c1.072-5.194,4.652-22.47,5.629-26.191,1.05-4,1.2-9.222-1.811-13.832l.2-.311,7.209-22.45Z" transform="translate(-2180.174 -2201.335)" fill="none"/>
    </clipPath>
    <linearGradient id="linear-gradient-21" x1="-5.774" y1="1.088" x2="-5.771" y2="1.088" xlink:href="#linear-gradient-6"/>
    <clipPath id="clip-path-63">
      <path id="Trazado_726932" data-name="Trazado 726932" d="M2094.194,2009.1s1.039,3.311-.556,8.763l-5.589,19.4c3.2.435,11.586,2.472,12.2,3.476,0,0,9.581-1.523,14.521-.742.168-.032.335-.06.5-.091.441-1.983.795-3.576.966-4.344,2.344-10.527,4.96-21.879-6.551-28.744-5.305,2.272-10.253,3.612-15.5,2.283" transform="translate(-2088.049 -2006.813)" fill="#1c466d"/>
    </clipPath>
    <clipPath id="clip-path-64">
      <path id="Trazado_726933" data-name="Trazado 726933" d="M2135.744,2009.1c.093.505.229,1.322.32,2.337a25.225,25.225,0,0,1,.1,2.731c-.01,1.29,1.325,3.941,7.106,9.886q-.192,4.381-.618,9.114-.36,3.917-.85,7.569s9.581-1.523,14.522-.742c.168-.032.335-.06.5-.091.441-1.983.795-3.576.965-4.344,2.344-10.527,4.96-21.879-6.55-28.744-5.305,2.272-10.254,3.612-15.5,2.283" transform="translate(-2135.744 -2006.813)" fill="#1c466d"/>
    </clipPath>
    <clipPath id="clip-path-65">
      <path id="Trazado_726934" data-name="Trazado 726934" d="M2220.783,1764.8a5.794,5.794,0,0,0,1.726,2.273c12.965,10.442,9.979,17.516,5,19.868-3.288,1.554-3.781.9-4.684.256a3.629,3.629,0,0,0-2.425-.7c-3.639.042-6.408,6.237-3.315,5.143s5.76,1.79,5.76,1.79,19.274-1.673,16.265-14.447-14.446-21.972-14.446-21.972a5.176,5.176,0,0,0-2.463-.769c-2.694,0-3.474,3.623-1.419,8.561" transform="translate(-2215.75 -1756.244)" fill="none"/>
    </clipPath>
    <linearGradient id="linear-gradient-22" x1="-6.215" y1="2.928" x2="-6.212" y2="2.928" xlink:href="#linear-gradient-6"/>
    <clipPath id="clip-path-66">
      <path id="Trazado_726935" data-name="Trazado 726935" d="M2209.839,2677.694c-.115,2.551-2.392,2.439-2.905,2.65.254.224-2.075,3.75-3.876,6.018s-.213,4.666,1.117,4.142,4.554-3.508,5.8-5.483c1.072-1.7,2.737-2.322,4.13-3.511a1.159,1.159,0,0,0,.217-1.516,5.734,5.734,0,0,0-4.485-2.3h0" transform="translate(-2202.251 -2677.694)" fill="#2e6a90"/>
    </clipPath>
  </defs>
  <g id="Grupo_1026330" data-name="Grupo 1026330" clip-path="url(#clip-path)">
    <g id="Grupo_1026188" data-name="Grupo 1026188" transform="translate(0 2.747)">
      <g id="Grupo_1026187" data-name="Grupo 1026187" clip-path="url(#clip-path-2)">
        <rect id="Rectángulo_350003" data-name="Rectángulo 350003" width="535.086" height="528.151" transform="translate(-188.749 139.726) rotate(-38.841)" fill="#d7e6f0"/>
      </g>
    </g>
    <g id="Grupo_1026196" data-name="Grupo 1026196" transform="translate(0 0)">
      <g id="Grupo_1026195" data-name="Grupo 1026195" clip-path="url(#clip-path-3)">
        <path id="Trazado_726851" data-name="Trazado 726851" d="M17.24,2.518c-.471-2,2.348-3.336,4.075-1.936C38.845,14.8,80.965,57.365,70.468,131.755c-13.17,93.334,9.346,127.39,37.372,148.164,0,0-38.49-9.769-62.706-44.327C-14.322,150.745,25.611,38.152,17.24,2.518" transform="translate(-10.27 -0.003)" fill="#9ccccc"/>
        <g id="Grupo_1026191" data-name="Grupo 1026191" transform="translate(20.301 31.022)" style="mix-blend-mode: soft-light;isolation: isolate">
          <g id="Grupo_1026190" data-name="Grupo 1026190">
            <g id="Grupo_1026189" data-name="Grupo 1026189" clip-path="url(#clip-path-4)">
              <path id="Trazado_726852" data-name="Trazado 726852" d="M157.566,241.4c2.193,10.39,4.148,20.813,5.658,31.282q2.361,15.69,3.605,31.471c.778,10.516,1.328,21.043,1.36,31.574.086,10.531-.352,21.053-.834,31.616-.414,10.559-.9,21.195-.127,31.906a94.587,94.587,0,0,0,7.475,31.579c1.116,2.519,2.29,5.03,3.623,7.457,1.282,2.449,2.69,4.85,4.146,7.227a114.077,114.077,0,0,0,9.944,13.679A125.439,125.439,0,0,0,218.6,482.109a2.621,2.621,0,0,0,3.315-.377,1.857,1.857,0,0,0-.381-2.825l-.007,0c-2.342-1.645-4.659-3.311-6.882-5.06-1.128-.859-2.21-1.76-3.31-2.643-1.061-.918-2.163-1.8-3.189-2.746a113.788,113.788,0,0,1-28.569-39.195,92.3,92.3,0,0,1-4.957-14.883,101.6,101.6,0,0,1-2.391-15.415c-.843-10.4-.462-20.926-.136-31.488.31-10.564.538-21.182.259-31.791q-.184-7.956-.7-15.9c-.154-2.648-.367-5.294-.575-7.939q-.356-3.965-.77-7.926-1.707-15.837-4.542-31.547c-1.951-10.459-4.224-20.869-6.956-31.187a.643.643,0,0,0-.76-.412.556.556,0,0,0-.483.632" transform="translate(-157.555 -240.758)" fill="#fff"/>
            </g>
          </g>
        </g>
        <path id="Trazado_726853" data-name="Trazado 726853" d="M161.246,274.653a3.58,3.58,0,0,1-5.859-1c-5.788-12.778-18.886-50.387,2.746-93.714,18.267-36.588,24.7-58.163,26.934-68.16a2.245,2.245,0,0,1,4.245-.413c9.647,21.867,35.12,96.244-28.066,163.284" transform="translate(-127.31 -95.852)" fill="#cce1e1"/>
        <g id="Grupo_1026194" data-name="Grupo 1026194" transform="translate(29.6 61.118)" style="mix-blend-mode: soft-light;isolation: isolate">
          <g id="Grupo_1026193" data-name="Grupo 1026193">
            <g id="Grupo_1026192" data-name="Grupo 1026192" clip-path="url(#clip-path-5)">
              <path id="Trazado_726854" data-name="Trazado 726854" d="M230.894,590.678a.994.994,0,0,1-1.168-.992c.01-.621,1.219-62.732,24.32-114.752a.993.993,0,0,1,1.815.806c-22.933,51.642-24.14,113.36-24.149,113.977a.993.993,0,0,1-.816.962" transform="translate(-229.725 -474.343)" fill="#fff"/>
            </g>
          </g>
        </g>
      </g>
    </g>
    <g id="Grupo_1026198" data-name="Grupo 1026198" transform="translate(188.135 127.194)">
      <g id="Grupo_1026197" data-name="Grupo 1026197" clip-path="url(#clip-path-6)">
        <rect id="Rectángulo_350007" data-name="Rectángulo 350007" width="26.657" height="26.657" transform="translate(0)" fill="url(#linear-gradient)"/>
      </g>
    </g>
    <g id="Grupo_1026200" data-name="Grupo 1026200" transform="translate(188.11 139.372)">
      <g id="Grupo_1026199" data-name="Grupo 1026199" clip-path="url(#clip-path-7)">
        <rect id="Rectángulo_350008" data-name="Rectángulo 350008" width="28.777" height="29.402" transform="translate(-1.037 0)" fill="url(#linear-gradient-2)"/>
      </g>
    </g>
    <g id="Grupo_1026205" data-name="Grupo 1026205" transform="translate(0 0)">
      <g id="Grupo_1026204" data-name="Grupo 1026204" clip-path="url(#clip-path-3)">
        <path id="Trazado_726857" data-name="Trazado 726857" d="M1470.633,1027.675v.019h.026a3.279,3.279,0,0,1-2.826-1.6c-6.953-11.844-9.5-19.32-10.413-23.51a13.35,13.35,0,0,1-.458-2.871,6.7,6.7,0,0,1-.012-1.449l.035-.212a13.715,13.715,0,0,1,27.368.137,6.054,6.054,0,0,1,.022.735v.049a13.74,13.74,0,0,1-.55,3.854c-.944,4.187-3.518,11.6-10.353,23.247a3.128,3.128,0,0,1-2.84,1.6M1457.7,998.6s0,.569.038,1v.041a12.751,12.751,0,0,0,.434,2.738l0,.026c.9,4.134,3.421,11.535,10.327,23.3a2.49,2.49,0,0,0,2.145,1.23l-.013.389v-.387a2.672,2.672,0,0,0,2.242-1.238c6.791-11.57,9.482-18.923,10.351-23.054v-.024a10.384,10.384,0,0,0,.478-3.648l-.044-.054v0a3.988,3.988,0,0,0-.047-.649l-.016-.022a12.949,12.949,0,0,0-25.851.051l-.024.31Z" transform="translate(-1269.197 -858.36)" fill="#fff"/>
        <g id="Grupo_1026203" data-name="Grupo 1026203" transform="translate(193.81 132.783)" opacity="0.8">
          <g id="Grupo_1026202" data-name="Grupo 1026202">
            <g id="Grupo_1026201" data-name="Grupo 1026201" clip-path="url(#clip-path-9)">
              <path id="Trazado_726858" data-name="Trazado 726858" d="M1519.55,1038.231a7.7,7.7,0,1,1-7.7-7.7,7.7,7.7,0,0,1,7.7,7.7" transform="translate(-1504.158 -1030.535)" fill="#fff"/>
            </g>
          </g>
        </g>
      </g>
    </g>
    <g id="Grupo_1026207" data-name="Grupo 1026207" transform="translate(193.38 132.354)">
      <g id="Grupo_1026206" data-name="Grupo 1026206" clip-path="url(#clip-path-10)">
        <rect id="Rectángulo_350011" data-name="Rectángulo 350011" width="18.563" height="18.563" transform="matrix(0.154, -0.988, 0.988, 0.154, -2.475, 15.866)" fill="url(#linear-gradient-3)"/>
      </g>
    </g>
    <g id="Grupo_1026209" data-name="Grupo 1026209" transform="translate(0 0)">
      <g id="Grupo_1026208" data-name="Grupo 1026208" clip-path="url(#clip-path-3)">
        <path id="Trazado_726860" data-name="Trazado 726860" d="M1506.356,1007.076a.129.129,0,0,1-.084-.227,11.943,11.943,0,0,1,7.778-2.879.129.129,0,1,1,0,.258,11.685,11.685,0,0,0-7.61,2.817.129.129,0,0,1-.084.031" transform="translate(-1312.151 -874.609)" fill="#fff"/>
        <path id="Trazado_726861" data-name="Trazado 726861" d="M1474.372,1053.875a.129.129,0,0,1-.129-.129,11.913,11.913,0,0,1,1.787-6.287.129.129,0,0,1,.219.136,11.657,11.657,0,0,0-1.748,6.152.129.129,0,0,1-.129.129" transform="translate(-1284.287 -912.442)" fill="#fff"/>
        <path id="Trazado_726862" data-name="Trazado 726862" d="M449.055,482.529,339.3,472.023,229.554,483.9V736.626L339.3,730.37l109.75,6.935L558.668,726.72V476.655Z" transform="translate(-199.976 -411.203)" fill="#fff"/>
        <path id="Trazado_726863" data-name="Trazado 726863" d="M394.59,775.365,290.313,781.3V541.556l104.277-11.27Z" transform="translate(-252.906 -461.96)" fill="#bdd0fb"/>
        <path id="Trazado_726864" data-name="Trazado 726864" d="M1203.885,781.944l-104.277-6.579V530.286l104.277,9.966Z" transform="translate(-957.924 -461.96)" fill="#bdd0fb"/>
        <path id="Trazado_726865" data-name="Trazado 726865" d="M2013.05,801.607,1908.9,811.649V569.958l104.147-5.573Z" transform="translate(-1662.942 -491.665)" fill="#bdd0fb"/>
      </g>
    </g>
    <g id="Grupo_1026211" data-name="Grupo 1026211" transform="translate(36.996 193.638)">
      <g id="Grupo_1026210" data-name="Grupo 1026210" clip-path="url(#clip-path-12)">
        <rect id="Rectángulo_350013" data-name="Rectángulo 350013" width="314.67" height="125.702" transform="translate(0 0)" fill="#265e91"/>
      </g>
    </g>
    <g id="Grupo_1026213" data-name="Grupo 1026213" transform="translate(0 0)">
      <g id="Grupo_1026212" data-name="Grupo 1026212" clip-path="url(#clip-path-3)">
        <path id="Trazado_726867" data-name="Trazado 726867" d="M347.842,798.235c-.344.713-16.22-3.512-19.2-.725-1.012.946-1.675,2.33-2.846,3.031-2.509,1.5-5.428-.9-7.425-3.13l-4.917-5.48a6.62,6.62,0,0,1-1.868-3.1c-.369-2.05,1.091-3.917,1.553-5.944a6.3,6.3,0,0,0-2.224-6.279c-2.6-1.913-6.164-1.108-9.1-2.323a3.711,3.711,0,0,1-2.069-1.8,4.87,4.87,0,0,1-.319-1.861,21.442,21.442,0,0,1,3.23-11.9c2.69-3.951,7.7-4.808,12.1-6s9.35-3.909,9.831-8.789a27.91,27.91,0,0,0-.909-8.739c-.951-4.246-2.2-8.606-1.828-13.014.829-9.911,8.3-14.482,11.7-23.186,1.862-4.758,1.726-10.453,4.612-14.57,4.724-6.738,14.256-5.446,21.862-3.475,7.573,1.962,15.583,4.186,20.988,10.247a23.8,23.8,0,0,0,3.765,3.944c5.527,3.857,13.036-2.053,14.836-8.9.845-3.214,1.952-6.15,4.806-7.82,4.765-2.789,10.7.1,14.892,3.8s8.009,8.415,13.255,9.882c2.145.6,4.407.607,6.537,1.263s4.252,2.212,4.71,4.555a4.29,4.29,0,0,0,.491,1.763,2.527,2.527,0,0,0,1.371.783l6.688,2.085a11.861,11.861,0,0,1,1.586,8.824c2.452,1.1,5.373-.279,7.074-2.482,4.162-5.395,3.043-9.356,8.592-14.012,5.14-4.313,7.423-12.215,5.467-18.923,5.135-3.153,11.944-6.194,16.468-2.092,1.561,1.416,2.557,3.519,4.3,4.668,3.377,2.23,7.768-.115,10.683-3.011,5.863-5.827,7.95-8.387,15.195-5,11.5,5.386,18.214,7.4,29.144-.239,8.3-5.8,16.159-10.666,26.03-6.28q10.762,4.782,21.414,9.848c2.05.975,4.271,2.14,5.174,4.356,1.752,4.3-2.57,9.386-.948,13.746.569,1.531,1.782,2.652,2.717,3.956,2.769,3.858,3,9.106,3.124,13.987a34.584,34.584,0,0,1-.666,9.635c-2.231,8.485-10.189,13.307-16.281,19.177a52.487,52.487,0,0,0-15.3,31.609c-.345,3.056-.352,6.43,1.382,8.872,1.283,1.806,3.295,2.78,5.151,3.856,6.153,3.565,11.276,8.854,16.315,14.076a31.287,31.287,0,0,1,3.241,3.737c7.218,10.334,2.729,32.033-3.616,41.658-3.75,5.69-6.179,14.189-11.464,18.469-2.856,2.313-.348,7.59,3.045,8.784s7.163.286,10.6,1.32,6.345,5.92,3.791,8.614c-5.778-4.108-13.119,1.107-19.908,2.532-6.146,1.291-12.429-.705-18.417-2.68l-13.081-4.315c-2.109-.7-4.325-1.463-5.805-3.229-1.378-1.645-1.9-3.9-2.659-5.958a22.351,22.351,0,0,0-12.72-13.161c-2.931-1.1-6.375-1.726-8.123-4.5-1.892-3-1.11-7.635-3.7-9.946-2.753-2.455-7.126-.087-8.876,3.275s-1.977,7.407-3.4,10.946c-3.45,8.6-13.011,15.117-20.1,19.76a69.467,69.467,0,0,1-32.537,11.213c-3.349.262-6.851.243-9.886-1.311-5.733-2.935-8.077-10.225-10.182-16.693-2.624-8.062-6.217-6.308-12.376-7.53-6.766-1.342-13.353-5.695-19.424-9.043-3.173-1.75-6.56-3.731-8.088-7.209-1.987-4.523-.063-10.017,2.915-13.853s6.923-6.678,9.944-10.474a6.954,6.954,0,0,0,1.587-3.031c.436-2.473-1.361-4.69-3.019-6.459-4.939-5.271-11.332-10.986-18-8.918-4.731,1.467-7.674,6.37-10.676,10.585A66.249,66.249,0,0,1,358.93,827.72c-8.33,5.126-6.936-7.317-14.519-9.406-1.624-.447-3.655-.929-4.063-2.686a4.738,4.738,0,0,1,.666-3.005l6.83-14.388" transform="translate(-260.838 -576.988)" fill="#3d8dc0"/>
        <path id="Trazado_726868" data-name="Trazado 726868" d="M447.945,881.733a15.742,15.742,0,0,1-3.943-.714l.27-.825a14.9,14.9,0,0,0,3.727.672Zm3.962-.049-.06-.867.452-.034c1.132-.089,2.28-.209,3.411-.356l.112.861c-1.146.15-2.308.271-3.455.361Zm7.8-1.016-.162-.853c1.262-.24,2.538-.52,3.793-.833l.21.842c-1.271.318-2.563.6-3.841.844m117.954-.013a25.712,25.712,0,0,1-2.94-.176l.1-.863a23.6,23.6,0,0,0,3.83.148l.041.868q-.515.024-1.03.024m4.975-.6-.209-.843c1.306-.324,2.6-.764,3.69-1.15l.29.818c-1.112.394-2.429.841-3.771,1.175m-11.809-.262c-1.154-.266-2.4-.6-3.8-1.025l.251-.831c1.385.418,2.61.748,3.745,1.009Zm-130.393-.643a14.829,14.829,0,0,1-2.815-2.859l.691-.525a13.961,13.961,0,0,0,2.649,2.692Zm26.9-.385-.258-.83c1.228-.382,2.464-.8,3.675-1.257l.3.813c-1.225.458-2.477.886-3.721,1.273m95.956-1.189-3.71-1.223.272-.825,3.713,1.225Zm26.792-.014-.282-.821a31.964,31.964,0,0,1,3.8-1.1l.179.85a31.148,31.148,0,0,0-3.7,1.068m10.933-.188a7.747,7.747,0,0,0-3.48-1.165l.081-.864a8.593,8.593,0,0,1,3.861,1.294ZM474.7,876.012l-.349-.8c1.181-.518,2.363-1.076,3.512-1.659l.393.775c-1.165.589-2.36,1.154-3.555,1.679m81.17-.887-3.711-1.224.272-.824,3.711,1.224Zm46.28-.946a6.461,6.461,0,0,0-1.611-3.226l.648-.578a7.247,7.247,0,0,1,1.823,3.679Zm-166.628-1.273a38.564,38.564,0,0,1-1.605-3.611l.809-.315a37.578,37.578,0,0,0,1.569,3.529Zm112.917-.262a11.137,11.137,0,0,1-3.528-1.97l.571-.654a10.34,10.34,0,0,0,3.264,1.811Zm-66.726-.184-.434-.752c1.112-.642,2.225-1.327,3.307-2.035l.476.727c-1.1.717-2.223,1.41-3.349,2.061M597.5,869.01a16.72,16.72,0,0,0-3.769-.476l.032-.868a17.5,17.5,0,0,1,3.965.506Zm-7.7-.673a12.138,12.138,0,0,1-2.674-.584,5.71,5.71,0,0,1-1.219-.608l.474-.728a4.851,4.851,0,0,0,1.033.516,11.3,11.3,0,0,0,2.485.54Zm-101.474-.109-.489-.717c1.164-.793,2.205-1.527,3.183-2.244l.514.7c-.986.723-2.035,1.463-3.208,2.261m54.311-.925c-.289-.7-.535-1.431-.773-2.139-.156-.466-.312-.93-.481-1.386l-.062-.166.811-.312.066.177c.171.464.33.937.489,1.41.234.695.475,1.413.752,2.084ZM432.589,865.6c-.241-.72-.474-1.437-.7-2.146l-.034-.1c-.166-.511-.339-.99-.515-1.424l.806-.325c.182.453.363.951.535,1.48l.033.1c.23.706.462,1.421.7,2.138Zm150.629-1.547a6.387,6.387,0,0,1-.68-2.744,4.312,4.312,0,0,1,.214-1.371l.824.275a3.457,3.457,0,0,0-.169,1.1A5.521,5.521,0,0,0,584,863.67Zm-88.579-.481-.548-.673c1.046-.851,2.03-1.708,2.927-2.546l.593.634c-.911.852-1.91,1.722-2.972,2.585m45.019-3.411a22.829,22.829,0,0,0-2.211-3.129l.665-.559a23.744,23.744,0,0,1,2.294,3.248Zm-110.217-1.431a5.8,5.8,0,0,0-3.147-1.71l.192-.847a6.622,6.622,0,0,1,3.589,1.963Zm70.933-.562-.649-.577a31.93,31.93,0,0,0,2.389-3.022l.714.494a32.659,32.659,0,0,1-2.454,3.1m85.649-.694-.632-.6a21.793,21.793,0,0,0,2.347-3.023l.726.477a22.651,22.651,0,0,1-2.441,3.142m-163.552-.959c-.7-.079-1.636-.2-2.668-.4-.406-.081-.821-.174-1.234-.277l.21-.842c.4.1.8.19,1.194.268,1,.2,1.913.313,2.6.39Zm-7.671-1.89c-1.146-.443-2.327-.961-3.611-1.583l.379-.781c1.262.611,2.421,1.12,3.545,1.555Zm119.941-.3a20.958,20.958,0,0,0-3.139-2.183l.427-.756a21.754,21.754,0,0,1,3.27,2.273Zm-29.91-2.692-.784-.373c.184-.385.357-.78.514-1.172a22.35,22.35,0,0,0,.8-2.421l.837.23a22.979,22.979,0,0,1-.828,2.514c-.164.409-.344.82-.536,1.222m-97.131-.4c-1.086-.594-2.15-1.2-3.415-1.921l.432-.754c1.26.722,2.32,1.323,3.4,1.913Zm182.756-.309-.767-.408c.6-1.131,1.175-2.29,1.759-3.477l.779.383c-.587,1.194-1.164,2.36-1.771,3.5m-62.349-.333c-.309-.107-.621-.211-.934-.316-.923-.308-1.878-.626-2.776-1.022l.35-.795c.861.379,1.8.692,2.7.994.316.105.631.21.943.318Zm-127.216-3.211-.637-.354c-.846-.466-1.827-1.014-2.768-1.613l.466-.733c.919.585,1.887,1.125,2.721,1.585l.642.356Zm120.184-.479a6.724,6.724,0,0,1-.5-.695,9.657,9.657,0,0,1-1.164-3.015l.845-.2a8.877,8.877,0,0,0,1.054,2.752,5.906,5.906,0,0,0,.438.6Zm-13.937-2.808-.842-.212a25.351,25.351,0,0,1,1.21-3.783l.8.341a24.584,24.584,0,0,0-1.167,3.654m86.833-.16-.771-.4c.718-1.381,1.34-2.471,1.957-3.429l.73.47c-.6.935-1.211,2-1.916,3.359m-199.639-.969a10.79,10.79,0,0,1-2.332-3.3l.793-.354a9.936,9.936,0,0,0,2.15,3.041ZM518.6,839.376a5.874,5.874,0,0,0-1.647-3.03c-.035-.031-.07-.061-.106-.091l.554-.669c.043.036.087.074.13.112a6.667,6.667,0,0,1,1.907,3.451Zm-8.224-2.014-.6-.631a7.969,7.969,0,0,1,3.564-2.01l.2.846a7.094,7.094,0,0,0-3.163,1.795m87.493-.218-.777-.389c.549-1.1,1.076-2.286,1.568-3.537l.808.318c-.5,1.275-1.04,2.489-1.6,3.608m-206.73-1.449c0-.095,0-.189,0-.283a13.734,13.734,0,0,1,.536-3.7l.836.235a12.868,12.868,0,0,0-.5,3.47c0,.088,0,.175,0,.261Zm209.634-5.876-.829-.259c.379-1.216.726-2.474,1.032-3.74l.844.2c-.31,1.284-.662,2.561-1.046,3.8m-206.82-1.394-.763-.415a19.935,19.935,0,0,1,1.763-2.7q.235-.3.477-.6l.672.55q-.234.286-.463.58a19,19,0,0,0-1.686,2.579m-41.422-1.485a3.79,3.79,0,0,1-2.609-1.043l.578-.648a3.061,3.061,0,0,0,3.219.63l.25.832a5.041,5.041,0,0,1-1.438.229m4.988-2.109-.473-.729c1.075-.7,2.147-1.442,3.189-2.213l.517.7c-1.056.781-2.143,1.536-3.232,2.243m-9.944-2.211-.184-.322a27.663,27.663,0,0,0-1.85-2.951l.695-.522a28.316,28.316,0,0,1,1.91,3.043l.183.321Zm51.144-.2-.613-.615c.649-.648,1.312-1.283,1.974-1.918l.838-.806.6.625-.84.807c-.659.631-1.317,1.262-1.962,1.906m203.9-.255-.856-.148c.224-1.292.4-2.585.534-3.842l.864.09c-.132,1.276-.315,2.589-.542,3.9m-238.778-2.016-.558-.666c.985-.825,1.961-1.694,2.9-2.581l.6.632c-.952.9-1.94,1.779-2.939,2.615m40.437-3.25-.643-.584c.464-.511.877-1,1.265-1.484a9.974,9.974,0,0,0,1.036-1.527l.769.4a10.791,10.791,0,0,1-1.125,1.665c-.4.5-.825,1-1.3,1.527m-61.472-.033a6.793,6.793,0,0,0-1.44-.579l-.21-.058a14.624,14.624,0,0,1-1.991-.651l.349-.8a13.81,13.81,0,0,0,1.871.609l.212.058a7.673,7.673,0,0,1,1.624.653Zm26.753-2.114-.632-.6c.882-.937,1.75-1.913,2.579-2.9l.666.558c-.84,1-1.719,1.991-2.613,2.939m233.862-.419-.869-.024q.016-.6.017-1.2c0-.9-.029-1.8-.085-2.662l.867-.057c.057.88.086,1.8.086,2.719q0,.611-.017,1.228M337.811,812.23l-.86-.121a7.492,7.492,0,0,1,.736-2.114l.768-1.618.785.372-.768,1.619a6.786,6.786,0,0,0-.661,1.863m68.392-2.361a9.66,9.66,0,0,0-1.982-3.145l.656-.569a10.481,10.481,0,0,1,2.148,3.436Zm-31.6-1.139-.7-.519q.436-.585.86-1.18c.336-.472.671-.952,1.008-1.435l.391-.56.711.5-.39.559c-.339.486-.675.969-1.013,1.443q-.429.6-.871,1.195m227.41-2.113a25.1,25.1,0,0,0-.966-3.714l.82-.286a25.953,25.953,0,0,1,1,3.843Zm-261.1-1.4-.784-.372,1.676-3.531.785.372Zm60.635-1.3c-1.007-1-1.939-1.858-2.85-2.622l.558-.665c.93.78,1.879,1.654,2.9,2.671ZM379.176,802.4l-.68-.539a23.594,23.594,0,0,1,2.694-2.926l.58.646a22.8,22.8,0,0,0-2.594,2.819m220.266-2.952c-.162-.264-.331-.523-.5-.77a21.829,21.829,0,0,0-1.836-2.248l.64-.587a22.687,22.687,0,0,1,1.908,2.338c.182.261.361.534.532.815Zm-203.836-.442a16.928,16.928,0,0,0-3.411-1.678l.285-.82a17.754,17.754,0,0,1,3.588,1.763ZM321.184,799a4.892,4.892,0,0,1-2.007-.475l.358-.791a3.2,3.2,0,0,0,3.1-.008c.064-.038.124-.078.184-.12l.5.711q-.115.082-.237.154a3.655,3.655,0,0,1-1.9.529m23.084-.843-.785-.372.707-1.49c-.691-.051-1.795-.228-3.211-.463l.142-.857a30.815,30.815,0,0,0,3.422.466.786.786,0,0,0,.16-.01.33.33,0,0,0-.185.173l.783.376Zm40.626-.654-.353-.794a10.249,10.249,0,0,1,1.13-.424,10.071,10.071,0,0,1,2.829-.452l.013.869a9.2,9.2,0,0,0-2.586.413,9.4,9.4,0,0,0-1.034.389m-68.969-1.384c-.269-.269-.543-.559-.813-.86l-1.835-2.046.646-.58,1.835,2.046c.26.29.523.568.781.826ZM326,795.384l-.631-.6.045-.044c.7-.657,2.007-1.008,3.976-1.065l.026.868c-1.725.051-2.874.332-3.415.837m11.123-.173c-1.471-.221-2.733-.381-3.858-.49l.084-.864c1.14.111,2.417.273,3.9.5Zm257.285-1.592c-.746-.769-1.732-1.78-2.736-2.78l.613-.616c1.009,1.005,2,2.019,2.747,2.791ZM310.666,790.3l-.472-.526a7.981,7.981,0,0,1-1.848-2.806l.829-.26a7.307,7.307,0,0,0,1.666,2.486l.472.527Zm278.205-2.167c-1.014-.941-1.966-1.782-2.912-2.571l.556-.667c.958.8,1.922,1.65,2.946,2.6Zm-279.211-4.922-.8-.327.2-.475a13.133,13.133,0,0,0,.728-2.061,5.586,5.586,0,0,0,.133-1.043l.868.029a6.45,6.45,0,0,1-.154,1.207,13.8,13.8,0,0,1-.773,2.2Zm273.239-.026c-1.082-.776-2.172-1.486-3.239-2.111l.439-.75c1.09.638,2.2,1.363,3.307,2.155Zm-6.618-4.158a8.845,8.845,0,0,1-2.049-2.015,7.6,7.6,0,0,1-.628-1.058l.78-.382a6.7,6.7,0,0,0,.555.936,8,8,0,0,0,1.853,1.817Zm-267.326-3.182a5.012,5.012,0,0,0-1.234-1.329,5.78,5.78,0,0,0-1.589-.814l.281-.822a6.634,6.634,0,0,1,1.823.936,5.876,5.876,0,0,1,1.448,1.557Zm-6.573-2.8a13.494,13.494,0,0,1-3.669-.8q-.128-.053-.256-.112l.368-.787q.11.051.22.1a12.8,12.8,0,0,0,3.435.743Zm270.25-1.024c-.029-.393-.042-.808-.042-1.234a25.634,25.634,0,0,1,.162-2.745l.863.093a24.751,24.751,0,0,0-.157,2.652c0,.405.014.8.04,1.172ZM296.084,768.76c-.014-.188-.022-.377-.027-.566,0-.163-.005-.327-.005-.491a22.513,22.513,0,0,1,.2-2.931l.861.113a21.688,21.688,0,0,0-.19,2.818q0,.237.005.469c0,.174.011.349.024.523Zm278.092-4.453-.854-.158c.237-1.285.526-2.578.857-3.844l.841.219c-.326,1.246-.609,2.518-.843,3.783m-276.249-3.166-.829-.257a19.441,19.441,0,0,1,1.547-3.679l.759.422a18.6,18.6,0,0,0-1.477,3.515m278.207-4.328-.822-.28c.423-1.242.9-2.48,1.4-3.68l.8.339c-.5,1.181-.966,2.4-1.382,3.62m-274.41-2.1-.561-.663a13.273,13.273,0,0,1,3.456-2.057l.338.8a12.434,12.434,0,0,0-3.233,1.921m6.885-3.133-.228-.838c.6-.163,1.194-.316,1.787-.468.52-.134,1.036-.266,1.544-.4q.219-.059.441-.124l.244.834q-.23.067-.459.129c-.512.138-1.031.271-1.554.406-.589.151-1.183.3-1.775.465m270.55-1.895-.773-.4c.6-1.167,1.248-2.323,1.927-3.435l.741.453c-.668,1.093-1.307,2.23-1.9,3.379m-263.052-.564-.4-.772a13.132,13.132,0,0,0,3.095-2.153l.6.627a13.976,13.976,0,0,1-3.3,2.3m5.556-5.685-.818-.293a7.058,7.058,0,0,0,.377-1.685c.05-.505.075-1.037.075-1.58q0-.216-.006-.432l.868-.022q.006.227.006.454c0,.571-.027,1.131-.079,1.665a7.905,7.905,0,0,1-.424,1.893m261.536-.356-.7-.508c.772-1.07,1.589-2.114,2.429-3.1l.662.562c-.825.972-1.628,2-2.387,3.049m5.01-5.9-.614-.614q.3-.3.61-.6c.658-.633,1.4-1.315,2.268-2.083l.576.651c-.859.76-1.593,1.433-2.241,2.058q-.3.291-.6.587m-267.325-1.558c-.14-.8-.313-1.659-.561-2.771q-.115-.513-.235-1.029l.846-.2q.121.519.237,1.036c.252,1.125.427,1.993.57,2.812ZM594,731.979l-.568-.658c.939-.81,1.943-1.683,2.916-2.581l.589.639c-.983.906-1.993,1.785-2.937,2.6M319.224,728c-.311-1.49-.516-2.727-.646-3.895l.863-.1c.126,1.139.327,2.351.633,3.813Zm280.512-1.4-.639-.589a28.192,28.192,0,0,0,2.421-2.986l.712.5a29.06,29.06,0,0,1-2.494,3.078m-280.413-6.417-.867-.053c.008-.141.019-.281.031-.423a20.555,20.555,0,0,1,.6-3.51l.84.221a19.718,19.718,0,0,0-.575,3.36q-.016.2-.029.405m284.879-.12-.793-.354a17.747,17.747,0,0,0,.96-2.718q.117-.449.211-.9l.851.175q-.1.476-.222.947a18.6,18.6,0,0,1-1.007,2.851m-282.954-7.229-.784-.371a30.735,30.735,0,0,1,1.941-3.451l.731.469a29.946,29.946,0,0,0-1.888,3.353m284.646-.515-.868-.039c.027-.6.04-1.245.04-1.966,0-.638-.01-1.276-.024-1.913l.868-.019c.014.643.025,1.288.024,1.932,0,.733-.014,1.389-.041,2m-154.147-2.681a4.84,4.84,0,0,1-.9-.3l-.321-.144.074-.344a11.189,11.189,0,0,0,.249-2.36q0-.276-.013-.553l.868-.041c.009.2.014.4.014.593a12.112,12.112,0,0,1-.2,2.183,4.022,4.022,0,0,0,.418.12Zm4.074-.672-.411-.765a7.464,7.464,0,0,0,2.345-2.007q.188-.244.362-.483l.7.511q-.181.249-.377.5a8.348,8.348,0,0,1-2.622,2.241m-130.485-2.685-.707-.5.269-.376c.652-.912,1.326-1.855,1.968-2.811l.721.484c-.649.967-1.327,1.915-1.983,2.832Zm279.578-1.772a38.405,38.405,0,0,0-.374-3.845l.858-.133a39.434,39.434,0,0,1,.383,3.932ZM460.83,702.79l-.786-.369c.379-.809.7-1.6,1.006-2.369.164-.409.327-.814.5-1.215l.8.337c-.168.4-.328.8-.49,1.2-.313.779-.636,1.584-1.026,2.415m-10.775-.519a10.649,10.649,0,0,0-.9-1.783l-1.438-.448.258-.829,1.738.542.086.131a11.454,11.454,0,0,1,1.063,2.071ZM329.64,699.7l-.765-.411a26.2,26.2,0,0,0,1.344-2.893c.078-.2.153-.4.226-.607l.818.29q-.113.318-.235.633a27.165,27.165,0,0,1-1.388,2.988m114.348-.828-1.368-.426a2.92,2.92,0,0,1-1.591-.939,2.451,2.451,0,0,1-.4-.962l.848-.185a1.638,1.638,0,0,0,.253.632,2.164,2.164,0,0,0,1.15.625l1.368.427Zm159.645-1.921a12.848,12.848,0,0,0-1.656-3.219l-.087-.12.7-.513.091.126a13.876,13.876,0,0,1,1.769,3.435Zm-139.5-1.138-.711-.5a16.329,16.329,0,0,1,2.695-2.954l.571.655a15.491,15.491,0,0,0-2.555,2.8m-79.777-1.581a7.116,7.116,0,0,1-2.756-1.175,9,9,0,0,1-.878-.7l.582-.645a8.129,8.129,0,0,0,.793.636,6.255,6.255,0,0,0,2.421,1.035Zm4.07-.36-.286-.82a10.86,10.86,0,0,0,3.246-1.857l.547.675a11.729,11.729,0,0,1-3.507,2m50.788-.636a7.412,7.412,0,0,0-3.129-1.878l.26-.829a8.293,8.293,0,0,1,3.5,2.109ZM332.3,692.263l-.848-.187c.112-.51.219-1.021.326-1.533.161-.769.321-1.536.5-2.294l.845.2c-.175.751-.335,1.512-.494,2.274-.107.514-.215,1.029-.328,1.541m100.02-1.628a22.271,22.271,0,0,1-2.8-.545c-.362-.1-.729-.221-1.09-.356l.3-.813c.338.126.681.238,1.02.333a21.605,21.605,0,0,0,2.69.522Zm167.218-.213a6.154,6.154,0,0,1-.335-.744,6.606,6.606,0,0,1-.4-2.34,9.477,9.477,0,0,1,.051-.96l.864.09a8.437,8.437,0,0,0-.047.87,5.751,5.751,0,0,0,.344,2.038,5.268,5.268,0,0,0,.288.64Zm-130.08-.271-.692-.524a17.4,17.4,0,0,0,1.943-3.272l.79.36a18.232,18.232,0,0,1-2.04,3.435m-91.382-.738c-.1-.122-.209-.243-.316-.362a22.425,22.425,0,0,0-2.414-2.322l.554-.669a23.214,23.214,0,0,1,2.508,2.413c.11.123.218.248.327.374Zm16.609-.458-.7-.51a14.827,14.827,0,0,0,1.82-3.322l.809.315a15.7,15.7,0,0,1-1.926,3.517m30.207-1.084a30.605,30.605,0,0,1-3.111-2.453l.575-.651a29.908,29.908,0,0,0,3.023,2.384Zm-90.658-3.1-.8-.326a13.514,13.514,0,0,1,1.449-2.709c.185-.264.381-.521.582-.764l.669.554c-.187.226-.369.464-.54.708a12.644,12.644,0,0,0-1.355,2.537m37.975-.257a32.607,32.607,0,0,0-3.421-1.774l.355-.792a33.469,33.469,0,0,1,3.513,1.822Zm100.569-1.581-.847-.2a19.008,19.008,0,0,0,.479-3.784l.869.021a19.917,19.917,0,0,1-.5,3.958m-53.868-.2c-.917-.878-1.865-1.785-2.814-2.623l-.033-.029.575-.651.026.023c.97.856,1.924,1.769,2.847,2.653Zm181.646-.008-.836-.234a20.771,20.771,0,0,0,.8-3.735l.866.071a21.4,21.4,0,0,1-.83,3.9m-202.784-1.039-.82-.287a12.8,12.8,0,0,1,1.837-3.585l.69.527a11.962,11.962,0,0,0-1.708,3.345m-32.585-.369c-1.122-.392-2.334-.775-3.7-1.172l.241-.834c1.385.4,2.612.788,3.749,1.186Zm-7.463-2.2-.738-.192c-1.079-.28-2.074-.514-3.04-.716l.177-.85c.98.2,1.988.441,3.081.725l.738.192Zm-18.743,0-.433-.753a13.419,13.419,0,0,1,3.76-1.429l.19.847a12.557,12.557,0,0,0-3.517,1.335M413,677.779a18.218,18.218,0,0,0-3.4-1.711l.3-.815a19.074,19.074,0,0,1,3.568,1.793Zm-62.869-.194a28.333,28.333,0,0,0-3.841-.214l-.015-.869a29.785,29.785,0,0,1,3.957.221Zm144.077-.4a5.746,5.746,0,0,1-1.528-.716,8.317,8.317,0,0,1-1.8-1.68l.666-.557a7.536,7.536,0,0,0,1.609,1.513,4.86,4.86,0,0,0,1.3.607Zm4.1-.161-.267-.826a11.953,11.953,0,0,0,3.319-1.756l.511.7a12.8,12.8,0,0,1-3.564,1.88m-95.984-.98-.37-.786a8.825,8.825,0,0,1,3.991-.812l-.023.868a7.9,7.9,0,0,0-3.6.729m197.487-.782a7.32,7.32,0,0,0-2.706-2.455l.439-.749a8.135,8.135,0,0,1,3.01,2.754Zm-127.709-.1c-.1-.511-.22-1.021-.365-1.514l-.093-.319.282-.173c.7-.432,1.362-.816,2.013-1.173l.418.761c-.552.3-1.11.626-1.7.982.113.419.212.845.294,1.273Zm62.381-1.845c-.58,0-1.174-.028-1.766-.083l.081-.865a17.431,17.431,0,0,0,3.8-.052l.108.862a17.989,17.989,0,0,1-2.226.138m-5.676-.8a38.384,38.384,0,0,1-3.754-1.231l.309-.812a37.241,37.241,0,0,0,3.669,1.2Zm-23.982-.03-.613-.615c1.085-1.082,1.982-1.97,2.829-2.728l.579.647c-.83.744-1.719,1.624-2.795,2.7m35.768-.22-.283-.821a24.568,24.568,0,0,0,3.509-1.547l.408.767a25.49,25.49,0,0,1-3.634,1.6m-52.183-.435-.08-.073a7.024,7.024,0,0,0-3.124-1.654l.2-.845a7.882,7.882,0,0,1,3.507,1.856l.09.083Zm-10.574-.745-.321-.807a18.519,18.519,0,0,1,3.841-1.1l.138.857a17.625,17.625,0,0,0-3.658,1.051m115.806-.006q-1.766-.836-3.534-1.664l.368-.786q1.77.828,3.538,1.665Zm-72.219-1.3c-.833-.37-1.753-.791-2.812-1.287q-.378-.177-.74-.333l.344-.8q.372.161.763.344c1.053.493,1.968.912,2.8,1.279Zm26.182-1.161-.487-.719q.284-.192.572-.393c1.038-.725,1.881-1.3,2.652-1.82l.483.722c-.767.513-1.6,1.088-2.637,1.809q-.293.205-.583.4m38.96-.848q-1.773-.82-3.548-1.633l.361-.79q1.777.813,3.552,1.635Zm-75.875-.157-.368-.787a7.1,7.1,0,0,1,4.045-.612l-.109.862a6.243,6.243,0,0,0-3.568.537m68.772-3.094q-1.78-.8-3.562-1.6l.354-.793q1.784.8,3.566,1.6Zm-25.356-.191-.442-.747c1.238-.733,2.378-1.341,3.484-1.858l.368.787c-1.081.505-2.2,1.1-3.409,1.818m18.232-2.935a18.264,18.264,0,0,0-3.7-.917l.117-.861a19.158,19.158,0,0,1,3.874.96Zm-11.24-.267-.249-.832a20.089,20.089,0,0,1,3.911-.767l.079.865a19.26,19.26,0,0,0-3.741.734" transform="translate(-257.906 -574.545)" fill="#fffdfd"/>
        <path id="Trazado_726869" data-name="Trazado 726869" d="M817.342,1204.917a4.519,4.519,0,1,1-4.507-4.847,4.686,4.686,0,0,1,4.507,4.847" transform="translate(-704.175 -1045.443)" fill="#bdd0fb"/>
        <path id="Trazado_726870" data-name="Trazado 726870" d="M1430.188,2119.184a4.519,4.519,0,1,1-4.507-4.846,4.686,4.686,0,0,1,4.507,4.846" transform="translate(-1238.056 -1841.907)" fill="#bdd0fb"/>
        <path id="Trazado_726871" data-name="Trazado 726871" d="M2465.212,1997.751a4.519,4.519,0,1,1-4.507-4.847,4.685,4.685,0,0,1,4.507,4.847" transform="translate(-2139.719 -1736.12)" fill="#fff"/>
        <path id="Trazado_726872" data-name="Trazado 726872" d="M1833.87,2081.57a4.519,4.519,0,1,1-4.507-4.847,4.685,4.685,0,0,1,4.507,4.847" transform="translate(-1589.725 -1809.139)" fill="#fff"/>
        <path id="Trazado_726873" data-name="Trazado 726873" d="M2194.644,1563.978a4.519,4.519,0,1,1-4.507-4.847,4.686,4.686,0,0,1,4.507,4.847" transform="translate(-1904.013 -1358.238)" fill="#fff"/>
        <path id="Trazado_726874" data-name="Trazado 726874" d="M1537.99,1334.407a5.2,5.2,0,1,1-5.2-5.2,5.2,5.2,0,0,1,5.2,5.2" transform="translate(-1330.762 -1157.94)" fill="#fff"/>
        <path id="Trazado_726875" data-name="Trazado 726875" d="M2287.082,903.162a4.519,4.519,0,1,1-4.507-4.847,4.686,4.686,0,0,1,4.507,4.847" transform="translate(-1984.54 -782.569)" fill="#bdd0fb"/>
        <path id="Trazado_726876" data-name="Trazado 726876" d="M551.941,1615.171a4.519,4.519,0,1,1-4.507-4.846,4.686,4.686,0,0,1,4.507,4.846" transform="translate(-472.971 -1402.836)" fill="#fff"/>
        <path id="Trazado_726877" data-name="Trazado 726877" d="M1202.789,989.9a4.519,4.519,0,1,1-4.507-4.846,4.686,4.686,0,0,1,4.507,4.846" transform="translate(-1039.958 -858.134)" fill="#fff"/>
        <path id="Trazado_726878" data-name="Trazado 726878" d="M582.248,1018.44l-.179-.846a7.87,7.87,0,0,0,2.448-1.046c2.177-1.416,3.445-3.813,4.787-6.351a27.373,27.373,0,0,1,3.023-4.865c2.809-3.342,6.878-4.817,10.813-6.243.744-.27,1.486-.539,2.215-.819,5.928-2.276,9.394-5.483,10.3-9.529a5.54,5.54,0,0,0-.277-3.691,6.728,6.728,0,0,0-1.956-2.094,74.505,74.505,0,0,0-7.307-4.824,64.7,64.7,0,0,1-8.509-5.793c-4.613-3.913-9.049-10.617-7.665-17.7.7-3.6,2.8-6.639,4.836-9.574,2.254-3.257,4.383-6.333,4.781-10.122.552-5.251-2.6-9.932-5.732-12.561-3.674-3.084-8.357-4.747-12.488-6.214-2.221-.789-4.739-1.685-7.205-1.437a10.384,10.384,0,0,0-5.656,2.591l-.49-.688a11.132,11.132,0,0,1,6.072-2.767c2.632-.263,5.234.661,7.53,1.477,4.193,1.489,8.946,3.177,12.73,6.353,3.305,2.774,6.627,7.738,6.038,13.346-.423,4.022-2.717,7.337-4.936,10.544-1.979,2.86-4.026,5.817-4.693,9.234-1.307,6.691,2.953,13.084,7.375,16.835a64.023,64.023,0,0,0,8.406,5.718,75.248,75.248,0,0,1,7.384,4.877,7.447,7.447,0,0,1,2.189,2.378,6.483,6.483,0,0,1,.354,4.316c-.976,4.35-4.615,7.763-10.814,10.143-.734.282-1.48.552-2.229.824-3.837,1.391-7.805,2.829-10.474,6a26.727,26.727,0,0,0-2.921,4.712c-1.334,2.523-2.714,5.131-5.07,6.664a8.729,8.729,0,0,1-2.684,1.149" transform="translate(-494.806 -796.076)" fill="#bdd0fb"/>
        <path id="Trazado_726879" data-name="Trazado 726879" d="M1362.363,1785.69a28.842,28.842,0,0,1,1.948-11.135l2.637-6.117c.408-.948.831-1.928,1.337-2.856,3.521-6.451,9.967-8.125,16.268-9.287.637-.117,1.412-.231,2.234-.352,4.937-.725,13.2-1.938,13.775-7.389a11.015,11.015,0,0,0-1.442-5.771q-.173-.361-.35-.721a16.989,16.989,0,0,1-1.877-5.25,11.081,11.081,0,0,1,4.212-9.592,21.709,21.709,0,0,1,9.282-3.987,63.877,63.877,0,0,1,13.564-1.528h.6c5.661,0,12.048.058,15.175-6.022l.7.394c-3.324,6.461-9.876,6.5-15.7,6.5h-.774a63.129,63.129,0,0,0-13.406,1.511,20.955,20.955,0,0,0-8.956,3.8,10.2,10.2,0,0,0-3.9,8.8,16.339,16.339,0,0,0,1.791,4.969c.119.243.237.489.353.731a11.82,11.82,0,0,1,1.526,6.27c-.646,6.122-9.3,7.393-14.466,8.152-.85.124-1.584.233-2.207.348-6.115,1.128-12.365,2.742-15.711,8.872-.487.892-.9,1.853-1.3,2.782l-2.637,6.118a27.892,27.892,0,0,0-1.873,10.761Z" transform="translate(-1186.823 -1494.618)" fill="#bdd0fb"/>
        <path id="Trazado_726880" data-name="Trazado 726880" d="M1828.179,1287.938c-2.1,0-4-1.407-5.782-2.868l-4.552-3.739.486-.691,4.551,3.738c1.818,1.494,3.766,2.931,5.813,2.656,1.831-.243,3.215-1.728,4.68-3.3,1.539-1.651,3.131-3.359,5.315-3.533,1.887-.154,3.516.912,5.09,1.94a18.169,18.169,0,0,0,2.309,1.354c2.6,1.185,5.6.869,8.249.591,3.129-.329,6.2-.988,7.443-3.562,1.1-2.271.163-5.069-1.254-6.835a19.406,19.406,0,0,0-5.039-4q-.4-.249-.792-.5a3.744,3.744,0,0,1-1.493-1.441,4.372,4.372,0,0,1-.263-2.244,78.738,78.738,0,0,1,.838-12.806,20.326,20.326,0,0,1,1.171-3.71c.788-2.039,1.533-3.965,1.178-5.973a10.516,10.516,0,0,0-.7-2.12,8.3,8.3,0,0,1-.82-3.17,8.439,8.439,0,0,1,.215-1.627,7.637,7.637,0,0,0,.2-1.454c0-1.582-1-2.965-2.121-4.36a46.733,46.733,0,0,0-4.559-4.63c-4.384-4.079-9.353-8.7-8.812-15.229.272-3.281,2.235-6.492,5.835-9.544a2.345,2.345,0,0,0,.892-1.11c.152-.676-.475-1.374-.862-1.73-5.011-4.6-12.788-2.179-16.978-.324-1,.444-2.029.934-3.02,1.407-3.343,1.6-6.8,3.245-10.493,3.726-2.731.355-5.066-.691-7.324-1.7a24.727,24.727,0,0,0-3.933-1.5c-2.574-.66-5.761-.059-6.875,2.361a9.128,9.128,0,0,0-.59,3.237,8.912,8.912,0,0,1-.83,3.85c-1.359,2.432-4.321,2.811-7.039,2.86-.968.015-2.2-.068-3.507-.159-4.144-.287-9.82-.682-11.911,1.974-.1.174-.373,1.32-.576,2.157a22.616,22.616,0,0,1-.728,2.638,12.161,12.161,0,0,1-1.072,1.854,6.386,6.386,0,0,0-1.334,3.124c-.254,3.453,3.589,5.471,6.966,6.843a108.943,108.943,0,0,1,15,8.023c3.013,1.82,6.428,3.884,8.479,7.3,3.385,5.643.544,8.94-2.682,11.42a6.161,6.161,0,0,0-1.569,1.533c-.763,1.233-.6,2.875-.356,4.591l-.794.134c-.262-1.818-.441-3.716.483-5.207a6.873,6.873,0,0,1,1.771-1.758c3.539-2.722,5.314-5.5,2.473-10.24-1.942-3.236-5.265-5.244-8.2-7.015a108.413,108.413,0,0,0-14.891-7.969c-3.64-1.479-7.78-3.694-7.484-7.724a7.19,7.19,0,0,1,1.482-3.56,11.541,11.541,0,0,0,1-1.719,24.113,24.113,0,0,0,.677-2.488,9.578,9.578,0,0,1,.741-2.5c2.353-2.988,8.02-2.595,12.574-2.278,1.29.089,2.509.176,3.443.157,2.5-.045,5.208-.371,6.365-2.441a8.115,8.115,0,0,0,.716-3.462,9.953,9.953,0,0,1,.673-3.563c1.36-2.958,4.987-3.536,7.779-2.819a25.246,25.246,0,0,1,4.055,1.541c2.262,1.013,4.4,1.97,6.92,1.642,3.574-.465,6.975-2.088,10.265-3.659,1-.475,2.026-.966,3.04-1.416,4.359-1.93,12.468-4.436,17.8.466a2.767,2.767,0,0,1,1.123,2.6,3.055,3.055,0,0,1-1.176,1.588c-3.418,2.9-5.279,5.905-5.53,8.937-.5,6.083,4.091,10.359,8.536,14.493a47.36,47.36,0,0,1,4.642,4.719c1.224,1.525,2.323,3.049,2.317,4.931a8.483,8.483,0,0,1-.215,1.635,7.656,7.656,0,0,0-.2,1.448,7.487,7.487,0,0,0,.752,2.815,11.407,11.407,0,0,1,.752,2.307c.4,2.264-.427,4.4-1.226,6.471a19.38,19.38,0,0,0-1.123,3.538,78.129,78.129,0,0,0-.824,12.674,3.607,3.607,0,0,0,.169,1.8,3.08,3.08,0,0,0,1.192,1.1q.393.249.788.5a20.014,20.014,0,0,1,5.243,4.185c1.6,1.989,2.634,5.174,1.358,7.806-1.428,2.947-4.884,3.688-8.077,4.023-2.744.289-5.854.616-8.639-.655a18.752,18.752,0,0,1-2.412-1.411c-1.533-1-2.981-1.947-4.615-1.817-1.888.151-3.307,1.673-4.808,3.283s-3.045,3.266-5.148,3.545a4.646,4.646,0,0,1-.615.041" transform="translate(-1540.513 -1040.617)" fill="#bdd0fb"/>
        <path id="Trazado_726881" data-name="Trazado 726881" d="M940.948,1023.687l-.554-.629c4.48-4.609,11.291-4.619,16.725-4.11.59.055,1.184.115,1.78.174,5.171.519,10.519,1.056,15.118-1.289a4.44,4.44,0,0,0,2.416-2.352,6.125,6.125,0,0,0,.2-1.962c0-.347,0-.705.026-1.062a9.083,9.083,0,0,1,3.822-6.456,23.064,23.064,0,0,1,6.481-3.043l23.36-8.1a19.911,19.911,0,0,0,5.29-2.437c2.541-1.842,8.177-6.925,5.63-14.323-.106-.31-.226-.615-.346-.921a10.3,10.3,0,0,1-.726-2.445,6.938,6.938,0,0,1,2.883-6.17c.182-.138.372-.273.563-.408a4.1,4.1,0,0,0,1.8-1.926,4.392,4.392,0,0,0-.675-3.047,12.264,12.264,0,0,1-.678-1.643,10.969,10.969,0,0,1-.07-4.57,11.438,11.438,0,0,0,.059-3.858l.781-.2a12.3,12.3,0,0,1-.043,4.175,10.125,10.125,0,0,0,.038,4.184,11.626,11.626,0,0,0,.63,1.519c.554,1.178,1.127,2.4.722,3.714a4.844,4.844,0,0,1-2.121,2.379c-.184.13-.366.259-.541.392a6.04,6.04,0,0,0-2.549,5.341,9.482,9.482,0,0,0,.67,2.225c.124.317.248.635.359.956,1.9,5.534-.314,11.271-5.936,15.346a20.522,20.522,0,0,1-5.492,2.544l-23.36,8.1a22.474,22.474,0,0,0-6.269,2.93,8.211,8.211,0,0,0-3.479,5.81c-.023.323-.023.649-.024.994a6.905,6.905,0,0,1-.253,2.262,5.211,5.211,0,0,1-2.827,2.838c-4.8,2.446-10.256,1.9-15.535,1.368-.595-.06-1.186-.119-1.775-.174-5.266-.492-11.854-.495-16.1,3.875" transform="translate(-819.225 -830.125)" fill="#bdd0fb"/>
        <path id="Trazado_726882" data-name="Trazado 726882" d="M1985.714,779.242c-2.454-2.684-1.8-7.276.251-10.164a22.84,22.84,0,0,1,6.215-5.4c.514-.347,1.026-.693,1.53-1.047a47.361,47.361,0,0,0,8.4-7.575,5.719,5.719,0,0,0,1.556-2.688c.342-2.08-1.589-3.866-2.435-4.538a32.955,32.955,0,0,0-4.777-2.97,43.65,43.65,0,0,1-3.794-2.238c-3.458-2.366-5.507-5.555-5.619-8.75a18.511,18.511,0,0,1,.775-5.007c.643-2.582,1.25-5.02-.078-6.927a7.453,7.453,0,0,0-3.679-2.335c-.443-.175-.9-.355-1.337-.555a13.7,13.7,0,0,1-6.717-7.006l.728-.367a12.848,12.848,0,0,0,6.3,6.574c.418.192.867.369,1.3.54a8.149,8.149,0,0,1,4.045,2.628c1.563,2.246.876,5.006.212,7.675a17.815,17.815,0,0,0-.748,4.748c.1,2.9,2.014,5.838,5.246,8.049a43.129,43.129,0,0,0,3.726,2.2,33.507,33.507,0,0,1,4.891,3.046c2.044,1.623,3.046,3.587,2.75,5.39a6.541,6.541,0,0,1-1.762,3.132,48.17,48.17,0,0,1-8.544,7.706c-.508.358-1.025.707-1.542,1.056a22.224,22.224,0,0,0-6,5.2c-1.84,2.594-2.463,6.678-.316,9.025Z" transform="translate(-1721.396 -619.973)" fill="#bdd0fb"/>
        <path id="Trazado_726883" data-name="Trazado 726883" d="M1260.011,1468.024a1.4,1.4,0,0,1-.811-.251l-.23-.162.056-.291c.21-1.092.36-2.429-.354-3.081a2.782,2.782,0,0,0-2.106-.367c-.24.015-.478.036-.709.036h-.026a2.857,2.857,0,0,1-2.219-1.055,1.628,1.628,0,0,1-.273-1.371,2.622,2.622,0,0,1,.7-1.13l7.764-8.506a41.791,41.791,0,0,1,5-4.9c.772-.6,1.59-1.15,2.38-1.68a27,27,0,0,0,3.362-2.517c.934-.866,3.081-3.2,2.847-6.128a4.486,4.486,0,0,0-1.815-3.181,2.626,2.626,0,0,0-2.456-.433,5.754,5.754,0,0,0-1.339.8c-.166.119-.331.239-.5.352a11.347,11.347,0,0,1-8.953,1.3,33.926,33.926,0,0,1-8.389-3.6c-2.8-1.513-6.513-3.97-6.457-7.822a10.471,10.471,0,0,1,1.9-5.084l.3-.52c4.436-7.652,5.6-16.714,3.1-24.239-2.736-8.25-10.152-14.119-17.588-13.935l-.018-.868c.114,0,.229,0,.343,0,7.674,0,15.213,6.048,18.02,14.514,2.578,7.774,1.391,17.117-3.175,24.994l-.307.525a9.811,9.811,0,0,0-1.778,4.632c-.049,3.325,3.188,5.5,6.013,7.031a33.322,33.322,0,0,0,8.2,3.53,10.6,10.6,0,0,0,8.361-1.183c.16-.108.318-.223.476-.337a6.448,6.448,0,0,1,1.528-.9,3.365,3.365,0,0,1,3.153.529,5.324,5.324,0,0,1,2.176,3.833,8.686,8.686,0,0,1-3.125,6.862,27.492,27.492,0,0,1-3.462,2.6c-.779.522-1.585,1.062-2.334,1.646a41.21,41.21,0,0,0-4.9,4.807l-7.764,8.505a1.923,1.923,0,0,0-.5.741.713.713,0,0,0,.131.615,2.15,2.15,0,0,0,1.6.716c.219,0,.443-.017.669-.031a3.412,3.412,0,0,1,2.672.575c.948.865.9,2.312.686,3.568a.845.845,0,0,0,.931-.558l.768.253a1.646,1.646,0,0,1-.984,1.073,1.578,1.578,0,0,1-.58.112" transform="translate(-1074.297 -1201.649)" fill="#bdd0fb"/>
      </g>
    </g>
    <g id="Grupo_1026215" data-name="Grupo 1026215" transform="translate(107.047 131.193)">
      <g id="Grupo_1026214" data-name="Grupo 1026214" clip-path="url(#clip-path-14)">
        <rect id="Rectángulo_350015" data-name="Rectángulo 350015" width="183.898" height="170.914" transform="translate(0 0)" fill="#265e91"/>
      </g>
    </g>
    <g id="Grupo_1026226" data-name="Grupo 1026226" transform="translate(0 0)">
      <g id="Grupo_1026225" data-name="Grupo 1026225" clip-path="url(#clip-path-3)">
        <g id="Grupo_1026218" data-name="Grupo 1026218" transform="translate(140.613 67.313)" opacity="0.47">
          <g id="Grupo_1026217" data-name="Grupo 1026217">
            <g id="Grupo_1026216" data-name="Grupo 1026216" clip-path="url(#clip-path-16)">
              <rect id="Rectángulo_350016" data-name="Rectángulo 350016" width="2.361" height="245.146" transform="translate(0 0.001)" fill="#fff"/>
            </g>
          </g>
        </g>
        <g id="Grupo_1026221" data-name="Grupo 1026221" transform="translate(243.761 77.152)" opacity="0.47">
          <g id="Grupo_1026220" data-name="Grupo 1026220">
            <g id="Grupo_1026219" data-name="Grupo 1026219" clip-path="url(#clip-path-16)">
              <rect id="Rectángulo_350018" data-name="Rectángulo 350018" width="2.361" height="245.146" transform="translate(0 0)" fill="#fff"/>
            </g>
          </g>
        </g>
        <g id="Grupo_1026224" data-name="Grupo 1026224" transform="translate(37.407 68.649)" opacity="0.11">
          <g id="Grupo_1026223" data-name="Grupo 1026223">
            <g id="Grupo_1026222" data-name="Grupo 1026222" clip-path="url(#clip-path-18)">
              <path id="Trazado_726885" data-name="Trazado 726885" d="M394.59,777.867,290.313,783.8V544.058l104.277-11.27Z" transform="translate(-290.313 -532.788)" fill="#fff"/>
            </g>
          </g>
        </g>
      </g>
    </g>
    <g id="Grupo_1026228" data-name="Grupo 1026228" transform="translate(50.798 123.472)">
      <g id="Grupo_1026227" data-name="Grupo 1026227" clip-path="url(#clip-path-19)">
        <rect id="Rectángulo_350022" data-name="Rectángulo 350022" width="47.142" height="47.142" transform="translate(0 0)" fill="#ffa031"/>
      </g>
    </g>
    <g id="Grupo_1026230" data-name="Grupo 1026230" transform="translate(50.755 145.017)">
      <g id="Grupo_1026229" data-name="Grupo 1026229" clip-path="url(#clip-path-20)">
        <rect id="Rectángulo_350023" data-name="Rectángulo 350023" width="50.89" height="51.989" transform="translate(-1.834 0)" fill="#ffa031"/>
      </g>
    </g>
    <g id="Grupo_1026235" data-name="Grupo 1026235" transform="translate(0 0)">
      <g id="Grupo_1026234" data-name="Grupo 1026234" clip-path="url(#clip-path-3)">
        <path id="Trazado_726888" data-name="Trazado 726888" d="M412.735,1029.926v.033h.161a5.8,5.8,0,0,1-5-2.835c-12.3-20.946-16.8-34.166-18.416-41.577a23.656,23.656,0,0,1-.808-5.077,11.789,11.789,0,0,1-.021-2.563l.062-.374a24.254,24.254,0,0,1,48.4.243,10.688,10.688,0,0,1,.039,1.3v.087a24.291,24.291,0,0,1-.972,6.816c-1.67,7.4-6.28,20.518-18.367,41.111a5.3,5.3,0,0,1-5.08,2.836M389.972,978.72c-.006,0,.005.9.067,1.661l0,.019a22.321,22.321,0,0,0,.767,4.815l.008.033c1.59,7.31,6.049,20.392,18.263,41.2a4.306,4.306,0,0,0,3.736,2.172l-.08.684v-.684a4.739,4.739,0,0,0,4.121-2.19c12.01-20.461,16.723-33.465,18.46-40.77v-.042a31.773,31.773,0,0,0,.679-6.452l-.245-.1v-.008c0-.682,0-1.051-.015-1.148l.006-.039a22.882,22.882,0,0,0-45.69.2l-.035.653Z" transform="translate(-338.53 -831.966)" fill="#fff"/>
        <g id="Grupo_1026233" data-name="Grupo 1026233" transform="translate(60.835 133.356)" opacity="0.8">
          <g id="Grupo_1026232" data-name="Grupo 1026232">
            <g id="Grupo_1026231" data-name="Grupo 1026231" clip-path="url(#clip-path-22)">
              <path id="Trazado_726889" data-name="Trazado 726889" d="M499.36,1048.592a13.61,13.61,0,1,1-13.61-13.61,13.61,13.61,0,0,1,13.61,13.61" transform="translate(-472.139 -1034.982)" fill="#fff"/>
            </g>
          </g>
        </g>
      </g>
    </g>
    <g id="Grupo_1026237" data-name="Grupo 1026237" transform="translate(60.075 132.597)">
      <g id="Grupo_1026236" data-name="Grupo 1026236" clip-path="url(#clip-path-23)">
        <rect id="Rectángulo_350026" data-name="Rectángulo 350026" width="28.741" height="28.741" transform="translate(0 0)" fill="url(#linear-gradient-4)"/>
      </g>
    </g>
    <g id="Grupo_1026245" data-name="Grupo 1026245" transform="translate(0 0)">
      <g id="Grupo_1026244" data-name="Grupo 1026244" clip-path="url(#clip-path-3)">
        <g id="Grupo_1026240" data-name="Grupo 1026240" transform="translate(61.306 127.303)" opacity="0.7">
          <g id="Grupo_1026239" data-name="Grupo 1026239">
            <g id="Grupo_1026238" data-name="Grupo 1026238" clip-path="url(#clip-path-25)">
              <path id="Trazado_726891" data-name="Trazado 726891" d="M476.025,993.5a.228.228,0,0,1-.149-.4A21.122,21.122,0,0,1,489.631,988a.228.228,0,0,1,0,.456,20.665,20.665,0,0,0-13.458,4.982.226.226,0,0,1-.149.055" transform="translate(-475.797 -988.003)" fill="#fff"/>
            </g>
          </g>
        </g>
        <g id="Grupo_1026243" data-name="Grupo 1026243" transform="translate(54.018 137.199)" opacity="0.7">
          <g id="Grupo_1026242" data-name="Grupo 1026242">
            <g id="Grupo_1026241" data-name="Grupo 1026241" clip-path="url(#clip-path-26)">
              <path id="Trazado_726892" data-name="Trazado 726892" d="M419.463,1076.259a.228.228,0,0,1-.228-.228,21.073,21.073,0,0,1,3.16-11.119.228.228,0,0,1,.388.24,20.615,20.615,0,0,0-3.092,10.878.228.228,0,0,1-.228.228" transform="translate(-419.235 -1064.804)" fill="#fff"/>
            </g>
          </g>
        </g>
      </g>
    </g>
    <g id="Grupo_1026247" data-name="Grupo 1026247" transform="translate(145.145 79.863)">
      <g id="Grupo_1026246" data-name="Grupo 1026246" clip-path="url(#clip-path-27)">
        <rect id="Rectángulo_350030" data-name="Rectángulo 350030" width="26.657" height="26.657" transform="translate(0 0)" fill="#ffa031"/>
      </g>
    </g>
    <g id="Grupo_1026249" data-name="Grupo 1026249" transform="translate(145.121 92.04)">
      <g id="Grupo_1026248" data-name="Grupo 1026248" clip-path="url(#clip-path-28)">
        <rect id="Rectángulo_350031" data-name="Rectángulo 350031" width="28.777" height="29.402" transform="translate(-1.037)" fill="#ffa031"/>
      </g>
    </g>
    <g id="Grupo_1026254" data-name="Grupo 1026254" transform="translate(0 0)">
      <g id="Grupo_1026253" data-name="Grupo 1026253" clip-path="url(#clip-path-3)">
        <path id="Trazado_726895" data-name="Trazado 726895" d="M1136.994,660.335v.019h.026a3.279,3.279,0,0,1-2.826-1.6c-6.954-11.844-9.5-19.32-10.414-23.51a13.38,13.38,0,0,1-.457-2.871,6.678,6.678,0,0,1-.012-1.449l.035-.211a13.715,13.715,0,0,1,27.368.137,6.12,6.12,0,0,1,.022.735v.049a13.736,13.736,0,0,1-.55,3.854c-.944,4.187-3.519,11.6-10.353,23.247a3.128,3.128,0,0,1-2.84,1.6m-12.937-29.075s0,.569.038,1v.041a12.773,12.773,0,0,0,.434,2.738l0,.026c.9,4.134,3.421,11.535,10.327,23.3a2.489,2.489,0,0,0,2.145,1.23l-.013.389V659.6a2.673,2.673,0,0,0,2.242-1.238c6.791-11.57,9.482-18.923,10.35-23.054v-.024a10.381,10.381,0,0,0,.479-3.648l-.044-.054v0a3.989,3.989,0,0,0-.047-.649l-.016-.022a12.949,12.949,0,0,0-25.851.051l-.024.31Z" transform="translate(-978.547 -538.352)" fill="#fff"/>
        <g id="Grupo_1026252" data-name="Grupo 1026252" transform="translate(150.821 85.451)" opacity="0.8">
          <g id="Grupo_1026251" data-name="Grupo 1026251">
            <g id="Grupo_1026250" data-name="Grupo 1026250" clip-path="url(#clip-path-9)">
              <path id="Trazado_726896" data-name="Trazado 726896" d="M1185.911,670.892a7.7,7.7,0,1,1-7.7-7.7,7.7,7.7,0,0,1,7.7,7.7" transform="translate(-1170.519 -663.195)" fill="#fff"/>
            </g>
          </g>
        </g>
      </g>
    </g>
    <g id="Grupo_1026256" data-name="Grupo 1026256" transform="translate(150.391 85.022)">
      <g id="Grupo_1026255" data-name="Grupo 1026255" clip-path="url(#clip-path-31)">
        <rect id="Rectángulo_350034" data-name="Rectángulo 350034" width="16.252" height="16.252" transform="translate(0 0)" fill="url(#linear-gradient-5)"/>
      </g>
    </g>
    <g id="Grupo_1026267" data-name="Grupo 1026267" transform="translate(0 0)">
      <g id="Grupo_1026266" data-name="Grupo 1026266" clip-path="url(#clip-path-3)">
        <g id="Grupo_1026259" data-name="Grupo 1026259" transform="translate(151.088 82.029)" opacity="0.7">
          <g id="Grupo_1026258" data-name="Grupo 1026258">
            <g id="Grupo_1026257" data-name="Grupo 1026257" clip-path="url(#clip-path-33)">
              <path id="Trazado_726898" data-name="Trazado 726898" d="M1172.717,639.736a.129.129,0,0,1-.084-.227,11.941,11.941,0,0,1,7.778-2.879.129.129,0,1,1,0,.258,11.686,11.686,0,0,0-7.61,2.817.128.128,0,0,1-.084.031" transform="translate(-1172.589 -636.63)" fill="#fff"/>
            </g>
          </g>
        </g>
        <g id="Grupo_1026262" data-name="Grupo 1026262" transform="translate(146.966 87.625)" opacity="0.7">
          <g id="Grupo_1026261" data-name="Grupo 1026261">
            <g id="Grupo_1026260" data-name="Grupo 1026260" clip-path="url(#clip-path-34)">
              <path id="Trazado_726899" data-name="Trazado 726899" d="M1140.733,686.535a.129.129,0,0,1-.129-.129,11.915,11.915,0,0,1,1.787-6.287.129.129,0,1,1,.219.136,11.659,11.659,0,0,0-1.748,6.151.129.129,0,0,1-.129.129" transform="translate(-1140.603 -680.058)" fill="#fff"/>
            </g>
          </g>
        </g>
        <g id="Grupo_1026265" data-name="Grupo 1026265" transform="translate(246.595 72.721)" opacity="0.11">
          <g id="Grupo_1026264" data-name="Grupo 1026264">
            <g id="Grupo_1026263" data-name="Grupo 1026263" clip-path="url(#clip-path-35)">
              <path id="Trazado_726900" data-name="Trazado 726900" d="M2017.97,801.607l-104.147,10.042V569.958l104.147-5.573Z" transform="translate(-1913.823 -564.386)" fill="#fff"/>
            </g>
          </g>
        </g>
        <path id="Trazado_726901" data-name="Trazado 726901" d="M671.624,1121.99a.869.869,0,0,1-.741-1.32c19.217-31.562,40.24-53.482,64.271-67.014a.869.869,0,0,1,.852,1.514c-23.765,13.381-44.582,35.1-63.64,66.4a.868.868,0,0,1-.743.417" transform="translate(-584.329 -917.796)" fill="#fff"/>
        <path id="Trazado_726902" data-name="Trazado 726902" d="M655.406,1516.538a.869.869,0,0,1-.852-1.034c.219-1.126.47-2.192.713-3.223a22.062,22.062,0,0,0,.931-6.988.868.868,0,0,1,1.729-.168,23.59,23.59,0,0,1-.969,7.554c-.122.517-.246,1.043-.366,1.579.34-.14.676-.281,1.008-.419,3.09-1.293,6.008-2.516,8.531-2.125a.868.868,0,0,1-.264,1.717c-2.04-.312-4.739.816-7.6,2.01-.826.345-1.681.7-2.55,1.04a.871.871,0,0,1-.313.058" transform="translate(-570.201 -1310.507)" fill="#fff"/>
        <path id="Trazado_726903" data-name="Trazado 726903" d="M1303.575,1113.373a.868.868,0,0,1-.769-.463c-6.2-11.753-15.9-21.481-29.656-29.743a.869.869,0,1,1,.895-1.489c14.034,8.43,23.945,18.381,30.3,30.422a.869.869,0,0,1-.767,1.274" transform="translate(-1108.738 -942.197)" fill="#fff"/>
        <path id="Trazado_726904" data-name="Trazado 726904" d="M1263.879,1081.785l-.054,0a.869.869,0,0,1-.813-.921c.112-1.8-1.1-4.09-2.377-6.511-.372-.7-.757-1.432-1.125-2.175a.869.869,0,0,1,.065-.88.857.857,0,0,1,.8-.368c1.016.1,1.981.241,2.914.373a19.5,19.5,0,0,0,6.224.264.868.868,0,0,1,.323,1.707,21.023,21.023,0,0,1-6.791-.252c-.408-.057-.822-.116-1.242-.172l.364.692c1.4,2.643,2.717,5.14,2.575,7.43a.868.868,0,0,1-.866.814" transform="translate(-1097.144 -932.935)" fill="#fff"/>
      </g>
    </g>
    <g id="Grupo_1026269" data-name="Grupo 1026269" transform="translate(250.814 246.467)">
      <g id="Grupo_1026268" data-name="Grupo 1026268" clip-path="url(#clip-path-36)">
        <rect id="Rectángulo_350039" data-name="Rectángulo 350039" width="17.669" height="18.431" transform="translate(-0.292 0.005) rotate(-0.922)" fill="url(#linear-gradient-6)"/>
      </g>
    </g>
    <g id="Grupo_1026271" data-name="Grupo 1026271" transform="translate(239.058 340.679)">
      <g id="Grupo_1026270" data-name="Grupo 1026270" clip-path="url(#clip-path-37)">
        <rect id="Rectángulo_350040" data-name="Rectángulo 350040" width="13.527" height="10.711" transform="matrix(1, -0.016, 0.016, 1, -0.171, 0.003)" fill="#2e6a90"/>
      </g>
    </g>
    <g id="Grupo_1026273" data-name="Grupo 1026273" transform="translate(0 0)">
      <g id="Grupo_1026272" data-name="Grupo 1026272" clip-path="url(#clip-path-3)">
        <path id="Trazado_726907" data-name="Trazado 726907" d="M1868.251,2721.314a1.26,1.26,0,0,1-.908.947c-3.4.773-8.834.283-11.116.022a1.058,1.058,0,0,1-.9-1.041,68.951,68.951,0,0,0,12.918.073" transform="translate(-1616.274 -2370.611)" fill="#91b3fa"/>
      </g>
    </g>
    <g id="Grupo_1026275" data-name="Grupo 1026275" transform="translate(246.897 336.509)">
      <g id="Grupo_1026274" data-name="Grupo 1026274" clip-path="url(#clip-path-39)">
        <rect id="Rectángulo_350042" data-name="Rectángulo 350042" width="5.798" height="7.438" transform="translate(-0.969 0.116) rotate(-7.459)" fill="url(#linear-gradient-7)"/>
      </g>
    </g>
    <g id="Grupo_1026277" data-name="Grupo 1026277" transform="translate(0 0)">
      <g id="Grupo_1026276" data-name="Grupo 1026276" clip-path="url(#clip-path-3)">
        <path id="Trazado_726909" data-name="Trazado 726909" d="M1668.039,2718.369a17.391,17.391,0,0,0,5.718-.912c.007.32.011.645.006.981a.634.634,0,0,1-.6.655l-17.636.17a.805.805,0,0,1-.667-1.162c2.315.154,8.211.487,13.174.268" transform="translate(-1441.57 -2367.315)" fill="#91b3fa"/>
      </g>
    </g>
    <g id="Grupo_1026279" data-name="Grupo 1026279" transform="translate(213.295 341.87)">
      <g id="Grupo_1026278" data-name="Grupo 1026278" clip-path="url(#clip-path-41)">
        <rect id="Rectángulo_350044" data-name="Rectángulo 350044" width="19.041" height="9.707" transform="translate(-0.151 0.002) rotate(-0.922)" fill="#2e6a90"/>
      </g>
    </g>
    <g id="Grupo_1026281" data-name="Grupo 1026281" transform="translate(226.065 335.327)">
      <g id="Grupo_1026280" data-name="Grupo 1026280" clip-path="url(#clip-path-42)">
        <rect id="Rectángulo_350045" data-name="Rectángulo 350045" width="5.879" height="8.528" transform="translate(-1.025 0.134) rotate(-7.459)" fill="url(#linear-gradient-8)"/>
      </g>
    </g>
    <g id="Grupo_1026283" data-name="Grupo 1026283" transform="translate(225.004 258.054)">
      <g id="Grupo_1026282" data-name="Grupo 1026282" clip-path="url(#clip-path-43)">
        <rect id="Rectángulo_350046" data-name="Rectángulo 350046" width="72.236" height="85.292" transform="translate(-37.924 24.778) rotate(-33.722)" fill="#1c466d"/>
      </g>
    </g>
    <g id="Grupo_1026285" data-name="Grupo 1026285" transform="translate(219.432 204.294)">
      <g id="Grupo_1026284" data-name="Grupo 1026284" clip-path="url(#clip-path-44)">
        <rect id="Rectángulo_350047" data-name="Rectángulo 350047" width="83.937" height="85.002" transform="translate(-26.702 43.264) rotate(-58.318)" fill="#ffa031"/>
      </g>
    </g>
    <g id="Grupo_1026287" data-name="Grupo 1026287" transform="translate(237.36 193.921)">
      <g id="Grupo_1026286" data-name="Grupo 1026286" clip-path="url(#clip-path-45)">
        <rect id="Rectángulo_350048" data-name="Rectángulo 350048" width="14.587" height="11.958" transform="translate(-0.233 14.395) rotate(-89.072)" fill="url(#linear-gradient-9)"/>
      </g>
    </g>
    <g id="Grupo_1026289" data-name="Grupo 1026289" transform="translate(232.964 180.018)">
      <g id="Grupo_1026288" data-name="Grupo 1026288" clip-path="url(#clip-path-46)">
        <rect id="Rectángulo_350049" data-name="Rectángulo 350049" width="19.721" height="18.193" transform="matrix(0.152, -0.988, 0.988, 0.152, -2.63, 17.137)" fill="url(#linear-gradient-10)"/>
      </g>
    </g>
    <g id="Grupo_1026291" data-name="Grupo 1026291" transform="translate(230.911 174.545)">
      <g id="Grupo_1026290" data-name="Grupo 1026290" clip-path="url(#clip-path-47)">
        <rect id="Rectángulo_350050" data-name="Rectángulo 350050" width="34.945" height="35.018" transform="translate(-13.407 12.906) rotate(-44.19)" fill="#1c466d"/>
      </g>
    </g>
    <g id="Grupo_1026293" data-name="Grupo 1026293" transform="translate(244.215 191.467)">
      <g id="Grupo_1026292" data-name="Grupo 1026292" clip-path="url(#clip-path-48)">
        <rect id="Rectángulo_350051" data-name="Rectángulo 350051" width="8.961" height="8.908" transform="translate(-2.635 5.487) rotate(-64.352)" fill="url(#linear-gradient-11)"/>
      </g>
    </g>
    <g id="Grupo_1026295" data-name="Grupo 1026295" transform="translate(259.858 212.944)">
      <g id="Grupo_1026294" data-name="Grupo 1026294" clip-path="url(#clip-path-49)">
        <rect id="Rectángulo_350052" data-name="Rectángulo 350052" width="11.803" height="13.525" transform="matrix(0.775, -0.632, 0.632, 0.775, -7.345, 5.985)" fill="url(#linear-gradient-12)"/>
      </g>
    </g>
    <g id="Grupo_1026297" data-name="Grupo 1026297" transform="translate(243.891 272.563)">
      <g id="Grupo_1026296" data-name="Grupo 1026296" clip-path="url(#clip-path-50)">
        <rect id="Rectángulo_350053" data-name="Rectángulo 350053" width="9.868" height="9.816" transform="matrix(0.864, -0.504, 0.504, 0.864, -3.135, 1.808)" fill="url(#linear-gradient-13)"/>
      </g>
    </g>
    <g id="Grupo_1026299" data-name="Grupo 1026299" transform="translate(194.98 205.319)">
      <g id="Grupo_1026298" data-name="Grupo 1026298" clip-path="url(#clip-path-51)">
        <rect id="Rectángulo_350054" data-name="Rectángulo 350054" width="48.289" height="52.646" transform="matrix(0.525, -0.851, 0.851, 0.525, -13.558, 21.714)" fill="#ffa031"/>
      </g>
    </g>
    <g id="Grupo_1026301" data-name="Grupo 1026301" transform="translate(178.364 213.698)">
      <g id="Grupo_1026300" data-name="Grupo 1026300" clip-path="url(#clip-path-52)">
        <rect id="Rectángulo_350055" data-name="Rectángulo 350055" width="25.201" height="24.479" transform="translate(-9.301 6.022) rotate(-38.934)" fill="url(#linear-gradient-14)"/>
      </g>
    </g>
    <g id="Grupo_1026303" data-name="Grupo 1026303" transform="translate(165.721 209.522)">
      <g id="Grupo_1026302" data-name="Grupo 1026302" clip-path="url(#clip-path-53)">
        <rect id="Rectángulo_350056" data-name="Rectángulo 350056" width="21.986" height="21.131" transform="translate(-6.095 4.924) rotate(-38.934)" fill="url(#linear-gradient-15)"/>
      </g>
    </g>
    <g id="Grupo_1026305" data-name="Grupo 1026305" transform="translate(271.476 350.356)">
      <g id="Grupo_1026304" data-name="Grupo 1026304" clip-path="url(#clip-path-54)">
        <rect id="Rectángulo_350057" data-name="Rectángulo 350057" width="17.785" height="7.893" transform="translate(-1.276 0.059) rotate(-5.553)" fill="#2e6a90"/>
      </g>
    </g>
    <g id="Grupo_1026307" data-name="Grupo 1026307" transform="translate(274.286 190.457)">
      <g id="Grupo_1026306" data-name="Grupo 1026306" clip-path="url(#clip-path-55)">
        <rect id="Rectángulo_350058" data-name="Rectángulo 350058" width="63.856" height="64.023" transform="translate(-26.668 19.289) rotate(-41.342)" fill="#1c466d"/>
      </g>
    </g>
    <g id="Grupo_1026309" data-name="Grupo 1026309" transform="translate(267.382 220.145)">
      <g id="Grupo_1026308" data-name="Grupo 1026308" clip-path="url(#clip-path-56)">
        <rect id="Rectángulo_350059" data-name="Rectángulo 350059" width="29.238" height="50.899" transform="translate(-2.475 0)" fill="url(#linear-gradient-16)"/>
      </g>
    </g>
    <g id="Grupo_1026311" data-name="Grupo 1026311" transform="translate(279.446 207.182)">
      <g id="Grupo_1026310" data-name="Grupo 1026310" clip-path="url(#clip-path-57)">
        <rect id="Rectángulo_350060" data-name="Rectángulo 350060" width="18.401" height="13.787" transform="translate(-6.279 13.946) rotate(-65.759)" fill="url(#linear-gradient-17)"/>
      </g>
    </g>
    <g id="Grupo_1026313" data-name="Grupo 1026313" transform="translate(272.375 196.381)">
      <g id="Grupo_1026312" data-name="Grupo 1026312" clip-path="url(#clip-path-58)">
        <rect id="Rectángulo_350061" data-name="Rectángulo 350061" width="26.492" height="27.127" transform="translate(-12.904 5.886) rotate(-32.441)" fill="url(#linear-gradient-18)"/>
      </g>
    </g>
    <g id="Grupo_1026315" data-name="Grupo 1026315" transform="translate(275.563 192.745)">
      <g id="Grupo_1026314" data-name="Grupo 1026314" clip-path="url(#clip-path-59)">
        <rect id="Rectángulo_350062" data-name="Rectángulo 350062" width="20.282" height="20.252" transform="matrix(0.751, -0.661, 0.661, 0.751, -7.36, 6.193)" fill="#1c466d"/>
      </g>
    </g>
    <g id="Grupo_1026317" data-name="Grupo 1026317" transform="translate(284.042 203.326)">
      <g id="Grupo_1026316" data-name="Grupo 1026316" clip-path="url(#clip-path-60)">
        <rect id="Rectángulo_350063" data-name="Rectángulo 350063" width="8.683" height="8.474" transform="matrix(0.844, -0.536, 0.536, 0.844, -2.659, 1.69)" fill="url(#linear-gradient-19)"/>
      </g>
    </g>
    <g id="Grupo_1026319" data-name="Grupo 1026319" transform="translate(265.083 286.318)">
      <g id="Grupo_1026318" data-name="Grupo 1026318" clip-path="url(#clip-path-61)">
        <rect id="Rectángulo_350064" data-name="Rectángulo 350064" width="56.37" height="66.975" transform="translate(-28.618 18.397) rotate(-32.871)" fill="url(#linear-gradient-20)"/>
      </g>
    </g>
    <g id="Grupo_1026321" data-name="Grupo 1026321" transform="translate(280.914 283.641)">
      <g id="Grupo_1026320" data-name="Grupo 1026320" clip-path="url(#clip-path-62)">
        <rect id="Rectángulo_350065" data-name="Rectángulo 350065" width="46.082" height="68.27" transform="translate(-27.963 14.513) rotate(-27.429)" fill="url(#linear-gradient-21)"/>
      </g>
    </g>
    <g id="Grupo_1026323" data-name="Grupo 1026323" transform="translate(269.044 258.577)">
      <g id="Grupo_1026322" data-name="Grupo 1026322" clip-path="url(#clip-path-63)">
        <rect id="Rectángulo_350066" data-name="Rectángulo 350066" width="43.966" height="44.361" transform="translate(-12.451 5.444) rotate(-23.617)" fill="#1c466d"/>
      </g>
    </g>
    <g id="Grupo_1026325" data-name="Grupo 1026325" transform="translate(275.19 258.577)">
      <g id="Grupo_1026324" data-name="Grupo 1026324" clip-path="url(#clip-path-64)">
        <rect id="Rectángulo_350067" data-name="Rectángulo 350067" width="38.335" height="41.899" transform="translate(-12.451 5.444) rotate(-23.617)" fill="#1c466d"/>
      </g>
    </g>
    <g id="Grupo_1026327" data-name="Grupo 1026327" transform="translate(285.498 226.291)">
      <g id="Grupo_1026326" data-name="Grupo 1026326" clip-path="url(#clip-path-65)">
        <rect id="Rectángulo_350068" data-name="Rectángulo 350068" width="44.35" height="46.592" transform="matrix(0.82, -0.572, 0.572, 0.82, -19.212, 12.186)" fill="url(#linear-gradient-22)"/>
      </g>
    </g>
    <g id="Grupo_1026329" data-name="Grupo 1026329" transform="translate(283.759 345.02)">
      <g id="Grupo_1026328" data-name="Grupo 1026328" clip-path="url(#clip-path-66)">
        <rect id="Rectángulo_350069" data-name="Rectángulo 350069" width="18.875" height="18.878" transform="matrix(0.676, -0.737, 0.737, 0.676, -7.635, 7.246)" fill="#2e6a90"/>
      </g>
    </g>
  </g>
</svg>
