<svg xmlns="http://www.w3.org/2000/svg" width="822" height="279.471" viewBox="0 0 822 279.471">
  <g id="Grupo_1029969" data-name="Grupo 1029969" transform="translate(-389 -7962.873)">
    <path id="Trazado_726988" data-name="Trazado 726988" d="M590.387,154.438H506.871L467.789,82.164h53Z" transform="translate(617.865 8003.896)" fill="none" stroke="#12263f" stroke-miterlimit="10" stroke-width="2"/>
    <path id="Trazado_729234" data-name="Trazado 729234" d="M0,0H820V277.471H0Z" transform="translate(390 7963.873)" fill="none" stroke="#12263f" stroke-width="1"/>
    <path id="Trazado_726989" data-name="Trazado 726989" d="M511.146,124.522h-6.759l-27.3,54.253H448.709v8.566h67.455V133.8Z" transform="translate(608.571 8024.529)" fill="none" stroke="#12263f" stroke-miterlimit="10" stroke-width="2"/>
    <path id="Trazado_726990" data-name="Trazado 726990" d="M679.741,82.164H315.7l-283.027,94.4H95.485L333.9,82.164" transform="translate(405.914 8003.896)" fill="none" stroke="#12263f" stroke-miterlimit="10" stroke-width="2"/>
    <path id="Trazado_726991" data-name="Trazado 726991" d="M74.91,146.778v36.227h28.909L83.661,143.313" transform="translate(426.489 8033.682)" fill="none" stroke="#12263f" stroke-miterlimit="10" stroke-width="2"/>
    <path id="Trazado_729235" data-name="Trazado 729235" d="M0,0,32.925,108.2" transform="translate(1057.28 8086.06)" fill="none" stroke="#12263f" stroke-width="2"/>
    <path id="Trazado_726992" data-name="Trazado 726992" d="M609.826,82.164l9.815,117.244L368.468,180.313,97.8,205.3" transform="translate(437.639 8003.896)" fill="none" stroke="#12263f" stroke-miterlimit="10" stroke-width="2"/>
    <path id="Trazado_726993" data-name="Trazado 726993" d="M594.625,82.164l6.96,103.86L363.8,169.963,109.59,192.946l17.132-35.832,185.234-74.95" transform="translate(443.382 8003.896)" fill="none" stroke="#12263f" stroke-miterlimit="10" stroke-width="2"/>
    <path id="Trazado_726994" data-name="Trazado 726994" d="M121.11,157.114l238.86-11.959,222.085,5.98,13.919,34.889-13.919-34.889V82.164" transform="translate(448.994 8003.896)" fill="none" stroke="#12263f" stroke-miterlimit="10" stroke-width="2"/>
    <path id="Trazado_726995" data-name="Trazado 726995" d="M94.35,179.256H99.48V165.6l21.548-14.593" transform="translate(435.959 8037.432)" fill="none" stroke="#12263f" stroke-miterlimit="10" stroke-width="2"/>
    <path id="Trazado_726996" data-name="Trazado 726996" d="M79.586,171.582H65.309v23.913h643.5V166.764h-7.5" transform="translate(421.813 8045.105)" fill="none" stroke="#12263f" stroke-miterlimit="10" stroke-width="2"/>
    <path id="Trazado_729236" data-name="Trazado 729236" d="M0,0H820V277.471H0Z" transform="translate(390 7963.873)" fill="none" stroke="#12263f" stroke-width="2"/>
    <path id="Trazado_726998" data-name="Trazado 726998" d="M11.307,1.355,0,0" transform="translate(1044.967 8189.92)" fill="none" stroke="#12263f" stroke-width="2"/>
    <path id="Trazado_729237" data-name="Trazado 729237" d="M0,9.393,84.575,0" transform="translate(440.546 8171.068)" fill="none" stroke="#12263f" stroke-width="1"/>
    <path id="Trazado_729238" data-name="Trazado 729238" d="M0,8.914,80.887,0" transform="translate(466.744 8162.154)" fill="none" stroke="#12263f" stroke-width="1"/>
    <path id="Trazado_729239" data-name="Trazado 729239" d="M0,8.951,76.3,0" transform="translate(495.353 8152.575)" fill="none" stroke="#12263f" stroke-width="1"/>
    <path id="Trazado_729240" data-name="Trazado 729240" d="M0,6.8,61.214,0" transform="translate(1139.955 8151.535)" fill="none" stroke="#12263f" stroke-width="1"/>
    <path id="Trazado_729241" data-name="Trazado 729241" d="M0,9.571,70.633,0" transform="translate(1119.484 8139.503)" fill="none" stroke="#12263f" stroke-width="1"/>
    <path id="Trazado_729242" data-name="Trazado 729242" d="M0,9.486,66.373,0" transform="translate(1114.479 8129.88)" fill="none" stroke="#12263f" stroke-width="1"/>
    <path id="Trazado_729243" data-name="Trazado 729243" d="M0,8.888,62.854,0" transform="translate(1109.236 8120.782)" fill="none" stroke="#12263f" stroke-width="1"/>
    <path id="Trazado_729244" data-name="Trazado 729244" d="M0,8.527,59.011,0" transform="translate(1103.868 8111.216)" fill="none" stroke="#12263f" stroke-width="1"/>
    <path id="Trazado_729245" data-name="Trazado 729245" d="M0,7.656,55.661,0" transform="translate(1098.504 8102.166)" fill="none" stroke="#12263f" stroke-width="1"/>
    <path id="Trazado_729246" data-name="Trazado 729246" d="M0,7.036,52.236,0" transform="translate(1093.901 8093.83)" fill="none" stroke="#12263f" stroke-width="1"/>
    <path id="Trazado_729247" data-name="Trazado 729247" d="M0,5.892,49.521,0" transform="translate(1089.135 8086.061)" fill="none" stroke="#12263f" stroke-width="1"/>
    <path id="Trazado_729248" data-name="Trazado 729248" d="M0,7.9,69.47,0" transform="translate(523.419 8144.235)" fill="none" stroke="#12263f" stroke-width="1"/>
    <path id="Trazado_729249" data-name="Trazado 729249" d="M0,6.494,61.272,0" transform="translate(552.44 8135.991)" fill="none" stroke="#12263f" stroke-width="1"/>
    <path id="Trazado_729250" data-name="Trazado 729250" d="M0,4.916,52.549,0" transform="translate(582.492 8127.545)" fill="none" stroke="#12263f" stroke-width="1"/>
    <path id="Trazado_729251" data-name="Trazado 729251" d="M0,4.878,47.531,0" transform="translate(613.712 8117.17)" fill="none" stroke="#12263f" stroke-width="1"/>
    <path id="Trazado_729252" data-name="Trazado 729252" d="M0,4.31,42.442,0" transform="translate(636.874 8110.013)" fill="none" stroke="#12263f" stroke-width="1"/>
    <path id="Trazado_729253" data-name="Trazado 729253" d="M0,4.7,38.846,0" transform="translate(664.193 8100.621)" fill="none" stroke="#12263f" stroke-width="1"/>
    <path id="Trazado_729254" data-name="Trazado 729254" d="M0,4.585,34.441,0" transform="translate(692.036 8091.339)" fill="none" stroke="#12263f" stroke-width="1"/>
    <path id="Trazado_726997" data-name="Trazado 726997" d="M97.8,169.009l17.533-12.35-11.072,1.819" transform="translate(437.639 8040.183)" fill="none" stroke="#12263f" stroke-miterlimit="10" stroke-width="1"/>
    <path id="Trazado_729255" data-name="Trazado 729255" d="M0,12.288,17.117,0" transform="translate(549.062 8195.647)" fill="none" stroke="#12263f" stroke-width="1"/>
    <path id="Trazado_729256" data-name="Trazado 729256" d="M0,12.288,17.117,0" transform="translate(562.8 8194.371)" fill="none" stroke="#12263f" stroke-width="1"/>
    <path id="Trazado_729257" data-name="Trazado 729257" d="M0,12.288,17.117,0" transform="translate(577.947 8193.052)" fill="none" stroke="#12263f" stroke-width="1"/>
    <path id="Trazado_729258" data-name="Trazado 729258" d="M0,12.288,17.117,0" transform="translate(592.676 8191.605)" fill="none" stroke="#12263f" stroke-width="1"/>
    <path id="Trazado_729259" data-name="Trazado 729259" d="M0,12.288,17.117,0" transform="translate(606.467 8190.345)" fill="none" stroke="#12263f" stroke-width="1"/>
    <path id="Trazado_729260" data-name="Trazado 729260" d="M0,12.288,17.117,0" transform="translate(621.546 8189.077)" fill="none" stroke="#12263f" stroke-width="1"/>
    <path id="Trazado_729261" data-name="Trazado 729261" d="M0,12.288,17.117,0" transform="translate(635.981 8187.769)" fill="none" stroke="#12263f" stroke-width="1"/>
    <path id="Trazado_729262" data-name="Trazado 729262" d="M0,12.288,17.117,0" transform="translate(651.279 8186.321)" fill="none" stroke="#12263f" stroke-width="1"/>
    <path id="Trazado_729263" data-name="Trazado 729263" d="M0,12.288,17.117,0" transform="translate(666.952 8184.851)" fill="none" stroke="#12263f" stroke-width="1"/>
    <path id="Trazado_729264" data-name="Trazado 729264" d="M0,11.8,16.114,0" transform="translate(683.006 8183.776)" fill="none" stroke="#12263f" stroke-width="0.951"/>
    <path id="Trazado_729265" data-name="Trazado 729265" d="M0,12.288,17.117,0" transform="translate(697.979 8182.162)" fill="none" stroke="#12263f" stroke-width="1"/>
    <path id="Trazado_729266" data-name="Trazado 729266" d="M0,11.8,16.114,0" transform="translate(714.033 8181.087)" fill="none" stroke="#12263f" stroke-width="0.951"/>
    <path id="Trazado_729267" data-name="Trazado 729267" d="M0,12.014,16.737,0" transform="translate(730.045 8179.216)" fill="none" stroke="#12263f" stroke-width="1"/>
    <path id="Trazado_729268" data-name="Trazado 729268" d="M0,11.776,15.588,0" transform="translate(746.301 8177.953)" fill="none" stroke="#12263f" stroke-width="0.951"/>
    <path id="Trazado_729269" data-name="Trazado 729269" d="M0,11.892,17.191,0" transform="translate(761.178 8176.464)" fill="none" stroke="#12263f" stroke-width="1"/>
    <path id="Trazado_729270" data-name="Trazado 729270" d="M0,11.7,15.426,0" transform="translate(778.369 8175.069)" fill="none" stroke="#12263f" stroke-width="0.951"/>
    <path id="Trazado_729271" data-name="Trazado 729271" d="M0,11.427,14.089,0" transform="translate(795.409 8173.77)" fill="none" stroke="#12263f" stroke-width="1"/>
    <path id="Trazado_729272" data-name="Trazado 729272" d="M0,9.778,12.38,0" transform="translate(810.738 8174.935)" fill="none" stroke="#12263f" stroke-width="0.951"/>
    <path id="Trazado_729273" data-name="Trazado 729273" d="M0,9.778,12.38,0" transform="translate(823.118 8176.03)" fill="none" stroke="#12263f" stroke-width="0.951"/>
    <path id="Trazado_729274" data-name="Trazado 729274" d="M0,9.778,12.38,0" transform="translate(835.498 8176.463)" fill="none" stroke="#12263f" stroke-width="0.951"/>
    <path id="Trazado_729275" data-name="Trazado 729275" d="M0,9.778,12.38,0" transform="translate(847.877 8177.762)" fill="none" stroke="#12263f" stroke-width="0.951"/>
    <path id="Trazado_729276" data-name="Trazado 729276" d="M0,9.778,12.38,0" transform="translate(860.257 8178.194)" fill="none" stroke="#12263f" stroke-width="0.951"/>
    <path id="Trazado_729277" data-name="Trazado 729277" d="M0,9.778,12.38,0" transform="translate(872.637 8179.493)" fill="none" stroke="#12263f" stroke-width="0.951"/>
    <path id="Trazado_729278" data-name="Trazado 729278" d="M0,9.778,12.38,0" transform="translate(885.016 8180.142)" fill="none" stroke="#12263f" stroke-width="0.951"/>
    <path id="Trazado_729279" data-name="Trazado 729279" d="M0,10.138,12.724,0" transform="translate(897.942 8180.849)" fill="none" stroke="#12263f" stroke-width="0.981"/>
    <path id="Trazado_729280" data-name="Trazado 729280" d="M0,10.138,12.724,0" transform="translate(910.289 8181.918)" fill="none" stroke="#12263f" stroke-width="0.981"/>
    <path id="Trazado_729281" data-name="Trazado 729281" d="M0,10.138,12.724,0" transform="translate(923.013 8182.735)" fill="none" stroke="#12263f" stroke-width="0.981"/>
    <path id="Trazado_729282" data-name="Trazado 729282" d="M0,10.536,12.724,0" transform="translate(937.141 8183.634)" fill="none" stroke="#12263f" stroke-width="1"/>
    <path id="Trazado_729283" data-name="Trazado 729283" d="M0,10.536,12.724,0" transform="translate(950.263 8184.652)" fill="none" stroke="#12263f" stroke-width="1"/>
    <path id="Trazado_729284" data-name="Trazado 729284" d="M0,10.536,12.724,0" transform="translate(963.582 8185.338)" fill="none" stroke="#12263f" stroke-width="1"/>
    <path id="Trazado_729285" data-name="Trazado 729285" d="M0,10.942,12.428,0" transform="translate(977.61 8186.305)" fill="none" stroke="#12263f" stroke-width="1.008"/>
    <path id="Trazado_729286" data-name="Trazado 729286" d="M0,10.942,12.428,0" transform="translate(991.298 8187.237)" fill="none" stroke="#12263f" stroke-width="1.008"/>
    <path id="Trazado_729287" data-name="Trazado 729287" d="M0,10.942,12.428,0" transform="translate(1005.06 8188.032)" fill="none" stroke="#12263f" stroke-width="1.008"/>
    <path id="Trazado_729288" data-name="Trazado 729288" d="M0,11.589,13.255,0" transform="translate(1019.135 8189.07)" fill="none" stroke="#12263f" stroke-width="1.071"/>
    <path id="Trazado_729289" data-name="Trazado 729289" d="M0,11.165,12.771,0" transform="translate(1034.031 8190.371)" fill="none" stroke="#12263f" stroke-width="1.032"/>
    <path id="Trazado_729290" data-name="Trazado 729290" d="M0,5.824,7.108,0" transform="translate(1049.651 8197.079)" fill="none" stroke="#12263f" stroke-width="1.032"/>
    <path id="Trazado_729291" data-name="Trazado 729291" d="M0,105.186V0" transform="translate(1113.895 7992.908)" fill="none" stroke="#12263f" stroke-width="1"/>
    <path id="Trazado_729292" data-name="Trazado 729292" d="M131.129,127.875,0,0" transform="translate(963.581 7992.907)" fill="none" stroke="#12263f" stroke-width="1.239"/>
    <path id="Trazado_729293" data-name="Trazado 729293" d="M7.6-2.977H2.836L1.766,0H.219L4.563-11.375H5.875L10.227,0H8.688ZM3.289-4.2H7.156L5.219-9.523Zm11.633,3.18a2.082,2.082,0,0,0,1.352-.469,1.649,1.649,0,0,0,.641-1.172h1.367a2.621,2.621,0,0,1-.5,1.383,3.293,3.293,0,0,1-1.23,1.047,3.55,3.55,0,0,1-1.629.391A3.482,3.482,0,0,1,12.176-1a4.59,4.59,0,0,1-1.02-3.152v-.242a5.089,5.089,0,0,1,.453-2.2,3.451,3.451,0,0,1,1.3-1.492,3.7,3.7,0,0,1,2-.531,3.39,3.39,0,0,1,2.363.852,3.043,3.043,0,0,1,1,2.211H16.914a1.992,1.992,0,0,0-.621-1.348,1.932,1.932,0,0,0-1.379-.527,2.023,2.023,0,0,0-1.707.793A3.724,3.724,0,0,0,12.6-4.336v.273a3.65,3.65,0,0,0,.6,2.25A2.033,2.033,0,0,0,14.922-1.023ZM23.414.156a3.693,3.693,0,0,1-2.8-1.129,4.19,4.19,0,0,1-1.078-3.02v-.266A5.073,5.073,0,0,1,20.02-6.5a3.748,3.748,0,0,1,1.344-1.547,3.378,3.378,0,0,1,1.871-.559A3.166,3.166,0,0,1,25.8-7.523a4.7,4.7,0,0,1,.914,3.109v.6H20.984a3,3,0,0,0,.73,2.02,2.3,2.3,0,0,0,1.777.77,2.517,2.517,0,0,0,1.3-.312,3.259,3.259,0,0,0,.93-.828l.883.688A3.55,3.55,0,0,1,23.414.156Zm-.18-7.578a1.928,1.928,0,0,0-1.469.637A3.1,3.1,0,0,0,21.031-5h4.234v-.109a2.753,2.753,0,0,0-.594-1.707A1.815,1.815,0,0,0,23.234-7.422Zm9.234.266a4.331,4.331,0,0,0-.711-.055A1.9,1.9,0,0,0,29.828-6V0H28.383V-8.453h1.406l.023.977a2.251,2.251,0,0,1,2.016-1.133,1.477,1.477,0,0,1,.641.109ZM38.7,0a3.036,3.036,0,0,1-.2-.891A3.225,3.225,0,0,1,36.094.156a2.984,2.984,0,0,1-2.051-.707,2.287,2.287,0,0,1-.8-1.793,2.39,2.39,0,0,1,1-2.051,4.733,4.733,0,0,1,2.824-.73h1.406v-.664A1.623,1.623,0,0,0,38.023-7a1.821,1.821,0,0,0-1.336-.449,2.107,2.107,0,0,0-1.3.391,1.151,1.151,0,0,0-.523.945H33.414a2,2,0,0,1,.449-1.223,3.066,3.066,0,0,1,1.219-.934,4.1,4.1,0,0,1,1.691-.344,3.342,3.342,0,0,1,2.289.73,2.635,2.635,0,0,1,.859,2.012v3.891a4.757,4.757,0,0,0,.3,1.852V0ZM36.3-1.1a2.54,2.54,0,0,0,1.289-.352,2.127,2.127,0,0,0,.883-.914V-4.1H37.344q-2.656,0-2.656,1.555a1.316,1.316,0,0,0,.453,1.063A1.742,1.742,0,0,0,36.3-1.1Z" transform="translate(1091.008 7978.837)" fill="#12263f"/>
    <path id="Trazado_729294" data-name="Trazado 729294" d="M0,0H820V277.471H0Z" transform="translate(390 7963.873)" fill="none" stroke="#12263f" stroke-width="1"/>
    <path id="Trazado_729295" data-name="Trazado 729295" d="M0,105.186V0" transform="translate(806.853 7992.908)" fill="none" stroke="#12263f" stroke-width="1"/>
    <path id="Trazado_729296" data-name="Trazado 729296" d="M9.688-3.609A4.185,4.185,0,0,1,8.355-.824a4.365,4.365,0,0,1-2.98.98,4.008,4.008,0,0,1-3.23-1.445A5.815,5.815,0,0,1,.93-5.156V-6.25A6.481,6.481,0,0,1,1.5-9.039,4.231,4.231,0,0,1,3.1-10.887a4.47,4.47,0,0,1,2.406-.645A4.11,4.11,0,0,1,8.414-10.52a4.235,4.235,0,0,1,1.273,2.8H8.18a3.268,3.268,0,0,0-.848-1.975A2.565,2.565,0,0,0,5.508-10.3,2.684,2.684,0,0,0,3.254-9.241a4.882,4.882,0,0,0-.816,3.026v1.1a5.018,5.018,0,0,0,.773,2.948A2.5,2.5,0,0,0,5.375-1.07a2.887,2.887,0,0,0,1.918-.566A3.143,3.143,0,0,0,8.18-3.609ZM16.727,0a3.036,3.036,0,0,1-.2-.891A3.225,3.225,0,0,1,14.117.156a2.984,2.984,0,0,1-2.051-.707,2.287,2.287,0,0,1-.8-1.793,2.39,2.39,0,0,1,1-2.051,4.733,4.733,0,0,1,2.824-.73H16.5v-.664A1.623,1.623,0,0,0,16.047-7a1.821,1.821,0,0,0-1.336-.449,2.107,2.107,0,0,0-1.3.391,1.151,1.151,0,0,0-.523.945H11.438a2,2,0,0,1,.449-1.223,3.066,3.066,0,0,1,1.219-.934A4.1,4.1,0,0,1,14.8-8.609a3.342,3.342,0,0,1,2.289.73,2.635,2.635,0,0,1,.859,2.012v3.891a4.757,4.757,0,0,0,.3,1.852V0Zm-2.4-1.1a2.54,2.54,0,0,0,1.289-.352,2.127,2.127,0,0,0,.883-.914V-4.1H15.367q-2.656,0-2.656,1.555a1.316,1.316,0,0,0,.453,1.063A1.742,1.742,0,0,0,14.328-1.1ZM21.781,0H20.336V-12h1.445Zm3.672-1.18H30.4V0H23.688V-1.062l4.664-6.2H23.758v-1.2h6.406V-7.43ZM37.242,0a3.036,3.036,0,0,1-.2-.891A3.225,3.225,0,0,1,34.633.156a2.984,2.984,0,0,1-2.051-.707,2.287,2.287,0,0,1-.8-1.793,2.39,2.39,0,0,1,1-2.051,4.733,4.733,0,0,1,2.824-.73h1.406v-.664A1.623,1.623,0,0,0,36.563-7a1.821,1.821,0,0,0-1.336-.449,2.107,2.107,0,0,0-1.3.391,1.151,1.151,0,0,0-.523.945H31.953A2,2,0,0,1,32.4-7.332a3.066,3.066,0,0,1,1.219-.934,4.1,4.1,0,0,1,1.691-.344,3.342,3.342,0,0,1,2.289.73,2.635,2.635,0,0,1,.859,2.012v3.891a4.757,4.757,0,0,0,.3,1.852V0Zm-2.4-1.1a2.54,2.54,0,0,0,1.289-.352,2.127,2.127,0,0,0,.883-.914V-4.1H35.883q-2.656,0-2.656,1.555a1.316,1.316,0,0,0,.453,1.063A1.742,1.742,0,0,0,34.844-1.1Zm5.531-3.2A4.952,4.952,0,0,1,41.3-7.426a2.915,2.915,0,0,1,2.414-1.184,2.932,2.932,0,0,1,2.352,1.016V-12h1.445V0H46.18l-.07-.906A2.943,2.943,0,0,1,43.7.156a2.887,2.887,0,0,1-2.395-1.2,5.008,5.008,0,0,1-.926-3.141Zm1.445.164a3.749,3.749,0,0,0,.594,2.25,1.92,1.92,0,0,0,1.641.813A2.108,2.108,0,0,0,46.063-2.3V-6.187a2.125,2.125,0,0,0-1.992-1.2,1.929,1.929,0,0,0-1.656.82A4.128,4.128,0,0,0,41.82-4.133ZM54.969,0a3.036,3.036,0,0,1-.2-.891A3.225,3.225,0,0,1,52.359.156a2.984,2.984,0,0,1-2.051-.707,2.287,2.287,0,0,1-.8-1.793,2.39,2.39,0,0,1,1-2.051,4.733,4.733,0,0,1,2.824-.73h1.406v-.664A1.623,1.623,0,0,0,54.289-7a1.821,1.821,0,0,0-1.336-.449,2.107,2.107,0,0,0-1.3.391,1.151,1.151,0,0,0-.523.945H49.68a2,2,0,0,1,.449-1.223,3.066,3.066,0,0,1,1.219-.934,4.1,4.1,0,0,1,1.691-.344,3.342,3.342,0,0,1,2.289.73,2.635,2.635,0,0,1,.859,2.012v3.891a4.757,4.757,0,0,0,.3,1.852V0Zm-2.4-1.1a2.54,2.54,0,0,0,1.289-.352,2.127,2.127,0,0,0,.883-.914V-4.1H53.609q-2.656,0-2.656,1.555a1.316,1.316,0,0,0,.453,1.063A1.742,1.742,0,0,0,52.57-1.1Z" transform="translate(775.043 7978.713)" fill="#12263f"/>
    <path id="Trazado_729297" data-name="Trazado 729297" d="M1.32,0V-11.375H5.039a4.317,4.317,0,0,1,2.785.766,2.759,2.759,0,0,1,.934,2.266A2.31,2.31,0,0,1,8.3-6.934a2.938,2.938,0,0,1-1.234.949A2.638,2.638,0,0,1,8.527-5a2.814,2.814,0,0,1,.535,1.723A3.042,3.042,0,0,1,8.07-.875,4.1,4.1,0,0,1,5.266,0Zm1.5-5.32v4.094H5.3A2.385,2.385,0,0,0,6.949-1.77a1.907,1.907,0,0,0,.605-1.5q0-2.055-2.234-2.055Zm0-1.2H5.086A2.375,2.375,0,0,0,6.66-7.017a1.654,1.654,0,0,0,.59-1.339A1.626,1.626,0,0,0,6.7-9.722a2.686,2.686,0,0,0-1.664-.427H2.82ZM10.672-4.3a4.993,4.993,0,0,1,.488-2.234A3.643,3.643,0,0,1,12.52-8.07a3.7,3.7,0,0,1,1.988-.539,3.565,3.565,0,0,1,2.793,1.2,4.6,4.6,0,0,1,1.066,3.18v.1a5.036,5.036,0,0,1-.473,2.215A3.589,3.589,0,0,1,16.543-.391a3.743,3.743,0,0,1-2.02.547,3.556,3.556,0,0,1-2.785-1.2A4.575,4.575,0,0,1,10.672-4.2Zm1.453.172a3.616,3.616,0,0,0,.652,2.258,2.088,2.088,0,0,0,1.746.852,2.075,2.075,0,0,0,1.75-.863A3.955,3.955,0,0,0,16.922-4.3a3.61,3.61,0,0,0-.66-2.254,2.1,2.1,0,0,0-1.754-.863,2.075,2.075,0,0,0-1.727.852A3.925,3.925,0,0,0,12.125-4.133ZM24.266-7.156a4.331,4.331,0,0,0-.711-.055A1.9,1.9,0,0,0,21.625-6V0H20.18V-8.453h1.406l.023.977a2.251,2.251,0,0,1,2.016-1.133,1.477,1.477,0,0,1,.641.109ZM25.094-4.3a4.952,4.952,0,0,1,.922-3.129A2.915,2.915,0,0,1,28.43-8.609a2.932,2.932,0,0,1,2.352,1.016V-12h1.445V0H30.9l-.07-.906A2.943,2.943,0,0,1,28.414.156a2.887,2.887,0,0,1-2.395-1.2,5.008,5.008,0,0,1-.926-3.141Zm1.445.164a3.749,3.749,0,0,0,.594,2.25,1.92,1.92,0,0,0,1.641.813A2.108,2.108,0,0,0,30.781-2.3V-6.187a2.125,2.125,0,0,0-1.992-1.2,1.929,1.929,0,0,0-1.656.82A4.128,4.128,0,0,0,26.539-4.133ZM37.977.156a3.693,3.693,0,0,1-2.8-1.129A4.19,4.19,0,0,1,34.1-3.992v-.266a5.073,5.073,0,0,1,.48-2.246,3.748,3.748,0,0,1,1.344-1.547A3.378,3.378,0,0,1,37.8-8.609a3.166,3.166,0,0,1,2.563,1.086,4.7,4.7,0,0,1,.914,3.109v.6H35.547a3,3,0,0,0,.73,2.02,2.3,2.3,0,0,0,1.777.77,2.517,2.517,0,0,0,1.3-.312,3.259,3.259,0,0,0,.93-.828l.883.688A3.55,3.55,0,0,1,37.977.156ZM37.8-7.422a1.928,1.928,0,0,0-1.469.637A3.1,3.1,0,0,0,35.594-5h4.234v-.109a2.753,2.753,0,0,0-.594-1.707A1.815,1.815,0,0,0,37.8-7.422ZM46.555-4.3a4.952,4.952,0,0,1,.922-3.129,2.915,2.915,0,0,1,2.414-1.184,2.932,2.932,0,0,1,2.352,1.016V-12h1.445V0H52.359l-.07-.906A2.943,2.943,0,0,1,49.875.156a2.887,2.887,0,0,1-2.395-1.2,5.008,5.008,0,0,1-.926-3.141ZM48-4.133a3.749,3.749,0,0,0,.594,2.25,1.92,1.92,0,0,0,1.641.813A2.108,2.108,0,0,0,52.242-2.3V-6.187a2.125,2.125,0,0,0-1.992-1.2,1.929,1.929,0,0,0-1.656.82A4.128,4.128,0,0,0,48-4.133ZM59.438.156a3.693,3.693,0,0,1-2.8-1.129,4.19,4.19,0,0,1-1.078-3.02v-.266a5.073,5.073,0,0,1,.48-2.246,3.748,3.748,0,0,1,1.344-1.547,3.378,3.378,0,0,1,1.871-.559A3.166,3.166,0,0,1,61.82-7.523a4.7,4.7,0,0,1,.914,3.109v.6H57.008a3,3,0,0,0,.73,2.02,2.3,2.3,0,0,0,1.777.77,2.517,2.517,0,0,0,1.3-.312,3.259,3.259,0,0,0,.93-.828l.883.688A3.55,3.55,0,0,1,59.438.156Zm-.18-7.578a1.928,1.928,0,0,0-1.469.637A3.1,3.1,0,0,0,57.055-5h4.234v-.109A2.753,2.753,0,0,0,60.7-6.816,1.815,1.815,0,0,0,59.258-7.422ZM69.938,0H68.492V-12h1.445Zm7.531,0a3.036,3.036,0,0,1-.2-.891A3.225,3.225,0,0,1,74.859.156a2.984,2.984,0,0,1-2.051-.707,2.288,2.288,0,0,1-.8-1.793,2.39,2.39,0,0,1,1-2.051,4.733,4.733,0,0,1,2.824-.73h1.406v-.664A1.623,1.623,0,0,0,76.789-7a1.821,1.821,0,0,0-1.336-.449,2.108,2.108,0,0,0-1.3.391,1.151,1.151,0,0,0-.523.945H72.18a2,2,0,0,1,.449-1.223,3.066,3.066,0,0,1,1.219-.934,4.1,4.1,0,0,1,1.691-.344,3.342,3.342,0,0,1,2.289.73,2.635,2.635,0,0,1,.859,2.012v3.891a4.757,4.757,0,0,0,.3,1.852V0Zm-2.4-1.1a2.54,2.54,0,0,0,1.289-.352,2.127,2.127,0,0,0,.883-.914V-4.1H76.109q-2.656,0-2.656,1.555a1.316,1.316,0,0,0,.453,1.063A1.742,1.742,0,0,0,75.07-1.1ZM90.133,0a3.036,3.036,0,0,1-.2-.891A3.225,3.225,0,0,1,87.523.156a2.984,2.984,0,0,1-2.051-.707,2.288,2.288,0,0,1-.8-1.793,2.39,2.39,0,0,1,1-2.051,4.733,4.733,0,0,1,2.824-.73h1.406v-.664A1.623,1.623,0,0,0,89.453-7a1.821,1.821,0,0,0-1.336-.449,2.108,2.108,0,0,0-1.3.391,1.151,1.151,0,0,0-.523.945H84.844a2,2,0,0,1,.449-1.223,3.066,3.066,0,0,1,1.219-.934A4.1,4.1,0,0,1,88.2-8.609a3.342,3.342,0,0,1,2.289.73,2.635,2.635,0,0,1,.859,2.012v3.891a4.757,4.757,0,0,0,.3,1.852V0Zm-2.4-1.1a2.54,2.54,0,0,0,1.289-.352,2.127,2.127,0,0,0,.883-.914V-4.1H88.773q-2.656,0-2.656,1.555a1.316,1.316,0,0,0,.453,1.063A1.742,1.742,0,0,0,87.734-1.1Zm9.273.078a2.082,2.082,0,0,0,1.352-.469A1.649,1.649,0,0,0,99-2.664h1.367a2.621,2.621,0,0,1-.5,1.383,3.293,3.293,0,0,1-1.23,1.047,3.55,3.55,0,0,1-1.629.391A3.482,3.482,0,0,1,94.262-1a4.59,4.59,0,0,1-1.02-3.152v-.242a5.089,5.089,0,0,1,.453-2.2A3.451,3.451,0,0,1,95-8.078a3.7,3.7,0,0,1,2-.531,3.39,3.39,0,0,1,2.363.852,3.043,3.043,0,0,1,1,2.211H99a1.992,1.992,0,0,0-.621-1.348A1.932,1.932,0,0,0,97-7.422a2.023,2.023,0,0,0-1.707.793,3.724,3.724,0,0,0-.605,2.293v.273a3.65,3.65,0,0,0,.6,2.25A2.033,2.033,0,0,0,97.008-1.023ZM105.5.156a3.693,3.693,0,0,1-2.8-1.129,4.19,4.19,0,0,1-1.078-3.02v-.266a5.073,5.073,0,0,1,.48-2.246,3.748,3.748,0,0,1,1.344-1.547,3.378,3.378,0,0,1,1.871-.559,3.166,3.166,0,0,1,2.563,1.086,4.7,4.7,0,0,1,.914,3.109v.6H103.07a3,3,0,0,0,.73,2.02,2.3,2.3,0,0,0,1.777.77,2.517,2.517,0,0,0,1.3-.312,3.259,3.259,0,0,0,.93-.828l.883.688A3.55,3.55,0,0,1,105.5.156Zm-.18-7.578a1.928,1.928,0,0,0-1.469.637A3.1,3.1,0,0,0,103.117-5h4.234v-.109a2.753,2.753,0,0,0-.594-1.707A1.815,1.815,0,0,0,105.32-7.422Zm9.234.266a4.331,4.331,0,0,0-.711-.055A1.9,1.9,0,0,0,111.914-6V0h-1.445V-8.453h1.406l.023.977a2.251,2.251,0,0,1,2.016-1.133,1.477,1.477,0,0,1,.641.109ZM120.789,0a3.036,3.036,0,0,1-.2-.891A3.225,3.225,0,0,1,118.18.156a2.984,2.984,0,0,1-2.051-.707,2.288,2.288,0,0,1-.8-1.793,2.39,2.39,0,0,1,1-2.051,4.733,4.733,0,0,1,2.824-.73h1.406v-.664A1.623,1.623,0,0,0,120.109-7a1.821,1.821,0,0,0-1.336-.449,2.108,2.108,0,0,0-1.3.391,1.151,1.151,0,0,0-.523.945H115.5a2,2,0,0,1,.449-1.223,3.066,3.066,0,0,1,1.219-.934,4.1,4.1,0,0,1,1.691-.344,3.342,3.342,0,0,1,2.289.73,2.635,2.635,0,0,1,.859,2.012v3.891a4.757,4.757,0,0,0,.3,1.852V0Zm-2.4-1.1a2.54,2.54,0,0,0,1.289-.352,2.127,2.127,0,0,0,.883-.914V-4.1H119.43q-2.656,0-2.656,1.555a1.316,1.316,0,0,0,.453,1.063A1.742,1.742,0,0,0,118.391-1.1Z" transform="translate(900.87 7976.929)" fill="#12263f"/>
    <path id="Trazado_729298" data-name="Trazado 729298" d="M0,0H820V277.471H0Z" transform="translate(390 7963.873)" fill="none" stroke="#12263f" stroke-width="1"/>
    <path id="Trazado_729299" data-name="Trazado 729299" d="M131.129,127.875,0,0" transform="translate(421.843 8047.54)" fill="none" stroke="#12263f" stroke-width="1.239"/>
    <path id="Trazado_729300" data-name="Trazado 729300" d="M9.688-3.609A4.185,4.185,0,0,1,8.355-.824a4.365,4.365,0,0,1-2.98.98,4.008,4.008,0,0,1-3.23-1.445A5.815,5.815,0,0,1,.93-5.156V-6.25A6.481,6.481,0,0,1,1.5-9.039,4.231,4.231,0,0,1,3.1-10.887a4.47,4.47,0,0,1,2.406-.645A4.11,4.11,0,0,1,8.414-10.52a4.235,4.235,0,0,1,1.273,2.8H8.18a3.268,3.268,0,0,0-.848-1.975A2.565,2.565,0,0,0,5.508-10.3,2.684,2.684,0,0,0,3.254-9.241a4.882,4.882,0,0,0-.816,3.026v1.1a5.018,5.018,0,0,0,.773,2.948A2.5,2.5,0,0,0,5.375-1.07a2.887,2.887,0,0,0,1.918-.566A3.143,3.143,0,0,0,8.18-3.609ZM16.727-.836A3.07,3.07,0,0,1,14.25.156a2.628,2.628,0,0,1-2.059-.785,3.4,3.4,0,0,1-.715-2.324v-5.5h1.445v5.461q0,1.922,1.563,1.922a2.163,2.163,0,0,0,2.2-1.234V-8.453h1.445V0H16.758ZM21.7-8.453l.047,1.063a3.08,3.08,0,0,1,2.531-1.219q2.68,0,2.7,3.023V0H25.531V-5.594a1.946,1.946,0,0,0-.418-1.352,1.675,1.675,0,0,0-1.277-.437,2.086,2.086,0,0,0-1.234.375,2.546,2.546,0,0,0-.828.984V0H20.328V-8.453ZM32.664.156a3.693,3.693,0,0,1-2.8-1.129,4.19,4.19,0,0,1-1.078-3.02v-.266A5.073,5.073,0,0,1,29.27-6.5a3.748,3.748,0,0,1,1.344-1.547,3.378,3.378,0,0,1,1.871-.559,3.166,3.166,0,0,1,2.563,1.086,4.7,4.7,0,0,1,.914,3.109v.6H30.234a3,3,0,0,0,.73,2.02,2.3,2.3,0,0,0,1.777.77,2.517,2.517,0,0,0,1.3-.312,3.259,3.259,0,0,0,.93-.828l.883.688A3.55,3.55,0,0,1,32.664.156Zm-.18-7.578a1.928,1.928,0,0,0-1.469.637A3.1,3.1,0,0,0,30.281-5h4.234v-.109a2.753,2.753,0,0,0-.594-1.707A1.815,1.815,0,0,0,32.484-7.422ZM39.594-10.5v2.047h1.578v1.117H39.594v5.249a1.173,1.173,0,0,0,.211.763.888.888,0,0,0,.719.254,3.5,3.5,0,0,0,.688-.094V0A4.215,4.215,0,0,1,40.1.156,1.8,1.8,0,0,1,38.641-.43a2.517,2.517,0,0,1-.492-1.664V-7.336H36.609V-8.453h1.539V-10.5ZM48.078,0a3.036,3.036,0,0,1-.2-.891A3.225,3.225,0,0,1,45.469.156a2.984,2.984,0,0,1-2.051-.707,2.287,2.287,0,0,1-.8-1.793,2.39,2.39,0,0,1,1-2.051,4.733,4.733,0,0,1,2.824-.73h1.406v-.664A1.623,1.623,0,0,0,47.4-7a1.821,1.821,0,0,0-1.336-.449,2.107,2.107,0,0,0-1.3.391,1.151,1.151,0,0,0-.523.945H42.789a2,2,0,0,1,.449-1.223,3.066,3.066,0,0,1,1.219-.934,4.1,4.1,0,0,1,1.691-.344,3.342,3.342,0,0,1,2.289.73A2.635,2.635,0,0,1,49.3-5.867v3.891a4.757,4.757,0,0,0,.3,1.852V0Zm-2.4-1.1a2.54,2.54,0,0,0,1.289-.352,2.127,2.127,0,0,0,.883-.914V-4.1H46.719q-2.656,0-2.656,1.555a1.316,1.316,0,0,0,.453,1.063A1.742,1.742,0,0,0,45.68-1.1Z" transform="translate(390.001 8031.561)" fill="#12263f"/>
    <path id="Trazado_729301" data-name="Trazado 729301" d="M0,0H820V277.471H0Z" transform="translate(390 7963.873)" fill="none" stroke="#12263f" stroke-width="1"/>
  </g>
</svg>
