<svg xmlns="http://www.w3.org/2000/svg" width="86" height="86" viewBox="0 0 86 86">
  <g id="Grupo_1029970" data-name="Grupo 1029970" transform="translate(-180 -8384)">
    <circle id="resina-cloruro-polivinilo-resina-pvc-pvc-plastificado-utilizado-industria-general-polvo-plastico-fotografia-macro" cx="43" cy="43" r="43" transform="translate(180 8384)" fill="#115089"/>
    <g id="Grupo_1029758" data-name="Grupo 1029758" transform="translate(148.069 8389.233)">
      <g id="Grupo_1029755" data-name="Grupo 1029755" transform="translate(63.656 0)">
        <g id="Grupo_1029754" data-name="Grupo 1029754" transform="translate(0 0)">
          <circle id="Elipse_8619" data-name="Elipse 8619" cx="6.294" cy="6.294" r="6.294" fill="#fff"/>
        </g>
      </g>
      <g id="Grupo_1029757" data-name="Grupo 1029757" transform="translate(45.508 12.108)">
        <g id="Grupo_1029756" data-name="Grupo 1029756">
          <path id="Trazado_728949" data-name="Trazado 728949" d="M101.522,146.107l-1.384-4.359a1.673,1.673,0,0,0,.963-1.771,1.7,1.7,0,0,0-1.7-1.425H93.262L78.62,114.385a2.849,2.849,0,0,0-1.263-4.733l-9.489-2.689L64.556,96.637l4.973,7.835,1.988-4.846A4.251,4.251,0,0,0,69.2,94.08L62.183,91.2c-1.441-.591-2.856-.062-4.177.542-3.234,1.479-10.8,4.932-10.8,4.932a2.85,2.85,0,0,0-1.039,4.44l4.932,5.894-2,4.886a5.29,5.29,0,0,0,.18,4.4l6.387,12.552-4.673,13.755a3.321,3.321,0,1,0,6.289,2.137l5.125-15.082a3.322,3.322,0,0,0-.185-2.577l-4.96-9.732.959.362,5.8,10.852-1.6,14.75a3.321,3.321,0,1,0,6.6.718l1.72-15.82a3.321,3.321,0,0,0-.416-2l-5.65-9.911.541-1.319-1.121-.318a5.449,5.449,0,0,1-3.92-4.288l-.929-11.62,3.658,11.4a2.851,2.851,0,0,0,1.938,1.872l10.189,2.887,14.317,23.633h-4.1a1.708,1.708,0,0,0-1.714,1.472,1.672,1.672,0,0,0,.929,1.7H84.4l-1.39,4.378a.686.686,0,0,0,.653.893H96.534v-3.263l1,3.263h3.339a.686.686,0,0,0,.653-.893ZM53.55,101.048l-.6-.722,1.107-.506Z" transform="translate(-45.508 -90.945)" fill="#fff"/>
        </g>
      </g>
    </g>
  </g>
</svg>
