<svg id="Grupo_1026452" data-name="Grupo 1026452" xmlns="http://www.w3.org/2000/svg" xmlns:xlink="http://www.w3.org/1999/xlink" width="341.901" height="339.475" viewBox="0 0 341.901 339.475">
  <defs>
    <clipPath id="clip-path">
      <rect id="Rectángulo_350115" data-name="Rectángulo 350115" width="341.901" height="339.474" fill="none"/>
    </clipPath>
    <clipPath id="clip-path-2">
      <path id="Trazado_726936" data-name="Trazado 726936" d="M155.834,1.363c-1.087.115-2.328.239-3.991.456C83.836,10.709,41.274,73.8,36.22,81.521-6.406,146.649-9.12,251.785,46.665,302.184c24.55,22.18,53.123,26.624,86.973,32.924,20.98,3.9,88.84,15.329,148.2-24.309a130.522,130.522,0,0,0,22.922-18.606c52.806-54.43,52.674-153.748,11.152-217.875a158.582,158.582,0,0,0-31.211-35.412C244.973,5.618,198.522.5,173.2.5a164.085,164.085,0,0,0-17.364.867" transform="translate(-4.481 -0.496)" fill="none"/>
    </clipPath>
    <linearGradient id="linear-gradient" x1="0.148" y1="0.835" x2="0.149" y2="0.835" gradientUnits="objectBoundingBox">
      <stop offset="0" stop-color="#dae3fe"/>
      <stop offset="1" stop-color="#e9effd"/>
    </linearGradient>
    <clipPath id="clip-path-3">
      <rect id="Rectángulo_350078" data-name="Rectángulo 350078" width="341.901" height="339.474" fill="#a6d6d6"/>
    </clipPath>
    <clipPath id="clip-path-4">
      <rect id="Rectángulo_350076" data-name="Rectángulo 350076" width="63.732" height="224.167" fill="none"/>
    </clipPath>
    <clipPath id="clip-path-5">
      <rect id="Rectángulo_350077" data-name="Rectángulo 350077" width="53.23" height="157.373" fill="none"/>
    </clipPath>
    <clipPath id="clip-path-6">
      <path id="Trazado_726944" data-name="Trazado 726944" d="M759.956,471.094l60.885,166.3L655.217,659.986ZM644.6,667.248,828.714,642.14,761.032,457.273Z" transform="translate(-644.602 -457.273)" fill="#ffa031"/>
    </clipPath>
    <clipPath id="clip-path-8">
      <path id="Trazado_726946" data-name="Trazado 726946" d="M1576.2,1419.964a53.764,53.764,0,1,1,8.836.728,53.819,53.819,0,0,1-8.836-.728m1.915-127.191-2.824,6.778a6.073,6.073,0,0,1-4.324,3.581,64.832,64.832,0,0,0-13.988,4.8,6.077,6.077,0,0,1-5.619-.175l-6.392-3.627a7.263,7.263,0,0,0-8.386.869l-6.937,6.117a7.261,7.261,0,0,0-1.912,8.21l2.8,6.8a6.076,6.076,0,0,1-.529,5.6,64.824,64.824,0,0,0-6.51,13.278,6.071,6.071,0,0,1-4.093,3.842l-7.078,1.954a7.261,7.261,0,0,0-5.315,6.544l-.58,9.23a7.261,7.261,0,0,0,4.454,7.158l6.778,2.824a6.072,6.072,0,0,1,3.58,4.324,64.834,64.834,0,0,0,4.8,13.989,6.075,6.075,0,0,1-.175,5.618l-3.627,6.393a7.26,7.26,0,0,0,.869,8.385l6.116,6.937a7.261,7.261,0,0,0,8.211,1.912l6.8-2.8a6.077,6.077,0,0,1,5.6.53,64.833,64.833,0,0,0,13.278,6.51,6.073,6.073,0,0,1,3.842,4.093l1.954,7.078a7.261,7.261,0,0,0,6.544,5.315l9.23.58a7.261,7.261,0,0,0,7.158-4.454l2.824-6.777a6.072,6.072,0,0,1,4.324-3.58,64.826,64.826,0,0,0,13.989-4.8,6.076,6.076,0,0,1,5.618.175l6.393,3.627a7.261,7.261,0,0,0,8.385-.869l6.937-6.117a7.262,7.262,0,0,0,1.912-8.211l-2.8-6.8a6.077,6.077,0,0,1,.53-5.6,64.83,64.83,0,0,0,6.51-13.278,6.072,6.072,0,0,1,4.093-3.842l7.078-1.954a7.261,7.261,0,0,0,5.315-6.544l.58-9.231a7.261,7.261,0,0,0-4.454-7.157l-6.778-2.824a6.072,6.072,0,0,1-3.58-4.324,64.813,64.813,0,0,0-4.8-13.989,6.078,6.078,0,0,1,.175-5.619l3.627-6.392a7.261,7.261,0,0,0-.869-8.385l-6.116-6.937a7.262,7.262,0,0,0-8.211-1.912l-6.8,2.8a6.077,6.077,0,0,1-5.6-.53,64.812,64.812,0,0,0-13.278-6.51,6.07,6.07,0,0,1-3.842-4.093l-1.954-7.078a7.261,7.261,0,0,0-6.544-5.315l-9.231-.58c-.153-.01-.306-.014-.458-.014a7.258,7.258,0,0,0-6.7,4.468" transform="translate(-1506.415 -1288.305)" fill="#cc8027"/>
    </clipPath>
    <clipPath id="clip-path-9">
      <path id="Trazado_726947" data-name="Trazado 726947" d="M1627.083,1693.592c-4.052,10.869,8.562,14.2,8.562,14.2s-7.864,21.744,9.641,33.806,29.781.376,29.781.376l5.273-28.894s-14.734,25.521-28.291,19.028-11.726-17.945-10.626-26.567a5.569,5.569,0,0,0-1.966-6.071,5.792,5.792,0,0,1-2.339-3.465s-1.906,2.859-.433,4.591a2.036,2.036,0,0,1,.479,1.8c-.194-.067-.4-.132-.606-.194-4.192-1.245-6.7-5.921-7.84-8.638a.879.879,0,0,0-1.634.031" transform="translate(-1626.281 -1693.021)" fill="none"/>
    </clipPath>
    <linearGradient id="linear-gradient-2" x1="-2.214" y1="1.724" x2="-2.213" y2="1.724" gradientUnits="objectBoundingBox">
      <stop offset="0" stop-color="#febbba"/>
      <stop offset="1" stop-color="#ff928e"/>
    </linearGradient>
    <clipPath id="clip-path-10">
      <path id="Trazado_726948" data-name="Trazado 726948" d="M2042.048,1405.056c-19.214-1.968-13.531,13.876-13.531,13.876s11.656,3.58,1.778,18.933,2.088,21.108,2.088,21.108c1.637,16.868,25.038,10.732,25.038,10.732,9.386,7.091,22.95.591,24.9-6.456a7.316,7.316,0,0,0-4.325-9.27c7.015-3.1,12.916-12.345,3.438-26.613s-26-5.378-26-5.378c3.346-7.941-2.98-11.056-2.98-11.056-.95-5.256-4.708-6.257-7.438-6.257a11.637,11.637,0,0,0-2.975.381" transform="translate(-2026.387 -1404.675)" fill="#1c466d"/>
    </clipPath>
    <clipPath id="clip-path-11">
      <path id="Trazado_726949" data-name="Trazado 726949" d="M1995.723,1815.755a3.907,3.907,0,0,0-1.9,1.81c-2.69,5.313-13.209,27.225-7.248,33.948,6.665,7.517,13.322,23.277,16.012,30.076a56.737,56.737,0,0,0,13.985-1.172c3.567-.756,6.9-1.462,10.016-2.229-7.16-13.05-3.786-42.725-2.334-53.018a6.485,6.485,0,0,0-2.66-6.179,26.776,26.776,0,0,0-15.782-5.323,25.363,25.363,0,0,0-10.088,2.087" transform="translate(-1984.773 -1813.668)" fill="#115089"/>
    </clipPath>
    <clipPath id="clip-path-12">
      <path id="Trazado_726950" data-name="Trazado 726950" d="M2079.46,1656.516c1.229,2.7,3.806,18.3,3.806,18.3a11.961,11.961,0,0,0,12.152.421c-1.288-6.872-8.81-21.869-8.81-21.869Z" transform="translate(-2079.46 -1653.365)" fill="none"/>
    </clipPath>
    <linearGradient id="linear-gradient-3" x1="-8.557" y1="5.971" x2="-8.553" y2="5.971" xlink:href="#linear-gradient-2"/>
    <clipPath id="clip-path-13">
      <path id="Trazado_726951" data-name="Trazado 726951" d="M2008.8,1481.5s-11.96,22.135-2.543,26.944,17.934-10.924,17.934-10.924,1.97-11.54-2.026-14.868c-1.731-1.442-4.471-1.85-7.021-1.851a31.628,31.628,0,0,0-6.345.7" transform="translate(-2002.641 -1480.8)" fill="none"/>
    </clipPath>
    <linearGradient id="linear-gradient-4" x1="-5.542" y1="3.796" x2="-5.539" y2="3.796" xlink:href="#linear-gradient-2"/>
    <clipPath id="clip-path-14">
      <path id="Trazado_726952" data-name="Trazado 726952" d="M2052.317,1434.717s-6.468,2.418-7.023,5.552,10.186,4.625,13.114,4.4l3.876,11.878s5.494-12.323,1.916-18.592a8.019,8.019,0,0,0-7.406-3.969,14.5,14.5,0,0,0-4.476.734" transform="translate(-2045.273 -1433.983)" fill="#1c466d"/>
    </clipPath>
    <clipPath id="clip-path-15">
      <path id="Trazado_726953" data-name="Trazado 726953" d="M2154.113,1576.03l.663,3.062c2.8,1.775,9.73-2.349,6.947-6.332a2.412,2.412,0,0,0-2.014-1.195c-2.624,0-5.6,4.465-5.6,4.465" transform="translate(-2154.113 -1571.566)" fill="none"/>
    </clipPath>
    <linearGradient id="linear-gradient-5" x1="-19.074" y1="11.132" x2="-19.065" y2="11.132" xlink:href="#linear-gradient-2"/>
    <clipPath id="clip-path-16">
      <path id="Trazado_726954" data-name="Trazado 726954" d="M2236.258,1879.437a9.168,9.168,0,0,0,3.108,3.28c22.192,14.2,18.712,25.838,11.286,30.395-4.819,2.957-5.761,2.106-7.246,1.255a5.748,5.748,0,0,0-4.015-.735c-5.717.693-9.009,10.915-4.331,8.662,3.98-1.917,7.97.75,9.071,1.587a60.749,60.749,0,0,0,13.869-4.849c6.878-3.9,13.1-10.368,9.531-20.44-6.93-19.577-26.508-32.08-26.508-32.08a8.953,8.953,0,0,0-3.446-.816c-4.738,0-5.573,6.012-1.319,13.741" transform="translate(-2232.833 -1865.696)" fill="none"/>
    </clipPath>
    <linearGradient id="linear-gradient-6" x1="-3.698" y1="1.648" x2="-3.697" y2="1.648" xlink:href="#linear-gradient-2"/>
    <clipPath id="clip-path-18">
      <path id="Trazado_726956" data-name="Trazado 726956" d="M238.594,1582.03a55.58,55.58,0,1,1,9.134.752,55.637,55.637,0,0,1-9.134-.752m1.979-131.486-2.92,7.007a6.277,6.277,0,0,1-4.47,3.7,67.023,67.023,0,0,0-14.461,4.958,6.282,6.282,0,0,1-5.808-.181l-6.608-3.749a7.507,7.507,0,0,0-8.669.9l-7.171,6.323a7.507,7.507,0,0,0-1.976,8.488l2.893,7.026a6.282,6.282,0,0,1-.547,5.785,67.023,67.023,0,0,0-6.729,13.726,6.275,6.275,0,0,1-4.231,3.971l-7.317,2.02a7.507,7.507,0,0,0-5.494,6.765l-.6,9.542a7.506,7.506,0,0,0,4.6,7.4l7.006,2.92a6.276,6.276,0,0,1,3.7,4.47,67.012,67.012,0,0,0,4.959,14.461,6.281,6.281,0,0,1-.181,5.808l-3.75,6.609a7.507,7.507,0,0,0,.9,8.669l6.323,7.171a7.506,7.506,0,0,0,8.488,1.977l7.026-2.893a6.282,6.282,0,0,1,5.785.547,67.016,67.016,0,0,0,13.727,6.729,6.277,6.277,0,0,1,3.971,4.232l2.02,7.317a7.507,7.507,0,0,0,6.765,5.494l9.542.6a7.507,7.507,0,0,0,7.4-4.6l2.92-7.006a6.277,6.277,0,0,1,4.47-3.7,66.987,66.987,0,0,0,14.46-4.959,6.283,6.283,0,0,1,5.809.181l6.608,3.75a7.506,7.506,0,0,0,8.669-.9l7.171-6.323a7.507,7.507,0,0,0,1.977-8.488l-2.893-7.026a6.281,6.281,0,0,1,.547-5.785,67.032,67.032,0,0,0,6.729-13.727,6.276,6.276,0,0,1,4.231-3.971l7.317-2.02a7.506,7.506,0,0,0,5.494-6.765l.6-9.542a7.506,7.506,0,0,0-4.6-7.4l-7.007-2.919a6.277,6.277,0,0,1-3.7-4.47,67.018,67.018,0,0,0-4.959-14.461,6.282,6.282,0,0,1,.181-5.808l3.749-6.608a7.507,7.507,0,0,0-.9-8.669l-6.323-7.171a7.506,7.506,0,0,0-8.488-1.976l-7.026,2.893a6.282,6.282,0,0,1-5.785-.548,67.012,67.012,0,0,0-13.726-6.729,6.276,6.276,0,0,1-3.971-4.232l-2.02-7.317a7.507,7.507,0,0,0-6.765-5.494l-9.542-.6q-.238-.015-.473-.015a7.506,7.506,0,0,0-6.926,4.619" transform="translate(-166.449 -1445.925)" fill="#ffa031"/>
    </clipPath>
    <clipPath id="clip-path-19">
      <path id="Trazado_726957" data-name="Trazado 726957" d="M1081.288,2364.385a12.541,12.541,0,0,0,3.057.114c10.391-.938,12.466-11.3,12.466-11.3l-2.066-4.683c-4.551,2.355-8.44,1.359-11.679-1.25-3.02,3.383-6.6,9.6-1.777,17.115" transform="translate(-1078.929 -2347.27)" fill="none"/>
    </clipPath>
    <linearGradient id="linear-gradient-7" x1="-6.374" y1="3.005" x2="-6.368" y2="3.005" gradientUnits="objectBoundingBox">
      <stop offset="0" stop-color="#a22b25"/>
      <stop offset="1" stop-color="#c0423c"/>
    </linearGradient>
    <clipPath id="clip-path-20">
      <path id="Trazado_726958" data-name="Trazado 726958" d="M972.973,2190.657s6.929,9.051,15.332,10.355c-4.818-7.512-1.243-13.732,1.777-17.115-7.936-6.394-11.953-22.489-12.148-22.8Z" transform="translate(-972.973 -2161.101)" fill="none"/>
    </clipPath>
    <linearGradient id="linear-gradient-8" x1="-2.443" y1="2.183" x2="-2.44" y2="2.183" gradientUnits="objectBoundingBox">
      <stop offset="0" stop-color="#4f52ff"/>
      <stop offset="1" stop-color="#4042e2"/>
    </linearGradient>
    <clipPath id="clip-path-21">
      <path id="Trazado_726959" data-name="Trazado 726959" d="M639.26,2012.29l-2.791,59.459a65.44,65.44,0,0,0,12.831,3.694c6.985.246,15.473.375,21.963-.059.36-.069.718-.142,1.077-.217,2.137-.453,4.3-.882,6.469-1.309,1.431-3.808,8.733-27.074,10.207-41.416.948-9.231-5.422-22.515-7.886-22.868a102.15,102.15,0,0,0-14.475-1.02,95.064,95.064,0,0,0-27.4,3.736" transform="translate(-636.469 -2008.554)" fill="#115089"/>
    </clipPath>
    <clipPath id="clip-path-22">
      <path id="Trazado_726960" data-name="Trazado 726960" d="M806.389,1822.6l1.019,15.837a3.437,3.437,0,0,0,2.385,3.118c3.079.912,8.894,2.01,14.594-.286a2.268,2.268,0,0,0,1.228-2.782l-7.54-24.216Z" transform="translate(-806.389 -1814.269)" fill="none"/>
    </clipPath>
    <linearGradient id="linear-gradient-9" x1="-4.925" y1="3.971" x2="-4.919" y2="3.971" xlink:href="#linear-gradient-7"/>
    <clipPath id="clip-path-23">
      <path id="Trazado_726961" data-name="Trazado 726961" d="M767.378,1697.1c.317,3.792,8.019,10.363,8.019,10.363,4.95,4.282,11.433,5.353,17.269,1.832s3.3-6.58.9-11.875-10.9-13.865-10.9-13.865-15.609,9.753-15.292,13.546" transform="translate(-767.373 -1683.551)" fill="none"/>
    </clipPath>
    <linearGradient id="linear-gradient-10" x1="-2.11" y1="3.295" x2="-2.107" y2="3.295" xlink:href="#linear-gradient-7"/>
    <clipPath id="clip-path-24">
      <path id="Trazado_726962" data-name="Trazado 726962" d="M719.406,1586.179l-.069.595a.456.456,0,0,1-.815.224.454.454,0,0,0-.807.179c-.282,1.495-1.551,4.241-6.6,7.359-7.169,4.424-11.061,9.532-9.113,14.918a.456.456,0,0,1-.523.6c-.705-.126-1.681.065-2.5,1.564-1.428,2.606,1.236,6.895,7.361,8.894a.453.453,0,0,1,.244.689c-.629.876-1.379,2.669,2.552,3.145,4.021.487,5.916-.473,6.586-.951a.456.456,0,0,0,.151-.565l-2.129-4.616a.456.456,0,0,1,.249-.616l1.687-.655.791-.308s-5.857-5.42-3.449-7.708,12.856-9.008,13.741-13.984c.853-4.8-3.2-8.994-6.893-9.174h-.02a.453.453,0,0,0-.439.406" transform="translate(-698.596 -1585.773)" fill="#1c466d"/>
    </clipPath>
    <clipPath id="clip-path-25">
      <path id="Trazado_726963" data-name="Trazado 726963" d="M786.408,1817.854c-2.236,2.994,4.4,6.786,6.869,6.11l-.362-3.182s-2.721-3.774-4.957-3.774a1.876,1.876,0,0,0-1.55.845" transform="translate(-785.954 -1817.009)" fill="none"/>
    </clipPath>
    <linearGradient id="linear-gradient-11" x1="-8.154" y1="10.071" x2="-8.143" y2="10.071" xlink:href="#linear-gradient-7"/>
    <clipPath id="clip-path-26">
      <path id="Trazado_726964" data-name="Trazado 726964" d="M505.064,2088.843q.211.744.471,1.443,1.527,1.134,3.125,2.181c2.365-6.082,10.311-7.532,14.544-7.867-.989-6.984,6.243-17.25,9.235-21.145a6.473,6.473,0,0,0,1.347-3.881c.087-9.891-4.066-16.243-10.72-20.508,0,0-24.151,28.136-18,49.778" transform="translate(-504.061 -2039.065)" fill="#115089"/>
    </clipPath>
    <clipPath id="clip-path-27">
      <path id="Trazado_726966" data-name="Trazado 726966" d="M277.935,1509.051c-32.84,6.964-73.076,30.968-66.111,63.808,2.014,9.5,19.494,33.068,25.141,40.191,13.883,17.512,38.685,27.612,62.029,22.662,18.188-3.857,38.321-5.908,46.5-21.085,6.589-12.229,12.068-42.585,8.96-57.238-6.106-28.793-35.081-49.609-64.264-49.608a59.081,59.081,0,0,0-12.257,1.27" transform="translate(-211.03 -1507.781)" fill="none"/>
    </clipPath>
    <clipPath id="clip-path-28">
      <path id="Trazado_726967" data-name="Trazado 726967" d="M541.614,2418.8a64.611,64.611,0,0,0,39.884,10.562v-4.554s-22.815-4.239-25.15-12.907a8.112,8.112,0,0,1-.19-.967c-4.233.335-12.179,1.784-14.544,7.867" transform="translate(-541.614 -2410.934)" fill="none"/>
    </clipPath>
    <linearGradient id="linear-gradient-12" x1="-1.451" y1="1.565" x2="-1.448" y2="1.565" xlink:href="#linear-gradient-7"/>
    <clipPath id="clip-path-29">
      <path id="Trazado_726968" data-name="Trazado 726968" d="M845.435,2513.243a58.078,58.078,0,0,0,10.283-1.23c2.366-.5,4.765-.973,7.166-1.447a19.794,19.794,0,0,0-5.508-3.178,11.758,11.758,0,0,0-4.519-1.032c-5.158,0-6.919,4.9-7.421,6.888" transform="translate(-845.435 -2506.356)" fill="none"/>
    </clipPath>
    <linearGradient id="linear-gradient-13" x1="-5.484" y1="2.806" x2="-5.478" y2="2.806" xlink:href="#linear-gradient-7"/>
    <clipPath id="clip-path-31">
      <rect id="Rectángulo_350102" data-name="Rectángulo 350102" width="20.756" height="13.086" fill="none"/>
    </clipPath>
    <clipPath id="clip-path-32">
      <path id="Trazado_726975" data-name="Trazado 726975" d="M1182.67,2281.855c-2.815,1.985,1.777,13.953,3.43,15.122s7.3-8.117,4-14.453a10.547,10.547,0,0,0-4.774-1.448,4.516,4.516,0,0,0-2.654.779" transform="translate(-1181.777 -2281.076)" fill="none"/>
    </clipPath>
    <linearGradient id="linear-gradient-14" x1="-10.538" y1="3.524" x2="-10.529" y2="3.524" xlink:href="#linear-gradient-7"/>
    <clipPath id="clip-path-34">
      <path id="Trazado_726978" data-name="Trazado 726978" d="M1451.326,578.1c22.913,36.847,67.642,28.112,67.642,28.112l-1.73-4.881c-32.459-2.964-55.115-43.933-55.115-43.933Z" transform="translate(-1451.326 -557.394)" fill="#ffa031"/>
    </clipPath>
    <clipPath id="clip-path-35">
      <path id="Trazado_726979" data-name="Trazado 726979" d="M1994.106,889.276c-1.431.979-5.3,1.567-9.122,1.425q-.179-.007-.347,0a3.139,3.139,0,0,0-2.693,4.547l.413.837a4.189,4.189,0,0,0,2.2,2.047c10.606,4.21,18.123,1.221,21.645-1.769,2.829-2.4,3.078-4.8.277-3.472-6.45,3.065-14.459-.056-14.459-.056,3.619-1.577,3.932-2.661,3.537-3.3a.963.963,0,0,0-.832-.446,1.1,1.1,0,0,0-.619.191" transform="translate(-1981.615 -889.085)" fill="none"/>
    </clipPath>
    <linearGradient id="linear-gradient-15" x1="-8.206" y1="14.724" x2="-8.202" y2="14.724" xlink:href="#linear-gradient-2"/>
    <clipPath id="clip-path-36">
      <path id="Trazado_726980" data-name="Trazado 726980" d="M1165.36,520.387l2.056,52.764a39.644,39.644,0,0,0,6.96,8.446c6.441,1.1,17.667,1.9,30.828,2.14,4.506-13.725,16.7-55.322,2.957-66.187a116.166,116.166,0,0,0-16.669-1.162c-8.089,0-17.828.849-26.132,4" transform="translate(-1165.36 -516.389)" fill="#ffa031"/>
    </clipPath>
    <clipPath id="clip-path-37">
      <path id="Trazado_726981" data-name="Trazado 726981" d="M1291.158,337.079a2.9,2.9,0,0,0,.761,3.118c3.88,3.541,10.258,3.184,14.106,2.545a4.132,4.132,0,0,0,3.432-3.523c.82-6.148,4.039-13.967,4.039-13.967l-7.9-14.133c-4.527,2.856-12.837,21.485-14.435,25.96" transform="translate(-1290.986 -311.119)" fill="none"/>
    </clipPath>
    <linearGradient id="linear-gradient-16" x1="-6.945" y1="9.24" x2="-6.939" y2="9.24" xlink:href="#linear-gradient-2"/>
    <clipPath id="clip-path-38">
      <path id="Trazado_726982" data-name="Trazado 726982" d="M1109.633,907.489a22.539,22.539,0,0,0,10.043,6.178c1.109.242,2.314.489,3.627.749,10.79,1.363,20.769-4.622,20.769-4.622l10.716-1.716s-6.7-7.866-11.53-7.662-8.593,6.461-8.593,6.461-13.159-.93-13.091-10.661c0-.033,0-.068,0-.1-3.568.326-9.469,2.308-11.945,11.376" transform="translate(-1109.633 -896.113)" fill="none"/>
    </clipPath>
    <linearGradient id="linear-gradient-17" x1="-3.009" y1="11.682" x2="-3.006" y2="11.682" xlink:href="#linear-gradient-2"/>
    <clipPath id="clip-path-39">
      <path id="Trazado_726983" data-name="Trazado 726983" d="M1059.7,601.835c.325.376.655.732.987,1.077,2.476-9.068,8.377-11.05,11.944-11.376.108-9.752,6.235-27.364,6.235-27.364s1.921-10.427-11.356-15.135c0,0-24.55,33.4-7.811,52.8" transform="translate(-1053.854 -549.038)" fill="#ffa031"/>
    </clipPath>
    <clipPath id="clip-path-40">
      <path id="Trazado_726984" data-name="Trazado 726984" d="M1208.5,686.522c-1.636,5.046-5.451,17.615-5.537,25.345a.517.517,0,0,0,.511.522h.006a.517.517,0,0,0,.516-.511c.084-7.588,3.865-20.037,5.487-25.038a.516.516,0,0,0-.332-.65.527.527,0,0,0-.161-.025.514.514,0,0,0-.49.357" transform="translate(-1202.963 -686.165)" fill="none"/>
    </clipPath>
    <linearGradient id="linear-gradient-18" x1="-10.74" y1="9.464" x2="-10.731" y2="9.464" gradientUnits="objectBoundingBox">
      <stop offset="0" stop-color="#e1473d"/>
      <stop offset="1" stop-color="#e9605a"/>
    </linearGradient>
    <clipPath id="clip-path-41">
      <path id="Trazado_726985" data-name="Trazado 726985" d="M1415.1,224.708l-4.83,24.184L1424,254.15s8.695-24.224,8.695-24.613c0-4.293-7.634-5.026-12.844-5.026-2.7,0-4.748.2-4.748.2" transform="translate(-1410.273 -224.511)" fill="none"/>
    </clipPath>
    <linearGradient id="linear-gradient-19" x1="-4.448" y1="8.81" x2="-4.445" y2="8.81" xlink:href="#linear-gradient-2"/>
    <clipPath id="clip-path-42">
      <path id="Trazado_726986" data-name="Trazado 726986" d="M1370.3,160.032c-2.883,1.286-2.957,3.9-2.582,5.735a1.822,1.822,0,0,1-1.478,2.167c-4.873.842-4.528,4.662-4.121,6.351a1.786,1.786,0,0,0,.842,1.13c1.3.753,4.238,2.755,4.164,5.378-.079,2.794-1.871,12.544-2.473,15.75a1.82,1.82,0,0,0,.644,1.747,58.607,58.607,0,0,0,11.769,6.922,1.814,1.814,0,0,0,2.333-.747,78.562,78.562,0,0,0,4.944-11.158,1.817,1.817,0,0,0-.937-2.26c-1.891-.89-4.864-.543-8.114-.109-3.582.478-3.836-3.039-3.834-4.061a1.785,1.785,0,0,1,.069-.49l3.54-12.532a1.8,1.8,0,0,1,1.032-1.176c1.6-.674,5.214-1.846,7.59.113,3.124,2.576,9.724,5.133,12,1.246,1.9-3.241,2.416-8.75-1.057-11.655q-1.838-.491-3.739-.894-1.408-.3-2.817-.542a5.84,5.84,0,0,0-2.714,2.26,1.791,1.791,0,0,1-2.621.4,1.439,1.439,0,0,0-1.613-.289,1.82,1.82,0,0,1-2.256-.6,7.928,7.928,0,0,0-3.346-2.865h-.12c-1.712,0-3.415.061-5.1.182" transform="translate(-1361.901 -159.85)" fill="#1c466d"/>
    </clipPath>
    <clipPath id="clip-path-43">
      <path id="Trazado_726987" data-name="Trazado 726987" d="M1357.95,289.578c.138,6.753,5.152,5.214,5.152,5.214s2.978-7.031.551-9.212a4.027,4.027,0,0,0-2.618-1.139c-1.7,0-3.158,1.543-3.084,5.137" transform="translate(-1357.947 -284.442)" fill="none"/>
    </clipPath>
    <linearGradient id="linear-gradient-20" x1="-11.46" y1="21.575" x2="-11.452" y2="21.575" xlink:href="#linear-gradient-2"/>
  </defs>
  <g id="Grupo_1026422" data-name="Grupo 1026422" clip-path="url(#clip-path)">
    <g id="Grupo_1026336" data-name="Grupo 1026336" transform="translate(0.549 0.061)">
      <g id="Grupo_1026335" data-name="Grupo 1026335" clip-path="url(#clip-path-2)">
        <rect id="Rectángulo_350071" data-name="Rectángulo 350071" width="484.267" height="490.73" transform="matrix(0.487, -0.873, 0.873, 0.487, -162.507, 266.851)" fill="url(#linear-gradient)"/>
      </g>
    </g>
    <g id="Grupo_1026344" data-name="Grupo 1026344" transform="translate(0 0)">
      <g id="Grupo_1026343" data-name="Grupo 1026343" clip-path="url(#clip-path-3)">
        <rect id="Rectángulo_350072" data-name="Rectángulo 350072" width="27.336" height="3.293" transform="translate(286.073 177.963) rotate(-66.307)" fill="#bdd0fb"/>
        <path id="Trazado_726937" data-name="Trazado 726937" d="M2229.684,786.042l.684,4.008a3.193,3.193,0,0,0,2.629,2.613l3.186.524a2.67,2.67,0,0,1,1.969,1.489,28.5,28.5,0,0,0,3.465,5.5,2.67,2.67,0,0,1,.493,2.422l-.907,3.1a3.194,3.194,0,0,0,1.219,3.5l3.318,2.351a3.193,3.193,0,0,0,3.707-.011l2.626-1.884a2.67,2.67,0,0,1,2.448-.339,28.52,28.52,0,0,0,6.34,1.445,2.668,2.668,0,0,1,2.057,1.364l1.551,2.832a3.194,3.194,0,0,0,3.337,1.613l4.009-.684a3.192,3.192,0,0,0,2.613-2.629l.524-3.186a2.67,2.67,0,0,1,1.489-1.969,28.521,28.521,0,0,0,5.5-3.465,2.671,2.671,0,0,1,2.422-.492l3.1.907a3.192,3.192,0,0,0,3.5-1.219l2.352-3.318a3.194,3.194,0,0,0-.012-3.707l-1.883-2.626a2.672,2.672,0,0,1-.339-2.448,28.5,28.5,0,0,0,1.445-6.34,2.669,2.669,0,0,1,1.364-2.057l2.832-1.551a3.192,3.192,0,0,0,1.613-3.337l-.684-4.009a3.193,3.193,0,0,0-2.629-2.613l-3.186-.524a2.671,2.671,0,0,1-1.969-1.489,28.5,28.5,0,0,0-3.465-5.5,2.672,2.672,0,0,1-.492-2.422l.906-3.1a3.192,3.192,0,0,0-1.219-3.5l-3.318-2.351a3.193,3.193,0,0,0-3.707.011l-2.625,1.884a2.673,2.673,0,0,1-2.449.339,28.5,28.5,0,0,0-6.339-1.445,2.669,2.669,0,0,1-2.058-1.364l-1.55-2.832a3.193,3.193,0,0,0-3.337-1.613l-4.008.684a3.192,3.192,0,0,0-2.614,2.629l-.524,3.186a2.671,2.671,0,0,1-1.489,1.969,28.494,28.494,0,0,0-5.5,3.465,2.671,2.671,0,0,1-2.422.492l-3.1-.907a3.193,3.193,0,0,0-3.5,1.219l-2.351,3.318a3.192,3.192,0,0,0,.011,3.707l1.884,2.626a2.672,2.672,0,0,1,.338,2.448,28.526,28.526,0,0,0-1.445,6.339,2.668,2.668,0,0,1-1.363,2.057L2231.3,782.7a3.194,3.194,0,0,0-1.614,3.337m10.717-2.185a23.664,23.664,0,1,1,25.219,22,23.664,23.664,0,0,1-25.219-22" transform="translate(-1956.624 -656.3)" fill="#a6d6d6"/>
        <rect id="Rectángulo_350073" data-name="Rectángulo 350073" width="3.292" height="44.68" transform="translate(285.165 54.856) rotate(-12.506)" fill="#bdd0fb"/>
        <rect id="Rectángulo_350074" data-name="Rectángulo 350074" width="32.197" height="3.292" transform="translate(234.83 42.416) rotate(-6.335)" fill="#bdd0fb"/>
        <path id="Trazado_726938" data-name="Trazado 726938" d="M2141.152,85.455l.505,2.963a2.361,2.361,0,0,0,1.943,1.931l2.355.387a1.972,1.972,0,0,1,1.454,1.1,21.108,21.108,0,0,0,2.562,4.066,1.975,1.975,0,0,1,.364,1.79l-.67,2.293a2.359,2.359,0,0,0,.9,2.587l2.453,1.738a2.36,2.36,0,0,0,2.74-.008l1.94-1.392a1.974,1.974,0,0,1,1.81-.25,21.067,21.067,0,0,0,4.686,1.068,1.975,1.975,0,0,1,1.521,1.008l1.146,2.093a2.36,2.36,0,0,0,2.467,1.193l2.962-.506a2.359,2.359,0,0,0,1.931-1.943l.388-2.354a1.972,1.972,0,0,1,1.1-1.455,21.068,21.068,0,0,0,4.066-2.561,1.976,1.976,0,0,1,1.791-.364l2.292.67a2.36,2.36,0,0,0,2.587-.9l1.737-2.452a2.358,2.358,0,0,0-.008-2.74l-1.392-1.941a1.973,1.973,0,0,1-.25-1.81,21.083,21.083,0,0,0,1.067-4.686,1.974,1.974,0,0,1,1.008-1.521l2.093-1.146a2.36,2.36,0,0,0,1.192-2.466l-.506-2.963a2.359,2.359,0,0,0-1.943-1.931l-2.354-.387a1.973,1.973,0,0,1-1.455-1.1,21.064,21.064,0,0,0-2.562-4.066,1.974,1.974,0,0,1-.364-1.79l.67-2.293a2.359,2.359,0,0,0-.9-2.587l-2.452-1.738a2.36,2.36,0,0,0-2.74.008l-1.941,1.392a1.974,1.974,0,0,1-1.809.25,21.063,21.063,0,0,0-4.686-1.068,1.974,1.974,0,0,1-1.52-1.008l-1.146-2.093a2.36,2.36,0,0,0-2.467-1.193l-2.962.505a2.36,2.36,0,0,0-1.932,1.943l-.387,2.355a1.972,1.972,0,0,1-1.1,1.455,21.067,21.067,0,0,0-4.066,2.561,1.975,1.975,0,0,1-1.79.364l-2.293-.67a2.36,2.36,0,0,0-2.587.9l-1.737,2.453a2.359,2.359,0,0,0,.008,2.74l1.393,1.941a1.974,1.974,0,0,1,.25,1.81,21.082,21.082,0,0,0-1.067,4.685,1.973,1.973,0,0,1-1.008,1.521l-2.093,1.146a2.361,2.361,0,0,0-1.192,2.466m7.921-1.615a17.49,17.49,0,1,1,18.64,16.261,17.491,17.491,0,0,1-18.64-16.261" transform="translate(-1878.943 -50.237)" fill="#a6d6d6"/>
        <rect id="Rectángulo_350075" data-name="Rectángulo 350075" width="3.293" height="41.638" transform="translate(87.292 51.38) rotate(-73.266)" fill="#bdd0fb"/>
        <path id="Trazado_726939" data-name="Trazado 726939" d="M105.008,27.164l-1.392,4.777a3.907,3.907,0,0,0,1.494,4.283l3.225,2.281a3.267,3.267,0,0,1,1.37,2.692,34.87,34.87,0,0,0,.869,7.909,3.269,3.269,0,0,1-.754,2.929l-2.658,2.928a3.907,3.907,0,0,0-.532,4.5l2.393,4.363a3.907,3.907,0,0,0,4.085,1.972l3.9-.668a3.269,3.269,0,0,1,2.875.938,34.894,34.894,0,0,0,6.2,4.983,3.267,3.267,0,0,1,1.534,2.6l.191,3.946a3.907,3.907,0,0,0,2.809,3.562l4.777,1.393a3.907,3.907,0,0,0,4.283-1.494l2.282-3.225a3.266,3.266,0,0,1,2.692-1.37,34.879,34.879,0,0,0,7.909-.869,3.27,3.27,0,0,1,2.929.754l2.928,2.658a3.906,3.906,0,0,0,4.5.532l4.363-2.393a3.907,3.907,0,0,0,1.972-4.085l-.668-3.9a3.269,3.269,0,0,1,.938-2.875,34.892,34.892,0,0,0,4.982-6.2,3.266,3.266,0,0,1,2.6-1.534l3.946-.191a3.907,3.907,0,0,0,3.561-2.809l1.393-4.777a3.907,3.907,0,0,0-1.494-4.282l-3.225-2.282a3.267,3.267,0,0,1-1.37-2.692,34.874,34.874,0,0,0-.869-7.909,3.27,3.27,0,0,1,.754-2.929l2.658-2.928a3.907,3.907,0,0,0,.532-4.5L180.6,18.887a3.907,3.907,0,0,0-4.085-1.972l-3.9.668a3.269,3.269,0,0,1-2.875-.938,34.876,34.876,0,0,0-6.2-4.983,3.267,3.267,0,0,1-1.534-2.6l-.191-3.946a3.907,3.907,0,0,0-2.809-3.562L154.231.161a3.906,3.906,0,0,0-4.282,1.494L147.667,4.88a3.266,3.266,0,0,1-2.692,1.37,34.882,34.882,0,0,0-7.909.869,3.27,3.27,0,0,1-2.929-.754l-2.928-2.658a3.907,3.907,0,0,0-4.5-.532l-4.363,2.393a3.907,3.907,0,0,0-1.971,4.085l.668,3.9a3.269,3.269,0,0,1-.938,2.876,34.891,34.891,0,0,0-4.983,6.2,3.266,3.266,0,0,1-2.6,1.534l-3.946.191a3.907,3.907,0,0,0-3.562,2.809m12.963,3.33A28.957,28.957,0,1,1,133.949,68.2a28.957,28.957,0,0,1-15.977-37.706" transform="translate(-90.791 -0.004)" fill="#a6d6d6"/>
        <path id="Trazado_726940" data-name="Trazado 726940" d="M436.467,404.225a1.981,1.981,0,0,1,3.208-1.981c14.859,12.616,50.956,50.817,45.951,120.986-6.279,88.038,13.548,119.054,37.212,137.394,0,0-31.618-7.6-52.845-39.016-52.117-77.137-25.076-184.316-33.526-217.384" transform="translate(-382.965 -352.571)" fill="#c1e4fa"/>
        <g id="Grupo_1026339" data-name="Grupo 1026339" transform="translate(65.657 77.811)" style="mix-blend-mode: soft-light;isolation: isolate">
          <g id="Grupo_1026338" data-name="Grupo 1026338">
            <g id="Grupo_1026337" data-name="Grupo 1026337" clip-path="url(#clip-path-4)">
              <path id="Trazado_726941" data-name="Trazado 726941" d="M536.22,636.107c2.263,9.652,4.335,19.344,6.049,29.1q2.648,14.615,4.4,29.359c1.124,9.828,2.064,19.675,2.583,29.547.564,9.87.7,19.752.81,29.675.161,9.917.266,19.907,1.4,29.918a100.576,100.576,0,0,0,7.534,29.3c1.022,2.317,2.09,4.624,3.283,6.844,1.153,2.244,2.4,4.438,3.7,6.608A104.284,104.284,0,0,0,596.932,859.3a1.916,1.916,0,0,0,2.225-3.12l-.006,0c-1.973-1.447-3.927-2.915-5.809-4.465-.953-.76-1.871-1.561-2.8-2.344-.9-.817-1.835-1.6-2.711-2.445a101.032,101.032,0,0,1-9.919-10.673,110.752,110.752,0,0,1-15.05-24.915,96.492,96.492,0,0,1-4.712-13.752,109.409,109.409,0,0,1-2.66-14.355c-1.17-9.713-1.357-19.6-1.589-29.515s-.56-19.88-1.283-29.815q-.523-7.452-1.313-14.88c-.249-2.477-.546-4.948-.838-7.42q-.474-3.7-1-7.4-2.125-14.778-5.158-29.393c-2.071-9.726-4.4-19.395-7.1-28.957a.514.514,0,0,0-1,.257" transform="translate(-536.206 -635.474)" fill="#fff"/>
            </g>
          </g>
        </g>
        <path id="Trazado_726942" data-name="Trazado 726942" d="M84.9,962.9a4.98,4.98,0,0,1-7.751,2.879C61.28,954.419,19.313,918.249,15.187,851,11.7,794.218,4.418,763.757.153,750.159a3.123,3.123,0,0,1,4.825-3.453C31.825,766.32,114.306,838.153,84.9,962.9" transform="translate(0 -654.733)" fill="#a6d6d6"/>
        <g id="Grupo_1026342" data-name="Grupo 1026342" transform="translate(27.407 151.701)" style="mix-blend-mode: soft-light;isolation: isolate">
          <g id="Grupo_1026341" data-name="Grupo 1026341">
            <g id="Grupo_1026340" data-name="Grupo 1026340" clip-path="url(#clip-path-5)">
              <path id="Trazado_726943" data-name="Trazado 726943" d="M276.57,1395.96a1.366,1.366,0,0,1-.22.152,1.381,1.381,0,0,1-1.879-.533c-.421-.755-42.224-76.4-50.635-155.136a1.381,1.381,0,1,1,2.747-.293c8.349,78.165,49.881,153.334,50.3,154.083a1.381,1.381,0,0,1-.313,1.727" transform="translate(-223.829 -1238.914)" fill="#fff"/>
            </g>
          </g>
        </g>
      </g>
    </g>
    <g id="Grupo_1026346" data-name="Grupo 1026346" transform="translate(78.93 55.992)">
      <g id="Grupo_1026345" data-name="Grupo 1026345" clip-path="url(#clip-path-6)">
        <rect id="Rectángulo_350079" data-name="Rectángulo 350079" width="184.112" height="209.975" transform="translate(0 0)" fill="#ffa031"/>
      </g>
    </g>
    <g id="Grupo_1026348" data-name="Grupo 1026348" transform="translate(0 0)">
      <g id="Grupo_1026347" data-name="Grupo 1026347" clip-path="url(#clip-path)">
        <path id="Trazado_726945" data-name="Trazado 726945" d="M1786.671,1485.891a61.469,61.469,0,1,1-61.469-61.469,61.469,61.469,0,0,1,61.469,61.469" transform="translate(-1460.013 -1250.005)" fill="#fff"/>
      </g>
    </g>
    <g id="Grupo_1026350" data-name="Grupo 1026350" transform="translate(184.457 157.75)">
      <g id="Grupo_1026349" data-name="Grupo 1026349" clip-path="url(#clip-path-8)">
        <rect id="Rectángulo_350081" data-name="Rectángulo 350081" width="219.306" height="219.35" transform="matrix(0.576, -0.817, 0.817, 0.576, -74.266, 105.048)" fill="#cc8027"/>
      </g>
    </g>
    <g id="Grupo_1026352" data-name="Grupo 1026352" transform="translate(199.135 207.307)">
      <g id="Grupo_1026351" data-name="Grupo 1026351" clip-path="url(#clip-path-9)">
        <rect id="Rectángulo_350082" data-name="Rectángulo 350082" width="82.725" height="83.207" transform="translate(-32.935 24.147) rotate(-39.126)" fill="url(#linear-gradient-2)"/>
      </g>
    </g>
    <g id="Grupo_1026354" data-name="Grupo 1026354" transform="translate(248.127 171.999)">
      <g id="Grupo_1026353" data-name="Grupo 1026353" clip-path="url(#clip-path-10)">
        <rect id="Rectángulo_350083" data-name="Rectángulo 350083" width="101.539" height="101.866" transform="translate(-42.44 29.96) rotate(-40.86)" fill="#1c466d"/>
      </g>
    </g>
    <g id="Grupo_1026356" data-name="Grupo 1026356" transform="translate(243.031 222.08)">
      <g id="Grupo_1026355" data-name="Grupo 1026355" clip-path="url(#clip-path-11)">
        <rect id="Rectángulo_350084" data-name="Rectángulo 350084" width="80.659" height="68.949" transform="matrix(0.391, -0.92, 0.92, 0.391, -28.675, 57.683)" fill="#115089"/>
      </g>
    </g>
    <g id="Grupo_1026358" data-name="Grupo 1026358" transform="translate(254.625 202.451)">
      <g id="Grupo_1026357" data-name="Grupo 1026357" clip-path="url(#clip-path-12)">
        <rect id="Rectángulo_350085" data-name="Rectángulo 350085" width="28.994" height="22.721" transform="translate(-7.137 23.237) rotate(-72.927)" fill="url(#linear-gradient-3)"/>
      </g>
    </g>
    <g id="Grupo_1026360" data-name="Grupo 1026360" transform="translate(245.219 181.321)">
      <g id="Grupo_1026359" data-name="Grupo 1026359" clip-path="url(#clip-path-13)">
        <rect id="Rectángulo_350086" data-name="Rectángulo 350086" width="42.054" height="43.053" transform="translate(-20.376 9.092) rotate(-31.959)" fill="url(#linear-gradient-4)"/>
      </g>
    </g>
    <g id="Grupo_1026362" data-name="Grupo 1026362" transform="translate(250.439 175.588)">
      <g id="Grupo_1026361" data-name="Grupo 1026361" clip-path="url(#clip-path-14)">
        <rect id="Rectángulo_350087" data-name="Rectángulo 350087" width="32.184" height="32.135" transform="matrix(0.756, -0.654, 0.654, 0.756, -11.697, 9.656)" fill="#1c466d"/>
      </g>
    </g>
    <g id="Grupo_1026364" data-name="Grupo 1026364" transform="translate(263.767 192.435)">
      <g id="Grupo_1026363" data-name="Grupo 1026363" clip-path="url(#clip-path-15)">
        <rect id="Rectángulo_350088" data-name="Rectángulo 350088" width="13.741" height="13.392" transform="matrix(0.848, -0.529, 0.529, 0.848, -4.177, 2.606)" fill="url(#linear-gradient-5)"/>
      </g>
    </g>
    <g id="Grupo_1026366" data-name="Grupo 1026366" transform="translate(273.406 228.451)">
      <g id="Grupo_1026365" data-name="Grupo 1026365" clip-path="url(#clip-path-16)">
        <rect id="Rectángulo_350089" data-name="Rectángulo 350089" width="69.386" height="71.104" transform="translate(-31.612 25.494) rotate(-41.161)" fill="url(#linear-gradient-6)"/>
      </g>
    </g>
    <g id="Grupo_1026368" data-name="Grupo 1026368" transform="translate(0 0)">
      <g id="Grupo_1026367" data-name="Grupo 1026367" clip-path="url(#clip-path)">
        <path id="Trazado_726955" data-name="Trazado 726955" d="M423.791,1628.7a65.82,65.82,0,1,1-65.82-65.82,65.82,65.82,0,0,1,65.82,65.82" transform="translate(-256.378 -1371.506)" fill="#fff"/>
      </g>
    </g>
    <g id="Grupo_1026370" data-name="Grupo 1026370" transform="translate(20.381 177.05)">
      <g id="Grupo_1026369" data-name="Grupo 1026369" clip-path="url(#clip-path-18)">
        <rect id="Rectángulo_350091" data-name="Rectángulo 350091" width="219.003" height="218.922" transform="translate(-66.134 33.752) rotate(-27.103)" fill="#ffa031"/>
      </g>
    </g>
    <g id="Grupo_1026372" data-name="Grupo 1026372" transform="translate(132.113 287.418)">
      <g id="Grupo_1026371" data-name="Grupo 1026371" clip-path="url(#clip-path-19)">
        <rect id="Rectángulo_350092" data-name="Rectángulo 350092" width="20.341" height="17.322" transform="translate(-2.46)" fill="url(#linear-gradient-7)"/>
      </g>
    </g>
    <g id="Grupo_1026374" data-name="Grupo 1026374" transform="translate(119.138 264.622)">
      <g id="Grupo_1026373" data-name="Grupo 1026373" clip-path="url(#clip-path-20)">
        <rect id="Rectángulo_350093" data-name="Rectángulo 350093" width="43.389" height="32.624" transform="matrix(0.43, -0.903, 0.903, 0.43, -15.507, 32.515)" fill="url(#linear-gradient-8)"/>
      </g>
    </g>
    <g id="Grupo_1026376" data-name="Grupo 1026376" transform="translate(77.934 245.943)">
      <g id="Grupo_1026375" data-name="Grupo 1026375" clip-path="url(#clip-path-21)">
        <rect id="Rectángulo_350094" data-name="Rectángulo 350094" width="84.03" height="77.812" transform="translate(-26.776 53.984) rotate(-63.619)" fill="#115089"/>
      </g>
    </g>
    <g id="Grupo_1026378" data-name="Grupo 1026378" transform="translate(98.741 222.153)">
      <g id="Grupo_1026377" data-name="Grupo 1026377" clip-path="url(#clip-path-22)">
        <rect id="Rectángulo_350095" data-name="Rectángulo 350095" width="20.006" height="29.58" transform="translate(-0.431 0.006) rotate(-0.842)" fill="url(#linear-gradient-9)"/>
      </g>
    </g>
    <g id="Grupo_1026380" data-name="Grupo 1026380" transform="translate(93.963 206.147)">
      <g id="Grupo_1026379" data-name="Grupo 1026379" clip-path="url(#clip-path-23)">
        <rect id="Rectángulo_350096" data-name="Rectángulo 350096" width="41.907" height="42.474" transform="translate(-13.953 19.923) rotate(-55.603)" fill="url(#linear-gradient-10)"/>
      </g>
    </g>
    <g id="Grupo_1026382" data-name="Grupo 1026382" transform="translate(85.542 194.175)">
      <g id="Grupo_1026381" data-name="Grupo 1026381" clip-path="url(#clip-path-24)">
        <rect id="Rectángulo_350097" data-name="Rectángulo 350097" width="48.964" height="45.873" transform="translate(-18.278 28.738) rotate(-59.059)" fill="#1c466d"/>
      </g>
    </g>
    <g id="Grupo_1026384" data-name="Grupo 1026384" transform="translate(96.238 222.489)">
      <g id="Grupo_1026383" data-name="Grupo 1026383" clip-path="url(#clip-path-25)">
        <rect id="Rectángulo_350098" data-name="Rectángulo 350098" width="11.441" height="11.824" transform="matrix(0.565, -0.825, 0.825, 0.565, -5.341, 5.196)" fill="url(#linear-gradient-11)"/>
      </g>
    </g>
    <g id="Grupo_1026386" data-name="Grupo 1026386" transform="translate(61.721 249.679)">
      <g id="Grupo_1026385" data-name="Grupo 1026385" clip-path="url(#clip-path-26)">
        <rect id="Rectángulo_350099" data-name="Rectángulo 350099" width="63.373" height="55.046" transform="matrix(0.444, -0.896, 0.896, 0.444, -26.404, 42.858)" fill="#115089"/>
      </g>
    </g>
    <g id="Grupo_1026388" data-name="Grupo 1026388" transform="translate(25.84 184.625)">
      <g id="Grupo_1026387" data-name="Grupo 1026387" clip-path="url(#clip-path-27)">
        <path id="Trazado_726965" data-name="Trazado 726965" d="M657.474,2254.67l-.92-.105c.78-6.849,6.79-15.3,9.337-18.62l.735.564c-2.5,3.256-8.4,11.543-9.152,18.162" transform="translate(-602.001 -2146.783)" fill="#7d97f4"/>
      </g>
    </g>
    <g id="Grupo_1026390" data-name="Grupo 1026390" transform="translate(66.319 295.214)">
      <g id="Grupo_1026389" data-name="Grupo 1026389" clip-path="url(#clip-path-28)">
        <rect id="Rectángulo_350100" data-name="Rectángulo 350100" width="44.211" height="32.4" transform="matrix(0.935, -0.355, 0.355, 0.935, -6.477, 2.461)" fill="url(#linear-gradient-12)"/>
      </g>
    </g>
    <g id="Grupo_1026392" data-name="Grupo 1026392" transform="translate(103.522 306.898)">
      <g id="Grupo_1026391" data-name="Grupo 1026391" clip-path="url(#clip-path-29)">
        <rect id="Rectángulo_350101" data-name="Rectángulo 350101" width="18.758" height="12.636" transform="translate(-2.287 0.869) rotate(-20.807)" fill="url(#linear-gradient-13)"/>
      </g>
    </g>
    <g id="Grupo_1026397" data-name="Grupo 1026397" transform="translate(25.84 184.625)">
      <g id="Grupo_1026396" data-name="Grupo 1026396" clip-path="url(#clip-path-27)">
        <path id="Trazado_726969" data-name="Trazado 726969" d="M1073.43,2161.606l-5.284,32.219A1.464,1.464,0,0,1,1067.1,2195a21.28,21.28,0,0,1-12.106-.059,2.005,2.005,0,0,1-1.313-1.564l-5.6-32.467Z" transform="translate(-945.589 -2080.935)" fill="#91b3fa"/>
        <path id="Trazado_726970" data-name="Trazado 726970" d="M1083.2,2122.516l-1.206-2.689a.788.788,0,0,0-.651-.465c-2.348-.2-13.154-1.042-20.233-.062a1.213,1.213,0,0,0-.953.738l-.939,2.258Z" transform="translate(-955.356 -2044.013)" fill="#7d97f4"/>
        <path id="Trazado_726971" data-name="Trazado 726971" d="M1066.322,2143.147l.225,2.22a.965.965,0,0,1-.888,1.065c-4.09.281-19.769,1.19-26.133-.843a.913.913,0,0,1-.6-1.1l.3-1.14a1.438,1.438,0,0,1,1.392-1.08l24.825.079a.888.888,0,0,1,.877.8" transform="translate(-937.528 -2064.575)" fill="#91b3fa"/>
        <path id="Trazado_726972" data-name="Trazado 726972" d="M1076.965,2225.568s-14.506,2.326-22.561,0l-.123-.711-.429.451a.944.944,0,0,0-.243.821l2.358,12.858s10.16,2.442,19.328.156l2.29-13.012a1.266,1.266,0,0,0-.232-1.02l-.257-.338Z" transform="translate(-950.423 -2136.979)" fill="#7d97f4"/>
        <g id="Grupo_1026395" data-name="Grupo 1026395" transform="translate(104.262 89.593)" style="mix-blend-mode: soft-light;isolation: isolate">
          <g id="Grupo_1026394" data-name="Grupo 1026394">
            <g id="Grupo_1026393" data-name="Grupo 1026393" clip-path="url(#clip-path-31)">
              <path id="Trazado_726973" data-name="Trazado 726973" d="M1075.371,2252.552a.276.276,0,0,1-.271-.28l.218-11.758a.272.272,0,0,1,.281-.271.276.276,0,0,1,.27.281l-.218,11.758a.276.276,0,0,1-.276.271Zm-2.78-.034a.276.276,0,0,1-.271-.281l.216-11.626a.275.275,0,0,1,.551.01l-.216,11.626a.276.276,0,0,1-.276.271Zm5.561-.128a.276.276,0,0,1-.271-.28l.219-11.784a.261.261,0,0,1,.28-.271.276.276,0,0,1,.271.28l-.218,11.785a.275.275,0,0,1-.276.27Zm-8.863-.077a.276.276,0,0,1-.271-.28l.212-11.45a.3.3,0,0,1,.281-.271.276.276,0,0,1,.271.28l-.212,11.45a.276.276,0,0,1-.276.271Zm11.05-.185a.277.277,0,0,1-.269-.282l.259-11.73a.269.269,0,0,1,.282-.27.276.276,0,0,1,.269.281l-.259,11.73a.276.276,0,0,1-.276.27Zm-14.233-.475-.832-11.368a.276.276,0,0,1,.254-.295.27.27,0,0,1,.3.255l.831,11.367a.275.275,0,0,1-.254.295h-.02a.275.275,0,0,1-.274-.255m15.865.178a.275.275,0,0,1-.251-.3l1-11.729a.275.275,0,1,1,.549.046l-1,11.729a.276.276,0,0,1-.274.252h-.024m-18.026-.559-1.432-11.495a.275.275,0,1,1,.547-.068l1.432,11.495a.275.275,0,0,1-.239.308l-.034,0a.275.275,0,0,1-.273-.242" transform="translate(-1062.51 -2239.467)" fill="#fff"/>
            </g>
          </g>
        </g>
      </g>
    </g>
    <g id="Grupo_1026399" data-name="Grupo 1026399" transform="translate(144.706 279.313)">
      <g id="Grupo_1026398" data-name="Grupo 1026398" clip-path="url(#clip-path-32)">
        <rect id="Rectángulo_350103" data-name="Rectángulo 350103" width="13.55" height="17.069" transform="translate(-1.922)" fill="url(#linear-gradient-14)"/>
      </g>
    </g>
    <g id="Grupo_1026401" data-name="Grupo 1026401" transform="translate(0 0)">
      <g id="Grupo_1026400" data-name="Grupo 1026400" clip-path="url(#clip-path)">
        <path id="Trazado_726976" data-name="Trazado 726976" d="M1102.965,201.065A61.469,61.469,0,1,1,1041.5,139.6a61.469,61.469,0,0,1,61.469,61.469" transform="translate(-860.025 -122.503)" fill="#fff"/>
        <path id="Trazado_726977" data-name="Trazado 726977" d="M1004.412,75.313l-6.894-1.9a5.913,5.913,0,0,1-3.987-3.742,63.168,63.168,0,0,0-6.34-12.933,5.918,5.918,0,0,1-.516-5.451l2.726-6.62a7.072,7.072,0,0,0-1.862-8l-6.756-5.958a7.073,7.073,0,0,0-8.168-.846L966.388,33.4a5.918,5.918,0,0,1-5.472.171,63.155,63.155,0,0,0-13.625-4.672,5.914,5.914,0,0,1-4.211-3.487l-2.751-6.6a7.072,7.072,0,0,0-6.971-4.338l-8.991.565a7.073,7.073,0,0,0-6.374,5.177l-1.9,6.894a5.914,5.914,0,0,1-3.742,3.987,63.134,63.134,0,0,0-12.933,6.34,5.918,5.918,0,0,1-5.451.516l-6.62-2.726a7.073,7.073,0,0,0-8,1.862l-5.957,6.756a7.072,7.072,0,0,0-.847,8.168l3.533,6.226a5.919,5.919,0,0,1,.171,5.473,63.134,63.134,0,0,0-4.672,13.625,5.914,5.914,0,0,1-3.487,4.212l-6.6,2.751a7.072,7.072,0,0,0-4.338,6.971l.565,8.991a7.072,7.072,0,0,0,5.177,6.374l6.894,1.9a5.912,5.912,0,0,1,3.987,3.742,63.168,63.168,0,0,0,6.34,12.933,5.918,5.918,0,0,1,.516,5.451l-2.726,6.62a7.073,7.073,0,0,0,1.862,8l6.756,5.957a7.072,7.072,0,0,0,8.168.847l6.226-3.533a5.919,5.919,0,0,1,5.473-.171,63.143,63.143,0,0,0,13.625,4.672,5.914,5.914,0,0,1,4.212,3.487l2.751,6.6a7.073,7.073,0,0,0,6.972,4.338l8.99-.565a7.072,7.072,0,0,0,6.374-5.177l1.9-6.894a5.914,5.914,0,0,1,3.742-3.987,63.159,63.159,0,0,0,12.933-6.341,5.918,5.918,0,0,1,5.451-.516l6.62,2.726a7.073,7.073,0,0,0,8-1.862l5.957-6.756a7.072,7.072,0,0,0,.847-8.168l-3.533-6.226a5.917,5.917,0,0,1-.171-5.472,63.135,63.135,0,0,0,4.672-13.625,5.914,5.914,0,0,1,3.488-4.211l6.6-2.751a7.073,7.073,0,0,0,4.338-6.972l-.565-8.99a7.073,7.073,0,0,0-5.177-6.374m-62.218,67.378A52.421,52.421,0,1,1,985.37,82.428a52.421,52.421,0,0,1-43.177,60.263" transform="translate(-752.179 -12.684)" fill="#3d8dc0"/>
      </g>
    </g>
    <g id="Grupo_1026403" data-name="Grupo 1026403" transform="translate(177.712 68.252)">
      <g id="Grupo_1026402" data-name="Grupo 1026402" clip-path="url(#clip-path-34)">
        <rect id="Rectángulo_350105" data-name="Rectángulo 350105" width="88.091" height="85.145" transform="translate(-26.324 17.155) rotate(-33.092)" fill="#ffa031"/>
      </g>
    </g>
    <g id="Grupo_1026405" data-name="Grupo 1026405" transform="translate(242.645 108.867)">
      <g id="Grupo_1026404" data-name="Grupo 1026404" clip-path="url(#clip-path-35)">
        <rect id="Rectángulo_350106" data-name="Rectángulo 350106" width="29.42" height="15.747" transform="matrix(0.996, -0.09, 0.09, 0.996, -1.865, 0.107)" fill="url(#linear-gradient-15)"/>
      </g>
    </g>
    <g id="Grupo_1026407" data-name="Grupo 1026407" transform="translate(142.696 63.231)">
      <g id="Grupo_1026406" data-name="Grupo 1026406" clip-path="url(#clip-path-36)">
        <rect id="Rectángulo_350107" data-name="Rectángulo 350107" width="84.145" height="87.298" transform="translate(-30.807 20.076) rotate(-33.092)" fill="#ffa031"/>
      </g>
    </g>
    <g id="Grupo_1026409" data-name="Grupo 1026409" transform="translate(158.078 38.096)">
      <g id="Grupo_1026408" data-name="Grupo 1026408" clip-path="url(#clip-path-37)">
        <rect id="Rectángulo_350108" data-name="Rectángulo 350108" width="22.731" height="32.618" transform="translate(-0.221 0)" fill="url(#linear-gradient-16)"/>
      </g>
    </g>
    <g id="Grupo_1026411" data-name="Grupo 1026411" transform="translate(135.872 109.727)">
      <g id="Grupo_1026410" data-name="Grupo 1026410" clip-path="url(#clip-path-38)">
        <rect id="Rectángulo_350109" data-name="Rectángulo 350109" width="45.156" height="19.666" transform="translate(0 0)" fill="url(#linear-gradient-17)"/>
      </g>
    </g>
    <g id="Grupo_1026413" data-name="Grupo 1026413" transform="translate(129.042 67.229)">
      <g id="Grupo_1026412" data-name="Grupo 1026412" clip-path="url(#clip-path-39)">
        <rect id="Rectángulo_350110" data-name="Rectángulo 350110" width="61.107" height="65.789" transform="matrix(0.838, -0.546, 0.546, 0.838, -35.54, 16.06)" fill="#ffa031"/>
      </g>
    </g>
    <g id="Grupo_1026415" data-name="Grupo 1026415" transform="translate(147.3 84.019)">
      <g id="Grupo_1026414" data-name="Grupo 1026414" clip-path="url(#clip-path-40)">
        <rect id="Rectángulo_350111" data-name="Rectángulo 350111" width="13.399" height="27.036" transform="translate(-6.776 1.885) rotate(-15.55)" fill="url(#linear-gradient-18)"/>
      </g>
    </g>
    <g id="Grupo_1026417" data-name="Grupo 1026417" transform="translate(172.685 27.491)">
      <g id="Grupo_1026416" data-name="Grupo 1026416" clip-path="url(#clip-path-41)">
        <rect id="Rectángulo_350112" data-name="Rectángulo 350112" width="37.164" height="35.758" transform="matrix(0.603, -0.798, 0.798, 0.603, -14.257, 18.861)" fill="url(#linear-gradient-19)"/>
      </g>
    </g>
    <g id="Grupo_1026419" data-name="Grupo 1026419" transform="translate(166.762 19.573)">
      <g id="Grupo_1026418" data-name="Grupo 1026418" clip-path="url(#clip-path-42)">
        <rect id="Rectángulo_350113" data-name="Rectángulo 350113" width="45.13" height="52.165" transform="translate(-9.49 1.825) rotate(-11.52)" fill="#1c466d"/>
      </g>
    </g>
    <g id="Grupo_1026421" data-name="Grupo 1026421" transform="translate(166.278 34.829)">
      <g id="Grupo_1026420" data-name="Grupo 1026420" clip-path="url(#clip-path-43)">
        <rect id="Rectángulo_350114" data-name="Rectángulo 350114" width="14.24" height="14.173" transform="matrix(0.698, -0.716, 0.716, 0.698, -6.014, 6.097)" fill="url(#linear-gradient-20)"/>
      </g>
    </g>
  </g>
</svg>
