<svg xmlns="http://www.w3.org/2000/svg" width="86" height="86" viewBox="0 0 86 86">
  <g id="Grupo_1029971" data-name="Grupo 1029971" transform="translate(-810 -8384)">
    <circle id="resina-cloruro-polivinilo-resina-pvc-pvc-plastificado-utilizado-industria-general-polvo-plastico-fotografia-macro" cx="43" cy="43" r="43" transform="translate(810 8384)" fill="#115089"/>
    <g id="Grupo_1029753" data-name="Grupo 1029753" transform="translate(787.491 8390.447)">
      <path id="Trazado_728941" data-name="Trazado 728941" d="M261.938,167.661l2.963.292-1.143-1.68a3.213,3.213,0,0,1,.229-3.912l-3.429-.339a3.5,3.5,0,0,1,.322.875Z" transform="translate(-191.117 -140.22)" fill="#fff"/>
      <path id="Trazado_728942" data-name="Trazado 728942" d="M226.332,161.77a1.673,1.673,0,0,0-1.27,2l.787,3.541L229.874,170l-1.546-6.956A1.674,1.674,0,0,0,226.332,161.77Z" transform="translate(-160.347 -139.967)" fill="#fff"/>
      <circle id="Elipse_8616" data-name="Elipse 8616" cx="6.04" cy="6.04" r="6.04" transform="translate(56.795 0.086)" fill="#fff"/>
      <g id="Grupo_1029752" data-name="Grupo 1029752" transform="translate(39.842 12.151)">
        <path id="Trazado_728943" data-name="Trazado 728943" d="M70.554,110.663l-7.423-4.96-3.78-7.3,3.855,4.914-.271-1.221a3.5,3.5,0,0,1,2.426-4.113l-3.894-2.678a7.09,7.09,0,0,0-4.055-4.566A8.694,8.694,0,0,0,45.781,96L41.3,109.14a16.333,16.333,0,0,0-.869,4.934l-.593,29.2a3.285,3.285,0,0,0,3.211,3.358h.075a3.285,3.285,0,0,0,3.283-3.212l.594-26.545,2.541.338L52.406,127.7,50.15,142.867a3.285,3.285,0,1,0,6.5.966l2.357-15.851a3.285,3.285,0,0,0-.08-1.348L55.7,114.8l1.685-4.523-2.534-8.664,3.743,7.23a2.737,2.737,0,0,0,.91,1.018l8.009,5.352a2.738,2.738,0,1,0,3.042-4.553Z" transform="translate(-39.842 -90.051)" fill="#fff"/>
      </g>
      <path id="Trazado_728944" data-name="Trazado 728944" d="M252.444,310.339l10.255-2.585a5.469,5.469,0,0,0-4.587-2.829l-3.667-16.5a4.454,4.454,0,0,1-3.285.643l3.726,16.768a5.47,5.47,0,0,0-2.443,4.505Z" transform="translate(-182.981 -249.67)" fill="#fff"/>
      <path id="Trazado_728945" data-name="Trazado 728945" d="M272.515,443.8,261.8,446.5l.61,5.28a1.317,1.317,0,0,0,1.62,1.129l9.29-2.258a1.317,1.317,0,0,0,.936-1.7Z" transform="translate(-192.196 -384.208)" fill="#fff"/>
      <path id="Trazado_728946" data-name="Trazado 728946" d="M296.927,176.607l-2.315,1.576a1.4,1.4,0,0,0-.283,2.053l4.446,5.288a1.4,1.4,0,0,0,1.854.256l5.906-4.019a1.4,1.4,0,0,0,.443-1.819l-3.287-6.077a1.4,1.4,0,0,0-2.014-.49l-2.315,1.576-3.431-5.041a1.472,1.472,0,1,0-2.434,1.657Z" transform="translate(-219.418 -146.491)" fill="#fff"/>
      <path id="Trazado_728947" data-name="Trazado 728947" d="M377.849,427.616a1.935,1.935,0,0,1-1.525-.387,2.466,2.466,0,0,0-3.929,2.213,2.582,2.582,0,0,1-.791,2.1l-2.019,1.943a.558.558,0,0,0,.387.96h2.391a2.612,2.612,0,0,1,1.773.7,3.133,3.133,0,0,0,5.221-2.8,1.953,1.953,0,0,1,.394-1.555,1.965,1.965,0,0,0-1.9-3.171Z" transform="translate(-285.375 -369.437)" fill="#fff"/>
      <circle id="Elipse_8617" data-name="Elipse 8617" cx="0.665" cy="0.665" r="0.665" transform="translate(83.1 57.706)" fill="#fff"/>
      <path id="Trazado_728948" data-name="Trazado 728948" d="M383.355,406.542a.679.679,0,1,0,.679.679A.679.679,0,0,0,383.355,406.542Z" transform="translate(-296.859 -351.949)" fill="#fff"/>
    </g>
  </g>
</svg>
