<svg xmlns="http://www.w3.org/2000/svg" xmlns:xlink="http://www.w3.org/1999/xlink" width="400" height="241.813" viewBox="0 0 400 241.813">
  <defs>
    <clipPath id="clip-path">
      <path id="Trazado_728458" data-name="Trazado 728458" d="M394.05,350.03l.074-8.2L292.067,316.986l-177.7,59.462v8.514a1.723,1.723,0,0,0,.391,1.127,2.619,2.619,0,0,0,1.163.794l99.9,41.222a11.184,11.184,0,0,0,2.546.659,17.051,17.051,0,0,0,2.918.167,17.424,17.424,0,0,0,2.922-.317,11.906,11.906,0,0,0,2.559-.791l166.089-75.8a1.7,1.7,0,0,0,.844-.663A2.034,2.034,0,0,0,394.05,350.03Z" fill="#fff" stroke="#263238" stroke-miterlimit="10" stroke-width="1"/>
    </clipPath>
  </defs>
  <g id="Grupo_1029579" data-name="Grupo 1029579" transform="translate(-1020 -10254.841)">
    <g id="Background_Simple" data-name="Background Simple" transform="translate(986.326 10174.216)">
      <g id="Grupo_1029337" data-name="Grupo 1029337" transform="translate(33.674 80.625)">
        <path id="Trazado_728453" data-name="Trazado 728453" d="M475.5,219.474c4.624-20.726,1.312-42.066-6.763-62.2-7.237-18.044-16.351-36.582-37.585-49.25C405.424,92.676,373.3,90.66,340.7,93.265c-64.482,5.151-82.906-13.735-130.64-12.59s-89.606,14.88-103,42.922,7.537,57.23-2.512,73.826S66.021,230.616,82.77,254.652s53.6,42.922,139.013,47.5,159.951,6.867,208.523-23.465C456.629,262.25,470.574,241.539,475.5,219.474Z" transform="translate(-77.604 -80.625)" fill="#dbf1ff"/>
      </g>
    </g>
    <g id="Device" transform="translate(986.326 10067.216)">
      <g id="Grupo_1029341" data-name="Grupo 1029341">
        <g id="Grupo_1029339" data-name="Grupo 1029339">
          <path id="Trazado_728455" data-name="Trazado 728455" d="M394.05,350.03l.074-8.2L292.067,316.986l-177.7,59.462v8.514a1.723,1.723,0,0,0,.391,1.127,2.619,2.619,0,0,0,1.163.794l99.9,41.222a11.184,11.184,0,0,0,2.546.659,17.051,17.051,0,0,0,2.918.167,17.424,17.424,0,0,0,2.922-.317,11.906,11.906,0,0,0,2.559-.791l166.089-75.8a1.7,1.7,0,0,0,.844-.663A2.034,2.034,0,0,0,394.05,350.03Z" fill="#fff"/>
          <g id="Grupo_1029338" data-name="Grupo 1029338" clip-path="url(#clip-path)">
            <path id="Trazado_728456" data-name="Trazado 728456" d="M393.7,351.359a2.034,2.034,0,0,0,.347-1.329l.074-8.2L292.067,316.986,223.31,339.994v88.757c.3-.043.609-.079.9-.137a11.906,11.906,0,0,0,2.559-.791l166.089-75.8A1.7,1.7,0,0,0,393.7,351.359Z" opacity="0.2"/>
            <path id="Trazado_728457" data-name="Trazado 728457" d="M220.564,429.135V415.362h-3.483V428.7A11.1,11.1,0,0,0,220.564,429.135Z" opacity="0.2"/>
          </g>
          <path id="Trazado_728459" data-name="Trazado 728459" d="M394.05,350.03l.074-8.2L292.067,316.986l-177.7,59.462v8.514a1.723,1.723,0,0,0,.391,1.127,2.619,2.619,0,0,0,1.163.794l99.9,41.222a11.184,11.184,0,0,0,2.546.659,17.051,17.051,0,0,0,2.918.167,17.424,17.424,0,0,0,2.922-.317,11.906,11.906,0,0,0,2.559-.791l166.089-75.8a1.7,1.7,0,0,0,.844-.663A2.034,2.034,0,0,0,394.05,350.03Z" fill="none" stroke="#263238" stroke-miterlimit="10" stroke-width="1"/>
        </g>
        <g id="Grupo_1029340" data-name="Grupo 1029340">
          <path id="Trazado_728460" data-name="Trazado 728460" d="M341.836,331.608,328.772,328.3a4.176,4.176,0,0,0-.594-.1,5.38,5.38,0,0,0-.635-.025,4.683,4.683,0,0,0-.6.049,2.448,2.448,0,0,0-.493.122.712.712,0,0,0-.288.175.175.175,0,0,0-.036.194.445.445,0,0,0,.2.19,1.845,1.845,0,0,0,.437.162l13.077,3.333a4.144,4.144,0,0,0,.61.1,5.175,5.175,0,0,0,.647.025,4.448,4.448,0,0,0,.609-.051,2.371,2.371,0,0,0,.495-.128.648.648,0,0,0,.279-.18.177.177,0,0,0,.024-.2.513.513,0,0,0-.22-.194,2,2,0,0,0-.452-.165" fill="#fff"/>
          <path id="Trazado_728461" data-name="Trazado 728461" d="M380.126,342.9l-22.041-5.624h-3.617c-.393,0-.788-.011-1.178-.034s-.777-.056-1.155-.1-.746-.1-1.1-.161-.7-.138-1.018-.22l-38.443-9.873c-.283-.073-.545-.152-.783-.237a5.561,5.561,0,0,1-.638-.271,3.027,3.027,0,0,1-.479-.3,1.383,1.383,0,0,1-.3-.317l-.766-1.115-19.74-5.036L138.539,371.5l94.882,36.333L380.126,342.9" fill="#ffa031" stroke="#fff" stroke-miterlimit="10" stroke-width="3"/>
          <path id="Trazado_728462" data-name="Trazado 728462" d="M394.412,341.133a2.454,2.454,0,0,0-.924-.707,8.325,8.325,0,0,0-1.707-.6l-96.287-23.959a12.708,12.708,0,0,0-1.843-.3,17.6,17.6,0,0,0-2.009-.074,16.311,16.311,0,0,0-1.941.149,9.274,9.274,0,0,0-1.638.369l-171.4,58.144a7.445,7.445,0,0,0-1.794.845,2.229,2.229,0,0,0-.862.942.924.924,0,0,0,.123.925,2.627,2.627,0,0,0,1.163.794l100.534,40.714a11.184,11.184,0,0,0,2.546.659,17.051,17.051,0,0,0,2.918.167,17.322,17.322,0,0,0,2.922-.318,11.85,11.85,0,0,0,2.559-.79l166.871-75.565a1.712,1.712,0,0,0,.845-.663A.669.669,0,0,0,394.412,341.133Zm-160.991,66.7L138.539,371.5l150.323-51.885,19.74,5.036.765,1.115a1.412,1.412,0,0,0,.306.317,3.027,3.027,0,0,0,.479.3,5.561,5.561,0,0,0,.638.271c.238.085.5.164.783.237l38.443,9.873c.322.082.663.156,1.018.22s.723.118,1.1.161.764.078,1.155.1.785.034,1.178.034h3.617l22.041,5.624Zm92.74-79.316a.712.712,0,0,1,.288-.175,2.448,2.448,0,0,1,.493-.122,4.683,4.683,0,0,1,.6-.049,5.38,5.38,0,0,1,.635.025,4.176,4.176,0,0,1,.594.1l13.064,3.311a2,2,0,0,1,.452.165.513.513,0,0,1,.22.194.177.177,0,0,1-.024.2.648.648,0,0,1-.279.18,2.371,2.371,0,0,1-.495.128,4.435,4.435,0,0,1-.609.051,5.175,5.175,0,0,1-.647-.025,4.144,4.144,0,0,1-.61-.1l-13.077-3.333a1.845,1.845,0,0,1-.437-.162.45.45,0,0,1-.2-.19A.175.175,0,0,1,326.161,328.517Zm-145.49,63.141a2.713,2.713,0,0,1-.781.439,6.027,6.027,0,0,1-1.13.308,8.348,8.348,0,0,1-1.251.124,7.691,7.691,0,0,1-1.22-.064,4.589,4.589,0,0,1-1.037-.255,1.686,1.686,0,0,1-.65-.406.555.555,0,0,1-.158-.474.851.851,0,0,1,.321-.485,2.815,2.815,0,0,1,.789-.436,5.969,5.969,0,0,1,1.122-.3,8.206,8.206,0,0,1,1.24-.121,7.7,7.7,0,0,1,1.211.063,4.7,4.7,0,0,1,1.037.252,1.734,1.734,0,0,1,.651.4.565.565,0,0,1,.167.472A.83.83,0,0,1,180.671,391.658Z" fill="#263238"/>
          <path id="Trazado_728463" data-name="Trazado 728463" d="M180.164,390.3a4.7,4.7,0,0,0-1.037-.252,7.7,7.7,0,0,0-1.211-.063,8.338,8.338,0,0,0-1.24.121,5.969,5.969,0,0,0-1.122.3,2.789,2.789,0,0,0-.789.437.846.846,0,0,0-.321.484.555.555,0,0,0,.158.474,1.686,1.686,0,0,0,.65.406,4.589,4.589,0,0,0,1.037.255,7.691,7.691,0,0,0,1.22.064,8.348,8.348,0,0,0,1.251-.124,6.027,6.027,0,0,0,1.13-.308,2.713,2.713,0,0,0,.781-.439.835.835,0,0,0,.311-.484.565.565,0,0,0-.167-.472,1.734,1.734,0,0,0-.651-.4" fill="#fff"/>
        </g>
      </g>
    </g>
    <g id="Lines" transform="translate(986.326 10067.216)">
      <g id="Grupo_1029342" data-name="Grupo 1029342">
        <line id="Línea_2722" data-name="Línea 2722" x2="2.858" y2="4.834" transform="translate(146.789 346.942)" fill="none" stroke="#263238" stroke-miterlimit="10" stroke-width="1"/>
        <line id="Línea_2723" data-name="Línea 2723" x2="38.789" y2="65.606" transform="translate(104.767 275.867)" fill="none" stroke="#263238" stroke-miterlimit="10" stroke-width="1"/>
        <line id="Línea_2724" data-name="Línea 2724" x2="1.628" y2="3.893" transform="translate(179.602 332.923)" fill="none" stroke="#263238" stroke-miterlimit="10" stroke-width="1"/>
        <line id="Línea_2725" data-name="Línea 2725" x2="9.291" y2="22.217" transform="translate(168.486 306.341)" fill="none" stroke="#263238" stroke-miterlimit="10" stroke-width="1"/>
        <line id="Línea_2726" data-name="Línea 2726" x1="20.443" y2="50.219" transform="translate(341.678 272.19)" fill="none" stroke="#263238" stroke-miterlimit="10" stroke-width="1"/>
        <line id="Línea_2727" data-name="Línea 2727" x1="2.522" y2="6.196" transform="translate(364.644 259.799)" fill="none" stroke="#263238" stroke-miterlimit="10" stroke-width="1"/>
        <line id="Línea_2728" data-name="Línea 2728" x1="4.463" y2="4.909" transform="translate(374.049 321.379)" fill="none" stroke="#263238" stroke-miterlimit="10" stroke-width="1"/>
        <line id="Línea_2729" data-name="Línea 2729" x1="24.319" y2="26.751" transform="translate(382.974 289.719)" fill="none" stroke="#263238" stroke-miterlimit="10" stroke-width="1"/>
        <line id="Línea_2730" data-name="Línea 2730" x2="16.622" y2="32.137" transform="translate(161.837 339.586)" fill="none" stroke="#263238" stroke-miterlimit="10" stroke-width="1"/>
        <line id="Línea_2731" data-name="Línea 2731" x1="18.285" y2="24.934" transform="translate(347.453 319.639)" fill="none" stroke="#263238" stroke-miterlimit="10" stroke-width="1"/>
        <line id="Línea_2732" data-name="Línea 2732" x2="4.433" y2="22.163" transform="translate(248.827 319.639)" fill="none" stroke="#263238" stroke-miterlimit="10" stroke-width="1"/>
      </g>
    </g>
    <g id="Grupo_1029346" data-name="Grupo 1029346" transform="translate(986.326 10067.216)">
      <circle id="Elipse_8583" data-name="Elipse 8583" cx="10.885" cy="10.885" r="10.885" transform="translate(174.901 309.257) rotate(-68.661)" fill="#fff" stroke="#fff" stroke-miterlimit="10" stroke-width="0.5"/>
      <g id="Grupo_1029345" data-name="Grupo 1029345">
        <path id="Trazado_728465" data-name="Trazado 728465" d="M192.608,302.346h-7.094a2.507,2.507,0,0,0-2.507,2.507v5.95a9.752,9.752,0,0,0,12.108-.092v-5.858A2.507,2.507,0,0,0,192.608,302.346Z" fill="#4db1f0"/>
        <path id="Trazado_728466" data-name="Trazado 728466" d="M188.939,301.245a3.607,3.607,0,1,0-3.608-3.607A3.608,3.608,0,0,0,188.939,301.245Z" fill="#4db1f0"/>
      </g>
    </g>
    <g id="Grupo_1029363" data-name="Grupo 1029363" transform="translate(986.326 10067.216)">
      <circle id="Elipse_8594" data-name="Elipse 8594" cx="10.885" cy="10.885" r="10.885" transform="translate(227.388 273.45)" fill="#fff" stroke="#fff" stroke-miterlimit="10" stroke-width="0.5"/>
      <g id="Grupo_1029362" data-name="Grupo 1029362">
        <path id="Trazado_728481" data-name="Trazado 728481" d="M241.881,283.6h-7.094a2.507,2.507,0,0,0-2.507,2.507v5.949a9.75,9.75,0,0,0,12.108-.091v-5.858A2.507,2.507,0,0,0,241.881,283.6Z" fill="#4db1f0"/>
        <circle id="Elipse_8595" data-name="Elipse 8595" cx="3.608" cy="3.608" r="3.608" transform="translate(234.604 275.284)" fill="#4db1f0"/>
      </g>
    </g>
    <g id="Grupo_1029365" data-name="Grupo 1029365" transform="translate(986.326 10067.216)">
      <circle id="Elipse_8596" data-name="Elipse 8596" cx="10.885" cy="10.885" r="10.885" transform="translate(305.611 294.365)" fill="#fff" stroke="#fff" stroke-miterlimit="10" stroke-width="0.5"/>
      <g id="Grupo_1029364" data-name="Grupo 1029364">
        <path id="Trazado_728482" data-name="Trazado 728482" d="M320.1,304.515H313.01a2.508,2.508,0,0,0-2.507,2.507v5.95a9.75,9.75,0,0,0,12.108-.091v-5.859A2.508,2.508,0,0,0,320.1,304.515Z" fill="#4db1f0"/>
        <circle id="Elipse_8597" data-name="Elipse 8597" cx="3.608" cy="3.608" r="3.608" transform="translate(312.827 296.199)" fill="#4db1f0"/>
      </g>
    </g>
    <g id="Grupo_1029367" data-name="Grupo 1029367" transform="translate(986.326 10067.216)">
      <circle id="Elipse_8598" data-name="Elipse 8598" cx="10.885" cy="10.885" r="10.885" transform="translate(357.529 249.041) rotate(-69.82)" fill="#fff" stroke="#fff" stroke-miterlimit="10" stroke-width="0.5"/>
      <g id="Grupo_1029366" data-name="Grupo 1029366">
        <path id="Trazado_728483" data-name="Trazado 728483" d="M375.108,241.846h-7.094a2.507,2.507,0,0,0-2.507,2.507v5.95a9.752,9.752,0,0,0,12.108-.092v-5.858A2.507,2.507,0,0,0,375.108,241.846Z" fill="#4db1f0"/>
        <path id="Trazado_728484" data-name="Trazado 728484" d="M371.439,240.745a3.607,3.607,0,1,0-3.608-3.608A3.608,3.608,0,0,0,371.439,240.745Z" fill="#4db1f0"/>
      </g>
    </g>
  </g>
</svg>
