<svg id="camino" xmlns="http://www.w3.org/2000/svg" width="39.246" height="58.03" viewBox="0 0 39.246 58.03">
  <path id="Trazado_727368" data-name="Trazado 727368" d="M57.245,48.776a8.468,8.468,0,1,0-8.468,8.468A8.478,8.478,0,0,0,57.245,48.776Zm-12.812,0a4.344,4.344,0,1,1,4.343,4.343A4.348,4.348,0,0,1,44.433,48.776Zm0,0" transform="translate(-31.997 -31.996)" fill="#7ec4c4" fill-rule="evenodd"/>
  <path id="Trazado_727371" data-name="Trazado 727371" d="M36.736,56.249a2.062,2.062,0,0,0,.9-4.025l-5.669-1.263a5.052,5.052,0,0,0,.162-1.268c0-3.864-4.3-6.474-9.222-7.648l9.2-18.429c.014-.03.029-.06.043-.091A16.781,16.781,0,1,0,0,16.779a16.658,16.658,0,0,0,1.413,6.745c.013.031.027.061.043.091l9.21,18.448c-4.936,1.2-9.231,3.813-9.231,7.63,0,4.753,6.6,8.336,15.345,8.336,5.314,0,9.831-1.324,12.561-3.427ZM4.125,16.779A12.655,12.655,0,1,1,28.392,21.82L16.78,45.077,5.169,21.82a12.553,12.553,0,0,1-1.045-5.041ZM5.559,49.694c0-1.083,2.686-2.967,7.006-3.827l2.371,4.748a2.063,2.063,0,0,0,3.69,0L21,45.854c4.369.829,7,2.707,7,3.839a1.762,1.762,0,0,1-.573,1.138,2.045,2.045,0,0,0-.178.176c-1.539,1.437-5.349,2.9-10.47,2.9-6.745,0-11.221-2.535-11.221-4.212Zm0,0" transform="translate(0 0)" fill="#7ec4c4" fill-rule="evenodd"/>
</svg>
