<svg xmlns="http://www.w3.org/2000/svg" width="61.2" height="61.2" viewBox="0 0 61.2 61.2">
  <g id="roadmap" transform="translate(-5.5 -5.5)">
    <path id="Trazado_727377" data-name="Trazado 727377" d="M60.144,41.148a1.159,1.159,0,0,0-.89-.417H46.519a1.157,1.157,0,0,0-1.158,1.158V65.043A1.157,1.157,0,0,0,46.519,66.2H65.042A1.157,1.157,0,0,0,66.2,65.043V48.835a1.159,1.159,0,0,0-.268-.741Zm.268,3.939,2.159,2.591H60.412Zm3.473,18.8H47.677V43.046H58.1v5.788a1.157,1.157,0,0,0,1.158,1.158h4.631ZM59.254,53.466a1.158,1.158,0,1,1,0,2.315H52.308a1.158,1.158,0,1,1,0-2.315Zm1.158,5.788a1.157,1.157,0,0,1-1.158,1.158H52.308a1.158,1.158,0,1,1,0-2.315h6.946a1.157,1.157,0,0,1,1.158,1.158ZM11.789,17.577A5.788,5.788,0,1,0,6,11.788a5.788,5.788,0,0,0,5.788,5.788Zm0-9.262a3.473,3.473,0,1,1-3.473,3.473,3.473,3.473,0,0,1,3.473-3.473Zm33.573,9.262a5.788,5.788,0,1,0-5.788-5.788A5.788,5.788,0,0,0,45.362,17.577Zm0-9.262a3.473,3.473,0,1,1-3.473,3.473A3.473,3.473,0,0,1,45.362,8.315ZM26.839,32.627a5.788,5.788,0,1,0,5.788-5.788,5.788,5.788,0,0,0-5.788,5.788Zm9.262,0a3.473,3.473,0,1,1-3.473-3.473A3.473,3.473,0,0,1,36.1,32.627ZM23.365,49.992a5.788,5.788,0,1,0,5.788,5.788,5.788,5.788,0,0,0-5.788-5.788Zm0,9.262a3.473,3.473,0,1,1,3.473-3.473,3.473,3.473,0,0,1-3.473,3.473ZM21.05,11.788a1.157,1.157,0,0,1,1.158-1.158H34.942a1.158,1.158,0,0,1,0,2.315H22.208A1.157,1.157,0,0,1,21.05,11.788ZM66.2,21.05v2.315A10.431,10.431,0,0,1,55.781,33.785H43.046a1.158,1.158,0,1,1,0-2.315H55.781a8.113,8.113,0,0,0,8.1-8.1V21.05a8.113,8.113,0,0,0-8.1-8.1,1.158,1.158,0,1,1,0-2.315A10.431,10.431,0,0,1,66.2,21.05ZM14.1,55.781a1.157,1.157,0,0,1-1.158,1.158A6.954,6.954,0,0,1,6,49.992V38.415a6.954,6.954,0,0,1,6.946-6.946h9.262a1.158,1.158,0,0,1,0,2.315H12.946a4.636,4.636,0,0,0-4.631,4.631V49.992a4.636,4.636,0,0,0,4.631,4.631A1.157,1.157,0,0,1,14.1,55.781Zm27.785,0a1.157,1.157,0,0,1-1.158,1.158H33.785a1.158,1.158,0,1,1,0-2.315h6.946a1.157,1.157,0,0,1,1.158,1.158Z" fill="#7ec4c4" stroke="#7ec4c4" stroke-width="1"/>
  </g>
</svg>
