<svg id="Grupo_1026809" data-name="Grupo 1026809" xmlns="http://www.w3.org/2000/svg" xmlns:xlink="http://www.w3.org/1999/xlink" width="372.397" height="371.182" viewBox="0 0 372.397 371.182">
  <defs>
    <clipPath id="clip-path">
      <rect id="Rectángulo_350297" data-name="Rectángulo 350297" width="372.397" height="371.182" fill="none"/>
    </clipPath>
    <clipPath id="clip-path-2">
      <path id="Trazado_727523" data-name="Trazado 727523" d="M75.519,118.621c-60.981,73.066-70.791,197.171-7.09,256.544,33.171,30.916,75.653,34.382,96.767,36.1q8.347.681,16.988.687h.258c74.165-.047,161.511-37.668,196.169-117.509,23.365-53.825,20.619-121.02-10.61-169.153a169.135,169.135,0,0,0-34.726-38.832c-5.293-4.3-48.822-38.829-110.84-39.447-.564-.006-1.124-.008-1.685-.008-83.741,0-137.432,62.269-145.233,71.616" transform="translate(-25.004 -47.005)" fill="#a5bed4"/>
    </clipPath>
    <linearGradient id="linear-gradient" x1="0.163" y1="0.839" x2="0.163" y2="0.839" gradientUnits="objectBoundingBox">
      <stop offset="0" stop-color="#dae3fe"/>
      <stop offset="1" stop-color="#e9effd"/>
    </linearGradient>
    <clipPath id="clip-path-4">
      <path id="Trazado_727528" data-name="Trazado 727528" d="M102.6,764.756a19.27,19.27,0,0,0-18.838,19.269V958.785a26.511,26.511,0,0,0,25.828,26.5c63.831,1.646,250.144,5.637,310.906,4.741A19.507,19.507,0,0,0,439.7,971.078c1.172-40.6,3.075-138.226-3.968-183.55a20.074,20.074,0,0,0-19.194-16.991c-47.616-1.523-211.163-6-289.326-6-9.629,0-17.952.068-24.613.217" transform="translate(-83.764 -764.539)" fill="#2e6a90"/>
    </clipPath>
    <clipPath id="clip-path-6">
      <rect id="Rectángulo_350206" data-name="Rectángulo 350206" width="311.927" height="187.249" fill="none"/>
    </clipPath>
    <clipPath id="clip-path-7">
      <path id="Trazado_727542" data-name="Trazado 727542" d="M667.221,553.327a1.334,1.334,0,0,0-1.33,1.338l.013,4a1.334,1.334,0,0,0,1.334,1.33h0a1.334,1.334,0,0,0,1.33-1.339l-.013-4a1.335,1.335,0,0,0-1.336-1.33Zm-.026-8.006a1.334,1.334,0,0,0-1.33,1.339l.013,4a1.334,1.334,0,0,0,1.334,1.33h0a1.334,1.334,0,0,0,1.33-1.338l-.013-4a1.334,1.334,0,0,0-1.334-1.33Zm-.026-8.006a1.334,1.334,0,0,0-1.33,1.339l.013,4a1.335,1.335,0,0,0,1.334,1.33h0a1.334,1.334,0,0,0,1.33-1.339l-.013-4a1.334,1.334,0,0,0-1.334-1.33Zm-.026-8.006a1.334,1.334,0,0,0-1.33,1.339l.013,4a1.334,1.334,0,0,0,1.334,1.33h0a1.334,1.334,0,0,0,1.33-1.339l-.013-4a1.335,1.335,0,0,0-1.334-1.33Zm-.026-8.006a1.334,1.334,0,0,0-1.33,1.339l.013,4a1.334,1.334,0,0,0,1.334,1.33h0a1.334,1.334,0,0,0,1.33-1.339l-.013-4a1.335,1.335,0,0,0-1.336-1.33Zm-.026-8.005a1.334,1.334,0,0,0-1.33,1.339l.013,4a1.334,1.334,0,0,0,1.334,1.33h0a1.334,1.334,0,0,0,1.33-1.339l-.013-4a1.334,1.334,0,0,0-1.334-1.33Zm-.026-8.006a1.334,1.334,0,0,0-1.33,1.339l.013,4a1.334,1.334,0,0,0,1.334,1.33h0a1.334,1.334,0,0,0,1.33-1.339l-.013-4a1.334,1.334,0,0,0-1.334-1.33Zm-.026-8.006a1.334,1.334,0,0,0-1.33,1.339l.013,4a1.334,1.334,0,0,0,1.334,1.33h0a1.334,1.334,0,0,0,1.33-1.339l-.012-4a1.334,1.334,0,0,0-1.334-1.33Zm-.026-8.006a1.334,1.334,0,0,0-1.33,1.339l.013,4a1.334,1.334,0,0,0,1.334,1.33h0a1.334,1.334,0,0,0,1.33-1.339l-.013-4a1.334,1.334,0,0,0-1.335-1.33Zm-.026-8.006a1.334,1.334,0,0,0-1.33,1.339l.013,4a1.334,1.334,0,0,0,1.334,1.33h0a1.334,1.334,0,0,0,1.33-1.339l-.013-4a1.334,1.334,0,0,0-1.334-1.33Zm-.026-8.006a1.334,1.334,0,0,0-1.33,1.339l.013,4a1.334,1.334,0,0,0,1.334,1.33h0a1.334,1.334,0,0,0,1.33-1.339l-.013-4a1.334,1.334,0,0,0-1.334-1.33Zm-.026-8.006a1.334,1.334,0,0,0-1.33,1.339l.013,4a1.334,1.334,0,0,0,1.334,1.33h0a1.334,1.334,0,0,0,1.33-1.339l-.013-4a1.334,1.334,0,0,0-1.334-1.33Zm-.026-8.006a1.334,1.334,0,0,0-1.33,1.339l.013,4a1.334,1.334,0,0,0,1.334,1.33h0a1.334,1.334,0,0,0,1.33-1.339l-.013-4a1.335,1.335,0,0,0-1.336-1.33Zm-.026-8.006a1.334,1.334,0,0,0-1.33,1.339l.013,4a1.335,1.335,0,0,0,1.334,1.33h0a1.335,1.335,0,0,0,1.33-1.339l-.013-4a1.335,1.335,0,0,0-1.335-1.33Zm-.026-8.006a1.334,1.334,0,0,0-1.33,1.339l.013,4a1.335,1.335,0,0,0,1.334,1.33h0a1.334,1.334,0,0,0,1.33-1.339l-.013-4a1.335,1.335,0,0,0-1.334-1.33Zm-.026-8.006a1.334,1.334,0,0,0-1.33,1.339l.013,4a1.334,1.334,0,0,0,1.334,1.33h0a1.334,1.334,0,0,0,1.33-1.339l-.013-4a1.335,1.335,0,0,0-1.334-1.33Zm-.026-8.006a1.334,1.334,0,0,0-1.33,1.339l.013,4a1.335,1.335,0,0,0,1.334,1.33h0a1.334,1.334,0,0,0,1.33-1.339l-.013-4a1.335,1.335,0,0,0-1.334-1.33Zm-.021-6.672a1.334,1.334,0,0,0-1.33,1.339l.009,2.669a1.335,1.335,0,0,0,1.334,1.33h0a1.334,1.334,0,0,0,1.33-1.339l-.009-2.669a1.335,1.335,0,0,0-1.336-1.33Z" transform="translate(-665.459 -418.566)" fill="none"/>
    </clipPath>
    <linearGradient id="linear-gradient-2" x1="-28.295" y1="2.232" x2="-28.253" y2="2.232" gradientUnits="objectBoundingBox">
      <stop offset="0" stop-color="#4f52ff"/>
      <stop offset="1" stop-color="#4042e2"/>
    </linearGradient>
    <clipPath id="clip-path-8">
      <path id="Trazado_727543" data-name="Trazado 727543" d="M1390.555,738.518a1.335,1.335,0,0,0-1.316,1.353l.056,4a1.334,1.334,0,0,0,1.334,1.315h.019a1.335,1.335,0,0,0,1.316-1.353l-.056-4a1.335,1.335,0,0,0-1.334-1.316Zm-.112-8a1.335,1.335,0,0,0-1.316,1.353l.056,4a1.334,1.334,0,0,0,1.334,1.316h.019a1.335,1.335,0,0,0,1.316-1.353l-.056-4a1.331,1.331,0,0,0-1.331-1.316h-.022m-.112-8.005a1.335,1.335,0,0,0-1.316,1.353l.056,4a1.334,1.334,0,0,0,1.334,1.316h.019a1.335,1.335,0,0,0,1.315-1.353l-.056-4a1.335,1.335,0,0,0-1.334-1.316Zm-.112-8a1.335,1.335,0,0,0-1.316,1.353l.056,4a1.334,1.334,0,0,0,1.334,1.316h.019a1.335,1.335,0,0,0,1.316-1.353l-.056-4a1.334,1.334,0,0,0-1.334-1.315Zm-.112-8a1.335,1.335,0,0,0-1.316,1.353l.056,4a1.334,1.334,0,0,0,1.334,1.316h.019a1.335,1.335,0,0,0,1.315-1.353l-.055-4a1.334,1.334,0,0,0-1.334-1.316Zm-1.428-6.652.056,4a1.335,1.335,0,0,0,1.334,1.315h.019a1.335,1.335,0,0,0,1.316-1.353l-.056-4a1.353,1.353,0,0,0-1.353-1.316,1.335,1.335,0,0,0-1.316,1.353m1.2-9.358a1.335,1.335,0,0,0-1.315,1.353l.056,4a1.334,1.334,0,0,0,1.334,1.315h.019a1.335,1.335,0,0,0,1.316-1.353l-.056-4a1.326,1.326,0,0,0-1.308-1.316h-.045m-.112-8.005a1.335,1.335,0,0,0-1.316,1.353l.056,4a1.334,1.334,0,0,0,1.334,1.316h.019a1.335,1.335,0,0,0,1.316-1.353l-.056-4a1.327,1.327,0,0,0-1.341-1.316h-.012m-.112-8a1.336,1.336,0,0,0-1.316,1.353l.056,4a1.335,1.335,0,0,0,1.334,1.316h.019a1.335,1.335,0,0,0,1.315-1.353l-.056-4a1.334,1.334,0,0,0-1.334-1.316Zm-.112-8a1.335,1.335,0,0,0-1.315,1.353l.056,4a1.334,1.334,0,0,0,1.334,1.315h.019a1.335,1.335,0,0,0,1.316-1.353l-.056-4a1.335,1.335,0,0,0-1.322-1.316h-.031m-.112-8a1.335,1.335,0,0,0-1.316,1.353l.056,4a1.335,1.335,0,0,0,1.334,1.316h.019a1.335,1.335,0,0,0,1.316-1.353l-.056-4a1.335,1.335,0,0,0-1.334-1.316Zm-.111-8a1.335,1.335,0,0,0-1.316,1.353l.056,4a1.334,1.334,0,0,0,1.334,1.315h.019a1.335,1.335,0,0,0,1.316-1.353l-.056-4a1.335,1.335,0,0,0-1.334-1.316Zm-.112-8a1.335,1.335,0,0,0-1.315,1.353l.056,4a1.334,1.334,0,0,0,1.334,1.316h.019a1.335,1.335,0,0,0,1.316-1.353l-.056-4a1.344,1.344,0,0,0-1.336-1.316h-.017m-.111-8.005a1.335,1.335,0,0,0-1.316,1.353l.056,4a1.334,1.334,0,0,0,1.334,1.316h.019a1.335,1.335,0,0,0,1.316-1.353l-.056-4a1.335,1.335,0,0,0-1.334-1.316Zm-.112-8a1.335,1.335,0,0,0-1.316,1.353l.056,4a1.334,1.334,0,0,0,1.334,1.316h.019a1.335,1.335,0,0,0,1.316-1.353l-.056-4a1.32,1.32,0,0,0-1.316-1.316h-.036m-.112-8a1.335,1.335,0,0,0-1.316,1.353l.056,4a1.334,1.334,0,0,0,1.334,1.316h.019a1.335,1.335,0,0,0,1.316-1.353l-.056-4a1.334,1.334,0,0,0-1.334-1.315Zm-.112-8a1.335,1.335,0,0,0-1.316,1.353l.056,4a1.335,1.335,0,0,0,1.334,1.316h.019a1.335,1.335,0,0,0,1.315-1.353l-.056-4a1.334,1.334,0,0,0-1.334-1.316Zm-.112-8a1.335,1.335,0,0,0-1.316,1.353l.056,4a1.335,1.335,0,0,0,1.334,1.316h.019a1.335,1.335,0,0,0,1.316-1.353l-.056-4a1.329,1.329,0,0,0-1.33-1.316h-.023m-1.427-6.652.056,4a1.335,1.335,0,0,0,1.334,1.315h.019a1.335,1.335,0,0,0,1.316-1.353l-.056-4a1.334,1.334,0,1,0-2.668.037m1.2-9.358a1.335,1.335,0,0,0-1.316,1.353l.056,4a1.335,1.335,0,0,0,1.334,1.315h.019a1.335,1.335,0,0,0,1.316-1.353l-.056-4a1.338,1.338,0,0,0-1.313-1.316h-.04" transform="translate(-1387.115 -586.426)" fill="none"/>
    </clipPath>
    <linearGradient id="linear-gradient-3" x1="-37.768" y1="1.848" x2="-37.741" y2="1.848" xlink:href="#linear-gradient-2"/>
    <clipPath id="clip-path-9">
      <path id="Trazado_727544" data-name="Trazado 727544" d="M2183.27,838.547a1.335,1.335,0,0,0-1.334,1.33l-.013,4a1.334,1.334,0,0,0,1.33,1.339h0a1.334,1.334,0,0,0,1.334-1.33l.013-4a1.334,1.334,0,0,0-1.331-1.339Zm.026-8.005a1.334,1.334,0,0,0-1.334,1.33l-.013,4a1.334,1.334,0,0,0,1.33,1.339h0a1.334,1.334,0,0,0,1.334-1.33l.013-4a1.334,1.334,0,0,0-1.331-1.339Zm.027-8.006a1.335,1.335,0,0,0-1.334,1.33l-.013,4a1.334,1.334,0,0,0,1.33,1.339h0a1.334,1.334,0,0,0,1.334-1.33l.014-4a1.335,1.335,0,0,0-1.331-1.339Zm.026-8.005a1.334,1.334,0,0,0-1.334,1.33l-.013,4a1.334,1.334,0,0,0,1.33,1.339h0a1.335,1.335,0,0,0,1.334-1.33l.013-4a1.335,1.335,0,0,0-1.331-1.339Zm.027-8.006a1.334,1.334,0,0,0-1.334,1.33l-.013,4a1.334,1.334,0,0,0,1.33,1.339h0a1.334,1.334,0,0,0,1.334-1.33l.014-4a1.335,1.335,0,0,0-1.331-1.339Zm.027-8.005a1.334,1.334,0,0,0-1.334,1.33l-.013,4a1.334,1.334,0,0,0,1.33,1.339h0a1.335,1.335,0,0,0,1.334-1.33l.014-4a1.335,1.335,0,0,0-1.331-1.339Zm.026-8.006a1.335,1.335,0,0,0-1.335,1.33l-.013,4a1.334,1.334,0,0,0,1.33,1.339h0a1.335,1.335,0,0,0,1.334-1.33l.014-4a1.334,1.334,0,0,0-1.33-1.339Zm.027-8.006a1.334,1.334,0,0,0-1.334,1.33l-.013,4a1.334,1.334,0,0,0,1.33,1.339h0a1.335,1.335,0,0,0,1.334-1.33l.013-4a1.334,1.334,0,0,0-1.33-1.339Zm.027-8.006a1.335,1.335,0,0,0-1.335,1.33l-.013,4a1.334,1.334,0,0,0,1.33,1.339h0a1.335,1.335,0,0,0,1.334-1.33l.014-4a1.335,1.335,0,0,0-1.332-1.339Zm.026-8.006a1.335,1.335,0,0,0-1.334,1.33l-.013,4a1.334,1.334,0,0,0,1.33,1.339h0a1.335,1.335,0,0,0,1.334-1.33l.014-4a1.334,1.334,0,0,0-1.33-1.339Zm.026-8.006a1.335,1.335,0,0,0-1.334,1.33l-.013,4a1.334,1.334,0,0,0,1.33,1.339h0a1.335,1.335,0,0,0,1.334-1.33l.013-4a1.334,1.334,0,0,0-1.33-1.339Zm.026-8.006a1.334,1.334,0,0,0-1.334,1.33l-.013,4a1.334,1.334,0,0,0,1.33,1.339h0a1.334,1.334,0,0,0,1.334-1.33l.013-4a1.334,1.334,0,0,0-1.33-1.339Zm.027-8.006a1.335,1.335,0,0,0-1.334,1.33l-.013,4a1.334,1.334,0,0,0,1.33,1.339h0a1.334,1.334,0,0,0,1.334-1.33l.013-4a1.334,1.334,0,0,0-1.33-1.339Zm.027-8.006a1.335,1.335,0,0,0-1.334,1.33l-.013,4a1.335,1.335,0,0,0,1.33,1.339h0a1.334,1.334,0,0,0,1.334-1.33l.013-4a1.334,1.334,0,0,0-1.33-1.339Zm.026-8.005a1.335,1.335,0,0,0-1.334,1.33l-.013,4a1.335,1.335,0,0,0,1.33,1.339h0a1.334,1.334,0,0,0,1.334-1.33l.013-4a1.334,1.334,0,0,0-1.33-1.339Zm.027-8.006a1.335,1.335,0,0,0-1.334,1.33l-.013,4a1.334,1.334,0,0,0,1.33,1.339h0a1.335,1.335,0,0,0,1.334-1.33l.013-4a1.334,1.334,0,0,0-1.33-1.339Zm.027-8.005a1.335,1.335,0,0,0-1.334,1.33l-.013,4a1.334,1.334,0,0,0,1.33,1.339h0a1.335,1.335,0,0,0,1.334-1.33l.013-4a1.334,1.334,0,0,0-1.33-1.339Z" transform="translate(-2181.922 -710.458)" fill="none"/>
    </clipPath>
    <linearGradient id="linear-gradient-4" x1="-92.93" y1="2.056" x2="-92.887" y2="2.056" xlink:href="#linear-gradient-2"/>
    <clipPath id="clip-path-10">
      <path id="Trazado_727545" data-name="Trazado 727545" d="M553.976,1176.428a17.391,17.391,0,1,0,17.391-17.391,17.391,17.391,0,0,0-17.391,17.391" transform="translate(-553.976 -1159.037)" fill="#115089"/>
    </clipPath>
    <clipPath id="clip-path-11">
      <path id="Trazado_727546" data-name="Trazado 727546" d="M571.159,1283.194H553.768s-1.384,9.653,14.137,36.092a3.8,3.8,0,0,0,6.506.013c15.52-26.442,14.107-36.1,14.107-36.1Z" transform="translate(-553.737 -1283.194)" fill="#115089"/>
    </clipPath>
    <clipPath id="clip-path-13">
      <path id="Trazado_727552" data-name="Trazado 727552" d="M1291.654,1531.763a17.391,17.391,0,1,0,17.391-17.391,17.391,17.391,0,0,0-17.391,17.391" transform="translate(-1291.654 -1514.372)" fill="#115089"/>
    </clipPath>
    <clipPath id="clip-path-15">
      <path id="Trazado_727553" data-name="Trazado 727553" d="M1308.838,1638.528h-17.391s-1.385,9.653,14.137,36.092a3.8,3.8,0,0,0,6.506.012c15.52-26.442,14.107-36.1,14.107-36.1Z" transform="translate(-1291.415 -1638.528)" fill="#115089"/>
    </clipPath>
    <clipPath id="clip-path-19">
      <path id="Trazado_727559" data-name="Trazado 727559" d="M1820.406,326.831c0,25.761,21.673,46.644,48.407,46.644s49.6-21.8,49.6-47.556-22.87-45.731-49.6-45.731-48.407,20.883-48.407,46.643" transform="translate(-1820.406 -280.187)" fill="#265e91"/>
    </clipPath>
    <clipPath id="clip-path-21">
      <path id="Trazado_727562" data-name="Trazado 727562" d="M1870.087,367.847c0,22.3,18.76,40.375,41.9,40.375s42.938-18.866,42.938-41.165-19.8-39.585-42.938-39.585-41.9,18.077-41.9,40.375" transform="translate(-1870.087 -327.472)" fill="#115089"/>
    </clipPath>
    <clipPath id="clip-path-22">
      <path id="Trazado_727563" data-name="Trazado 727563" d="M1870.088,367.847c0,20.042,15.156,36.669,35.025,39.831l6.635-41.068,32.278-25.879a44.743,44.743,0,0,0-32.037-13.26c-23.142,0-41.9,18.077-41.9,40.375" transform="translate(-1870.088 -327.472)" fill="#115089"/>
    </clipPath>
    <clipPath id="clip-path-23">
      <rect id="Rectángulo_350235" data-name="Rectángulo 350235" width="372.397" height="371.182" fill="#115089"/>
    </clipPath>
    <clipPath id="clip-path-24">
      <rect id="Rectángulo_350222" data-name="Rectángulo 350222" width="78.158" height="72.876" fill="none"/>
    </clipPath>
    <clipPath id="clip-path-25">
      <path id="Trazado_727564" data-name="Trazado 727564" d="M1913.11,372.439c0,20.124,17.282,36.438,38.6,36.438s39.556-17.027,39.556-37.151S1973.03,336,1951.711,336s-38.6,16.314-38.6,36.438" transform="translate(-1913.11 -336.001)" fill="none"/>
    </clipPath>
    <linearGradient id="linear-gradient-5" x1="-3.245" y1="4.482" x2="-3.243" y2="4.482" xlink:href="#linear-gradient"/>
    <clipPath id="clip-path-26">
      <rect id="Rectángulo_350223" data-name="Rectángulo 350223" width="6.452" height="6.217" fill="none"/>
    </clipPath>
    <clipPath id="clip-path-28">
      <rect id="Rectángulo_350225" data-name="Rectángulo 350225" width="6.453" height="6.217" fill="none"/>
    </clipPath>
    <clipPath id="clip-path-30">
      <rect id="Rectángulo_350227" data-name="Rectángulo 350227" width="1.954" height="2.92" fill="none"/>
    </clipPath>
    <clipPath id="clip-path-31">
      <rect id="Rectángulo_350228" data-name="Rectángulo 350228" width="1.955" height="2.922" fill="none"/>
    </clipPath>
    <clipPath id="clip-path-32">
      <rect id="Rectángulo_350229" data-name="Rectángulo 350229" width="2.79" height="2.203" fill="none"/>
    </clipPath>
    <clipPath id="clip-path-33">
      <rect id="Rectángulo_350230" data-name="Rectángulo 350230" width="2.79" height="2.202" fill="none"/>
    </clipPath>
    <clipPath id="clip-path-34">
      <rect id="Rectángulo_350231" data-name="Rectángulo 350231" width="2.965" height="1.981" fill="none"/>
    </clipPath>
    <clipPath id="clip-path-35">
      <rect id="Rectángulo_350232" data-name="Rectángulo 350232" width="2.964" height="1.981" fill="none"/>
    </clipPath>
    <clipPath id="clip-path-36">
      <rect id="Rectángulo_350233" data-name="Rectángulo 350233" width="2.178" height="2.771" fill="none"/>
    </clipPath>
    <clipPath id="clip-path-38">
      <path id="Trazado_727577" data-name="Trazado 727577" d="M2188.012,622.409a.7.7,0,0,0,.281.962l25.087,13.906a.7.7,0,0,1,.151,1.129l-2.826,2.685a.707.707,0,0,0,.366,1.208l24.134,4.965a.716.716,0,0,0,.645-1.235l-18.738-15.9a.744.744,0,0,0-1.232.558l.1,3.214a.74.74,0,0,1-1.073.661l-25.915-12.454a.764.764,0,0,0-.331-.075.747.747,0,0,0-.652.373" transform="translate(-2187.921 -622.036)" fill="#ffa031"/>
    </clipPath>
    <clipPath id="clip-path-40">
      <rect id="Rectángulo_350237" data-name="Rectángulo 350237" width="19.553" height="4.512" fill="none"/>
    </clipPath>
    <clipPath id="clip-path-41">
      <path id="Trazado_727579" data-name="Trazado 727579" d="M2142.708,294.254l-5.316,20.581a.648.648,0,0,0,.953.7l2.57-1.38a.655.655,0,0,1,.972.541l-.046,21.526a.655.655,0,0,0,1.308.018l1.562-21.49a.651.651,0,0,1,.855-.572l3.327,1.042a.643.643,0,0,0,.833-.766l-5.754-20.217a.661.661,0,0,0-1.265.014" transform="translate(-2137.372 -293.776)" fill="#ffa031"/>
    </clipPath>
    <clipPath id="clip-path-43">
      <rect id="Rectángulo_350240" data-name="Rectángulo 350240" width="6.474" height="16.29" fill="none"/>
    </clipPath>
    <clipPath id="clip-path-44">
      <path id="Trazado_727581" data-name="Trazado 727581" d="M2161.815,601.5a3.448,3.448,0,1,0,3.446-3.32,3.385,3.385,0,0,0-3.446,3.32" transform="translate(-2161.815 -598.182)" fill="#ffa031"/>
    </clipPath>
    <clipPath id="clip-path-45">
      <path id="Trazado_727582" data-name="Trazado 727582" d="M1022.086,512.705c0,25.761,21.673,46.644,48.407,46.644s49.6-21.8,49.6-47.556-22.87-45.731-49.6-45.731-48.407,20.883-48.407,46.643" transform="translate(-1022.086 -466.062)" fill="#265e91"/>
    </clipPath>
    <clipPath id="clip-path-47">
      <path id="Trazado_727585" data-name="Trazado 727585" d="M1071.767,553.722c0,22.3,18.76,40.375,41.9,40.375s42.939-18.866,42.939-41.165-19.8-39.585-42.939-39.585-41.9,18.077-41.9,40.375" transform="translate(-1071.767 -513.347)" fill="#ffa031"/>
    </clipPath>
    <clipPath id="clip-path-48">
      <path id="Trazado_727586" data-name="Trazado 727586" d="M1071.768,553.722c0,20.042,15.156,36.669,35.025,39.831l6.635-41.068,32.278-25.879a44.742,44.742,0,0,0-32.037-13.259c-23.142,0-41.9,18.077-41.9,40.375" transform="translate(-1071.768 -513.347)" fill="#ffa031"/>
    </clipPath>
    <clipPath id="clip-path-50">
      <rect id="Rectángulo_350247" data-name="Rectángulo 350247" width="78.158" height="72.875" fill="none"/>
    </clipPath>
    <clipPath id="clip-path-53">
      <rect id="Rectángulo_350250" data-name="Rectángulo 350250" width="6.453" height="6.219" fill="none"/>
    </clipPath>
    <clipPath id="clip-path-55">
      <rect id="Rectángulo_350252" data-name="Rectángulo 350252" width="1.954" height="2.922" fill="none"/>
    </clipPath>
    <clipPath id="clip-path-56">
      <rect id="Rectángulo_350253" data-name="Rectángulo 350253" width="1.955" height="2.92" fill="none"/>
    </clipPath>
    <clipPath id="clip-path-61">
      <rect id="Rectángulo_350258" data-name="Rectángulo 350258" width="2.179" height="2.771" fill="none"/>
    </clipPath>
    <clipPath id="clip-path-63">
      <path id="Trazado_727600" data-name="Trazado 727600" d="M1394.773,439.565l-13.115,20.78a.744.744,0,0,0,.725,1.141l3.168-.551a.74.74,0,0,1,.805.969l-8.7,27.4a.756.756,0,0,0,.432.931.7.7,0,0,0,.913-.413l10.255-26.788a.7.7,0,0,1,1.1-.307l3.054,2.422a.707.707,0,0,0,1.145-.532l1.536-24.591a.735.735,0,0,0-.73-.8.679.679,0,0,0-.583.333" transform="translate(-1377.62 -439.232)" fill="#115089"/>
    </clipPath>
    <clipPath id="clip-path-64">
      <path id="Trazado_727601" data-name="Trazado 727601" d="M1483.242,459.757l-2.66,4.517a.343.343,0,0,0,.109.46.314.314,0,0,0,.443-.108l2.66-4.517c-.425,5.578-1.293,18.624-1.281,18.891a.332.332,0,0,0,.336.323.325.325,0,0,0,.308-.338c0-.388.664-10.385,1.228-18.841a.681.681,0,0,0,0-.142.63.63,0,0,0-.424-.515.616.616,0,0,0-.2-.033.6.6,0,0,0-.516.3" transform="translate(-1480.536 -459.453)" fill="none"/>
    </clipPath>
    <linearGradient id="linear-gradient-6" x1="-50.338" y1="15.611" x2="-50.304" y2="15.611" xlink:href="#linear-gradient"/>
    <clipPath id="clip-path-65">
      <path id="Trazado_727602" data-name="Trazado 727602" d="M1377.8,807.111a.644.644,0,0,0-.043.9l14.151,16.248a.651.651,0,0,1-.2,1.01l-3.083,1.627a.643.643,0,0,0-.043,1.131l18.4,10.16a.661.661,0,0,0,.881-.908L1397.007,819a.648.648,0,0,0-1.17.181l-.831,2.8a.654.654,0,0,1-1.069.309l-15.245-15.2a.617.617,0,0,0-.43-.171.665.665,0,0,0-.461.188" transform="translate(-1377.596 -806.923)" fill="#115089"/>
    </clipPath>
    <clipPath id="clip-path-66">
      <path id="Trazado_727603" data-name="Trazado 727603" d="M1479.866,966.556a.3.3,0,0,0-.062.09.281.281,0,0,0,.138.375c.3.144,7.764,4.3,14.078,7.827a.569.569,0,0,0,.753-.8l-2.437-3.815a.284.284,0,0,0-.4-.077.3.3,0,0,0-.092.4l2.437,3.815c-4.144-2.367-13.884-7.8-14.1-7.888a.281.281,0,0,0-.109-.022.3.3,0,0,0-.212.089" transform="translate(-1479.778 -966.467)" fill="none"/>
    </clipPath>
    <linearGradient id="linear-gradient-7" x1="-12.926" y1="28.573" x2="-12.918" y2="28.573" xlink:href="#linear-gradient"/>
    <clipPath id="clip-path-67">
      <path id="Trazado_727604" data-name="Trazado 727604" d="M1363.495,787.376a3.448,3.448,0,1,0,3.446-3.32,3.385,3.385,0,0,0-3.446,3.32" transform="translate(-1363.495 -784.056)" fill="#115089"/>
    </clipPath>
    <clipPath id="clip-path-68">
      <path id="Trazado_727605" data-name="Trazado 727605" d="M255.337,268.133c0,25.761,21.673,46.644,48.407,46.644s49.6-21.8,49.6-47.556-22.87-45.731-49.6-45.731-48.407,20.883-48.407,46.644" transform="translate(-255.337 -221.489)" fill="#265e91"/>
    </clipPath>
    <clipPath id="clip-path-70">
      <path id="Trazado_727608" data-name="Trazado 727608" d="M305.018,309.15c0,22.3,18.76,40.375,41.9,40.375s42.938-18.866,42.938-41.165-19.8-39.585-42.938-39.585-41.9,18.077-41.9,40.375" transform="translate(-305.018 -268.775)" fill="#115089"/>
    </clipPath>
    <clipPath id="clip-path-71">
      <path id="Trazado_727609" data-name="Trazado 727609" d="M305.019,309.15c0,20.041,15.155,36.669,35.025,39.831l6.636-41.068,32.278-25.879a44.742,44.742,0,0,0-32.037-13.26c-23.142,0-41.9,18.077-41.9,40.375" transform="translate(-305.019 -268.775)" fill="#115089"/>
    </clipPath>
    <clipPath id="clip-path-73">
      <rect id="Rectángulo_350271" data-name="Rectángulo 350271" width="78.157" height="72.876" fill="none"/>
    </clipPath>
    <clipPath id="clip-path-74">
      <path id="Trazado_727610" data-name="Trazado 727610" d="M348.041,313.741c0,20.124,17.282,36.438,38.6,36.438S426.2,333.152,426.2,313.028,407.961,277.3,386.642,277.3s-38.6,16.314-38.6,36.438" transform="translate(-348.041 -277.303)" fill="none"/>
    </clipPath>
    <linearGradient id="linear-gradient-8" x1="-0.59" y1="4.589" x2="-0.589" y2="4.589" xlink:href="#linear-gradient"/>
    <clipPath id="clip-path-75">
      <rect id="Rectángulo_350272" data-name="Rectángulo 350272" width="6.452" height="6.216" fill="none"/>
    </clipPath>
    <clipPath id="clip-path-81">
      <rect id="Rectángulo_350278" data-name="Rectángulo 350278" width="2.791" height="2.202" fill="none"/>
    </clipPath>
    <clipPath id="clip-path-87">
      <path id="Trazado_727623" data-name="Trazado 727623" d="M612.142,552.568a.7.7,0,0,0,.023,1L632.8,573.5a.7.7,0,0,1-.147,1.129l-3.424,1.861a.707.707,0,0,0,.04,1.262l22.025,11.045a.717.717,0,0,0,.943-1.027l-13.982-20.206a.744.744,0,0,0-1.334.22l-.734,3.131a.74.74,0,0,1-1.207.361l-21.807-18.74a.764.764,0,0,0-.5-.185.736.736,0,0,0-.527.217" transform="translate(-611.943 -552.35)" fill="#ffa031"/>
    </clipPath>
    <clipPath id="clip-path-89">
      <rect id="Rectángulo_350286" data-name="Rectángulo 350286" width="17.993" height="9.205" fill="none"/>
    </clipPath>
    <clipPath id="clip-path-90">
      <path id="Trazado_727625" data-name="Trazado 727625" d="M378.741,570.372l-19.553,9.051a.652.652,0,0,1-.915-.471l-.7-3.415a.643.643,0,0,0-1.074-.358L341.6,590.011a.661.661,0,0,0,.626,1.1l20.578-5.326a.648.648,0,0,0,.153-1.174l-2.453-1.579a.654.654,0,0,1,0-1.112l18.85-10.394a.642.642,0,0,0,.232-.861.659.659,0,0,0-.578-.355.611.611,0,0,0-.272.064" transform="translate(-341.416 -570.308)" fill="#ffa031"/>
    </clipPath>
    <clipPath id="clip-path-92">
      <rect id="Rectángulo_350289" data-name="Rectángulo 350289" width="12.118" height="12.397" fill="none"/>
    </clipPath>
    <clipPath id="clip-path-93">
      <path id="Trazado_727627" data-name="Trazado 727627" d="M596.747,542.8a3.448,3.448,0,1,0,3.445-3.32,3.384,3.384,0,0,0-3.445,3.32" transform="translate(-596.747 -539.484)" fill="#ffa031"/>
    </clipPath>
    <clipPath id="clip-path-96">
      <rect id="Rectángulo_350295" data-name="Rectángulo 350295" width="14.506" height="53.719" fill="none"/>
    </clipPath>
  </defs>
  <g id="Grupo_1026808" data-name="Grupo 1026808" clip-path="url(#clip-path)">
    <g id="Grupo_1026563" data-name="Grupo 1026563" transform="translate(3.315 6.231)">
      <g id="Grupo_1026562" data-name="Grupo 1026562" clip-path="url(#clip-path-2)">
        <rect id="Rectángulo_350199" data-name="Rectángulo 350199" width="539.435" height="537.693" transform="matrix(0.734, -0.68, 0.68, 0.734, -202.221, 168.566)" fill="url(#linear-gradient)"/>
      </g>
    </g>
    <g id="Grupo_1026579" data-name="Grupo 1026579" transform="translate(11.104 101.351)">
      <g id="Grupo_1026578" data-name="Grupo 1026578" clip-path="url(#clip-path-4)">
        <rect id="Rectángulo_350205" data-name="Rectángulo 350205" width="359.013" height="226.386" transform="translate(0 0)" fill="#2e6a90"/>
      </g>
    </g>
    <g id="Grupo_1026584" data-name="Grupo 1026584">
      <g id="Grupo_1026583" data-name="Grupo 1026583" clip-path="url(#clip-path)">
        <path id="Trazado_727529" data-name="Trazado 727529" d="M166.483,828.066v172.525c0,8.722,6.738,15.829,15.131,15.959l301.9,4.35c8.321.129,15.141-6.827,15.172-15.474l.567-170.984a11.167,11.167,0,0,0-10.667-11.4l-309.965-7.282a12.07,12.07,0,0,0-12.134,12.305" transform="translate(-144.413 -707.616)" fill="#91b3fa"/>
        <g id="Grupo_1026582" data-name="Grupo 1026582" transform="translate(29.281 118.866)" opacity="0.31">
          <g id="Grupo_1026581" data-name="Grupo 1026581">
            <g id="Grupo_1026580" data-name="Grupo 1026580" clip-path="url(#clip-path-6)">
              <path id="Trazado_727530" data-name="Trazado 727530" d="M521.629,1083.912,232.2,1080.583c-6.25.152-11.357-6.511-11.316-14.764l.737-146.64c.639-15.56,7.541-22.547,13.695-22.517l286.426,9.314c6.154.031,11.109,6.642,11.068,14.766l-.694,138.162c-.04,8-4.426,24.859-10.482,25.006" transform="translate(-220.88 -896.663)" fill="#fff"/>
            </g>
          </g>
        </g>
        <path id="Trazado_727531" data-name="Trazado 727531" d="M1289.043,1125.3l14.035.071a.829.829,0,0,1,.866.763l.105,5.826a.848.848,0,0,0,1.018.752l25.665-3.9a.952.952,0,0,1,.152-.011l17.634.089a1.031,1.031,0,0,0,.13-.008l19.94-2.583a.949.949,0,0,1,.679.169l4.385,3.216a.718.718,0,0,1,.135,1.072l-5.415,6.218a.71.71,0,0,0-.165.629l2.354,10.248a.7.7,0,0,1-.065.485l-8.365,15.789a.927.927,0,0,1-1.474.144l-4.891-5.6a.712.712,0,0,1-.165-.634l2.116-9.013c.181-.772-.9-1.264-1.5-.68l-5.23,5.122a.884.884,0,0,1-.364.212l-6.054,1.831a.849.849,0,0,0-.486.367l-2.98,4.942a.767.767,0,0,0,.645,1.134l6.809.863a.816.816,0,0,1,.748.73l.859,15.849a.74.74,0,0,1-.325.641l-6.43,4.586a.722.722,0,0,0-.266.887l1.47,3.334a.781.781,0,0,1-.747,1.055l-1.75.11a.919.919,0,0,1-.756-.306l-4.975-5.857a.915.915,0,0,0-1.53.25l-.53,1.628a.7.7,0,0,0,.062.569l4.851,8.414a.711.711,0,0,1-.151.895l-8.62,7.853a1.757,1.757,0,0,1-1.6.377l-1.517-.389a1.659,1.659,0,0,0-1.988.947,1.313,1.313,0,0,0,.238,1.288l4.4,5.337a1.327,1.327,0,0,1-.19,1.9l-2.439,2.06a1.765,1.765,0,0,1-2.253-.023l-13.546-11.949a1.764,1.764,0,0,0-2.282,0l-7.3,6.486a1.4,1.4,0,0,0-.433.7l-.608,2.367a1.692,1.692,0,0,1-2.865.55l-11.373-13.289a2,2,0,0,0-1.26-.664l-7.865-1.052a2.113,2.113,0,0,1-.646-.193l-3.243-1.58c-.9-.44-1.917.393-1.5,1.229l.735,1.458a1.932,1.932,0,0,0,1.473,1l5.478.77a1.912,1.912,0,0,1,1.521,1.107l.268.641a1.636,1.636,0,0,1-.78,2.064l-12.143,6.853a1.142,1.142,0,0,1-1.547-.4l-7.258-13.652a1.13,1.13,0,0,0-1.336-.492.924.924,0,0,0-.605,1.309l6.172,11.557a5.331,5.331,0,0,0,5.845,2.466l1.026-.226a1.829,1.829,0,0,1,2.315,2.226l-1.559,4.191a1.743,1.743,0,0,1-.634.809l-5.579,3.955a4.348,4.348,0,0,0-1.916,3.8l.281,4.632a4.313,4.313,0,0,1-1.7,3.634l-2.245,1.783a3.389,3.389,0,0,0-1.323,3.063l.114.938a3.384,3.384,0,0,1-1.293,3.039l-8.52,6.906a4.391,4.391,0,0,1-3.579.851l-1.652-.323a3.909,3.909,0,0,1-2.97-2.382l-4.7-12.612a3.337,3.337,0,0,1,1.151-3.814,3.34,3.34,0,0,0,1.168-3.767l-2.6-7.314a5.916,5.916,0,0,0-6.791-3.481l-6.717,1.336a1.914,1.914,0,0,1-1.555-.361l-9.462-7.545a1.493,1.493,0,0,1-.585-1.172l.044-8.78a9.354,9.354,0,0,1,2.692-6.44l1.164-1.21a13.6,13.6,0,0,1,8.506-3.991l6.806-.654,4.593-.505a1.749,1.749,0,0,1,1.936,1.232l.315,1.338a1.609,1.609,0,0,0,.957,1.088l6.578,2.826.819-2.686,12.024,1.256.194-3.094a.984.984,0,0,0-.856-.99l-5.138-.947-2.16-4.178-3.9-.843,1.727,5.107-3.071-3.348-4.273-3.93a1.919,1.919,0,0,0-2.3-.171,1.455,1.455,0,0,0-.228,2.332l3.969,3.721-2.345-.005a1.885,1.885,0,0,1-1.163-.4l-4.645-3.677a1.912,1.912,0,0,0-2.465.114l-3.836,3.75a1.822,1.822,0,0,1-.994.486l-3.068.478a1.753,1.753,0,0,1-2.031-1.255l-.643-3.078a1.642,1.642,0,0,1,1.867-1.841l2.221.162a1.613,1.613,0,0,0,1.8-2.067l-1.016-2.612a1.473,1.473,0,0,1,.677-1.806l7.693-4.61,11.611-.781,2.254-6.677-2.968-.964,1.08-5.926-2.231.207L1240.14,1162l.185,5.5-3.427,1.139-1.809-4.2-2.869,1.631-1.507-5.464a.16.16,0,0,1,.032-.145l11.5-14.142,15.2,4.085.16,2.415-3.944,1.572-.239,3.723,6.443-4.58,9.171-4.463.2-2.94,4.134,0a.95.95,0,0,1,.471.123l1.539.881c.694.4,1.56-.206,1.294-.9l-1.715-4.47a.7.7,0,0,1,.112-.7l1.494-1.882a.916.916,0,0,1,.8-.323l3.766.366a.933.933,0,0,1,.44.158l.472.326c.717.5,1.7-.192,1.327-.929a.764.764,0,0,1,.621-1.076l1.759-.315a.75.75,0,0,0,.332-1.39l-.914-.58a.724.724,0,0,1-.073-1.211l4.448-3.507a.9.9,0,0,1,.269-.144l3.723-1.254a.746.746,0,0,0,.466-1.077l-.349-.607a.912.912,0,0,0-1-.4l-3.483.811a.848.848,0,0,1-1.09-.794l.077-1.209a.833.833,0,0,1,.873-.73" transform="translate(-1050.204 -976.125)" fill="#fff" fill-rule="evenodd"/>
        <path id="Trazado_727532" data-name="Trazado 727532" d="M2133.1,1921.49l-8.079,2.615a1.582,1.582,0,0,0-.852.64l-2.377,3.719a1.6,1.6,0,0,1-.985.677l-7.248,1.736a1.452,1.452,0,0,0-1.183,1.569l1.323,9.348a1.3,1.3,0,0,1-.134.779l-1.079,2.1a1.421,1.421,0,0,0,1.134,2.009l1.324.253a1.806,1.806,0,0,0,.982-.086l11.7-4.5a1.735,1.735,0,0,1,2,.538l2.7,3.7a1.507,1.507,0,0,0,.279.289l4.213,3.352a1.755,1.755,0,0,0,1.276.356l6.814-.742a1.516,1.516,0,0,0,1.419-1.379l.111-2.928a1.339,1.339,0,0,1,.3-.784l4.2-5.273a1.334,1.334,0,0,0,.3-.826l.021-4.074a1.368,1.368,0,0,0-.484-1.035l-5.623-4.922a1.421,1.421,0,0,1-.418-.62l-1.031-3.112a1.684,1.684,0,0,0-3.1-.022l-.374,1.074a1.7,1.7,0,0,1-2.529.716l-1.278-.871a1.342,1.342,0,0,1-.467-1.783l.016-.03a1.355,1.355,0,0,0-.583-1.855l-.865-.49a1.792,1.792,0,0,0-1.422-.139" transform="translate(-1832.315 -1666.693)" fill="#fff" fill-rule="evenodd"/>
        <path id="Trazado_727533" data-name="Trazado 727533" d="M2252.158,1846.6l-.178.521a1.351,1.351,0,0,0,.539,1.545l4.636,3.3a1.717,1.717,0,0,0,.69.287l8.785,1.586a1.764,1.764,0,0,1,.26.068l1.146.393c1.433.492,2.756-.9,1.972-2.078l-.46-.689a1.582,1.582,0,0,0-.782-.6l-14.451-5.243a1.671,1.671,0,0,0-2.158.914" transform="translate(-1953.386 -1600.923)" fill="#fff" fill-rule="evenodd"/>
        <path id="Trazado_727534" data-name="Trazado 727534" d="M2120.254,1806.6c-1.151,1.139-2.7,2.665-3.578,3.526a1.32,1.32,0,0,0-.3,1.5l1.92,4.315a1.673,1.673,0,0,0,1.9.869l2.959-.651a1.55,1.55,0,0,0,1.158-.978l1.179-3.456a1.3,1.3,0,0,0-.154-1.15l-2.481-3.736a1.734,1.734,0,0,0-2.594-.235" transform="translate(-1835.716 -1566.698)" fill="#fff" fill-rule="evenodd"/>
        <path id="Trazado_727535" data-name="Trazado 727535" d="M2013.205,1810.4l6.7,7.565c.021.023.042.046.065.069l4.124,4.107a1.7,1.7,0,0,0,1.084.477l7.933.543-.048.133a1.6,1.6,0,0,1-1.468,1l-11.086.438a1.689,1.689,0,0,1-1.427-.651l-8.706-11.829a1.328,1.328,0,0,1,.255-1.847l.209-.172a1.755,1.755,0,0,1,2.369.168" transform="translate(-1743.638 -1569.931)" fill="#fff" fill-rule="evenodd"/>
        <path id="Trazado_727536" data-name="Trazado 727536" d="M355.047,1232.642l-2.014,2.6a1.276,1.276,0,0,1-1.256.435l-3.764-.765a1.105,1.105,0,0,1-.935-1.048l.012-2.394a1.135,1.135,0,0,0-1.147-1.074l-2.175-.091a1.072,1.072,0,0,1-1-1.577l2.351-3.879-3.655-1.089s-2.772,3.971-3.323,3.988-4.16-5.035-4.16-5.035l4.565-5.131,7.01-.151,3.337,4.326,2.124-6.966,7.827-5.24,15.461-9.664a.719.719,0,0,0,.258-.275l2.894-5.534a.635.635,0,0,0-.112-.741l-4.561-4.808a.658.658,0,0,1-.181-.386l-.264-2.608a.806.806,0,0,0-1.46-.276.835.835,0,0,1-1.3.092l-3.076-3.487a1.836,1.836,0,0,0-2.64-.038l-3.933,4.182a1.486,1.486,0,0,0-.266.392l-1.723,3.706a1.791,1.791,0,0,1-3.11.059l-.091-.173a1.606,1.606,0,0,0-.8-.722c-1.686-.723-6.738-2.965-6.765-3.879-.028-.948,3.4-6.168,4.334-7.574a1.607,1.607,0,0,1,.633-.547l6.576-3.254.083-.038,6.217-2.688a1.5,1.5,0,0,0,.953-1.437l-.087-1.478a1.674,1.674,0,0,0-2.069-1.4l-2.986.592a1.778,1.778,0,0,0-.779.362l-1.334,1.091a1.82,1.82,0,0,1-2.651-.405l-1.857-3.107a1.817,1.817,0,0,0-2.47-.534l-2.536,1.566a1.875,1.875,0,0,1-1.46.2l-8.576-2.311a1.791,1.791,0,0,1-.484-.21l-7.342-4.582a1.872,1.872,0,0,0-1.4-.226l-5.783,1.329a1.858,1.858,0,0,1-1.554-.334l-9.945-7.859a1.846,1.846,0,0,0-1.56-.333c-1.869.442-6.229,1.449-8.038,1.658-1.826.212-3.812,2.374-4.589,3.3a.74.74,0,0,0-.072.87l.84,1.408a.807.807,0,0,1-.667,1.191l-3.1.438a.8.8,0,0,0-.643,1.228l.728,1.079a.744.744,0,0,1,.115.574l-.575,2.694a.922.922,0,0,1-1.117.641l-2.971-.638a.891.891,0,0,0-1.132.839l.26,4.167a.767.767,0,0,0,.191.456l2.47,2.838a.765.765,0,0,1-.247,1.2c-2.434,1.31-9.042,4.861-8.391,4.45.8-.5,8.043.135,8.108-.977s4.88-2.16,5.215-2.545c.252-.289,2.075-2.635,2.967-3.784a.991.991,0,0,1,1.228-.236l7.317,3.9a1.507,1.507,0,0,1,.821,1.166l.793,7.977a1.4,1.4,0,0,0,.228.634l3.123,4.726,3.593,5.988a1.365,1.365,0,0,1,.1,1.214l-1.981,5.016a13.089,13.089,0,0,0,.909,11.5c1.686,2.9,3.417,5.9,3.516,6.167a2.538,2.538,0,0,0,.289.463,14.688,14.688,0,0,0,6.027,4.747l11.359,5.014a1.2,1.2,0,0,1,.144.075l8.359,5.076a1.173,1.173,0,0,1,.218.17l1.4,1.39a1.291,1.291,0,0,0,1.092.342,1.109,1.109,0,0,1,1.3,1.488l-2.221,4.475a.963.963,0,0,0-.09.582l1.394,8.748a1.036,1.036,0,0,0,.361.625l5.954,5.051a1.044,1.044,0,0,1,.348.556l2.065,8.785a.963.963,0,0,1,.023.156l1.607,24.212a1.046,1.046,0,0,0,.489.8l5.534,3.619a1.308,1.308,0,0,0,.792.206l1.919-.114a1.051,1.051,0,0,0,.763-1.827l-1.853-1.632a1.021,1.021,0,0,1-.355-.7l-.145-2.294c0-.022,0-.043,0-.065l.021-4.213a.943.943,0,0,1,.021-.2l.693-3.227c0-.02.008-.04.011-.06l.337-2.258a1.094,1.094,0,0,1,.718-.842l4.74-1.8a1.028,1.028,0,0,0,.627-1.413l-.612-1.242a1.049,1.049,0,0,1,.807-1.466l1.859-.414a1.2,1.2,0,0,0,.724-.466l3.855-5.439a.973.973,0,0,0-.034-1.185l-.079-.1a1.042,1.042,0,0,1,.746-1.663l2.148-.382a1.16,1.16,0,0,0,.91-.729l3.15-8.97a1.044,1.044,0,0,1,.238-.381l4.469-4.59a1,1,0,0,0-.216-1.574l-6.124-3.85a1.31,1.31,0,0,0-.745-.2l-4.4.168a1.3,1.3,0,0,1-.8-.23l-2.641-1.859a1.036,1.036,0,0,1-.456-.814l-.077-2.889a1.1,1.1,0,0,0-.852-1l-5.377-1.46a1.253,1.253,0,0,1-.4-.189l-3.344-2.384a1.322,1.322,0,0,0-1.2-.157l-2.715.977a1.336,1.336,0,0,1-1.011-.045L356.6,1232.3a1.293,1.293,0,0,0-1.549.338" transform="translate(-246.448 -999.432)" fill="#fff" fill-rule="evenodd"/>
        <path id="Trazado_727537" data-name="Trazado 727537" d="M857.088,1200.624l.7-3.018a1.623,1.623,0,0,1,1.382-1.184l4.939-.733a1.88,1.88,0,0,1,1.124.179l6.086,3.1a.653.653,0,0,1,.235,1.023l-2.436,2.855a.634.634,0,0,0-.023.812l3.467,4.521a.638.638,0,0,1,.131.469l-.659,5.207a.641.641,0,0,1-.112.288l-1.93,2.773a.824.824,0,0,1-.846.309l-5.265-1.131a1.817,1.817,0,0,1-.249-.072l-.474-.174a1.451,1.451,0,0,1-.1-2.759l.986-.426a1.478,1.478,0,0,0,.942-1.553,18.886,18.886,0,0,0-.892-4.044,9.1,9.1,0,0,1-.593-2.69,1.594,1.594,0,0,0-1.377-1.334l-3.691-.62a1.532,1.532,0,0,1-1.351-1.794" transform="translate(-743.438 -1037.165)" fill="#fff" fill-rule="evenodd"/>
        <path id="Trazado_727538" data-name="Trazado 727538" d="M678.535,1157.961l-2.267,1.659a1.4,1.4,0,0,0-.27,2.086l2.165,2.522a1.576,1.576,0,0,1,.107.14l2.824,4.188a1.669,1.669,0,0,0,.842.632l2.661.922a1.866,1.866,0,0,0,1.716-.256l1.856-1.4a1.556,1.556,0,0,0,.408-.457l2.162-3.712a1.379,1.379,0,0,0,.19-.694,1.734,1.734,0,0,0-2.9-1.076l-.115.1a1.848,1.848,0,0,1-2.451-.051l-4.6-4.458a1.853,1.853,0,0,0-2.331-.146" transform="translate(-586.081 -1004.158)" fill="#fff" fill-rule="evenodd"/>
        <path id="Trazado_727539" data-name="Trazado 727539" d="M992.264,1064.708l-8.213,5.886a.649.649,0,0,0-.251.76l1.541,4.121a.747.747,0,0,0,.517.447l4.6,1.225a.906.906,0,0,1,.692.736l1.178,9.195a.782.782,0,0,1-.061.415l-2.79,6.361a.779.779,0,0,0-.035.538l2.286,7.723a.905.905,0,0,0,.535.568l1.889.78a1.039,1.039,0,0,0,1.265-.367l3.792-6.091a.936.936,0,0,1,.409-.352l6.246-2.845a.988.988,0,0,0,.216-.134l9.168-7.5a.852.852,0,0,0,.291-.446l3.267-12.749a.835.835,0,0,1,.2-.358l5.057-5.488a.8.8,0,0,0,.163-.848l-.577-1.413a1.019,1.019,0,0,0-1.295-.507l-2.822,1.045a1.088,1.088,0,0,1-.549.053l-1.737-.278a.855.855,0,0,1-.064-1.7.839.839,0,0,0,.42-1.489l-.621-.5a.92.92,0,0,1-.148-.151l-2.219-2.855a1.018,1.018,0,0,0-.8-.375l-6.289-.031a1.041,1.041,0,0,0-.695.253l-3.552,3.15a.81.81,0,0,0-.271.774l.351,1.684a.947.947,0,0,1-1.326.964l-1.993-.716a.944.944,0,0,1-.514-.426l-.578-1.055a1.036,1.036,0,0,0-1.314-.4l-5.185,2.294a1.009,1.009,0,0,0-.178.1" transform="translate(-853.348 -917.818)" fill="#fff" fill-rule="evenodd"/>
        <path id="Trazado_727540" data-name="Trazado 727540" d="M847.8,1049.632l9.909-2.31a.874.874,0,0,1,.383,0l8.825,1.919a.84.84,0,0,1,.334,1.556l-1.305.821-.046.031-12.058,8.585-5.392,3.9a1.856,1.856,0,0,1-1.38.313l-5.324-.876a1.838,1.838,0,0,0-1.489.4L838.6,1065.4a1.817,1.817,0,0,1-2.7-.41l-.725-1.284a1.445,1.445,0,0,1-.079-.163l-.557-1.366a1.472,1.472,0,0,1,1.024-1.939l3.249-1.032a1.9,1.9,0,0,1,1.259.041l2.455.967a1.894,1.894,0,0,0,1.346.011l.056-.021a1.437,1.437,0,0,0,.643-2.364l-.631-.672a1.381,1.381,0,0,1-.2-1.67l2.99-5.1a1.674,1.674,0,0,1,1.074-.762" transform="translate(-723.82 -908.464)" fill="#fff" fill-rule="evenodd"/>
        <path id="Trazado_727541" data-name="Trazado 727541" d="M745.053,1106.137l3.608-.844a1.7,1.7,0,0,1,2.117,1.258l.516,3.333a1.492,1.492,0,0,1-1.025,1.6l-3.058,1.141a1.751,1.751,0,0,1-2.3-1.014l-1.066-3.63a1.5,1.5,0,0,1,1.21-1.844" transform="translate(-645.187 -958.726)" fill="#fff" fill-rule="evenodd"/>
      </g>
    </g>
    <g id="Grupo_1026586" data-name="Grupo 1026586" transform="translate(88.216 55.487)">
      <g id="Grupo_1026585" data-name="Grupo 1026585" clip-path="url(#clip-path-7)">
        <rect id="Rectángulo_350208" data-name="Rectángulo 350208" width="3.118" height="141.432" transform="translate(-0.002 0)" fill="url(#linear-gradient-2)"/>
      </g>
    </g>
    <g id="Grupo_1026588" data-name="Grupo 1026588" transform="translate(183.883 77.739)">
      <g id="Grupo_1026587" data-name="Grupo 1026587" clip-path="url(#clip-path-8)">
        <rect id="Rectángulo_350209" data-name="Rectángulo 350209" width="4.868" height="158.763" transform="translate(-0.01 0)" fill="url(#linear-gradient-3)"/>
      </g>
    </g>
    <g id="Grupo_1026590" data-name="Grupo 1026590" transform="translate(289.246 94.182)">
      <g id="Grupo_1026589" data-name="Grupo 1026589" clip-path="url(#clip-path-9)">
        <rect id="Rectángulo_350210" data-name="Rectángulo 350210" width="3.112" height="134.76" transform="translate(-0.003 0)" fill="url(#linear-gradient-4)"/>
      </g>
    </g>
    <g id="Grupo_1026592" data-name="Grupo 1026592" transform="translate(73.438 153.648)">
      <g id="Grupo_1026591" data-name="Grupo 1026591" clip-path="url(#clip-path-10)">
        <rect id="Rectángulo_350211" data-name="Rectángulo 350211" width="37.348" height="37.348" transform="matrix(0.077, -0.997, 0.997, 0.077, -2.66, 34.578)" fill="#115089"/>
      </g>
    </g>
    <g id="Grupo_1026594" data-name="Grupo 1026594" transform="translate(73.406 170.106)">
      <g id="Grupo_1026593" data-name="Grupo 1026593" clip-path="url(#clip-path-11)">
        <rect id="Rectángulo_350212" data-name="Rectángulo 350212" width="40.705" height="40.347" transform="matrix(0.077, -0.997, 0.997, 0.077, -4.254, 37.713)" fill="#115089"/>
      </g>
    </g>
    <g id="Grupo_1026596" data-name="Grupo 1026596">
      <g id="Grupo_1026595" data-name="Grupo 1026595" clip-path="url(#clip-path)">
        <path id="Trazado_727547" data-name="Trazado 727547" d="M567.849,1211.983v.1h.005a4.313,4.313,0,0,1-3.687-2.129c-9.073-15.455-12.4-25.227-13.588-30.695a17.544,17.544,0,0,1-.6-3.755,8.736,8.736,0,0,1-.015-1.9l.046-.278a17.9,17.9,0,0,1,35.71.177,7.82,7.82,0,0,1,.029.959v.064a17.924,17.924,0,0,1-.717,5.029c-1.232,5.463-4.577,15.139-13.5,30.333a4.213,4.213,0,0,1-3.692,2.092m-16.909-37.718c0,.261,0,.633.05,1.194v0a16.4,16.4,0,0,0,.566,3.544l.006.02c1.173,5.394,4.463,15.044,13.475,30.395a3.269,3.269,0,0,0,2.813,1.6l0,.5v-.5a3.427,3.427,0,0,0,2.821-1.616c8.861-15.1,12.169-24.691,13.382-30.081l.009-.031a16.835,16.835,0,0,0,.58-4.76l-.1-.071v-.006a6.619,6.619,0,0,1,.077-.847l.048-.029a16.865,16.865,0,0,0-33.678.176l-.014.513Z" transform="translate(-477.028 -1003.376)" fill="#91b3fa"/>
        <path id="Trazado_727548" data-name="Trazado 727548" d="M629.922,1224.094a10.042,10.042,0,1,1-10.042-10.042,10.042,10.042,0,0,1,10.042,10.042" transform="translate(-528.995 -1053.111)" fill="#fff"/>
        <path id="Trazado_727549" data-name="Trazado 727549" d="M616.208,1231.027a10.6,10.6,0,1,1,10.6-10.6,10.615,10.615,0,0,1-10.6,10.6m0-20.084a9.481,9.481,0,1,0,9.481,9.481,9.492,9.492,0,0,0-9.481-9.481" transform="translate(-525.323 -1049.441)" fill="#91b3fa"/>
        <path id="Trazado_727550" data-name="Trazado 727550" d="M612.629,1184.415a.168.168,0,0,1-.11-.3,15.584,15.584,0,0,1,10.149-3.757.168.168,0,0,1,0,.337,15.247,15.247,0,0,0-9.93,3.676.169.169,0,0,1-.11.04" transform="translate(-531.27 -1023.888)" fill="#fff"/>
        <path id="Trazado_727551" data-name="Trazado 727551" d="M572.065,1243.891a.168.168,0,0,1-.168-.168,15.549,15.549,0,0,1,2.331-8.2.168.168,0,1,1,.286.177,15.211,15.211,0,0,0-2.281,8.026.168.168,0,0,1-.168.168" transform="translate(-496.084 -1071.664)" fill="#fff"/>
      </g>
    </g>
    <g id="Grupo_1026598" data-name="Grupo 1026598" transform="translate(171.228 200.753)">
      <g id="Grupo_1026597" data-name="Grupo 1026597" clip-path="url(#clip-path-13)">
        <rect id="Rectángulo_350214" data-name="Rectángulo 350214" width="48.945" height="48.945" transform="translate(-17.047 20.835) rotate(-50.711)" fill="#115089"/>
      </g>
    </g>
    <g id="Grupo_1026811" data-name="Grupo 1026811" transform="translate(272.561 200.753)">
      <g id="Grupo_1026597-2" data-name="Grupo 1026597" clip-path="url(#clip-path-13)">
        <rect id="Rectángulo_350214-2" data-name="Rectángulo 350214" width="48.945" height="48.945" transform="translate(-17.047 20.835) rotate(-50.711)" fill="#115089"/>
      </g>
    </g>
    <g id="Grupo_1026600" data-name="Grupo 1026600" transform="translate(171.196 217.211)">
      <g id="Grupo_1026599" data-name="Grupo 1026599" clip-path="url(#clip-path-15)">
        <rect id="Rectángulo_350215" data-name="Rectángulo 350215" width="53.138" height="53.083" transform="translate(-19.945 22.724) rotate(-50.711)" fill="#115089"/>
      </g>
    </g>
    <g id="Grupo_1026810" data-name="Grupo 1026810" transform="translate(272.529 217.211)">
      <g id="Grupo_1026599-2" data-name="Grupo 1026599" clip-path="url(#clip-path-15)">
        <rect id="Rectángulo_350215-2" data-name="Rectángulo 350215" width="53.138" height="53.083" transform="translate(-19.945 22.724) rotate(-50.711)" fill="#115089"/>
      </g>
    </g>
    <g id="Grupo_1026602" data-name="Grupo 1026602">
      <g id="Grupo_1026601" data-name="Grupo 1026601" clip-path="url(#clip-path)">
        <path id="Trazado_727554" data-name="Trazado 727554" d="M1305.528,1567.317v.1h.005a4.314,4.314,0,0,1-3.687-2.129c-9.073-15.455-12.4-25.227-13.588-30.694a17.55,17.55,0,0,1-.6-3.755,8.743,8.743,0,0,1-.015-1.9l.046-.278a17.9,17.9,0,0,1,35.71.177,7.829,7.829,0,0,1,.029.959v.064a17.926,17.926,0,0,1-.717,5.029c-1.232,5.463-4.577,15.139-13.5,30.333a4.212,4.212,0,0,1-3.691,2.092m-16.909-37.718c0,.261,0,.633.05,1.194v0a16.4,16.4,0,0,0,.566,3.545l.006.02c1.173,5.394,4.463,15.043,13.475,30.395a3.269,3.269,0,0,0,2.813,1.6l0,.5v-.505a3.427,3.427,0,0,0,2.821-1.616c8.861-15.1,12.169-24.691,13.383-30.081l.009-.031a16.835,16.835,0,0,0,.58-4.76l-.1-.071v-.006a6.632,6.632,0,0,1,.077-.847l.048-.029a16.865,16.865,0,0,0-33.678.176l-.014.513Z" transform="translate(-1116.916 -1311.605)" fill="#91b3fa"/>
        <path id="Trazado_727555" data-name="Trazado 727555" d="M1367.6,1579.428a10.042,10.042,0,1,1-10.042-10.042,10.042,10.042,0,0,1,10.042,10.042" transform="translate(-1168.883 -1361.34)" fill="#fff"/>
        <path id="Trazado_727556" data-name="Trazado 727556" d="M1353.886,1586.361a10.6,10.6,0,1,1,10.6-10.6,10.615,10.615,0,0,1-10.6,10.6m0-20.084a9.481,9.481,0,1,0,9.481,9.481,9.492,9.492,0,0,0-9.481-9.481" transform="translate(-1165.211 -1357.671)" fill="#91b3fa"/>
        <path id="Trazado_727557" data-name="Trazado 727557" d="M1350.307,1539.749a.168.168,0,0,1-.109-.3,15.583,15.583,0,0,1,10.149-3.757.168.168,0,0,1,0,.336,15.248,15.248,0,0,0-9.93,3.676.167.167,0,0,1-.109.041" transform="translate(-1171.158 -1332.117)" fill="#fff"/>
        <path id="Trazado_727558" data-name="Trazado 727558" d="M1309.743,1599.225a.168.168,0,0,1-.168-.168,15.548,15.548,0,0,1,2.331-8.2.168.168,0,1,1,.286.177,15.212,15.212,0,0,0-2.281,8.026.168.168,0,0,1-.168.168" transform="translate(-1135.971 -1379.893)" fill="#fff"/>
      </g>
    </g>
    <g id="Grupo_1026812" data-name="Grupo 1026812" transform="translate(101.333)">
      <g id="Grupo_1026601-2" data-name="Grupo 1026601" clip-path="url(#clip-path)">
        <path id="Trazado_727554-2" data-name="Trazado 727554" d="M1305.528,1567.317v.1h.005a4.314,4.314,0,0,1-3.687-2.129c-9.073-15.455-12.4-25.227-13.588-30.694a17.55,17.55,0,0,1-.6-3.755,8.743,8.743,0,0,1-.015-1.9l.046-.278a17.9,17.9,0,0,1,35.71.177,7.829,7.829,0,0,1,.029.959v.064a17.926,17.926,0,0,1-.717,5.029c-1.232,5.463-4.577,15.139-13.5,30.333a4.212,4.212,0,0,1-3.691,2.092m-16.909-37.718c0,.261,0,.633.05,1.194v0a16.4,16.4,0,0,0,.566,3.545l.006.02c1.173,5.394,4.463,15.043,13.475,30.395a3.269,3.269,0,0,0,2.813,1.6l0,.5v-.505a3.427,3.427,0,0,0,2.821-1.616c8.861-15.1,12.169-24.691,13.383-30.081l.009-.031a16.835,16.835,0,0,0,.58-4.76l-.1-.071v-.006a6.632,6.632,0,0,1,.077-.847l.048-.029a16.865,16.865,0,0,0-33.678.176l-.014.513Z" transform="translate(-1116.916 -1311.605)" fill="#91b3fa"/>
        <path id="Trazado_727555-2" data-name="Trazado 727555" d="M1367.6,1579.428a10.042,10.042,0,1,1-10.042-10.042,10.042,10.042,0,0,1,10.042,10.042" transform="translate(-1168.883 -1361.34)" fill="#fff"/>
        <path id="Trazado_727556-2" data-name="Trazado 727556" d="M1353.886,1586.361a10.6,10.6,0,1,1,10.6-10.6,10.615,10.615,0,0,1-10.6,10.6m0-20.084a9.481,9.481,0,1,0,9.481,9.481,9.492,9.492,0,0,0-9.481-9.481" transform="translate(-1165.211 -1357.671)" fill="#91b3fa"/>
        <path id="Trazado_727557-2" data-name="Trazado 727557" d="M1350.307,1539.749a.168.168,0,0,1-.109-.3,15.583,15.583,0,0,1,10.149-3.757.168.168,0,0,1,0,.336,15.248,15.248,0,0,0-9.93,3.676.167.167,0,0,1-.109.041" transform="translate(-1171.158 -1332.117)" fill="#fff"/>
        <path id="Trazado_727558-2" data-name="Trazado 727558" d="M1309.743,1599.225a.168.168,0,0,1-.168-.168,15.548,15.548,0,0,1,2.331-8.2.168.168,0,1,1,.286.177,15.212,15.212,0,0,0-2.281,8.026.168.168,0,0,1-.168.168" transform="translate(-1135.971 -1379.893)" fill="#fff"/>
      </g>
    </g>
    <g id="Grupo_1026604" data-name="Grupo 1026604" transform="translate(241.322 37.143)">
      <g id="Grupo_1026603" data-name="Grupo 1026603" clip-path="url(#clip-path-19)">
        <rect id="Rectángulo_350217" data-name="Rectángulo 350217" width="112.458" height="116.036" transform="translate(-19.901 88.828) rotate(-77.372)" fill="#265e91"/>
      </g>
    </g>
    <g id="Grupo_1026606" data-name="Grupo 1026606">
      <g id="Grupo_1026605" data-name="Grupo 1026605" clip-path="url(#clip-path)">
        <path id="Trazado_727560" data-name="Trazado 727560" d="M2516.062,506.2a.34.34,0,0,0,.086-.011.322.322,0,0,0,.237-.394,41.134,41.134,0,0,0-1.978-5.557.342.342,0,0,0-.438-.171.319.319,0,0,0-.178.423,40.268,40.268,0,0,1,1.948,5.471.333.333,0,0,0,.323.239" transform="translate(-2180.528 -433.751)" fill="#91b3fa"/>
        <path id="Trazado_727561" data-name="Trazado 727561" d="M2100.507,313.4a.347.347,0,0,0,.2-.065.315.315,0,0,0,.065-.451c-8.969-11.46-23.415-18.3-38.645-18.3a47.6,47.6,0,0,0-18.7,3.776.318.318,0,0,0-.171.425.34.34,0,0,0,.441.165,46.888,46.888,0,0,1,18.428-3.722c15.021,0,29.268,6.746,38.111,18.044a.338.338,0,0,0,.267.128" transform="translate(-1772.371 -255.535)" fill="#91b3fa"/>
      </g>
    </g>
    <g id="Grupo_1026608" data-name="Grupo 1026608" transform="translate(247.908 43.411)">
      <g id="Grupo_1026607" data-name="Grupo 1026607" clip-path="url(#clip-path-21)">
        <rect id="Rectángulo_350219" data-name="Rectángulo 350219" width="114.408" height="113.03" transform="translate(-35.793 21.692) rotate(-31.218)" fill="#115089"/>
      </g>
    </g>
    <g id="Grupo_1026610" data-name="Grupo 1026610" transform="translate(247.908 43.411)">
      <g id="Grupo_1026609" data-name="Grupo 1026609" clip-path="url(#clip-path-22)">
        <rect id="Rectángulo_350220" data-name="Rectángulo 350220" width="73.939" height="80.206" transform="translate(0 0)" fill="#115089"/>
      </g>
    </g>
    <g id="Grupo_1026653" data-name="Grupo 1026653">
      <g id="Grupo_1026652" data-name="Grupo 1026652" clip-path="url(#clip-path-23)">
        <g id="Grupo_1026615" data-name="Grupo 1026615" transform="translate(253.611 44.542)" opacity="0.22">
          <g id="Grupo_1026614" data-name="Grupo 1026614">
            <g id="Grupo_1026613" data-name="Grupo 1026613" clip-path="url(#clip-path-24)">
              <g id="Grupo_1026612" data-name="Grupo 1026612" transform="translate(0 0)">
                <g id="Grupo_1026611" data-name="Grupo 1026611" clip-path="url(#clip-path-25)">
                  <rect id="Rectángulo_350221" data-name="Rectángulo 350221" width="78.157" height="72.876" transform="translate(0 0)" fill="url(#linear-gradient-5)"/>
                </g>
              </g>
            </g>
          </g>
        </g>
        <g id="Grupo_1026618" data-name="Grupo 1026618" transform="translate(322.035 78.403)" opacity="0.78">
          <g id="Grupo_1026617" data-name="Grupo 1026617">
            <g id="Grupo_1026616" data-name="Grupo 1026616" clip-path="url(#clip-path-26)">
              <path id="Trazado_727565" data-name="Trazado 727565" d="M2429.264,594.723a3.185,3.185,0,0,0,3.408,2.923,3.152,3.152,0,0,0,3.033-3.284,3.185,3.185,0,0,0-3.408-2.923,3.152,3.152,0,0,0-3.033,3.284" transform="translate(-2429.259 -591.433)" fill="#fff"/>
            </g>
          </g>
        </g>
        <g id="Grupo_1026621" data-name="Grupo 1026621" transform="translate(252.339 82.312)" opacity="0.78">
          <g id="Grupo_1026620" data-name="Grupo 1026620">
            <g id="Grupo_1026619" data-name="Grupo 1026619" clip-path="url(#clip-path-26)">
              <path id="Trazado_727566" data-name="Trazado 727566" d="M1903.516,624.209a3.185,3.185,0,0,0,3.408,2.923,3.152,3.152,0,0,0,3.033-3.284,3.185,3.185,0,0,0-3.408-2.923,3.152,3.152,0,0,0-3.033,3.284" transform="translate(-1903.51 -620.92)" fill="#fff"/>
            </g>
          </g>
        </g>
        <g id="Grupo_1026624" data-name="Grupo 1026624" transform="translate(293.458 113.445)" opacity="0.78">
          <g id="Grupo_1026623" data-name="Grupo 1026623">
            <g id="Grupo_1026622" data-name="Grupo 1026622" clip-path="url(#clip-path-28)">
              <path id="Trazado_727567" data-name="Trazado 727567" d="M2216.34,855.818a3.119,3.119,0,0,0-2.594,3.616,3.22,3.22,0,0,0,3.753,2.5,3.119,3.119,0,0,0,2.594-3.616,3.22,3.22,0,0,0-3.753-2.5" transform="translate(-2213.692 -855.768)" fill="#fff"/>
            </g>
          </g>
        </g>
        <g id="Grupo_1026627" data-name="Grupo 1026627" transform="translate(280.914 47.27)" opacity="0.78">
          <g id="Grupo_1026626" data-name="Grupo 1026626">
            <g id="Grupo_1026625" data-name="Grupo 1026625" clip-path="url(#clip-path-28)">
              <path id="Trazado_727568" data-name="Trazado 727568" d="M2121.715,356.628a3.119,3.119,0,0,0-2.594,3.616,3.219,3.219,0,0,0,3.753,2.5,3.119,3.119,0,0,0,2.594-3.616,3.22,3.22,0,0,0-3.753-2.5" transform="translate(-2119.068 -356.578)" fill="#fff"/>
            </g>
          </g>
        </g>
        <g id="Grupo_1026630" data-name="Grupo 1026630" transform="translate(272.97 114.036)" opacity="0.78">
          <g id="Grupo_1026629" data-name="Grupo 1026629">
            <g id="Grupo_1026628" data-name="Grupo 1026628" clip-path="url(#clip-path-30)">
              <path id="Trazado_727569" data-name="Trazado 727569" d="M2059.335,861.463c-.328.8-.246,1.543.183,1.667s1.042-.422,1.37-1.219.246-1.543-.182-1.667-1.043.422-1.37,1.219" transform="translate(-2059.135 -860.227)" fill="#fff"/>
            </g>
          </g>
        </g>
        <g id="Grupo_1026633" data-name="Grupo 1026633" transform="translate(301.007 51.268)" opacity="0.78">
          <g id="Grupo_1026632" data-name="Grupo 1026632">
            <g id="Grupo_1026631" data-name="Grupo 1026631" clip-path="url(#clip-path-31)">
              <path id="Trazado_727570" data-name="Trazado 727570" d="M2270.845,387.981c-.328.8-.246,1.543.183,1.667s1.042-.422,1.37-1.219.246-1.543-.183-1.667-1.042.423-1.37,1.219" transform="translate(-2270.643 -386.744)" fill="#fff"/>
            </g>
          </g>
        </g>
        <g id="Grupo_1026636" data-name="Grupo 1026636" transform="translate(257.678 102.819)" opacity="0.78">
          <g id="Grupo_1026635" data-name="Grupo 1026635">
            <g id="Grupo_1026634" data-name="Grupo 1026634" clip-path="url(#clip-path-32)">
              <path id="Trazado_727571" data-name="Trazado 727571" d="M1944.638,776.135c-.71.517-1.042,1.2-.742,1.516s1.118.16,1.828-.357,1.041-1.2.742-1.516-1.118-.161-1.828.356" transform="translate(-1943.786 -775.613)" fill="#fff"/>
            </g>
          </g>
        </g>
        <g id="Grupo_1026639" data-name="Grupo 1026639" transform="translate(315.463 63.204)" opacity="0.78">
          <g id="Grupo_1026638" data-name="Grupo 1026638">
            <g id="Grupo_1026637" data-name="Grupo 1026637" clip-path="url(#clip-path-33)">
              <path id="Trazado_727572" data-name="Trazado 727572" d="M2380.542,477.3c-.71.517-1.042,1.2-.742,1.516s1.119.161,1.828-.356,1.042-1.2.742-1.516-1.118-.161-1.828.356" transform="translate(-2379.689 -476.776)" fill="#fff"/>
            </g>
          </g>
        </g>
        <g id="Grupo_1026642" data-name="Grupo 1026642" transform="translate(254.925 67.543)" opacity="0.78">
          <g id="Grupo_1026641" data-name="Grupo 1026641">
            <g id="Grupo_1026640" data-name="Grupo 1026640" clip-path="url(#clip-path-34)">
              <path id="Trazado_727573" data-name="Trazado 727573" d="M1924.789,509.764c-.8-.369-1.582-.34-1.738.064s.368,1.03,1.171,1.4,1.582.34,1.738-.064-.367-1.03-1.171-1.4" transform="translate(-1923.023 -509.506)" fill="#fff"/>
            </g>
          </g>
        </g>
        <g id="Grupo_1026645" data-name="Grupo 1026645" transform="translate(318.042 98.703)" opacity="0.78">
          <g id="Grupo_1026644" data-name="Grupo 1026644">
            <g id="Grupo_1026643" data-name="Grupo 1026643" clip-path="url(#clip-path-35)">
              <path id="Trazado_727574" data-name="Trazado 727574" d="M2400.908,744.819c-.8-.368-1.582-.34-1.738.064s.367,1.03,1.171,1.4,1.582.34,1.738-.064-.367-1.03-1.171-1.4" transform="translate(-2399.142 -744.561)" fill="#fff"/>
            </g>
          </g>
        </g>
        <g id="Grupo_1026648" data-name="Grupo 1026648" transform="translate(268.301 53.624)" opacity="0.78">
          <g id="Grupo_1026647" data-name="Grupo 1026647">
            <g id="Grupo_1026646" data-name="Grupo 1026646" clip-path="url(#clip-path-36)">
              <path id="Trazado_727575" data-name="Trazado 727575" d="M2025.65,405.408c-.488-.717-1.168-1.082-1.52-.815s-.241,1.065.247,1.782,1.168,1.081,1.52.815.241-1.065-.247-1.782" transform="translate(-2023.923 -404.506)" fill="#fff"/>
            </g>
          </g>
        </g>
        <g id="Grupo_1026651" data-name="Grupo 1026651" transform="translate(305.452 111.832)" opacity="0.78">
          <g id="Grupo_1026650" data-name="Grupo 1026650">
            <g id="Grupo_1026649" data-name="Grupo 1026649" clip-path="url(#clip-path-36)">
              <path id="Trazado_727576" data-name="Trazado 727576" d="M2305.9,844.5c-.488-.717-1.169-1.081-1.52-.815s-.241,1.064.247,1.781,1.168,1.082,1.52.815.241-1.065-.246-1.781" transform="translate(-2304.172 -843.598)" fill="#fff"/>
            </g>
          </g>
        </g>
      </g>
    </g>
    <g id="Grupo_1026655" data-name="Grupo 1026655" transform="translate(290.041 82.46)">
      <g id="Grupo_1026654" data-name="Grupo 1026654" clip-path="url(#clip-path-38)">
        <rect id="Rectángulo_350236" data-name="Rectángulo 350236" width="50.155" height="53.822" transform="translate(-12.477 15.507) rotate(-51.411)" fill="#ffa031"/>
      </g>
    </g>
    <g id="Grupo_1026660" data-name="Grupo 1026660">
      <g id="Grupo_1026659" data-name="Grupo 1026659" clip-path="url(#clip-path)">
        <g id="Grupo_1026658" data-name="Grupo 1026658" transform="translate(316.138 101.866)" opacity="0.7">
          <g id="Grupo_1026657" data-name="Grupo 1026657">
            <g id="Grupo_1026656" data-name="Grupo 1026656" clip-path="url(#clip-path-40)">
              <path id="Trazado_727578" data-name="Trazado 727578" d="M2403.7,772.929a.631.631,0,0,0,.569-.348.593.593,0,0,0-.168-.745l-4.1-3.266a.343.343,0,0,0-.47.043.314.314,0,0,0,.045.454l4.1,3.266c-5.464-1.2-18.26-3.889-18.525-3.915a.333.333,0,0,0-.367.287.326.326,0,0,0,.292.352c.383.059,10.189,2.112,18.483,3.856a.7.7,0,0,0,.142.015" transform="translate(-2384.782 -768.417)" fill="#fff"/>
            </g>
          </g>
        </g>
      </g>
    </g>
    <g id="Grupo_1026662" data-name="Grupo 1026662" transform="translate(283.34 38.944)">
      <g id="Grupo_1026661" data-name="Grupo 1026661" clip-path="url(#clip-path-41)">
        <rect id="Rectángulo_350239" data-name="Rectángulo 350239" width="44.877" height="24.845" transform="translate(-12.343 39.27) rotate(-72.708)" fill="#ffa031"/>
      </g>
    </g>
    <g id="Grupo_1026667" data-name="Grupo 1026667">
      <g id="Grupo_1026666" data-name="Grupo 1026666" clip-path="url(#clip-path)">
        <g id="Grupo_1026665" data-name="Grupo 1026665" transform="translate(287.751 41.362)" opacity="0.7">
          <g id="Grupo_1026664" data-name="Grupo 1026664">
            <g id="Grupo_1026663" data-name="Grupo 1026663" clip-path="url(#clip-path-43)">
              <path id="Trazado_727580" data-name="Trazado 727580" d="M2176.817,328.3a.307.307,0,0,0,.108-.019.281.281,0,0,0,.169-.363c-.107-.312-2.416-8.542-4.364-15.505a.569.569,0,0,0-1.1.027l-.99,4.417a.284.284,0,0,0,.226.337.3.3,0,0,0,.35-.218l.991-4.418c1.239,4.609,4.246,15.349,4.332,15.561a.294.294,0,0,0,.274.18" transform="translate(-2170.637 -312.012)" fill="#fff"/>
            </g>
          </g>
        </g>
      </g>
    </g>
    <g id="Grupo_1026669" data-name="Grupo 1026669" transform="translate(286.581 79.298)">
      <g id="Grupo_1026668" data-name="Grupo 1026668" clip-path="url(#clip-path-44)">
        <rect id="Rectángulo_350242" data-name="Rectángulo 350242" width="8.367" height="8.533" transform="translate(-1.859 6.071) rotate(-72.973)" fill="#ffa031"/>
      </g>
    </g>
    <g id="Grupo_1026671" data-name="Grupo 1026671" transform="translate(135.493 61.783)">
      <g id="Grupo_1026670" data-name="Grupo 1026670" clip-path="url(#clip-path-45)">
        <rect id="Rectángulo_350243" data-name="Rectángulo 350243" width="135.086" height="135.306" transform="matrix(0.683, -0.73, 0.73, 0.683, -46.543, 49.709)" fill="#265e91"/>
      </g>
    </g>
    <g id="Grupo_1026673" data-name="Grupo 1026673">
      <g id="Grupo_1026672" data-name="Grupo 1026672" clip-path="url(#clip-path)">
        <path id="Trazado_727583" data-name="Trazado 727583" d="M1717.741,692.07a.343.343,0,0,0,.086-.011.322.322,0,0,0,.237-.394,41.094,41.094,0,0,0-1.978-5.557.342.342,0,0,0-.438-.171.319.319,0,0,0-.178.423,40.341,40.341,0,0,1,1.947,5.471.333.333,0,0,0,.323.239" transform="translate(-1488.037 -594.985)" fill="#91b3fa"/>
        <path id="Trazado_727584" data-name="Trazado 727584" d="M1302.187,499.278a.346.346,0,0,0,.2-.065.315.315,0,0,0,.066-.451c-8.969-11.46-23.415-18.3-38.645-18.3a47.594,47.594,0,0,0-18.7,3.776.318.318,0,0,0-.171.425.34.34,0,0,0,.441.165,46.889,46.889,0,0,1,18.428-3.722c15.021,0,29.268,6.746,38.111,18.044a.338.338,0,0,0,.268.128" transform="translate(-1079.88 -416.769)" fill="#91b3fa"/>
      </g>
    </g>
    <g id="Grupo_1026675" data-name="Grupo 1026675" transform="translate(142.079 68.052)">
      <g id="Grupo_1026674" data-name="Grupo 1026674" clip-path="url(#clip-path-47)">
        <rect id="Rectángulo_350245" data-name="Rectángulo 350245" width="116.847" height="116.305" transform="matrix(0.77, -0.638, 0.638, 0.77, -39.668, 32.85)" fill="#ffa031"/>
      </g>
    </g>
    <g id="Grupo_1026677" data-name="Grupo 1026677" transform="translate(142.079 68.052)">
      <g id="Grupo_1026676" data-name="Grupo 1026676" clip-path="url(#clip-path-48)">
        <rect id="Rectángulo_350246" data-name="Rectángulo 350246" width="108.965" height="109.024" transform="matrix(0.712, -0.702, 0.702, 0.712, -40.099, 39.565)" fill="#ffa031"/>
      </g>
    </g>
    <g id="Grupo_1026718" data-name="Grupo 1026718">
      <g id="Grupo_1026717" data-name="Grupo 1026717" clip-path="url(#clip-path)">
        <g id="Grupo_1026680" data-name="Grupo 1026680" transform="translate(147.782 69.183)" opacity="0.25">
          <g id="Grupo_1026679" data-name="Grupo 1026679">
            <g id="Grupo_1026678" data-name="Grupo 1026678" clip-path="url(#clip-path-50)">
              <path id="Trazado_727587" data-name="Trazado 727587" d="M1114.79,558.313c0,20.124,17.282,36.438,38.6,36.438s39.556-17.027,39.556-37.151-18.237-35.725-39.556-35.725-38.6,16.314-38.6,36.438" transform="translate(-1114.79 -521.876)" fill="#fff"/>
            </g>
          </g>
        </g>
        <g id="Grupo_1026683" data-name="Grupo 1026683" transform="translate(216.205 103.044)" opacity="0.78">
          <g id="Grupo_1026682" data-name="Grupo 1026682">
            <g id="Grupo_1026681" data-name="Grupo 1026681" clip-path="url(#clip-path-26)">
              <path id="Trazado_727588" data-name="Trazado 727588" d="M1630.944,780.6a3.185,3.185,0,0,0,3.408,2.923,3.153,3.153,0,0,0,3.033-3.284,3.185,3.185,0,0,0-3.408-2.922,3.152,3.152,0,0,0-3.033,3.284" transform="translate(-1630.938 -777.308)" fill="#fff"/>
            </g>
          </g>
        </g>
        <g id="Grupo_1026686" data-name="Grupo 1026686" transform="translate(146.509 106.952)" opacity="0.78">
          <g id="Grupo_1026685" data-name="Grupo 1026685">
            <g id="Grupo_1026684" data-name="Grupo 1026684" clip-path="url(#clip-path-26)">
              <path id="Trazado_727589" data-name="Trazado 727589" d="M1105.2,810.083a3.185,3.185,0,0,0,3.408,2.923,3.153,3.153,0,0,0,3.033-3.284,3.185,3.185,0,0,0-3.408-2.923,3.152,3.152,0,0,0-3.033,3.284" transform="translate(-1105.19 -806.793)" fill="#fff"/>
            </g>
          </g>
        </g>
        <g id="Grupo_1026689" data-name="Grupo 1026689" transform="translate(187.628 138.085)" opacity="0.78">
          <g id="Grupo_1026688" data-name="Grupo 1026688">
            <g id="Grupo_1026687" data-name="Grupo 1026687" clip-path="url(#clip-path-53)">
              <path id="Trazado_727590" data-name="Trazado 727590" d="M1418.02,1041.693a3.119,3.119,0,0,0-2.594,3.616,3.219,3.219,0,0,0,3.753,2.5,3.119,3.119,0,0,0,2.594-3.616,3.219,3.219,0,0,0-3.753-2.5" transform="translate(-1415.373 -1041.641)" fill="#fff"/>
            </g>
          </g>
        </g>
        <g id="Grupo_1026692" data-name="Grupo 1026692" transform="translate(175.085 71.91)" opacity="0.78">
          <g id="Grupo_1026691" data-name="Grupo 1026691">
            <g id="Grupo_1026690" data-name="Grupo 1026690" clip-path="url(#clip-path-53)">
              <path id="Trazado_727591" data-name="Trazado 727591" d="M1323.395,542.5a3.119,3.119,0,0,0-2.594,3.616,3.219,3.219,0,0,0,3.753,2.5,3.119,3.119,0,0,0,2.594-3.616,3.219,3.219,0,0,0-3.753-2.5" transform="translate(-1320.748 -542.451)" fill="#fff"/>
            </g>
          </g>
        </g>
        <g id="Grupo_1026695" data-name="Grupo 1026695" transform="translate(167.14 138.676)" opacity="0.78">
          <g id="Grupo_1026694" data-name="Grupo 1026694">
            <g id="Grupo_1026693" data-name="Grupo 1026693" clip-path="url(#clip-path-55)">
              <path id="Trazado_727592" data-name="Trazado 727592" d="M1261.017,1047.337c-.328.8-.246,1.543.183,1.667s1.042-.422,1.37-1.219.246-1.543-.183-1.667-1.042.422-1.37,1.219" transform="translate(-1260.816 -1046.1)" fill="#fff"/>
            </g>
          </g>
        </g>
        <g id="Grupo_1026698" data-name="Grupo 1026698" transform="translate(195.178 75.909)" opacity="0.78">
          <g id="Grupo_1026697" data-name="Grupo 1026697">
            <g id="Grupo_1026696" data-name="Grupo 1026696" clip-path="url(#clip-path-56)">
              <path id="Trazado_727593" data-name="Trazado 727593" d="M1472.525,573.855c-.328.8-.246,1.543.183,1.667s1.042-.422,1.37-1.219.246-1.543-.183-1.667-1.042.423-1.37,1.219" transform="translate(-1472.324 -572.619)" fill="#fff"/>
            </g>
          </g>
        </g>
        <g id="Grupo_1026701" data-name="Grupo 1026701" transform="translate(151.849 127.46)" opacity="0.78">
          <g id="Grupo_1026700" data-name="Grupo 1026700">
            <g id="Grupo_1026699" data-name="Grupo 1026699" clip-path="url(#clip-path-33)">
              <path id="Trazado_727594" data-name="Trazado 727594" d="M1146.318,962.009c-.71.517-1.042,1.2-.742,1.516s1.118.16,1.828-.357,1.042-1.2.742-1.516-1.119-.161-1.828.357" transform="translate(-1145.467 -961.487)" fill="#fff"/>
            </g>
          </g>
        </g>
        <g id="Grupo_1026704" data-name="Grupo 1026704" transform="translate(209.634 87.844)" opacity="0.78">
          <g id="Grupo_1026703" data-name="Grupo 1026703">
            <g id="Grupo_1026702" data-name="Grupo 1026702" clip-path="url(#clip-path-32)">
              <path id="Trazado_727595" data-name="Trazado 727595" d="M1582.222,663.171c-.71.517-1.042,1.2-.742,1.516s1.118.161,1.828-.356,1.042-1.2.742-1.516-1.118-.161-1.828.356" transform="translate(-1581.37 -662.649)" fill="#fff"/>
            </g>
          </g>
        </g>
        <g id="Grupo_1026707" data-name="Grupo 1026707" transform="translate(149.096 92.183)" opacity="0.78">
          <g id="Grupo_1026706" data-name="Grupo 1026706">
            <g id="Grupo_1026705" data-name="Grupo 1026705" clip-path="url(#clip-path-34)">
              <path id="Trazado_727596" data-name="Trazado 727596" d="M1126.47,695.638c-.8-.368-1.582-.34-1.739.064s.368,1.03,1.171,1.4,1.582.34,1.738-.064-.367-1.031-1.171-1.4" transform="translate(-1124.703 -695.38)" fill="#fff"/>
            </g>
          </g>
        </g>
        <g id="Grupo_1026710" data-name="Grupo 1026710" transform="translate(212.212 123.342)" opacity="0.78">
          <g id="Grupo_1026709" data-name="Grupo 1026709">
            <g id="Grupo_1026708" data-name="Grupo 1026708" clip-path="url(#clip-path-35)">
              <path id="Trazado_727597" data-name="Trazado 727597" d="M1602.588,930.694c-.8-.368-1.582-.34-1.738.064s.367,1.031,1.171,1.4,1.582.34,1.738-.064-.368-1.03-1.171-1.4" transform="translate(-1600.822 -930.434)" fill="#fff"/>
            </g>
          </g>
        </g>
        <g id="Grupo_1026713" data-name="Grupo 1026713" transform="translate(162.471 78.264)" opacity="0.78">
          <g id="Grupo_1026712" data-name="Grupo 1026712">
            <g id="Grupo_1026711" data-name="Grupo 1026711" clip-path="url(#clip-path-61)">
              <path id="Trazado_727598" data-name="Trazado 727598" d="M1227.33,591.283c-.488-.717-1.169-1.082-1.52-.815s-.241,1.065.247,1.781,1.169,1.082,1.52.815.241-1.065-.247-1.781" transform="translate(-1225.604 -590.38)" fill="#fff"/>
            </g>
          </g>
        </g>
        <g id="Grupo_1026716" data-name="Grupo 1026716" transform="translate(199.623 136.472)" opacity="0.78">
          <g id="Grupo_1026715" data-name="Grupo 1026715">
            <g id="Grupo_1026714" data-name="Grupo 1026714" clip-path="url(#clip-path-36)">
              <path id="Trazado_727599" data-name="Trazado 727599" d="M1507.578,1030.373c-.488-.717-1.169-1.082-1.52-.815s-.241,1.064.247,1.781,1.168,1.082,1.52.815.241-1.065-.247-1.781" transform="translate(-1505.852 -1029.471)" fill="#fff"/>
            </g>
          </g>
        </g>
      </g>
    </g>
    <g id="Grupo_1026720" data-name="Grupo 1026720" transform="translate(182.624 58.227)">
      <g id="Grupo_1026719" data-name="Grupo 1026719" clip-path="url(#clip-path-63)">
        <rect id="Rectángulo_350261" data-name="Rectángulo 350261" width="54.339" height="37.167" transform="translate(-18.55 43.271) rotate(-66.89)" fill="#115089"/>
      </g>
    </g>
    <g id="Grupo_1026722" data-name="Grupo 1026722" transform="translate(196.267 60.907)">
      <g id="Grupo_1026721" data-name="Grupo 1026721" clip-path="url(#clip-path-64)">
        <rect id="Rectángulo_350262" data-name="Rectángulo 350262" width="3.898" height="19.875" transform="translate(-0.046 0)" fill="url(#linear-gradient-6)"/>
      </g>
    </g>
    <g id="Grupo_1026724" data-name="Grupo 1026724" transform="translate(182.621 106.97)">
      <g id="Grupo_1026723" data-name="Grupo 1026723" clip-path="url(#clip-path-65)">
        <rect id="Rectángulo_350263" data-name="Rectángulo 350263" width="42.573" height="42.231" transform="translate(-13.582 23.954) rotate(-60.572)" fill="#115089"/>
      </g>
    </g>
    <g id="Grupo_1026726" data-name="Grupo 1026726" transform="translate(196.167 128.12)">
      <g id="Grupo_1026725" data-name="Grupo 1026725" clip-path="url(#clip-path-66)">
        <rect id="Rectángulo_350264" data-name="Rectángulo 350264" width="15.173" height="8.507" transform="translate(-0.039 0)" fill="url(#linear-gradient-7)"/>
      </g>
    </g>
    <g id="Grupo_1026728" data-name="Grupo 1026728" transform="translate(180.752 103.938)">
      <g id="Grupo_1026727" data-name="Grupo 1026727" clip-path="url(#clip-path-67)">
        <rect id="Rectángulo_350265" data-name="Rectángulo 350265" width="9.143" height="9.241" transform="matrix(0.483, -0.876, 0.876, 0.483, -2.808, 5.09)" fill="#115089"/>
      </g>
    </g>
    <g id="Grupo_1026730" data-name="Grupo 1026730" transform="translate(33.849 29.362)">
      <g id="Grupo_1026729" data-name="Grupo 1026729" clip-path="url(#clip-path-68)">
        <rect id="Rectángulo_350266" data-name="Rectángulo 350266" width="102.045" height="97.534" transform="matrix(0.999, -0.044, 0.044, 0.999, -4.125, 0.183)" fill="#265e91"/>
      </g>
    </g>
    <g id="Grupo_1026732" data-name="Grupo 1026732">
      <g id="Grupo_1026731" data-name="Grupo 1026731" clip-path="url(#clip-path)">
        <path id="Trazado_727606" data-name="Trazado 727606" d="M950.992,447.5a.339.339,0,0,0,.086-.011.322.322,0,0,0,.237-.395,41.1,41.1,0,0,0-1.978-5.557.342.342,0,0,0-.438-.171.319.319,0,0,0-.178.423,40.324,40.324,0,0,1,1.947,5.471.333.333,0,0,0,.323.239" transform="translate(-822.932 -382.835)" fill="#91b3fa"/>
        <path id="Trazado_727607" data-name="Trazado 727607" d="M535.438,254.706a.345.345,0,0,0,.2-.065.315.315,0,0,0,.065-.451c-8.969-11.46-23.415-18.3-38.645-18.3a47.594,47.594,0,0,0-18.7,3.776.318.318,0,0,0-.171.425.34.34,0,0,0,.441.165,46.889,46.889,0,0,1,18.428-3.722c15.021,0,29.268,6.746,38.111,18.044a.338.338,0,0,0,.267.128" transform="translate(-414.775 -204.618)" fill="#91b3fa"/>
      </g>
    </g>
    <g id="Grupo_1026734" data-name="Grupo 1026734" transform="translate(40.435 35.63)">
      <g id="Grupo_1026733" data-name="Grupo 1026733" clip-path="url(#clip-path-70)">
        <rect id="Rectángulo_350268" data-name="Rectángulo 350268" width="107.009" height="109.229" transform="matrix(0.381, -0.924, 0.924, 0.381, -28.476, 68.998)" fill="#115089"/>
      </g>
    </g>
    <g id="Grupo_1026736" data-name="Grupo 1026736" transform="translate(40.435 35.63)">
      <g id="Grupo_1026735" data-name="Grupo 1026735" clip-path="url(#clip-path-71)">
        <rect id="Rectángulo_350269" data-name="Rectángulo 350269" width="73.939" height="80.206" transform="translate(0 0)" fill="#115089"/>
      </g>
    </g>
    <g id="Grupo_1026779" data-name="Grupo 1026779">
      <g id="Grupo_1026778" data-name="Grupo 1026778" clip-path="url(#clip-path)">
        <g id="Grupo_1026741" data-name="Grupo 1026741" transform="translate(46.138 36.76)" opacity="0.22">
          <g id="Grupo_1026740" data-name="Grupo 1026740">
            <g id="Grupo_1026739" data-name="Grupo 1026739" clip-path="url(#clip-path-73)">
              <g id="Grupo_1026738" data-name="Grupo 1026738" transform="translate(0 0)">
                <g id="Grupo_1026737" data-name="Grupo 1026737" clip-path="url(#clip-path-74)">
                  <rect id="Rectángulo_350270" data-name="Rectángulo 350270" width="78.157" height="72.876" transform="translate(0 0)" fill="url(#linear-gradient-8)"/>
                </g>
              </g>
            </g>
          </g>
        </g>
        <g id="Grupo_1026744" data-name="Grupo 1026744" transform="translate(114.561 70.623)" opacity="0.78">
          <g id="Grupo_1026743" data-name="Grupo 1026743">
            <g id="Grupo_1026742" data-name="Grupo 1026742" clip-path="url(#clip-path-75)">
              <path id="Trazado_727611" data-name="Trazado 727611" d="M864.195,536.025a3.185,3.185,0,0,0,3.408,2.923,3.152,3.152,0,0,0,3.033-3.284,3.185,3.185,0,0,0-3.408-2.923,3.152,3.152,0,0,0-3.033,3.284" transform="translate(-864.189 -532.736)" fill="#fff"/>
            </g>
          </g>
        </g>
        <g id="Grupo_1026747" data-name="Grupo 1026747" transform="translate(44.865 74.531)" opacity="0.78">
          <g id="Grupo_1026746" data-name="Grupo 1026746">
            <g id="Grupo_1026745" data-name="Grupo 1026745" clip-path="url(#clip-path-26)">
              <path id="Trazado_727612" data-name="Trazado 727612" d="M338.447,565.511a3.185,3.185,0,0,0,3.408,2.923,3.152,3.152,0,0,0,3.033-3.284,3.185,3.185,0,0,0-3.408-2.922,3.152,3.152,0,0,0-3.033,3.284" transform="translate(-338.441 -562.221)" fill="#fff"/>
            </g>
          </g>
        </g>
        <g id="Grupo_1026750" data-name="Grupo 1026750" transform="translate(85.985 105.663)" opacity="0.78">
          <g id="Grupo_1026749" data-name="Grupo 1026749">
            <g id="Grupo_1026748" data-name="Grupo 1026748" clip-path="url(#clip-path-53)">
              <path id="Trazado_727613" data-name="Trazado 727613" d="M651.271,797.121a3.119,3.119,0,0,0-2.594,3.616,3.219,3.219,0,0,0,3.753,2.5,3.119,3.119,0,0,0,2.594-3.616,3.219,3.219,0,0,0-3.753-2.5" transform="translate(-648.624 -797.07)" fill="#fff"/>
            </g>
          </g>
        </g>
        <g id="Grupo_1026753" data-name="Grupo 1026753" transform="translate(73.441 39.488)" opacity="0.78">
          <g id="Grupo_1026752" data-name="Grupo 1026752">
            <g id="Grupo_1026751" data-name="Grupo 1026751" clip-path="url(#clip-path-28)">
              <path id="Trazado_727614" data-name="Trazado 727614" d="M556.646,297.931a3.119,3.119,0,0,0-2.594,3.616,3.219,3.219,0,0,0,3.753,2.5,3.119,3.119,0,0,0,2.594-3.616,3.219,3.219,0,0,0-3.753-2.5" transform="translate(-553.999 -297.88)" fill="#fff"/>
            </g>
          </g>
        </g>
        <g id="Grupo_1026756" data-name="Grupo 1026756" transform="translate(65.496 106.255)" opacity="0.78">
          <g id="Grupo_1026755" data-name="Grupo 1026755">
            <g id="Grupo_1026754" data-name="Grupo 1026754" clip-path="url(#clip-path-56)">
              <path id="Trazado_727615" data-name="Trazado 727615" d="M494.268,802.765c-.328.8-.246,1.543.183,1.667s1.042-.422,1.37-1.219.246-1.543-.183-1.667-1.042.422-1.37,1.219" transform="translate(-494.066 -801.529)" fill="#fff"/>
            </g>
          </g>
        </g>
        <g id="Grupo_1026759" data-name="Grupo 1026759" transform="translate(93.534 43.488)" opacity="0.78">
          <g id="Grupo_1026758" data-name="Grupo 1026758">
            <g id="Grupo_1026757" data-name="Grupo 1026757" clip-path="url(#clip-path-56)">
              <path id="Trazado_727616" data-name="Trazado 727616" d="M705.776,329.283c-.328.8-.246,1.543.183,1.667s1.042-.422,1.37-1.219.246-1.543-.183-1.667-1.042.422-1.37,1.219" transform="translate(-705.575 -328.047)" fill="#fff"/>
            </g>
          </g>
        </g>
        <g id="Grupo_1026762" data-name="Grupo 1026762" transform="translate(50.205 95.038)" opacity="0.78">
          <g id="Grupo_1026761" data-name="Grupo 1026761">
            <g id="Grupo_1026760" data-name="Grupo 1026760" clip-path="url(#clip-path-81)">
              <path id="Trazado_727617" data-name="Trazado 727617" d="M379.569,717.437c-.71.517-1.042,1.2-.742,1.516s1.118.161,1.828-.356,1.042-1.2.742-1.516-1.118-.161-1.828.357" transform="translate(-378.717 -716.916)" fill="#fff"/>
            </g>
          </g>
        </g>
        <g id="Grupo_1026765" data-name="Grupo 1026765" transform="translate(107.99 55.423)" opacity="0.78">
          <g id="Grupo_1026764" data-name="Grupo 1026764">
            <g id="Grupo_1026763" data-name="Grupo 1026763" clip-path="url(#clip-path-81)">
              <path id="Trazado_727618" data-name="Trazado 727618" d="M815.473,418.6c-.71.517-1.042,1.2-.742,1.516s1.118.161,1.828-.356,1.042-1.2.742-1.516-1.118-.161-1.828.357" transform="translate(-814.62 -418.078)" fill="#fff"/>
            </g>
          </g>
        </g>
        <g id="Grupo_1026768" data-name="Grupo 1026768" transform="translate(47.452 59.762)" opacity="0.78">
          <g id="Grupo_1026767" data-name="Grupo 1026767">
            <g id="Grupo_1026766" data-name="Grupo 1026766" clip-path="url(#clip-path-35)">
              <path id="Trazado_727619" data-name="Trazado 727619" d="M359.72,451.066c-.8-.368-1.582-.34-1.738.064s.367,1.03,1.171,1.4,1.582.34,1.738-.064-.367-1.031-1.171-1.4" transform="translate(-357.954 -450.808)" fill="#fff"/>
            </g>
          </g>
        </g>
        <g id="Grupo_1026771" data-name="Grupo 1026771" transform="translate(110.569 90.921)" opacity="0.78">
          <g id="Grupo_1026770" data-name="Grupo 1026770">
            <g id="Grupo_1026769" data-name="Grupo 1026769" clip-path="url(#clip-path-35)">
              <path id="Trazado_727620" data-name="Trazado 727620" d="M835.839,686.122c-.8-.369-1.582-.34-1.738.064s.367,1.03,1.171,1.4,1.582.34,1.738-.064-.367-1.03-1.171-1.4" transform="translate(-834.073 -685.863)" fill="#fff"/>
            </g>
          </g>
        </g>
        <g id="Grupo_1026774" data-name="Grupo 1026774" transform="translate(60.828 45.842)" opacity="0.78">
          <g id="Grupo_1026773" data-name="Grupo 1026773">
            <g id="Grupo_1026772" data-name="Grupo 1026772" clip-path="url(#clip-path-36)">
              <path id="Trazado_727621" data-name="Trazado 727621" d="M460.581,346.711c-.488-.717-1.169-1.082-1.52-.815s-.241,1.065.247,1.781,1.169,1.082,1.52.815.241-1.065-.247-1.781" transform="translate(-458.855 -345.809)" fill="#fff"/>
            </g>
          </g>
        </g>
        <g id="Grupo_1026777" data-name="Grupo 1026777" transform="translate(97.979 104.05)" opacity="0.78">
          <g id="Grupo_1026776" data-name="Grupo 1026776">
            <g id="Grupo_1026775" data-name="Grupo 1026775" clip-path="url(#clip-path-36)">
              <path id="Trazado_727622" data-name="Trazado 727622" d="M740.829,785.8c-.488-.717-1.169-1.082-1.52-.815s-.241,1.064.247,1.781,1.169,1.082,1.52.815.241-1.065-.247-1.781" transform="translate(-739.103 -784.899)" fill="#fff"/>
            </g>
          </g>
        </g>
      </g>
    </g>
    <g id="Grupo_1026781" data-name="Grupo 1026781" transform="translate(81.122 73.222)">
      <g id="Grupo_1026780" data-name="Grupo 1026780" clip-path="url(#clip-path-87)">
        <rect id="Rectángulo_350285" data-name="Rectángulo 350285" width="54.885" height="54.822" transform="translate(-18.464 17.982) rotate(-44.359)" fill="#ffa031"/>
      </g>
    </g>
    <g id="Grupo_1026786" data-name="Grupo 1026786">
      <g id="Grupo_1026785" data-name="Grupo 1026785" clip-path="url(#clip-path)">
        <g id="Grupo_1026784" data-name="Grupo 1026784" transform="translate(101.419 98.631)" opacity="0.7">
          <g id="Grupo_1026783" data-name="Grupo 1026783">
            <g id="Grupo_1026782" data-name="Grupo 1026782" clip-path="url(#clip-path-89)">
              <path id="Trazado_727624" data-name="Trazado 727624" d="M782.251,753.206a.63.63,0,0,0,.64-.189.593.593,0,0,0,.03-.763l-3.115-4.216a.343.343,0,0,0-.466-.08.314.314,0,0,0-.074.45l3.115,4.216c-4.966-2.576-16.63-8.484-16.879-8.578a.332.332,0,0,0-.429.183.325.325,0,0,0,.19.416c.355.156,9.3,4.679,16.855,8.51a.689.689,0,0,0,.133.051" transform="translate(-765.053 -744.023)" fill="#fff"/>
            </g>
          </g>
        </g>
      </g>
    </g>
    <g id="Grupo_1026788" data-name="Grupo 1026788" transform="translate(45.26 75.603)">
      <g id="Grupo_1026787" data-name="Grupo 1026787" clip-path="url(#clip-path-90)">
        <rect id="Rectángulo_350288" data-name="Rectángulo 350288" width="39.504" height="43.607" transform="translate(-10.189 13.882) rotate(-54.462)" fill="#ffa031"/>
      </g>
    </g>
    <g id="Grupo_1026793" data-name="Grupo 1026793">
      <g id="Grupo_1026792" data-name="Grupo 1026792" clip-path="url(#clip-path)">
        <g id="Grupo_1026791" data-name="Grupo 1026791" transform="translate(47.392 82.82)" opacity="0.7">
          <g id="Grupo_1026790" data-name="Grupo 1026790">
            <g id="Grupo_1026789" data-name="Grupo 1026789" clip-path="url(#clip-path-92)">
              <path id="Trazado_727626" data-name="Trazado 727626" d="M369.579,624.9a.3.3,0,0,0-.069-.085.281.281,0,0,0-.4.028c-.221.245-6.3,6.253-11.447,11.332a.569.569,0,0,0,.555.945l4.344-1.275a.284.284,0,0,0,.185-.361.3.3,0,0,0-.36-.2l-4.344,1.275c3.431-3.318,11.367-11.154,11.51-11.332a.294.294,0,0,0,.025-.327" transform="translate(-357.499 -624.747)" fill="#fff"/>
            </g>
          </g>
        </g>
      </g>
    </g>
    <g id="Grupo_1026795" data-name="Grupo 1026795" transform="translate(79.108 71.517)">
      <g id="Grupo_1026794" data-name="Grupo 1026794" clip-path="url(#clip-path-93)">
        <rect id="Rectángulo_350291" data-name="Rectángulo 350291" width="8.174" height="8.352" transform="translate(-1.633 6.211) rotate(-75.273)" fill="#ffa031"/>
      </g>
    </g>
    <g id="Grupo_1026807" data-name="Grupo 1026807">
      <g id="Grupo_1026806" data-name="Grupo 1026806" clip-path="url(#clip-path)">
        <g id="Grupo_1026805" data-name="Grupo 1026805" transform="translate(108.046 283.278)" opacity="0.53">
          <g id="Grupo_1026804" data-name="Grupo 1026804">
            <g id="Grupo_1026803" data-name="Grupo 1026803" clip-path="url(#clip-path-96)">
              <path id="Trazado_727631" data-name="Trazado 727631" d="M829.161,2190.6a.27.27,0,0,1-.156-.233c-1.2-23.554-13.813-52.788-13.94-53.081a.272.272,0,0,1,.5-.217c.128.293,12.779,29.616,13.984,53.27a.272.272,0,0,1-.257.285.269.269,0,0,1-.129-.025" transform="translate(-815.042 -2136.902)" fill="#fff"/>
            </g>
          </g>
        </g>
      </g>
    </g>
  </g>
</svg>
