<svg xmlns="http://www.w3.org/2000/svg" width="381.191" height="404.234" viewBox="0 0 381.191 404.234">
  <g id="Grupo_1029745" data-name="Grupo 1029745" transform="translate(-20.901 53.209)">
    <g id="Grupo_1029737" data-name="Grupo 1029737" transform="translate(16.718 66.952)">
      <path id="Trazado_728835" data-name="Trazado 728835" d="M387.958,268.228c-6.39-22.92,13.921-23.8,14.368-53.337.183-12.078-6.435-24.381-22.356-30.023-7.824-2.773-15.624-4.679-22.587-9.089-15.865-10.048-15.579-29.168-19.907-45.468-9.505-35.8-83.967-64.263-121-63.337-26.694.666-39.008,13.532-63.345,36.191-16.652,15.5-45.991,14.1-37.442,54.154,7.615,35.678-10.35,33.028-26.8,46.2-16.416,13.145-28.437,28.824-21.9,46.618,7.2,19.623-36.9,30.885-44.761,56.321-5.334,17.254,22.688,18.711,41.759,18.711s182.236-1.467,251.251.574c18.576.55,77.842,5.609,86.224-17.547C407.168,292.433,392.419,284.234,387.958,268.228Z" transform="translate(-17.382 -66.952)" fill="#c3ecfe" opacity="0.35"/>
      <g id="Grupo_1029708" data-name="Grupo 1029708" transform="translate(311.899 124.217)">
        <g id="Grupo_1029705" data-name="Grupo 1029705" transform="translate(1.431)">
          <path id="Trazado_728848" data-name="Trazado 728848" d="M380.216,213.279a.34.34,0,0,1-.321-.316l-.121-1.717a.34.34,0,0,1,.679-.047l.121,1.717a.34.34,0,0,1-.316.363Z" transform="translate(-379.773 -210.881)" fill="#599fd2"/>
        </g>
        <g id="Grupo_1029707" data-name="Grupo 1029707" transform="translate(0 7.261)">
          <g id="Grupo_1029706" data-name="Grupo 1029706">
            <path id="Trazado_728849" data-name="Trazado 728849" d="M387.7,292.444l-4.537.318-5.048-73.149,2.268-.159,2.268-.159Z" transform="translate(-378.115 -219.295)" fill="#c3ecfe"/>
          </g>
        </g>
        <path id="Trazado_728850" data-name="Trazado 728850" d="M380.418,212.441l-.917.064-1.386,6.169,4.537-.318Z" transform="translate(-378.115 -211.095)" fill="#c3ecfe"/>
      </g>
      <g id="Grupo_1029718" data-name="Grupo 1029718" transform="translate(265.973 105.15)">
        <path id="Trazado_728876" data-name="Trazado 728876" d="M362.506,232.89l15.3,59.991-2.91.742-18.929-59.066" transform="translate(-329.156 -194.829)" fill="#88d2ff"/>
        <g id="Grupo_1029713" data-name="Grupo 1029713" transform="translate(0 4.812)">
          <path id="Trazado_728877" data-name="Trazado 728877" d="M344.094,228.982c-7.812,1.992-16.127-4.067-18.535-13.507s1.991-18.74,9.8-20.732,16.127,4.067,18.534,13.506S351.906,226.99,344.094,228.982ZM336.7,199.993c-4.918,1.254-7.562,7.6-5.893,14.144s7.029,10.85,11.947,9.6,7.561-7.6,5.892-14.145S341.619,198.739,336.7,199.993Z" transform="translate(-324.901 -194.365)" fill="#9bdfff"/>
        </g>
        <g id="Grupo_1029714" data-name="Grupo 1029714" transform="translate(18.354 19.706)">
          <path id="Trazado_728878" data-name="Trazado 728878" d="M355.128,215.15l4.652,18.241a1.714,1.714,0,0,1-1.238,2.085h0a1.715,1.715,0,0,1-2.085-1.238l-.525-2.06s-2.443-5.21-9.2-3.062c0,0,8.056-1.006,8.329-.986S354.874,214.156,355.128,215.15Z" transform="translate(-346.246 -212.098)" fill="#c0edff"/>
          <path id="Trazado_728879" data-name="Trazado 728879" d="M359.133,237.624a4.427,4.427,0,0,1-5.378-3.192,7.125,7.125,0,0,0-.837-2.228c-.875-1.242-2.659-1.709-5.924-.877l-.827-4.611c1.717-.549,2.951-1.377,4.331-1.28.74-.091,1.354-.164,1.868-.224-.005-1.413-.033-3.275-.054-4.7-.021-1.517,1.948-3.223,1.943-4.313-.007-1.955-2.013-3.93.414-4.256l2.387-.317,5.271,20.624A4.428,4.428,0,0,1,359.133,237.624Z" transform="translate(-346.168 -211.622)" fill="#9bdfff"/>
        </g>
        <g id="Grupo_1029717" data-name="Grupo 1029717" transform="translate(35.023)">
          <path id="Trazado_728880" data-name="Trazado 728880" d="M366.154,232.259l.045,61.911,3,0,3.7-61.914" transform="translate(-365.574 -194.742)" fill="#88d2ff"/>
          <g id="Grupo_1029715" data-name="Grupo 1029715">
            <path id="Trazado_728881" data-name="Trazado 728881" d="M365.482,206.467c-.007-9.742,6.547-17.672,14.609-17.678s14.628,7.915,14.635,17.657-6.547,17.672-14.609,17.678S365.489,216.209,365.482,206.467Zm5.417,0c.005,6.755,4.139,12.247,9.214,12.244s9.2-5.5,9.2-12.257-4.138-12.247-9.214-12.244S370.894,199.708,370.9,206.463Z" transform="translate(-365.482 -188.789)" fill="#9bdfff"/>
          </g>
          <g id="Grupo_1029716" data-name="Grupo 1029716" transform="translate(0.011 18.409)">
            <path id="Trazado_728882" data-name="Trazado 728882" d="M368.623,213.317c0,1.027.014,18.825.014,18.825a1.715,1.715,0,0,0,1.716,1.713h0a1.713,1.713,0,0,0,1.713-1.715l0-2.127s1.075-5.653,8.151-5.246c0,0-8.053,1.021-8.314,1.108S368.622,212.29,368.623,213.317Z" transform="translate(-365.923 -210.549)" fill="#c0edff"/>
            <path id="Trazado_728883" data-name="Trazado 728883" d="M369.926,236.133a4.428,4.428,0,0,0,4.42-4.426,7.128,7.128,0,0,1,.259-2.366c.539-1.421,2.152-2.315,5.522-2.317l-.342-4.672c-1.8-.107-3.2-.6-4.513-.167-.739.1-1.352.177-1.866.246-.344-1.37-.779-3.181-1.112-4.57-.356-1.476-2.686-2.641-2.951-3.7-.478-1.9.975-4.307-1.456-4.021l-2.391.284.005,21.288A4.428,4.428,0,0,0,369.926,236.133Z" transform="translate(-365.495 -210.119)" fill="#9bdfff"/>
          </g>
        </g>
      </g>
      <g id="Grupo_1029723" data-name="Grupo 1029723" transform="translate(319.854 124.259)">
        <g id="Grupo_1029719" data-name="Grupo 1029719">
          <path id="Rectángulo_350581" data-name="Rectángulo 350581" d="M1.169,0H6.743A1.169,1.169,0,0,1,7.912,1.169V69.06a0,0,0,0,1,0,0H0a0,0,0,0,1,0,0V1.169A1.169,1.169,0,0,1,1.169,0Z" transform="translate(12.273) rotate(10.237)" fill="#88d2ff"/>
        </g>
        <g id="Grupo_1029720" data-name="Grupo 1029720" transform="translate(10.932 0)">
          <path id="Rectángulo_350582" data-name="Rectángulo 350582" d="M1.169,0H6.743A1.169,1.169,0,0,1,7.912,1.169v6.38a0,0,0,0,1,0,0H0a0,0,0,0,1,0,0V1.169A1.169,1.169,0,0,1,1.169,0Z" transform="matrix(0.984, 0.178, -0.178, 0.984, 1.342, 0)" fill="#f7ba72"/>
        </g>
        <g id="Grupo_1029722" data-name="Grupo 1029722" transform="translate(10.513 7.436)" opacity="0.5">
          <g id="Grupo_1029721" data-name="Grupo 1029721">
            <rect id="Rectángulo_350583" data-name="Rectángulo 350583" width="2.369" height="7.913" transform="matrix(0.178, -0.984, 0.984, 0.178, 0, 2.332)" fill="#599fd2"/>
          </g>
        </g>
      </g>
      <g id="Grupo_1029725" data-name="Grupo 1029725" transform="translate(321.031 135.226)">
        <rect id="Rectángulo_350584" data-name="Rectángulo 350584" width="13.658" height="73.895" transform="translate(27.096 0) rotate(21.511)" fill="#c3ecfe"/>
        <g id="Grupo_1029724" data-name="Grupo 1029724" transform="translate(9.4 5.593)">
          <line id="Línea_2758" data-name="Línea 2758" x2="4.188" y2="1.651" transform="translate(25.335)" fill="none" stroke="#ccf3ff" stroke-miterlimit="10" stroke-width="1.393"/>
          <line id="Línea_2759" data-name="Línea 2759" x2="4.188" y2="1.651" transform="translate(23.927 3.571)" fill="none" stroke="#ccf3ff" stroke-miterlimit="10" stroke-width="1.393"/>
          <line id="Línea_2760" data-name="Línea 2760" x2="4.188" y2="1.651" transform="translate(22.52 7.142)" fill="none" stroke="#ccf3ff" stroke-miterlimit="10" stroke-width="1.393"/>
          <line id="Línea_2761" data-name="Línea 2761" x2="6.237" y2="2.458" transform="translate(19.063 9.905)" fill="none" stroke="#ccf3ff" stroke-miterlimit="10" stroke-width="1.393"/>
          <line id="Línea_2762" data-name="Línea 2762" x2="4.188" y2="1.651" transform="translate(19.705 14.284)" fill="none" stroke="#ccf3ff" stroke-miterlimit="10" stroke-width="1.393"/>
          <line id="Línea_2763" data-name="Línea 2763" x2="4.188" y2="1.651" transform="translate(18.297 17.854)" fill="none" stroke="#ccf3ff" stroke-miterlimit="10" stroke-width="1.393"/>
          <line id="Línea_2764" data-name="Línea 2764" x2="4.188" y2="1.651" transform="translate(16.89 21.425)" fill="none" stroke="#ccf3ff" stroke-miterlimit="10" stroke-width="1.393"/>
          <line id="Línea_2765" data-name="Línea 2765" x2="6.237" y2="2.458" transform="translate(13.434 24.189)" fill="none" stroke="#ccf3ff" stroke-miterlimit="10" stroke-width="1.393"/>
          <line id="Línea_2766" data-name="Línea 2766" x2="4.188" y2="1.651" transform="translate(14.075 28.567)" fill="none" stroke="#ccf3ff" stroke-miterlimit="10" stroke-width="1.393"/>
          <line id="Línea_2767" data-name="Línea 2767" x2="4.188" y2="1.651" transform="translate(12.667 32.138)" fill="none" stroke="#ccf3ff" stroke-miterlimit="10" stroke-width="1.393"/>
          <line id="Línea_2768" data-name="Línea 2768" x2="4.188" y2="1.651" transform="translate(11.26 35.709)" fill="none" stroke="#ccf3ff" stroke-miterlimit="10" stroke-width="1.393"/>
          <line id="Línea_2769" data-name="Línea 2769" x2="6.237" y2="2.458" transform="translate(7.804 38.472)" fill="none" stroke="#ccf3ff" stroke-miterlimit="10" stroke-width="1.393"/>
          <line id="Línea_2770" data-name="Línea 2770" x2="4.188" y2="1.651" transform="translate(8.445 42.851)" fill="none" stroke="#ccf3ff" stroke-miterlimit="10" stroke-width="1.393"/>
          <line id="Línea_2771" data-name="Línea 2771" x2="4.188" y2="1.651" transform="translate(7.037 46.422)" fill="none" stroke="#ccf3ff" stroke-miterlimit="10" stroke-width="1.393"/>
          <line id="Línea_2772" data-name="Línea 2772" x2="4.188" y2="1.651" transform="translate(5.63 49.993)" fill="none" stroke="#ccf3ff" stroke-miterlimit="10" stroke-width="1.393"/>
          <line id="Línea_2773" data-name="Línea 2773" x2="6.237" y2="2.458" transform="translate(2.174 52.756)" fill="none" stroke="#ccf3ff" stroke-miterlimit="10" stroke-width="1.393"/>
          <line id="Línea_2774" data-name="Línea 2774" x2="4.188" y2="1.651" transform="translate(2.815 57.135)" fill="none" stroke="#ccf3ff" stroke-miterlimit="10" stroke-width="1.393"/>
          <line id="Línea_2775" data-name="Línea 2775" x2="4.188" y2="1.651" transform="translate(1.408 60.705)" fill="none" stroke="#ccf3ff" stroke-miterlimit="10" stroke-width="1.393"/>
          <line id="Línea_2776" data-name="Línea 2776" x2="4.188" y2="1.651" transform="translate(0 64.276)" fill="none" stroke="#ccf3ff" stroke-miterlimit="10" stroke-width="1.393"/>
        </g>
      </g>
      <path id="Trazado_728884" data-name="Trazado 728884" d="M402.434,366.248H339.073L328.43,270.4a2.058,2.058,0,0,1,2.045-2.284h80.557a2.058,2.058,0,0,1,2.045,2.284Z" transform="translate(-59.409 -94.503)" fill="#9bdfff"/>
      <path id="Trazado_728885" data-name="Trazado 728885" d="M318.108,377.988l114.494,1.56c1.281.017,5.317-1.232-1.639-5.718-5.892-3.8-24.515-.381-24.515-.381s4.335-1.738,4.315-3.981A6.076,6.076,0,0,0,407,364.323a13.952,13.952,0,0,0-6.6-.869,42.092,42.092,0,0,0-13.3,2.977,3.858,3.858,0,1,0-4.474-6.264c2.86-3.873,7.282-21.04-6.308-28.605-17.035-9.483-29.972-1.679-32.732,4.028-1.4-5.6-7.828-9.844-12.061-10.895-9.656-2.4-15.945-1.686-24.958,2.523-3.189,1.49-7.458,6.575-9.578,9.385-3.32,4.4-3.838,10.25-4.02,15.759q-.206,6.2-.056,12.41" transform="translate(-54.537 -102.066)" fill="#ccf3ff"/>
      <g id="Grupo_1029736" data-name="Grupo 1029736" transform="translate(122.539 -144.439) rotate(17)">
        <path id="Trazado_728886" data-name="Trazado 728886" d="M350.251,393.779c0,2.319-45.052,4.2-100.628,4.2S149,396.1,149,393.779s45.052-4.2,100.627-4.2S350.251,391.46,350.251,393.779Z" transform="translate(-148.996 -100.887)" fill="#a1d7e5" opacity="0.4"/>
        <path id="Trazado_728887" data-name="Trazado 728887" d="M250.486,104.176a10.1,10.1,0,0,0-10.1,10.1v12.942h20.2V114.274A10.1,10.1,0,0,0,250.486,104.176Zm0,15.893a5.666,5.666,0,1,1,5.667-5.666A5.664,5.664,0,0,1,250.486,120.069Z" transform="translate(-147.943 -104.176)" fill="#636363"/>
        <path id="Trazado_728888" data-name="Trazado 728888" d="M256.153,114.4a5.538,5.538,0,0,0-6.517-5.58,4.147,4.147,0,0,1,2.3-.551,5.666,5.666,0,0,1,5.666,5.667c0,2.837-1.447,4.375-3.634,4.935A6.2,6.2,0,0,0,256.153,114.4Zm-12.679,11.52V112.977a9.853,9.853,0,0,1,4.245-8.412,10.1,10.1,0,0,0-7.331,9.7v12.942h20.2v-1.293Z" transform="translate(-147.943 -104.172)" fill="#b03d44" opacity="0.45"/>
        <rect id="Rectángulo_350585" data-name="Rectángulo 350585" width="190.343" height="269.126" rx="9.742" transform="translate(5.456 23.72)" fill="#115089"/>
        <rect id="Rectángulo_350586" data-name="Rectángulo 350586" width="168.279" height="248.015" transform="translate(16.488 34.275)" fill="#c3ecfe"/>
        <rect id="Rectángulo_350587" data-name="Rectángulo 350587" width="155.337" height="232.861" transform="translate(22.959 41.852)" fill="#fff"/>
        <path id="Trazado_728889" data-name="Trazado 728889" d="M310.4,132.111v10.115H187.95V132.111a6.949,6.949,0,0,1,.324-2.114,7.1,7.1,0,0,1,6.777-4.987H303.294A7.1,7.1,0,0,1,310.4,132.111Z" transform="translate(-148.547 -103.936)" fill="#636363"/>
        <path id="Trazado_728890" data-name="Trazado 728890" d="M310.4,139.7v2.529H187.95V134.9a31.494,31.494,0,0,1,.324-4.906,7.1,7.1,0,0,1,6.777-4.987h.87a10.568,10.568,0,0,0-3.237,7.364V139.7Z" transform="translate(-148.547 -103.936)" fill="#b03d44" opacity="0.45"/>
        <g id="Grupo_1029735" data-name="Grupo 1029735" transform="translate(34.385 55.733)">
          <g id="Grupo_1029727" data-name="Grupo 1029727" transform="translate(31.652 10.875)">
            <g id="Grupo_1029726" data-name="Grupo 1029726" opacity="0.15">
              <line id="Línea_2777" data-name="Línea 2777" x2="25.232" fill="none" stroke="#0964af" stroke-linecap="round" stroke-linejoin="round" stroke-width="3.122"/>
              <line id="Línea_2778" data-name="Línea 2778" x2="19.186" transform="translate(81.857 8.044)" fill="none" stroke="#0964af" stroke-linecap="round" stroke-linejoin="round" stroke-width="3.122"/>
              <line id="Línea_2779" data-name="Línea 2779" x2="73.543" transform="translate(0 8.044)" fill="none" stroke="#0964af" stroke-linecap="round" stroke-linejoin="round" stroke-width="3.122"/>
              <line id="Línea_2780" data-name="Línea 2780" x2="101.043" transform="translate(0 16.089)" fill="none" stroke="#0964af" stroke-linecap="round" stroke-linejoin="round" stroke-width="3.122"/>
              <line id="Línea_2781" data-name="Línea 2781" x2="32.117" transform="translate(68.926 24.133)" fill="none" stroke="#0964af" stroke-linecap="round" stroke-linejoin="round" stroke-width="3.122"/>
              <line id="Línea_2782" data-name="Línea 2782" x2="60.932" transform="translate(0 24.133)" fill="none" stroke="#0964af" stroke-linecap="round" stroke-linejoin="round" stroke-width="3.122"/>
              <line id="Línea_2783" data-name="Línea 2783" x2="67.53" transform="translate(33.513)" fill="none" stroke="#0964af" stroke-linecap="round" stroke-linejoin="round" stroke-width="3.122"/>
            </g>
          </g>
          <g id="Grupo_1029729" data-name="Grupo 1029729" transform="translate(31.652 68.703)">
            <g id="Grupo_1029728" data-name="Grupo 1029728" opacity="0.15">
              <line id="Línea_2784" data-name="Línea 2784" x2="25.232" fill="none" stroke="#0964af" stroke-linecap="round" stroke-linejoin="round" stroke-width="3.122"/>
              <line id="Línea_2785" data-name="Línea 2785" x2="19.186" transform="translate(81.857 8.044)" fill="none" stroke="#0964af" stroke-linecap="round" stroke-linejoin="round" stroke-width="3.122"/>
              <line id="Línea_2786" data-name="Línea 2786" x2="73.543" transform="translate(0 8.044)" fill="none" stroke="#0964af" stroke-linecap="round" stroke-linejoin="round" stroke-width="3.122"/>
              <line id="Línea_2787" data-name="Línea 2787" x2="101.043" transform="translate(0 16.089)" fill="none" stroke="#0964af" stroke-linecap="round" stroke-linejoin="round" stroke-width="3.122"/>
              <line id="Línea_2788" data-name="Línea 2788" x2="32.117" transform="translate(68.926 24.133)" fill="none" stroke="#0964af" stroke-linecap="round" stroke-linejoin="round" stroke-width="3.122"/>
              <line id="Línea_2789" data-name="Línea 2789" x2="60.932" transform="translate(0 24.133)" fill="none" stroke="#0964af" stroke-linecap="round" stroke-linejoin="round" stroke-width="3.122"/>
              <line id="Línea_2790" data-name="Línea 2790" x2="67.53" transform="translate(33.513)" fill="none" stroke="#0964af" stroke-linecap="round" stroke-linejoin="round" stroke-width="3.122"/>
            </g>
          </g>
          <g id="Grupo_1029731" data-name="Grupo 1029731" transform="translate(31.652 124.509)">
            <g id="Grupo_1029730" data-name="Grupo 1029730" opacity="0.15">
              <line id="Línea_2791" data-name="Línea 2791" x2="25.232" fill="none" stroke="#0964af" stroke-linecap="round" stroke-linejoin="round" stroke-width="3.122"/>
              <line id="Línea_2792" data-name="Línea 2792" x2="19.186" transform="translate(81.857 8.044)" fill="none" stroke="#0964af" stroke-linecap="round" stroke-linejoin="round" stroke-width="3.122"/>
              <line id="Línea_2793" data-name="Línea 2793" x2="73.543" transform="translate(0 8.044)" fill="none" stroke="#0964af" stroke-linecap="round" stroke-linejoin="round" stroke-width="3.122"/>
              <line id="Línea_2794" data-name="Línea 2794" x2="101.043" transform="translate(0 16.089)" fill="none" stroke="#0964af" stroke-linecap="round" stroke-linejoin="round" stroke-width="3.122"/>
              <line id="Línea_2795" data-name="Línea 2795" x2="32.117" transform="translate(68.926 24.133)" fill="none" stroke="#0964af" stroke-linecap="round" stroke-linejoin="round" stroke-width="3.122"/>
              <line id="Línea_2796" data-name="Línea 2796" x2="60.932" transform="translate(0 24.133)" fill="none" stroke="#0964af" stroke-linecap="round" stroke-linejoin="round" stroke-width="3.122"/>
              <line id="Línea_2797" data-name="Línea 2797" x2="67.53" transform="translate(33.513)" fill="none" stroke="#0964af" stroke-linecap="round" stroke-linejoin="round" stroke-width="3.122"/>
            </g>
          </g>
          <g id="Grupo_1029733" data-name="Grupo 1029733" transform="translate(31.652 181.326)">
            <g id="Grupo_1029732" data-name="Grupo 1029732" opacity="0.15">
              <line id="Línea_2798" data-name="Línea 2798" x2="25.232" fill="none" stroke="#0964af" stroke-linecap="round" stroke-linejoin="round" stroke-width="3.122"/>
              <line id="Línea_2799" data-name="Línea 2799" x2="19.186" transform="translate(81.857 8.044)" fill="none" stroke="#0964af" stroke-linecap="round" stroke-linejoin="round" stroke-width="3.122"/>
              <line id="Línea_2800" data-name="Línea 2800" x2="73.543" transform="translate(0 8.044)" fill="none" stroke="#0964af" stroke-linecap="round" stroke-linejoin="round" stroke-width="3.122"/>
              <line id="Línea_2801" data-name="Línea 2801" x2="101.043" transform="translate(0 16.089)" fill="none" stroke="#0964af" stroke-linecap="round" stroke-linejoin="round" stroke-width="3.122"/>
              <line id="Línea_2802" data-name="Línea 2802" x2="32.117" transform="translate(68.926 24.133)" fill="none" stroke="#0964af" stroke-linecap="round" stroke-linejoin="round" stroke-width="3.122"/>
              <line id="Línea_2803" data-name="Línea 2803" x2="60.932" transform="translate(0 24.133)" fill="none" stroke="#0964af" stroke-linecap="round" stroke-linejoin="round" stroke-width="3.122"/>
              <line id="Línea_2804" data-name="Línea 2804" x2="67.53" transform="translate(33.513)" fill="none" stroke="#0964af" stroke-linecap="round" stroke-linejoin="round" stroke-width="3.122"/>
            </g>
          </g>
          <g id="Grupo_1029734" data-name="Grupo 1029734">
            <rect id="Rectángulo_350588" data-name="Rectángulo 350588" width="23.132" height="23.132" rx="2.102" transform="translate(0 8.447)" fill="none" stroke="#2396b5" stroke-miterlimit="10" stroke-width="1.157"/>
            <rect id="Rectángulo_350589" data-name="Rectángulo 350589" width="23.132" height="23.132" rx="2.102" transform="translate(0 66.088)" fill="none" stroke="#2396b5" stroke-miterlimit="10" stroke-width="1.157"/>
            <rect id="Rectángulo_350590" data-name="Rectángulo 350590" width="23.132" height="23.132" rx="2.102" transform="translate(0 123.729)" fill="none" stroke="#2396b5" stroke-miterlimit="10" stroke-width="1.157"/>
            <rect id="Rectángulo_350591" data-name="Rectángulo 350591" width="23.132" height="23.132" rx="2.102" transform="translate(0 181.369)" fill="none" stroke="#2396b5" stroke-miterlimit="10" stroke-width="1.157"/>
            <path id="Trazado_728891" data-name="Trazado 728891" d="M185.8,175.215l8.719,10.53L211.3,159.274" transform="translate(-182.957 -159.274)" fill="none" stroke="#ffa829" stroke-linecap="round" stroke-linejoin="round" stroke-width="3.47"/>
            <path id="Trazado_728892" data-name="Trazado 728892" d="M185.8,231.725l8.719,10.53L211.3,215.784" transform="translate(-182.957 -158.622)" fill="none" stroke="#ffa829" stroke-linecap="round" stroke-linejoin="round" stroke-width="3.47"/>
          </g>
        </g>
      </g>
    </g>
    <g id="Grupo_1029744" data-name="Grupo 1029744" transform="translate(84.283 76.627)">
      <path id="Trazado_728893" data-name="Trazado 728893" d="M122.521,248.136s.736,4.881,1.2,5.309a2.232,2.232,0,0,1-1.861.891" transform="translate(-75.913 -226.9)" fill="#ffb392"/>
      <path id="Trazado_728894" data-name="Trazado 728894" d="M177.545,395.484c0,2.031-18.271,3.677-40.812,3.677s-40.812-1.646-40.812-3.677,18.272-3.675,40.812-3.675S177.545,393.455,177.545,395.484Z" transform="translate(-94.353 -124.763)" fill="#a1d7e5" opacity="0.4"/>
      <g id="Grupo_1029739" data-name="Grupo 1029739" transform="translate(51.96 42.555)">
        <path id="Trazado_728895" data-name="Trazado 728895" d="M134.441,262.072l-9.018,39.617a1.894,1.894,0,0,0,1.579,2.3l28.072,4.033a1.9,1.9,0,0,0,2.118-1.456l9.02-39.617a1.9,1.9,0,0,0-1.579-2.3l-28.074-4.031A1.9,1.9,0,0,0,134.441,262.072Z" transform="translate(-125.375 -260.597)" fill="#57c6f2"/>
        <path id="Trazado_728896" data-name="Trazado 728896" d="M135.289,262.206l-8.635,37.931,27.874,4,8.635-37.931Z" transform="translate(-124.466 -259.453)" fill="#e5f8ff"/>
        <g id="Grupo_1029738" data-name="Grupo 1029738" transform="translate(8.178 6.149)">
          <line id="Línea_2805" data-name="Línea 2805" x1="23.688" y1="3.401" transform="translate(3.879)" fill="none" stroke="#a1d2f0" stroke-linecap="round" stroke-linejoin="round" stroke-width="0.574"/>
          <line id="Línea_2806" data-name="Línea 2806" x1="23.688" y1="3.401" transform="translate(3.081 3.585)" fill="none" stroke="#a1d2f0" stroke-linecap="round" stroke-linejoin="round" stroke-width="0.574"/>
          <line id="Línea_2807" data-name="Línea 2807" x1="14.803" y1="2.126" transform="translate(2.104 7.833)" fill="none" stroke="#a1d2f0" stroke-linecap="round" stroke-linejoin="round" stroke-width="0.574"/>
          <line id="Línea_2808" data-name="Línea 2808" x1="14.803" y1="2.126" transform="translate(1.052 10.915)" fill="none" stroke="#a1d2f0" stroke-linecap="round" stroke-linejoin="round" stroke-width="0.574"/>
          <line id="Línea_2809" data-name="Línea 2809" x1="14.803" y1="2.126" transform="translate(0 13.996)" fill="none" stroke="#a1d2f0" stroke-linecap="round" stroke-linejoin="round" stroke-width="0.574"/>
          <line id="Línea_2810" data-name="Línea 2810" x1="14.803" y1="2.126" transform="translate(5.428 31.026)" fill="none" stroke="#a1d2f0" stroke-linecap="round" stroke-linejoin="round" stroke-width="0.574"/>
        </g>
      </g>
      <path id="Trazado_728897" data-name="Trazado 728897" d="M126.663,292.307a12.282,12.282,0,0,0,3.9-3.482q1.671-1.991,3.345-3.983a3.322,3.322,0,0,0,.951-1.779c-1.87-.152-3.074,2.277-4.944,2.421a39.159,39.159,0,0,1,3.714-8.827,2.712,2.712,0,0,0,.536-2.2,14.252,14.252,0,0,0-5.194,3.793,27.635,27.635,0,0,0-2.816,3.583,38.554,38.554,0,0,0-5.037,12.375" transform="translate(-76.44 -208.185)" fill="#f2a181"/>
      <g id="Grupo_1029740" data-name="Grupo 1029740" transform="translate(15.431 99.12)">
        <path id="Trazado_728898" data-name="Trazado 728898" d="M130.729,310.57l-20.045-16.912s-9.328,12.652-5.814,24.859c1.728,6,3.9,8.979,4.838,11.826.879,2.66,6.914,40.324,6.464,43.079s-3.69,10.457-4.926,18.56c-1.488,9.745-1.235,41.5-2.388,49.914s6.621,9.843,7.049,6.994c3.654-24.343,13.3-62.277,14.656-74.446S131.366,339.987,130.729,310.57Z" transform="translate(-103.985 -293.658)" fill="#ffbe9d"/>
        <path id="Trazado_728899" data-name="Trazado 728899" d="M123.312,317.572l-8.717,20a44.819,44.819,0,0,1,6.082,20.967c.145,3.858-.2,7.725-.087,11.586a3.8,3.8,0,0,0,.116.838c1.169-5.721,2.039-10.436,2.382-13.509.953-8.6.958-22.264.655-39.908A4.07,4.07,0,0,0,123.312,317.572Z" transform="translate(-96.509 -276.673)" fill="#f2a181"/>
        <path id="Trazado_728900" data-name="Trazado 728900" d="M116.935,380.587s-1.867,8.832-1.364,9.957,2.308,4.4,4.157,5.581c1.94,1.24,6.238,2.717,6.582,3.254a1.335,1.335,0,0,1-.248,1.805,8.9,8.9,0,0,1-6.127,1.552c-5.827-.962-6.43-3.538-9.824-3.95-.587-.072-1.673.8-3.293-.034a3.855,3.855,0,0,1-2.27-3.738c.241-2.435,1.608-4.438,2.58-6.238s1.658-10.034,1.658-10.034" transform="translate(-103.662 -233.173)" fill="#ffbe9d"/>
        <path id="Trazado_728901" data-name="Trazado 728901" d="M126.88,396.847c.424-.727.532-1.826.137-2.1a34.154,34.154,0,0,0-3.627-2.183c-1.131-.52-2.922-.979-2.291-.636s-.53,1.615-1.589,1.55c-3.651-.222-6.346-2.65-8.426-3.17-3-.751-4.26-4.3-4.392-4.871-.568.361-1.889,3.215-2.157,4.113a7.209,7.209,0,0,0-.445,3.14,7.309,7.309,0,0,1,.334,2.994,5.751,5.751,0,0,0,2.159.777,8.436,8.436,0,0,0,2.323.034l.258-1.885a8.5,8.5,0,0,1,1.858.183,10.054,10.054,0,0,1,2.837,1.324c.417.5.751,1.406,1.3,1.683A11.625,11.625,0,0,0,119.952,399C123.869,399.226,126.154,398.089,126.88,396.847Z" transform="translate(-104.024 -228.411)" fill="#636363"/>
      </g>
      <g id="Grupo_1029741" data-name="Grupo 1029741" transform="translate(22.287 97.164)">
        <path id="Trazado_728902" data-name="Trazado 728902" d="M155.292,462.539c-.431-.476-5.075-1.23-7.253-2.14a12.531,12.531,0,0,1-5.078-4.837c-.489-1.184-.378-7.177-.315-9.692.435-17.335,3.637-59.691,4.1-69.835.806-17.633-1.483-35.83-8.265-64.135l-25.261-19.384s-7.073,13.15-4.7,25.725c1.374,7.3,7.425,8.418,8.448,11.253s16.3,48.548,16.3,48.548a86.075,86.075,0,0,0-3.145,20.71c-.147,9.242,4.043,37.123,4.821,47.744.091,2.075.448,7.044-.163,8.625-.749,1.938-2.66,4.216-2.565,6.661a3.762,3.762,0,0,0,2.871,3.324c1.79.556,2.787-.479,3.4-.5,3.56-.149,4.548,2.3,10.695,2.3a9.739,9.739,0,0,0,6.1-2.537A1.3,1.3,0,0,0,155.292,462.539Z" transform="translate(-108.032 -292.515)" fill="#ffbe9d"/>
        <path id="Trazado_728903" data-name="Trazado 728903" d="M146.057,396.475c.335-.789.291-1.892-.154-2.094a35.407,35.407,0,0,0-4.053-1.566c-1.239-.328-3.153-.489-2.453-.255s-.32,1.684-1.42,1.793c-3.8.376-6.922-1.584-9.143-1.757-3.2-.251-4.38-3.55-4.6-4.1a14.678,14.678,0,0,0-2.267,4.419,6.947,6.947,0,0,0-.017,3.177,6.942,6.942,0,0,1,.768,2.9,6.026,6.026,0,0,0,2.337.418,9.283,9.283,0,0,0,2.4-.347v-1.906a9.237,9.237,0,0,1,1.942-.123,6.428,6.428,0,0,1,3.131,1.107c.524.393,1.073,1.056,1.689,1.21a12.86,12.86,0,0,0,4.989.378C143.286,399.32,145.484,397.822,146.057,396.475Z" transform="translate(-98.268 -224.281)" fill="#636363"/>
      </g>
      <path id="Trazado_728904" data-name="Trazado 728904" d="M111.527,293.208c-1.714,1.882-7.824,12.062-7.889,20.348a38.263,38.263,0,0,0,3.148,15.33c1.564,4.529,4.474,8.578,4.474,9.406s4.554,1.4,14.218.794c17.853-1.124,24.413-4.474,24.413-4.474s.583-7.427-1.247-23.542c-.869-7.651-7.386-19.771-7.386-19.771" transform="translate(-88.868 -196.215)" fill="#12263f"/>
      <path id="Trazado_728905" data-name="Trazado 728905" d="M98.728,273.655s2.876,14.286,3.631,16.83,4.484,18.685,8.021,18.4,22.9-16.448,22.9-16.448l-2.743-5.485-17.047,8.127s-1.54-18.455-2.89-22.849" transform="translate(-92.358 -209.769)" fill="#ffbe9d"/>
      <path id="Trazado_728906" data-name="Trazado 728906" d="M102.58,278.2c1.8,6.378,5.5,13.1,6.609,18.047.222.994,12.026-3.3,12.053-7.732" transform="translate(-89.62 -205.525)" fill="#f2a181"/>
      <path id="Trazado_728907" data-name="Trazado 728907" d="M110.572,261.489s-5.653.6-8.519,2.794c-7.309,5.593-1.653,25.891-1.653,25.891s-.361,1.083,4.546.809a35.316,35.316,0,0,0,8.84-1.672l-1.418-16.633" transform="translate(-92.653 -217.407)" fill="#065958"/>
      <path id="Trazado_728908" data-name="Trazado 728908" d="M101.73,268.206s-.619,11.932,1.54,17.954a19.541,19.541,0,0,0,4-.525Z" transform="translate(-90.283 -212.632)" fill="#003636"/>
      <path id="Trazado_728909" data-name="Trazado 728909" d="M131.807,240.071c3.406,4.418,2.732,10.628,1.892,16.141q-.636,4.183-1.275,8.363c-.2,1.324-.47,2.772-1.5,3.627s-2.527.847-3.877.789l.041,6.921q-5.921.144-11.843.048a11.4,11.4,0,0,0-1.025-4.7c-1.93-.038-3.222-1.974-3.976-3.75a54.264,54.264,0,0,1-2.122-6.334,35.1,35.1,0,0,1-1.673-8.683,12.57,12.57,0,0,1,2.5-8.311,15.122,15.122,0,0,1,4.813-3.595c2.448-1.278,5.388-2.286,7.913-1.167" transform="translate(-86.874 -233.44)" fill="#ffbe9d"/>
      <path id="Trazado_728910" data-name="Trazado 728910" d="M130.416,263.393c-.467-2.32-.435-3.629.325-5.172a3.416,3.416,0,0,1,1.039-1.314,2.19,2.19,0,0,1,2.11-.219,2.328,2.328,0,0,1,1.059.989,30.219,30.219,0,0,0,.743-9.672,12.579,12.579,0,0,0-7.978-10.951c-8.361-3.435-20.375-.041-23.771,8.166-2.565,6.2-1.264,15.147,3.646,20.343,4.347,4.6,10.6,5.276,16.37,4.329,2.953-.484,7.509-.193,9.037-4.209a.448.448,0,0,0-.46-.6C131.334,265.179,130.5,263.822,130.416,263.393Z" transform="translate(-89.566 -235.724)"/>
      <path id="Trazado_728911" data-name="Trazado 728911" d="M122.765,251.787c.311.486.238,1.141.529,1.639a3.855,3.855,0,0,0,2.022,1.548c1.418.657,1.086,2.724,1.045,3.648,1.071-.712,1.244-2.648,1.5-3.634.289-1.105.476-2.24.8-3.335a16.964,16.964,0,0,0,.956-3.194c.346-3.877-2.086-8.433-5.025-10.609a6.986,6.986,0,0,0-7.824.092,6.092,6.092,0,0,0-2.234,2.84,1.884,1.884,0,0,0-.087,1.524" transform="translate(-81.274 -235.032)"/>
      <path id="Trazado_728912" data-name="Trazado 728912" d="M108.15,263.287c.2-1.352.566-2.927,1.824-3.461a3.953,3.953,0,0,1,1.11-.234,91.585,91.585,0,0,1,11.6-.547,10.8,10.8,0,0,1,4.695.823c2.248,1.124,3.483,3.547,4.57,5.814" transform="translate(-85.66 -219.154)" fill="#003636"/>
      <path id="Trazado_728913" data-name="Trazado 728913" d="M145.365,311.881a31.944,31.944,0,0,1-2.228-2.625c-1.071-2.1-2.007-10.96-1.637-13.222.394-2.426,2.541-3.73,3.509-9.128a19.97,19.97,0,0,0-3.2-14.673c-2.253-3.273-.917-3.254-1.689-7.264a3.815,3.815,0,0,0-.8-2,19.187,19.187,0,0,0-4.5-2.134c-6.262-.97-9.942-.214-16.272.065a54.044,54.044,0,0,0-9.335,1.181c-3.4.749-6.368,1.653-7.068,6.27a46.532,46.532,0,0,0,2,21.138c1.439,4.489,10.031,20.023,7.9,23.029-.486.688-1.7,1.993-1.851,2.85-.539,3.139,6.554,4.243,9.59,4.493a118.627,118.627,0,0,0,14.57-.092c3.512-.164,11.2-1.391,11.742-5.73A3.144,3.144,0,0,0,145.365,311.881Z" transform="translate(-90.252 -218.209)" fill="#065958"/>
      <path id="Trazado_728914" data-name="Trazado 728914" d="M130.674,280.109a12.5,12.5,0,0,1-.934,3.622c-.881.452-4.375,1.2-6.38.287-.44-4.173-2.883-12.206-2.883-12.206S130.672,278.941,130.674,280.109Z" transform="translate(-76.897 -210.068)" fill="#003636"/>
      <g id="Grupo_1029743" data-name="Grupo 1029743" transform="translate(49.291 46.528)">
        <path id="Trazado_728915" data-name="Trazado 728915" d="M123.815,279.065s11.567,27.954,16.585,27.954c3.651,0,12.6-25.805,12.6-25.805l-5.656-2.678-6.306,10.808-6.387-20.158" transform="translate(-123.815 -258.463)" fill="#ffbe9d"/>
        <path id="Trazado_728916" data-name="Trazado 728916" d="M136.913,282.446s1.875-2.951,1.738-5.045c-.053-.8-.527-4.6-.13-5.346s1.346-3.193,1.891-3.668,2.553-1.239,3.044-.9,1.1-1.222,1.918-1.086a1.726,1.726,0,0,1,1.494,1.562c0,.748,1.088.883,1.223,1.427a7.756,7.756,0,0,0,.272,1.427c.2.407.8.205,1.018,1.222.2.931-.067,1.02,0,1.5s.476.431.34,1.336a11.36,11.36,0,0,1-1.3,3.1,8.948,8.948,0,0,1-3.155,3.194,6.025,6.025,0,0,0-1.841,2.541" transform="translate(-114.504 -260.45)" fill="#ffbe9d"/>
        <path id="Trazado_728917" data-name="Trazado 728917" d="M139.279,263.315a.694.694,0,0,0-1-.269.892.892,0,0,0-.221,1.11l3.42,7.738s.275.318.806-.147c.573-.506.39-.76.39-.76S139.421,263.537,139.279,263.315Z" transform="translate(-113.761 -262.918)" fill="#1b227a"/>
        <g id="Grupo_1029742" data-name="Grupo 1029742" transform="translate(25.983 7.463)">
          <path id="Trazado_728918" data-name="Trazado 728918" d="M142.14,267.391a7.944,7.944,0,0,1-2.086,2.173c-.532.5-.465.823-1.052,1.338,1.028-.077.852-.684,2.185-1.646a2.812,2.812,0,0,0,1.377-1.687.233.233,0,0,0-.424-.178Z" transform="translate(-139.002 -267.28)" fill="#f2a181"/>
        </g>
      </g>
      <path id="Trazado_728919" data-name="Trazado 728919" d="M117.6,260.431c3.013.157,11.783-1.382,16.657,3.716,4.082,4.27,6.421,15.466,8.065,20.007-4.091,4.169-8.031,7.531-14.228,6.178-.234-.174-3.309-9.851-5.547-10.712" transform="translate(-78.945 -218.231)" fill="#065958"/>
      <path id="Trazado_728920" data-name="Trazado 728920" d="M148.6,316.829s1.99,47.826,1.627,51.313-4.243,69.519-4.243,69.519-7.968,1.4-12.739,0c0,0-6.156-51.421,0-67.445l-2.736-15.354s.407,11.42,0,13.745-12.722,67.426-12.722,67.426-8.146-.216-11.867-3.48c0,0-1.16-45.229,7.326-64.256l-7.766-49.768,4.474-12.664Z" transform="translate(-87.56 -185.86)" fill="#12263f"/>
      <path id="Trazado_728921" data-name="Trazado 728921" d="M127.2,352.016c-1.138-7.355-8.158-33.445-8.455-34.073-3.838-2.973-7.343-5.595-8.619-8.074,2.1,6.291,6.134,6.616,7.644,9.872,3.731,8.038.881,6.265,9.595,33.2" transform="translate(-84.255 -183.013)" fill="#170d54"/>
      <path id="Trazado_728922" data-name="Trazado 728922" d="M103.684,265.334c-.18,2.546.34,5.086.382,7.637s-.506,5.3-2.38,7.034-5.35,1.8-6.681-.376a10.075,10.075,0,0,0,7.316,5.263,15.473,15.473,0,0,0,9.1-1.4,21.3,21.3,0,0,0,12.318-19.655c-.192-6.828-5.376-13.427-12.62-9.838A13.95,13.95,0,0,0,103.684,265.334Z" transform="translate(-95.005 -223.453)"/>
    </g>
  </g>
</svg>
