<svg xmlns="http://www.w3.org/2000/svg" xmlns:xlink="http://www.w3.org/1999/xlink" width="74.347" height="112.551" viewBox="0 0 74.347 112.551">
  <defs>
    <clipPath id="clip-path">
      <rect id="Rect치ngulo_346374" data-name="Rect치ngulo 346374" width="15.143" height="34.479" transform="translate(0 0)" fill="none" stroke="#12263f" stroke-width="1"/>
    </clipPath>
    <clipPath id="clip-path-2">
      <rect id="Rect치ngulo_349321" data-name="Rect치ngulo 349321" width="51.164" height="70.228" fill="none"/>
    </clipPath>
  </defs>
  <g id="Grupo_1024560" data-name="Grupo 1024560" transform="matrix(0.998, -0.07, 0.07, 0.998, -986.56, -33.737)">
    <g id="Grupo_1024551" data-name="Grupo 1024551" transform="translate(16 -5.53)">
      <g id="Grupo_1002341" data-name="Grupo 1002341" transform="translate(116.552 -155.822)">
        <g id="Grupo_1002316" data-name="Grupo 1002316" transform="matrix(-0.799, 0.602, -0.602, -0.799, 916.26, 371.379)">
          <g id="Grupo_1002212" data-name="Grupo 1002212" transform="translate(0 0)" clip-path="url(#clip-path)">
            <path id="Trazado_707910" data-name="Trazado 707910" d="M3.283,0C-.861,8.287-.4,20.838.981,30.046" transform="translate(7.972 1.125)" fill="none" stroke="#12263f" stroke-linecap="round" stroke-linejoin="round" stroke-width="3"/>
            <path id="Trazado_707911" data-name="Trazado 707911" d="M0,.921c2.762,2.762,5.986,4.6,8.747,6.906A25.589,25.589,0,0,1,12.891,0" transform="translate(1.126 25.527)" fill="none" stroke="#12263f" stroke-linecap="round" stroke-linejoin="round" stroke-width="3"/>
          </g>
        </g>
      </g>
    </g>
    <g id="Grupo_1024556" data-name="Grupo 1024556" transform="translate(981.679 104.255) rotate(2)">
      <g id="Grupo_1024552" data-name="Grupo 1024552" clip-path="url(#clip-path-2)">
        <path id="Trazado_723810" data-name="Trazado 723810" d="M15,0H10.8L.915,13.414a5.317,5.317,0,0,0-.833,3.911l.391,2.038H15a2.162,2.162,0,0,0,2.16-2.164V2.164A2.162,2.162,0,0,0,15,0" transform="translate(33.292 50.147)" fill="#f7b565"/>
        <path id="Trazado_723811" data-name="Trazado 723811" d="M6.653,0A2.159,2.159,0,0,0,4.741,1.155L.431,9.962h0L0,18.191,4.019,9.634a6.552,6.552,0,0,1,5.8-3.5H22.065L26.584,0Z" transform="translate(17.509 50.147)" fill="#f89b2a"/>
        <path id="Trazado_723812" data-name="Trazado 723812" d="M22.127,0,16.759,7.282a5.317,5.317,0,0,0-.833,3.911l.391,2.038H0l.062-1.172L4.08,3.5A6.552,6.552,0,0,1,9.877,0Z" transform="translate(17.448 56.28)" fill="#f7b565"/>
        <path id="Trazado_723813" data-name="Trazado 723813" d="M1.671,0A1.673,1.673,0,0,0,0,1.674V43.651H3.341V1.674A1.671,1.671,0,0,0,1.671,0" transform="translate(32.256 2.563)" fill="#978cac"/>
        <path id="Trazado_723814" data-name="Trazado 723814" d="M16.417,3.97a2.818,2.818,0,0,1-2.4-1.7A3.361,3.361,0,0,0,11.156.249L6.486,0A3.35,3.35,0,0,0,3.508,1.588,2.99,2.99,0,0,1,.347,3.127L0,9.754l16.729.877L17.078,4Z" transform="translate(1.314 47.486)" fill="#5fa8ed"/>
        <path id="Trazado_723815" data-name="Trazado 723815" d="M4.119,0A1.964,1.964,0,0,1,5.9,2.132L3.779,47,0,46.8,2.123,1.933a1.966,1.966,0,0,1,2-1.93" transform="translate(8.317 0.719)" fill="#b0b5ca"/>
        <path id="Trazado_723816" data-name="Trazado 723816" d="M7.53,3.759v.568H.024A3.842,3.842,0,0,1,3.777,0,3.763,3.763,0,0,1,7.53,3.759" transform="translate(30.151 45.82)" fill="#7e788e"/>
        <path id="Trazado_723817" data-name="Trazado 723817" d="M7.808,1.588a3.456,3.456,0,0,1,1.8-1.42L6.486,0A3.35,3.35,0,0,0,3.508,1.588,2.99,2.99,0,0,1,.347,3.127L0,9.754l4.355.228.292-6.855A2.99,2.99,0,0,0,7.808,1.588Z" transform="translate(1.314 47.486)" fill="#4e93cc"/>
        <path id="Trazado_723818" data-name="Trazado 723818" d="M8.38,3.5a6.552,6.552,0,0,1,5.8-3.5h-4.3a6.552,6.552,0,0,0-5.8,3.5L.062,12.059,0,13.231H4.3l.062-1.172Z" transform="translate(17.448 56.28)" fill="#f7b565"/>
        <path id="Trazado_723819" data-name="Trazado 723819" d="M.679,69.349H.717a.716.716,0,0,0,.715-.679l.56-10.677,2.751.144-.56,10.678a.717.717,0,0,0,.678.753H4.9a.716.716,0,0,0,.715-.679l.36-6.877.2-3.8,2.751.144-.56,10.678a.717.717,0,0,0,.678.753h.038A.716.716,0,0,0,9.8,69.11l.56-10.677,2.751.144-.56,10.678a.717.717,0,0,0,.678.753h.038a.716.716,0,0,0,.715-.679l.56-10.677,2.751.144-.56,10.678a.717.717,0,0,0,.678.753H48.287a2.882,2.882,0,0,0,2.877-2.88V52.312a2.882,2.882,0,0,0-2.877-2.88H38.393A4.477,4.477,0,0,0,36.313,45.8V4.237a2.387,2.387,0,1,0-4.774,0V45.8a4.478,4.478,0,0,0-2.079,3.633h-5.3a2.869,2.869,0,0,0-2.545,1.537l-.01.019-2.768,5.654.268-5.113c.051-.746-.8-.8-1.339-.788a2.106,2.106,0,0,1-1.783-1.277,4.1,4.1,0,0,0-3.141-2.41L14.934,2.888A2.685,2.685,0,0,0,12.473.006,2.7,2.7,0,0,0,9.724,2.619L7.635,46.77A4.1,4.1,0,0,0,4.22,48.686a2.188,2.188,0,0,1-2.009,1.238C1.7,49.838.967,49.91.946,50.576L0,68.6a.717.717,0,0,0,.678.753ZM48.287,50.864a1.447,1.447,0,0,1,1.444,1.447V67.347a1.447,1.447,0,0,1-1.444,1.447H34.357l-.277-1.447a4.572,4.572,0,0,1,.712-3.371l9.663-13.111ZM32.973,4.237a.954.954,0,1,1,1.908,0v40.97a4.442,4.442,0,0,0-1.908,0Zm.954,42.3a3.041,3.041,0,0,1,3.029,2.894H30.9a3.041,3.041,0,0,1,3.029-2.894M18.648,60.292l4.241-8.665a1.439,1.439,0,0,1,1.272-.763H42.675l-3.463,4.7H27.325a7.25,7.25,0,0,0-6.43,3.884l-.015.029-2.464,5.246Zm-.431,8.224L22.17,60.1A5.821,5.821,0,0,1,27.325,57H38.156L33.63,63.137l-.016.023a6,6,0,0,0-.942,4.446l.227,1.187H18.2l.015-.278ZM11.155,2.69A1.26,1.26,0,0,1,12.4,1.437a1.255,1.255,0,0,1,1.1,1.38L11.835,38.064l-.421,8.9-2.347-.123ZM2.34,51.36a3.63,3.63,0,0,0,3.086-1.9A2.618,2.618,0,0,1,7.764,48.2l4.669.245a2.651,2.651,0,0,1,2.247,1.605,3.537,3.537,0,0,0,2.959,2.113l-.272,5.2-15.3-.8.273-5.2Z" transform="translate(0 0)"/>
      </g>
    </g>
  </g>
</svg>
