<svg xmlns="http://www.w3.org/2000/svg" xmlns:xlink="http://www.w3.org/1999/xlink" width="108.237" height="103.974" viewBox="0 0 108.237 103.974">
  <defs>
    <clipPath id="clip-path">
      <rect id="Rectángulo_346374" data-name="Rectángulo 346374" width="20.178" height="45.944" transform="translate(0 0)" fill="none" stroke="#12263f" stroke-width="1"/>
    </clipPath>
    <clipPath id="clip-path-2">
      <rect id="Rectángulo_349323" data-name="Rectángulo 349323" width="69.058" height="71.999" fill="none"/>
    </clipPath>
  </defs>
  <g id="Grupo_1024559" data-name="Grupo 1024559" transform="matrix(-0.259, 0.966, -0.966, -0.259, 745.731, -1212.135)">
    <g id="Grupo_1002342" data-name="Grupo 1002342" transform="translate(26.148 -32.352)">
      <g id="Grupo_1002315" data-name="Grupo 1002315" transform="translate(1347.438 436.338) rotate(-135)">
        <g id="Grupo_1002212" data-name="Grupo 1002212" clip-path="url(#clip-path)">
          <path id="Trazado_707910" data-name="Trazado 707910" d="M15,1.5C9.476,12.543,10.089,29.267,11.93,41.536" fill="none" stroke="#12263f" stroke-linecap="round" stroke-linejoin="round" stroke-width="3"/>
          <path id="Trazado_707911" data-name="Trazado 707911" d="M1.5,35.242c3.681,3.681,7.976,6.135,11.656,9.2a34.1,34.1,0,0,1,5.522-10.429" fill="none" stroke="#12263f" stroke-linecap="round" stroke-linejoin="round" stroke-width="3"/>
        </g>
      </g>
    </g>
    <g id="Grupo_1024555" data-name="Grupo 1024555" transform="translate(1359.319 358.879) rotate(-77)">
      <g id="Grupo_1024554" data-name="Grupo 1024554" clip-path="url(#clip-path-2)">
        <path id="Trazado_723820" data-name="Trazado 723820" d="M376.766,5.915l-.006-.006a3.329,3.329,0,0,0-4.706.137l-9.035,9.577a.825.825,0,0,0,.034,1.168l3.646,3.441a.828.828,0,0,0,1.17-.034l9.035-9.577a3.329,3.329,0,0,0-.137-4.706" transform="translate(-309.485 -4.267)" fill="#ffa031"/>
        <rect id="Rectángulo_349322" data-name="Rectángulo 349322" width="38.657" height="3.93" transform="translate(27.433 41.015) rotate(-46.666)" fill="#b0b5ca"/>
        <path id="Trazado_723821" data-name="Trazado 723821" d="M147.42,265.313l-8.946-8.442a1.7,1.7,0,0,0-2.4.071l-2.332,2.471,11.417,10.773,2.332-2.471a1.7,1.7,0,0,0-.069-2.4" transform="translate(-114.089 -218.733)" fill="#ffa031"/>
        <path id="Trazado_723822" data-name="Trazado 723822" d="M365.957,18.562l9.035-9.577a3.321,3.321,0,0,1,2.8-1.02,3.316,3.316,0,0,0-1.022-2.05l-.006-.006a3.329,3.329,0,0,0-4.706.137l-9.035,9.577a.825.825,0,0,0,.034,1.168l2.713,2.561a.821.821,0,0,1,.192-.79" transform="translate(-309.485 -4.267)" fill="#f9921a"/>
        <path id="Trazado_723823" data-name="Trazado 723823" d="M138.474,256.872a1.7,1.7,0,0,0-2.4.071l-2.332,2.471,3.021,2.851,2.4-2.531a1.7,1.7,0,0,1,1.954-.374Z" transform="translate(-114.089 -218.733)" fill="#f9921a"/>
        <path id="Trazado_723824" data-name="Trazado 723824" d="M67.78,1.108a4.064,4.064,0,0,0-5.746.167L53,10.852a1.563,1.563,0,0,0-.067,2.066L27.4,39.976,24.89,37.6a2.434,2.434,0,0,0-3.441.1l-2.3,2.439L.264,55.879A.735.735,0,0,0,1.2,57.008L19.621,41.662l1.12,1.057L3.5,59A.735.735,0,1,0,4.51,60.064l17.3-16.336,1.405,1.326L6.457,61.814A.735.735,0,0,0,7.5,62.853L24.286,46.064l1.159,1.094L9.66,64.9a.735.735,0,1,0,1.1.977L26.514,48.166l1.4,1.323-15.3,18.229a.735.735,0,0,0,1.126.945L28.987,50.5l1.1,1.042L15.848,70.828a.735.735,0,1,0,1.182.873l14.6-19.774,2.3-2.44a2.437,2.437,0,0,0-.1-3.441L31.33,43.682,56.858,16.623a1.547,1.547,0,0,0,.921.3h.046a1.551,1.551,0,0,0,1.091-.489l9.036-9.578a4.071,4.071,0,0,0-.172-5.75ZM32.827,47.115a.966.966,0,0,1,.04,1.364l-1.828,1.938L20.69,40.65l1.828-1.937a.969.969,0,0,1,1.364-.04l8.945,8.442Zm-2.566-4.442-1.789-1.689L53.991,13.936l1.789,1.689ZM66.883,5.85l-9.036,9.578a.09.09,0,0,1-.064.029.091.091,0,0,1-.066-.025l-3.646-3.441a.092.092,0,0,1,0-.13L63.1,2.283A2.6,2.6,0,0,1,66.884,5.85Z" transform="translate(0 0)"/>
        <path id="Trazado_723825" data-name="Trazado 723825" d="M423.4,25.457,421.38,27.6a.735.735,0,1,0,1.069,1.008l2.018-2.139a.735.735,0,0,0-1.069-1.008" transform="translate(-359.293 -21.52)"/>
      </g>
    </g>
  </g>
</svg>
