<svg xmlns="http://www.w3.org/2000/svg" xmlns:xlink="http://www.w3.org/1999/xlink" width="69.006" height="125.097" viewBox="0 0 69.006 125.097">
  <defs>
    <clipPath id="clip-path">
      <rect id="Rect치ngulo_346374" data-name="Rect치ngulo 346374" width="20.964" height="47.733" fill="none" stroke="#12263f" stroke-width="1"/>
    </clipPath>
    <clipPath id="clip-path-2">
      <rect id="Rect치ngulo_349320" data-name="Rect치ngulo 349320" width="57" height="62" transform="translate(0 0.043)" fill="none"/>
    </clipPath>
  </defs>
  <g id="Grupo_1024558" data-name="Grupo 1024558" transform="matrix(0.995, 0.105, -0.105, 0.995, -1211.411, -262.924)">
    <g id="Grupo_1002339" data-name="Grupo 1002339" transform="translate(-54 0.361)">
      <g id="Grupo_1002317" data-name="Grupo 1002317" transform="translate(1317.205 257.029) rotate(-155)">
        <g id="Grupo_1002212" data-name="Grupo 1002212" transform="translate(0 0)" clip-path="url(#clip-path)">
          <path id="Trazado_707910" data-name="Trazado 707910" d="M4.544,0c-5.736,11.473-5.1,28.848-3.186,41.595" transform="translate(11.037 1.558)" fill="none" stroke="#12263f" stroke-linecap="round" stroke-linejoin="round" stroke-width="3"/>
          <path id="Trazado_707911" data-name="Trazado 707911" d="M0,1.275C3.824,5.1,8.287,7.649,12.11,10.835A35.426,35.426,0,0,1,17.847,0" transform="translate(1.558 35.339)" fill="none" stroke="#12263f" stroke-linecap="round" stroke-linejoin="round" stroke-width="3"/>
        </g>
      </g>
    </g>
    <g id="Grupo_1024557" data-name="Grupo 1024557" transform="matrix(0.996, -0.087, 0.087, 0.996, 1243.806, 133.757)">
      <g id="Grupo_1024549" data-name="Grupo 1024549" transform="translate(0.413 -0.163)" clip-path="url(#clip-path-2)">
        <path id="Trazado_723793" data-name="Trazado 723793" d="M56.833,176.9H21.228l2.249,36.673a2.391,2.391,0,0,0,2.386,2.261l30.156-.01-.3-19.18h0Z" transform="translate(-18.854 -154.42)" fill="#ccd3df"/>
        <path id="Trazado_723794" data-name="Trazado 723794" d="M327.805,293.866h-7.04a.7.7,0,0,0-.7.7v1.687l8.435-.173v-1.514A.7.7,0,0,0,327.805,293.866Z" transform="translate(-279.93 -256.609)" fill="#6addc7"/>
        <path id="Trazado_723795" data-name="Trazado 723795" d="M101.887,64.906h-7.04a.7.7,0,0,0-.7.7v2.1l8.436-.214V65.6a.7.7,0,0,0-.7-.7" transform="translate(-82.559 -56.582)" fill="#6addc7"/>
        <path id="Trazado_723796" data-name="Trazado 723796" d="M286.423,324.536l-2.337-10.749a8.147,8.147,0,0,0-1.727-3.523,0,0,0,0,1,0,0,8.171,8.171,0,0,0-6.255-2.919c-1.769-.008-4-.127-5.618.675a8.184,8.184,0,0,0-3.269,2.575h0a9.336,9.336,0,0,0-1.676,4.161l-2.127,9.781a4.318,4.318,0,0,0,4.1,5.238h14.7a4.267,4.267,0,0,0,2.04-.512h0A4.324,4.324,0,0,0,286.423,324.536Z" transform="translate(-230.347 -268.373)" fill="#4ba6f7"/>
        <path id="Trazado_723797" data-name="Trazado 723797" d="M69.826,80.584a9.58,9.58,0,0,0-2.047-1.267h0a9.614,9.614,0,0,0-4-.869,9.636,9.636,0,0,0-4.435,1.083,9.654,9.654,0,0,0-4.985,6.522l-.049.642H73.244l-.047-.642A9.638,9.638,0,0,0,69.826,80.584Z" transform="translate(-47.754 -68.411)" fill="#4ba6f7"/>
        <path id="Trazado_723798" data-name="Trazado 723798" d="M324.826,234.147a.108.108,0,0,1,.164.116l-1.794,7.272h-7.04l-1.362-7.291a.108.108,0,0,1,.166-.11l1.505,1.006,1.719-1.174,1.719,1.174,1.719-1.174,1.719,1.174Z" transform="translate(-275.321 -204.279)" fill="#4ba6f7"/>
        <path id="Trazado_723799" data-name="Trazado 723799" d="M98.916,5.185a.108.108,0,0,1,.164.116l-1.794,7.274h-7.04L88.884,5.284a.107.107,0,0,1,.166-.11l1.505,1,1.719-1.173,1.719,1.173,1.719-1.173,1.719,1.173Z" transform="translate(-77.959 -4.252)" fill="#4ba6f7"/>
        <path id="Trazado_723800" data-name="Trazado 723800" d="M220.167,233.794a2.024,2.024,0,0,0-2.128,1.914l-1.1,21.639a2.022,2.022,0,1,0,4.037.217l1.1-21.639a2.024,2.024,0,0,0-1.909-2.132" transform="translate(-189.829 -204.125)" fill="#b0b5ca"/>
        <path id="Trazado_723801" data-name="Trazado 723801" d="M148.131,233.676a2,2,0,0,0-2.023,1.849v22.023a2.03,2.03,0,0,0,4.044,0V235.525a2,2,0,0,0-2.021-1.849" transform="translate(-127.953 -204.025)" fill="#b0b5ca"/>
        <path id="Trazado_723802" data-name="Trazado 723802" d="M71.716,257.348a2.024,2.024,0,0,1-1.909,2.132h0a2.022,2.022,0,0,1-2.127-1.914l-1.1-21.639a2.022,2.022,0,1,1,4.037-.217Z" transform="translate(-58.47 -204.125)" fill="#b0b5ca"/>
        <path id="Trazado_723803" data-name="Trazado 723803" d="M27.268,213.57,25.019,176.9H21.228l2.249,36.673a2.391,2.391,0,0,0,2.386,2.261h3.765a2.39,2.39,0,0,1-2.36-2.259" transform="translate(-18.854 -154.42)" fill="#aab3c1"/>
        <path id="Trazado_723804" data-name="Trazado 723804" d="M42.609,143.706H7.1a2.1,2.1,0,0,0-.047,4.194H42.654a2.1,2.1,0,0,0-.045-4.194" transform="translate(-4.675 -125.424)" fill="#b0b5ca"/>
        <path id="Trazado_723805" data-name="Trazado 723805" d="M8.789,145.8a2.1,2.1,0,0,1,2.1-2.1H7.1a2.1,2.1,0,0,0-.047,4.194H10.84a2.1,2.1,0,0,1-2.051-2.1" transform="translate(-4.675 -125.424)" fill="#8d94aa"/>
        <path id="Trazado_723806" data-name="Trazado 723806" d="M66.874,231.307a2.654,2.654,0,1,0-5.3.284l1.1,21.641a2.654,2.654,0,1,0,5.3-.285ZM65.4,254.481a1.4,1.4,0,0,1-1.463-1.315l-1.1-21.641a1.39,1.39,0,1,1,2.776-.152l1.1,21.641a1.394,1.394,0,0,1-1.313,1.467Z" transform="translate(-54.098 -199.758)"/>
        <path id="Trazado_723807" data-name="Trazado 723807" d="M143.765,228.675a2.637,2.637,0,0,0-2.654,2.481v22.022a2.66,2.66,0,0,0,5.307,0V231.156a2.637,2.637,0,0,0-2.654-2.481m1.39,24.5a1.4,1.4,0,0,1-2.78,0V231.156a1.4,1.4,0,0,1,2.78,0Z" transform="translate(-123.588 -199.656)"/>
        <path id="Trazado_723808" data-name="Trazado 723808" d="M215.83,228.8a2.655,2.655,0,0,0-2.793,2.513l-1.1,21.637a2.654,2.654,0,1,0,5.3.285l1.1-21.637a2.659,2.659,0,0,0-2.507-2.8m1.245,2.731-1.1,21.637a1.39,1.39,0,1,1-2.776-.152l1.1-21.637a1.39,1.39,0,1,1,2.776.152" transform="translate(-185.458 -199.758)"/>
        <path id="Trazado_723809" data-name="Trazado 723809" d="M54.666,45.157a8.786,8.786,0,0,0-5.152-6.233V37.835a1.331,1.331,0,0,0-.581-1.1l1.659-6.722a.74.74,0,0,0-1.129-.793l-1.132.756-1.367-.933a.632.632,0,0,0-.712,0l-1.362.93-1.362-.93a.632.632,0,0,0-.712,0l-1.366.932-1.15-.769a.74.74,0,0,0-1.138.752l1.263,6.758a1.331,1.331,0,0,0-.609,1.117v1.287a8.767,8.767,0,0,0-1.64,1.045q-.136.11-.268.226l.985-17.484a2.729,2.729,0,0,0-.648-5.38H26.387l0-.056a.634.634,0,0,0-.013-.089,10.266,10.266,0,0,0-5.4-6.993V8.9a1.331,1.331,0,0,0-.581-1.1L22.044,1.08A.74.74,0,0,0,20.915.287l-1.132.756L18.416.11a.632.632,0,0,0-.712,0l-1.362.93L14.979.11a.632.632,0,0,0-.712,0L12.9,1.043,11.751.274a.74.74,0,0,0-1.139.751l1.263,6.758A1.331,1.331,0,0,0,11.266,8.9v1.722a10.22,10.22,0,0,0-1.379.936A10.33,10.33,0,0,0,6.3,17.382a.622.622,0,0,0-.013.085l0,.06H2.729a2.729,2.729,0,0,0-.645,5.381L4.3,59.063A3.025,3.025,0,0,0,7.318,61.92l44.856-.008A4.95,4.95,0,0,0,57,55.906L54.666,45.157ZM41.1,31.265a.632.632,0,0,0,.707,0l1.362-.93,1.362.93a.632.632,0,0,0,.712,0l1.362-.93,1.363.93a.632.632,0,0,0,.707,0l.364-.243L47.688,36.5h-6.02L40.63,30.95l.471.315Zm7.149,6.57v.658a8.767,8.767,0,0,0-2.185-.278c-.732.013-2.676-.041-3.373.06a8.818,8.818,0,0,0-1.614.342v-.782a.067.067,0,0,1,.066-.068h7.04a.067.067,0,0,1,.066.068m-35.7-35.5a.632.632,0,0,0,.707,0l1.362-.93,1.362.93a.632.632,0,0,0,.712,0L18.06,1.4l1.363.93a.632.632,0,0,0,.707,0l.364-.243L19.141,7.57H13.12L12.083,2.017l.471.314ZM19.7,8.9v.953a10.259,10.259,0,0,0-3.369-.573,10.128,10.128,0,0,0-1.1.062,10.3,10.3,0,0,0-2.7.672V8.9a.067.067,0,0,1,.066-.068h7.04A.067.067,0,0,1,19.7,8.9Zm-9.021,3.641a9,9,0,0,1,2.3-1.345,5.7,5.7,0,0,0-1.084,4.841.632.632,0,0,0,1.233-.277,4.859,4.859,0,0,1,2.395-5.178c.27-.025.541-.038.813-.038a9.01,9.01,0,0,1,8.773,6.983H7.559a9.061,9.061,0,0,1,3.122-4.985ZM1.263,20.257a1.467,1.467,0,0,1,1.466-1.466H38.242a1.466,1.466,0,0,1,0,2.931H2.729a1.467,1.467,0,0,1-1.466-1.466Zm6.054,40.4A1.761,1.761,0,0,1,5.562,58.99l-2.208-36H37.62l-1.064,18.9a8.846,8.846,0,0,0-1.461,3.276L32.758,55.906a4.936,4.936,0,0,0,.984,4.165,5,5,0,0,0,.548.577l-26.972.008Zm47.718-1.379A3.681,3.681,0,0,1,54,60.164a4.648,4.648,0,0,1-3.74-.669,1.9,1.9,0,0,1-.744-1.449.632.632,0,1,0-1.264,0,3.136,3.136,0,0,0,1.2,2.421c.077.064.157.124.239.182H38.46a4.875,4.875,0,0,1-.651-2.2.632.632,0,0,0-1.264,0,6.055,6.055,0,0,0,.48,2.152,3.686,3.686,0,0,1-3.032-4.43l1.091-5.016A6.34,6.34,0,0,0,39.6,55.622a.632.632,0,0,0,.35-1.214,5.226,5.226,0,0,1-3.865-4.476,10.42,10.42,0,0,1,.033-3.547l.208-.958a7.589,7.589,0,0,1,4.086-5.182,5.727,5.727,0,0,0-.6,2.384.632.632,0,0,0,.6.663h.033a.632.632,0,0,0,.63-.6c.122-2.391,1.529-3.055,1.823-3.168.547-.079,2.581-.034,3.165-.045a7.561,7.561,0,0,1,5.7,2.633c.224.72,1.1,4.156-2.054,5.626a.632.632,0,1,0,.534,1.146,5,5,0,0,0,3.011-4.1q.1.316.171.645l2.337,10.749a3.678,3.678,0,0,1-.733,3.1Z" transform="translate(-0.308 0.122)"/>
      </g>
    </g>
  </g>
</svg>
