<svg xmlns="http://www.w3.org/2000/svg" width="190" height="190" viewBox="0 0 190 190">
  <g id="Grupo_1029966" data-name="Grupo 1029966" transform="translate(-285 -2194)">
    <g id="Grupo_1004758" data-name="Grupo 1004758" transform="translate(-114 1332)">
      <circle id="Elipse_8399" data-name="Elipse 8399" cx="95" cy="95" r="95" transform="translate(399 862)" fill="#fff"/>
    </g>
    <g id="camion-de-reciclaje_1_" data-name="camion-de-reciclaje (1)" transform="translate(301.212 2197.177)">
      <g id="Grupo_1024935" data-name="Grupo 1024935" transform="translate(14.459 24.755)">
        <path id="Trazado_724806" data-name="Trazado 724806" d="M83.365,39.485H75.976L73.787,25.369H85.554Z" transform="translate(-41.472 -25.369)" fill="#636363"/>
        <circle id="Elipse_8574" data-name="Elipse 8574" cx="13.889" cy="13.889" r="13.889" transform="translate(24.31 7.302)" fill="#afafaf"/>
        <g id="Grupo_1024926" data-name="Grupo 1024926" transform="translate(24.31 7.302)">
          <path id="Trazado_724807" data-name="Trazado 724807" d="M68.89,51.623a13.892,13.892,0,0,1,9.559-13.2,13.889,13.889,0,1,0,0,26.394,13.892,13.892,0,0,1-9.559-13.2Z" transform="translate(-60.23 -37.734)" fill="#636363"/>
        </g>
        <path id="Trazado_724808" data-name="Trazado 724808" d="M84.2,38.263H73.885a1.635,1.635,0,0,1-1.635-1.635v-.183a1.635,1.635,0,0,1,1.635-1.635H84.2a1.635,1.635,0,0,1,1.635,1.635v.183A1.635,1.635,0,0,1,84.2,38.263Z" transform="translate(-40.842 -29.235)" fill="#f68807"/>
        <g id="Grupo_1024927" data-name="Grupo 1024927" transform="translate(31.408 5.575)">
          <path id="Trazado_724809" data-name="Trazado 724809" d="M80.911,36.628v-.183a1.635,1.635,0,0,1,1.635-1.635H73.885a1.635,1.635,0,0,0-1.635,1.635v.183a1.635,1.635,0,0,0,1.635,1.635h8.661A1.635,1.635,0,0,1,80.911,36.628Z" transform="translate(-72.25 -34.81)" fill="#ffa031"/>
        </g>
        <path id="Trazado_724810" data-name="Trazado 724810" d="M81.3,121.39h-30.8a3.587,3.587,0,0,1-3.558-3.137L40.173,64.545H91.638l-6.777,53.707A3.586,3.586,0,0,1,81.3,121.39Z" transform="translate(-27.707 -41.411)" fill="#4db1f0"/>
        <g id="Grupo_1024928" data-name="Grupo 1024928" transform="translate(12.466 23.134)">
          <path id="Trazado_724811" data-name="Trazado 724811" d="M55.611,118.252,48.834,64.545H40.173l6.777,53.707a3.586,3.586,0,0,0,3.558,3.137h8.661A3.586,3.586,0,0,1,55.611,118.252Z" transform="translate(-40.173 -64.545)" fill="#115089"/>
        </g>
        <path id="Trazado_724812" data-name="Trazado 724812" d="M90.107,53.957H35.239a2.961,2.961,0,0,0-2.961,2.961v.331a2.961,2.961,0,0,0,2.961,2.961H90.108a2.961,2.961,0,0,0,2.961-2.961v-.331A2.962,2.962,0,0,0,90.107,53.957Z" transform="translate(-24.474 -37.075)" fill="#cecece"/>
        <g id="Grupo_1024929" data-name="Grupo 1024929" transform="translate(7.804 16.881)">
          <path id="Trazado_724813" data-name="Trazado 724813" d="M40.939,57.248v-.331A2.961,2.961,0,0,1,43.9,53.956H35.239a2.961,2.961,0,0,0-2.961,2.961v.331a2.961,2.961,0,0,0,2.961,2.961H43.9A2.961,2.961,0,0,1,40.939,57.248Z" transform="translate(-32.278 -53.956)" fill="#afafaf"/>
        </g>
        <path id="Trazado_724814" data-name="Trazado 724814" d="M148.31,110.866h25.441l7.753,22.556L200.645,139v26.41H148.31Z" transform="translate(-71.988 -60.379)" fill="#afafaf"/>
        <g id="Grupo_1024930" data-name="Grupo 1024930" transform="translate(93.102 50.487)">
          <path id="Trazado_724815" data-name="Trazado 724815" d="M193.14,133.422l-7.753-22.556h-8.661l7.753,22.556L203.62,139v26.41h8.661V139Z" transform="translate(-176.726 -110.866)" fill="#e8e8e8"/>
        </g>
        <path id="Trazado_724816" data-name="Trazado 724816" d="M19.063,93.089H95.385v65.037H19.063Z" transform="translate(-19.063 -53.099)" fill="#e8e8e8"/>
        <g id="Grupo_1024931" data-name="Grupo 1024931" transform="translate(0 39.99)">
          <path id="Trazado_724817" data-name="Trazado 724817" d="M19.063,93.089h8.661v65.037H19.063Z" transform="translate(-19.063 -93.089)" fill="#afafaf"/>
        </g>
        <path id="Trazado_724818" data-name="Trazado 724818" d="M157.843,122.986h15.419l4.7,13.672H157.843Z" transform="translate(-75.892 -65.342)" fill="#4db1f0"/>
        <g id="Grupo_1024932" data-name="Grupo 1024932" transform="translate(10.777 95.322)">
          <path id="Trazado_724876" data-name="Trazado 724876" d="M9.7,0A9.7,9.7,0,1,1,0,9.7,9.7,9.7,0,0,1,9.7,0Z" fill="#636363"/>
          <circle id="Elipse_8576" data-name="Elipse 8576" cx="9.704" cy="9.704" r="9.704" transform="translate(87.696)" fill="#636363"/>
        </g>
        <g id="Grupo_1024934" data-name="Grupo 1024934" transform="translate(19.866 54.213)">
          <circle id="Elipse_8577" data-name="Elipse 8577" cx="18.295" cy="18.295" r="18.295" fill="#ffa031"/>
          <g id="Grupo_1024933" data-name="Grupo 1024933" transform="translate(6.419 7.654)">
            <path id="Trazado_724819" data-name="Trazado 724819" d="M85.865,134.73a.382.382,0,0,0-.459-.1l-.664.255L82.7,130.366a.386.386,0,0,0-.357-.23H75.709a.364.364,0,0,0-.306.153l-3.751,4.491a.336.336,0,0,0-.077.306.607.607,0,0,0,.153.281l3.751,2.781a.4.4,0,0,0,.562-.077l2.45-3.318,1.174,2.093-.74.383a.361.361,0,0,0-.2.383.379.379,0,0,0,.306.332l4.185,1.021h.1a.437.437,0,0,0,.332-.179l2.246-3.6a.382.382,0,0,0-.026-.459Z" transform="translate(-66.846 -130.136)" fill="#12263f"/>
            <path id="Trazado_724820" data-name="Trazado 724820" d="M73.764,150.738l-4.134-.178,1.072-2.144.715.408a.385.385,0,0,0,.459-.051.354.354,0,0,0,.1-.434l-1.506-4.032a.393.393,0,0,0-.383-.255l-4.262.153a.383.383,0,0,0-.357.281.416.416,0,0,0,.153.434l.587.408-2.578,4.236a.438.438,0,0,0,0,.434l2.858,4.21,1.1,1.659a.436.436,0,0,0,.332.178h5.818a.4.4,0,0,0,.408-.408v-4.491a.434.434,0,0,0-.382-.408Z" transform="translate(-63.574 -135.834)" fill="#12263f"/>
            <path id="Trazado_724821" data-name="Trazado 724821" d="M95.963,149.33l-2.552-5.257a.361.361,0,0,0-.23-.2.339.339,0,0,0-.306.051l-4.083,2.271a.41.41,0,0,0-.153.536l1.991,3.6-2.4.2-.025-.817a.383.383,0,0,0-.28-.357.4.4,0,0,0-.434.128l-2.654,3.394a.428.428,0,0,0-.025.459l2.373,3.522a.429.429,0,0,0,.332.179.4.4,0,0,0,.383-.383l.025-.715h4.951a.4.4,0,0,0,.357-.23l2.731-6.048A.383.383,0,0,0,95.963,149.33Z" transform="translate(-72.249 -135.753)" fill="#12263f"/>
          </g>
        </g>
      </g>
      <g id="Grupo_1024936" data-name="Grupo 1024936" transform="translate(7.82 23.869)">
        <path id="Trazado_724822" data-name="Trazado 724822" d="M157.229,136.93h20.118a.886.886,0,0,0,.838-1.173l-4.7-13.672a.887.887,0,0,0-.838-.6H157.229a.886.886,0,0,0-.886.886v13.672a.886.886,0,0,0,.886.885Zm.886-13.672h13.9l4.09,11.9H158.115Z" transform="translate(-68.638 -63.842)" fill="#12263f"/>
        <path id="Trazado_724823" data-name="Trazado 724823" d="M158.751,164.568h6.622a2.41,2.41,0,0,0,2.408-2.408v-.7a2.41,2.41,0,0,0-2.408-2.408h-6.622a2.41,2.41,0,0,0-2.408,2.408v.7A2.41,2.41,0,0,0,158.751,164.568Zm-.636-3.11a.637.637,0,0,1,.636-.636h6.622a.637.637,0,0,1,.636.636v.7a.637.637,0,0,1-.636.636h-6.622a.637.637,0,0,1-.636-.636Z" transform="translate(-68.638 -79.224)" fill="#12263f"/>
        <path id="Trazado_724824" data-name="Trazado 724824" d="M198.8,194.784a4.984,4.984,0,1,0,4.984,4.985A4.99,4.99,0,0,0,198.8,194.784Zm0,8.2a3.213,3.213,0,1,1,3.212-3.212A3.216,3.216,0,0,1,198.8,202.982Z" transform="translate(-83.982 -93.856)" fill="#12263f"/>
        <path id="Trazado_724825" data-name="Trazado 724825" d="M50.29,194.784a4.984,4.984,0,1,0,4.984,4.985A4.99,4.99,0,0,0,50.29,194.784Zm0,8.2a3.213,3.213,0,1,1,3.212-3.212A3.216,3.216,0,0,1,50.29,202.982Z" transform="translate(-23.17 -93.856)" fill="#12263f"/>
        <path id="Trazado_724826" data-name="Trazado 724826" d="M70.386,154.037a19.18,19.18,0,1,0-19.18-19.18A19.2,19.2,0,0,0,70.386,154.037Zm0-36.59a17.409,17.409,0,1,1-17.409,17.409A17.429,17.429,0,0,1,70.386,117.447Z" transform="translate(-25.586 -61.463)" fill="#3f3679"/>
        <path id="Trazado_724827" data-name="Trazado 724827" d="M19.337,229.131H8.706a.886.886,0,0,0,0,1.772H19.337a.886.886,0,0,0,0-1.772Z" transform="translate(-7.82 -107.921)" fill="#12263f"/>
        <path id="Trazado_724828" data-name="Trazado 724828" d="M238.694,229.131H228.063a.886.886,0,1,0,0,1.772h10.631a.886.886,0,1,0,0-1.772Z" transform="translate(-97.644 -107.921)" fill="#12263f"/>
        <path id="Trazado_724829" data-name="Trazado 724829" d="M143.765,229.131H36.907a.886.886,0,1,0,0,1.772H143.766a.886.886,0,1,0,0-1.772Z" transform="translate(-19.368 -107.921)" fill="#12263f"/>
        <path id="Trazado_724830" data-name="Trazado 724830" d="M8.706,140.371H148.87a.886.886,0,0,0,0-1.772H128.488a10.591,10.591,0,0,0,4.693-7.932h9.935a.886.886,0,0,0,.886-.886v-26.41a.885.885,0,0,0-.638-.85l-18.7-5.444-7.6-22.123a.887.887,0,0,0-.838-.6H91.668V64.744a.886.886,0,0,0-.886-.886H77.269l1.9-15.084h.921a3.851,3.851,0,0,0,3.847-3.847V44.6a3.851,3.851,0,0,0-3.847-3.847H66.49A14.725,14.725,0,0,0,60.1,33.195a2.5,2.5,0,0,0,.235-1.047v-.183a2.518,2.518,0,0,0-1.649-2.356l.732-4.718a.886.886,0,0,0-.876-1.022H46.774a.886.886,0,0,0-.876,1.022l.732,4.718a2.518,2.518,0,0,0-1.649,2.356v.183a2.5,2.5,0,0,0,.236,1.049,14.919,14.919,0,0,0-6.382,7.553H25.224A3.851,3.851,0,0,0,21.377,44.6v.331a3.851,3.851,0,0,0,3.847,3.847h.92l1.9,15.084H14.46a.886.886,0,0,0-.886.886v65.037a.886.886,0,0,0,.886.886H24.4a10.59,10.59,0,0,0,4.693,7.932H8.706a.885.885,0,1,0,0,1.771ZM40.791,138.6a10.588,10.588,0,0,0,4.693-7.932h66.607a10.591,10.591,0,0,0,4.693,7.932Zm81.845,0a8.818,8.818,0,1,1,8.819-8.818A8.829,8.829,0,0,1,122.636,138.6ZM115.59,76.128l7.547,21.959a.887.887,0,0,0,.591.563l18.5,5.387V128.9h-9.05a10.582,10.582,0,0,0-21.09,0H91.666V76.128H115.59ZM46.753,32.148v-.183a.75.75,0,0,1,.749-.749h10.31a.75.75,0,0,1,.749.749v.183a.75.75,0,0,1-.749.749H47.5A.75.75,0,0,1,46.753,32.148Zm10.754-6.507-.59,3.8H48.4l-.59-3.8ZM46.546,34.478a2.5,2.5,0,0,0,.955.191H57.813a2.5,2.5,0,0,0,.957-.191,12.958,12.958,0,0,1,5.8,6.273H40.746A13.144,13.144,0,0,1,46.546,34.478ZM23.285,45.648h35.4a.886.886,0,0,0,0-1.772h-35.4a2.072,2.072,0,0,1,1.939-1.355H80.092A2.077,2.077,0,0,1,82.167,44.6v.331A2.077,2.077,0,0,1,80.092,47H25.224a2.074,2.074,0,0,1-1.939-1.355Zm4.644,3.126H77.385l-1.9,15.084H29.833ZM15.345,74.32h54.6a.886.886,0,1,0,0-1.772h-54.6V65.63H89.9V128.9H45.485a10.582,10.582,0,0,0-21.09,0h-9.05Zm10.776,55.461A8.818,8.818,0,1,1,34.94,138.6a8.828,8.828,0,0,1-8.819-8.818Z" transform="translate(-7.82 -23.869)" fill="#12263f"/>
      </g>
    </g>
  </g>
</svg>
