<svg xmlns="http://www.w3.org/2000/svg" width="69.813" height="69.828" viewBox="0 0 69.813 69.828">
  <g id="ruta_1_" data-name="ruta (1)" transform="translate(0.454 0.5)">
    <g id="Grupo_1026520" data-name="Grupo 1026520" transform="translate(0.046)">
      <g id="Grupo_1026519" data-name="Grupo 1026519">
        <path id="Trazado_727378" data-name="Trazado 727378" d="M254.753,312h-25.8a1.075,1.075,0,0,0-1.075,1.075h-7.249a3.507,3.507,0,0,0-3.5,3.5v.8a1.075,1.075,0,0,0,1.075,1.075h.176l-.485,5.814a3.5,3.5,0,0,0-1.842,3.065V333.5a1.075,1.075,0,0,0,1.075,1.075h1.13a4.81,4.81,0,0,0,9.569,0h.053a1.075,1.075,0,0,0,1.075,1.075h15.307a4.688,4.688,0,0,0,8.857,0h1.641a1.075,1.075,0,0,0,1.075-1.075v-21.5A1.075,1.075,0,0,0,254.753,312Zm-31.718,24.73a2.688,2.688,0,1,1,2.688-2.688A2.688,2.688,0,0,1,223.035,336.73Zm4.838-4.3h-.3a4.81,4.81,0,0,0-9.083,0h-.3v-5.1a1.354,1.354,0,0,1,1.353-1.353h8.324Zm0-8.6h-7.791l.447-5.376h7.344Zm0-7.526H219.3a1.356,1.356,0,0,1,1.325-1.075h7.249Zm23.377,17.787a2.568,2.568,0,1,1-2.568-2.569,2.569,2.569,0,0,1,2.568,2.569Zm2.428-.584h-.337a4.691,4.691,0,0,0-9.316,0h-14V314.15h23.654Z" transform="translate(-187.016 -270.067)" fill="#7ec4c4" stroke="#7dc3c3" stroke-width="1"/>
        <path id="Trazado_727379" data-name="Trazado 727379" d="M10.8,29.03a1.075,1.075,0,0,0,.832-.4c1.016-1.244,9.92-12.315,9.92-17.883a10.752,10.752,0,1,0-21.5,0c0,5.567,8.9,16.639,9.92,17.883A1.075,1.075,0,0,0,10.8,29.03Zm0-26.88a8.611,8.611,0,0,1,8.6,8.6c0,3.689-5.6,11.63-8.6,15.483-3-3.852-8.6-11.794-8.6-15.483A8.611,8.611,0,0,1,10.8,2.15Z" transform="translate(-0.046 0)" fill="#7ec4c4" stroke="#7dc3c3" stroke-width="1"/>
        <path id="Trazado_727380" data-name="Trazado 727380" d="M47.873,34.714a5.914,5.914,0,1,0-5.914,5.914A5.914,5.914,0,0,0,47.873,34.714Zm-9.677,0a3.763,3.763,0,1,1,3.763,3.763A3.763,3.763,0,0,1,38.2,34.714Z" transform="translate(-31.208 -24.929)" fill="#7ec4c4" stroke="#7dc3c3" stroke-width="1"/>
        <path id="Trazado_727381" data-name="Trazado 727381" d="M209.121,248a1.075,1.075,0,0,0,0,2.15h2.15a1.075,1.075,0,0,0,0-2.15Z" transform="translate(-180.091 -214.669)" fill="#7ec4c4" stroke="#7dc3c3" stroke-width="1"/>
        <path id="Trazado_727382" data-name="Trazado 727382" d="M257.121,248a1.075,1.075,0,0,0,0,2.15h2.15a1.075,1.075,0,0,0,0-2.15Z" transform="translate(-221.64 -214.669)" fill="#7ec4c4" stroke="#7dc3c3" stroke-width="1"/>
        <path id="Trazado_727383" data-name="Trazado 727383" d="M249.121,162.15h2.15a1.075,1.075,0,0,0,0-2.15h-2.15a1.075,1.075,0,0,0,0,2.15Z" transform="translate(-214.715 -138.496)" fill="#7ec4c4" stroke="#7dc3c3" stroke-width="1"/>
        <path id="Trazado_727384" data-name="Trazado 727384" d="M201.121,162.15h2.15a1.075,1.075,0,0,0,0-2.15h-2.15a1.075,1.075,0,0,0,0,2.15Z" transform="translate(-173.166 -138.496)" fill="#7ec4c4" stroke="#7dc3c3" stroke-width="1"/>
        <path id="Trazado_727385" data-name="Trazado 727385" d="M162.2,201.075a1.075,1.075,0,0,0-2.15,0v2.15a1.075,1.075,0,0,0,2.15,0Z" transform="translate(-138.542 -173.12)" fill="#7ec4c4" stroke="#7dc3c3" stroke-width="1"/>
        <path id="Trazado_727386" data-name="Trazado 727386" d="M160.046,162.15A1.7,1.7,0,1,0,162.2,160h-1.075a1.075,1.075,0,0,0-1.075,1.075Z" transform="translate(-138.542 -138.496)" fill="#7ec4c4" stroke="#7dc3c3" stroke-width="1"/>
        <path id="Trazado_727387" data-name="Trazado 727387" d="M441.121,162.15h2.15a1.075,1.075,0,0,0,0-2.15h-2.15a1.075,1.075,0,0,0,0,2.15Z" transform="translate(-380.91 -138.496)" fill="#7ec4c4" stroke="#7dc3c3" stroke-width="1"/>
        <path id="Trazado_727388" data-name="Trazado 727388" d="M147.272,248h-2.15a1.075,1.075,0,0,0,0,2.15h2.15a1.075,1.075,0,1,0,0-2.15Z" transform="translate(-124.692 -214.669)" fill="#7ec4c4" stroke="#7dc3c3" stroke-width="1"/>
        <path id="Trazado_727389" data-name="Trazado 727389" d="M449.121,248a1.075,1.075,0,0,0,0,2.15h2.15a1.075,1.075,0,0,0,0-2.15Z" transform="translate(-387.835 -214.669)" fill="#7ec4c4" stroke="#7dc3c3" stroke-width="1"/>
        <path id="Trazado_727390" data-name="Trazado 727390" d="M481.121,172.3a1.075,1.075,0,0,0,1.075-1.075v-2.15a1.075,1.075,0,0,0-2.15,0v2.15A1.075,1.075,0,0,0,481.121,172.3Z" transform="translate(-415.534 -145.421)" fill="#7ec4c4" stroke="#7dc3c3" stroke-width="1"/>
        <path id="Trazado_727391" data-name="Trazado 727391" d="M401.121,248a1.075,1.075,0,0,0,0,2.15h2.15a1.075,1.075,0,1,0,0-2.15Z" transform="translate(-346.286 -214.669)" fill="#7ec4c4" stroke="#7dc3c3" stroke-width="1"/>
        <path id="Trazado_727392" data-name="Trazado 727392" d="M297.121,162.15h2.15a1.075,1.075,0,0,0,0-2.15h-2.15a1.075,1.075,0,0,0,0,2.15Z" transform="translate(-256.264 -138.496)" fill="#7ec4c4" stroke="#7dc3c3" stroke-width="1"/>
        <path id="Trazado_727393" data-name="Trazado 727393" d="M481.121,220.3a1.075,1.075,0,0,0,1.075-1.075v-2.15a1.075,1.075,0,0,0-2.15,0v2.15A1.075,1.075,0,0,0,481.121,220.3Z" transform="translate(-415.534 -186.97)" fill="#7ec4c4" stroke="#7dc3c3" stroke-width="1"/>
        <path id="Trazado_727394" data-name="Trazado 727394" d="M345.121,162.15h2.15a1.075,1.075,0,1,0,0-2.15h-2.15a1.075,1.075,0,0,0,0,2.15Z" transform="translate(-297.813 -138.496)" fill="#7ec4c4" stroke="#7dc3c3" stroke-width="1"/>
        <path id="Trazado_727395" data-name="Trazado 727395" d="M305.121,248a1.075,1.075,0,0,0,0,2.15h2.15a1.075,1.075,0,0,0,0-2.15Z" transform="translate(-263.188 -214.669)" fill="#7ec4c4" stroke="#7dc3c3" stroke-width="1"/>
        <path id="Trazado_727396" data-name="Trazado 727396" d="M353.121,248a1.075,1.075,0,1,0,0,2.15h2.15a1.075,1.075,0,1,0,0-2.15Z" transform="translate(-304.737 -214.669)" fill="#7ec4c4" stroke="#7dc3c3" stroke-width="1"/>
        <path id="Trazado_727397" data-name="Trazado 727397" d="M393.121,162.15h2.15a1.075,1.075,0,0,0,0-2.15h-2.15a1.075,1.075,0,0,0,0,2.15Z" transform="translate(-339.361 -138.496)" fill="#7ec4c4" stroke="#7dc3c3" stroke-width="1"/>
        <path id="Trazado_727398" data-name="Trazado 727398" d="M8.046,323.226a1.075,1.075,0,1,0,2.15,0v-2.15a1.075,1.075,0,0,0-2.15,0Z" transform="translate(-6.971 -276.992)" fill="#7ec4c4" stroke="#7dc3c3" stroke-width="1"/>
        <path id="Trazado_727399" data-name="Trazado 727399" d="M90.2,449.075a1.075,1.075,0,0,0-2.15,0v1.075a1.075,1.075,0,0,0,1.075,1.075H90.2a1.075,1.075,0,0,0,0-2.15Z" transform="translate(-76.219 -387.789)" fill="#7ec4c4" stroke="#7dc3c3" stroke-width="1"/>
        <path id="Trazado_727400" data-name="Trazado 727400" d="M131.272,456h-2.15a1.075,1.075,0,0,0,0,2.15h2.15a1.075,1.075,0,0,0,0-2.15Z" transform="translate(-110.843 -394.714)" fill="#7ec4c4" stroke="#7dc3c3" stroke-width="1"/>
        <path id="Trazado_727401" data-name="Trazado 727401" d="M139.272,416h-2.15a1.075,1.075,0,1,0,0,2.15h2.15a1.075,1.075,0,0,0,0-2.15Z" transform="translate(-117.768 -360.09)" fill="#7ec4c4" stroke="#7dc3c3" stroke-width="1"/>
        <path id="Trazado_727402" data-name="Trazado 727402" d="M91.272,416h-2.15a1.075,1.075,0,1,0,0,2.15h2.15a1.075,1.075,0,1,0,0-2.15Z" transform="translate(-76.219 -360.09)" fill="#7ec4c4" stroke="#7dc3c3" stroke-width="1"/>
        <path id="Trazado_727403" data-name="Trazado 727403" d="M153.121,368a1.075,1.075,0,0,0-1.075,1.075v2.15a1.075,1.075,0,0,0,2.15,0v-2.15A1.075,1.075,0,0,0,153.121,368Z" transform="translate(-131.617 -318.541)" fill="#7ec4c4" stroke="#7dc3c3" stroke-width="1"/>
        <path id="Trazado_727404" data-name="Trazado 727404" d="M202.2,273.075a1.075,1.075,0,0,0-2.15,0v2.15a1.075,1.075,0,1,0,2.15,0Z" transform="translate(-173.166 -235.443)" fill="#7ec4c4" stroke="#7dc3c3" stroke-width="1"/>
        <path id="Trazado_727405" data-name="Trazado 727405" d="M179.272,456h-2.15a1.075,1.075,0,0,0,0,2.15h2.15a1.075,1.075,0,0,0,0-2.15Z" transform="translate(-152.392 -394.714)" fill="#7ec4c4" stroke="#7dc3c3" stroke-width="1"/>
        <path id="Trazado_727406" data-name="Trazado 727406" d="M164.347,297.075A1.075,1.075,0,0,0,163.272,296h-2.15a1.075,1.075,0,0,0,0,2.15h2.15A1.075,1.075,0,0,0,164.347,297.075Z" transform="translate(-138.542 -256.218)" fill="#7ec4c4" stroke="#7dc3c3" stroke-width="1"/>
        <path id="Trazado_727407" data-name="Trazado 727407" d="M59.272,368h-2.15a1.075,1.075,0,1,0,0,2.15h2.15a1.075,1.075,0,1,0,0-2.15Z" transform="translate(-48.52 -318.541)" fill="#7ec4c4" stroke="#7dc3c3" stroke-width="1"/>
        <path id="Trazado_727408" data-name="Trazado 727408" d="M116.347,297.075A1.075,1.075,0,0,0,115.272,296h-2.15a1.075,1.075,0,0,0,0,2.15h2.15A1.075,1.075,0,0,0,116.347,297.075Z" transform="translate(-96.993 -256.218)" fill="#7ec4c4" stroke="#7dc3c3" stroke-width="1"/>
        <path id="Trazado_727409" data-name="Trazado 727409" d="M105.121,370.15h2.15a1.075,1.075,0,0,0,0-2.15h-2.15a1.075,1.075,0,1,0,0,2.15Z" transform="translate(-90.068 -318.541)" fill="#7ec4c4" stroke="#7dc3c3" stroke-width="1"/>
        <path id="Trazado_727410" data-name="Trazado 727410" d="M64.046,297.075a1.075,1.075,0,0,0,1.075,1.075h2.15a1.075,1.075,0,0,0,0-2.15h-2.15A1.075,1.075,0,0,0,64.046,297.075Z" transform="translate(-55.444 -256.218)" fill="#7ec4c4" stroke="#7dc3c3" stroke-width="1"/>
        <path id="Trazado_727411" data-name="Trazado 727411" d="M100.347,249.075A1.075,1.075,0,0,0,99.272,248h-2.15a1.075,1.075,0,0,0,0,2.15h2.15A1.075,1.075,0,0,0,100.347,249.075Z" transform="translate(-83.144 -214.669)" fill="#7ec4c4" stroke="#7dc3c3" stroke-width="1"/>
        <path id="Trazado_727412" data-name="Trazado 727412" d="M74.2,227.226v-2.15a1.075,1.075,0,0,0-2.15,0v2.15a1.075,1.075,0,0,0,2.15,0Z" transform="translate(-62.369 -193.894)" fill="#7ec4c4" stroke="#7dc3c3" stroke-width="1"/>
        <path id="Trazado_727413" data-name="Trazado 727413" d="M19.272,296h-2.15a1.075,1.075,0,0,0,0,2.15h2.15a1.075,1.075,0,0,0,0-2.15Z" transform="translate(-13.896 -256.218)" fill="#7ec4c4" stroke="#7dc3c3" stroke-width="1"/>
        <path id="Trazado_727414" data-name="Trazado 727414" d="M11.272,368H9.121a1.075,1.075,0,1,0,0,2.15h2.15a1.075,1.075,0,1,0,0-2.15Z" transform="translate(-6.971 -318.541)" fill="#7ec4c4" stroke="#7dc3c3" stroke-width="1"/>
      </g>
    </g>
  </g>
</svg>
