<svg xmlns="http://www.w3.org/2000/svg" width="78.289" height="49.82" viewBox="0 0 78.289 49.82">
  <g id="trash-truck" transform="translate(-6 -0.168)">
    <path id="Trazado_727373" data-name="Trazado 727373" d="M78.113,22.551c-.007-.015,0-.033-.012-.049L70.984,8.268a1.78,1.78,0,0,0-1.592-.983H53.379V1.947A1.778,1.778,0,0,0,51.6.168H8.9A1.779,1.779,0,0,0,7.3,1.152L.187,15.386a1.788,1.788,0,0,0-.188.8v24.91a1.779,1.779,0,0,0,1.78,1.78H8.9a7.117,7.117,0,0,0,14.235,0h7.117a7.117,7.117,0,0,0,14.235,0H56.937a7.117,7.117,0,0,0,14.235,0H76.51a1.779,1.779,0,0,0,1.779-1.78V23.3a1.75,1.75,0,0,0-.176-.747ZM73.63,21.52H60.5V10.844h7.8ZM16.013,46.43a3.559,3.559,0,1,1,3.558-3.558A3.558,3.558,0,0,1,16.013,46.43Zm21.352,0a3.559,3.559,0,1,1,3.558-3.558A3.558,3.558,0,0,1,37.365,46.43Zm6.128-7.117a7.055,7.055,0,0,0-12.255,0h-9.1a7.055,7.055,0,0,0-12.255,0H3.558V16.6L10,3.727H49.82V39.312ZM64.054,46.43a3.559,3.559,0,1,1,3.558-3.558A3.558,3.558,0,0,1,64.054,46.43Zm6.127-7.117a7.054,7.054,0,0,0-12.254,0H53.379V10.844h3.558V23.3a1.779,1.779,0,0,0,1.78,1.78H74.73V39.313Zm0,0" transform="translate(6 0)" fill="#7ec4c4"/>
    <path id="Trazado_727374" data-name="Trazado 727374" d="M112.021,64.168H87.112a1.779,1.779,0,1,0,0,3.558h24.91a1.779,1.779,0,1,0,0-3.558Zm0,0" transform="translate(-70.187 -53.324)" fill="#7ec4c4"/>
    <path id="Trazado_727375" data-name="Trazado 727375" d="M94.248,149.5H65.78a1.779,1.779,0,1,0,0,3.558H94.248a1.779,1.779,0,1,0,0-3.558Zm0,0" transform="translate(-52.413 -124.422)" fill="#7ec4c4"/>
    <path id="Trazado_727376" data-name="Trazado 727376" d="M94.248,106.832H65.78a1.78,1.78,0,0,0,0,3.559H94.248a1.78,1.78,0,0,0,0-3.559Zm0,0" transform="translate(-52.413 -88.871)" fill="#7ec4c4"/>
  </g>
</svg>
