<svg xmlns="http://www.w3.org/2000/svg" width="190" height="190" viewBox="0 0 190 190">
  <g id="Grupo_1029968" data-name="Grupo 1029968" transform="translate(-1125 -2194)">
    <g id="Grupo_1024925" data-name="Grupo 1024925" transform="translate(726 1332)">
      <circle id="Elipse_8399" data-name="Elipse 8399" cx="95" cy="95" r="95" transform="translate(399 862)" fill="#fff"/>
    </g>
    <g id="disposicion" transform="translate(1144.876 2203.002)">
      <g id="Grupo_1024942" data-name="Grupo 1024942" transform="translate(6.143 16.375)">
        <path id="Trazado_724831" data-name="Trazado 724831" d="M112.03,69.978H6.79l4.887-27.6h95.466Z" transform="translate(-6.79 -27.949)" fill="#cecece"/>
        <g id="Grupo_1024937" data-name="Grupo 1024937" transform="translate(92.006 14.433)">
          <path id="Trazado_724832" data-name="Trazado 724832" d="M176.806,42.382h-8.347l4.887,27.6h8.347Z" transform="translate(-168.459 -42.382)" fill="#e2e2e2"/>
        </g>
        <path id="Trazado_724833" data-name="Trazado 724833" d="M11.677,42.382,6.79,69.978h8.346l4.887-27.6Z" transform="translate(-6.79 -27.949)" fill="#afafaf"/>
        <path id="Trazado_724834" data-name="Trazado 724834" d="M21.107,90.872h88.944v59.785H21.107Z" transform="translate(-12.959 -48.843)" fill="#63bce7"/>
        <g id="Grupo_1024938" data-name="Grupo 1024938" transform="translate(8.148 42.029)">
          <path id="Trazado_724835" data-name="Trazado 724835" d="M21.107,90.872h8.347v59.785H21.107Z" transform="translate(-21.107 -90.872)" fill="#6377e7"/>
        </g>
        <g id="Grupo_1024939" data-name="Grupo 1024939" transform="translate(88.745 42.029)">
          <path id="Trazado_724836" data-name="Trazado 724836" d="M162.729,90.872h8.347v59.785h-8.347Z" transform="translate(-162.729 -90.872)" fill="#63e2e7"/>
        </g>
        <path id="Trazado_724837" data-name="Trazado 724837" d="M30.267,17.021H42.322V45.252H30.267Z" transform="translate(-16.906 -17.021)" fill="#707070"/>
        <g id="Grupo_1024940" data-name="Grupo 1024940" transform="translate(13.361 0)">
          <path id="Trazado_724838" data-name="Trazado 724838" d="M30.267,17.021h8.347V45.252H30.267Z" transform="translate(-30.267 -17.021)" fill="#5b5b5b"/>
        </g>
        <path id="Trazado_724839" data-name="Trazado 724839" d="M50.122,121.929A14.417,14.417,0,0,0,35.7,136.345v27.693H64.539V136.345A14.416,14.416,0,0,0,50.122,121.929Z" transform="translate(-19.249 -62.226)" fill="#cecece"/>
        <g id="Grupo_1024941" data-name="Grupo 1024941" transform="translate(50.587 52.376)">
          <path id="Trazado_724840" data-name="Trazado 724840" d="M95.679,109.054h16.343V125.4H95.679Z" transform="translate(-95.679 -109.054)" fill="#ffa031"/>
          <path id="Trazado_724841" data-name="Trazado 724841" d="M137.8,109.054h16.343V125.4H137.8Z" transform="translate(-113.827 -109.054)" fill="#ffa031"/>
        </g>
      </g>
      <path id="Trazado_724842" data-name="Trazado 724842" d="M192.171,185.307H161.62a3.559,3.559,0,0,1-3.53-3.112l-6.723-53.282h51.057L195.7,182.195a3.557,3.557,0,0,1-3.53,3.112Z" transform="translate(-62.945 -48.86)" fill="#cecece"/>
      <g id="Grupo_1024943" data-name="Grupo 1024943" transform="translate(120.879 80.053)">
        <path id="Trazado_724843" data-name="Trazado 724843" d="M218.653,128.913l-6.723,53.282a3.558,3.558,0,0,1-3.53,3.112h8.347a3.559,3.559,0,0,0,3.53-3.112L227,128.913Z" transform="translate(-208.399 -128.913)" fill="#e2e2e2"/>
      </g>
      <path id="Trazado_724844" data-name="Trazado 724844" d="M200.447,118.014H146.342a3.1,3.1,0,0,0,0,6.2h54.105a3.1,3.1,0,0,0,0-6.2Z" transform="translate(-59.443 -44.164)" fill="#cecece"/>
      <g id="Grupo_1024944" data-name="Grupo 1024944" transform="translate(132.657 73.85)">
        <path id="Trazado_724845" data-name="Trazado 724845" d="M237.441,118.014h-8.347a3.1,3.1,0,0,1,0,6.2h8.347a3.1,3.1,0,1,0,0-6.2Z" transform="translate(-229.094 -118.014)" fill="#e2e2e2"/>
      </g>
      <g id="Grupo_1024946" data-name="Grupo 1024946" transform="translate(98.829 89.723)">
        <circle id="Elipse_8578" data-name="Elipse 8578" cx="15.122" cy="15.122" r="15.122" transform="translate(0 0)" fill="#ffa031"/>
        <g id="Grupo_1024945" data-name="Grupo 1024945" transform="translate(5.306 6.326)">
          <path id="Trazado_724846" data-name="Trazado 724846" d="M197.649,160.816a.316.316,0,0,0-.38-.084l-.549.211-1.687-3.733a.319.319,0,0,0-.3-.19h-5.484a.3.3,0,0,0-.253.126l-3.1,3.712a.278.278,0,0,0-.063.253.507.507,0,0,0,.126.232l3.1,2.3a.333.333,0,0,0,.464-.063l2.025-2.742.97,1.73-.612.316a.3.3,0,0,0-.168.316.314.314,0,0,0,.253.274l3.459.843h.084a.361.361,0,0,0,.274-.147l1.856-2.974a.316.316,0,0,0-.02-.38Z" transform="translate(-181.93 -157.02)" fill="#3f3679"/>
          <path id="Trazado_724847" data-name="Trazado 724847" d="M187.4,174.48l-3.417-.147.886-1.772.591.337a.318.318,0,0,0,.38-.042.293.293,0,0,0,.084-.359l-1.245-3.333a.325.325,0,0,0-.316-.211l-3.522.126a.316.316,0,0,0-.3.232.343.343,0,0,0,.126.359l.485.337-2.13,3.5a.363.363,0,0,0,0,.359l2.362,3.48.907,1.371a.36.36,0,0,0,.274.147h4.809a.333.333,0,0,0,.337-.337v-3.712A.361.361,0,0,0,187.4,174.48Z" transform="translate(-178.978 -162.162)" fill="#3f3679"/>
          <path id="Trazado_724848" data-name="Trazado 724848" d="M206.4,173.31l-2.109-4.345a.3.3,0,0,0-.19-.168.28.28,0,0,0-.253.042l-3.375,1.877a.339.339,0,0,0-.126.443L202,174.132l-1.983.168-.021-.675a.316.316,0,0,0-.232-.3.332.332,0,0,0-.359.105l-2.193,2.805a.355.355,0,0,0-.021.38l1.962,2.911a.354.354,0,0,0,.274.147.327.327,0,0,0,.316-.316l.021-.591h4.092a.331.331,0,0,0,.3-.19l2.257-5a.312.312,0,0,0,0-.273Z" transform="translate(-186.805 -162.089)" fill="#3f3679"/>
        </g>
      </g>
      <g id="Grupo_1024947" data-name="Grupo 1024947" transform="translate(5.289 15.522)">
        <path id="Trazado_724849" data-name="Trazado 724849" d="M111.376,107.554H95.033a.853.853,0,0,0-.854.854V124.75a.853.853,0,0,0,.854.854h16.343a.853.853,0,0,0,.854-.854V108.408a.854.854,0,0,0-.854-.854Zm-.854,16.342H95.886V109.261h14.636Z" transform="translate(-43.592 -55.178)" fill="#12263f"/>
        <path id="Trazado_724850" data-name="Trazado 724850" d="M140.233,80.907H141A3.955,3.955,0,1,0,141,73H104.089V59.257h7.294a.854.854,0,0,0,.841-1l-4.887-27.6a.854.854,0,0,0-.841-.7H32.412V17.229h3.534a.854.854,0,1,0,0-1.707H15.116a.854.854,0,1,0,0,1.707H18.65V29.954H11.03a.853.853,0,0,0-.841.7L5.3,58.255a.854.854,0,0,0,.841,1h7.294v58.931a.853.853,0,0,0,.854.854H92.482l1.817,14.4a4.388,4.388,0,0,0,.9,2.152H7.583a.854.854,0,1,0,0,1.707H142.665a.854.854,0,0,0,0-1.707h-9.958a4.382,4.382,0,0,0,.9-2.152Zm3.019-3.955A2.25,2.25,0,0,1,141,79.2H86.9a2.25,2.25,0,0,1-2.077-1.394h35.107a.854.854,0,1,0,0-1.707H84.82A2.25,2.25,0,0,1,86.9,74.7H141A2.251,2.251,0,0,1,143.251,76.952ZM88.091,84.24H81.553V69.6H96.188V73H86.9a3.955,3.955,0,1,0,0,7.91h.771ZM30.705,17.229V43.752H20.358V17.229ZM11.746,31.661h6.9V44.605a.853.853,0,0,0,.854.854H31.559a.853.853,0,0,0,.854-.854V31.661H105.78l4.585,25.888H7.161Zm24.416,85.674H23.452V90.5a13.578,13.578,0,0,1,12.71-13.533Zm1.707,0V76.962a13.579,13.579,0,0,1,12.71,13.533v26.839H37.87Zm14.416,0V90.5a15.271,15.271,0,1,0-30.541,0v26.839h-6.6V59.257h87.237V73H97.9V68.752a.853.853,0,0,0-.854-.854H80.7a.853.853,0,0,0-.854.854V85.094a.853.853,0,0,0,.854.854h7.607l3.96,31.388H52.286Zm46.39,18.259a2.708,2.708,0,0,1-2.683-2.366l-6.6-52.321h49.121l-6.6,52.322a2.709,2.709,0,0,1-2.683,2.366H98.676Z" transform="translate(-5.289 -15.522)" fill="#12263f"/>
        <path id="Trazado_724851" data-name="Trazado 724851" d="M215.82,123.67h5.515a.854.854,0,1,0,0-1.707H215.82a.854.854,0,1,0,0,1.707Z" transform="translate(-95.638 -61.387)" fill="#12263f"/>
        <path id="Trazado_724852" data-name="Trazado 724852" d="M184.13,144.4A15.975,15.975,0,1,0,200.1,160.379,15.993,15.993,0,0,0,184.13,144.4Zm0,30.243A14.268,14.268,0,1,1,198.4,160.379,14.284,14.284,0,0,1,184.13,174.647Z" transform="translate(-75.468 -71.057)" fill="#12263f"/>
        <path id="Trazado_724853" data-name="Trazado 724853" d="M18.919,237.479H8.674a.854.854,0,1,0,0,1.707H18.919a.854.854,0,0,0,0-1.707Z" transform="translate(-6.38 -111.163)" fill="#12263f"/>
        <path id="Trazado_724854" data-name="Trazado 724854" d="M238.276,237.479H228.031a.854.854,0,1,0,0,1.707h10.246a.854.854,0,0,0,0-1.707Z" transform="translate(-100.9 -111.163)" fill="#12263f"/>
        <path id="Trazado_724855" data-name="Trazado 724855" d="M139.858,237.479H36.875a.854.854,0,0,0,0,1.707H139.859a.854.854,0,1,0,0-1.707Z" transform="translate(-18.531 -111.163)" fill="#12263f"/>
      </g>
    </g>
  </g>
</svg>
