<svg xmlns="http://www.w3.org/2000/svg" xmlns:xlink="http://www.w3.org/1999/xlink" width="429.563" height="346.49" viewBox="0 0 429.563 346.49">
  <defs>
    <clipPath id="clip-path">
      <rect id="Rect치ngulo_33841" data-name="Rect치ngulo 33841" width="353.874" height="295.116" fill="none"/>
    </clipPath>
    <clipPath id="clip-path-2">
      <rect id="Rect치ngulo_350128" data-name="Rect치ngulo 350128" width="344.563" height="346.49" fill="none"/>
    </clipPath>
  </defs>
  <g id="Grupo_1029763" data-name="Grupo 1029763" transform="translate(-990.437 -4494.629)">
    <g id="Grupo_1026449" data-name="Grupo 1026449" transform="translate(1420 4799.584) rotate(-180)">
      <path id="Trazado_113636" data-name="Trazado 113636" d="M291.508,294.772A145.754,145.754,0,1,1,145.754,149.018,145.754,145.754,0,0,1,291.508,294.772" transform="translate(0 -149.018)" fill="#0078bb"/>
      <path id="Trazado_113637" data-name="Trazado 113637" d="M1199.467,544.095A105.615,105.615,0,1,1,1093.853,438.48a105.615,105.615,0,0,1,105.615,105.615" transform="translate(-820.505 -358.201)" fill="#065958"/>
      <path id="Trazado_113638" data-name="Trazado 113638" d="M1232.906,598.359a84.79,84.79,0,1,1-84.79-84.79,84.79,84.79,0,0,1,84.79,84.79" transform="translate(-874.769 -412.465)" fill="#fff"/>
      <path id="Trazado_113665" data-name="Trazado 113665" d="M129.99,381.385a3.257,3.257,0,1,1-3.257-3.257,3.257,3.257,0,0,1,3.257,3.257" transform="translate(-89.231 -314.587)" fill="#fff"/>
      <path id="Trazado_113666" data-name="Trazado 113666" d="M181.665,381.385a3.257,3.257,0,1,1-3.257-3.257,3.257,3.257,0,0,1,3.257,3.257" transform="translate(-126.575 -314.587)" fill="#fff"/>
      <path id="Trazado_113667" data-name="Trazado 113667" d="M233.34,381.385a3.257,3.257,0,1,1-3.257-3.257,3.257,3.257,0,0,1,3.257,3.257" transform="translate(-163.918 -314.587)" fill="#fff"/>
      <path id="Trazado_113668" data-name="Trazado 113668" d="M285.016,381.385a3.257,3.257,0,1,1-3.257-3.257,3.257,3.257,0,0,1,3.257,3.257" transform="translate(-201.262 -314.587)" fill="#fff"/>
      <path id="Trazado_113669" data-name="Trazado 113669" d="M336.69,381.385a3.257,3.257,0,1,1-3.257-3.257,3.257,3.257,0,0,1,3.257,3.257" transform="translate(-238.605 -314.587)" fill="#fff"/>
      <path id="Trazado_113670" data-name="Trazado 113670" d="M129.99,430.711a3.257,3.257,0,1,1-3.257-3.257,3.257,3.257,0,0,1,3.257,3.257" transform="translate(-89.231 -350.233)" fill="#fff"/>
      <path id="Trazado_113671" data-name="Trazado 113671" d="M181.665,430.711a3.257,3.257,0,1,1-3.257-3.257,3.257,3.257,0,0,1,3.257,3.257" transform="translate(-126.575 -350.233)" fill="#fff"/>
      <path id="Trazado_113672" data-name="Trazado 113672" d="M233.34,430.711a3.257,3.257,0,1,1-3.257-3.257,3.257,3.257,0,0,1,3.257,3.257" transform="translate(-163.918 -350.233)" fill="#fff"/>
      <path id="Trazado_113673" data-name="Trazado 113673" d="M285.016,430.711a3.257,3.257,0,1,1-3.257-3.257,3.257,3.257,0,0,1,3.257,3.257" transform="translate(-201.262 -350.233)" fill="#fff"/>
      <path id="Trazado_113674" data-name="Trazado 113674" d="M336.69,430.711a3.257,3.257,0,1,1-3.257-3.257,3.257,3.257,0,0,1,3.257,3.257" transform="translate(-238.605 -350.233)" fill="#fff"/>
      <path id="Trazado_113675" data-name="Trazado 113675" d="M129.99,480.038a3.257,3.257,0,1,1-3.257-3.257,3.257,3.257,0,0,1,3.257,3.257" transform="translate(-89.231 -385.88)" fill="#fff"/>
      <path id="Trazado_113676" data-name="Trazado 113676" d="M181.665,480.038a3.257,3.257,0,1,1-3.257-3.257,3.257,3.257,0,0,1,3.257,3.257" transform="translate(-126.575 -385.88)" fill="#fff"/>
      <path id="Trazado_113677" data-name="Trazado 113677" d="M233.34,480.038a3.257,3.257,0,1,1-3.257-3.257,3.257,3.257,0,0,1,3.257,3.257" transform="translate(-163.918 -385.88)" fill="#fff"/>
      <path id="Trazado_113678" data-name="Trazado 113678" d="M285.016,480.038a3.257,3.257,0,1,1-3.257-3.257,3.257,3.257,0,0,1,3.257,3.257" transform="translate(-201.262 -385.88)" fill="#fff"/>
      <path id="Trazado_113679" data-name="Trazado 113679" d="M336.69,480.038a3.257,3.257,0,1,1-3.257-3.257,3.257,3.257,0,0,1,3.257,3.257" transform="translate(-238.605 -385.88)" fill="#fff"/>
      <path id="Trazado_113680" data-name="Trazado 113680" d="M129.99,529.364a3.257,3.257,0,1,1-3.257-3.257,3.257,3.257,0,0,1,3.257,3.257" transform="translate(-89.231 -421.526)" fill="#fff"/>
      <path id="Trazado_113681" data-name="Trazado 113681" d="M181.665,529.364a3.257,3.257,0,1,1-3.257-3.257,3.257,3.257,0,0,1,3.257,3.257" transform="translate(-126.575 -421.526)" fill="#fff"/>
      <path id="Trazado_113682" data-name="Trazado 113682" d="M233.34,529.364a3.257,3.257,0,1,1-3.257-3.257,3.257,3.257,0,0,1,3.257,3.257" transform="translate(-163.918 -421.526)" fill="#fff"/>
      <path id="Trazado_113683" data-name="Trazado 113683" d="M285.016,529.364a3.257,3.257,0,1,1-3.257-3.257,3.257,3.257,0,0,1,3.257,3.257" transform="translate(-201.262 -421.526)" fill="#fff"/>
      <path id="Trazado_113684" data-name="Trazado 113684" d="M336.69,529.364a3.257,3.257,0,1,1-3.257-3.257,3.257,3.257,0,0,1,3.257,3.257" transform="translate(-238.605 -421.526)" fill="#fff"/>
      <path id="Trazado_113685" data-name="Trazado 113685" d="M129.99,578.69a3.257,3.257,0,1,1-3.257-3.257,3.257,3.257,0,0,1,3.257,3.257" transform="translate(-89.231 -457.172)" fill="#fff"/>
      <path id="Trazado_113686" data-name="Trazado 113686" d="M181.665,578.69a3.257,3.257,0,1,1-3.257-3.257,3.257,3.257,0,0,1,3.257,3.257" transform="translate(-126.575 -457.172)" fill="#fff"/>
      <path id="Trazado_113687" data-name="Trazado 113687" d="M233.34,578.69a3.257,3.257,0,1,1-3.257-3.257,3.257,3.257,0,0,1,3.257,3.257" transform="translate(-163.918 -457.172)" fill="#fff"/>
      <path id="Trazado_113688" data-name="Trazado 113688" d="M285.016,578.69a3.257,3.257,0,1,1-3.257-3.257,3.257,3.257,0,0,1,3.257,3.257" transform="translate(-201.262 -457.172)" fill="#fff"/>
      <path id="Trazado_113689" data-name="Trazado 113689" d="M336.69,578.69a3.257,3.257,0,1,1-3.257-3.257,3.257,3.257,0,0,1,3.257,3.257" transform="translate(-238.605 -457.172)" fill="#fff"/>
      <g id="Grupo_1002336" data-name="Grupo 1002336" transform="translate(39.426 9.84)" opacity="0.251">
        <g id="Grupo_80323" data-name="Grupo 80323" clip-path="url(#clip-path)">
          <path id="Trazado_113615" data-name="Trazado 113615" d="M226.121,290.472c-3.342-.259-6.753-.407-10.246-.38-18.481.14-36.557,5.21-55.153,5.014-39.4-.415-79.95-4.578-114-30.306C-28.722,207.8-3.993,85.7,58.547,35.57,91.779,8.934,133.171.789,172.828.036c51.05-.97,116.53,15.493,153.107,59.309C351.418,89.872,357.754,161,351.8,201.3c-4.742,32.079-22.538,62.33-45.019,79.938-28.036,21.96-51.807,11.469-80.657,9.237" transform="translate(0 0.004)" fill="#e0f4fe"/>
        </g>
      </g>
    </g>
    <g id="Grupo_1026451" data-name="Grupo 1026451" transform="translate(990.437 4494.629)">
      <g id="Grupo_1026450" data-name="Grupo 1026450" clip-path="url(#clip-path-2)">
        <path id="Trazado_727239" data-name="Trazado 727239" d="M195.266,653.152a13.987,13.987,0,0,0-8.893-1.934c-5.441.52-16.5,1.272-15.867,4.03s17.9,5.722,23.208,3.221,1.553-5.317,1.553-5.317" transform="translate(63.112 -326.888)" fill="#ff854c"/>
        <path id="Trazado_727240" data-name="Trazado 727240" d="M156.328,657.568c-.135-.023-.227-.1-.21-.187s.165-.164.327-.153c.2.013,19.879,1.332,29.364-.785a.381.381,0,0,1,.38.1c.057.09-.019.19-.172.225-9.618,2.146-29.442.818-29.641.8l-.049-.006" transform="translate(80.613 -329.542)" fill="#2e2e47"/>
        <path id="Trazado_727241" data-name="Trazado 727241" d="M205.8,658.6c-.142-.024-.234-.109-.207-.2l.756-2.536c.028-.095.181-.158.341-.141s.267.107.24.2l-.756,2.536c-.028.095-.181.158-.341.141l-.032,0" transform="translate(35.244 -329.188)" fill="#2e2e47"/>
        <path id="Trazado_727242" data-name="Trazado 727242" d="M193.833,659.266c-.129-.022-.22-.095-.212-.177l.287-2.993c.009-.1.148-.169.311-.164s.287.088.278.184l-.287,2.993c-.009.1-.148.169-.311.164a.475.475,0,0,1-.066-.007" transform="translate(53.647 -329.291)" fill="#2e2e47"/>
        <path id="Trazado_727243" data-name="Trazado 727243" d="M181.6,659.536c-.124-.021-.215-.09-.212-.17l.116-3.813c0-.1.137-.173.3-.171s.292.081.289.177l-.116,3.813c0,.1-.137.173-.3.171a.548.548,0,0,1-.078-.007" transform="translate(72.149 -329.015)" fill="#2e2e47"/>
        <path id="Trazado_727244" data-name="Trazado 727244" d="M86.752,647.587a9.549,9.549,0,0,1,8.21-3.5c5.16.568,15.627,1.239,15.252,5.661s-16.374,9.965-21.572,6.236-1.89-8.393-1.89-8.393" transform="translate(191.655 -323.316)" fill="#ffc97d"/>
        <path id="Trazado_727245" data-name="Trazado 727245" d="M119.88,654.211a.278.278,0,0,0-.137-.536c-.185.031-18.594,3.069-27.687.15a.278.278,0,0,0-.17.529c9.222,2.96,27.763-.1,27.949-.132a.267.267,0,0,0,.045-.011" transform="translate(178.836 -328.156)" fill="#2e2e47"/>
        <path id="Trazado_727246" data-name="Trazado 727246" d="M100.514,655.017a.278.278,0,0,0,.179-.324l-.916-4a.278.278,0,1,0-.541.124l.915,4a.278.278,0,0,0,.333.209l.029-.008" transform="translate(194.449 -326.551)" fill="#2e2e47"/>
        <path id="Trazado_727247" data-name="Trazado 727247" d="M112.168,656.664a.278.278,0,0,0,.185-.292l-.511-4.753a.278.278,0,1,0-.552.059l.511,4.753a.278.278,0,0,0,.368.232" transform="translate(176.79 -327.001)" fill="#2e2e47"/>
        <path id="Trazado_727248" data-name="Trazado 727248" d="M123.819,657.684A.278.278,0,0,0,124,657.4l-.416-6.066a.278.278,0,0,0-.554.038l.416,6.066a.278.278,0,0,0,.3.258.282.282,0,0,0,.072-.015" transform="translate(159.29 -326.854)" fill="#2e2e47"/>
        <path id="Trazado_727249" data-name="Trazado 727249" d="M271.44,100.1c-14.779,5.286-25.44,46.327-26.571,52.235-.662,3.456-2.519,9.2-4.885,12.591a40.339,40.339,0,0,0-5.906,12.575c-2.067,7.666-3.686,18.782,1.463,25.7,3.476,4.672,12.648,4.364,15.971,2.381,4.783-2.854,3.6-10.489,7.773-22.775,7.067-20.82,31.658-89.686,12.155-82.71" transform="translate(-49.827 -50.005)" fill="#ffa031"/>
        <path id="Trazado_727250" data-name="Trazado 727250" d="M0,654.113c0,3.868,70.671,7,157.849,7s157.849-3.136,157.849-7-70.671-7-157.849-7S0,650.244,0,654.113" transform="translate(28.866 -324.861)" fill="#84ceca"/>
        <path id="Trazado_727251" data-name="Trazado 727251" d="M195.112,639.213a13.384,13.384,0,0,1-5.31-2.093c.083-.5-.679-2.187.344-3.5,1.12-1.432,2.8-.477,6.092-.8s5.8-2.467,8.891-4.8-.574-9.146.854-9.647,5.145,1.119,9.218,1.332,5.117-.171,5.117-.171c1.92,2.1.426,8.809,1.251,11.85a11.18,11.18,0,0,1,.383,4.974,56.093,56.093,0,0,1-9.045,2.255c-5.181.853-14.211,1.1-17.794.593" transform="translate(28.074 -310.392)" fill="#12263f"/>
        <path id="Trazado_727252" data-name="Trazado 727252" d="M188.067,655.456a.2.2,0,0,0,.048-.11,13.375,13.375,0,0,0,5.31,2.094c3.583.508,12.613.259,17.794-.594a56.049,56.049,0,0,0,9.044-2.254,1.166,1.166,0,0,1,.563.853c.132.658.955,3.456.435,4s-6.84.926-8.126,1.038-1.051-1.43-1.517-1.867-3.617.155-4.953.374-.535.436-.651,1-.856.308-3.409.428-11.572-1.219-12.866-1.384a2.4,2.4,0,0,1-2.208-2.019,1.433,1.433,0,0,1,.534-1.552" transform="translate(29.761 -328.619)" fill="#cc8b70"/>
        <path id="Trazado_727253" data-name="Trazado 727253" d="M96.568,639.126a15.37,15.37,0,0,1-5.6-2.084c.018-.5-.963-2.177-.1-3.48.941-1.426,2.751-.475,6.016-.793s5.511-2.457,8.311-4.782-1.753-9.107-.384-9.606,5.31,1.113,9.428,1.325,5.117-.171,5.117-.171c2.2,2.089,1.561,8.771,2.781,11.8a11.493,11.493,0,0,1,1.024,4.953,51.523,51.523,0,0,1-8.793,2.246,80.773,80.773,0,0,1-17.794.594" transform="translate(176.325 -310.392)" fill="#12263f"/>
        <path id="Trazado_727254" data-name="Trazado 727254" d="M87.5,655.3a.174.174,0,0,0,.034-.109,15.351,15.351,0,0,0,5.6,2.083,80.8,80.8,0,0,0,17.794-.593,51.563,51.563,0,0,0,8.793-2.246,1.389,1.389,0,0,1,.675.849c.218.655,1.4,3.441.951,3.979s-6.751.922-8.027,1.035-1.239-1.424-1.764-1.859-3.612.155-4.926.374-.482.435-.525.994-.819.306-3.368.426-11.778-1.212-13.1-1.376a2.835,2.835,0,0,1-2.477-2.01A1.285,1.285,0,0,1,87.5,655.3" transform="translate(179.758 -328.538)" fill="#cc8b70"/>
        <path id="Trazado_727255" data-name="Trazado 727255" d="M286.342,626.74s-2.811-7.869,3.681-9.971,17.676-2.3,19.007-4.74c0,0,2.494,6.575-6.04,17.376S286.819,632,286.342,626.74" transform="translate(-107.097 -307.251)" fill="#fa634b"/>
        <path id="Trazado_727256" data-name="Trazado 727256" d="M321.125,620.372a.263.263,0,0,0-.413-.324,41.746,41.746,0,0,1-10.215,8.258c-5.869,3.23-17.567,2.7-17.685,2.7a.263.263,0,0,0-.025.525c.485.024,11.966.54,17.963-2.761a42.307,42.307,0,0,0,10.361-8.377.142.142,0,0,0,.013-.017" transform="translate(-122.288 -311.23)" fill="#2e2e47"/>
        <path id="Trazado_727257" data-name="Trazado 727257" d="M295.678,622.981a.263.263,0,0,0-.242-.415l-3.812.419-.152-3.231a.263.263,0,0,0-.525.024l.178,3.791,4.369-.481a.262.262,0,0,0,.185-.108" transform="translate(-96.05 -311.003)" fill="#2e2e47"/>
        <path id="Trazado_727258" data-name="Trazado 727258" d="M306.168,630.846a.263.263,0,0,0-.2-.415l-4.877-.312,1.45-4.847a.263.263,0,0,0-.5-.151L300.4,630.6l5.537.354a.262.262,0,0,0,.23-.109" transform="translate(-111.247 -313.73)" fill="#2e2e47"/>
        <path id="Trazado_727259" data-name="Trazado 727259" d="M316.495,638.791l.017-.027a.263.263,0,0,0-.1-.357l-7.552-4.172-.887-5.77a.263.263,0,0,0-.519.08l.926,6.025,7.779,4.3a.263.263,0,0,0,.34-.076" transform="translate(-125.083 -315.391)" fill="#2e2e47"/>
        <path id="Trazado_727260" data-name="Trazado 727260" d="M497.069,670.022s-5.439-5.684-12.386-3.057-15.624,8.925-18.98,8.424c0,0,4.434,4.832,21.3,5.542s14.76-7.913,10.066-10.909" transform="translate(-387.758 -334.482)" fill="#fa634b"/>
        <path id="Trazado_727261" data-name="Trazado 727261" d="M457.715,674.7c-.165-.011-.3-.1-.307-.207s.131-.2.309-.2a77.012,77.012,0,0,0,15.695-1.569c7.56-1.686,15.928-8.654,16.012-8.725a.451.451,0,0,1,.449-.028c.145.071.179.2.076.286-.346.29-8.559,7.128-16.285,8.851a78.041,78.041,0,0,1-15.92,1.591h-.027" transform="translate(-373.223 -333.305)" fill="#2e2e47"/>
        <path id="Trazado_727262" data-name="Trazado 727262" d="M510.216,684.957a.45.45,0,0,1-.212-.067c-.126-.084-.128-.212,0-.286l3.3-1.965-2.994-1.76c-.134-.079-.149-.208-.032-.287a.462.462,0,0,1,.454,0l3.512,2.065-3.777,2.251a.428.428,0,0,1-.244.05" transform="translate(-423.596 -341.641)" fill="#2e2e47"/>
        <path id="Trazado_727263" data-name="Trazado 727263" d="M495.384,683.961a.464.464,0,0,1-.168-.043c-.146-.07-.183-.2-.082-.285l3.4-2.952L492.77,679c-.165-.048-.246-.169-.181-.27a.392.392,0,0,1,.418-.1l6.516,1.9-3.86,3.352a.4.4,0,0,1-.279.075" transform="translate(-400.248 -340.678)" fill="#2e2e47"/>
        <path id="Trazado_727264" data-name="Trazado 727264" d="M482.729,681.211l-.038,0c-.176-.026-.294-.135-.265-.244l1.716-6.483-4.878-3.5a.155.155,0,0,1,.016-.285.467.467,0,0,1,.455.029l5.094,3.651-1.767,6.677c-.027.1-.171.167-.332.155" transform="translate(-378.885 -336.682)" fill="#2e2e47"/>
        <path id="Trazado_727265" data-name="Trazado 727265" d="M574.033,626.673s-4.2-6.652-11.53-5.459-17.087,5.64-20.277,4.481c0,0,3.385,5.617,19.773,9.667s16.039-4.82,12.034-8.689" transform="translate(-501.79 -311.79)" fill="#fa634b"/>
        <path id="Trazado_727266" data-name="Trazado 727266" d="M530.522,629.682c-.16-.044-.274-.159-.26-.264s.169-.17.342-.132a77,77,0,0,0,15.693,1.583c7.744-.149,17.331-5.314,17.426-5.366a.452.452,0,0,1,.446.062c.128.1.135.231.017.295-.4.216-9.805,5.283-17.719,5.435a78.05,78.05,0,0,1-15.919-1.606l-.026-.007" transform="translate(-483.766 -313.998)" fill="#2e2e47"/>
        <path id="Trazado_727267" data-name="Trazado 727267" d="M586.043,634.236a.446.446,0,0,1-.194-.108c-.108-.108-.084-.234.053-.281l3.621-1.27-2.584-2.321c-.116-.1-.1-.233.025-.287a.463.463,0,0,1,.445.089l3.031,2.722-4.149,1.456a.426.426,0,0,1-.249,0" transform="translate(-537.584 -316.245)" fill="#2e2e47"/>
        <path id="Trazado_727268" data-name="Trazado 727268" d="M570.06,636.1a.47.47,0,0,1-.157-.075c-.129-.1-.14-.23-.023-.3l3.92-2.218-5.314-2.793c-.152-.08-.208-.215-.124-.3a.392.392,0,0,1,.429-.011l6.008,3.158-4.45,2.517a.393.393,0,0,1-.289.018" transform="translate(-513.249 -316.449)" fill="#2e2e47"/>
        <path id="Trazado_727269" data-name="Trazado 727269" d="M555.762,636.736l-.037-.011c-.167-.06-.261-.191-.212-.292l2.971-6.013-4.085-4.4a.155.155,0,0,1,.072-.276.468.468,0,0,1,.44.119l4.267,4.591-3.06,6.192a.307.307,0,0,1-.356.086" transform="translate(-490.664 -314.131)" fill="#2e2e47"/>
        <path id="Trazado_727270" data-name="Trazado 727270" d="M99.283,108.308c4.407-18.9,10.265-27.563,25.007-32.19,16.9-5.3,25.982,5.33,29.972,12.544,1.92,3.471-.383,20.339-1.414,37.03-1.144,18.546,1.5,38.122,1.5,38.122l13.759,87.272,4.7,22.6,15.957,74.064s-.34,1.86-8.961,3.277a31.144,31.144,0,0,1-12.005-.538s-8.468-34.6-19.907-72.864c-.924-3.09-4.908-10.117-5.825-13.184-7.64-25.559-14.813-49.573-17.978-60.206l17.873,144.972s-2.461,2.027-9.431,2.026a27.893,27.893,0,0,1-10.031-1.61s-4.829-31.492-12.869-69.884c-.886-4.23-4.06-7.307-4.932-11.508C99.4,242.759,93.544,211.5,91.612,199.811c-4.266-25.8,2.043-67.366,7.671-91.5" transform="translate(110.881 -37.495)" fill="#ffa031"/>
        <path id="Trazado_727271" data-name="Trazado 727271" d="M149.823,295.336l24.21-5.559,1.892,12c-8.372-1.2-26.1-6.442-26.1-6.442" transform="translate(94.03 -145.474)" fill="#12263f"/>
        <path id="Trazado_727272" data-name="Trazado 727272" d="M251.243,311.559c-.493-3.416-.814-7.083-.987-10.93l18.692.414s-11.2,6.91-17.705,10.516" transform="translate(-49.007 -150.922)" fill="#12263f"/>
        <path id="Trazado_727273" data-name="Trazado 727273" d="M187.946,130.639c1.176-21.483,12.758-50.343,8.8-53.933s-10.508,0-10.508,0-9.841,5.031-13.374,23.405-2.827,87.345-2.827,87.345l-22.437,2.587c-1.693-25.628,6.309-60.454,11.271-81.734,4.407-18.9,10.266-27.563,25.007-32.19,16.9-5.3,25.983,5.33,29.972,12.544,1.92,3.471,3.1,23.637,2.073,40.328a193.7,193.7,0,0,0,.932,33.92l3.025,22.613L191.1,187.456s-4.331-35.334-3.155-56.816" transform="translate(51.288 -37.495)" fill="#fff"/>
        <path id="Trazado_727274" data-name="Trazado 727274" d="M296.233,278.539a12.423,12.423,0,0,1,5.236-5.86,9.846,9.846,0,0,0,2.233-1.616c1.062-1.214,1.967-1.369,2.2,0s-2.124,6.068-2.314,6.751-.3,6.827-2.237,8.761a4.715,4.715,0,0,1-6.068.452c-1.009-.741-.68-4.665.951-8.488" transform="translate(-108.114 -135.592)" fill="#ffa982"/>
        <path id="Trazado_727275" data-name="Trazado 727275" d="M237.931,479.806a.289.289,0,0,0,.214-.093.292.292,0,0,0-.014-.413,103.741,103.741,0,0,0-13.657-10.837.293.293,0,1,0-.313.5,103.038,103.038,0,0,1,13.57,10.77.293.293,0,0,0,.2.079" transform="translate(-5.221 -235.155)" fill="#2e2e47"/>
        <path id="Trazado_727276" data-name="Trazado 727276" d="M153.462,247.237c-.329-3.986-.642-8.312-.888-12.721,11.71-.385,21.94-1.1,27.753-1.558.372,5.811.858,9.407.858,9.407l.436,3.259c-5.846.474-16.19,1.212-28.158,1.613" transform="translate(86.964 -116.95)" fill="#e0eaf4"/>
        <path id="Trazado_727277" data-name="Trazado 727277" d="M248.912,234.955c6.464.535,13.437.775,20.405.823-.047,4.505-.072,8.815-.083,12.733-7.41-.056-14.868-.325-21.834-.921.389-4.175.9-8.408,1.511-12.635" transform="translate(-47.955 -117.952)" fill="#e0eaf4"/>
        <path id="Trazado_727278" data-name="Trazado 727278" d="M154.168,473.887a.293.293,0,0,0,.169-.532l-23.721-16.675a.293.293,0,0,0-.337.479L154,473.833a.29.29,0,0,0,.168.053" transform="translate(125.288 -229.236)" fill="#2e2e47"/>
        <path id="Trazado_727279" data-name="Trazado 727279" d="M153.138,177.11l16.514,16.367a183.423,183.423,0,0,0,1.269,20.851l.155,1.16c-2.838-4.12-7.777-11.45-10.974-17.084-4.705-8.292-6.963-21.295-6.963-21.295" transform="translate(97.228 -88.913)" fill="#12263f"/>
        <path id="Trazado_727280" data-name="Trazado 727280" d="M152.726,178.925s-26.209-50.889-39.313-45.21-11.576,13.1-8.081,16.817,25.117,44.118,37.566,43.9,10.483-11.793,9.828-15.507" transform="translate(140.081 -66.906)" fill="#ffa031"/>
        <path id="Trazado_727281" data-name="Trazado 727281" d="M107.207,102.525s34.672,49.141,28.256,65.958-30.6-18.558-33.279-34.727,1.255-36.8,5.023-31.232" transform="translate(157.862 -51.004)" fill="#ffa031"/>
        <path id="Trazado_727282" data-name="Trazado 727282" d="M198.108,21.724s1.275,6.843-1.141,9.491-3.623,5.031-5.481,4.115-3.142-14.348.09-14.557,5.717.249,6.533.951" transform="translate(51.704 -10.403)" fill="#2e2e47"/>
        <path id="Trazado_727283" data-name="Trazado 727283" d="M201.44,44.178s1.742,11.583,2.727,16.3c.453,2.167-6.595,3.344-9.96,2.562-1.133-.263-.6-1.992-.7-3.553a27.387,27.387,0,0,1,.146-6.174c.444-1.586.836-6.24,1.105-6.917s5.751-3.2,6.679-2.215" transform="translate(44.056 -22.064)" fill="#ffa982"/>
        <path id="Trazado_727284" data-name="Trazado 727284" d="M192.684,19.067s-.01,3.063-.323,5.885c-.194,1.75-.6,3.243-.953,5.838s.438,6.518,5.153,7.707,9.961-.661,11.412-3.134a15.5,15.5,0,0,0,1.595-6.149s1,1.159,2.089-.63,2.248-4.659.571-5.2-2.016.892-2.4.7-.4-2.973-.832-5.235c-.421-2.2-11-6.2-16.313.214" transform="translate(36.211 -7.826)" fill="#ffa982"/>
        <path id="Trazado_727285" data-name="Trazado 727285" d="M199.961,42.236a.113.113,0,0,0-.212,0,9.388,9.388,0,0,0-.609,3.838c.221,1.922.163,4.335,1.268,5.545s4.684,2.219,7.315,2.147S213.665,52.722,215,51.5s2.712-5.175,2.484-6.523-.282-4.152-.323-4.913-.954-.431-1.109-.151-3.656,6.206-5.6,5.628c-2.089-.62-3.286-2.592-5.827-2.463-3.422.175-3.832.927-4.663-.844" transform="translate(27.902 -19.879)" fill="#2e2e47"/>
        <path id="Trazado_727286" data-name="Trazado 727286" d="M211.353,29.567a.174.174,0,0,0,.087.016,12.356,12.356,0,0,1,2.942.36.176.176,0,0,0,.084-.343,12.483,12.483,0,0,0-3.05-.37.177.177,0,0,0-.063.336" transform="translate(24.765 -14.669)" fill="#2e2e47"/>
        <path id="Trazado_727287" data-name="Trazado 727287" d="M219.388,48.724s2.458.152,5.827.276a6.773,6.773,0,0,1-2.455,1.77,5.511,5.511,0,0,1-.885.294,1.929,1.929,0,0,1-2.36-1.31c-.049-.419-.1-.822-.127-1.029" transform="translate(10.097 -24.46)" fill="#fff"/>
        <path id="Trazado_727288" data-name="Trazado 727288" d="M214.348,41.573c-.043.645-1.07,1.1-2.295,1.021s-2.182-.671-2.139-1.316,1.071-1.1,2.295-1.021,2.182.671,2.139,1.316" transform="translate(25.683 -20.205)" fill="#f2836d"/>
        <path id="Trazado_727289" data-name="Trazado 727289" d="M232.77,39.856a1.571,1.571,0,1,1-1.438-1.269,1.38,1.38,0,0,1,1.438,1.269" transform="translate(-2.612 -19.369)" fill="#f2836d"/>
        <path id="Trazado_727290" data-name="Trazado 727290" d="M196.349,25.93s.337,4.8,1.117,5.207,1.354.179,1.917-.638,1.105-5.065.539-5.336-3.574.767-3.574.767" transform="translate(46.623 -12.61)" fill="#2e2e47"/>
        <path id="Trazado_727291" data-name="Trazado 727291" d="M225.083,36.961s-1.615,1.1-1.912,1.855-.5,1.234-.119,1.832a1.745,1.745,0,0,0,2.412.178c.982-.632-.381-3.865-.381-3.865" transform="translate(7.77 -18.555)" fill="#ffa982"/>
        <path id="Trazado_727292" data-name="Trazado 727292" d="M223.878,37.1c.478.224,1.287.256,2.631-.459a.176.176,0,1,0-.165-.311c-1.255.667-2.22.736-2.647.188a1.592,1.592,0,0,1,.236-1.909c2.015-2.238,2.061-4.6,1.741-5.21-.64-1.216-3.267-.194-3.378-.15a.176.176,0,1,0,.129.328c.678-.267,2.527-.791,2.936-.014.277.527.182,2.73-1.691,4.809a1.932,1.932,0,0,0-.252,2.363,1.253,1.253,0,0,0,.46.365" transform="translate(7.318 -14.461)" fill="#2e2e47"/>
        <path id="Trazado_727293" data-name="Trazado 727293" d="M211.616,33.985a.171.171,0,0,0,.075.016c.013,0,1.318,0,3.2.2a.177.177,0,0,0,.037-.352c-1.906-.2-3.227-.2-3.241-.2a.177.177,0,0,0-.074.337" transform="translate(24.145 -16.892)" fill="#2e2e47"/>
        <path id="Trazado_727294" data-name="Trazado 727294" d="M215.307,33.958a.8.8,0,0,0-.969.335,1.631,1.631,0,0,0,.265,1.737.884.884,0,0,0,1.3-.306,2.282,2.282,0,0,0,.065-1.479,1.306,1.306,0,0,0-.665-.287" transform="translate(21.831 -17.027)" fill="#2e2e47"/>
        <path id="Trazado_727295" data-name="Trazado 727295" d="M226.585,32.835a.175.175,0,0,0,.058.016,20.943,20.943,0,0,1,2.313.37.176.176,0,0,0,.079-.344,21.256,21.256,0,0,0-2.357-.377.176.176,0,0,0-.092.336" transform="translate(2.609 -16.315)" fill="#2e2e47"/>
        <path id="Trazado_727296" data-name="Trazado 727296" d="M229.765,33.137c-.137-.2-.736-.444-1.014-.046a1.773,1.773,0,0,0-.075,1.577c.217.391.79.17.972-.164a1.7,1.7,0,0,0,.118-1.366" transform="translate(0.895 -16.505)" fill="#2e2e47"/>
        <path id="Trazado_727297" data-name="Trazado 727297" d="M209.924,21.992s-10.46,2.772-9.813,3.838,6.34,1.994,9.806,1.635,16.092-1.354,16.508-1.694c.248-.2-7.243-.719-12.06-1.739-3.258-.69-4.441-2.041-4.441-2.041" transform="translate(18.495 -11.04)" fill="#2e2e47"/>
        <path id="Trazado_727298" data-name="Trazado 727298" d="M193.125,1.712a37.552,37.552,0,0,0-4.065-.284A33.99,33.99,0,0,1,198.831.014c3.293.2,6.285,3.515,7,4.813,1.021,1.85.593,4.793.671,7.291l-.1,2.388s-4.02.317-5.2.237l-.411-.029a28.788,28.788,0,0,0-.943-7.2,8.262,8.262,0,0,0-6.724-5.806" transform="translate(43.887 0)" fill="#ffa031"/>
        <path id="Trazado_727299" data-name="Trazado 727299" d="M205.071,2.859a37.429,37.429,0,0,1,4.065.285,8.261,8.261,0,0,1,6.724,5.8,28.8,28.8,0,0,1,.943,7.2c-10.094-.721-14.964-2.46-16.223-3.441,0,0,.073-8.236,3.8-9.606.227-.084.459-.163.7-.24" transform="translate(27.876 -1.431)" fill="#ffd3b5"/>
        <path id="Trazado_727300" data-name="Trazado 727300" d="M188.2,126.34s-1.672-6.433-3.314-8.168-2.761-2.561-5.17-.283.832,5.763,1.669,6.23,6.379,4.12,6.814,2.221" transform="translate(67.307 -58.484)" fill="#ffa982"/>
        <path id="Trazado_727301" data-name="Trazado 727301" d="M176.625,316.08a2.192,2.192,0,0,0,1.831-.982L320.832,100.6a2.195,2.195,0,1,0-3.657-2.428L174.8,312.671a2.2,2.2,0,0,0,1.827,3.409" transform="translate(-63.499 -48.791)" fill="#e0eaf4"/>
        <path id="Trazado_727302" data-name="Trazado 727302" d="M191.145,128.344l-5.712-8.51s-4.886-4.647-6.41-2.633-1.324,2.924-1.324,2.924-1.242,1.408-1.45,1.747a7.987,7.987,0,0,0-.3,1.9,10.292,10.292,0,0,1-.744,1.777c-.18.12.574,1.69,1.266,2.053s5.519,1.762,6.816,2.8,2.919,3.363,4.431,2.82,4.157-4.418,3.428-4.88" transform="translate(66.059 -58.583)" fill="#ffa982"/>
        <path id="Trazado_727303" data-name="Trazado 727303" d="M138.283,179a.29.29,0,0,0,.062-.006.293.293,0,0,0,.225-.348c-1.252-5.828-8.268-16.812-13.392-24.832-1.276-2-2.482-3.886-3.417-5.411-2.409-3.934-6.575-7.5-9.646-9.794a64.124,64.124,0,0,0-6.141-4.08.293.293,0,0,0-.287.51c.11.062,11.052,6.284,15.576,13.67.937,1.53,2.144,3.42,3.422,5.421,5.1,7.982,12.083,18.914,13.313,24.64a.293.293,0,0,0,.286.231" transform="translate(153.431 -67.515)" fill="#2e2e47"/>
        <path id="Trazado_727304" data-name="Trazado 727304" d="M292.887,290.759s7.018,2.205,8.427.933-1.926-2.237-1.926-2.237,3.5.619,4.655-1.118-1.962-2.444-1.962-2.444,3.615,1.024,3.767-1.043-5.075-4.02-5.075-4.02,6.7.572,5.8-1.258-4.288-3.513-7.747-1.835-7.56,10.336-5.939,13.022" transform="translate(-107.763 -139.083)" fill="#ffa982"/>
        <path id="Trazado_727305" data-name="Trazado 727305" d="M210.354,565.193l1.076,8.73c-6.164.471-12.477.761-18.678.761-.556,0-1.109-.008-1.663-.012-.477-2.724-1-5.661-1.564-8.783,6.82.117,13.9-.17,20.829-.7" transform="translate(38.754 -283.738)" fill="#e0eaf4"/>
        <path id="Trazado_727306" data-name="Trazado 727306" d="M123.8,553.312l1.849,8.582c-5.074.992-12.77,2.384-21.831,3.653-.718-2.7-1.486-5.563-2.3-8.563,9.233-1.266,17.13-2.677,22.282-3.672" transform="translate(168.362 -277.774)" fill="#e0eaf4"/>
        <path id="Trazado_727307" data-name="Trazado 727307" d="M187.11,606.027c-.376-2.31-.867-5.276-1.466-8.792,6.542.145,13.343-.091,20.031-.56l1.077,8.731c-5.64.4-11.384.64-17.035.64q-1.307,0-2.607-.019" transform="translate(45.365 -299.543)" fill="#e0eaf4"/>
        <path id="Trazado_727308" data-name="Trazado 727308" d="M96.987,596.764c-.632-2.468-1.375-5.346-2.219-8.572,8.87-1.229,16.466-2.583,21.518-3.555l1.849,8.583c-4.986.972-12.415,2.311-21.147,3.544" transform="translate(179.236 -293.5)" fill="#e0eaf4"/>
        <path id="Trazado_727309" data-name="Trazado 727309" d="M227.183,335.091a.293.293,0,0,0,.026-.584c-1.009-.089-24.773-2.165-29.832-1.6a.293.293,0,0,0,.064.582c5-.556,29.47,1.581,29.717,1.6h.025" transform="translate(18.928 -167.077)" fill="#2e2e47"/>
        <path id="Trazado_727310" data-name="Trazado 727310" d="M242.153,327.522a.293.293,0,0,0,.023-.584c-.21-.017-21.048-1.7-24.49-2.073a.293.293,0,0,0-.063.582c3.451.373,24.3,2.057,24.506,2.074h.024" transform="translate(-6.124 -163.088)" fill="#2e2e47"/>
        <path id="Trazado_727311" data-name="Trazado 727311" d="M291.116,220.717a.293.293,0,0,0,.236-.119,87.06,87.06,0,0,1,9.251-9.935.293.293,0,0,0-.395-.432,87.646,87.646,0,0,0-9.327,10.018.293.293,0,0,0,.062.409.289.289,0,0,0,.173.057" transform="translate(-100.959 -105.502)" fill="#2e2e47"/>
        <path id="Trazado_727312" data-name="Trazado 727312" d="M454.267,632.761s-39.977-16.843-64.011-22.938S308,619.211,296.127,625.147s-21.2,7.077-20.635,9.757,117.308,2.413,141.052,2.405,45.982-1.158,37.723-4.548" transform="translate(-248.638 -305.443)" fill="#ffa031"/>
        <path id="Trazado_727313" data-name="Trazado 727313" d="M430.06,643.583s1.917-8.363-5.046-11.184c-8.313-3.369-24.9-4.93-28.881-9.445,0,0,.268,10.828,17.272,24.31,11.055,8.764,16.73,1.211,16.654-3.681" transform="translate(-283.005 -312.736)" fill="#ff854c"/>
        <path id="Trazado_727314" data-name="Trazado 727314" d="M395.015,647.973a92.705,92.705,0,0,1-13.959-9.885.368.368,0,0,1,.485-.553c.082.072,8.3,7.252,16.243,11.04,6.513,3.108,16.569,2.088,16.67,2.077a.368.368,0,0,1,.077.731c-.42.045-10.365,1.053-17.064-2.144-.817-.39-1.638-.816-2.452-1.265" transform="translate(-259.992 -320.01)" fill="#2e2e47"/>
        <path id="Trazado_727315" data-name="Trazado 727315" d="M434.918,642.267a.367.367,0,0,1,.225-.686l5.473.7-1.112-4.468a.367.367,0,1,1,.713-.178l1.372,5.512-6.54-.839a.362.362,0,0,1-.131-.043" transform="translate(-313.511 -319.967)" fill="#2e2e47"/>
        <path id="Trazado_727316" data-name="Trazado 727316" d="M417.489,653.064a.368.368,0,0,1,.146-.688l5.509-.47-3.034-5.864a.367.367,0,1,1,.653-.338l3.539,6.84-6.605.564a.366.366,0,0,1-.209-.044" transform="translate(-287.546 -324.057)" fill="#2e2e47"/>
        <path id="Trazado_727317" data-name="Trazado 727317" d="M404.329,661.923a.368.368,0,0,1-.027-.627l6.851-4.6.008-6.267a.368.368,0,1,1,.735,0l-.008,6.659-7.175,4.82a.369.369,0,0,1-.383.016" transform="translate(-268.585 -326.343)" fill="#2e2e47"/>
        <path id="Trazado_727318" data-name="Trazado 727318" d="M349.31,639.736s6.744-4.933,2.553-10.317-13.335-11.83-13.067-14.6c0,0-5.756,4.041-4.759,17.77s11.926,11.223,15.273,7.143" transform="translate(-174.959 -308.654)" fill="#ffea8f"/>
        <path id="Trazado_727319" data-name="Trazado 727319" d="M327.381,625.293a.263.263,0,0,1,.524-.036,41.744,41.744,0,0,0,3.816,12.569c3.042,5.967,13.019,12.1,13.119,12.162a.263.263,0,0,1-.273.449c-.415-.253-10.2-6.273-13.313-12.372a42.321,42.321,0,0,1-3.87-12.749.165.165,0,0,1,0-.022" transform="translate(-163.431 -313.775)" fill="#2e2e47"/>
        <path id="Trazado_727320" data-name="Trazado 727320" d="M355.629,628.968a.263.263,0,0,1,.434-.207l2.919,2.488,1.94-2.589a.263.263,0,0,1,.421.315l-2.276,3.037-3.345-2.851a.265.265,0,0,1-.093-.193" transform="translate(-193.927 -315.547)" fill="#2e2e47"/>
        <path id="Trazado_727321" data-name="Trazado 727321" d="M351.839,640.449a.263.263,0,0,1,.4-.234l4.211,2.481,1.522-4.825a.263.263,0,1,1,.5.158l-1.721,5.455-4.78-2.816a.263.263,0,0,1-.129-.22" transform="translate(-189.127 -320.132)" fill="#2e2e47"/>
        <path id="Trazado_727322" data-name="Trazado 727322" d="M339.709,653.76a.217.217,0,0,1,0-.031.263.263,0,0,1,.286-.237l8.592.789L352.562,650a.263.263,0,1,1,.385.357l-4.15,4.465-8.85-.813a.262.262,0,0,1-.239-.254" transform="translate(-177.622 -326.273)" fill="#2e2e47"/>
        <path id="Trazado_727323" data-name="Trazado 727323" d="M629.269,632.864s-4.351-7.134-10.067-3.408-12.9,12.3-15.638,11.8c0,0,3.544,6.074,17.309,6.23s12.183-10.945,8.4-14.621" transform="translate(-587.912 -315.459)" fill="#ffea8f"/>
        <path id="Trazado_727324" data-name="Trazado 727324" d="M596.714,639.349a.263.263,0,0,1,.008-.525,41.76,41.76,0,0,0,12.844-2.75c6.2-2.532,13.148-11.96,13.217-12.055a.263.263,0,1,1,.424.31c-.287.392-7.105,9.643-13.443,12.231a42.321,42.321,0,0,1-13.029,2.789h-.022" transform="translate(-575.723 -313.216)" fill="#2e2e47"/>
        <path id="Trazado_727325" data-name="Trazado 727325" d="M639.923,653.923a.263.263,0,0,1-.17-.449l2.723-2.7-2.417-2.15a.263.263,0,0,1,.349-.392l2.836,2.522-3.121,3.095a.263.263,0,0,1-.2.076" transform="translate(-617.225 -325.392)" fill="#2e2e47"/>
        <path id="Trazado_727326" data-name="Trazado 727326" d="M627.692,651.982a.263.263,0,0,1-.2-.414l2.825-3.988-4.681-1.921a.263.263,0,0,1,.2-.486l5.292,2.172-3.206,4.527a.263.263,0,0,1-.229.111" transform="translate(-598.038 -323.88)" fill="#2e2e47"/>
        <path id="Trazado_727327" data-name="Trazado 727327" d="M617.2,647.651l-.031,0a.263.263,0,0,1-.213-.3l1.505-8.5-3.929-4.318a.263.263,0,1,1,.389-.354l4.1,4.509-1.55,8.75a.263.263,0,0,1-.273.217" transform="translate(-580.458 -318.326)" fill="#2e2e47"/>
        <path id="Trazado_727328" data-name="Trazado 727328" d="M406.524,602.527s-3.986-4.8-10.266-3.78-19.05,2.485-18.317,7.875,20.658,11.181,26.791,6.294,1.792-10.39,1.792-10.39" transform="translate(-251.642 -300.513)" fill="#ff854c"/>
        <path id="Trazado_727329" data-name="Trazado 727329" d="M361.574,611.156a.34.34,0,0,1,.135-.665c.229.026,22.948,2.6,33.9-1.533a.34.34,0,0,1,.241.637c-11.1,4.194-33.987,1.6-34.217,1.573a.353.353,0,0,1-.056-.011" transform="translate(-231.439 -305.698)" fill="#2e2e47"/>
        <path id="Trazado_727330" data-name="Trazado 727330" d="M418.689,613.181a.341.341,0,0,1-.24-.386l.872-4.955a.341.341,0,1,1,.671.118l-.872,4.955a.341.341,0,0,1-.394.276l-.037-.008" transform="translate(-283.812 -305.007)" fill="#2e2e47"/>
        <path id="Trazado_727331" data-name="Trazado 727331" d="M404.869,614.475a.34.34,0,0,1-.244-.346l.331-5.849a.34.34,0,1,1,.679.038l-.331,5.849a.34.34,0,0,1-.359.321.347.347,0,0,1-.076-.013" transform="translate(-262.567 -305.207)" fill="#2e2e47"/>
        <path id="Trazado_727332" data-name="Trazado 727332" d="M390.743,615a.341.341,0,0,1-.245-.333l.133-7.451a.34.34,0,1,1,.681.012l-.133,7.451a.34.34,0,0,1-.346.334.327.327,0,0,1-.09-.013" transform="translate(-241.209 -304.668)" fill="#2e2e47"/>
        <path id="Trazado_727333" data-name="Trazado 727333" d="M664.343,671.13a13.987,13.987,0,0,0-8.893-1.934c-5.441.52-16.5,1.272-15.867,4.03s17.9,5.722,23.208,3.221,1.553-5.317,1.553-5.317" transform="translate(-639.556 -335.914)" fill="#ff854c"/>
        <path id="Trazado_727334" data-name="Trazado 727334" d="M625.4,675.547c-.135-.023-.227-.1-.21-.187s.165-.164.327-.153c.2.013,19.879,1.332,29.364-.785a.381.381,0,0,1,.38.1c.057.09-.019.19-.172.225-9.618,2.146-29.442.818-29.641.8a.37.37,0,0,1-.049-.006" transform="translate(-622.055 -338.568)" fill="#2e2e47"/>
        <path id="Trazado_727335" data-name="Trazado 727335" d="M674.881,676.583c-.142-.024-.234-.109-.208-.2l.756-2.536c.028-.095.181-.158.342-.141s.267.107.24.2l-.756,2.536c-.028.095-.181.158-.342.141l-.032,0" transform="translate(-667.423 -338.214)" fill="#2e2e47"/>
        <path id="Trazado_727336" data-name="Trazado 727336" d="M662.909,677.245c-.129-.022-.22-.095-.212-.177l.287-2.993c.009-.1.148-.169.311-.164s.287.088.278.184l-.287,2.993c-.009.1-.148.169-.311.164a.475.475,0,0,1-.066-.007" transform="translate(-649.02 -338.317)" fill="#2e2e47"/>
        <path id="Trazado_727337" data-name="Trazado 727337" d="M650.673,677.514c-.124-.021-.214-.09-.212-.17l.115-3.813c0-.1.137-.173.3-.171s.292.081.289.177l-.115,3.813c0,.1-.137.172-.3.171a.5.5,0,0,1-.078-.007" transform="translate(-630.519 -338.04)" fill="#2e2e47"/>
        <path id="Trazado_727338" data-name="Trazado 727338" d="M470.773,623.375a9.549,9.549,0,0,0,8.785-1.586c4-3.311,12.373-9.625,9.629-13.113s-19.155.676-21.448,6.649,3.035,8.05,3.035,8.05" transform="translate(-377.803 -304.929)" fill="#ffc97d"/>
        <path id="Trazado_727339" data-name="Trazado 727339" d="M495.962,614.058a.278.278,0,0,1,.18.523c-.171.076-17.219,7.657-23.211,15.094a.278.278,0,1,1-.432-.349c6.076-7.542,23.247-15.177,23.419-15.254a.282.282,0,0,1,.044-.015" transform="translate(-387.007 -308.265)" fill="#2e2e47"/>
        <path id="Trazado_727340" data-name="Trazado 727340" d="M478.72,614.157a.279.279,0,0,1,.329.172l1.435,3.847a.278.278,0,0,1-.521.194l-1.436-3.847a.279.279,0,0,1,.163-.357l.029-.009" transform="translate(-374.225 -308.315)" fill="#2e2e47"/>
        <path id="Trazado_727341" data-name="Trazado 727341" d="M488.607,618.779a.278.278,0,0,1,.315.142l2.186,4.252a.277.277,0,1,1-.493.253l-2.186-4.251a.278.278,0,0,1,.179-.4" transform="translate(-389.786 -310.635)" fill="#2e2e47"/>
        <path id="Trazado_727342" data-name="Trazado 727342" d="M498.1,623.277a.278.278,0,0,1,.31.133l2.987,5.3a.278.278,0,0,1-.484.273l-2.986-5.3a.278.278,0,0,1,.105-.378.286.286,0,0,1,.069-.027" transform="translate(-404.808 -312.893)" fill="#2e2e47"/>
        <path id="Trazado_727343" data-name="Trazado 727343" d="M264.134,663a9.548,9.548,0,0,1,6.68-5.922c5.075-1.094,15.216-3.769,16.26.544s-12.379,14.633-18.491,12.741S264.134,663,264.134,663" transform="translate(-73.998 -328.948)" fill="#ffc97d"/>
        <path id="Trazado_727344" data-name="Trazado 727344" d="M296.863,660.8a.278.278,0,0,0-.3-.465c-.165.088-16.667,8.794-26.217,8.9a.278.278,0,1,0,.007.555c9.685-.11,26.3-8.879,26.472-8.968a.292.292,0,0,0,.039-.025" transform="translate(-86.898 -331.487)" fill="#2e2e47"/>
        <path id="Trazado_727345" data-name="Trazado 727345" d="M278.271,664.243a.277.277,0,0,0,.067-.364l-2.135-3.507a.278.278,0,0,0-.475.289l2.135,3.507a.278.278,0,0,0,.382.093l.025-.017" transform="translate(-71.103 -331.453)" fill="#2e2e47"/>
        <path id="Trazado_727346" data-name="Trazado 727346" d="M288.8,669.492a.278.278,0,0,0,.083-.336l-1.988-4.347a.278.278,0,1,0-.5.231l1.988,4.347a.277.277,0,0,0,.368.137.281.281,0,0,0,.054-.032" transform="translate(-86.953 -333.666)" fill="#2e2e47"/>
        <path id="Trazado_727347" data-name="Trazado 727347" d="M299.531,674.147a.278.278,0,0,0,.087-.326L297.3,668.2a.278.278,0,0,0-.513.212l2.314,5.623a.278.278,0,0,0,.362.151.269.269,0,0,0,.064-.037" transform="translate(-102.86 -335.363)" fill="#2e2e47"/>
        <path id="Trazado_727348" data-name="Trazado 727348" d="M555.829,665.566a9.549,9.549,0,0,1,8.21-3.5c5.16.568,15.627,1.239,15.252,5.661s-16.374,9.965-21.573,6.236-1.89-8.393-1.89-8.393" transform="translate(-511.013 -332.341)" fill="#ffc97d"/>
        <path id="Trazado_727349" data-name="Trazado 727349" d="M588.957,672.19a.278.278,0,0,0-.137-.536c-.185.031-18.594,3.069-27.687.15a.278.278,0,0,0-.17.529c9.222,2.96,27.763-.1,27.949-.131a.267.267,0,0,0,.045-.011" transform="translate(-523.832 -337.182)" fill="#2e2e47"/>
        <path id="Trazado_727350" data-name="Trazado 727350" d="M569.591,673a.278.278,0,0,0,.179-.324l-.916-4a.278.278,0,1,0-.541.124l.915,4a.278.278,0,0,0,.333.209l.03-.008" transform="translate(-508.218 -335.577)" fill="#2e2e47"/>
        <path id="Trazado_727351" data-name="Trazado 727351" d="M581.245,674.643a.278.278,0,0,0,.185-.292l-.511-4.753a.277.277,0,1,0-.552.059l.511,4.753a.278.278,0,0,0,.368.232" transform="translate(-525.878 -336.027)" fill="#2e2e47"/>
        <path id="Trazado_727352" data-name="Trazado 727352" d="M592.9,675.663a.278.278,0,0,0,.186-.281l-.416-6.066a.278.278,0,0,0-.554.038l.416,6.066a.277.277,0,0,0,.3.258.27.27,0,0,0,.072-.014" transform="translate(-543.378 -335.88)" fill="#2e2e47"/>
        <path id="Trazado_727353" data-name="Trazado 727353" d="M441.331,578.193c.12-.165,12.073-16.646,25.839-32.088,17.479-19.612,30.343-29.091,36.2-26.686,12.61,5.161,5.055,53.052,1.079,71.069l2.926.066a315,315,0,0,0,5.245-33.848c2.167-23.448-.405-36.839-7.645-39.8-4.256-1.744-10.484.536-18.506,6.774-6.075,4.723-13.31,11.779-21.5,20.971-13.882,15.577-25.927,32.183-26.046,32.349Z" transform="translate(-387.379 -259.211)" fill="#2e2e47"/>
        <path id="Trazado_727354" data-name="Trazado 727354" d="M478.164,519.526c7.343,3.006,8.4,18.087,7.357,33.71l-43.6-8.566c13.515-14.891,28.482-28.32,36.241-25.143" transform="translate(-361.368 -260.577)" fill="#12263f"/>
        <path id="Trazado_727355" data-name="Trazado 727355" d="M445.157,600.5l54.362,10.681,1.107-2.664-54.362-10.68Z" transform="translate(-377.741 -300.124)" fill="#12263f"/>
        <path id="Trazado_727356" data-name="Trazado 727356" d="M449.829,617.058l2.919.1,10.214-43.989-2.919-.1Z" transform="translate(-342.404 -287.692)" fill="#12263f"/>
        <path id="Trazado_727357" data-name="Trazado 727357" d="M508.6,603.075l26-40.887-2.521-1.028-26,40.887Z" transform="translate(-442.052 -281.714)" fill="#12263f"/>
        <path id="Trazado_727358" data-name="Trazado 727358" d="M478.785,609.482l2.774.545L499.225,567.5l-2.774-.545Z" transform="translate(-393.086 -284.624)" fill="#12263f"/>
        <path id="Trazado_727359" data-name="Trazado 727359" d="M462.461,613.179l2.82.428L481,570.7l-2.819-.428Z" transform="translate(-366.737 -286.289)" fill="#12263f"/>
        <path id="Trazado_727360" data-name="Trazado 727360" d="M496.471,606.579l20.3-42.007-2.7-.7-20.3,42.007Z" transform="translate(-418.095 -283.074)" fill="#12263f"/>
        <path id="Trazado_727361" data-name="Trazado 727361" d="M552.136,635.316s-5.439-5.684-12.386-3.057-15.624,8.925-18.981,8.424c0,0,4.435,4.832,21.3,5.542s14.76-7.913,10.066-10.909" transform="translate(-470.247 -317.059)" fill="#ffea8f"/>
        <path id="Trazado_727362" data-name="Trazado 727362" d="M512.782,639.992c-.165-.011-.3-.1-.307-.207s.131-.2.309-.2a77.008,77.008,0,0,0,15.7-1.569c7.559-1.686,15.927-8.654,16.011-8.725a.451.451,0,0,1,.449-.028c.145.071.179.2.076.286-.346.29-8.559,7.128-16.285,8.851a78.051,78.051,0,0,1-15.92,1.591h-.027" transform="translate(-455.712 -315.881)" fill="#2e2e47"/>
        <path id="Trazado_727363" data-name="Trazado 727363" d="M565.282,650.251a.449.449,0,0,1-.212-.067c-.126-.084-.128-.212,0-.286l3.3-1.965-2.994-1.76c-.134-.079-.149-.208-.032-.287a.462.462,0,0,1,.454,0l3.512,2.065-3.777,2.251a.427.427,0,0,1-.244.05" transform="translate(-506.084 -324.217)" fill="#2e2e47"/>
        <path id="Trazado_727364" data-name="Trazado 727364" d="M550.45,649.256a.465.465,0,0,1-.168-.043c-.146-.07-.183-.2-.082-.285l3.4-2.953-5.764-1.681c-.165-.048-.246-.169-.181-.27a.392.392,0,0,1,.418-.1l6.516,1.9-3.86,3.352a.4.4,0,0,1-.279.075" transform="translate(-482.736 -323.255)" fill="#2e2e47"/>
        <path id="Trazado_727365" data-name="Trazado 727365" d="M537.8,646.5l-.038,0c-.176-.026-.294-.135-.265-.244l1.715-6.483-4.878-3.5a.155.155,0,0,1,.016-.285.47.47,0,0,1,.455.029l5.094,3.651-1.768,6.677c-.026.1-.17.167-.331.155" transform="translate(-461.375 -319.258)" fill="#2e2e47"/>
      </g>
    </g>
  </g>
</svg>
