<svg xmlns="http://www.w3.org/2000/svg" xmlns:xlink="http://www.w3.org/1999/xlink" width="393.3" height="387.084" viewBox="0 0 393.3 387.084">
  <defs>
    <clipPath id="clip-path">
      <rect id="Rect치ngulo_33841" data-name="Rect치ngulo 33841" width="353.874" height="295.116" fill="none"/>
    </clipPath>
    <clipPath id="clip-path-2">
      <rect id="Rect치ngulo_350121" data-name="Rect치ngulo 350121" width="294.4" height="360.03" fill="#e0eaf4"/>
    </clipPath>
  </defs>
  <g id="Grupo_1027376" data-name="Grupo 1027376" transform="translate(-1020 -5753.445)">
    <g id="Grupo_1026440" data-name="Grupo 1026440" transform="translate(1020 5753.445)">
      <path id="Trazado_113636" data-name="Trazado 113636" d="M291.508,294.772A145.754,145.754,0,1,1,145.754,149.018,145.754,145.754,0,0,1,291.508,294.772" transform="translate(0 -149.018)" fill="#0078bb"/>
      <path id="Trazado_113637" data-name="Trazado 113637" d="M1199.467,544.095A105.615,105.615,0,1,1,1093.853,438.48a105.615,105.615,0,0,1,105.615,105.615" transform="translate(-820.505 -358.201)" fill="#065958"/>
      <path id="Trazado_113638" data-name="Trazado 113638" d="M1232.906,598.359a84.79,84.79,0,1,1-84.79-84.79,84.79,84.79,0,0,1,84.79,84.79" transform="translate(-874.769 -412.465)" fill="#fff"/>
      <path id="Trazado_113665" data-name="Trazado 113665" d="M129.99,381.385a3.257,3.257,0,1,1-3.257-3.257,3.257,3.257,0,0,1,3.257,3.257" transform="translate(-89.231 -314.587)" fill="#fff"/>
      <path id="Trazado_113666" data-name="Trazado 113666" d="M181.665,381.385a3.257,3.257,0,1,1-3.257-3.257,3.257,3.257,0,0,1,3.257,3.257" transform="translate(-126.575 -314.587)" fill="#fff"/>
      <path id="Trazado_113667" data-name="Trazado 113667" d="M233.34,381.385a3.257,3.257,0,1,1-3.257-3.257,3.257,3.257,0,0,1,3.257,3.257" transform="translate(-163.918 -314.587)" fill="#fff"/>
      <path id="Trazado_113668" data-name="Trazado 113668" d="M285.016,381.385a3.257,3.257,0,1,1-3.257-3.257,3.257,3.257,0,0,1,3.257,3.257" transform="translate(-201.262 -314.587)" fill="#fff"/>
      <path id="Trazado_113669" data-name="Trazado 113669" d="M336.69,381.385a3.257,3.257,0,1,1-3.257-3.257,3.257,3.257,0,0,1,3.257,3.257" transform="translate(-238.605 -314.587)" fill="#fff"/>
      <path id="Trazado_113670" data-name="Trazado 113670" d="M129.99,430.711a3.257,3.257,0,1,1-3.257-3.257,3.257,3.257,0,0,1,3.257,3.257" transform="translate(-89.231 -350.233)" fill="#fff"/>
      <path id="Trazado_113671" data-name="Trazado 113671" d="M181.665,430.711a3.257,3.257,0,1,1-3.257-3.257,3.257,3.257,0,0,1,3.257,3.257" transform="translate(-126.575 -350.233)" fill="#fff"/>
      <path id="Trazado_113672" data-name="Trazado 113672" d="M233.34,430.711a3.257,3.257,0,1,1-3.257-3.257,3.257,3.257,0,0,1,3.257,3.257" transform="translate(-163.918 -350.233)" fill="#fff"/>
      <path id="Trazado_113673" data-name="Trazado 113673" d="M285.016,430.711a3.257,3.257,0,1,1-3.257-3.257,3.257,3.257,0,0,1,3.257,3.257" transform="translate(-201.262 -350.233)" fill="#fff"/>
      <path id="Trazado_113674" data-name="Trazado 113674" d="M336.69,430.711a3.257,3.257,0,1,1-3.257-3.257,3.257,3.257,0,0,1,3.257,3.257" transform="translate(-238.605 -350.233)" fill="#fff"/>
      <path id="Trazado_113675" data-name="Trazado 113675" d="M129.99,480.038a3.257,3.257,0,1,1-3.257-3.257,3.257,3.257,0,0,1,3.257,3.257" transform="translate(-89.231 -385.88)" fill="#fff"/>
      <path id="Trazado_113676" data-name="Trazado 113676" d="M181.665,480.038a3.257,3.257,0,1,1-3.257-3.257,3.257,3.257,0,0,1,3.257,3.257" transform="translate(-126.575 -385.88)" fill="#fff"/>
      <path id="Trazado_113677" data-name="Trazado 113677" d="M233.34,480.038a3.257,3.257,0,1,1-3.257-3.257,3.257,3.257,0,0,1,3.257,3.257" transform="translate(-163.918 -385.88)" fill="#fff"/>
      <path id="Trazado_113678" data-name="Trazado 113678" d="M285.016,480.038a3.257,3.257,0,1,1-3.257-3.257,3.257,3.257,0,0,1,3.257,3.257" transform="translate(-201.262 -385.88)" fill="#fff"/>
      <path id="Trazado_113679" data-name="Trazado 113679" d="M336.69,480.038a3.257,3.257,0,1,1-3.257-3.257,3.257,3.257,0,0,1,3.257,3.257" transform="translate(-238.605 -385.88)" fill="#fff"/>
      <path id="Trazado_113680" data-name="Trazado 113680" d="M129.99,529.364a3.257,3.257,0,1,1-3.257-3.257,3.257,3.257,0,0,1,3.257,3.257" transform="translate(-89.231 -421.526)" fill="#fff"/>
      <path id="Trazado_113681" data-name="Trazado 113681" d="M181.665,529.364a3.257,3.257,0,1,1-3.257-3.257,3.257,3.257,0,0,1,3.257,3.257" transform="translate(-126.575 -421.526)" fill="#fff"/>
      <path id="Trazado_113682" data-name="Trazado 113682" d="M233.34,529.364a3.257,3.257,0,1,1-3.257-3.257,3.257,3.257,0,0,1,3.257,3.257" transform="translate(-163.918 -421.526)" fill="#fff"/>
      <path id="Trazado_113683" data-name="Trazado 113683" d="M285.016,529.364a3.257,3.257,0,1,1-3.257-3.257,3.257,3.257,0,0,1,3.257,3.257" transform="translate(-201.262 -421.526)" fill="#fff"/>
      <path id="Trazado_113684" data-name="Trazado 113684" d="M336.69,529.364a3.257,3.257,0,1,1-3.257-3.257,3.257,3.257,0,0,1,3.257,3.257" transform="translate(-238.605 -421.526)" fill="#fff"/>
      <path id="Trazado_113685" data-name="Trazado 113685" d="M129.99,578.69a3.257,3.257,0,1,1-3.257-3.257,3.257,3.257,0,0,1,3.257,3.257" transform="translate(-89.231 -457.172)" fill="#fff"/>
      <path id="Trazado_113686" data-name="Trazado 113686" d="M181.665,578.69a3.257,3.257,0,1,1-3.257-3.257,3.257,3.257,0,0,1,3.257,3.257" transform="translate(-126.575 -457.172)" fill="#fff"/>
      <path id="Trazado_113687" data-name="Trazado 113687" d="M233.34,578.69a3.257,3.257,0,1,1-3.257-3.257,3.257,3.257,0,0,1,3.257,3.257" transform="translate(-163.918 -457.172)" fill="#fff"/>
      <path id="Trazado_113688" data-name="Trazado 113688" d="M285.016,578.69a3.257,3.257,0,1,1-3.257-3.257,3.257,3.257,0,0,1,3.257,3.257" transform="translate(-201.262 -457.172)" fill="#fff"/>
      <path id="Trazado_113689" data-name="Trazado 113689" d="M336.69,578.69a3.257,3.257,0,1,1-3.257-3.257,3.257,3.257,0,0,1,3.257,3.257" transform="translate(-238.605 -457.172)" fill="#fff"/>
      <g id="Grupo_1002336" data-name="Grupo 1002336" transform="translate(39.426 9.84)" opacity="0.251">
        <g id="Grupo_80323" data-name="Grupo 80323" clip-path="url(#clip-path)">
          <path id="Trazado_113615" data-name="Trazado 113615" d="M226.121,290.472c-3.342-.259-6.753-.407-10.246-.38-18.481.14-36.557,5.21-55.153,5.014-39.4-.415-79.95-4.578-114-30.306C-28.722,207.8-3.993,85.7,58.547,35.57,91.779,8.934,133.171.789,172.828.036c51.05-.97,116.53,15.493,153.107,59.309C351.418,89.872,357.754,161,351.8,201.3c-4.742,32.079-22.538,62.33-45.019,79.938-28.036,21.96-51.807,11.469-80.657,9.237" transform="translate(0 0.004)" fill="#e0f4fe"/>
        </g>
      </g>
    </g>
    <g id="Grupo_1026438" data-name="Grupo 1026438" transform="translate(1078.6 5780.499)">
      <g id="Grupo_1026437" data-name="Grupo 1026437" clip-path="url(#clip-path-2)">
        <path id="Trazado_727001" data-name="Trazado 727001" d="M0,428.828c0,5.743,56.725,10.4,126.7,10.4s126.7-4.656,126.7-10.4-56.724-10.4-126.7-10.4S0,423.085,0,428.828" transform="translate(41.004 -81.278)" fill="#9fd2d6"/>
        <path id="Trazado_727002" data-name="Trazado 727002" d="M180.357,424.22a15.109,15.109,0,0,1-6-2.363c.093-.566-.766-2.468.389-3.945,1.264-1.617,3.161-.539,6.876-.9s4.406-2.784,7.892-5.42,1.5-10.324,3.109-10.89,5.808,1.263,10.406,1.5,5.777-.193,5.777-.193c2.167,2.369-.008,4.449-.15,7.013s.63,2.931,1.562,6.365a12.625,12.625,0,0,1,.432,5.615,63.3,63.3,0,0,1-10.211,2.545c-5.849.962-16.043,1.243-20.087.67" transform="translate(-56.703 -77.813)" fill="#12263f"/>
        <path id="Trazado_727003" data-name="Trazado 727003" d="M173.311,426.9a.224.224,0,0,0,.054-.124,15.112,15.112,0,0,0,5.995,2.363c4.045.574,14.238.292,20.088-.67a63.251,63.251,0,0,0,10.21-2.545,1.316,1.316,0,0,1,.636.963c.149.743,1.077,3.9.491,4.511s-7.722,1.045-9.173,1.172-1.186-1.614-1.713-2.108-4.083.175-5.591.422-.6.492-.735,1.127-.965.346-3.848.483-13.063-1.375-14.524-1.563a2.708,2.708,0,0,1-2.493-2.279,1.618,1.618,0,0,1,.6-1.753" transform="translate(-55.707 -82.734)" fill="#cc8b70"/>
        <path id="Trazado_727004" data-name="Trazado 727004" d="M75.766,422.271a15.109,15.109,0,0,1-6-2.363c.093-.566-.766-2.468.389-3.945,1.264-1.617,3.161-.539,6.876-.9s4.406-2.784,7.892-5.42,1.5-10.324,3.109-10.89,5.808,1.263,10.406,1.5,5.777-.193,5.777-.193c2.167,2.369-.008,4.449-.15,7.012s.631,2.931,1.562,6.365a12.626,12.626,0,0,1,.432,5.615A63.3,63.3,0,0,1,95.853,421.6c-5.849.963-16.043,1.243-20.087.67" transform="translate(132.163 -77.435)" fill="#12263f"/>
        <path id="Trazado_727005" data-name="Trazado 727005" d="M68.721,424.952a.221.221,0,0,0,.054-.124,15.111,15.111,0,0,0,5.995,2.363c4.045.574,14.238.293,20.088-.67a63.251,63.251,0,0,0,10.21-2.545,1.315,1.315,0,0,1,.636.963c.149.743,1.077,3.9.491,4.511s-7.722,1.045-9.173,1.172-1.186-1.614-1.713-2.108-4.083.175-5.591.422-.6.492-.735,1.127-.965.346-3.848.483-13.063-1.375-14.524-1.563a2.707,2.707,0,0,1-2.492-2.279,1.616,1.616,0,0,1,.6-1.753" transform="translate(133.158 -82.355)" fill="#cc8b70"/>
        <path id="Trazado_727006" data-name="Trazado 727006" d="M216.143,64.351c-12.756,1.575-12.255,58.33-15.542,67.6s-18.084,51.108-17.86,55.89,8.294,10.679,15.169,6.494,22.458-33.113,24.509-63.883c2.093-31.387,5.827-67.592-6.277-66.1" transform="translate(-77.492 -12.491)" fill="#ffa031"/>
        <path id="Trazado_727007" data-name="Trazado 727007" d="M197.514,137.243a130.7,130.7,0,0,1-10.528,42.1c-.438-6.493-1.056-16.289-1.652-21.211-1.558-12.865,2.029-58.852,2.029-58.852,3.009,1.867,7.086,16.321,10.605,31.354-.156,2.217-.309,4.424-.454,6.609" transform="translate(-52.586 -19.285)" fill="#12263f"/>
        <path id="Trazado_727008" data-name="Trazado 727008" d="M219.61,221.194l1.669-5.955a7.674,7.674,0,0,1,.446-1.323c.911-2.055,3.827-7.838,7.6-7.4,4.586.536,2.725,8.308,2.061,10.832s-2.451,5.449-4.58,5.415-7.2-1.572-7.2-1.572" transform="translate(-114.879 -40.111)" fill="#ffa982"/>
        <path id="Trazado_727009" data-name="Trazado 727009" d="M102.13,47.87s38,18.338,58.541,109.412c4.092,18.139,13.808,178.632,13.808,178.632s-2.391,1.861-7.44,1.861c-7.705,0-16.872-2.79-16.872-2.79L119.316,185.629,87.8,335.915a46.6,46.6,0,0,1-13.219,1.86c-6.244,0-8.538-1.861-8.538-1.861S82.766,197.845,79.173,151.849c-1.765-22.593-17.849-77.332-10.1-90.115S92.7,41.16,102.13,47.87" transform="translate(66.709 -8.82)" fill="#ffa031"/>
        <path id="Trazado_727010" data-name="Trazado 727010" d="M156.719,214.923l.031,0a.2.2,0,0,0,.167-.227c-.112-.72-2.775-17.657-5.628-18.981-2.4-1.115-12.7-.3-15.968,1.265-.621.3-.964.607-1.049.948a.551.551,0,0,0,.126.517c.864.973,6.245.39,11.683-.29,1.445-.18,2.694-.338,2.9-.305a.2.2,0,0,0,.06-.394,23.822,23.822,0,0,0-3.01.3c-3.421.428-10.54,1.318-11.336.421a.154.154,0,0,1-.037-.156c.03-.121.179-.371.834-.684,3.209-1.536,13.286-2.35,15.628-1.263,2.209,1.025,4.649,13.832,5.4,18.681a.2.2,0,0,0,.2.168" transform="translate(29.306 -37.916)" fill="#2e2e47"/>
        <path id="Trazado_727011" data-name="Trazado 727011" d="M107.2,54.672c0-.664,5.846-9.7.93-8.1s-8.556,4.454-9.061,6.079S100.693,55.2,101.158,56c.21.362.077,21.93,2.59,44.9,3.022,27.617,8.672,57.606,7.44,59.782-.583,1.029-12.612,3.022-18.947,3.575-.05-4.63-.206-8.805-.488-12.413-1.765-22.594-12.948-77.333-5.2-90.116S110.18,41.159,119.61,47.869c0,0,29.069,14.032,50.1,78.491,2.367,7.25,5.789,13.392,7.9,21.971-9.6,4.9-38.946,15.61-44.5,15.931-1.943.112-2.58-12.178-6.024-24.11-8.8-30.485-19.882-85-19.882-85.479" transform="translate(49.229 -8.82)" fill="#fff"/>
        <path id="Trazado_727012" data-name="Trazado 727012" d="M131.671,55.63s16.59,13.036,20.307,26.709c2.48,9.124-2.81,16.739-8.655,15.543s-15.809-20.592-17.4-27.234-.586-17.947,5.751-15.018" transform="translate(40.874 -10.714)" fill="#ffa031"/>
        <path id="Trazado_727013" data-name="Trazado 727013" d="M169.428,167.05c-.337-2.935-.753-6.167-1.216-9.6a123.272,123.272,0,0,0,18.347-1.1c.5,3.388.964,6.573,1.379,9.476a133.532,133.532,0,0,1-17.74,1.225l-.77,0" transform="translate(-29.076 -30.371)" fill="#e0eaf4"/>
        <path id="Trazado_727014" data-name="Trazado 727014" d="M138.83,140.834a186.089,186.089,0,0,1-41.683,16.731c-.836-2.872-1.692-5.967-2.56-9.218a178.7,178.7,0,0,0,40.994-16.668q1.649,4.392,3.248,9.155" transform="translate(79.355 -25.578)" fill="#e0eaf4"/>
        <path id="Trazado_727015" data-name="Trazado 727015" d="M163.665,86.254s9.7,13.683,6.492,45.036c-1.653,16.159-12.072,46.63-18.98,54.2s-18.654,10.613-18.654,10.613Z" transform="translate(16.812 -16.754)" fill="#12263f"/>
        <path id="Trazado_727016" data-name="Trazado 727016" d="M167.493,54.461c-12.756,1.575-6.858,57.815-10.145,67.081s-19.483,52.418-19.259,57.2,11.67,12.953,18.544,8.768,22.759-36.02,24.81-66.79c2.093-31.387-1.845-67.755-13.949-66.261" transform="translate(1.16 -10.57)" fill="#ffa031"/>
        <path id="Trazado_727017" data-name="Trazado 727017" d="M217.228,366.192a2.292,2.292,0,0,0,2.23-1.771l42.442-181.7a2.292,2.292,0,1,0-4.463-1.042L215,363.379a2.294,2.294,0,0,0,2.233,2.814" transform="translate(-140.746 -34.945)" fill="#e0eaf4"/>
        <path id="Trazado_727018" data-name="Trazado 727018" d="M183.159,210.679s-2.263,9.111-1.717,12.3,1.184,4.96,5.61,4.2,3.395-7.117,2.8-8.272-4.779-10.043-6.7-8.232" transform="translate(-42.129 -40.876)" fill="#ffa982"/>
        <path id="Trazado_727019" data-name="Trazado 727019" d="M175.911,349.439a2.292,2.292,0,0,0,2.082-1.331l61.385-132.842a2.291,2.291,0,1,0-4.16-1.923L173.832,346.185a2.293,2.293,0,0,0,2.079,3.254" transform="translate(-85.084 -41.182)" fill="#e0eaf4"/>
        <path id="Trazado_727020" data-name="Trazado 727020" d="M279.06,419.1V405.947h49.818V419.1h-2.259l-39.456,7.971H237.345Z" transform="translate(-225.72 -78.853)" fill="#ffea8f"/>
        <path id="Trazado_727021" data-name="Trazado 727021" d="M279.06,405.948V419.1l-41.715,7.971s3.188-9.432,9.831-14.214,31.884-6.909,31.884-6.909" transform="translate(-175.901 -78.853)" fill="#ffc97d"/>
        <path id="Trazado_727022" data-name="Trazado 727022" d="M340.888,405.948V419.1l-41.715,7.971s3.188-9.432,9.831-14.214,31.884-6.909,31.884-6.909" transform="translate(-287.548 -78.853)" fill="#ffc97d"/>
        <path id="Trazado_727023" data-name="Trazado 727023" d="M186.764,10.708s4.575,6.389,3.37,10.252S187.341,25.047,185,25s-8.58-10.381-5.374-12.14,5.967-2.478,7.136-2.149" transform="translate(-39.948 -2.065)" fill="#2e2e47"/>
        <path id="Trazado_727024" data-name="Trazado 727024" d="M174.425,26.976S181.9,39.12,185.062,42c1.849,1.683-5.02,5.325-8.575,6.93s-5.354-7.056-5.658-8.89-2.128-6.78-2.176-7.6,4.349-6.026,5.772-5.457" transform="translate(-26.864 -5.231)" fill="#feb3b1"/>
        <path id="Trazado_727025" data-name="Trazado 727025" d="M179.919,20.885s1.454,3.138,2.482,6.174c.638,1.882.939,3.6,1.817,6.426s3.564,6.456,8.954,5.419,9.871-5.437,10.173-8.66a17.517,17.517,0,0,0-1.309-7.05s1.572.709,1.835-1.642.072-5.839-1.9-5.59-1.635,1.876-2.117,1.864-1.83-2.85-3.352-4.955c-1.483-2.051-14.207-1.081-16.582,8.016" transform="translate(-54.533 -2.325)" fill="#feb3b1"/>
        <path id="Trazado_727026" data-name="Trazado 727026" d="M180.047,35.161a.127.127,0,0,0-.218.1,10.605,10.605,0,0,0,1.213,4.216c1.145,1.86,2.329,3.476,4.038,4.184s5.5.479,8.153-.853a14.794,14.794,0,0,0,6.058-6.239c.782-1.886.867-5.71-.01-6.979s-2.273-4.112-2.678-4.87-1.182.015-1.207.375-.772,8.094-3.038,8.433c-2.433.363-4.6-1.081-7.137.267-3.416,1.815-2.536,4.444-5.172,1.367" transform="translate(-50.403 -4.739)" fill="#2e2e47"/>
        <path id="Trazado_727027" data-name="Trazado 727027" d="M194.358,23.04a.2.2,0,0,0,.1-.025,14,14,0,0,1,3.18-1.038.2.2,0,1,0-.077-.391,14.081,14.081,0,0,0-3.3,1.08.2.2,0,0,0,.1.374" transform="translate(-59.839 -4.192)" fill="#2e2e47"/>
        <path id="Trazado_727028" data-name="Trazado 727028" d="M193.692,39.658a9.2,9.2,0,0,0,4.634-2.423,6.068,6.068,0,0,1-1.1,2.479,4.906,4.906,0,0,1-.552.628,1.728,1.728,0,0,1-2.419.054c-.228-.3-.447-.592-.564-.739" transform="translate(-59.994 -7.233)" fill="#fff"/>
        <path id="Trazado_727029" data-name="Trazado 727029" d="M194.284,29.132c.264.681-.568,1.639-1.859,2.141s-2.553.357-2.817-.324.568-1.639,1.859-2.14,2.553-.357,2.817.323" transform="translate(-52.671 -5.538)" fill="#f2836d"/>
        <path id="Trazado_727030" data-name="Trazado 727030" d="M205.853,33.838a1.774,1.774,0,0,1-3.2,1.242,1.774,1.774,0,0,1,3.2-1.242" transform="translate(-74.758 -6.425)" fill="#f2836d"/>
        <path id="Trazado_727031" data-name="Trazado 727031" d="M184.078,16.722s2.638,4.745,3.632,4.79,1.471-.464,1.656-1.569-1.291-5.708-2-5.714-3.288,2.493-3.288,2.493" transform="translate(-43.303 -2.764)" fill="#2e2e47"/>
        <path id="Trazado_727032" data-name="Trazado 727032" d="M198.646,29.78a7.746,7.746,0,0,0-1.069,2.812c.057.912.083,1.5.755,1.929a1.967,1.967,0,0,0,2.551-.97c.7-1.117-2.237-3.771-2.237-3.771" transform="translate(-65.789 -5.785)" fill="#ffa982"/>
        <path id="Trazado_727033" data-name="Trazado 727033" d="M202.387,33.976c.6,0,1.439-.354,2.471-1.727a.2.2,0,1,0-.318-.239c-.964,1.282-1.919,1.814-2.617,1.458a1.8,1.8,0,0,1-.672-2.065c.992-3.252-.091-5.691-.709-6.161-1.236-.936-3.434,1.363-3.527,1.462a.2.2,0,0,0,.29.274c.566-.6,2.205-2.018,3-1.418.535.406,1.491,2.706.57,5.727a2.18,2.18,0,0,0,.872,2.537,1.409,1.409,0,0,0,.645.153" transform="translate(-69.201 -4.86)" fill="#2e2e47"/>
        <path id="Trazado_727034" data-name="Trazado 727034" d="M193.319,25.971a.211.211,0,0,0,.085-.019c.013-.006,1.347-.629,3.37-1.329a.2.2,0,1,0-.131-.376c-2.044.707-3.4,1.338-3.409,1.345a.2.2,0,0,0,.085.38" transform="translate(-58.115 -4.707)" fill="#2e2e47"/>
        <path id="Trazado_727035" data-name="Trazado 727035" d="M194.949,25.348a.908.908,0,0,0-.831.8,1.839,1.839,0,0,0,1.1,1.65c.591.223,1.2-.454,1.188-.936a2.574,2.574,0,0,0-.641-1.544,1.474,1.474,0,0,0-.817.025" transform="translate(-58.414 -4.909)" fill="#2e2e47"/>
        <path id="Trazado_727036" data-name="Trazado 727036" d="M203.017,29.284a.211.211,0,0,0,.067-.01,23.517,23.517,0,0,1,2.542-.727.2.2,0,0,0-.085-.39,23.813,23.813,0,0,0-2.591.741.2.2,0,0,0,.067.386" transform="translate(-74.803 -5.468)" fill="#2e2e47"/>
        <path id="Trazado_727037" data-name="Trazado 727037" d="M204.733,28.812c-.236-.139-.964-.1-1.059.438a2,2,0,0,0,.677,1.648c.409.3.889-.2.915-.633a1.919,1.919,0,0,0-.533-1.454" transform="translate(-74.967 -5.583)" fill="#2e2e47"/>
        <path id="Trazado_727038" data-name="Trazado 727038" d="M195.649,21.974s-9.372,7.835-8.2,8.615,7.437-.991,10.81-3.014,15.811-9.076,16.073-9.623c.156-.326-7.75,2.727-13.164,3.986-3.662.852-5.518.036-5.518.036" transform="translate(-70.889 -3.482)" fill="#12263f"/>
        <path id="Trazado_727039" data-name="Trazado 727039" d="M170.8,209.327l.379,12.791a11.4,11.4,0,0,0,4.193,8.6c1.271,1.017,2.594,1.574,3.577.75,2.622-2.195,2.634-3.457,2.634-3.457s2.067-1.481,2.443-1.865a10.807,10.807,0,0,0,.975-2.416,13.927,13.927,0,0,1,1.522-2.12c.274-.1-.244-2.4-1.048-3.093-.182-.156-.516-.438-.923-.782a12.255,12.255,0,0,1-4.1-6.749c-.3-1.377-.8-2.721-1.612-3.186-1.889-1.077-8.209.373-8.042,1.53" transform="translate(-29.814 -40.29)" fill="#feb3b1"/>
        <path id="Trazado_727040" data-name="Trazado 727040" d="M264.13,384.417s2.94-14.574-4.66-18.6-19.619,9.518-19.619,9.518Z" transform="translate(-163.549 -70.913)" fill="#12263f"/>
        <path id="Trazado_727041" data-name="Trazado 727041" d="M294.592,386.891l-12.1,46.527-9.269-3.765.548-3.906-2.288,3.2-7.469-3.033.7-2.074-1.595,1.712-4.278-1.737-.194-2.161-1.945,1.292-16.161-6.563s22.082-30.8,29.769-38.571Z" transform="translate(-194.012 -73.388)" fill="#ffdeb7"/>
        <path id="Trazado_727042" data-name="Trazado 727042" d="M231.026,213.785s1.395,8.4,2.325,11.007,1.661,3.407.731,5.067-1.528,1.528-1.661,2.723a7.589,7.589,0,0,1-.8,3.254c-.6,1-.8,3.388-2.458,2.922s-4.118-7.971-4.384-11.757,6.244-13.218,6.244-13.218" transform="translate(-121.225 -41.527)" fill="#feb3b1"/>
        <path id="Trazado_727043" data-name="Trazado 727043" d="M224.629,214.629s-1.063,4.849-2.59,6.909a14.682,14.682,0,0,0-2.325,7.572c-.133,2.458,2.989-1,3.918-2.458s3.873-8.789,2.934-10.937-1.732-1.932-1.937-1.085" transform="translate(-109.381 -41.573)" fill="#feb3b1"/>
        <path id="Trazado_727044" data-name="Trazado 727044" d="M97.72,370.766l-27.308,2.943L68.08,362.418c9.542-.338,24.6-1.621,28.976-2.006.236,3.648.458,7.114.664,10.354" transform="translate(141.825 -70.008)" fill="#e0eaf4"/>
        <path id="Trazado_727045" data-name="Trazado 727045" d="M66.948,380.051c7.907-.229,20.435-1.224,26.971-1.776.247,3.908.467,7.411.655,10.421L69.3,391.42Z" transform="translate(145.883 -73.478)" fill="#e0eaf4"/>
        <path id="Trazado_727046" data-name="Trazado 727046" d="M190.179,359.857l-2.143,10.222L164.2,366.342c.387-3.565.793-7.371,1.211-11.372,7.726,1.757,18.8,3.81,24.766,4.887" transform="translate(-28.084 -68.951)" fill="#e0eaf4"/>
        <path id="Trazado_727047" data-name="Trazado 727047" d="M169.149,372.7c6.6,1.568,16.568,3.469,23.335,4.712l-2.159,10.3-22.452-3.52c.382-3.383.812-7.241,1.276-11.49" transform="translate(-33.349 -72.394)" fill="#e0eaf4"/>
        <path id="Trazado_727048" data-name="Trazado 727048" d="M327.932,431.951s1.557-5.428,6.465-4.837c5.861.705,15.914,5.085,19.642,3.749,0,0-3.6,6.152-17.685,8.507-9.156,1.531-10.021-4.626-8.422-7.419" transform="translate(-323.351 -82.956)" fill="#ffa031"/>
        <path id="Trazado_727049" data-name="Trazado 727049" d="M348.257,434.688a61.011,61.011,0,0,0,11.186-1.252.242.242,0,1,0-.1-.472,56.447,56.447,0,0,1-12.869,1.19c-4.74-.282-10.208-4.07-10.263-4.108a.242.242,0,1,0-.277.4c.228.16,5.636,3.9,10.512,4.194.595.035,1.2.052,1.815.052" transform="translate(-335.827 -83.526)" fill="#2e2e47"/>
        <path id="Trazado_727050" data-name="Trazado 727050" d="M341.8,436.079a.242.242,0,0,0,.089-.467l-3.376-1.338,2.062-2.22a.242.242,0,1,0-.354-.33l-2.545,2.739,4.034,1.6a.252.252,0,0,0,.089.017" transform="translate(-319.724 -83.845)" fill="#2e2e47"/>
        <path id="Trazado_727051" data-name="Trazado 727051" d="M349.454,437.287a.242.242,0,0,0,.135-.443l-3.023-2.024,3.613-2.412a.242.242,0,1,0-.269-.4l-4.215,2.814,3.625,2.426a.24.24,0,0,0,.135.041" transform="translate(-334.431 -83.907)" fill="#2e2e47"/>
        <path id="Trazado_727052" data-name="Trazado 727052" d="M355.983,438.771a.248.248,0,0,0,.11-.027.242.242,0,0,0,.1-.326l-2.482-4.831,1.989-3.612a.242.242,0,1,0-.424-.233l-2.114,3.838,2.6,5.059a.242.242,0,0,0,.215.131" transform="translate(-346.392 -83.451)" fill="#2e2e47"/>
        <path id="Trazado_727053" data-name="Trazado 727053" d="M291.925,424.009s-.073-7.692,6.207-7.564,16.069,3.328,17.963,1.607c0,0,.187,6.47-10.492,13.293s-14.846-2.621-13.678-7.336" transform="translate(-256.761 -80.892)" fill="#ffa031"/>
        <path id="Trazado_727054" data-name="Trazado 727054" d="M324.746,421.886a.242.242,0,0,0-.262-.406,38.428,38.428,0,0,1-11.374,4.1c-6.078,1.04-16.1-2.944-16.195-2.985a.244.244,0,0,0-.315.135.241.241,0,0,0,.135.314c.415.168,10.245,4.076,16.457,3.013A38.969,38.969,0,0,0,324.73,421.9l.017-.011" transform="translate(-269.422 -81.864)" fill="#2e2e47"/>
        <path id="Trazado_727055" data-name="Trazado 727055" d="M300.926,424.293a.238.238,0,0,0,.1-.144.242.242,0,0,0-.182-.289l-3.443-.785.842-2.856a.242.242,0,1,0-.463-.137l-.988,3.351,3.944.9a.241.241,0,0,0,.193-.038" transform="translate(-245.767 -81.565)" fill="#2e2e47"/>
        <path id="Trazado_727056" data-name="Trazado 727056" d="M308.736,427.611a.241.241,0,0,0-.046-.421l-4.149-1.741,2.723-3.779a.242.242,0,0,0-.392-.283l-3.078,4.273,4.71,1.976a.241.241,0,0,0,.233-.025" transform="translate(-259.222 -81.833)" fill="#2e2e47"/>
        <path id="Trazado_727057" data-name="Trazado 727057" d="M315.721,431.754l.023-.018a.241.241,0,0,0,.019-.342l-5.312-5.905.968-5.287a.242.242,0,0,0-.476-.087l-1.01,5.52,5.47,6.082a.243.243,0,0,0,.319.036" transform="translate(-271.153 -81.567)" fill="#2e2e47"/>
        <path id="Trazado_727058" data-name="Trazado 727058" d="M319.992,414.311a8.316,8.316,0,0,1,5.577-5.415c4.372-1.151,13.089-3.878,14.166-.167s-10.192,13.218-15.583,11.812-4.16-6.231-4.16-6.231" transform="translate(-303.144 -79.028)" fill="#ffa031"/>
        <path id="Trazado_727059" data-name="Trazado 727059" d="M346.143,409.927a.242.242,0,0,0-.28-.393c-.14.084-14.153,8.307-22.456,8.778a.242.242,0,0,0,.027.483c8.421-.478,22.534-8.761,22.676-8.845a.19.19,0,0,0,.033-.023" transform="translate(-312.231 -79.543)" fill="#2e2e47"/>
        <path id="Trazado_727060" data-name="Trazado 727060" d="M328.423,413.1a.242.242,0,0,0,.044-.319l-2-2.968a.242.242,0,0,0-.4.271l2,2.966a.241.241,0,0,0,.335.066.151.151,0,0,0,.022-.016" transform="translate(-296.807 -79.583)" fill="#2e2e47"/>
        <path id="Trazado_727061" data-name="Trazado 727061" d="M333.921,416.458a.242.242,0,0,0,.059-.295l-1.9-3.7a.242.242,0,0,0-.43.222l1.9,3.7a.242.242,0,0,0,.326.1.273.273,0,0,0,.046-.031" transform="translate(-306.813 -80.093)" fill="#2e2e47"/>
        <path id="Trazado_727062" data-name="Trazado 727062" d="M339.7,419.642a.241.241,0,0,0,.063-.287l-2.234-4.8a.242.242,0,0,0-.439.2l2.235,4.8a.242.242,0,0,0,.322.118.269.269,0,0,0,.054-.035" transform="translate(-316.984 -80.498)" fill="#2e2e47"/>
        <path id="Trazado_727063" data-name="Trazado 727063" d="M295.088,439.158s3.886-.5,3.088,1.694-9.764,1.3-9.166,0,6.078-1.694,6.078-1.694" transform="translate(-236.733 -85.295)" fill="#2e2e47"/>
        <path id="Trazado_727064" data-name="Trazado 727064" d="M105.066,196h.02c.194-.02,19.416-2,24.841-2.936a.2.2,0,0,0-.068-.393c-5.411.94-24.619,2.913-24.812,2.933a.2.2,0,0,0,.02.4" transform="translate(79.811 -37.424)" fill="#2e2e47"/>
        <path id="Trazado_727065" data-name="Trazado 727065" d="M165.7,155.143a.2.2,0,0,0,.188-.133c.591-1.682,1.6-4.49,2.769-7.743,2.885-8.033,6.838-19.036,7.757-22.17,1.128-3.847,1.189-11.179,1.267-20.46q.018-2.079.039-4.3c.122-11.421,1.031-23.353,1.04-23.472a.2.2,0,0,0-.4-.031c-.009.12-.918,12.065-1.04,23.5q-.024,2.221-.039,4.3c-.077,9.251-.139,16.557-1.251,20.351-.916,3.123-4.865,14.118-7.75,22.147-1.168,3.254-2.178,6.063-2.769,7.747a.2.2,0,0,0,.122.254.211.211,0,0,0,.066.011" transform="translate(-17.716 -14.889)" fill="#2e2e47"/>
        <path id="Trazado_727066" data-name="Trazado 727066" d="M184.959,4.935a42.108,42.108,0,0,0-4.292,1.653A38.337,38.337,0,0,1,189.983.471c3.463-1.37,8.108.59,9.461,1.575,1.929,1.4,2.9,4.619,4.171,7.136l1.039,2.491s-3.96,2.246-5.206,2.728c-.147.057-.289.11-.434.166a32.5,32.5,0,0,0-4.4-6.908c-2.545-2.79-6.663-3.852-9.652-2.723" transform="translate(-55.828 0)" fill="#ffa031"/>
        <path id="Trazado_727067" data-name="Trazado 727067" d="M189.5,7.669a42.64,42.64,0,0,1,4.292-1.653c2.989-1.129,7.108-.066,9.652,2.723a32.509,32.509,0,0,1,4.4,6.909c-10.668,4.088-16.48,4.637-18.236,4.237,0,0-3.863-8.458-.71-11.639.192-.193.392-.386.6-.577" transform="translate(-64.664 -1.082)" fill="#ffd3b5"/>
      </g>
    </g>
  </g>
</svg>
