<svg xmlns="http://www.w3.org/2000/svg" xmlns:xlink="http://www.w3.org/1999/xlink" width="284.163" height="220.333" viewBox="0 0 284.163 220.333">
  <defs>
    <clipPath id="clip-path">
      <rect id="Rectángulo_33841" data-name="Rectángulo 33841" width="255.678" height="213.224" fill="none"/>
    </clipPath>
  </defs>
  <g id="Grupo_1029963" data-name="Grupo 1029963" transform="translate(-189.437 -4789)">
    <g id="Grupo_1026449" data-name="Grupo 1026449" transform="translate(189.437 4789)">
      <path id="Trazado_113636" data-name="Trazado 113636" d="M210.618,105.309A105.309,105.309,0,1,1,105.309,0,105.309,105.309,0,0,1,210.618,105.309" transform="translate(0 0)" fill="#0078bb"/>
      <path id="Trazado_113637" data-name="Trazado 113637" d="M152.616,76.308A76.308,76.308,0,1,1,76.308,0a76.308,76.308,0,0,1,76.308,76.308" transform="translate(121.189 58.002)" fill="#065958"/>
      <path id="Trazado_113638" data-name="Trazado 113638" d="M122.523,61.261A61.261,61.261,0,1,1,61.261,0a61.261,61.261,0,0,1,61.261,61.261" transform="translate(136.235 73.049)" fill="#fff"/>
      <path id="Trazado_113665" data-name="Trazado 113665" d="M4.707,2.353A2.353,2.353,0,1,1,2.353,0,2.353,2.353,0,0,1,4.707,2.353" transform="translate(24.742 45.909)" fill="#fff"/>
      <path id="Trazado_113666" data-name="Trazado 113666" d="M4.707,2.353A2.353,2.353,0,1,1,2.353,0,2.353,2.353,0,0,1,4.707,2.353" transform="translate(35.097 45.909)" fill="#fff"/>
      <path id="Trazado_113667" data-name="Trazado 113667" d="M4.707,2.353A2.353,2.353,0,1,1,2.353,0,2.353,2.353,0,0,1,4.707,2.353" transform="translate(45.451 45.909)" fill="#fff"/>
      <path id="Trazado_113668" data-name="Trazado 113668" d="M4.707,2.353A2.353,2.353,0,1,1,2.353,0,2.353,2.353,0,0,1,4.707,2.353" transform="translate(55.806 45.909)" fill="#fff"/>
      <path id="Trazado_113669" data-name="Trazado 113669" d="M4.707,2.353A2.353,2.353,0,1,1,2.353,0,2.353,2.353,0,0,1,4.707,2.353" transform="translate(66.161 45.909)" fill="#fff"/>
      <path id="Trazado_113670" data-name="Trazado 113670" d="M4.707,2.353A2.353,2.353,0,1,1,2.353,0,2.353,2.353,0,0,1,4.707,2.353" transform="translate(24.742 55.793)" fill="#fff"/>
      <path id="Trazado_113671" data-name="Trazado 113671" d="M4.707,2.353A2.353,2.353,0,1,1,2.353,0,2.353,2.353,0,0,1,4.707,2.353" transform="translate(35.097 55.793)" fill="#fff"/>
      <path id="Trazado_113672" data-name="Trazado 113672" d="M4.707,2.353A2.353,2.353,0,1,1,2.353,0,2.353,2.353,0,0,1,4.707,2.353" transform="translate(45.451 55.793)" fill="#fff"/>
      <path id="Trazado_113673" data-name="Trazado 113673" d="M4.707,2.353A2.353,2.353,0,1,1,2.353,0,2.353,2.353,0,0,1,4.707,2.353" transform="translate(55.806 55.793)" fill="#fff"/>
      <path id="Trazado_113674" data-name="Trazado 113674" d="M4.707,2.353A2.353,2.353,0,1,1,2.353,0,2.353,2.353,0,0,1,4.707,2.353" transform="translate(66.161 55.793)" fill="#fff"/>
      <path id="Trazado_113675" data-name="Trazado 113675" d="M4.707,2.353A2.353,2.353,0,1,1,2.353,0,2.353,2.353,0,0,1,4.707,2.353" transform="translate(24.742 65.677)" fill="#fff"/>
      <path id="Trazado_113676" data-name="Trazado 113676" d="M4.707,2.353A2.353,2.353,0,1,1,2.353,0,2.353,2.353,0,0,1,4.707,2.353" transform="translate(35.097 65.677)" fill="#fff"/>
      <path id="Trazado_113677" data-name="Trazado 113677" d="M4.707,2.353A2.353,2.353,0,1,1,2.353,0,2.353,2.353,0,0,1,4.707,2.353" transform="translate(45.451 65.677)" fill="#fff"/>
      <path id="Trazado_113678" data-name="Trazado 113678" d="M4.707,2.353A2.353,2.353,0,1,1,2.353,0,2.353,2.353,0,0,1,4.707,2.353" transform="translate(55.806 65.677)" fill="#fff"/>
      <path id="Trazado_113679" data-name="Trazado 113679" d="M4.707,2.353A2.353,2.353,0,1,1,2.353,0,2.353,2.353,0,0,1,4.707,2.353" transform="translate(66.161 65.677)" fill="#fff"/>
      <path id="Trazado_113680" data-name="Trazado 113680" d="M4.707,2.353A2.353,2.353,0,1,1,2.353,0,2.353,2.353,0,0,1,4.707,2.353" transform="translate(24.742 75.561)" fill="#fff"/>
      <path id="Trazado_113681" data-name="Trazado 113681" d="M4.707,2.353A2.353,2.353,0,1,1,2.353,0,2.353,2.353,0,0,1,4.707,2.353" transform="translate(35.097 75.561)" fill="#fff"/>
      <path id="Trazado_113682" data-name="Trazado 113682" d="M4.707,2.353A2.353,2.353,0,1,1,2.353,0,2.353,2.353,0,0,1,4.707,2.353" transform="translate(45.451 75.561)" fill="#fff"/>
      <path id="Trazado_113683" data-name="Trazado 113683" d="M4.707,2.353A2.353,2.353,0,1,1,2.353,0,2.353,2.353,0,0,1,4.707,2.353" transform="translate(55.806 75.561)" fill="#fff"/>
      <path id="Trazado_113684" data-name="Trazado 113684" d="M4.707,2.353A2.353,2.353,0,1,1,2.353,0,2.353,2.353,0,0,1,4.707,2.353" transform="translate(66.161 75.561)" fill="#fff"/>
      <path id="Trazado_113685" data-name="Trazado 113685" d="M4.707,2.353A2.353,2.353,0,1,1,2.353,0,2.353,2.353,0,0,1,4.707,2.353" transform="translate(24.742 85.445)" fill="#fff"/>
      <path id="Trazado_113686" data-name="Trazado 113686" d="M4.707,2.353A2.353,2.353,0,1,1,2.353,0,2.353,2.353,0,0,1,4.707,2.353" transform="translate(35.097 85.445)" fill="#fff"/>
      <path id="Trazado_113687" data-name="Trazado 113687" d="M4.707,2.353A2.353,2.353,0,1,1,2.353,0,2.353,2.353,0,0,1,4.707,2.353" transform="translate(45.451 85.445)" fill="#fff"/>
      <path id="Trazado_113688" data-name="Trazado 113688" d="M4.707,2.353A2.353,2.353,0,1,1,2.353,0,2.353,2.353,0,0,1,4.707,2.353" transform="translate(55.806 85.445)" fill="#fff"/>
      <path id="Trazado_113689" data-name="Trazado 113689" d="M4.707,2.353A2.353,2.353,0,1,1,2.353,0,2.353,2.353,0,0,1,4.707,2.353" transform="translate(66.161 85.445)" fill="#fff"/>
      <g id="Grupo_1002336" data-name="Grupo 1002336" transform="translate(28.485 7.109)" opacity="0.251">
        <g id="Grupo_80323" data-name="Grupo 80323" clip-path="url(#clip-path)">
          <path id="Trazado_113615" data-name="Trazado 113615" d="M163.375,209.872c-2.415-.187-4.879-.294-7.4-.275-13.353.1-26.413,3.764-39.848,3.623-28.467-.3-57.765-3.308-82.368-21.9C-20.752,150.139-2.884,61.92,42.3,25.7,66.311,6.458,96.217.573,124.87.029c36.885-.7,84.194,11.194,110.621,42.851,18.412,22.057,22.99,73.445,18.686,102.562-3.426,23.177-16.284,45.034-32.527,57.756-20.256,15.866-37.431,8.286-58.276,6.674" transform="translate(0 0)" fill="#e0f4fe"/>
        </g>
      </g>
    </g>
    <g id="Street_Sweeper_1" data-name="Street Sweeper 1" transform="translate(265 4789)">
      <g id="Grupo_1029400" data-name="Grupo 1029400" transform="translate(5.63 97.644)">
        <g id="Grupo_1029385" data-name="Grupo 1029385" transform="translate(5.77 2.077)">
          <g id="Grupo_1029383" data-name="Grupo 1029383" transform="translate(23.452 83.739)">
            <g id="Grupo_1029376" data-name="Grupo 1029376" transform="translate(1.191)">
              <path id="Trazado_728502" data-name="Trazado 728502" d="M658.941,1069.848l-.778,11.259s11.53,7.012,11.294,7.721-17.8.551-18.035.157,1.575-8.033,1.575-8.033l.274-11.183" transform="translate(-650.909 -1069.261)" fill="#ffa18d"/>
              <path id="Trazado_728503" data-name="Trazado 728503" d="M658.369,1087.689c-.631,0-1.251,0-1.843-.008-7.3-.061-7.443-.3-7.608-.573-.119-.2-.342-.569,1.5-8.36l.273-11.13a.508.508,0,0,1,.507-.5h.013a.508.508,0,0,1,.5.52l-.274,11.183a.5.5,0,0,1-.013.1c-.726,3.061-1.451,6.453-1.568,7.513,1.022.117,4.314.229,8.435.23,4.33,0,7.06-.12,8.214-.26-1.446-1.208-6.219-4.3-10.673-7.012a.507.507,0,0,1-.243-.469l.778-11.259a.508.508,0,0,1,1.013.07l-.757,10.951c.778.476,3.153,1.937,5.483,3.441,1.664,1.074,2.981,1.961,3.915,2.636,1.739,1.256,2,1.637,1.849,2.077-.128.385-.546.494-1.433.591C664.76,1087.625,661.432,1087.689,658.369,1087.689Z" transform="translate(-648.841 -1067.123)" fill="#0a1a33"/>
            </g>
            <g id="Grupo_1029377" data-name="Grupo 1029377" transform="translate(0.408 11.169)">
              <path id="Trazado_728504" data-name="Trazado 728504" d="M648.824,1127.975H656.2l6.4,3.558s6.615,1.339,6.458,5.355H647.406Z" transform="translate(-646.898 -1127.467)" fill="#a06352"/>
              <path id="Trazado_728505" data-name="Trazado 728505" d="M666.926,1135.258H645.268a.507.507,0,0,1-.5-.587l1.418-8.914a.508.508,0,0,1,.5-.428h7.378a.509.509,0,0,1,.247.064l6.338,3.522a14.925,14.925,0,0,1,3.339,1.2c2.327,1.192,3.519,2.8,3.446,4.656A.508.508,0,0,1,666.926,1135.258Zm-21.063-1.015H666.4c-.407-3.169-5.971-4.338-6.031-4.35a.512.512,0,0,1-.146-.054l-6.289-3.495H647.12Z" transform="translate(-644.761 -1125.329)" fill="#0a1a33"/>
            </g>
            <g id="Grupo_1029378" data-name="Grupo 1029378" transform="translate(0 19.736)">
              <path id="Trazado_728506" data-name="Trazado 728506" d="M645.279,1173.955H667.8l-.141-1.332H645.42Z" transform="translate(-644.772 -1172.115)" fill="#89add3"/>
              <path id="Trazado_728507" data-name="Trazado 728507" d="M665.658,1172.324H643.141a.508.508,0,0,1-.5-.561l.141-1.332a.508.508,0,0,1,.5-.454h22.236a.508.508,0,0,1,.5.454l.141,1.332a.508.508,0,0,1-.5.561Zm-21.953-1.015h21.389l-.034-.317H643.738Z" transform="translate(-642.633 -1169.977)" fill="#0a1a33"/>
            </g>
            <g id="Grupo_1029380" data-name="Grupo 1029380" transform="translate(18.001 16.735)">
              <g id="Grupo_1029379" data-name="Grupo 1029379">
                <path id="Trazado_728508" data-name="Trazado 728508" d="M737.44,1155.533a.418.418,0,0,1-.221-.062l-.572-.352a.422.422,0,0,1,.442-.719l.572.352a.422.422,0,0,1-.221.781Z" transform="translate(-736.446 -1154.337)" fill="#ffe9e5"/>
              </g>
            </g>
            <g id="Grupo_1029382" data-name="Grupo 1029382" transform="translate(19.562 17.793)">
              <g id="Grupo_1029381" data-name="Grupo 1029381">
                <path id="Trazado_728509" data-name="Trazado 728509" d="M745.84,1161.6a.422.422,0,0,1-.374-.226,1.529,1.529,0,0,0-.618-.706.417.417,0,0,1-.237-.544.426.426,0,0,1,.55-.24,2.244,2.244,0,0,1,1.053,1.1.423.423,0,0,1-.374.618Z" transform="translate(-744.582 -1159.851)" fill="#ffe9e5"/>
              </g>
            </g>
          </g>
          <g id="Grupo_1029384" data-name="Grupo 1029384">
            <path id="Trazado_728510" data-name="Trazado 728510" d="M534,655.068l4.645,3.035,8.769,32.6,1.1,34.544,8.485.095,4.435-40.258-4.988-40.814s-.392-7.753-.215-9.435l-33.176-1.466" transform="translate(-522.552 -632.855)" fill="#3b485c"/>
            <path id="Trazado_728511" data-name="Trazado 728511" d="M554.865,723.707h-.006l-8.485-.095a.508.508,0,0,1-.5-.491l-1.1-34.485-8.7-32.351-4.483-2.929a.508.508,0,0,1,.556-.85l4.645,3.035a.507.507,0,0,1,.212.293l8.769,32.6a.518.518,0,0,1,.017.116l1.089,34.058,7.539.084,4.379-39.742-4.98-40.756c0-.012,0-.024,0-.036-.015-.292-.332-6.615-.247-8.977l-32.66-1.443a.508.508,0,0,1,.045-1.014l33.176,1.466a.507.507,0,0,1,.482.56c-.167,1.586.2,8.921.216,9.338l4.985,40.8a.5.5,0,0,1,0,.117l-4.435,40.258A.508.508,0,0,1,554.865,723.707Z" transform="translate(-520.414 -630.718)" fill="#0a1a33"/>
          </g>
        </g>
        <g id="Grupo_1029395" data-name="Grupo 1029395">
          <g id="Grupo_1029393" data-name="Grupo 1029393" transform="translate(5.856 87.239)">
            <g id="Grupo_1029386" data-name="Grupo 1029386" transform="translate(1.191)">
              <path id="Trazado_728512" data-name="Trazado 728512" d="M537.981,1077.26l-1.591,11.259s11.53,7.012,11.294,7.721-17.8.551-18.035.157,1.575-8.033,1.575-8.033l1.087-11.183" transform="translate(-529.136 -1076.673)" fill="#ffa18d"/>
              <path id="Trazado_728513" data-name="Trazado 728513" d="M536.6,1095.1c-.631,0-1.251,0-1.843-.008-7.3-.062-7.443-.3-7.608-.573-.12-.2-.342-.569,1.508-8.378l1.084-11.149a.508.508,0,1,1,1.01.1l-1.087,11.183a.5.5,0,0,1-.011.068c-.726,3.06-1.451,6.452-1.568,7.513,1.022.117,4.314.229,8.435.23h.086c4.276,0,6.981-.12,8.128-.26-1.446-1.208-6.219-4.3-10.673-7.011a.508.508,0,0,1-.239-.5l1.591-11.259a.508.508,0,0,1,1.006.142l-1.544,10.929c.8.489,3.153,1.937,5.461,3.427,1.664,1.074,2.981,1.961,3.915,2.636,1.739,1.256,2,1.637,1.849,2.078-.128.385-.546.493-1.433.591C542.987,1095.038,539.659,1095.1,536.6,1095.1Zm-8.528-.965Z" transform="translate(-527.068 -1074.536)" fill="#0a1a33"/>
            </g>
            <g id="Grupo_1029387" data-name="Grupo 1029387" transform="translate(0.408 11.169)">
              <path id="Trazado_728514" data-name="Trazado 728514" d="M527.051,1135.387h7.378l6.4,3.559s6.615,1.339,6.458,5.355H525.633Z" transform="translate(-525.125 -1134.879)" fill="#a06352"/>
              <path id="Trazado_728515" data-name="Trazado 728515" d="M545.153,1142.67H523.5a.508.508,0,0,1-.5-.587l1.418-8.914a.508.508,0,0,1,.5-.428h7.378a.508.508,0,0,1,.247.064l6.338,3.522a14.917,14.917,0,0,1,3.339,1.2c2.327,1.191,3.519,2.8,3.446,4.655A.508.508,0,0,1,545.153,1142.67Zm-21.063-1.015h20.534c-.407-3.169-5.971-4.338-6.03-4.35a.506.506,0,0,1-.146-.054l-6.289-3.495h-6.813Z" transform="translate(-522.988 -1132.741)" fill="#0a1a33"/>
            </g>
            <g id="Grupo_1029388" data-name="Grupo 1029388" transform="translate(0 19.916)">
              <path id="Trazado_728516" data-name="Trazado 728516" d="M523.506,1182.308h22.517l-.141-1.332H523.647Z" transform="translate(-522.998 -1180.468)" fill="#89add3"/>
              <path id="Trazado_728517" data-name="Trazado 728517" d="M543.885,1180.677H521.368a.508.508,0,0,1-.5-.561l.141-1.332a.508.508,0,0,1,.5-.454h22.236a.508.508,0,0,1,.5.454l.141,1.332a.508.508,0,0,1-.5.561Zm-21.953-1.015h21.389l-.033-.317H521.966Z" transform="translate(-520.86 -1178.33)" fill="#0a1a33"/>
            </g>
            <g id="Grupo_1029390" data-name="Grupo 1029390" transform="translate(18.001 16.735)">
              <g id="Grupo_1029389" data-name="Grupo 1029389">
                <path id="Trazado_728518" data-name="Trazado 728518" d="M615.667,1162.945a.42.42,0,0,1-.22-.062l-.572-.352a.422.422,0,0,1,.442-.719l.572.352a.422.422,0,0,1-.221.781Z" transform="translate(-614.673 -1161.749)" fill="#ffe9e5"/>
              </g>
            </g>
            <g id="Grupo_1029392" data-name="Grupo 1029392" transform="translate(19.562 17.793)">
              <g id="Grupo_1029391" data-name="Grupo 1029391">
                <path id="Trazado_728519" data-name="Trazado 728519" d="M624.067,1169.007a.422.422,0,0,1-.374-.226,1.529,1.529,0,0,0-.618-.706.417.417,0,0,1-.238-.543.426.426,0,0,1,.55-.24,2.245,2.245,0,0,1,1.053,1.1.422.422,0,0,1-.374.618Z" transform="translate(-622.808 -1167.263)" fill="#ffe9e5"/>
              </g>
            </g>
          </g>
          <g id="Grupo_1029394" data-name="Grupo 1029394">
            <path id="Trazado_728520" data-name="Trazado 728520" d="M518.826,645.3l-4.358,4.044.593,32.068-6.417,35.826-9.794.091,3.4-34.456L493.6,642.232a27.908,27.908,0,0,1-.583-7.056l.566-12.636" transform="translate(-492.481 -622.032)" fill="#3b485c"/>
            <path id="Trazado_728521" data-name="Trazado 728521" d="M496.712,715.7a.508.508,0,0,1-.505-.558l3.39-34.378L490.965,640.2a28.432,28.432,0,0,1-.594-7.184l.566-12.636a.508.508,0,1,1,1.014.045l-.566,12.636a27.411,27.411,0,0,0,.572,6.928l8.648,40.645a.509.509,0,0,1,.009.155l-3.343,33.894,8.808-.082,6.334-35.363-.592-32.019a.508.508,0,0,1,.162-.382l4.359-4.044a.508.508,0,0,1,.691.744l-4.192,3.89.589,31.841a.5.5,0,0,1-.008.1l-6.417,35.826a.508.508,0,0,1-.5.418l-9.794.091Z" transform="translate(-490.343 -619.893)" fill="#0a1a33"/>
          </g>
        </g>
        <g id="Grupo_1029396" data-name="Grupo 1029396" transform="translate(7.351 75.771)">
          <path id="Trazado_728522" data-name="Trazado 728522" d="M531.741,1017.663l11-.245-.629,4.2-10.809.254Z" transform="translate(-530.79 -1016.91)" fill="#c7cad0"/>
          <path id="Trazado_728523" data-name="Trazado 728523" d="M529.16,1020.237a.507.507,0,0,1-.5-.561l.443-4.2a.508.508,0,0,1,.494-.454l11-.245a.513.513,0,0,1,.392.172.507.507,0,0,1,.121.411l-.629,4.2a.508.508,0,0,1-.49.432l-10.809.254Zm.9-4.214-.335,3.186,9.805-.23.477-3.177Z" transform="translate(-528.652 -1014.772)" fill="#0a1a33"/>
        </g>
        <g id="Grupo_1029397" data-name="Grupo 1029397" transform="translate(6.521 82.799)">
          <path id="Trazado_728524" data-name="Trazado 728524" d="M527.472,1054.12l10.721-.077-1.049,5.454-10.17.321Z" transform="translate(-526.466 -1053.535)" fill="#c7cad0"/>
          <path id="Trazado_728525" data-name="Trazado 728525" d="M524.836,1058.188a.508.508,0,0,1-.506-.552l.5-5.7a.508.508,0,0,1,.5-.463l10.721-.077a.534.534,0,0,1,.394.183.507.507,0,0,1,.108.421l-1.049,5.454a.508.508,0,0,1-.482.411l-10.17.321Zm.963-5.7-.408,4.668,9.193-.29.855-4.448Z" transform="translate(-524.328 -1051.397)" fill="#0a1a33"/>
        </g>
        <g id="Grupo_1029398" data-name="Grupo 1029398" transform="translate(30.654 75.684)">
          <path id="Trazado_728526" data-name="Trazado 728526" d="M652.741,1016.979l11.051-.014-.553,5.532-10.1.007Z" transform="translate(-652.234 -1016.458)" fill="#c7cad0"/>
          <path id="Trazado_728527" data-name="Trazado 728527" d="M651,1020.874a.508.508,0,0,1-.506-.471l-.4-5.525a.508.508,0,0,1,.506-.544l11.051-.014a.487.487,0,0,1,.377.167.508.508,0,0,1,.129.391l-.553,5.532a.507.507,0,0,1-.5.457l-10.1.007Zm.147-5.526.326,4.51,9.167-.006.452-4.516Z" transform="translate(-650.096 -1014.319)" fill="#0a1a33"/>
        </g>
        <g id="Grupo_1029399" data-name="Grupo 1029399" transform="translate(30.996 83.983)">
          <path id="Trazado_728528" data-name="Trazado 728528" d="M654.523,1060.243l9.824-.032-.5,4.979-9.212.066Z" transform="translate(-654.015 -1059.703)" fill="#c7cad0"/>
          <path id="Trazado_728529" data-name="Trazado 728529" d="M652.5,1063.626a.508.508,0,0,1-.508-.5l-.114-5.013a.508.508,0,0,1,.506-.519l9.824-.032h0a.508.508,0,0,1,.505.558l-.5,4.979a.508.508,0,0,1-.5.457l-9.212.066Zm.405-5.014.091,4,8.256-.059.4-3.965Z" transform="translate(-651.876 -1057.566)" fill="#0a1a33"/>
        </g>
      </g>
      <g id="Grupo_1029408" data-name="Grupo 1029408" transform="translate(36.618 46.76)">
        <g id="Grupo_1029403" data-name="Grupo 1029403" transform="translate(3.404 21.765)">
          <g id="Grupo_1029402" data-name="Grupo 1029402">
            <g id="Grupo_1029401" data-name="Grupo 1029401">
              <path id="Trazado_728530" data-name="Trazado 728530" d="M698.959,495.867c-.008,1.2,1.142,2.615,2.1,3.339a8.331,8.331,0,0,1,3.416,4.487c.326,1.057.808,3.591,1.88,3.057,1.287-.556.065-4.24-.954-6.52l3.811,5.507a.782.782,0,0,0,.858.324c.576-.177.471-.939.258-1.457a19.473,19.473,0,0,0-3.168-5.195l5.674,3.773a.685.685,0,0,0,.8-.017c.495-.395.062-.888-.244-1.25a38.2,38.2,0,0,0-5.052-4.952c1.987,1.025,3.942,2.183,5.928,3.209.41.212,1.052.348,1.269-.2a.811.811,0,0,0-.226-.886,33.772,33.772,0,0,0-7.819-5.321c1.611-.232,4.588-.2,4.6-1.049.214-1.082-2.03-1.323-2.5-1.418-3.446-.708-6.593-.658-8.914.591l-14.18-8.751-3.432-12.355-10.845,7.962,6.022,9.307a7.48,7.48,0,0,0,4.235,3.131Z" transform="translate(-671.717 -470.275)" fill="#ffa18d"/>
              <path id="Trazado_728531" data-name="Trazado 728531" d="M703.932,505.193a1.042,1.042,0,0,1-.429-.093c-.755-.338-1.125-1.494-1.5-2.858-.055-.2-.105-.385-.152-.537a7.694,7.694,0,0,0-3.109-4.135l-.129-.1a5.868,5.868,0,0,1-2.273-3.352L680.2,489.533a7.985,7.985,0,0,1-4.522-3.344l-6.022-9.307a.507.507,0,0,1,.126-.685l10.845-7.962a.508.508,0,0,1,.79.273l3.379,12.163,13.767,8.5c2.245-1.1,5.269-1.271,8.994-.506.047.01.114.021.2.034a3.814,3.814,0,0,1,2.51,1.075,1.159,1.159,0,0,1,.194.861c-.061,1-1.565,1.176-3.365,1.332a34.212,34.212,0,0,1,6.42,4.608,1.319,1.319,0,0,1,.357,1.448,1.07,1.07,0,0,1-.627.631,1.768,1.768,0,0,1-1.347-.167c-.748-.386-1.5-.795-2.237-1.2q1.032,1.046,1.981,2.166l.016.02a1.756,1.756,0,0,1,.568,1.241,1.029,1.029,0,0,1-.411.713,1.185,1.185,0,0,1-1.4.043l-3.3-2.193a19.944,19.944,0,0,1,1.542,3,2.092,2.092,0,0,1,.084,1.566,1.056,1.056,0,0,1-.662.569,1.3,1.3,0,0,1-1.424-.52l-1.643-2.374a5.139,5.139,0,0,1,.11,2.8,1.327,1.327,0,0,1-.693.759A1.14,1.14,0,0,1,703.932,505.193Zm-33.159-28.461,5.762,8.9a6.97,6.97,0,0,0,3.947,2.919l16.478,4.684a.508.508,0,0,1,.369.492,4.6,4.6,0,0,0,1.9,2.93l.126.095a8.7,8.7,0,0,1,3.469,4.648c.05.161.1.356.162.569.166.607.556,2.03.934,2.2.01,0,.023.01.074-.016l.025-.012c.028-.012.1-.044.162-.2.314-.806-.253-3.128-1.379-5.646a.508.508,0,0,1,.881-.5l3.811,5.507a.278.278,0,0,0,.29.128c.033-.01.036-.017.043-.032a1.162,1.162,0,0,0-.1-.747,18.9,18.9,0,0,0-3.085-5.059.508.508,0,0,1,.668-.752l5.674,3.773a.183.183,0,0,0,.2.009.274.274,0,0,0,.032-.029,1.886,1.886,0,0,0-.33-.476l-.017-.02a37.782,37.782,0,0,0-4.985-4.886.508.508,0,0,1,.553-.845c1,.516,2.005,1.073,2.978,1.611s1.964,1.088,2.951,1.6a.822.822,0,0,0,.524.118c.009,0,.022-.008.04-.054a.3.3,0,0,0-.1-.324,33.208,33.208,0,0,0-7.7-5.241.508.508,0,0,1,.152-.958c.418-.06.909-.1,1.428-.146a9,9,0,0,0,2.742-.473c0-.009,0-.018,0-.027a.148.148,0,0,0-.026-.131c-.265-.384-1.453-.585-1.843-.651-.1-.016-.175-.03-.231-.041-3.633-.746-6.517-.564-8.572.541a.508.508,0,0,1-.507-.015l-14.18-8.751a.508.508,0,0,1-.223-.3l-3.235-11.647Z" transform="translate(-669.579 -468.137)" fill="#0a1a33"/>
            </g>
          </g>
        </g>
        <g id="Grupo_1029404" data-name="Grupo 1029404">
          <path id="Trazado_728532" data-name="Trazado 728532" d="M658.736,357.382a8.237,8.237,0,0,0-4.252,5.846l2.254,26.891,14.931-4.111L667.5,364.823s-.054-3.141-4.731-7.469" transform="translate(-653.976 -356.846)" fill="#fff"/>
          <path id="Trazado_728533" data-name="Trazado 728533" d="M654.6,388.49a.508.508,0,0,1-.506-.465l-2.254-26.891a.506.506,0,0,1,0-.11,8.682,8.682,0,0,1,4.528-6.233.508.508,0,0,1,.454.908,7.737,7.737,0,0,0-3.968,5.41l2.2,26.222,13.887-3.823-4.074-20.724a.521.521,0,0,1-.009-.089c0-.026-.146-3.013-4.568-7.106a.508.508,0,1,1,.69-.745c4.512,4.176,4.864,7.325,4.891,7.781l4.157,21.15a.508.508,0,0,1-.363.587l-14.931,4.111A.5.5,0,0,1,654.6,388.49Z" transform="translate(-651.838 -354.708)" fill="#0a1a33"/>
        </g>
        <g id="Grupo_1029407" data-name="Grupo 1029407" transform="translate(25.552 39.983)">
          <g id="Grupo_1029406" data-name="Grupo 1029406">
            <g id="Grupo_1029405" data-name="Grupo 1029405">
              <path id="Trazado_728534" data-name="Trazado 728534" d="M787.644,572.151l3.936,1.044c-.008,1.2,1.792,2.011,2.751,2.735a8.331,8.331,0,0,1,3.416,4.487c.326,1.057.808,3.591,1.88,3.057,1.287-.556.065-4.241-.954-6.52l3.811,5.508a.781.781,0,0,0,.858.324c.576-.177.471-.939.258-1.457a19.473,19.473,0,0,0-3.168-5.194l5.674,3.773a.685.685,0,0,0,.8-.017c.495-.395.062-.888-.244-1.25a38.2,38.2,0,0,0-5.052-4.952c1.987,1.025,3.942,2.183,5.928,3.209.41.212,1.052.348,1.269-.2a.811.811,0,0,0-.226-.886,33.77,33.77,0,0,0-7.819-5.321c1.611-.232,4.588-.2,4.6-1.049.215-1.082-2.03-1.323-2.5-1.418-3.446-.708-6.476-1.378-8.8-.129l-2.49-2.169Z" transform="translate(-787.136 -565.217)" fill="#fcf8c8"/>
              <path id="Trazado_728535" data-name="Trazado 728535" d="M797.2,581.918a1.043,1.043,0,0,1-.429-.093c-.755-.338-1.125-1.494-1.5-2.858-.055-.2-.105-.385-.152-.537a7.693,7.693,0,0,0-3.109-4.135l-.129-.1c-.2-.153-.455-.316-.721-.488-.882-.57-1.954-1.263-2.186-2.249l-3.6-.956a.508.508,0,0,1-.3-.756l3.936-6.426a.508.508,0,0,1,.766-.118l2.234,1.946c2.365-1.092,5.244-.5,8.555.182l.268.055c.047.01.114.021.2.034a3.815,3.815,0,0,1,2.51,1.075,1.159,1.159,0,0,1,.194.861c-.061,1-1.565,1.176-3.365,1.331a34.217,34.217,0,0,1,6.42,4.608,1.319,1.319,0,0,1,.357,1.448,1.07,1.07,0,0,1-.627.631,1.768,1.768,0,0,1-1.347-.167c-.748-.386-1.5-.795-2.237-1.2q1.032,1.046,1.981,2.167l.016.02a1.757,1.757,0,0,1,.568,1.241,1.03,1.03,0,0,1-.411.713,1.185,1.185,0,0,1-1.4.043l-3.3-2.193a19.933,19.933,0,0,1,1.542,3,2.091,2.091,0,0,1,.084,1.566,1.056,1.056,0,0,1-.662.569,1.3,1.3,0,0,1-1.424-.52l-1.643-2.374a5.14,5.14,0,0,1,.11,2.8,1.327,1.327,0,0,1-.693.759A1.141,1.141,0,0,1,797.2,581.918ZM786.3,569.7l3.277.87a.507.507,0,0,1,.377.494c0,.65.978,1.285,1.768,1.8.282.183.549.355.781.53l.126.1a8.7,8.7,0,0,1,3.469,4.648c.05.161.1.356.161.569.166.608.556,2.03.934,2.2.01,0,.023.01.074-.016l.025-.012c.028-.012.1-.044.162-.2.314-.806-.253-3.128-1.379-5.646a.508.508,0,0,1,.881-.5l3.811,5.508a.278.278,0,0,0,.291.128c.033-.01.036-.017.043-.032a1.162,1.162,0,0,0-.1-.747,18.9,18.9,0,0,0-3.085-5.059.508.508,0,0,1,.668-.752l5.674,3.773a.183.183,0,0,0,.2.009.264.264,0,0,0,.032-.029,1.885,1.885,0,0,0-.33-.476l-.017-.02a37.771,37.771,0,0,0-4.985-4.886.508.508,0,0,1,.553-.845c1,.516,2.005,1.073,2.977,1.611s1.964,1.088,2.951,1.6a.822.822,0,0,0,.524.118c.009,0,.022-.008.04-.054a.3.3,0,0,0-.1-.324,33.206,33.206,0,0,0-7.7-5.241.508.508,0,0,1,.152-.958c.418-.06.909-.1,1.428-.146a9,9,0,0,0,2.742-.473c0-.009,0-.018,0-.027a.148.148,0,0,0-.026-.131c-.265-.384-1.453-.585-1.844-.65-.1-.016-.175-.03-.231-.041l-.269-.055c-3.267-.672-6.088-1.253-8.187-.124a.507.507,0,0,1-.574-.064l-2.037-1.775Z" transform="translate(-784.999 -563.08)" fill="#0a1a33"/>
            </g>
          </g>
        </g>
      </g>
      <g id="Grupo_1029418" data-name="Grupo 1029418" transform="translate(0 37.864)">
        <g id="Grupo_1029409" data-name="Grupo 1029409" transform="translate(2.848)">
          <path id="Trazado_728536" data-name="Trazado 728536" d="M522.079,380.959l-42.02.58-1.57-53.827c0-9.233,13.353-16.718,22.587-16.718h0c9.233,0,22.586,7.485,22.586,16.718Z" transform="translate(-477.982 -310.485)" fill="#fff"/>
          <path id="Trazado_728537" data-name="Trazado 728537" d="M477.922,379.908a.508.508,0,0,1-.507-.493l-1.569-53.827c0-9.844,14.009-17.241,23.094-17.241s23.094,7.4,23.094,17.226l-1.583,53.263a.508.508,0,0,1-.5.493l-42.02.58Zm21.017-70.546a27.674,27.674,0,0,0-14.472,4.81c-6.618,4.457-7.607,9.056-7.607,11.4l1.555,53.313,41.034-.566,1.569-52.762c0-2.329-.988-6.928-7.607-11.385A27.674,27.674,0,0,0,498.939,309.362Zm21,69.458h0Z" transform="translate(-475.845 -308.347)" fill="#0a1a33"/>
        </g>
        <g id="Grupo_1029410" data-name="Grupo 1029410" transform="translate(34.548 2.544)">
          <path id="Trazado_728538" data-name="Trazado 728538" d="M645.735,324.251l-2.04,31.71.481,30.565h13.237l-.241-54.151S651.868,325.513,645.735,324.251Z" transform="translate(-643.187 -323.743)" fill="#ffa031"/>
          <path id="Trazado_728539" data-name="Trazado 728539" d="M655.275,384.9H642.038a.508.508,0,0,1-.508-.5l-.481-30.565c0-.014,0-.027,0-.041l2.04-31.71a.508.508,0,0,1,.609-.465c6.245,1.285,11.515,8.025,11.736,8.311a.508.508,0,0,1,.106.308l.241,54.151a.508.508,0,0,1-.508.51Zm-12.737-1.015h12.227l-.237-53.464c-.742-.914-5.283-6.294-10.462-7.672l-2,31.091Z" transform="translate(-641.049 -321.606)" fill="#0a1a33"/>
        </g>
        <g id="Grupo_1029411" data-name="Grupo 1029411" transform="translate(35.77 46.974)">
          <path id="Trazado_728540" data-name="Trazado 728540" d="M647.419,553.269l12.347-.116.077,3.087-12.386.154Z" transform="translate(-647.419 -553.153)" fill="#ffd7b2"/>
        </g>
        <g id="Grupo_1029412" data-name="Grupo 1029412" transform="translate(35.809 54.042)">
          <path id="Trazado_728541" data-name="Trazado 728541" d="M647.658,590.25l-.038,2.817,12.428-.143-.036-2.938Z" transform="translate(-647.62 -589.986)" fill="#ffd7b2"/>
        </g>
        <g id="Grupo_1029413" data-name="Grupo 1029413" transform="translate(0 1.304)">
          <path id="Trazado_728542" data-name="Trazado 728542" d="M481.477,317.79,491.719,351.7l.963,30.324H465s-3.149-43.218.241-50.541C469.967,321.286,481.477,317.79,481.477,317.79Z" transform="translate(-463.162 -317.282)" fill="#ffa031"/>
          <path id="Trazado_728543" data-name="Trazado 728543" d="M490.524,380.4H462.847a.508.508,0,0,1-.506-.471c-.129-1.77-3.119-43.434.286-50.791,4.762-10.289,16.066-13.823,16.545-13.969a.508.508,0,0,1,.633.339l10.242,33.913a.5.5,0,0,1,.022.131l.963,30.324a.508.508,0,0,1-.507.524Zm-27.2-1.015H490l-.944-29.734L478.986,316.3c-2.208.8-11.413,4.564-15.437,13.259C460.44,336.276,462.993,374.669,463.32,379.381Z" transform="translate(-461.004 -315.144)" fill="#0a1a33"/>
        </g>
        <g id="Grupo_1029414" data-name="Grupo 1029414" transform="translate(1.647 47.124)">
          <path id="Trazado_728544" data-name="Trazado 728544" d="M469.695,558l26.658.011v-4.075l-26.768-.007S469.625,556.524,469.695,558Z" transform="translate(-469.585 -553.93)" fill="#ffd7b2"/>
        </g>
        <g id="Grupo_1029415" data-name="Grupo 1029415" transform="translate(1.851 54.194)">
          <path id="Trazado_728545" data-name="Trazado 728545" d="M470.648,590.889l.174,4.112h26.523v-4.224Z" transform="translate(-470.648 -590.777)" fill="#ffd7b2"/>
        </g>
        <g id="Grupo_1029416" data-name="Grupo 1029416" transform="translate(30.4 16.902)">
          <path id="Trazado_728546" data-name="Trazado 728546" d="M621.659,397.543a1.113,1.113,0,1,1-1.113-1.113A1.113,1.113,0,0,1,621.659,397.543Z" transform="translate(-619.433 -396.43)" fill="#0a1a33"/>
        </g>
        <g id="Grupo_1029417" data-name="Grupo 1029417" transform="translate(30.696 26.997)">
          <path id="Trazado_728547" data-name="Trazado 728547" d="M623.2,450.156a1.113,1.113,0,1,1-1.113-1.113A1.113,1.113,0,0,1,623.2,450.156Z" transform="translate(-620.976 -449.043)" fill="#0a1a33"/>
        </g>
      </g>
      <g id="Grupo_1029444" data-name="Grupo 1029444" transform="translate(39.671 94.913)">
        <g id="Grupo_1029420" data-name="Grupo 1029420" transform="translate(30.477)">
          <g id="Grupo_1029419" data-name="Grupo 1029419">
            <path id="Trazado_728548" data-name="Trazado 728548" d="M941.007,703.443H857.413a1.468,1.468,0,0,1-1.468-1.468v-69.3a14.707,14.707,0,0,0-8.341-13.214L830.055,611.1a1.468,1.468,0,1,1,1.263-2.651l17.549,8.362a17.658,17.658,0,0,1,10.014,15.865v67.828h82.126a1.468,1.468,0,0,1,0,2.936Z" transform="translate(-828.711 -607.8)" fill="#607486"/>
            <path id="Trazado_728549" data-name="Trazado 728549" d="M938.872,701.81H855.278a1.978,1.978,0,0,1-1.976-1.976v-69.3a14.2,14.2,0,0,0-8.052-12.756L827.7,609.421a1.976,1.976,0,1,1,1.7-3.567l17.549,8.362a18.168,18.168,0,0,1,10.3,16.323v67.32h81.618a1.976,1.976,0,0,1,0,3.952Zm-110.32-95.134a.961.961,0,0,0-.414,1.828l17.549,8.362a15.218,15.218,0,0,1,8.63,13.672v69.3a.962.962,0,0,0,.961.961h83.594a.961.961,0,0,0,0-1.921H856.746a.507.507,0,0,1-.508-.508V630.538a17.148,17.148,0,0,0-9.725-15.406l-17.549-8.362A.959.959,0,0,0,828.552,606.676Z" transform="translate(-826.576 -605.66)" fill="#0a1a33"/>
          </g>
        </g>
        <g id="Grupo_1029426" data-name="Grupo 1029426" transform="translate(31.772 8.476)">
          <g id="Grupo_1029421" data-name="Grupo 1029421" transform="translate(16.843)">
            <rect id="Rectángulo_350497" data-name="Rectángulo 350497" width="12.058" height="4.593" transform="translate(0.508 0.508)" fill="#82dfdc"/>
            <path id="Trazado_728550" data-name="Trazado 728550" d="M933.665,655.439H921.607a.508.508,0,0,1-.508-.508v-4.594a.508.508,0,0,1,.508-.508h12.058a.508.508,0,0,1,.508.508v4.594A.508.508,0,0,1,933.665,655.439Zm-11.55-1.015h11.043v-3.578H922.114Z" transform="translate(-921.099 -649.83)" fill="#0a1a33"/>
          </g>
          <g id="Grupo_1029424" data-name="Grupo 1029424" transform="translate(2.771 9.662)">
            <g id="Grupo_1029422" data-name="Grupo 1029422">
              <path id="Trazado_728551" data-name="Trazado 728551" d="M853.758,776.533h33.5l3.35-73.7h-40.2Z" transform="translate(-849.9 -702.321)" fill="#82dfdc"/>
              <path id="Trazado_728552" data-name="Trazado 728552" d="M885.122,774.9h-33.5a.508.508,0,0,1-.507-.484l-3.35-73.7a.507.507,0,0,1,.507-.531h40.2a.507.507,0,0,1,.507.531l-3.35,73.7A.508.508,0,0,1,885.122,774.9Zm-33.017-1.015h32.532l3.3-72.688H848.8Z" transform="translate(-847.762 -700.184)" fill="#0a1a33"/>
            </g>
            <g id="Grupo_1029423" data-name="Grupo 1029423" transform="translate(13.531 3.228)">
              <rect id="Rectángulo_350498" data-name="Rectángulo 350498" width="12.971" height="3.843" rx="1.922" transform="translate(13.479 4.351) rotate(180)" fill="#52d2cf"/>
              <path id="Trazado_728553" data-name="Trazado 728553" d="M930.051,721.865H920.5a2.218,2.218,0,0,1-2.215-2.215v-.428a2.218,2.218,0,0,1,2.215-2.215h9.556a2.218,2.218,0,0,1,2.215,2.215v.428A2.218,2.218,0,0,1,930.051,721.865Zm-9.556-3.843a1.2,1.2,0,0,0-1.2,1.2v.428a1.2,1.2,0,0,0,1.2,1.2h9.556a1.2,1.2,0,0,0,1.2-1.2v-.428a1.2,1.2,0,0,0-1.2-1.2Z" transform="translate(-918.28 -717.006)" fill="#0a1a33"/>
            </g>
          </g>
          <g id="Grupo_1029425" data-name="Grupo 1029425" transform="translate(0 3.062)">
            <rect id="Rectángulo_350499" data-name="Rectángulo 350499" width="45.743" height="7.847" transform="translate(0.508 0.508)" fill="#82dfdc"/>
            <path id="Trazado_728554" data-name="Trazado 728554" d="M879.574,674.652H833.831a.508.508,0,0,1-.508-.508V666.3a.508.508,0,0,1,.508-.508h45.743a.508.508,0,0,1,.508.508v7.847A.508.508,0,0,1,879.574,674.652Zm-45.236-1.015h44.728V666.8H834.338Z" transform="translate(-833.323 -665.789)" fill="#0a1a33"/>
          </g>
        </g>
        <g id="Grupo_1029432" data-name="Grupo 1029432" transform="translate(79.238 8.284)">
          <g id="Grupo_1029427" data-name="Grupo 1029427" transform="translate(16.843)">
            <rect id="Rectángulo_350500" data-name="Rectángulo 350500" width="12.058" height="4.593" transform="translate(0.508 0.508)" fill="#4db1f0"/>
            <path id="Trazado_728555" data-name="Trazado 728555" d="M1181.032,654.441h-12.058a.508.508,0,0,1-.508-.508V649.34a.508.508,0,0,1,.508-.508h12.058a.508.508,0,0,1,.508.508v4.594A.508.508,0,0,1,1181.032,654.441Zm-11.55-1.015h11.043v-3.578h-11.043Z" transform="translate(-1168.467 -648.832)" fill="#0a1a33"/>
          </g>
          <g id="Grupo_1029430" data-name="Grupo 1029430" transform="translate(2.77 9.662)">
            <g id="Grupo_1029428" data-name="Grupo 1029428">
              <path id="Trazado_728556" data-name="Trazado 728556" d="M1101.126,775.535h33.5l3.35-73.7h-40.2Z" transform="translate(-1097.268 -701.324)" fill="#4db1f0"/>
              <path id="Trazado_728557" data-name="Trazado 728557" d="M1132.489,773.905h-33.5a.508.508,0,0,1-.507-.485l-3.35-73.7a.508.508,0,0,1,.507-.531h40.2a.508.508,0,0,1,.507.531l-3.35,73.7A.508.508,0,0,1,1132.489,773.905Zm-33.017-1.015H1132l3.3-72.689h-39.14Z" transform="translate(-1095.129 -699.186)" fill="#0a1a33"/>
            </g>
            <g id="Grupo_1029429" data-name="Grupo 1029429" transform="translate(13.531 3.228)">
              <rect id="Rectángulo_350501" data-name="Rectángulo 350501" width="12.971" height="3.843" rx="1.922" transform="translate(13.478 4.351) rotate(180)" fill="#4db1f0"/>
              <path id="Trazado_728558" data-name="Trazado 728558" d="M1177.419,720.867h-9.556a2.218,2.218,0,0,1-2.215-2.215v-.428a2.218,2.218,0,0,1,2.215-2.215h9.556a2.218,2.218,0,0,1,2.215,2.215v.428A2.218,2.218,0,0,1,1177.419,720.867Zm-9.556-3.843a1.2,1.2,0,0,0-1.2,1.2v.428a1.2,1.2,0,0,0,1.2,1.2h9.556a1.2,1.2,0,0,0,1.2-1.2v-.428a1.2,1.2,0,0,0-1.2-1.2Z" transform="translate(-1165.648 -716.009)" fill="#0a1a33"/>
            </g>
          </g>
          <g id="Grupo_1029431" data-name="Grupo 1029431" transform="translate(0 3.062)">
            <rect id="Rectángulo_350502" data-name="Rectángulo 350502" width="45.743" height="7.847" transform="translate(0.508 0.508)" fill="#4db1f0"/>
            <path id="Trazado_728559" data-name="Trazado 728559" d="M1126.942,673.655H1081.2a.508.508,0,0,1-.508-.508V665.3a.508.508,0,0,1,.508-.508h45.743a.508.508,0,0,1,.508.508v7.847A.508.508,0,0,1,1126.942,673.655Zm-45.236-1.015h44.728v-6.832h-44.728Z" transform="translate(-1080.691 -664.792)" fill="#0a1a33"/>
          </g>
        </g>
        <g id="Grupo_1029436" data-name="Grupo 1029436" transform="translate(106.494 94.54)">
          <g id="Grupo_1029433" data-name="Grupo 1029433" transform="translate(5.934)">
            <rect id="Rectángulo_350503" data-name="Rectángulo 350503" width="4.924" height="6.682" transform="translate(5.431 7.19) rotate(180)" fill="#a9c3df"/>
            <path id="Trazado_728560" data-name="Trazado 728560" d="M1259.094,1106.047h-4.924a.508.508,0,0,1-.508-.508v-6.682a.508.508,0,0,1,.508-.508h4.924a.508.508,0,0,1,.508.508v6.682A.508.508,0,0,1,1259.094,1106.047Zm-4.416-1.015h3.909v-5.667h-3.909Z" transform="translate(-1253.662 -1098.35)" fill="#0a1a33"/>
          </g>
          <g id="Grupo_1029434" data-name="Grupo 1029434" transform="translate(0 4.617)">
            <circle id="Elipse_8603" data-name="Elipse 8603" cx="7.454" cy="7.454" r="7.454" transform="translate(0 2.388) rotate(-9.217)" fill="#607486"/>
            <path id="Trazado_728561" data-name="Trazado 728561" d="M1233.773,1141.409a7.962,7.962,0,1,1,7.962-7.962A7.971,7.971,0,0,1,1233.773,1141.409Zm0-14.909a6.947,6.947,0,1,0,6.947,6.947A6.955,6.955,0,0,0,1233.773,1126.5Z" transform="translate(-1225.221 -1124.895)" fill="#0a1a33"/>
          </g>
          <g id="Grupo_1029435" data-name="Grupo 1029435" transform="translate(4.018 8.635)">
            <path id="Trazado_728562" data-name="Trazado 728562" d="M1250.347,1154.047a4.026,4.026,0,1,0-4.027-4.026A4.031,4.031,0,0,0,1250.347,1154.047Z" transform="translate(-1245.813 -1145.486)" fill="#a9c3df"/>
            <path id="Trazado_728563" data-name="Trazado 728563" d="M1248.209,1152.417a4.534,4.534,0,1,1,4.534-4.534A4.539,4.539,0,0,1,1248.209,1152.417Zm0-8.053a3.519,3.519,0,1,0,3.519,3.519A3.523,3.523,0,0,0,1248.209,1144.364Z" transform="translate(-1243.675 -1143.349)" fill="#0a1a33"/>
          </g>
        </g>
        <g id="Grupo_1029440" data-name="Grupo 1029440" transform="translate(30.796 94.54)">
          <g id="Grupo_1029437" data-name="Grupo 1029437" transform="translate(6.177)">
            <rect id="Rectángulo_350504" data-name="Rectángulo 350504" width="4.924" height="6.682" transform="translate(5.431 7.19) rotate(180)" fill="#a9c3df"/>
            <path id="Trazado_728564" data-name="Trazado 728564" d="M865.859,1106.047h-4.924a.508.508,0,0,1-.508-.508v-6.682a.508.508,0,0,1,.508-.508h4.924a.508.508,0,0,1,.508.508v6.682A.508.508,0,0,1,865.859,1106.047Zm-4.416-1.015h3.908v-5.667h-3.908Z" transform="translate(-860.428 -1098.35)" fill="#0a1a33"/>
          </g>
          <g id="Grupo_1029438" data-name="Grupo 1029438" transform="translate(0 4.374)">
            <circle id="Elipse_8604" data-name="Elipse 8604" cx="7.454" cy="7.454" r="7.454" transform="matrix(0.98, -0.2, 0.2, 0.98, 0, 2.982)" fill="#607486"/>
            <path id="Trazado_728565" data-name="Trazado 728565" d="M840.54,1141.409a7.962,7.962,0,1,1,7.962-7.962A7.971,7.971,0,0,1,840.54,1141.409Zm0-14.909a6.947,6.947,0,1,0,6.947,6.947A6.954,6.954,0,0,0,840.54,1126.5Z" transform="translate(-831.745 -1124.652)" fill="#0a1a33"/>
          </g>
          <g id="Grupo_1029439" data-name="Grupo 1029439" transform="translate(4.26 8.635)">
            <path id="Trazado_728566" data-name="Trazado 728566" d="M857.114,1154.047a4.026,4.026,0,1,0-4.027-4.026A4.031,4.031,0,0,0,857.114,1154.047Z" transform="translate(-852.579 -1145.486)" fill="#a9c3df"/>
            <path id="Trazado_728567" data-name="Trazado 728567" d="M854.976,1152.417a4.534,4.534,0,1,1,4.534-4.534A4.539,4.539,0,0,1,854.976,1152.417Zm0-8.053a3.519,3.519,0,1,0,3.519,3.519A3.523,3.523,0,0,0,854.976,1144.364Z" transform="translate(-850.442 -1143.349)" fill="#0a1a33"/>
          </g>
        </g>
        <g id="Grupo_1029442" data-name="Grupo 1029442">
          <g id="Grupo_1029441" data-name="Grupo 1029441">
            <path id="Trazado_728568" data-name="Trazado 728568" d="M794.368,703.443H698.583a1.468,1.468,0,0,1-1.468-1.468v-69.3a14.707,14.707,0,0,0-8.341-13.214L671.225,611.1a1.468,1.468,0,0,1,1.263-2.651l17.549,8.362a17.658,17.658,0,0,1,10.014,15.865v67.828h94.317a1.468,1.468,0,0,1,0,2.936Z" transform="translate(-669.881 -607.8)" fill="#607486"/>
            <path id="Trazado_728569" data-name="Trazado 728569" d="M792.233,701.81H696.448a1.978,1.978,0,0,1-1.976-1.976v-69.3a14.2,14.2,0,0,0-8.052-12.756l-17.549-8.362a1.976,1.976,0,1,1,1.7-3.567l17.549,8.362a18.168,18.168,0,0,1,10.3,16.323v67.32h93.809a1.976,1.976,0,0,1,0,3.952ZM669.722,606.676a.961.961,0,0,0-.414,1.828l17.549,8.362a15.217,15.217,0,0,1,8.63,13.672v69.3a.962.962,0,0,0,.961.961h95.785a.961.961,0,0,0,0-1.921H697.916a.508.508,0,0,1-.508-.508V630.538a17.147,17.147,0,0,0-9.725-15.406l-17.549-8.362A.958.958,0,0,0,669.722,606.676Z" transform="translate(-667.746 -605.66)" fill="#0a1a33"/>
          </g>
        </g>
        <g id="Grupo_1029443" data-name="Grupo 1029443" transform="translate(28.134 58.791)">
          <path id="Trazado_728570" data-name="Trazado 728570" d="M882.558,946.322a1.015,1.015,0,0,1-1.015-1.015v-8.561a22.692,22.692,0,0,0-22.666-22.666h-43.5a1.015,1.015,0,0,1,0-2.031h43.5a24.725,24.725,0,0,1,24.7,24.7v8.561A1.015,1.015,0,0,1,882.558,946.322Z" transform="translate(-814.363 -912.049)" fill="#0a1a33"/>
        </g>
      </g>
      <g id="Grupo_1029454" data-name="Grupo 1029454" transform="translate(1.515 53.358)">
        <g id="Grupo_1029449" data-name="Grupo 1029449">
          <g id="Grupo_1029445" data-name="Grupo 1029445" transform="translate(5.924 26.661)">
            <path id="Trazado_728571" data-name="Trazado 728571" d="M512.515,530.687l2.8,6.081,14.264,9.6,1.278-.232c2.212-.648,7.358-2.088,9.113-1.672a7.354,7.354,0,0,1,3.226,2.009.953.953,0,0,1,.151,1.25c-.407.532-1.666.265-1.666.265l-1.195-.569a1.054,1.054,0,0,0-1.234.244l-1.039,1.147a1.4,1.4,0,0,0,0,.292,6.486,6.486,0,0,0,1.88,2.86l2.953,2.854a.529.529,0,0,1,.073.327c-.057.431-.775.786-1.793.864l-.483-.054.269.136a1.909,1.909,0,0,1-.3,1.06,2,2,0,0,1-1.336.842l-1.2-.249-.127.381a2.644,2.644,0,0,1-.522.919,2.456,2.456,0,0,1-2.083.719c-1.1-.4-2.247-.58-3.35-.977a17.868,17.868,0,0,1-5.3-7.7l-15.267-4.67a6.084,6.084,0,0,1-3.65-2.783l-5.552-9.419Z" transform="translate(-501.913 -530.179)" fill="#ffa18d"/>
            <path id="Trazado_728572" data-name="Trazado 728572" d="M533.743,558.138c-.094,0-.174,0-.239-.005l-.086,0a.481.481,0,0,1-.184-.03c-.529-.19-1.063-.328-1.629-.475s-1.147-.3-1.72-.5a.5.5,0,0,1-.156-.09,18.38,18.38,0,0,1-5.368-7.673l-15.024-4.6a6.544,6.544,0,0,1-3.939-3.01l-5.553-9.419a.507.507,0,0,1,.27-.737l10.094-3.527a.507.507,0,0,1,.629.267l2.738,5.951,13.974,9.4,1.049-.19c4.872-1.424,8.017-1.987,9.347-1.671a7.786,7.786,0,0,1,3.472,2.148,1.424,1.424,0,0,1,.191,1.913c-.573.749-1.912.509-2.175.453a.514.514,0,0,1-.113-.038l-1.195-.569a.542.542,0,0,0-.639.126l-.913,1.008c0,.012,0,.025,0,.038a6.018,6.018,0,0,0,1.728,2.548l2.953,2.854a.5.5,0,0,1,.093.123,1.031,1.031,0,0,1,.13.635c-.087.663-.858,1.144-2.031,1.282a2.362,2.362,0,0,1-.357.937,2.515,2.515,0,0,1-1.683,1.065.5.5,0,0,1-.182,0l-.754-.157a3.126,3.126,0,0,1-.606,1.047A2.729,2.729,0,0,1,533.743,558.138Zm-.245-1.021h.045a1.849,1.849,0,0,0,1.564-.55,2.13,2.13,0,0,0,.421-.743l.128-.383a.507.507,0,0,1,.585-.336l1.1.229a1.457,1.457,0,0,0,.905-.6,1.342,1.342,0,0,0,.195-.485.508.508,0,0,1,.32-.938l.434.048a2.1,2.1,0,0,0,1.266-.406l-2.86-2.764c-.193-.187-1.895-1.866-2.032-3.172a1.914,1.914,0,0,1,0-.4.508.508,0,0,1,.129-.289l1.039-1.147a1.552,1.552,0,0,1,1.828-.362l1.137.542a1.579,1.579,0,0,0,1.1-.088.428.428,0,0,0-.1-.576l-.025-.026a6.884,6.884,0,0,0-2.966-1.855c-.653-.155-2.671-.144-8.853,1.665a.5.5,0,0,1-.053.012l-1.276.231a.507.507,0,0,1-.375-.078l-14.264-9.6a.507.507,0,0,1-.178-.209l-2.6-5.662-9.075,3.171,5.238,8.886a5.546,5.546,0,0,0,3.345,2.551l15.283,4.675a.508.508,0,0,1,.33.317,17.356,17.356,0,0,0,5.084,7.419c.5.175,1.009.306,1.544.444S532.95,556.924,533.5,557.116Z" transform="translate(-499.775 -528.041)" fill="#0a1a33"/>
          </g>
          <g id="Grupo_1029446" data-name="Grupo 1029446">
            <path id="Trazado_728573" data-name="Trazado 728573" d="M477.983,394.053a13.463,13.463,0,0,0-4.965-2.31,38.2,38.2,0,0,0-1.374,13.18c.788,10.924,3.715,18.59,6.237,21.745,3.276-2.592,8.988-5.223,12.265-7.815l-3.938-15.146s-.235-3.458-5.631-7.964Z" transform="translate(-471.039 -391.236)" fill="#fff"/>
            <path id="Trazado_728574" data-name="Trazado 728574" d="M475.742,425.038a.507.507,0,0,1-.4-.191c-2.413-3.018-5.523-10.6-6.347-22.025a38.612,38.612,0,0,1,1.392-13.355.508.508,0,0,1,.57-.362,13.876,13.876,0,0,1,5.167,2.39l2.587,1.685a.486.486,0,0,1,.048.036c5.2,4.343,5.754,7.779,5.807,8.265l3.928,15.107a.508.508,0,0,1-.176.526,55.808,55.808,0,0,1-6.193,3.948,55.134,55.134,0,0,0-6.073,3.866A.5.5,0,0,1,475.742,425.038Zm-4.5-34.826a37.558,37.558,0,0,0-1.227,12.538c.773,10.717,3.553,17.924,5.826,21.067a62.6,62.6,0,0,1,5.782-3.633,59.642,59.642,0,0,0,5.812-3.664L483.578,401.7a.513.513,0,0,1-.015-.093c-.092-1.131-1.346-4.174-5.427-7.59l-2.568-1.673-.014-.009A14.418,14.418,0,0,0,471.238,390.212Z" transform="translate(-468.9 -389.098)" fill="#0a1a33"/>
          </g>
          <g id="Grupo_1029447" data-name="Grupo 1029447" transform="translate(41.713 51.448)">
            <line id="Línea_2744" data-name="Línea 2744" x1="2.901" y1="0.613" transform="translate(0.508 0.508)" fill="#ffa18d"/>
            <path id="Trazado_728575" data-name="Trazado 728575" d="M689.7,658.848a.51.51,0,0,1-.106-.011l-2.9-.613a.508.508,0,0,1,.21-.993l2.9.613a.508.508,0,0,1-.1,1Z" transform="translate(-686.288 -657.219)" fill="#0a1a33"/>
          </g>
          <g id="Grupo_1029448" data-name="Grupo 1029448" transform="translate(39.278 53.275)">
            <line id="Línea_2745" data-name="Línea 2745" x1="2.502" y1="0.439" transform="translate(0.508 0.508)" fill="#ffa18d"/>
            <path id="Trazado_728576" data-name="Trazado 728576" d="M676.6,668.194a.523.523,0,0,1-.088-.008l-2.5-.439a.508.508,0,1,1,.175-1l2.5.439a.508.508,0,0,1-.087,1.008Z" transform="translate(-673.595 -666.739)" fill="#0a1a33"/>
          </g>
        </g>
        <g id="Grupo_1029453" data-name="Grupo 1029453" transform="translate(28.612 39.81)">
          <g id="Grupo_1029450" data-name="Grupo 1029450">
            <path id="Trazado_728577" data-name="Trazado 728577" d="M623.7,600.259s-3.734,5.543-2.917,6.185,1.809.117,1.75.933,3.851,6.826,5.718,7.41a10.626,10.626,0,0,0,4.376.409c.642-.117,1.575-1.692,1.575-1.692a12.137,12.137,0,0,0,2.509-1.459c.35-.467,1.342-.292,1.75-.934a1.732,1.732,0,0,0-.583-2.159c-.7-.583-4.084-2.917-3.909-4.2s.817-2.334,1.984-1.75,3.5.758,3.617-.233-2.509-3.092-3.967-3.5-7.351.992-8.752,1.575S623.7,600.259,623.7,600.259Z" transform="translate(-620.152 -598.69)" fill="#fcf8c8"/>
            <path id="Trazado_728578" data-name="Trazado 728578" d="M629.388,613.658a11.9,11.9,0,0,1-3.437-.507c-1.247-.39-2.942-2.552-3.842-3.806-.093-.13-2.256-3.156-2.232-4.1-.065-.013-.154-.026-.225-.035a2.559,2.559,0,0,1-1.331-.488c-.513-.4-.535-1.234,1.024-3.983.831-1.466,1.776-2.871,1.785-2.885a.507.507,0,0,1,.7-.139c.03.019,1.551,1.006,2.674.538,1.371-.571,7.427-2.06,9.084-1.6,1.455.407,4.5,2.631,4.335,4.049a1.157,1.157,0,0,1-.637.887,4.831,4.831,0,0,1-3.712-.258c-.369-.185-.545-.092-.6-.061a1.96,1.96,0,0,0-.651,1.426c-.072.527,1.012,1.652,3.222,3.345.22.168.4.3.509.4a2.223,2.223,0,0,1,.687,2.821,2,2,0,0,1-1.284.775,1.323,1.323,0,0,0-.489.191,9.547,9.547,0,0,1-2.561,1.55c-.361.585-1.115,1.664-1.839,1.8A7,7,0,0,1,629.388,613.658Zm-8.5-8.386c.125.927,3.812,6.425,5.361,6.909a10.2,10.2,0,0,0,4.134.393,4.212,4.212,0,0,0,1.229-1.452.509.509,0,0,1,.225-.2,11.426,11.426,0,0,0,2.315-1.3,1.763,1.763,0,0,1,1.035-.561c.358-.1.584-.169.693-.34a1.247,1.247,0,0,0-.48-1.5c-.1-.087-.271-.214-.476-.372-1.838-1.408-3.784-3.016-3.611-4.288a2.769,2.769,0,0,1,1.183-2.187,1.607,1.607,0,0,1,1.531.051,4,4,0,0,0,2.775.273c.1-.056.109-.1.111-.112.063-.531-2.123-2.539-3.6-2.953-1.214-.339-6.916.929-8.419,1.555a3.981,3.981,0,0,1-3.186-.376c-1.521,2.311-2.7,4.568-2.69,5.162a1.79,1.79,0,0,0,.768.228C620.166,604.256,620.946,604.363,620.893,605.272Zm0,.015v0Zm-.937-.02h0Zm-.927-1.234h0Zm2.524-5.9h0Z" transform="translate(-618.009 -596.569)" fill="#0a1a33"/>
          </g>
          <g id="Grupo_1029451" data-name="Grupo 1029451" transform="translate(12.13 10.623)">
            <path id="Trazado_728579" data-name="Trazado 728579" d="M687.952,656.361a17.3,17.3,0,0,1-4.084-1.787" transform="translate(-683.36 -654.066)" fill="#fff"/>
            <path id="Trazado_728580" data-name="Trazado 728580" d="M685.815,654.73a.5.5,0,0,1-.144-.021,17.537,17.537,0,0,1-4.24-1.864.508.508,0,0,1,.6-.82,16.9,16.9,0,0,0,3.929,1.71.508.508,0,0,1-.144.995Z" transform="translate(-681.222 -651.928)" fill="#0a1a33"/>
          </g>
          <g id="Grupo_1029452" data-name="Grupo 1029452" transform="translate(9.628 12.818)">
            <path id="Trazado_728581" data-name="Trazado 728581" d="M674.508,667.444a13.867,13.867,0,0,1-3.676-1.43" transform="translate(-670.324 -665.506)" fill="#fff"/>
            <path id="Trazado_728582" data-name="Trazado 728582" d="M672.37,665.813a.522.522,0,0,1-.113-.013,14.232,14.232,0,0,1-3.838-1.5.508.508,0,0,1,.549-.854,13.435,13.435,0,0,0,3.514,1.361.508.508,0,0,1-.112,1Z" transform="translate(-668.186 -663.368)" fill="#0a1a33"/>
          </g>
        </g>
      </g>
      <g id="Grupo_1029481" data-name="Grupo 1029481" transform="translate(14.464 0)">
        <g id="Grupo_1029455" data-name="Grupo 1029455" transform="translate(6.933 28.985)">
          <path id="Trazado_728583" data-name="Trazado 728583" d="M587.352,272.711l-2.914,14.183-9.245-12.92-.039-9.251H587.2Z" transform="translate(-574.647 -264.215)" fill="#ffa18d"/>
          <path id="Trazado_728584" data-name="Trazado 728584" d="M582.3,285.263a.507.507,0,0,1-.413-.212l-9.245-12.92a.508.508,0,0,1-.095-.293l-.039-9.251a.507.507,0,0,1,.508-.51h12.046a.507.507,0,0,1,.508.5l.152,7.989a.508.508,0,0,1-.01.112L582.8,284.858a.508.508,0,0,1-.392.394A.5.5,0,0,1,582.3,285.263Zm-8.738-13.591,8.475,11.843,2.669-12.989-.141-7.434H573.526Z" transform="translate(-572.509 -262.077)" fill="#0a1a33"/>
        </g>
        <g id="Grupo_1029473" data-name="Grupo 1029473" transform="translate(0 2.013)">
          <g id="Grupo_1029456" data-name="Grupo 1029456" transform="translate(2.339)">
            <rect id="Rectángulo_350505" data-name="Rectángulo 350505" width="22.718" height="30.893" rx="11.359" transform="translate(0.508 0.508)" fill="#0a1a33"/>
            <path id="Trazado_728585" data-name="Trazado 728585" d="M560.439,153.422a11.88,11.88,0,0,1-11.867-11.867v-8.174a11.867,11.867,0,1,1,23.734,0v8.174A11.88,11.88,0,0,1,560.439,153.422Zm0-30.893a10.864,10.864,0,0,0-10.852,10.851v8.174a10.852,10.852,0,0,0,21.7,0v-8.174A10.864,10.864,0,0,0,560.439,122.529Z" transform="translate(-548.572 -121.514)" fill="#0a1a33"/>
          </g>
          <g id="Grupo_1029457" data-name="Grupo 1029457" transform="translate(0 18.472)">
            <rect id="Rectángulo_350506" data-name="Rectángulo 350506" width="27.818" height="5.035" rx="2.518" transform="translate(0.508 0.508)" fill="#ffa18d"/>
            <path id="Trazado_728586" data-name="Trazado 728586" d="M562.188,223.829H539.405a3.025,3.025,0,0,1,0-6.051h22.782a3.025,3.025,0,1,1,0,6.051Zm-22.782-5.035a2.01,2.01,0,0,0,0,4.02h22.782a2.01,2.01,0,0,0,0-4.02Z" transform="translate(-536.38 -217.778)" fill="#0a1a33"/>
          </g>
          <g id="Grupo_1029458" data-name="Grupo 1029458" transform="translate(3.775 4.053)">
            <path id="Rectángulo_350507" data-name="Rectángulo 350507" d="M9.287,0h2.03A9.287,9.287,0,0,1,20.6,9.287v10.1a10.3,10.3,0,0,1-10.3,10.3h0A10.3,10.3,0,0,1,0,19.383V9.287A9.287,9.287,0,0,1,9.287,0Z" transform="translate(0.508 0.508)" fill="#ffa18d"/>
            <path id="Trazado_728587" data-name="Trazado 728587" d="M566.862,173.335a10.822,10.822,0,0,1-10.81-10.81v-10.1a9.806,9.806,0,0,1,9.795-9.795h2.03a9.806,9.806,0,0,1,9.795,9.795v10.1A10.822,10.822,0,0,1,566.862,173.335Zm-1.015-29.685a8.789,8.789,0,0,0-8.779,8.779v10.1a9.794,9.794,0,1,0,19.589,0v-10.1a8.789,8.789,0,0,0-8.779-8.779Z" transform="translate(-556.052 -142.635)" fill="#0a1a33"/>
          </g>
          <g id="Grupo_1029459" data-name="Grupo 1029459" transform="translate(10.358 14.483)">
            <path id="Trazado_728588" data-name="Trazado 728588" d="M594.351,199.018a.5.5,0,0,1-.278-.083,7.2,7.2,0,0,0-3.221-.928.508.508,0,1,1,.029-1.015,8.165,8.165,0,0,1,3.748,1.094.508.508,0,0,1-.279.932Z" transform="translate(-590.359 -196.992)" fill="#0a1a33"/>
          </g>
          <g id="Grupo_1029460" data-name="Grupo 1029460" transform="translate(18.95 14.382)">
            <path id="Trazado_728589" data-name="Trazado 728589" d="M635.648,198.567a.508.508,0,0,1-.251-.949,13.085,13.085,0,0,1,2.767-1.136.508.508,0,0,1,.256.982A12.257,12.257,0,0,0,635.9,198.5.506.506,0,0,1,635.648,198.567Z" transform="translate(-635.14 -196.465)" fill="#0a1a33"/>
          </g>
          <g id="Grupo_1029461" data-name="Grupo 1029461" transform="translate(12.293 18.13)">
            <path id="Trazado_728590" data-name="Trazado 728590" d="M601.956,216.755A.755.755,0,1,1,601.2,216,.755.755,0,0,1,601.956,216.755Z" transform="translate(-600.446 -216)" fill="#0a1a33"/>
          </g>
          <g id="Grupo_1029462" data-name="Grupo 1029462" transform="translate(19.636 18.13)">
            <path id="Trazado_728591" data-name="Trazado 728591" d="M640.22,216.755a.755.755,0,1,1-.755-.755A.755.755,0,0,1,640.22,216.755Z" transform="translate(-638.71 -216)" fill="#0a1a33"/>
          </g>
          <g id="Grupo_1029465" data-name="Grupo 1029465" transform="translate(1.457 20.38)">
            <g id="Grupo_1029463" data-name="Grupo 1029463">
              <path id="Trazado_728592" data-name="Trazado 728592" d="M546.446,230.1a.3.3,0,0,1-.239-.115,10.827,10.827,0,0,0-2.091-1.7.3.3,0,0,1,.325-.515,11.188,11.188,0,0,1,2.244,1.836.3.3,0,0,1-.239.494Z" transform="translate(-543.974 -227.722)" fill="#0a1a33"/>
            </g>
            <g id="Grupo_1029464" data-name="Grupo 1029464" transform="translate(0.6 1.001)">
              <path id="Trazado_728593" data-name="Trazado 728593" d="M547.407,234.412a.3.3,0,0,1-.228-.506l.767-.867a.3.3,0,0,1,.456.4l-.767.867A.3.3,0,0,1,547.407,234.412Z" transform="translate(-547.103 -232.936)" fill="#0a1a33"/>
            </g>
          </g>
          <g id="Grupo_1029468" data-name="Grupo 1029468" transform="translate(24.701 20.38)">
            <g id="Grupo_1029466" data-name="Grupo 1029466">
              <path id="Trazado_728594" data-name="Trazado 728594" d="M665.414,230.632a.3.3,0,0,1-.24-.492l1.8-2.3a.3.3,0,1,1,.48.375l-1.8,2.3A.3.3,0,0,1,665.414,230.632Z" transform="translate(-665.11 -227.722)" fill="#0a1a33"/>
            </g>
            <g id="Grupo_1029467" data-name="Grupo 1029467" transform="translate(1.034 1.1)">
              <path id="Trazado_728595" data-name="Trazado 728595" d="M671.536,234.666a.3.3,0,0,1-.193-.069l-.734-.6a.3.3,0,0,1,.386-.472l.734.6a.3.3,0,0,1-.193.54Z" transform="translate(-670.498 -233.457)" fill="#0a1a33"/>
            </g>
          </g>
          <g id="Grupo_1029471" data-name="Grupo 1029471" transform="translate(11.453 26.537)">
            <path id="Trazado_728597" data-name="Trazado 728597" d="M602.5,262.194h-.006a11.8,11.8,0,0,1-6.3-1.833.3.3,0,0,1,.356-.495,11.409,11.409,0,0,0,5.951,1.719.3.3,0,0,1-.005.609Z" transform="translate(-596.068 -259.809)" fill="#0a1a33"/>
          </g>
          <g id="Grupo_1029472" data-name="Grupo 1029472" transform="translate(15.248 16.775)">
            <path id="Trazado_728598" data-name="Trazado 728598" d="M618.037,216.247c-.564,0-1.271-.017-1.9-.037a.3.3,0,0,1-.3-.314.3.3,0,0,1,.314-.295c.994.031,2.094.047,2.539.027-.005-.783-.377-3.724-.761-6.346a.3.3,0,0,1,.6-.088c1,6.839.809,6.9.518,7A5.446,5.446,0,0,1,618.037,216.247Z" transform="translate(-615.842 -208.934)" fill="#0a1a33"/>
          </g>
        </g>
        <g id="Grupo_1029474" data-name="Grupo 1029474" transform="translate(4.761 35.784)">
          <path id="Trazado_728599" data-name="Trazado 728599" d="M566.1,300.154l6.528,11.648-5.086,4.62-3.707-12.973Z" transform="translate(-563.331 -299.647)" fill="#fff"/>
          <path id="Trazado_728600" data-name="Trazado 728600" d="M565.407,314.792a.508.508,0,0,1-.488-.368l-3.706-12.973a.507.507,0,0,1,.07-.427l2.265-3.295a.515.515,0,0,1,.441-.22.508.508,0,0,1,.42.259l6.528,11.647a.508.508,0,0,1-.1.624l-5.086,4.62A.507.507,0,0,1,565.407,314.792Zm-3.153-13.39,3.416,11.957,4.182-3.8-5.931-10.583Z" transform="translate(-561.193 -297.509)" fill="#0a1a33"/>
        </g>
        <g id="Grupo_1029475" data-name="Grupo 1029475" transform="translate(17.02 37.113)">
          <path id="Trazado_728601" data-name="Trazado 728601" d="M629.946,307.081l2.883,3.295.618,9.472-5.723-2.258Z" transform="translate(-627.216 -306.573)" fill="#fff"/>
          <path id="Trazado_728602" data-name="Trazado 728602" d="M631.308,318.217a.511.511,0,0,1-.186-.035l-5.723-2.259a.508.508,0,0,1-.31-.577l2.222-10.509a.508.508,0,0,1,.879-.229l2.883,3.295a.508.508,0,0,1,.125.3l.618,9.472a.508.508,0,0,1-.507.541Zm-5.137-3.081,4.579,1.807-.554-8.5-2.1-2.4Z" transform="translate(-625.078 -304.434)" fill="#0a1a33"/>
        </g>
        <g id="Grupo_1029478" data-name="Grupo 1029478" transform="translate(1.65)">
          <g id="Grupo_1029476" data-name="Grupo 1029476">
            <path id="Trazado_728603" data-name="Trazado 728603" d="M549.3,128.014l-1.47.768s-2.03-10.289,7.081-14.127,15.869,3.825,16.059,9.756C570.967,124.411,556.584,124.629,549.3,128.014Z" transform="translate(-547.124 -113.123)" fill="#ffa031"/>
            <path id="Trazado_728604" data-name="Trazado 728604" d="M545.681,127.189a.508.508,0,0,1-.5-.409,16.117,16.117,0,0,1,.125-5.825,11.868,11.868,0,0,1,7.257-8.868,11.62,11.62,0,0,1,11.071.712,12.4,12.4,0,0,1,5.693,9.5.508.508,0,0,1-.5.524c-.143,0-14.345.256-21.453,3.551l-1.46.762A.508.508,0,0,1,545.681,127.189ZM557.6,112.022a11.9,11.9,0,0,0-4.645,1,10.732,10.732,0,0,0-6.65,8.1,15.746,15.746,0,0,0-.225,4.772l.832-.435.021-.01c3.073-1.427,7.692-2.476,13.728-3.115,3.477-.369,6.446-.487,7.616-.522a11.485,11.485,0,0,0-5.193-8.163A10.093,10.093,0,0,0,557.6,112.022Z" transform="translate(-544.979 -111.022)" fill="#0a1a33"/>
          </g>
          <g id="Grupo_1029477" data-name="Grupo 1029477" transform="translate(2.266 9.876)">
            <path id="Trazado_728605" data-name="Trazado 728605" d="M559.869,169.494a2.234,2.234,0,0,0,1.376.125,47.988,47.988,0,0,1,14.379-1.116c7.219.766,12.207,1.772,12.367,1.574s-5.137-2.985-8.359-4.243-11.732-1.246-20.2,3.523C559.435,169.356,559.508,169.339,559.869,169.494Z" transform="translate(-558.927 -164.622)" fill="#ff7a00"/>
            <path id="Trazado_728606" data-name="Trazado 728606" d="M585.72,168.477a29.4,29.4,0,0,1-2.957-.379c-2.164-.322-5.433-.81-9.331-1.223a47.91,47.91,0,0,0-14.213,1.106,2.727,2.727,0,0,1-1.689-.153h0a2.058,2.058,0,0,0-.26-.1.508.508,0,0,1-.223-.949c8.4-4.729,17.119-4.925,20.631-3.553,1.417.553,3.428,1.48,5.379,2.48,3.167,1.623,3.229,1.86,3.29,2.089a.545.545,0,0,1-.1.467C586.135,168.4,586.048,168.477,585.72,168.477Zm-28.326-.755h0Zm0,0h0Zm0,0h0Zm0,0h0Zm0,0h0Zm.005,0h0Zm0,0h0Zm0,0h0Zm0,0h0Zm0,0h0Zm0,0h0Zm0,0h0Zm0,0h0Zm12.619-2.029a33.326,33.326,0,0,1,3.51.177c3.92.416,7.2.905,9.374,1.229l.839.125a67.907,67.907,0,0,0-6.443-3.045c-3.165-1.235-10.859-1.092-18.581,2.857a1.767,1.767,0,0,0,.265-.039A52.328,52.328,0,0,1,570.029,165.689Z" transform="translate(-556.788 -162.489)" fill="#0a1a33"/>
          </g>
        </g>
        <g id="Grupo_1029479" data-name="Grupo 1029479" transform="translate(3.432 5.189)">
          <path id="Trazado_728607" data-name="Trazado 728607" d="M554.57,144.682h-.015a.3.3,0,0,1-.289-.319,11.837,11.837,0,0,1,2.292-6.185.3.3,0,0,1,.475.382,11.427,11.427,0,0,0-2.159,5.833A.3.3,0,0,1,554.57,144.682Z" transform="translate(-554.265 -138.064)" fill="#0a1a33"/>
        </g>
        <g id="Grupo_1029480" data-name="Grupo 1029480" transform="translate(7.215 2.128)">
          <path id="Trazado_728608" data-name="Trazado 728608" d="M574.287,124.448a.3.3,0,0,1-.221-.515,8.245,8.245,0,0,1,2.671-1.8.3.3,0,1,1,.219.569,7.714,7.714,0,0,0-2.448,1.651A.3.3,0,0,1,574.287,124.448Z" transform="translate(-573.983 -122.114)" fill="#0a1a33"/>
        </g>
      </g>
    </g>
  </g>
</svg>
