<svg xmlns="http://www.w3.org/2000/svg" xmlns:xlink="http://www.w3.org/1999/xlink" width="403.856" height="440" viewBox="0 0 403.856 440">
  <defs>
    <clipPath id="clip-path">
      <rect id="Rect치ngulo_33841" data-name="Rect치ngulo 33841" width="336.194" height="280.372" fill="none"/>
    </clipPath>
    <clipPath id="clip-path-2">
      <rect id="Rect치ngulo_350198" data-name="Rect치ngulo 350198" width="403.856" height="376.676" fill="none"/>
    </clipPath>
  </defs>
  <g id="Grupo_1029606" data-name="Grupo 1029606" transform="translate(-1020 -2652.862)">
    <g id="Grupo_1026554" data-name="Grupo 1026554" transform="translate(1395.83 2942.582) rotate(180)">
      <path id="Trazado_113636" data-name="Trazado 113636" d="M276.945,138.472A138.472,138.472,0,1,0,138.472,276.945,138.472,138.472,0,0,0,276.945,138.472" transform="translate(0 12.776)" fill="#0078bb"/>
      <path id="Trazado_113637" data-name="Trazado 113637" d="M200.676,100.338A100.338,100.338,0,1,0,100.338,200.676,100.338,100.338,0,0,0,200.676,100.338" transform="translate(159.353 12.776)" fill="#065958"/>
      <path id="Trazado_113638" data-name="Trazado 113638" d="M161.107,80.553a80.554,80.554,0,1,0-80.554,80.554,80.554,80.554,0,0,0,80.554-80.554" transform="translate(179.138 32.56)" fill="#fff"/>
      <path id="Trazado_113665" data-name="Trazado 113665" d="M6.189,3.094A3.094,3.094,0,1,0,3.095,6.189,3.094,3.094,0,0,0,6.189,3.094" transform="translate(32.534 223.165)" fill="#fff"/>
      <path id="Trazado_113666" data-name="Trazado 113666" d="M6.189,3.094A3.094,3.094,0,1,0,3.095,6.189,3.094,3.094,0,0,0,6.189,3.094" transform="translate(46.149 223.165)" fill="#fff"/>
      <path id="Trazado_113667" data-name="Trazado 113667" d="M6.189,3.094A3.094,3.094,0,1,0,3.095,6.189,3.094,3.094,0,0,0,6.189,3.094" transform="translate(59.765 223.165)" fill="#fff"/>
      <path id="Trazado_113668" data-name="Trazado 113668" d="M6.189,3.094A3.095,3.095,0,1,0,3.095,6.189,3.095,3.095,0,0,0,6.189,3.094" transform="translate(73.38 223.165)" fill="#fff"/>
      <path id="Trazado_113669" data-name="Trazado 113669" d="M6.189,3.094A3.094,3.094,0,1,0,3.095,6.189,3.094,3.094,0,0,0,6.189,3.094" transform="translate(86.996 223.165)" fill="#fff"/>
      <path id="Trazado_113670" data-name="Trazado 113670" d="M6.189,3.094A3.094,3.094,0,1,0,3.095,6.189,3.094,3.094,0,0,0,6.189,3.094" transform="translate(32.534 210.169)" fill="#fff"/>
      <path id="Trazado_113671" data-name="Trazado 113671" d="M6.189,3.094A3.094,3.094,0,1,0,3.095,6.189,3.094,3.094,0,0,0,6.189,3.094" transform="translate(46.149 210.169)" fill="#fff"/>
      <path id="Trazado_113672" data-name="Trazado 113672" d="M6.189,3.094A3.094,3.094,0,1,0,3.095,6.189,3.094,3.094,0,0,0,6.189,3.094" transform="translate(59.765 210.169)" fill="#fff"/>
      <path id="Trazado_113673" data-name="Trazado 113673" d="M6.189,3.094A3.095,3.095,0,1,0,3.095,6.189,3.095,3.095,0,0,0,6.189,3.094" transform="translate(73.38 210.169)" fill="#fff"/>
      <path id="Trazado_113674" data-name="Trazado 113674" d="M6.189,3.094A3.094,3.094,0,1,0,3.095,6.189,3.094,3.094,0,0,0,6.189,3.094" transform="translate(86.996 210.169)" fill="#fff"/>
      <path id="Trazado_113675" data-name="Trazado 113675" d="M6.189,3.094A3.094,3.094,0,1,0,3.095,6.188,3.094,3.094,0,0,0,6.189,3.094" transform="translate(32.534 197.172)" fill="#fff"/>
      <path id="Trazado_113676" data-name="Trazado 113676" d="M6.189,3.094A3.094,3.094,0,1,0,3.095,6.188,3.094,3.094,0,0,0,6.189,3.094" transform="translate(46.149 197.172)" fill="#fff"/>
      <path id="Trazado_113677" data-name="Trazado 113677" d="M6.189,3.094A3.094,3.094,0,1,0,3.095,6.188,3.094,3.094,0,0,0,6.189,3.094" transform="translate(59.765 197.172)" fill="#fff"/>
      <path id="Trazado_113678" data-name="Trazado 113678" d="M6.189,3.094A3.095,3.095,0,1,0,3.095,6.188,3.095,3.095,0,0,0,6.189,3.094" transform="translate(73.38 197.172)" fill="#fff"/>
      <path id="Trazado_113679" data-name="Trazado 113679" d="M6.189,3.094A3.094,3.094,0,1,0,3.095,6.188,3.094,3.094,0,0,0,6.189,3.094" transform="translate(86.996 197.172)" fill="#fff"/>
      <path id="Trazado_113680" data-name="Trazado 113680" d="M6.189,3.094A3.094,3.094,0,1,0,3.095,6.189,3.094,3.094,0,0,0,6.189,3.094" transform="translate(32.534 184.175)" fill="#fff"/>
      <path id="Trazado_113681" data-name="Trazado 113681" d="M6.189,3.094A3.094,3.094,0,1,0,3.095,6.189,3.094,3.094,0,0,0,6.189,3.094" transform="translate(46.149 184.175)" fill="#fff"/>
      <path id="Trazado_113682" data-name="Trazado 113682" d="M6.189,3.094A3.094,3.094,0,1,0,3.095,6.189,3.094,3.094,0,0,0,6.189,3.094" transform="translate(59.765 184.175)" fill="#fff"/>
      <path id="Trazado_113683" data-name="Trazado 113683" d="M6.189,3.094A3.095,3.095,0,1,0,3.095,6.189,3.095,3.095,0,0,0,6.189,3.094" transform="translate(73.38 184.175)" fill="#fff"/>
      <path id="Trazado_113684" data-name="Trazado 113684" d="M6.189,3.094A3.094,3.094,0,1,0,3.095,6.189,3.094,3.094,0,0,0,6.189,3.094" transform="translate(86.996 184.175)" fill="#fff"/>
      <path id="Trazado_113685" data-name="Trazado 113685" d="M6.189,3.094A3.094,3.094,0,1,0,3.095,6.189,3.094,3.094,0,0,0,6.189,3.094" transform="translate(32.534 171.179)" fill="#fff"/>
      <path id="Trazado_113686" data-name="Trazado 113686" d="M6.189,3.094A3.094,3.094,0,1,0,3.095,6.189,3.094,3.094,0,0,0,6.189,3.094" transform="translate(46.149 171.179)" fill="#fff"/>
      <path id="Trazado_113687" data-name="Trazado 113687" d="M6.189,3.094A3.094,3.094,0,1,0,3.095,6.189,3.094,3.094,0,0,0,6.189,3.094" transform="translate(59.765 171.179)" fill="#fff"/>
      <path id="Trazado_113688" data-name="Trazado 113688" d="M6.189,3.094A3.095,3.095,0,1,0,3.095,6.189,3.095,3.095,0,0,0,6.189,3.094" transform="translate(73.38 171.179)" fill="#fff"/>
      <path id="Trazado_113689" data-name="Trazado 113689" d="M6.189,3.094A3.094,3.094,0,1,0,3.095,6.189,3.094,3.094,0,0,0,6.189,3.094" transform="translate(86.996 171.179)" fill="#fff"/>
      <g id="Grupo_1002336" data-name="Grupo 1002336" transform="translate(37.456 0)" opacity="0.251">
        <g id="Grupo_80323" data-name="Grupo 80323" clip-path="url(#clip-path)">
          <path id="Trazado_113615" data-name="Trazado 113615" d="M214.824,4.408c-3.175.246-6.416.386-9.734.361-17.558-.133-34.731-4.95-52.4-4.764C115.261.4,76.737,4.355,44.386,28.8-27.287,82.951-3.793,198.952,55.623,246.575c31.571,25.305,70.9,33.043,108.571,33.758,48.5.921,110.708-14.719,145.458-56.345,24.21-29,30.23-96.573,24.57-134.861-4.5-30.476-21.412-59.216-42.77-75.945-26.636-20.862-49.219-10.9-76.627-8.775" transform="translate(0 0)" fill="#e0f4fe"/>
        </g>
      </g>
    </g>
    <g id="Grupo_1026556" data-name="Grupo 1026556" transform="translate(1020 2716.186)">
      <g id="Grupo_1026555" data-name="Grupo 1026555" transform="translate(0 0)" clip-path="url(#clip-path-2)">
        <path id="Trazado_727453" data-name="Trazado 727453" d="M0,439.893c0,4.379,90.406,7.929,201.927,7.929s201.928-3.549,201.928-7.929-90.406-7.929-201.928-7.929S0,435.513,0,439.893" transform="translate(0 -71.145)" fill="#84ceca"/>
        <path id="Trazado_727454" data-name="Trazado 727454" d="M138.29,176.986c.64-13.044,3.913-80.109,4.1-89.606.211-10.528,3.159-29.479,9.181-33.059s12.844.843,12.844.843c9.462,4.44,7.98,103.643,7.545,125.181-10.742.231-22.887-.455-33.673-3.36" transform="translate(116.03 -8.717)" fill="#ffa031"/>
        <path id="Trazado_727455" data-name="Trazado 727455" d="M200.132,137.279S183.621,144.5,183.919,149.7s-5.054,16.213,4,18.95,26.74-1.474,12.212-31.374" transform="translate(45.657 -22.61)" fill="#ffa031"/>
        <path id="Trazado_727456" data-name="Trazado 727456" d="M24.767,390.29a15.661,15.661,0,0,1-5.56,3.7c-.426-.414-2.554-.809-3.128-2.666-.627-2.032,1.412-3.009,3.305-6.384s.237-5.4.057-9.925-7.9-7.385-7.429-9.091,4.512-4.2,7.437-7.967S22.7,352.93,22.7,352.93c3.3-.442,3.782,2.64,5.88,4.278s2.868,1.2,6.342,2.437a13.083,13.083,0,0,1,5.034,2.956,65.6,65.6,0,0,1-3.876,10.2c-2.643,5.548-8.436,14.391-11.318,17.494" transform="translate(353.879 -58.121)" fill="#2e2e47"/>
        <path id="Trazado_727457" data-name="Trazado 727457" d="M5.683,396.006a.233.233,0,0,0-.074-.119,15.654,15.654,0,0,0,5.559-3.7c2.883-3.1,8.676-11.946,11.318-17.494a65.664,65.664,0,0,0,3.877-10.2,1.366,1.366,0,0,1,1.2.029c.721.312,3.958,1.392,4.13,2.252s-3.68,7.19-4.43,8.5-2.076.054-2.808.211-2.267,3.578-2.949,5.008.062.806.525,1.293-.276,1.027-1.867,3.561-8.9,10.3-9.926,11.437a2.806,2.806,0,0,1-3.415.773,1.676,1.676,0,0,1-1.134-1.55" transform="translate(367.477 -60.013)" fill="#cc8b70"/>
        <path id="Trazado_727458" data-name="Trazado 727458" d="M196.92,438.148a15.663,15.663,0,0,1-6.215-2.45c.1-.586-.794-2.559.4-4.09,1.311-1.676,3.277-.559,7.128-.932s4.567-2.886,8.182-5.618,1.552-10.7,3.223-11.29,6.021,1.309,10.787,1.558,5.989-.2,5.989-.2c2.246,2.456-.008,4.612-.155,7.27s.653,3.04,1.62,6.6a13.088,13.088,0,0,1,.448,5.821,65.618,65.618,0,0,1-10.585,2.639c-6.063,1-16.631,1.289-20.824.694" transform="translate(16.283 -68.13)" fill="#2e2e47"/>
        <path id="Trazado_727459" data-name="Trazado 727459" d="M189.67,440a.233.233,0,0,0,.056-.129,15.666,15.666,0,0,0,6.215,2.45c4.194.595,14.761.3,20.825-.7a65.573,65.573,0,0,0,10.584-2.638,1.364,1.364,0,0,1,.659,1c.155.77,1.118,4.044.509,4.676s-8,1.083-9.509,1.215-1.23-1.673-1.775-2.185-4.233.181-5.8.438-.626.51-.762,1.168-1,.36-3.989.5-13.542-1.425-15.056-1.62a2.806,2.806,0,0,1-2.584-2.362A1.676,1.676,0,0,1,189.67,440" transform="translate(17.263 -72.302)" fill="#cc8b70"/>
        <path id="Trazado_727460" data-name="Trazado 727460" d="M72.819,188.013l7.669,65.969,64.659,73.338c.238,1.337-16.679,21.1-17.914,18.042,0,0-64.314-51.437-75.076-66.754C38.172,258.7,22.576,185.9,22.576,185.9Z" transform="translate(239.849 -30.618)" fill="#ffa031"/>
        <path id="Trazado_727461" data-name="Trazado 727461" d="M137.6,197.973l1.374,11.821c-9.78.246-32.56-5.559-32.56-5.559Z" transform="translate(175.994 -32.606)" fill="#2e2e47"/>
        <path id="Trazado_727462" data-name="Trazado 727462" d="M204.415,186.81,176.08,382.6c-.479,1.27-27.993-3.055-27.487-6.317l15.521-214.009Z" transform="translate(75.327 -26.727)" fill="#ffa031"/>
        <path id="Trazado_727463" data-name="Trazado 727463" d="M165.039,235.406a.286.286,0,0,0,.064-.007.331.331,0,0,0,.261-.388c-.2-.986-4.842-24.181-9.6-27.281a.331.331,0,0,0-.362.554c1.85,1.206,4.045,6.218,6.347,14.493,1.753,6.3,2.949,12.3,2.961,12.362a.331.331,0,0,0,.324.266" transform="translate(108.8 -34.205)" fill="#2e2e47"/>
        <path id="Trazado_727464" data-name="Trazado 727464" d="M100.184,290.64c.482,0,1.722-.651,6.94-7.256,1.539-1.948,3.281-4.253,4.447-5.849-.368,1.129-.9,2.8-1.431,4.542-2.113,6.973-1.915,7.835-1.849,8.118a.5.5,0,0,0,.425.435c.387.043.966.111,3.831-7.491,1.372-3.644,2.621-7.352,2.634-7.388a.331.331,0,1,0-.626-.211c-2.116,6.285-4.683,12.975-5.647,14.246.024-1.936,3-11.3,4-14.17l0-.008.074-.222-.366-.3-.2.126c-.043.028-.071.045-.128.18l-.009,0c-.493.945-10.279,13.982-12.029,14.558a1.316,1.316,0,0,1,.015-.184c.549-3.842,15.77-22.03,15.924-22.214a.331.331,0,1,0-.506-.425c-.633.754-15.5,18.518-16.073,22.546-.1.677.169.887.408.943a.667.667,0,0,0,.164.023" transform="translate(204.399 -43.977)" fill="#2e2e47"/>
        <path id="Trazado_727465" data-name="Trazado 727465" d="M148.216,54.609s-6.822-4.422-12.844-.842c-1.317.783,1.087,5.054.737,7.28a216.421,216.421,0,0,0-2.315,27.82c-.19,9.5-6.665,75.1-7.3,88.142-7.1-1.911-18-5.356-23.13-9.557,0,0,2.68-23.632,4.939-37.862,5.012-31.566,9.38-72.526,19.156-77.222,4.423-2.123,14.8-4.016,21.87-1.849A34.248,34.248,0,0,1,173.1,78.3c2.371,16.055,6.272,30.5,7.209,52.744.1,2.247,4.983,45.9,4.983,45.9s-18.71,2.492-35.111,2.845c-3.443-19.644-1.995-89.133-3.3-117.228-.215-4.606,2.792-7.273,1.342-7.953" transform="translate(132.231 -8.163)" fill="#fff"/>
        <path id="Trazado_727466" data-name="Trazado 727466" d="M205.982,160.174s-4.359-10.609-2.18-13.951,6.494-4.553,9.38-5.086,3.409-3.924,6.9-1.889.872,12.643-.872,19.328-3.778,13.079-13.224,1.6" transform="translate(12.333 -22.828)" fill="#2e2e47"/>
        <path id="Trazado_727467" data-name="Trazado 727467" d="M211.959,178.7s8.619-22.016,10.945-23.708,6.726,21.065,6.726,21.065,40.966,77.257,42.954,106.159-28.92,56.186-71.312,38.542S150.4,279,151.307,265.684,211.959,178.7,211.959,178.7" transform="translate(4.847 -25.512)" fill="#12263f"/>
        <path id="Trazado_727468" data-name="Trazado 727468" d="M230.122,269.025a.729.729,0,0,0,.343-.088c2.546-1.345,2.468-23.736,2.125-50.654-.113-8.827-.21-16.46.039-17.228a.331.331,0,0,0-.49-.437c-.371.327-.4,2.8-.21,17.673.125,9.828.281,22.059.085,32.019-.3,15-1.291,17.743-1.858,18.042-.022.012-.05.027-.139-.035-3.621-2.538-2.741-38.839-2.1-52.612l.14-3-.79,2.9c-.025.093-2.559,9.369-5.405,18.544-5.177,16.689-6.807,18.359-7.209,18.438-.375-.55-.577-4.909,4.825-32.419,3.025-15.4,6.365-30.7,6.4-30.854a.331.331,0,1,0-.646-.141c-.034.155-3.451,15.806-6.5,31.4-6.227,31.795-4.96,32.358-4.351,32.628a.671.671,0,0,0,.576-.022c2.675-1.27,9.726-25.793,12.186-34.611-.17,4.432-.464,13.346-.473,22.378-.022,25.822,2.231,27.4,2.971,27.919a.846.846,0,0,0,.485.166m2.455-67.911h0Z" transform="translate(-7.531 -31.114)" fill="#fff"/>
        <path id="Trazado_727469" data-name="Trazado 727469" d="M242.938,286.1a.331.331,0,0,0,.331-.323c.249-11.726,21.188-47.3,28.069-58.986,1.109-1.884,1.841-3.127,2.119-3.644a.331.331,0,0,0-.582-.315c-.272.505-1.042,1.813-2.107,3.622-3.393,5.764-10.453,17.758-16.583,29.6-7.574,14.625-11.469,24.622-11.577,29.711a.33.33,0,0,0,.323.338Z" transform="translate(-72.29 -36.673)" fill="#fff"/>
        <path id="Trazado_727470" data-name="Trazado 727470" d="M233.87,260.677l-8.442,11.033,5.042,3.536-14.578-1.286-2.343-10.179L217,266.356l4.446-5.769a4.621,4.621,0,0,1,4.731-1.707Z" transform="translate(-8.39 -42.618)" fill="#fff"/>
        <path id="Trazado_727471" data-name="Trazado 727471" d="M206.873,263.052,216.4,273.14l-7.862,6.166-9.257-10.032,5.338-7.027c.733-.965,1.423-.076,2.254.8" transform="translate(20.997 -43.124)" fill="#fff"/>
        <path id="Trazado_727472" data-name="Trazado 727472" d="M229.66,294.315l13.523,3.184,1.161-6.047,4.8,13.827-8.327,6.3.936-4.2-7.083-1.695a4.619,4.619,0,0,1-3.493-3.618Z" transform="translate(-37.119 -48.003)" fill="#fff"/>
        <path id="Trazado_727473" data-name="Trazado 727473" d="M235.7,288.823,241,276l8.844,4.648L244.486,293.2l-8.6-1.992c-1.18-.274-.652-1.267-.19-2.386" transform="translate(-42.434 -45.458)" fill="#fff"/>
        <path id="Trazado_727474" data-name="Trazado 727474" d="M196.915,308.038l-1.884-13.764-6.061,1.088,11.182-9.441,8.875,5.507-4.26.637.962,7.219a4.622,4.622,0,0,1-2.122,4.56Z" transform="translate(36.981 -47.092)" fill="#fff"/>
        <path id="Trazado_727475" data-name="Trazado 727475" d="M218.343,310.829l-13.871-.345,1.162-9.923,13.64.5L220.5,309.8c.168,1.2-.949,1.063-2.159,1.033" transform="translate(12.542 -49.503)" fill="#fff"/>
        <path id="Trazado_727476" data-name="Trazado 727476" d="M178.778,173.854A37.893,37.893,0,0,1,160.3,188.528c-12.257,4.269-46.323,4.506-51.738-2.154s65.7-11.355,70.22-12.519" transform="translate(134.645 -28.634)" fill="#2e2e47"/>
        <path id="Trazado_727477" data-name="Trazado 727477" d="M216.223,167.6s-6.21-3.48-8.146-6.405-3.242-2.585-3.842-1.434-2.272,3.909-2.272,3.909-10.792.139-11.059,2.3,2.549,9.182,4.466,9.826,2.088.772,3.858,1.436,2.6,1.157,4.524.817c3.122-.55,7.643-2.334,11.1-1.665,3,.581,1.94-8.452,1.367-8.781" transform="translate(27.526 -26.175)" fill="#ffa982"/>
        <path id="Trazado_727478" data-name="Trazado 727478" d="M107.266,156.342c14.422.379,27.029-.241,33.108-.632.282,2.659.629,5.855,1,9.257-4.79.321-13.855.806-24.907.806q-1.6,0-3.25-.014-2.926-.025-5.755-.1c-.077-3.015-.141-6.132-.2-9.319" transform="translate(172.882 -25.646)" fill="#c1bfbd"/>
        <path id="Trazado_727479" data-name="Trazado 727479" d="M171.126,151.133a166.527,166.527,0,0,0,22.186,3.415c-.282,3.14-.561,6.253-.829,9.278a176.248,176.248,0,0,1-22.637-3.444c.417-3.146.851-6.3,1.281-9.249" transform="translate(68.673 -24.892)" fill="#c9d3dd"/>
        <path id="Trazado_727480" data-name="Trazado 727480" d="M156.679,67.957l-5.611,65.993s-46.65,11.573-48.621,13.6-2.83,15.265-.724,20.477,52.008,1.832,67.379-8.264,10.318-38.953,5.475-58.747a78.422,78.422,0,0,0-17.9-33.058" transform="translate(140.487 -11.193)" fill="#ffa031"/>
        <path id="Trazado_727481" data-name="Trazado 727481" d="M123.678,67.948s-4-.737-5.054,3.79-5.264,33.9,6,35.8,10.423-32.216-.947-39.586" transform="translate(173.488 -11.184)" fill="#ffa031"/>
        <path id="Trazado_727482" data-name="Trazado 727482" d="M176.5,374.279l30.532,3.695-1.474,10.191-29.9-2.288Z" transform="translate(50.1 -61.644)" fill="#c9d3dd"/>
        <path id="Trazado_727483" data-name="Trazado 727483" d="M179.189,393.048l29.42,3.56-1.48,10.227-28.78-2.2Z" transform="translate(46.272 -64.736)" fill="#c9d3dd"/>
        <path id="Trazado_727484" data-name="Trazado 727484" d="M67.574,321.488l6.761,7.668-21.191,21.1c-2.849-2.366-5.855-4.876-8.933-7.469Z" transform="translate(292.59 -52.95)" fill="#c9d3dd"/>
        <path id="Trazado_727485" data-name="Trazado 727485" d="M40.706,362.6c-2.6-2.118-5.632-4.605-8.95-7.346l21.577-19.67,6.781,7.691Z" transform="translate(317.217 -55.272)" fill="#c9d3dd"/>
        <path id="Trazado_727486" data-name="Trazado 727486" d="M150.174,17.354s.22,8.143-3.058,10.76-4.77,1.889-6.751.489-1.341-13.9,2.432-13.547,6.563,1.336,7.377,2.3" transform="translate(137.347 -2.479)" fill="#2e2e47"/>
        <path id="Trazado_727487" data-name="Trazado 727487" d="M159.876,31.706s-.109,13.708.166,19.337c.126,2.589-8.236,2.657-11.982,1.136-1.262-.512-.327-2.412-.155-4.235a32.067,32.067,0,0,1,1.3-7.11c.8-1.751,2.11-7.059,2.545-7.792s7.235-2.65,8.126-1.336" transform="translate(120.68 -5.148)" fill="#ffa982"/>
        <path id="Trazado_727488" data-name="Trazado 727488" d="M145.217,12.567s-.573,3.538-1.453,6.743c-.545,1.986-1.285,3.639-2.171,6.574s-.687,7.613,4.544,9.852S157.772,36.8,159.9,34.2a18.148,18.148,0,0,0,2.969-6.814s.939,1.522,2.529-.346,3.452-4.973,1.612-5.906-2.493.663-2.9.373.084-3.51,0-6.2c-.083-2.624-11.575-9.177-18.9-2.742" transform="translate(118.142 -1.618)" fill="#ffa982"/>
        <path id="Trazado_727489" data-name="Trazado 727489" d="M149.64,28.243a.133.133,0,0,0-.246-.041,10.993,10.993,0,0,0-1.406,4.324c-.1,2.262-.606,5.041.449,6.641s5.008,3.424,8.061,3.822,7.06-.115,8.827-1.282,4.082-5.484,4.065-7.083.435-4.851.528-5.738-1.024-.673-1.255-.379-5.363,6.5-7.506,5.48c-2.3-1.1-3.323-3.6-6.283-3.914-3.988-.424-4.6.369-5.236-1.829" transform="translate(110.489 -4.634)" fill="#2e2e47"/>
        <path id="Trazado_727490" data-name="Trazado 727490" d="M154.647,19.678a.2.2,0,0,0,.1.034,14.5,14.5,0,0,1,3.335.956.207.207,0,0,0,.16-.381,14.582,14.582,0,0,0-3.457-.986.206.206,0,0,0-.134.377" transform="translate(116.39 -3.179)" fill="#2e2e47"/>
        <path id="Trazado_727491" data-name="Trazado 727491" d="M162.279,31.258s2.813.626,6.686,1.387a7.92,7.92,0,0,1-3.162,1.6,6.453,6.453,0,0,1-1.077.178,2.257,2.257,0,0,1-2.488-1.947c.02-.494.038-.968.042-1.213" transform="translate(99.376 -5.148)" fill="#fff"/>
        <path id="Trazado_727492" data-name="Trazado 727492" d="M160.08,29.163c-.168.738-1.439,1.078-2.839.759s-2.4-1.175-2.232-1.913,1.439-1.078,2.84-.759,2.4,1.175,2.231,1.913" transform="translate(114.293 -4.468)" fill="#f2836d"/>
        <path id="Trazado_727493" data-name="Trazado 727493" d="M171.944,25.826a1.839,1.839,0,0,1-3.468-.789,1.839,1.839,0,0,1,3.468.789" transform="translate(91.18 -3.959)" fill="#f2836d"/>
        <path id="Trazado_727494" data-name="Trazado 727494" d="M144.031,19s-.489,5.607.337,6.223,1.532.454,2.333-.387,2.206-5.652,1.6-6.068-4.272.231-4.272.231" transform="translate(135.218 -3.068)" fill="#2e2e47"/>
        <path id="Trazado_727495" data-name="Trazado 727495" d="M167.01,23.891a8.006,8.006,0,0,0-2.55,1.794c-.482.817-.8,1.336-.473,2.095a2.041,2.041,0,0,0,2.755.648c1.251-.551.268-4.537.268-4.537" transform="translate(99.612 -3.935)" fill="#ffa982"/>
        <path id="Trazado_727496" data-name="Trazado 727496" d="M163.933,27.5c.511.346,1.441.532,3.125-.048a.207.207,0,1,0-.134-.391c-1.572.541-2.7.444-3.094-.267a1.864,1.864,0,0,1,.622-2.164c2.74-2.217,3.226-4.94,2.967-5.7-.517-1.522-3.74-.823-3.877-.792a.207.207,0,1,0,.089.4c.834-.185,3.066-.452,3.4.521.224.66-.291,3.189-2.836,5.249A2.261,2.261,0,0,0,163.468,27a1.463,1.463,0,0,0,.465.506" transform="translate(99.997 -2.956)" fill="#2e2e47"/>
        <path id="Trazado_727497" data-name="Trazado 727497" d="M155.273,22.638a.2.2,0,0,0,.084.033c.015,0,1.523.242,3.666.815a.206.206,0,1,0,.107-.4c-2.167-.58-3.694-.823-3.709-.824a.206.206,0,0,0-.148.375" transform="translate(114.95 -3.666)" fill="#2e2e47"/>
        <path id="Trazado_727498" data-name="Trazado 727498" d="M158.612,22.766a.941.941,0,0,0-1.181.209,1.911,1.911,0,0,0-.013,2.057,1.034,1.034,0,0,0,1.564-.114,2.675,2.675,0,0,0,.347-1.7,1.531,1.531,0,0,0-.717-.454" transform="translate(113.233 -3.73)" fill="#2e2e47"/>
        <path id="Trazado_727499" data-name="Trazado 727499" d="M165.5,20.4a.238.238,0,0,0,.064.029,24.385,24.385,0,0,1,2.6.851.207.207,0,1,0,.155-.383,24.864,24.864,0,0,0-2.655-.868.206.206,0,0,0-.168.371" transform="translate(97.235 -3.298)" fill="#2e2e47"/>
        <path id="Trazado_727500" data-name="Trazado 727500" d="M168.484,20.872c-.123-.256-.769-.648-1.164-.239a2.077,2.077,0,0,0-.375,1.809c.179.492.882.341,1.153-.013a1.993,1.993,0,0,0,.387-1.558" transform="translate(95.927 -3.369)" fill="#2e2e47"/>
        <path id="Trazado_727501" data-name="Trazado 727501" d="M158.844,12.6s-12.6,1.288-12.046,2.638,6.963,3.466,11.035,3.687S176.681,20.313,177.224,20c.324-.19-8.239-2.158-13.62-4.22-3.64-1.395-4.76-3.172-4.76-3.172" transform="translate(104.018 -2.076)" fill="#2e2e47"/>
        <path id="Trazado_727502" data-name="Trazado 727502" d="M142.238,1.423A43.857,43.857,0,0,0,137.592.349,39.793,39.793,0,0,1,149.145.5c3.769.834,6.621,5.215,7.21,6.846.842,2.326-.193,5.649-.56,8.551l-.554,2.742s-4.7-.371-6.055-.68c-.159-.036-.312-.073-.469-.109a33.675,33.675,0,0,0,.229-8.489c-.565-3.873-3.486-7.177-6.708-7.943" transform="translate(132.249 0)" fill="#ffa031"/>
        <path id="Trazado_727503" data-name="Trazado 727503" d="M153.617.418a43.858,43.858,0,0,1,4.646,1.073c3.223.765,6.143,4.07,6.708,7.943a33.675,33.675,0,0,1-.229,8.489c-11.535-2.682-16.845-5.585-18.121-6.949,0,0,1.594-9.507,6.149-10.408.276-.055.56-.1.847-.149" transform="translate(116.224 -0.069)" fill="#ffd3b5"/>
        <path id="Trazado_727504" data-name="Trazado 727504" d="M119.129,159.51a2.74,2.74,0,0,0,.581-.062,1.407,1.407,0,0,0,1.154-.963c.655-2.138-3.676-7.158-5.431-9.076,3.016.419,12.275,1.453,15.04-1.192.48-.459.454-.838.347-1.075-.454-1.011-3.64-1.38-10.331-1.2-4.681.129-9.312.508-9.358.511a.332.332,0,0,0-.3.357.327.327,0,0,0,.357.3c11.405-.942,18.632-.589,19.031.3.025.056-.056.186-.2.326-3.012,2.881-15.294.9-15.418.876a.331.331,0,0,0-.292.555c.017.018,1.694,1.774,3.258,3.8,2.678,3.466,2.821,4.822,2.668,5.323-.052.168-.177.4-.662.51-2.96.642-6.863-5.519-8.117-7.946a.331.331,0,1,0-.587.3c.184.357,4.361,8.35,8.264,8.35" transform="translate(180.396 -24.03)" fill="#2e2e47"/>
        <path id="Trazado_727505" data-name="Trazado 727505" d="M131.311,116.222a.33.33,0,0,0,.327-.282c.922-6.195.042-31.356,0-32.425a.331.331,0,0,0-.661.023c.009.261.915,26.17,0,32.3a.331.331,0,0,0,.278.376.325.325,0,0,0,.049,0" transform="translate(162.391 -13.703)" fill="#2e2e47"/>
        <path id="Trazado_727506" data-name="Trazado 727506" d="M431.38,190.723l-14.389-24.41a15.906,15.906,0,0,0-13.7-7.829H323.252a15.907,15.907,0,0,0-13.858,8.095l-13.611,24.144Z" transform="translate(-274.591 -26.103)" fill="#ffdeb7"/>
        <path id="Trazado_727507" data-name="Trazado 727507" d="M302.7,390.633l-.033-1.3,3.832-.02c6.645-.292,12.465,9.309,13,21.446s-4.418,22.214-11.063,22.507c-.153.007-.306.007-.458,0l-4.171.026-.038-1.486c-4.511-3.1-7.929-10.823-8.333-19.989-.427-9.678,2.636-18.046,7.264-21.188" transform="translate(-162.422 -64.12)" fill="#2e2e47"/>
        <path id="Trazado_727508" data-name="Trazado 727508" d="M300.638,411.848c.535,12.137,6.356,21.739,13,21.446s11.6-10.37,11.063-22.508-6.356-21.739-13-21.445-11.6,10.369-11.063,22.507" transform="translate(-171.975 -64.124)" fill="#2e2e47"/>
        <path id="Trazado_727509" data-name="Trazado 727509" d="M429.669,210.393,416.185,387.362a5.694,5.694,0,0,1-5.637,5.039l-85.568.29a5.7,5.7,0,0,1-5.627-4.712L298.126,209.35Z" transform="translate(-274.837 -34.48)" fill="#ffdeb7"/>
        <path id="Trazado_727510" data-name="Trazado 727510" d="M294.971,193.121l134.761-.456a6.445,6.445,0,0,1,6.133,8.491l-2.249,6.72a5.683,5.683,0,0,1-5.371,3.879L297,212.2a5.684,5.684,0,0,1-5.289-3.555l-2.692-6.665a6.445,6.445,0,0,1,5.954-8.858" transform="translate(-273.366 -31.732)" fill="#ffc97d"/>
        <path id="Trazado_727511" data-name="Trazado 727511" d="M390.086,271.355l-9.263,13.878,6.315,3.847-17.572-.413-3.6-12.019,4.338,2.819,4.882-7.258a5.552,5.552,0,0,1,5.539-2.412Z" transform="translate(-291.923 -44.424)" fill="#fff"/>
        <path id="Trazado_727512" data-name="Trazado 727512" d="M356.378,273.873l12.2,11.354-8.945,8L347.76,281.919l5.853-8.835c.8-1.213,1.7-.2,2.765.789" transform="translate(-255.204 -44.886)" fill="#fff"/>
        <path id="Trazado_727513" data-name="Trazado 727513" d="M381.647,314.37l16.455,2.77.924-7.337,6.819,16.2-9.492,8.2.8-5.111-8.621-1.483a5.551,5.551,0,0,1-4.468-4.065Z" transform="translate(-320.777 -51.025)" fill="#fff"/>
        <path id="Trazado_727514" data-name="Trazado 727514" d="M390.811,307.864l5.364-15.779,10.961,4.887-5.456,15.461-10.457-1.722c-1.435-.236-.88-1.468-.412-2.846" transform="translate(-329.299 -48.107)" fill="#fff"/>
        <path id="Trazado_727515" data-name="Trazado 727515" d="M344.58,327.162l-3.324-16.352-7.18,1.772L346.748,300.4l11.064,5.914-5.056,1.093,1.712,8.579a5.551,5.551,0,0,1-2.19,5.63Z" transform="translate(-233.009 -49.477)" fill="#fff"/>
        <path id="Trazado_727516" data-name="Trazado 727516" d="M367.8,330.94l-16.653.66.625-11.984,16.389-.46,2.147,10.379c.295,1.424-1.054,1.348-2.508,1.406" transform="translate(-259.814 -52.565)" fill="#fff"/>
        <path id="Trazado_727517" data-name="Trazado 727517" d="M432.969,215.595,321.884,227l-1.632-11.029Z" transform="translate(-296.619 -35.509)" fill="#2e2e47"/>
        <path id="Trazado_727518" data-name="Trazado 727518" d="M432.063,391.3l-.033-1.3,3.832-.02c6.645-.292,12.465,9.309,13,21.446s-4.418,22.214-11.063,22.507c-.153.007-.306.007-.458,0l-4.171.026-.038-1.486c-4.511-3.1-7.929-10.823-8.333-19.989-.427-9.678,2.636-18.047,7.264-21.188" transform="translate(-399.847 -64.229)" fill="#2e2e47"/>
        <path id="Trazado_727519" data-name="Trazado 727519" d="M430,412.517c.535,12.138,6.356,21.739,13,21.446s11.6-10.37,11.063-22.507-6.356-21.739-13-21.446-11.6,10.369-11.063,22.507" transform="translate(-409.4 -64.234)" fill="#2e2e47"/>
        <path id="Trazado_727520" data-name="Trazado 727520" d="M438.717,414.817c.211,4.8,2.513,8.6,5.141,8.481s4.586-4.1,4.375-8.9-2.513-8.6-5.141-8.481-4.586,4.1-4.375,8.9" transform="translate(-410.839 -66.855)" fill="#fff"/>
        <path id="Trazado_727521" data-name="Trazado 727521" d="M313.1,284.428a1.473,1.473,0,0,0,1.462-1.393l.392-7.234a1.473,1.473,0,1,0-2.942-.16l-.392,7.234a1.474,1.474,0,0,0,1.392,1.551l.089,0" transform="translate(-171.389 -45.169)" fill="#fff"/>
        <path id="Trazado_727522" data-name="Trazado 727522" d="M310.531,258.726a1.473,1.473,0,0,0,1.462-1.393l1.57-29.026a1.473,1.473,0,1,0-2.942-.159l-1.57,29.025a1.473,1.473,0,0,0,1.392,1.55l.089,0" transform="translate(-167.856 -37.347)" fill="#fff"/>
      </g>
    </g>
  </g>
</svg>
