<svg id="Grupo_1026462" data-name="Grupo 1026462" xmlns="http://www.w3.org/2000/svg" xmlns:xlink="http://www.w3.org/1999/xlink" width="406" height="251.991" viewBox="0 0 406 251.991">
  <defs>
    <clipPath id="clip-path">
      <rect id="Rectángulo_349766" data-name="Rectángulo 349766" width="406" height="251.992" fill="#115089"/>
    </clipPath>
    <clipPath id="clip-path-2">
      <path id="Trazado_726260" data-name="Trazado 726260" d="M118.4,40.092c-28.072,32.3-16.558,46.719-36.226,65.115S9.458,184.017,99.253,242.6l.107.07a42.05,42.05,0,0,0,22.962,6.795h300.5a21.568,21.568,0,0,0,20.98-15.471c3.216-11.65,2.7-24.785-2.87-38.114-20.92-50.1-32.322-48.592-13.693-83.016s-23.311-140.108-89.9-64.46-76.654,34.743-108.614.461c-11.159-11.97-35.369-33.375-63.048-33.379-15.241,0-31.53,6.485-47.283,24.608" transform="translate(-48.638 -15.484)" fill="#d7e6f0"/>
    </clipPath>
    <clipPath id="clip-path-3">
      <rect id="Rectángulo_349700" data-name="Rectángulo 349700" width="406" height="251.992" fill="none"/>
    </clipPath>
    <clipPath id="clip-path-4">
      <rect id="Rectángulo_349699" data-name="Rectángulo 349699" width="64.263" height="46.58" fill="none"/>
    </clipPath>
    <clipPath id="clip-path-5">
      <path id="Trazado_726266" data-name="Trazado 726266" d="M1832.786,377.959c-.506,29.778-18.123,61.633-23.1,70.059a.1.1,0,0,0,.177.112c24.032-33.647,24.038-63.289,23.223-70.185a.15.15,0,0,0-.3.015" transform="translate(-1809.668 -377.811)" fill="none"/>
    </clipPath>
    <linearGradient id="linear-gradient" x1="-9.176" y1="2.516" x2="-9.171" y2="2.516" gradientUnits="objectBoundingBox">
      <stop offset="0" stop-color="#dae3fe"/>
      <stop offset="1" stop-color="#e9effd"/>
    </linearGradient>
    <clipPath id="clip-path-7">
      <path id="Trazado_726268" data-name="Trazado 726268" d="M54.512,642.52c20.241,37.753,47.777,51.348,54.557,53.753a.155.155,0,0,0,.124-.285c-27.432-14.122-48.951-45.093-54.5-53.582a.1.1,0,0,0-.086-.049.111.111,0,0,0-.1.163" transform="translate(-54.498 -642.357)" fill="none"/>
    </clipPath>
    <linearGradient id="linear-gradient-2" x1="-0.18" y1="2.502" x2="-0.177" y2="2.502" xlink:href="#linear-gradient"/>
    <clipPath id="clip-path-9">
      <path id="Trazado_726272" data-name="Trazado 726272" d="M270.158,202.09l-1.59,184.373,86.275-3.82,1.625-188.476Z" transform="translate(-268.568 -194.166)" fill="#265e91"/>
    </clipPath>
    <clipPath id="clip-path-10">
      <path id="Trazado_726273" data-name="Trazado 726273" d="M742.572,382.642l86.192,5.8,1.6-185.871L744.2,194.166Z" transform="translate(-742.572 -194.166)" fill="#265e91"/>
    </clipPath>
    <clipPath id="clip-path-11">
      <path id="Trazado_726274" data-name="Trazado 726274" d="M1217.723,224.44l-1.6,185.871,86.195-6.98,1.573-182.434Z" transform="translate(-1216.12 -220.897)" fill="#265e91"/>
    </clipPath>
    <clipPath id="clip-path-13">
      <rect id="Rectángulo_349709" data-name="Rectángulo 349709" width="3.578" height="188.545" fill="none"/>
    </clipPath>
    <clipPath id="clip-path-14">
      <path id="Trazado_726297" data-name="Trazado 726297" d="M269.416,200.721l-1.59,184.373,86.275-3.82,86.192,5.8,86.195-6.98,1.573-182.434L441.9,201.206,355.726,192.8Z" transform="translate(-267.826 -192.798)" fill="#acc5db"/>
    </clipPath>
    <clipPath id="clip-path-15">
      <path id="Trazado_726298" data-name="Trazado 726298" d="M1218.238,370.895a3.319,3.319,0,1,0,3.348-3.29h-.029a3.319,3.319,0,0,0-3.318,3.291" transform="translate(-1218.237 -367.604)" fill="#ffa031"/>
    </clipPath>
    <clipPath id="clip-path-16">
      <path id="Trazado_726299" data-name="Trazado 726299" d="M362.364,1099.526a4.146,4.146,0,1,0,4.182-4.111h-.037a4.146,4.146,0,0,0-4.145,4.111" transform="translate(-362.364 -1095.415)" fill="#ffa031"/>
    </clipPath>
    <clipPath id="clip-path-17">
      <path id="Trazado_726301" data-name="Trazado 726301" d="M269.416,200.721l-1.59,184.373,86.275-3.82,86.192,5.8,86.195-6.98,1.573-182.434L441.9,201.206,355.726,192.8Z" transform="translate(-267.826 -192.798)" fill="none"/>
    </clipPath>
    <clipPath id="clip-path-18">
      <path id="Trazado_726302" data-name="Trazado 726302" d="M894.617,486.161A10.954,10.954,0,1,0,905.665,475.3h-.1a10.955,10.955,0,0,0-10.952,10.86" transform="translate(-894.617 -475.301)" fill="none"/>
    </clipPath>
    <linearGradient id="linear-gradient-3" x1="-5.942" y1="6.219" x2="-5.935" y2="6.219" xlink:href="#linear-gradient"/>
    <clipPath id="clip-path-20">
      <path id="Trazado_726304" data-name="Trazado 726304" d="M1363.281,392.693l4,159.766a6.487,6.487,0,0,0,6.626,6.123l85.777-.187a6.366,6.366,0,0,0,6.487-6.127l1.613-159.1a6.8,6.8,0,0,0-6.748-6.888l-91.051-.435h-.034a6.639,6.639,0,0,0-6.666,6.853" transform="translate(-1363.279 -385.84)" fill="#1c466d"/>
    </clipPath>
    <clipPath id="clip-path-21">
      <path id="Trazado_726305" data-name="Trazado 726305" d="M1415.823,445.087l2.971,135.839a6.393,6.393,0,0,0,6.572,6.008l68.656-.109a6.272,6.272,0,0,0,6.443-6.009l.95-135.376a6.658,6.658,0,0,0-6.69-6.646l-72.267-.318h-.031a6.5,6.5,0,0,0-6.6,6.61" transform="translate(-1415.821 -438.477)" fill="#f5d4ad"/>
    </clipPath>
    <clipPath id="clip-path-22">
      <path id="Trazado_726306" data-name="Trazado 726306" d="M1593.2,405.535a1.307,1.307,0,0,0,1.294,1.29l18.807.085a1.267,1.267,0,0,0,1.272-1.276,1.292,1.292,0,0,0-1.28-1.29l-18.829-.088h-.006a1.257,1.257,0,0,0-1.258,1.279" transform="translate(-1593.197 -404.256)" fill="none"/>
    </clipPath>
    <linearGradient id="linear-gradient-4" x1="-99.482" y1="8.765" x2="-99.422" y2="8.765" gradientUnits="objectBoundingBox">
      <stop offset="0" stop-color="#8d55d1"/>
      <stop offset="0.996" stop-color="#1c2873"/>
      <stop offset="1" stop-color="#1c2873"/>
    </linearGradient>
    <clipPath id="clip-path-23">
      <path id="Trazado_726307" data-name="Trazado 726307" d="M1801.242,957.762l.023.026,10.409,11.911.4-22.692Z" transform="translate(-1801.242 -947.006)" fill="#ffa031"/>
    </clipPath>
    <clipPath id="clip-path-24">
      <path id="Trazado_726308" data-name="Trazado 726308" d="M1705.858,1046.7l21.636,24.577a6.518,6.518,0,0,0,3.64-1.454,4.926,4.926,0,0,0,1.878-3.563l.441-13.892-.155-.18-15.313-17.532Z" transform="translate(-1705.858 -1034.651)" fill="#ffa031"/>
    </clipPath>
    <clipPath id="clip-path-25">
      <path id="Trazado_726309" data-name="Trazado 726309" d="M1599.927,669.391l-12.373,12.53-.008.006-.009,0-.013,0-.049-.006-5.266,5.274v0l.066.035h.035l-12.083,12.248,0,0,19.942,22.648,12.13-12.091,5.217-5.2,12.367-12.328,3.775-7.15.931-40.907Z" transform="translate(-1570.224 -644.454)" fill="#ffa031"/>
    </clipPath>
    <clipPath id="clip-path-26">
      <path id="Trazado_726310" data-name="Trazado 726310" d="M1569.558,1148.391l36.9-.027-17.234-19.5Z" transform="translate(-1569.558 -1128.859)" fill="#ffa031"/>
    </clipPath>
    <clipPath id="clip-path-27">
      <path id="Trazado_726311" data-name="Trazado 726311" d="M1463.567,989.84l1.04,28.085a4.782,4.782,0,0,0,1.809,3.483,6.436,6.436,0,0,0,4.1,1.433h2.283l24.986-24.908-19.938-22.57Z" transform="translate(-1463.567 -975.362)" fill="#ffa031"/>
    </clipPath>
    <clipPath id="clip-path-28">
      <path id="Trazado_726312" data-name="Trazado 726312" d="M1458.059,901.424l9.812-10h-.009l-10.6-12Z" transform="translate(-1457.262 -879.43)" fill="#ffa031"/>
    </clipPath>
    <clipPath id="clip-path-29">
      <path id="Trazado_726313" data-name="Trazado 726313" d="M1664.92,475.161l-17.245.111-20.892,21.615,19.829,23.06,24.429-24.861.329-13.409a6.324,6.324,0,0,0-6.406-6.516h-.044" transform="translate(-1626.783 -475.161)" fill="#ffa031"/>
    </clipPath>
    <clipPath id="clip-path-30">
      <path id="Trazado_726314" data-name="Trazado 726314" d="M1525.84,476.329l13.454,15.642,15.234-15.826Z" transform="translate(-1525.84 -476.144)" fill="#ffa031"/>
    </clipPath>
    <clipPath id="clip-path-31">
      <path id="Trazado_726315" data-name="Trazado 726315" d="M1453.844,651.688l.043.041.527,7.531v0l15.979,18.382,11.927-12.316,5.2-5.294,12.358-12.579-19.826-22.971Z" transform="translate(-1453.844 -624.486)" fill="#ffa031"/>
    </clipPath>
    <clipPath id="clip-path-32">
      <path id="Trazado_726316" data-name="Trazado 726316" d="M1443.5,484.809l1.372,36.988,21.8-22.638-18.051-20.919a6.441,6.441,0,0,0-5.116,6.568" transform="translate(-1443.493 -478.241)" fill="#ffa031"/>
    </clipPath>
    <clipPath id="clip-path-34">
      <path id="Trazado_726323" data-name="Trazado 726323" d="M302.44,797.1a17.434,17.434,0,1,0,17.434-17.434A17.434,17.434,0,0,0,302.44,797.1" transform="translate(-302.44 -779.668)" fill="#ffa031"/>
    </clipPath>
    <clipPath id="clip-path-35">
      <path id="Trazado_726324" data-name="Trazado 726324" d="M319.732,867.666H302.3s-1.388,9.918,14.172,36.424a3.881,3.881,0,0,0,3.26,1.969,3.929,3.929,0,0,0,3.262-2.016c15.559-26.508,14.143-36.376,14.143-36.376Z" transform="translate(-302.265 -867.666)" fill="#ffa031"/>
    </clipPath>
    <clipPath id="clip-path-36">
      <path id="Trazado_726325" data-name="Trazado 726325" d="M317.612,832.407a3.551,3.551,0,0,1-2.981-1.608c-9.034-15.389-12.333-25.067-13.509-30.474l-.006-.028a16.606,16.606,0,0,1-.568-3.569V796.7c-.046-.562-.054-1.259-.05-1.259h.032l.043-.453a16.953,16.953,0,0,1,33.847-.115l.065.029a2.608,2.608,0,0,1,.148.849v.006l.056.071a13.5,13.5,0,0,1-.628,4.772v.031c-1.143,5.4-4.565,15.022-13.448,30.156a4.254,4.254,0,0,1-2.842,1.62v.506Zm-18.044-37.782-.046.278a8.761,8.761,0,0,0,.015,1.9,17.553,17.553,0,0,0,.6,3.761c1.194,5.482,4.527,15.272,13.622,30.765a4.312,4.312,0,0,0,3.7,2.122h.317v-.075a4.133,4.133,0,0,0,3.54-2.1c8.94-15.232,12.132-24.931,13.367-30.408a17.969,17.969,0,0,0,.719-5.041v-.064a7.857,7.857,0,0,0-.029-.961,17.94,17.94,0,0,0-35.8-.179" transform="translate(-299.484 -777.972)" fill="none"/>
    </clipPath>
    <linearGradient id="linear-gradient-5" x1="-0.633" y1="2.103" x2="-0.63" y2="2.103" gradientUnits="objectBoundingBox">
      <stop offset="0" stop-color="#e1473d"/>
      <stop offset="1" stop-color="#e9605a"/>
    </linearGradient>
    <clipPath id="clip-path-38">
      <rect id="Rectángulo_349744" data-name="Rectángulo 349744" width="10.402" height="4.063" fill="none"/>
    </clipPath>
    <clipPath id="clip-path-39">
      <rect id="Rectángulo_349745" data-name="Rectángulo 349745" width="2.649" height="8.473" fill="none"/>
    </clipPath>
    <clipPath id="clip-path-40">
      <path id="Trazado_726328" data-name="Trazado 726328" d="M1131.982,51.549a19.069,19.069,0,1,0,19.069-19.069,19.069,19.069,0,0,0-19.069,19.069" transform="translate(-1131.982 -32.48)" fill="#ffa031"/>
    </clipPath>
    <clipPath id="clip-path-41">
      <path id="Trazado_726329" data-name="Trazado 726329" d="M1150.895,128.729h-19.069s-1.518,10.848,15.5,39.839a4.244,4.244,0,0,0,3.566,2.154,4.3,4.3,0,0,0,3.568-2.205c17.017-28.993,15.469-39.787,15.469-39.787Z" transform="translate(-1131.791 -128.729)" fill="#ffa031"/>
    </clipPath>
    <clipPath id="clip-path-42">
      <path id="Trazado_726330" data-name="Trazado 726330" d="M1148.578,90.164a3.884,3.884,0,0,1-3.261-1.759c-9.882-16.832-13.489-27.417-14.775-33.331l-.007-.03a18.173,18.173,0,0,1-.62-3.9v-.032c-.05-.615-.059-1.377-.054-1.377h.036l.047-.5a18.543,18.543,0,0,1,37.02-.125l.071.032a2.869,2.869,0,0,1,.162.929v.006l.061.078a14.767,14.767,0,0,1-.687,5.22v.034c-1.25,5.91-4.993,16.43-14.709,32.983a4.653,4.653,0,0,1-3.109,1.772v.554ZM1128.843,48.84l-.05.3a9.559,9.559,0,0,0,.017,2.077,19.2,19.2,0,0,0,.654,4.114c1.306,6,4.951,16.7,14.9,33.65a4.717,4.717,0,0,0,4.043,2.321h.347v-.082a4.52,4.52,0,0,0,3.871-2.294c9.779-16.66,13.27-27.269,14.621-33.259a19.652,19.652,0,0,0,.786-5.514v-.07a8.611,8.611,0,0,0-.031-1.051,19.622,19.622,0,0,0-39.156-.2" transform="translate(-1128.75 -30.625)" fill="none"/>
    </clipPath>
    <linearGradient id="linear-gradient-6" x1="-2.745" y1="4.431" x2="-2.742" y2="4.431" xlink:href="#linear-gradient-5"/>
    <clipPath id="clip-path-44">
      <path id="Trazado_726335" data-name="Trazado 726335" d="M1962.887,852.51l1.552,23.542s7.574,13.482,15.158,9.481c3.385-1.786,3.968-4.044,3.577-6a3.891,3.891,0,0,1,2.95-4.494c2.746-.674,5.364-2.62,4.635-7.755-.956-6.727-6.926-8.738-10.8-9.332a3.471,3.471,0,0,1-2.9-3.051c-.375-3.025-4-3.287-4.674-4.761-2.445-5.393-6.221-6.651-6.221-6.651Z" transform="translate(-1962.887 -843.492)" fill="#265e91"/>
    </clipPath>
    <clipPath id="clip-path-45">
      <path id="Trazado_726336" data-name="Trazado 726336" d="M1843.834,841.6c3.552,11.122,17.374,22.655,17.374,22.655,1.69-.714,3.879-6.948,3.879-6.948-11.234-2.886-20.682-17.83-20.682-17.83Z" transform="translate(-1843.834 -839.478)" fill="none"/>
    </clipPath>
    <linearGradient id="linear-gradient-7" x1="-10.408" y1="3.168" x2="-10.402" y2="3.168" gradientUnits="objectBoundingBox">
      <stop offset="0" stop-color="#c4421b"/>
      <stop offset="1" stop-color="#5c0e16"/>
    </linearGradient>
    <clipPath id="clip-path-46">
      <path id="Trazado_726337" data-name="Trazado 726337" d="M2096.106,1359.3a.86.86,0,0,0-.854.964l.306,2.517a1.039,1.039,0,0,0,.912.91,16.126,16.126,0,0,0,3.369.053.891.891,0,0,0,.748-1.155,9.177,9.177,0,0,0-1.689-3.289Z" transform="translate(-2095.246 -1359.301)" fill="#115089"/>
    </clipPath>
    <clipPath id="clip-path-47">
      <path id="Trazado_726338" data-name="Trazado 726338" d="M1965.221,1205.364s1.578,15.987,1.859,22.382a5.013,5.013,0,0,1-.742,2.848l-2.744,4.457,6.975-4.116.139-.851-1.142-1.57,1.5-17.91a5.5,5.5,0,0,0-.625-3.039l-1.443-2.71-3.3-2.263Z" transform="translate(-1963.594 -1202.592)" fill="none"/>
    </clipPath>
    <linearGradient id="linear-gradient-8" x1="-10.45" y1="2.139" x2="-10.444" y2="2.139" xlink:href="#linear-gradient-7"/>
    <clipPath id="clip-path-48">
      <path id="Trazado_726339" data-name="Trazado 726339" d="M1963.888,1350.369c-1.147.692-4.668,3.17-4.668,3.17a3.174,3.174,0,0,0-.9.024.589.589,0,0,0,.109,1.167h2.226a1.34,1.34,0,0,0,1.064-.521c.694-.9,2.132-2.661,2.819-2.707.925-.062.807,3.228.807,3.228h.519l.657-4.088a2.42,2.42,0,0,0-1.27-2.529,3.422,3.422,0,0,1-1.359,2.257" transform="translate(-1957.836 -1348.112)" fill="#115089"/>
    </clipPath>
    <clipPath id="clip-path-49">
      <path id="Trazado_726340" data-name="Trazado 726340" d="M2027.608,1204.648s9.246,17.539,10.716,21.543a38.478,38.478,0,0,1,2,7.661c.031.494.646.969,2.34.969a1.626,1.626,0,0,0,1.513-.69.988.988,0,0,0,.038-.957c-.535-1.083-2.232-4.542-2.861-6.111-.75-1.873-2.365-10.363-3.25-13.314s-1.886-6.153-5.741-9.1a4.252,4.252,0,0,0-2.586-1.152,2.743,2.743,0,0,0-2.171,1.152" transform="translate(-2027.608 -1203.496)" fill="none"/>
    </clipPath>
    <linearGradient id="linear-gradient-9" x1="-11.063" y1="1.392" x2="-11.058" y2="1.392" xlink:href="#linear-gradient-7"/>
    <clipPath id="clip-path-50">
      <path id="Trazado_726341" data-name="Trazado 726341" d="M1924.111,944.383c.461,2.223,4.659,13.316,4.659,13.316a9.225,9.225,0,0,0,8.285-.807c-2.385-10.107,3.657-15.823,3.657-15.823-3.812-3.659-10.759-5.325-10.759-5.325s-6.628,4.846-5.842,8.639" transform="translate(-1924.047 -935.744)" fill="#ffa031"/>
    </clipPath>
    <clipPath id="clip-path-51">
      <path id="Trazado_726342" data-name="Trazado 726342" d="M1947.838,1052.739a16.62,16.62,0,0,0-.27,6.421c.6,3.092,4.371,22.967,4.371,22.967,5.94,1.2,15.076-1.211,15.076-1.211-3.784-6.718-4.633-21.056-5.6-23.98s-5.288-5-5.288-5a9.224,9.224,0,0,1-8.285.807" transform="translate(-1947.357 -1051.932)" fill="#115089"/>
    </clipPath>
    <clipPath id="clip-path-52">
      <path id="Trazado_726343" data-name="Trazado 726343" d="M1961.97,894.582l-1.607.713a1.086,1.086,0,0,0-.636,1.14l.834,6.04a.932.932,0,0,0,.1.328c.547.988,2.185,1.482,3.455,1.721.776.146,1.476.272,1.29-.5l-1.939-8.71a1.084,1.084,0,0,0-1.495-.737" transform="translate(-1959.717 -894.488)" fill="none"/>
    </clipPath>
    <linearGradient id="linear-gradient-10" x1="-32.144" y1="12.059" x2="-32.128" y2="12.059" xlink:href="#linear-gradient-7"/>
    <clipPath id="clip-path-53">
      <path id="Trazado_726344" data-name="Trazado 726344" d="M1945.414,854.031a8.592,8.592,0,0,0-2.951,4.956c-.887,3.559.554,4.835,2.032,4.757a6.855,6.855,0,0,0,5.477-3.088c1.624-2.233-1.01-6.935-3.507-6.935a1.939,1.939,0,0,0-1.051.31" transform="translate(-1942.191 -853.721)" fill="none"/>
    </clipPath>
    <linearGradient id="linear-gradient-11" x1="-27.641" y1="7.728" x2="-27.626" y2="7.728" xlink:href="#linear-gradient-7"/>
    <clipPath id="clip-path-54">
      <path id="Trazado_726345" data-name="Trazado 726345" d="M1947.207,838c-2.293,1.764-.221,4.1-.221,4.1l.856-.891c4.234-.78,3.477,4.32,3.477,4.32l.291.084s.724-1.172,1.286-.431-.115,2.469-.115,2.469,1.11,1.711,2.586-.284.837-4.252-.924-7.464a5.027,5.027,0,0,0-4.361-2.921,4.717,4.717,0,0,0-2.875,1.021" transform="translate(-1946.127 -836.978)" fill="#265e91"/>
    </clipPath>
    <clipPath id="clip-path-55">
      <path id="Trazado_726346" data-name="Trazado 726346" d="M1815.269,810.072l2.074,1.4a8.4,8.4,0,0,0-.568,2.168,2.43,2.43,0,0,0,.613,1.7c.413.472.969,1.081,1.469,1.543a2.4,2.4,0,0,0,1.985.66c-.029.308,1.118.521,1.482-.793-.1-.571-.278-3.069-.716-3.457a46.183,46.183,0,0,0-6.484-4.393.85.85,0,0,0,.145,1.177" transform="translate(-1814.949 -808.896)" fill="none"/>
    </clipPath>
    <linearGradient id="linear-gradient-12" x1="-28.329" y1="8.906" x2="-28.314" y2="8.906" xlink:href="#linear-gradient-7"/>
    <clipPath id="clip-path-56">
      <path id="Trazado_726347" data-name="Trazado 726347" d="M1831.586,827.5a.731.731,0,0,0-.309.524,1.008,1.008,0,0,0,.354.734,16.886,16.886,0,0,1,1.452,2.922l.291-.12a17.723,17.723,0,0,0-1.516-3.02.743.743,0,0,1-.267-.5.372.372,0,0,1,.118-.23l1.691.9.744,1.164.265-.169-.787-1.233-1.954-1.045Z" transform="translate(-1831.276 -827.429)" fill="none"/>
    </clipPath>
    <linearGradient id="linear-gradient-13" x1="-105.972" y1="23.882" x2="-105.914" y2="23.882" gradientUnits="objectBoundingBox">
      <stop offset="0" stop-color="#ff928e"/>
      <stop offset="1" stop-color="#feb3b1"/>
    </linearGradient>
    <clipPath id="clip-path-57">
      <path id="Trazado_726348" data-name="Trazado 726348" d="M1991.7,967.21a4.776,4.776,0,0,0-.145,2.963c4.622,7.228,15.615,19.213,16.219,19.817.686.686,2.516,2.858,2.516,2.858.8-.8-.572-2.858-.572-2.858a9.566,9.566,0,0,0,7.024.545.631.631,0,0,0,.025-1.214,43.722,43.722,0,0,0-6.363-1.143c-3.888-1.927-14.623-23.968-14.623-23.968a2.424,2.424,0,0,0-.885-.176c-1.643,0-2.686,1.911-3.2,3.177" transform="translate(-1991.363 -964.033)" fill="none"/>
    </clipPath>
    <linearGradient id="linear-gradient-14" x1="-13.831" y1="2.656" x2="-13.824" y2="2.656" xlink:href="#linear-gradient-7"/>
  </defs>
  <g id="Grupo_1025653" data-name="Grupo 1025653" clip-path="url(#clip-path)">
    <g id="Grupo_1025536" data-name="Grupo 1025536" transform="translate(8.853 2.818)">
      <g id="Grupo_1025535" data-name="Grupo 1025535" clip-path="url(#clip-path-2)">
        <rect id="Rectángulo_349698" data-name="Rectángulo 349698" width="437.562" height="276.709" transform="translate(-39.18 -42.73)" fill="#d7e6f0"/>
      </g>
    </g>
    <g id="Grupo_1025541" data-name="Grupo 1025541" transform="translate(0 -0.001)">
      <g id="Grupo_1025540" data-name="Grupo 1025540" clip-path="url(#clip-path-3)">
        <path id="Trazado_726261" data-name="Trazado 726261" d="M1622.283,659.041s31.7-94.9,84.064-143.524a6.066,6.066,0,0,1,10.107,3.358c5.67,31.614,13.454,126.661-94.172,140.166" transform="translate(-1327.006 -420.349)" fill="#9ccccc"/>
        <path id="Trazado_726262" data-name="Trazado 726262" d="M1678,793.514a.265.265,0,0,0,.306.43c10.45-6.4,51.536-38.782,71.936-108.845a.185.185,0,0,0-.348-.124c-6.242,16.1-31.165,75.316-71.894,108.539" transform="translate(-1372.496 -560.205)" fill="#bdd0fb"/>
        <path id="Trazado_726263" data-name="Trazado 726263" d="M1710.887,964s-1.866-42.956,40.765-55.047c26.641-7.556,38.8-16.112,44.169-21.469,1.762-1.756,4.749-1,4.874,1.227.938,16.61-5.01,60.335-89.808,75.289" transform="translate(-1399.473 -725.159)" fill="#cce1e1"/>
        <g id="Grupo_1025539" data-name="Grupo 1025539" transform="translate(319.653 183.188)" opacity="0.5">
          <g id="Grupo_1025538" data-name="Grupo 1025538">
            <g id="Grupo_1025537" data-name="Grupo 1025537" clip-path="url(#clip-path-4)">
              <path id="Trazado_726264" data-name="Trazado 726264" d="M1820.189,1006.521c.122-.153.36-.03.259.135-3.712,6.072-22.594,30.456-64.1,46.366a.1.1,0,1,1-.077-.178c9.525-4.493,44.527-22.072,63.914-46.322" transform="translate(-1756.208 -1006.451)" fill="#fff"/>
            </g>
          </g>
        </g>
        <path id="Trazado_726265" data-name="Trazado 726265" d="M1755.193,332.089s-29.858-32.2-5.115-63.652c15.462-19.657,19.137-32.572,19.718-39.494a2.644,2.644,0,0,1,4.556-1.582c11.711,12.337,36.075,49.182-19.159,104.729" transform="translate(-1423.516 -185.298)" fill="#cce1e1"/>
      </g>
    </g>
    <g id="Grupo_1025543" data-name="Grupo 1025543" transform="translate(329.383 68.767)">
      <g id="Grupo_1025542" data-name="Grupo 1025542" clip-path="url(#clip-path-5)">
        <rect id="Rectángulo_349701" data-name="Rectángulo 349701" width="35.292" height="73.415" transform="translate(-11.229 1.821) rotate(-9.253)" fill="url(#linear-gradient)"/>
      </g>
    </g>
    <g id="Grupo_1025545" data-name="Grupo 1025545" transform="translate(0 -0.001)">
      <g id="Grupo_1025544" data-name="Grupo 1025544" clip-path="url(#clip-path-3)">
        <path id="Trazado_726267" data-name="Trazado 726267" d="M71.141,620.411S41.386,569.768,5.4,548.219A3.561,3.561,0,0,0,0,551.378c.591,18.845,7.687,74.376,71.138,69.034" transform="translate(-0.001 -448.015)" fill="#cce1e1"/>
      </g>
    </g>
    <g id="Grupo_1025547" data-name="Grupo 1025547" transform="translate(9.919 116.917)">
      <g id="Grupo_1025546" data-name="Grupo 1025546" clip-path="url(#clip-path-7)">
        <rect id="Rectángulo_349703" data-name="Rectángulo 349703" width="54.899" height="53.981" transform="translate(-0.031)" fill="url(#linear-gradient-2)"/>
      </g>
    </g>
    <g id="Grupo_1025549" data-name="Grupo 1025549" transform="translate(0 -0.001)">
      <g id="Grupo_1025548" data-name="Grupo 1025548" clip-path="url(#clip-path-3)">
        <path id="Trazado_726269" data-name="Trazado 726269" d="M218.309,161.505S203.266,60.567,159.276,2.462a6.187,6.187,0,0,0-10.747,1.584c-11.291,30.751-35.936,124.843,69.779,157.46" transform="translate(-112.678 0.003)" fill="#9ccccc"/>
        <path id="Trazado_726270" data-name="Trazado 726270" d="M289.3,299.873a.27.27,0,0,1-.384.378c-9.363-8.28-44.9-48.077-52.988-122.064a.189.189,0,0,1,.372-.063c3.419,17.281,17.972,81.168,53,121.748" transform="translate(-192.984 -145.582)" fill="#bdd0fb"/>
        <path id="Trazado_726271" data-name="Trazado 726271" d="M415.985,171.217l-90.692-8.862-90.84,8.354-1.676,194.355,90.8-4.028,90.715,6.116,90.719-7.359,1.659-192.311Z" transform="translate(-190.408 -132.803)" fill="#fff"/>
      </g>
    </g>
    <g id="Grupo_1025551" data-name="Grupo 1025551" transform="translate(48.883 35.341)">
      <g id="Grupo_1025550" data-name="Grupo 1025550" clip-path="url(#clip-path-9)">
        <rect id="Rectángulo_349705" data-name="Rectángulo 349705" width="181.708" height="208.145" transform="matrix(0.822, -0.569, 0.569, 0.822, -89.982, 62.271)" fill="#265e91"/>
      </g>
    </g>
    <g id="Grupo_1025553" data-name="Grupo 1025553" transform="translate(135.158 35.341)">
      <g id="Grupo_1025552" data-name="Grupo 1025552" clip-path="url(#clip-path-10)">
        <rect id="Rectángulo_349706" data-name="Rectángulo 349706" width="114.388" height="204.743" transform="translate(-27.199 3.886) rotate(-8.13)" fill="#265e91"/>
      </g>
    </g>
    <g id="Grupo_1025555" data-name="Grupo 1025555" transform="translate(221.35 40.206)">
      <g id="Grupo_1025554" data-name="Grupo 1025554" clip-path="url(#clip-path-11)">
        <rect id="Rectángulo_349707" data-name="Rectángulo 349707" width="166.462" height="208.443" transform="matrix(0.883, -0.47, 0.47, 0.883, -78.551, 41.801)" fill="#265e91"/>
      </g>
    </g>
    <g id="Grupo_1025560" data-name="Grupo 1025560" transform="translate(0 -0.001)">
      <g id="Grupo_1025559" data-name="Grupo 1025559" clip-path="url(#clip-path-3)">
        <g id="Grupo_1025558" data-name="Grupo 1025558" transform="translate(133.205 35.324)" opacity="0.47">
          <g id="Grupo_1025557" data-name="Grupo 1025557">
            <g id="Grupo_1025556" data-name="Grupo 1025556" clip-path="url(#clip-path-13)">
              <rect id="Rectángulo_349708" data-name="Rectángulo 349708" width="188.535" height="1.953" transform="translate(0.004 188.528) rotate(-89.509)" fill="#fff"/>
            </g>
          </g>
        </g>
      </g>
    </g>
    <g id="Grupo_1025562" data-name="Grupo 1025562" transform="translate(48.748 35.092)">
      <g id="Grupo_1025561" data-name="Grupo 1025561" clip-path="url(#clip-path-14)">
        <path id="Trazado_726275" data-name="Trazado 726275" d="M1312.8,251.772l22.231,14.887L1319.685,278.8l-17.837-14.508Z" transform="translate(-1113.643 -241.038)" fill="#acc5db"/>
        <path id="Trazado_726276" data-name="Trazado 726276" d="M555.256,330.437l2.005-16.214,32.477,8.4-.177,20.591Z" transform="translate(-502.94 -292.122)" fill="#acc5db"/>
        <path id="Trazado_726277" data-name="Trazado 726277" d="M1574.384,932.811l18.116-7.587,2.308,15.728-15.815,4.218Z" transform="translate(-1336.574 -791.912)" fill="#acc5db"/>
        <path id="Trazado_726278" data-name="Trazado 726278" d="M639.366,990.313l18.056,8.164,18.09-2.409-1.541-10.627-16.407-3.407Z" transform="translate(-571.741 -838.382)" fill="#acc5db"/>
        <rect id="Rectángulo_349711" data-name="Rectángulo 349711" width="2.903" height="48.259" transform="translate(7.894 54.31) rotate(-74.309)" fill="#acc5db"/>
        <path id="Trazado_726279" data-name="Trazado 726279" d="M283.845,509.655l-2.9-2.186,31.957-42.331L348.85,462.9l4.789-31.226-32.66-21.949L273.3,423.694l-1.021-3.482,49.308-14.451,35.984,24.182-5.582,36.393-37.2,2.319Z" transform="translate(-271.473 -367)" fill="#acc5db"/>
        <rect id="Rectángulo_349712" data-name="Rectángulo 349712" width="3.629" height="49.23" transform="matrix(0.653, -0.757, 0.757, 0.653, -3.589, 132.017)" fill="#acc5db"/>
        <rect id="Rectángulo_349713" data-name="Rectángulo 349713" width="63.104" height="3.629" transform="translate(106.873 125.901) rotate(-16.598)" fill="#acc5db"/>
        <rect id="Rectángulo_349714" data-name="Rectángulo 349714" width="3.629" height="59.56" transform="translate(152.742 79.657) rotate(-21.608)" fill="#acc5db"/>
        <rect id="Rectángulo_349715" data-name="Rectángulo 349715" width="31.554" height="3.628" transform="matrix(0.683, -0.73, 0.73, 0.683, 204.456, 146.416)" fill="#acc5db"/>
        <rect id="Rectángulo_349716" data-name="Rectángulo 349716" width="2.903" height="48.519" transform="matrix(0.895, -0.446, 0.446, 0.895, 191.217, 93.963)" fill="#acc5db"/>
        <path id="Trazado_726280" data-name="Trazado 726280" d="M1430.9,302.4l-2.08-2.973a1.43,1.43,0,0,0-.153.123c1.163-1.118,16.961-19.9,27.3-32.258l1.29-1.542,23.063,23.7-2.6,2.531-20.259-20.818c-2.27,2.711-7.208,8.6-12.153,14.476-13.695,16.267-14.071,16.53-14.4,16.763" transform="translate(-1217.376 -252.473)" fill="#acc5db"/>
        <path id="Trazado_726281" data-name="Trazado 726281" d="M920.649,338.622l-7.362-25.02-9.064-22.828-41.472,2.013-.193-3.624,44.209-2.146,10.126,25.521,7.385,25.1Z" transform="translate(-754.309 -269.868)" fill="#acc5db"/>
        <path id="Trazado_726282" data-name="Trazado 726282" d="M540.98,317.673l-2.892-.246,1.681-19.745,36.251,7.819-.612,2.837-33.026-7.123Z" transform="translate(-488.896 -278.591)" fill="#acc5db"/>
        <path id="Trazado_726283" data-name="Trazado 726283" d="M1364.069,268.964l-1.792-2.284,15.208-11.933-20.8-15.245,1.716-2.341,23.885,17.507Z" transform="translate(-1158.501 -229.087)" fill="#acc5db"/>
        <path id="Trazado_726284" data-name="Trazado 726284" d="M1576.665,937.8l-.748-2.805,12.746-3.4-1.848-12.6-16.391,6.865-1.121-2.678,19.842-8.31,2.767,18.858Z" transform="translate(-1332.416 -783.45)" fill="#acc5db"/>
        <rect id="Rectángulo_349717" data-name="Rectángulo 349717" width="3.628" height="88.682" transform="translate(236.33 68.023) rotate(-15.258)" fill="#acc5db"/>
        <rect id="Rectángulo_349718" data-name="Rectángulo 349718" width="64.936" height="3.629" transform="translate(157.928 194.41) rotate(-46.768)" fill="#acc5db"/>
        <path id="Trazado_726285" data-name="Trazado 726285" d="M501.666,1050.936l-53.209-21.7,1.37-3.36,50.578,20.629,14.622-20.08-13.013,2.99-22.032-10.482,1.559-3.276,20.891,9.94,21.24-4.88Z" transform="translate(-415.579 -865.883)" fill="#acc5db"/>
        <path id="Trazado_726286" data-name="Trazado 726286" d="M911.556,945.329l-39.222-37.1-.068-.087-20.63-26.507,2.29-1.783,20.562,26.42,39.061,36.946Z" transform="translate(-745.375 -754.801)" fill="#acc5db"/>
        <path id="Trazado_726287" data-name="Trazado 726287" d="M365.931,380.38l-12.559-14.134c-28.331-10.262-60.607-20.9-85.7-22.3l.183-3.261c25.634,1.437,58.376,12.249,87.023,22.636l.389.141,13.109,14.753Z" transform="translate(-267.697 -313.764)" fill="#acc5db"/>
        <path id="Trazado_726288" data-name="Trazado 726288" d="M993.474,968.59c-27.535-17.232-58.684-36.207-80.376-43.628L842.16,950.453l-1.1-3.073L913.064,921.5l.538.181c22.05,7.4,53.684,26.664,81.6,44.137Z" transform="translate(-736.721 -788.87)" fill="#acc5db"/>
        <rect id="Rectángulo_349719" data-name="Rectángulo 349719" width="3.266" height="57.964" transform="matrix(0.93, -0.367, 0.367, 0.93, 98.496, 1.16)" fill="#acc5db"/>
        <path id="Trazado_726289" data-name="Trazado 726289" d="M1318.639,361.633c-5.428-21.833-16.117-36.929-32.678-46.151l1.589-2.853a64.98,64.98,0,0,1,22.452,20.5c5.232,7.735,9.094,16.8,11.807,27.714Z" transform="translate(-1100.647 -290.818)" fill="#acc5db"/>
        <path id="Trazado_726290" data-name="Trazado 726290" d="M517.721,836.767l-2.71-1.851,32.506-49.109,2.71,1.85Z" transform="translate(-470.02 -677.871)" fill="#acc5db"/>
        <path id="Trazado_726291" data-name="Trazado 726291" d="M1091.507,515.783l-94.213-4.57.158-3.262,93.5,4.535,34.433-13.77,1.213,3.032Z" transform="translate(-864.521 -443.035)" fill="#acc5db"/>
        <path id="Trazado_726292" data-name="Trazado 726292" d="M267.355,1008.229l-1.149-3.057,85.906-32.289,16.807,1.817-.351,3.247-16.035-1.733Z" transform="translate(-266.501 -830.898)" fill="#acc5db"/>
        <path id="Trazado_726293" data-name="Trazado 726293" d="M483.676,702.014c-36.758-.706-71.194-2.871-88.608-21.358l2.377-2.239c16.544,17.564,50.259,19.64,86.293,20.332Z" transform="translate(-371.908 -590.028)" fill="#acc5db"/>
        <path id="Trazado_726294" data-name="Trazado 726294" d="M827.744,411.079l-7.289-45.842.12-.372,22.742-70.372,10.066-16.709L892.825,256.9l26.437-28.594,2.4,2.217-26.815,29-39.133,20.715-9.4,15.61L823.8,365.5l7.167,45.069Z" transform="translate(-719.869 -221.847)" fill="#acc5db"/>
        <path id="Trazado_726295" data-name="Trazado 726295" d="M520.187,650.111l-45.157-83.4-84.535-31.8-15.063-3.731-54.746-4.614-60.872,43.805-1.908-2.651,61.852-44.51.6.051,55.606,4.686,15.5,3.839.09.034,85.767,32.261.29.536,45.447,83.94Z" transform="translate(-259.711 -463.071)" fill="#acc5db"/>
        <path id="Trazado_726296" data-name="Trazado 726296" d="M384.746,511.942a.805.805,0,0,1-.274-1.563l3.366-1.216a.805.805,0,1,1,.547,1.515l-3.366,1.216a.8.8,0,0,1-.274.048m6.733-2.432a.806.806,0,0,1-.273-1.563l3.366-1.216a.805.805,0,0,1,.547,1.515l-3.366,1.216a.8.8,0,0,1-.274.048m6.733-2.432a.806.806,0,0,1-.274-1.563L401.3,504.3a.805.805,0,1,1,.547,1.515l-3.366,1.216a.8.8,0,0,1-.273.048m52.66-1.092a.805.805,0,0,1-.131-1.6l3.531-.585a.805.805,0,1,1,.264,1.589l-3.531.586a.8.8,0,0,1-.133.011m-3.41-.142a.8.8,0,0,1-.38-.1l-3.154-1.693a.805.805,0,1,1,.762-1.419l3.154,1.693a.805.805,0,0,1-.382,1.515m10.472-1.029a.805.805,0,0,1-.131-1.6l3.531-.586a.805.805,0,1,1,.263,1.589l-3.531.586a.84.84,0,0,1-.133.011m-52.99-.169a.806.806,0,0,1-.274-1.563l3.366-1.216a.805.805,0,1,1,.547,1.515l-3.366,1.216a.8.8,0,0,1-.274.048m60.052-1a.805.805,0,0,1-.131-1.6l3.531-.585a.805.805,0,1,1,.264,1.589l-3.531.585a.806.806,0,0,1-.133.011m-23.841-1.185a.8.8,0,0,1-.38-.1l-3.154-1.693a.805.805,0,1,1,.762-1.419l3.154,1.693a.805.805,0,0,1-.382,1.515m-29.478-.245a.806.806,0,0,1-.274-1.563l3.366-1.216a.805.805,0,1,1,.547,1.515l-3.366,1.216a.806.806,0,0,1-.273.048m60.281-.172a.806.806,0,0,1-.232-1.577l3.427-1.033a.805.805,0,0,1,.465,1.542l-3.427,1.033a.811.811,0,0,1-.233.034m6.854-2.065a.805.805,0,0,1-.232-1.577l3.427-1.033a.805.805,0,0,1,.465,1.542l-3.427,1.033a.806.806,0,0,1-.233.035m-60.4-.195a.805.805,0,0,1-.274-1.563L421.5,497a.805.805,0,1,1,.547,1.515l-3.366,1.216a.8.8,0,0,1-.273.048m16.438-.709a.8.8,0,0,1-.38-.1l-3.154-1.693a.805.805,0,0,1,.762-1.419l3.154,1.693a.805.805,0,0,1-.381,1.515m50.818-1.162a.805.805,0,0,1-.232-1.577l3.427-1.033a.805.805,0,0,1,.464,1.542l-3.427,1.033a.812.812,0,0,1-.233.034m-60.524-.561a.806.806,0,0,1-.274-1.563l3.366-1.216a.805.805,0,0,1,.547,1.515l-3.366,1.216a.8.8,0,0,1-.274.048m67.367-1.537a.805.805,0,0,1-.279-1.561l3.358-1.238a.805.805,0,1,1,.557,1.511l-3.358,1.238a.8.8,0,0,1-.279.05m6.716-2.477a.805.805,0,0,1-.279-1.561l3.358-1.238a.805.805,0,1,1,.557,1.511l-3.358,1.238a.8.8,0,0,1-.278.05m6.716-2.476a.806.806,0,0,1-.279-1.561l3.358-1.238a.805.805,0,1,1,.557,1.511l-3.358,1.238a.8.8,0,0,1-.278.05m61.321-.2a.8.8,0,0,1-.316-.064l-1.41-.6a.805.805,0,0,1,.632-1.482l.92.393,1.089-1.049a.805.805,0,1,1,1.117,1.16l-1.474,1.419a.8.8,0,0,1-.559.225m-4.7-2.006a.806.806,0,0,1-.316-.065l-3.292-1.4a.805.805,0,0,1,.632-1.482l3.292,1.4a.805.805,0,0,1-.316,1.546m-49.9-.27a.805.805,0,0,1-.279-1.561l3.358-1.238a.805.805,0,1,1,.557,1.511l-3.358,1.238a.8.8,0,0,1-.279.05m58.656-1.627a.805.805,0,0,1-.559-1.385l2.578-2.483a.805.805,0,1,1,1.117,1.16l-2.578,2.483a.8.8,0,0,1-.559.225m-51.94-.85a.805.805,0,0,1-.279-1.561l3.358-1.238a.805.805,0,0,1,.557,1.511l-3.358,1.238a.8.8,0,0,1-.279.05m36.6-.063a.808.808,0,0,1-.316-.065l-3.292-1.4a.805.805,0,0,1,.632-1.482l3.292,1.4a.806.806,0,0,1-.316,1.546m-29.884-2.414a.806.806,0,0,1-.279-1.561l3.358-1.238a.805.805,0,1,1,.557,1.511l-3.358,1.238a.8.8,0,0,1-.278.05m23.3-.395a.806.806,0,0,1-.316-.065l-3.292-1.4a.805.805,0,0,1,.632-1.482l3.292,1.4a.806.806,0,0,1-.316,1.546m27.079-1.245a.805.805,0,0,1-.559-1.385l2.578-2.483a.805.805,0,1,1,1.117,1.16l-2.578,2.483a.8.8,0,0,1-.559.225m-43.663-.837a.806.806,0,0,1-.279-1.561l3.358-1.239a.805.805,0,0,1,.557,1.511l-3.358,1.238a.8.8,0,0,1-.279.05m10-.727a.807.807,0,0,1-.315-.065l-3.292-1.4a.805.805,0,0,1,.632-1.482l3.292,1.4a.806.806,0,0,1-.317,1.546m38.819-3.4a.805.805,0,0,1-.559-1.385l2.578-2.483a.805.805,0,1,1,1.117,1.16l-2.578,2.483a.8.8,0,0,1-.559.225m5.156-4.966a.805.805,0,0,1-.559-1.385l2.578-2.483a.805.805,0,0,1,1.117,1.16l-2.578,2.483a.8.8,0,0,1-.559.225m1.984-5.545a.805.805,0,0,1-.728-.46l-1.534-3.233a.805.805,0,1,1,1.455-.691l1.534,3.234a.806.806,0,0,1-.727,1.151m-3.069-6.467a.8.8,0,0,1-.728-.46l-1.535-3.234a.805.805,0,0,1,1.455-.691l1.535,3.234a.805.805,0,0,1-.727,1.151m-3.069-6.467a.8.8,0,0,1-.728-.46l-1.534-3.233a.805.805,0,1,1,1.455-.691l1.535,3.233a.806.806,0,0,1-.727,1.151m-3.182-6.347a.806.806,0,0,1-.292-.055l-3.336-1.3a.805.805,0,0,1,.584-1.5l3.336,1.3a.805.805,0,0,1-.292,1.556m-6.672-2.594a.8.8,0,0,1-.292-.055l-3.336-1.3a.805.805,0,0,1,.584-1.5l3.336,1.3a.805.805,0,0,1-.292,1.556m-6.672-2.594a.8.8,0,0,1-.292-.055l-3.336-1.3a.805.805,0,1,1,.584-1.5l3.336,1.3a.805.805,0,0,1-.292,1.556m-6.672-2.594a.8.8,0,0,1-.292-.055l-3.336-1.3a.805.805,0,1,1,.583-1.5l3.336,1.3a.806.806,0,0,1-.292,1.556m-6.672-2.594a.8.8,0,0,1-.292-.055l-3.336-1.3a.805.805,0,1,1,.584-1.5l3.336,1.3a.806.806,0,0,1-.292,1.556m-6.672-2.594a.807.807,0,0,1-.292-.055l-3.336-1.3a.805.805,0,0,1,.584-1.5l3.336,1.3a.806.806,0,0,1-.292,1.556m-6.672-2.594a.8.8,0,0,1-.292-.055l-3.336-1.3a.805.805,0,1,1,.584-1.5l3.336,1.3a.806.806,0,0,1-.292,1.556m-6.672-2.594a.8.8,0,0,1-.292-.055l-3.336-1.3a.805.805,0,0,1,.584-1.5l3.336,1.3a.805.805,0,0,1-.292,1.556m-6.672-2.594a.8.8,0,0,1-.291-.055l-3.336-1.3a.805.805,0,1,1,.583-1.5l3.336,1.3a.805.805,0,0,1-.292,1.556m-6.672-2.594a.8.8,0,0,1-.292-.055l-3.336-1.3a.805.805,0,1,1,.584-1.5l3.336,1.3a.805.805,0,0,1-.292,1.556m-6.672-2.594a.8.8,0,0,1-.292-.055l-3.336-1.3a.805.805,0,0,1,.584-1.5l3.336,1.3a.805.805,0,0,1-.292,1.556m-6.672-2.594a.8.8,0,0,1-.292-.055l-3.336-1.3a.805.805,0,1,1,.584-1.5l3.336,1.3a.805.805,0,0,1-.292,1.556m-6.672-2.594a.8.8,0,0,1-.292-.055l-3.336-1.3a.805.805,0,1,1,.584-1.5l3.336,1.3a.806.806,0,0,1-.292,1.556m-6.672-2.594a.8.8,0,0,1-.292-.055l-2.178-.847a.806.806,0,0,1-.487-.954l.314-1.2a.805.805,0,1,1,1.558.407l-.133.508,1.51.587a.806.806,0,0,1-.292,1.556m-.959-5.512a.806.806,0,0,1-.78-1.009l.9-3.463a.805.805,0,0,1,1.558.407l-.9,3.463a.806.806,0,0,1-.779.6m3.65-5.464a.805.805,0,0,1-.375-1.518l3.169-1.665a.805.805,0,0,1,.749,1.426l-3.168,1.664a.8.8,0,0,1-.374.093M501.739,399a.805.805,0,0,1-.375-1.518l3.169-1.665a.805.805,0,1,1,.749,1.426l-3.169,1.665a.8.8,0,0,1-.374.092m6.337-3.329a.805.805,0,0,1-.375-1.518l3.169-1.664a.805.805,0,1,1,.749,1.426l-3.169,1.664a.8.8,0,0,1-.374.093m6.337-3.329a.805.805,0,0,1-.375-1.518l3.169-1.665a.805.805,0,1,1,.749,1.426l-3.169,1.665a.8.8,0,0,1-.374.092m6.337-3.329a.805.805,0,0,1-.375-1.518l3.169-1.665a.805.805,0,1,1,.749,1.426l-3.168,1.664a.8.8,0,0,1-.374.093m6.337-3.329a.805.805,0,0,1-.375-1.518l3.169-1.665a.805.805,0,0,1,.749,1.426l-3.169,1.665a.8.8,0,0,1-.374.093m6.337-3.329a.805.805,0,0,1-.375-1.518l3.169-1.665a.805.805,0,1,1,.749,1.426l-3.169,1.665a.8.8,0,0,1-.374.093m6.219-3.537a.805.805,0,0,1-.424-1.49l.411-.254a.805.805,0,0,1,.847,1.369l-.411.254a.8.8,0,0,1-.423.121" transform="translate(-362.806 -343.438)" fill="#acc5db"/>
      </g>
    </g>
    <g id="Grupo_1025564" data-name="Grupo 1025564" transform="translate(221.735 66.909)">
      <g id="Grupo_1025563" data-name="Grupo 1025563" clip-path="url(#clip-path-15)">
        <rect id="Rectángulo_349720" data-name="Rectángulo 349720" width="9.301" height="9.298" transform="translate(-3.172 2.274) rotate(-35.775)" fill="#ffa031"/>
      </g>
    </g>
    <g id="Grupo_1025566" data-name="Grupo 1025566" transform="translate(65.955 199.38)">
      <g id="Grupo_1025565" data-name="Grupo 1025565" clip-path="url(#clip-path-16)">
        <rect id="Rectángulo_349721" data-name="Rectángulo 349721" width="11.588" height="11.593" transform="translate(-3.925 5.579) rotate(-55.008)" fill="#ffa031"/>
      </g>
    </g>
    <g id="Grupo_1025568" data-name="Grupo 1025568" transform="translate(48.748 35.092)">
      <g id="Grupo_1025567" data-name="Grupo 1025567" clip-path="url(#clip-path-17)">
        <path id="Trazado_726300" data-name="Trazado 726300" d="M740.179,309.261l21.931-6.827-.193-3.624-22.394,7.34Z" transform="translate(-653.668 -279.514)" fill="#7d97f4"/>
      </g>
    </g>
    <g id="Grupo_1025570" data-name="Grupo 1025570" transform="translate(162.832 86.511)">
      <g id="Grupo_1025569" data-name="Grupo 1025569" clip-path="url(#clip-path-18)">
        <rect id="Rectángulo_349722" data-name="Rectángulo 349722" width="26.978" height="27.014" transform="translate(-5.626 20.44) rotate(-74.745)" fill="url(#linear-gradient-3)"/>
      </g>
    </g>
    <g id="Grupo_1025572" data-name="Grupo 1025572" transform="translate(0 -0.001)">
      <g id="Grupo_1025571" data-name="Grupo 1025571" clip-path="url(#clip-path-3)">
        <path id="Trazado_726303" data-name="Trazado 726303" d="M927.375,500.278a7.849,7.849,0,1,1-7.781-7.916,7.849,7.849,0,0,1,7.781,7.916" transform="translate(-745.74 -402.745)" fill="#bdd0fb"/>
      </g>
    </g>
    <g id="Grupo_1025574" data-name="Grupo 1025574" transform="translate(248.134 70.228)">
      <g id="Grupo_1025573" data-name="Grupo 1025573" clip-path="url(#clip-path-20)">
        <rect id="Rectángulo_349724" data-name="Rectángulo 349724" width="201.461" height="185.158" transform="matrix(0.577, -0.817, 0.817, 0.577, -81.519, 115.189)" fill="#1c466d"/>
      </g>
    </g>
    <g id="Grupo_1025576" data-name="Grupo 1025576" transform="translate(257.698 79.809)">
      <g id="Grupo_1025575" data-name="Grupo 1025575" clip-path="url(#clip-path-21)">
        <rect id="Rectángulo_349725" data-name="Rectángulo 349725" width="170.268" height="157.371" transform="matrix(0.597, -0.802, 0.802, 0.597, -71.176, 95.574)" fill="#f5d4ad"/>
      </g>
    </g>
    <g id="Grupo_1025578" data-name="Grupo 1025578" transform="translate(289.982 73.58)">
      <g id="Grupo_1025577" data-name="Grupo 1025577" clip-path="url(#clip-path-22)">
        <rect id="Rectángulo_349726" data-name="Rectángulo 349726" width="3.007" height="21.425" transform="translate(-0.052 2.656) rotate(-89.061)" fill="url(#linear-gradient-4)"/>
      </g>
    </g>
    <g id="Grupo_1025580" data-name="Grupo 1025580" transform="translate(327.849 172.367)">
      <g id="Grupo_1025579" data-name="Grupo 1025579" clip-path="url(#clip-path-23)">
        <rect id="Rectángulo_349727" data-name="Rectángulo 349727" width="21.47" height="24.925" transform="translate(-10.383 6.772) rotate(-33.111)" fill="#ffa031"/>
      </g>
    </g>
    <g id="Grupo_1025582" data-name="Grupo 1025582" transform="translate(310.488 188.32)">
      <g id="Grupo_1025581" data-name="Grupo 1025581" clip-path="url(#clip-path-24)">
        <rect id="Rectángulo_349728" data-name="Rectángulo 349728" width="43.12" height="45.75" transform="matrix(0.838, -0.546, 0.546, 0.838, -16.757, 10.928)" fill="#ffa031"/>
      </g>
    </g>
    <g id="Grupo_1025584" data-name="Grupo 1025584" transform="translate(285.801 117.299)">
      <g id="Grupo_1025583" data-name="Grupo 1025583" clip-path="url(#clip-path-25)">
        <rect id="Rectángulo_349729" data-name="Rectángulo 349729" width="87.966" height="94.76" transform="translate(-35.542 23.18) rotate(-33.111)" fill="#ffa031"/>
      </g>
    </g>
    <g id="Grupo_1025586" data-name="Grupo 1025586" transform="translate(285.68 205.467)">
      <g id="Grupo_1025585" data-name="Grupo 1025585" clip-path="url(#clip-path-26)">
        <rect id="Rectángulo_349730" data-name="Rectángulo 349730" width="41.58" height="36.519" transform="matrix(0.838, -0.546, 0.546, 0.838, -8.937, 5.828)" fill="#ffa031"/>
      </g>
    </g>
    <g id="Grupo_1025588" data-name="Grupo 1025588" transform="translate(266.388 177.529)">
      <g id="Grupo_1025587" data-name="Grupo 1025587" clip-path="url(#clip-path-27)">
        <rect id="Rectángulo_349731" data-name="Rectángulo 349731" width="54.599" height="58.463" transform="translate(-21.725 14.169) rotate(-33.111)" fill="#ffa031"/>
      </g>
    </g>
    <g id="Grupo_1025590" data-name="Grupo 1025590" transform="translate(265.241 160.068)">
      <g id="Grupo_1025589" data-name="Grupo 1025589" clip-path="url(#clip-path-28)">
        <rect id="Rectángulo_349732" data-name="Rectángulo 349732" width="24.218" height="20.901" transform="translate(-10.064 15.431) rotate(-56.889)" fill="#ffa031"/>
      </g>
    </g>
    <g id="Grupo_1025592" data-name="Grupo 1025592" transform="translate(296.096 86.485)">
      <g id="Grupo_1025591" data-name="Grupo 1025591" clip-path="url(#clip-path-29)">
        <rect id="Rectángulo_349733" data-name="Rectángulo 349733" width="61.918" height="61.886" transform="translate(-20.492 31.421) rotate(-56.889)" fill="#ffa031"/>
      </g>
    </g>
    <g id="Grupo_1025594" data-name="Grupo 1025594" transform="translate(277.723 86.664)">
      <g id="Grupo_1025593" data-name="Grupo 1025593" clip-path="url(#clip-path-30)">
        <rect id="Rectángulo_349734" data-name="Rectángulo 349734" width="32.675" height="28.928" transform="translate(-7.241 4.723) rotate(-33.111)" fill="#ffa031"/>
      </g>
    </g>
    <g id="Grupo_1025596" data-name="Grupo 1025596" transform="translate(264.618 113.665)">
      <g id="Grupo_1025595" data-name="Grupo 1025595" clip-path="url(#clip-path-31)">
        <rect id="Rectángulo_349735" data-name="Rectángulo 349735" width="67.598" height="69.674" transform="translate(-24.324 15.863) rotate(-33.111)" fill="#ffa031"/>
      </g>
    </g>
    <g id="Grupo_1025598" data-name="Grupo 1025598" transform="translate(262.734 87.046)">
      <g id="Grupo_1025597" data-name="Grupo 1025597" clip-path="url(#clip-path-32)">
        <rect id="Rectángulo_349736" data-name="Rectángulo 349736" width="43.3" height="49.205" transform="translate(-20.046 12.998) rotate(-33.111)" fill="#ffa031"/>
      </g>
    </g>
    <g id="Grupo_1025600" data-name="Grupo 1025600" transform="translate(0 -0.001)">
      <g id="Grupo_1025599" data-name="Grupo 1025599" clip-path="url(#clip-path-3)">
        <path id="Rectángulo_349737" data-name="Rectángulo 349737" d="M1.01,0H32.453a1.01,1.01,0,0,1,1.01,1.01v0a1.01,1.01,0,0,1-1.01,1.01H1.01A1.01,1.01,0,0,1,0,1.01v0A1.01,1.01,0,0,1,1.01,0Z" transform="translate(267.294 93.619)" fill="#fff"/>
        <path id="Rectángulo_349738" data-name="Rectángulo 349738" d="M1.01,0H32.453a1.01,1.01,0,0,1,1.01,1.01v0a1.01,1.01,0,0,1-1.01,1.01H1.01A1.01,1.01,0,0,1,0,1.01v0A1.01,1.01,0,0,1,1.01,0Z" transform="translate(267.294 99.1)" fill="#fff"/>
        <path id="Rectángulo_349739" data-name="Rectángulo 349739" d="M1.01,0H32.453a1.01,1.01,0,0,1,1.01,1.01v0a1.01,1.01,0,0,1-1.01,1.01H1.01A1.01,1.01,0,0,1,0,1.01v0A1.01,1.01,0,0,1,1.01,0Z" transform="translate(267.294 104.581)" fill="#fff"/>
        <path id="Trazado_726317" data-name="Trazado 726317" d="M1453.32,1006.281a3.223,3.223,0,0,1-2.863-1.7c-3.027-5.521-6.635-12.791-6.635-16.074a9.5,9.5,0,1,1,19,0c0,3.283-3.608,10.553-6.635,16.074a3.224,3.224,0,0,1-2.863,1.7m0-25.746a7.986,7.986,0,0,0-7.977,7.976c0,2.276,2.351,7.869,6.448,15.342a1.743,1.743,0,0,0,3.057,0c4.1-7.474,6.448-13.065,6.448-15.342a7.985,7.985,0,0,0-7.976-7.976" transform="translate(-1181.028 -800.819)" fill="#fff"/>
        <path id="Trazado_726318" data-name="Trazado 726318" d="M1470.123,1012.226a5.759,5.759,0,1,1,5.759-5.759,5.765,5.765,0,0,1-5.759,5.759m0-10a4.237,4.237,0,1,0,4.237,4.237,4.242,4.242,0,0,0-4.237-4.237" transform="translate(-1197.831 -818.566)" fill="#fff"/>
        <path id="Trazado_726319" data-name="Trazado 726319" d="M1483.075,1149.851a3.614,3.614,0,1,1-3.614-3.615,3.614,3.614,0,0,1,3.614,3.615" transform="translate(-1207.223 -937.606)" fill="#fff"/>
        <path id="Trazado_726320" data-name="Trazado 726320" d="M1731.443,458.414a3.026,3.026,0,0,1-2.688-1.592c-2.843-5.184-6.231-12.012-6.231-15.094a8.919,8.919,0,1,1,17.839,0c0,3.083-3.389,9.91-6.231,15.094a3.025,3.025,0,0,1-2.688,1.592m0-24.177a7.5,7.5,0,0,0-7.49,7.49c0,2.138,2.207,7.389,6.055,14.407a1.637,1.637,0,0,0,2.871,0c3.848-7.018,6.055-12.269,6.055-14.407a7.5,7.5,0,0,0-7.49-7.49" transform="translate(-1409.002 -354.031)" fill="#fff"/>
        <path id="Trazado_726321" data-name="Trazado 726321" d="M1747.223,464a5.408,5.408,0,1,1,5.408-5.408,5.415,5.415,0,0,1-5.408,5.408m0-9.388a3.979,3.979,0,1,0,3.979,3.979,3.984,3.984,0,0,0-3.979-3.979" transform="translate(-1424.782 -370.696)" fill="#fff"/>
        <path id="Trazado_726322" data-name="Trazado 726322" d="M1759.385,593.236a3.394,3.394,0,1,1-3.394-3.394,3.394,3.394,0,0,1,3.394,3.394" transform="translate(-1433.601 -482.483)" fill="#fff"/>
      </g>
    </g>
    <g id="Grupo_1025602" data-name="Grupo 1025602" transform="translate(55.048 141.91)">
      <g id="Grupo_1025601" data-name="Grupo 1025601" clip-path="url(#clip-path-34)">
        <rect id="Rectángulo_349741" data-name="Rectángulo 349741" width="46.594" height="46.594" transform="matrix(0.437, -0.9, 0.9, 0.437, -13.696, 28.222)" fill="#ffa031"/>
      </g>
    </g>
    <g id="Grupo_1025604" data-name="Grupo 1025604" transform="translate(55.016 157.926)">
      <g id="Grupo_1025603" data-name="Grupo 1025603" clip-path="url(#clip-path-35)">
        <rect id="Rectángulo_349742" data-name="Rectángulo 349742" width="50.975" height="50.627" transform="matrix(0.437, -0.9, 0.9, 0.437, -16.437, 31.075)" fill="#ffa031"/>
      </g>
    </g>
    <g id="Grupo_1025606" data-name="Grupo 1025606" transform="translate(54.51 141.601)">
      <g id="Grupo_1025605" data-name="Grupo 1025605" clip-path="url(#clip-path-36)">
        <rect id="Rectángulo_349743" data-name="Rectángulo 349743" width="63.963" height="51.56" transform="translate(-16.575 50.021) rotate(-71.721)" fill="url(#linear-gradient-5)"/>
      </g>
    </g>
    <g id="Grupo_1025614" data-name="Grupo 1025614" transform="translate(0 -0.001)">
      <g id="Grupo_1025613" data-name="Grupo 1025613" clip-path="url(#clip-path-3)">
        <g id="Grupo_1025609" data-name="Grupo 1025609" transform="translate(62.82 144.744)" opacity="0.48">
          <g id="Grupo_1025608" data-name="Grupo 1025608">
            <g id="Grupo_1025607" data-name="Grupo 1025607" clip-path="url(#clip-path-38)">
              <path id="Trazado_726326" data-name="Trazado 726326" d="M345.31,799.3a.169.169,0,0,1-.11-.3,15.622,15.622,0,0,1,10.174-3.766.169.169,0,0,1,0,.338,15.285,15.285,0,0,0-9.954,3.685.168.168,0,0,1-.11.041" transform="translate(-345.141 -795.237)" fill="#fff"/>
            </g>
          </g>
        </g>
        <g id="Grupo_1025612" data-name="Grupo 1025612" transform="translate(57.43 152.064)" opacity="0.48">
          <g id="Grupo_1025611" data-name="Grupo 1025611">
            <g id="Grupo_1025610" data-name="Grupo 1025610" clip-path="url(#clip-path-39)">
              <path id="Trazado_726327" data-name="Trazado 726327" d="M315.694,843.925a.169.169,0,0,1-.169-.169,15.586,15.586,0,0,1,2.337-8.224.169.169,0,0,1,.287.178,15.248,15.248,0,0,0-2.287,8.046.169.169,0,0,1-.169.169" transform="translate(-315.525 -835.452)" fill="#fff"/>
            </g>
          </g>
        </g>
      </g>
    </g>
    <g id="Grupo_1025616" data-name="Grupo 1025616" transform="translate(206.035 5.912)">
      <g id="Grupo_1025615" data-name="Grupo 1025615" clip-path="url(#clip-path-40)">
        <rect id="Rectángulo_349747" data-name="Rectángulo 349747" width="52.577" height="52.577" transform="matrix(0.532, -0.847, 0.847, 0.532, -17.173, 27.36)" fill="#ffa031"/>
      </g>
    </g>
    <g id="Grupo_1025618" data-name="Grupo 1025618" transform="translate(206.001 23.43)">
      <g id="Grupo_1025617" data-name="Grupo 1025617" clip-path="url(#clip-path-41)">
        <rect id="Rectángulo_349748" data-name="Rectángulo 349748" width="57.454" height="57.195" transform="matrix(0.532, -0.847, 0.847, 0.532, -20.391, 30.125)" fill="#ffa031"/>
      </g>
    </g>
    <g id="Grupo_1025620" data-name="Grupo 1025620" transform="translate(205.447 5.574)">
      <g id="Grupo_1025619" data-name="Grupo 1025619" clip-path="url(#clip-path-42)">
        <rect id="Rectángulo_349749" data-name="Rectángulo 349749" width="69.363" height="54.975" transform="translate(-16.597 55.776) rotate(-73.482)" fill="url(#linear-gradient-6)"/>
      </g>
    </g>
    <g id="Grupo_1025622" data-name="Grupo 1025622" transform="translate(0 -0.001)">
      <g id="Grupo_1025621" data-name="Grupo 1025621" clip-path="url(#clip-path-3)">
        <path id="Trazado_726331" data-name="Trazado 726331" d="M1198.409,159.872h-14.877a3.039,3.039,0,0,1-3.035-3.035V140.273h20.918v16.593a3.009,3.009,0,0,1-3.006,3.006m-17.2-18.884v15.848a2.322,2.322,0,0,0,2.319,2.32h14.877a2.293,2.293,0,0,0,2.29-2.291V140.988Z" transform="translate(-965.631 -114.741)" fill="#fff"/>
        <path id="Trazado_726332" data-name="Trazado 726332" d="M1189.216,75.522h-24.87a1.179,1.179,0,0,1-1-.546,1.049,1.049,0,0,1-.093-1l.028-.06.048-.046,13.122-12.687.035-.021a1.624,1.624,0,0,1,2.058.106L1190.017,74a.865.865,0,0,1,.158.94,1.034,1.034,0,0,1-.959.586m-25.333-1.191a.386.386,0,0,0,.064.261.455.455,0,0,0,.4.214h24.87a.319.319,0,0,0,.305-.161.145.145,0,0,0-.036-.17l-11.477-12.722a.935.935,0,0,0-1.124.008Z" transform="translate(-951.453 -49.78)" fill="#fff"/>
        <path id="Trazado_726333" data-name="Trazado 726333" d="M1244.3,188.071h-5.287V175.279h5.287Zm-4.75-.537h4.213V175.816h-4.213Z" transform="translate(-1013.494 -143.375)" fill="#fff"/>
        <path id="Trazado_726334" data-name="Trazado 726334" d="M1203.566,168.609h-4.948v-4.948h4.948Zm-4.411-.537h3.874V164.2h-3.874Z" transform="translate(-980.454 -133.872)" fill="#fff"/>
      </g>
    </g>
    <g id="Grupo_1025624" data-name="Grupo 1025624" transform="translate(357.271 153.527)">
      <g id="Grupo_1025623" data-name="Grupo 1025623" clip-path="url(#clip-path-44)">
        <rect id="Rectángulo_349751" data-name="Rectángulo 349751" width="43.618" height="53.361" transform="translate(-15.838 6.314) rotate(-21.735)" fill="#265e91"/>
      </g>
    </g>
    <g id="Grupo_1025626" data-name="Grupo 1025626" transform="translate(335.602 152.796)">
      <g id="Grupo_1025625" data-name="Grupo 1025625" clip-path="url(#clip-path-45)">
        <rect id="Rectángulo_349752" data-name="Rectángulo 349752" width="31.742" height="32.532" transform="matrix(0.81, -0.586, 0.586, 0.81, -11.767, 8.513)" fill="url(#linear-gradient-7)"/>
      </g>
    </g>
    <g id="Grupo_1025628" data-name="Grupo 1025628" transform="translate(381.362 247.41)">
      <g id="Grupo_1025627" data-name="Grupo 1025627" clip-path="url(#clip-path-46)">
        <rect id="Rectángulo_349753" data-name="Rectángulo 349753" width="5.567" height="4.578" transform="translate(-0.056)" fill="#115089"/>
      </g>
    </g>
    <g id="Grupo_1025630" data-name="Grupo 1025630" transform="translate(357.4 218.887)">
      <g id="Grupo_1025629" data-name="Grupo 1025629" clip-path="url(#clip-path-47)">
        <rect id="Rectángulo_349754" data-name="Rectángulo 349754" width="32.984" height="10.295" transform="matrix(0.085, -0.996, 0.996, 0.085, -2.757, 32.223)" fill="url(#linear-gradient-8)"/>
      </g>
    </g>
    <g id="Grupo_1025632" data-name="Grupo 1025632" transform="translate(356.352 245.374)">
      <g id="Grupo_1025631" data-name="Grupo 1025631" clip-path="url(#clip-path-48)">
        <rect id="Rectángulo_349755" data-name="Rectángulo 349755" width="9.068" height="6.618" transform="translate(-0.223 0)" fill="#115089"/>
      </g>
    </g>
    <g id="Grupo_1025634" data-name="Grupo 1025634" transform="translate(369.051 219.052)">
      <g id="Grupo_1025633" data-name="Grupo 1025633" clip-path="url(#clip-path-49)">
        <rect id="Rectángulo_349756" data-name="Rectángulo 349756" width="32.64" height="19.371" transform="translate(-2.661 31.098) rotate(-85.11)" fill="url(#linear-gradient-9)"/>
      </g>
    </g>
    <g id="Grupo_1025636" data-name="Grupo 1025636" transform="translate(350.202 170.318)">
      <g id="Grupo_1025635" data-name="Grupo 1025635" clip-path="url(#clip-path-50)">
        <rect id="Rectángulo_349757" data-name="Rectángulo 349757" width="27.929" height="29.464" transform="translate(-11.934 7.922) rotate(-35.242)" fill="#ffa031"/>
      </g>
    </g>
    <g id="Grupo_1025638" data-name="Grupo 1025638" transform="translate(354.444 191.465)">
      <g id="Grupo_1025637" data-name="Grupo 1025637" clip-path="url(#clip-path-51)">
        <rect id="Rectángulo_349758" data-name="Rectángulo 349758" width="37.143" height="32.495" transform="matrix(0.472, -0.882, 0.882, 0.472, -13.456, 24.401)" fill="#115089"/>
      </g>
    </g>
    <g id="Grupo_1025640" data-name="Grupo 1025640" transform="translate(356.694 162.808)">
      <g id="Grupo_1025639" data-name="Grupo 1025639" clip-path="url(#clip-path-52)">
        <rect id="Rectángulo_349759" data-name="Rectángulo 349759" width="11.016" height="7.27" transform="matrix(0.135, -0.991, 0.991, 0.135, -1.439, 10.119)" fill="url(#linear-gradient-10)"/>
      </g>
    </g>
    <g id="Grupo_1025642" data-name="Grupo 1025642" transform="translate(353.504 155.388)">
      <g id="Grupo_1025641" data-name="Grupo 1025641" clip-path="url(#clip-path-53)">
        <rect id="Rectángulo_349760" data-name="Rectángulo 349760" width="12.718" height="12.666" transform="translate(-3.602 9.124) rotate(-71.873)" fill="url(#linear-gradient-11)"/>
      </g>
    </g>
    <g id="Grupo_1025644" data-name="Grupo 1025644" transform="translate(354.22 152.341)">
      <g id="Grupo_1025643" data-name="Grupo 1025643" clip-path="url(#clip-path-54)">
        <rect id="Rectángulo_349761" data-name="Rectángulo 349761" width="16.744" height="16.877" transform="translate(-6.863 3.66) rotate(-32.939)" fill="#265e91"/>
      </g>
    </g>
    <g id="Grupo_1025646" data-name="Grupo 1025646" transform="translate(330.344 147.23)">
      <g id="Grupo_1025645" data-name="Grupo 1025645" clip-path="url(#clip-path-55)">
        <rect id="Rectángulo_349762" data-name="Rectángulo 349762" width="11.581" height="11.917" transform="matrix(0.81, -0.586, 0.586, 0.81, -4.642, 3.148)" fill="url(#linear-gradient-12)"/>
      </g>
    </g>
    <g id="Grupo_1025648" data-name="Grupo 1025648" transform="translate(333.316 150.603)">
      <g id="Grupo_1025647" data-name="Grupo 1025647" clip-path="url(#clip-path-56)">
        <rect id="Rectángulo_349763" data-name="Rectángulo 349763" width="3.145" height="4.245" transform="translate(-0.013 0)" fill="url(#linear-gradient-13)"/>
      </g>
    </g>
    <g id="Grupo_1025650" data-name="Grupo 1025650" transform="translate(362.454 175.467)">
      <g id="Grupo_1025649" data-name="Grupo 1025649" clip-path="url(#clip-path-57)">
        <rect id="Rectángulo_349764" data-name="Rectángulo 349764" width="26.193" height="28.814" transform="translate(-0.187 0)" fill="url(#linear-gradient-14)"/>
      </g>
    </g>
    <g id="Grupo_1025652" data-name="Grupo 1025652" transform="translate(0 -0.001)">
      <g id="Grupo_1025651" data-name="Grupo 1025651" clip-path="url(#clip-path-3)">
        <path id="Trazado_726349" data-name="Trazado 726349" d="M1970.942,844.7a7.84,7.84,0,0,1,2.458,1.446,10.462,10.462,0,0,1,3.2,4.656,10.433,10.433,0,0,1,.359,1.38,13.4,13.4,0,0,0,.31,1.425,3.153,3.153,0,0,0,.73,1.305,4.707,4.707,0,0,0,1.207.865c.43.231.868.43,1.28.662a5.232,5.232,0,0,1,2.528,3.225c.131.456.23.932.4,1.4a2.862,2.862,0,0,0,.84,1.256,3.623,3.623,0,0,0,1.344.669,13.529,13.529,0,0,0,1.431.3,11.841,11.841,0,0,1,2.74.767,8.137,8.137,0,0,1,4.183,3.657,4.732,4.732,0,0,1,.5,2.726,4.075,4.075,0,0,1-1.229,2.466,3.048,3.048,0,0,1-1.2.693,3.2,3.2,0,0,1-1.4.066,2.766,2.766,0,0,1-2.163-1.631l-.074.027a2.873,2.873,0,0,0,2.212,1.741,3.353,3.353,0,0,0,1.466-.039,3.238,3.238,0,0,0,1.293-.708,4.275,4.275,0,0,0,1.329-2.583,4.987,4.987,0,0,0-.494-2.877,7.113,7.113,0,0,0-1.813-2.3,9.753,9.753,0,0,0-2.494-1.526,12.128,12.128,0,0,0-2.806-.8,13.309,13.309,0,0,1-1.395-.3,3.3,3.3,0,0,1-1.221-.61,2.577,2.577,0,0,1-.745-1.117c-.163-.436-.265-.9-.4-1.374a5.543,5.543,0,0,0-2.69-3.4c-.428-.239-.868-.437-1.288-.66a4.426,4.426,0,0,1-1.136-.8,2.867,2.867,0,0,1-.678-1.185,12.984,12.984,0,0,1-.321-1.392,10.621,10.621,0,0,0-.385-1.408,10.319,10.319,0,0,0-3.338-4.688,7.942,7.942,0,0,0-2.525-1.41Z" transform="translate(-1612.205 -690.894)" fill="#91b3fa"/>
        <path id="Trazado_726350" data-name="Trazado 726350" d="M1999.061,881.255a13.76,13.76,0,0,0,.18,1.861,5.178,5.178,0,0,0,.626,1.785,3.584,3.584,0,0,0,.606.75,6.356,6.356,0,0,0,.75.588,14.808,14.808,0,0,1,1.485,1.088,5.465,5.465,0,0,1,1.93,2.952,20.576,20.576,0,0,0,.72,3.684,3.97,3.97,0,0,0,1.217,1.525,6.236,6.236,0,0,0,1.691.912,29.819,29.819,0,0,0,3.645.858,6.251,6.251,0,0,1,3.205,1.593,2.434,2.434,0,0,1,.771,1.56,3.942,3.942,0,0,1-.543,1.724l.07.037a3.852,3.852,0,0,0,.654-1.761,2.029,2.029,0,0,0-.218-.944,3.665,3.665,0,0,0-.537-.8A6.541,6.541,0,0,0,2012,896.9a36.7,36.7,0,0,1-3.584-.9,4.413,4.413,0,0,1-2.635-2.224,21.037,21.037,0,0,1-.728-3.6,4.967,4.967,0,0,0-.79-1.758,6.753,6.753,0,0,0-1.317-1.381c-.957-.834-2.217-1.251-2.856-2.283a4.975,4.975,0,0,1-.674-1.68,16.953,16.953,0,0,1-.277-1.831Z" transform="translate(-1635.206 -720.85)" fill="#91b3fa"/>
        <path id="Trazado_726351" data-name="Trazado 726351" d="M359.465,893.072H344.588a3.039,3.039,0,0,1-3.035-3.036V873.472h20.918v16.593a3.01,3.01,0,0,1-3.006,3.006m-17.2-18.884v15.848a2.322,2.322,0,0,0,2.32,2.32h14.877a2.293,2.293,0,0,0,2.29-2.29V874.188Z" transform="translate(-279.386 -714.488)" fill="#fff"/>
        <path id="Trazado_726352" data-name="Trazado 726352" d="M350.271,808.721H325.4a1.179,1.179,0,0,1-1-.546,1.049,1.049,0,0,1-.093-1l.028-.06.047-.045L337.5,794.387l.035-.021a1.624,1.624,0,0,1,2.057.106l11.477,12.722a.865.865,0,0,1,.158.941,1.034,1.034,0,0,1-.959.586m-25.332-1.191a.383.383,0,0,0,.064.261.455.455,0,0,0,.4.214h24.87a.319.319,0,0,0,.305-.161.146.146,0,0,0-.036-.17l-11.477-12.722a.934.934,0,0,0-1.124.008Z" transform="translate(-265.207 -649.527)" fill="#fff"/>
        <path id="Trazado_726353" data-name="Trazado 726353" d="M405.353,921.271h-5.287V908.479h5.287Zm-4.751-.537h4.214V909.016H400.6Z" transform="translate(-327.249 -743.123)" fill="#fff"/>
        <path id="Trazado_726354" data-name="Trazado 726354" d="M364.622,901.809h-4.948v-4.948h4.948Zm-4.411-.537h3.874V897.4h-3.874Z" transform="translate(-294.209 -733.62)" fill="#fff"/>
      </g>
    </g>
  </g>
</svg>
