<svg id="Grupo_1027380" data-name="Grupo 1027380" xmlns="http://www.w3.org/2000/svg" xmlns:xlink="http://www.w3.org/1999/xlink" width="362" height="358.655" viewBox="0 0 362 358.655">
  <defs>
    <clipPath id="clip-path">
      <rect id="Rectángulo_349881" data-name="Rectángulo 349881" width="362" height="358.655" fill="#1c466d"/>
    </clipPath>
    <clipPath id="clip-path-2">
      <path id="Trazado_726355" data-name="Trazado 726355" d="M183.347,1.473C111.155,13.245,72.713,67.391,61.29,85.611,22.031,148.227,16.9,241.1,67.732,300.532c33.2,38.816,77.7,48.648,96.4,52.78,14.845,3.28,115.271,23.691,180.651-45.3,64.647-68.221,47.662-173.871,11.773-230a166.1,166.1,0,0,0-32.948-37.383C282.161,5.85,233.84,0,206.043,0a152.937,152.937,0,0,0-22.7,1.476" transform="translate(-30.724 0.003)" fill="#d7e6f0"/>
    </clipPath>
    <clipPath id="clip-path-3">
      <rect id="Rectángulo_349770" data-name="Rectángulo 349770" width="362.001" height="358.656" fill="none"/>
    </clipPath>
    <clipPath id="clip-path-4">
      <rect id="Rectángulo_349768" data-name="Rectángulo 349768" width="229.629" height="300.866" fill="none"/>
    </clipPath>
    <clipPath id="clip-path-5">
      <rect id="Rectángulo_349769" data-name="Rectángulo 349769" width="73.058" height="71.758" fill="none"/>
    </clipPath>
    <clipPath id="clip-path-6">
      <path id="Trazado_726359" data-name="Trazado 726359" d="M1637.57,493.245a11.461,11.461,0,1,0,11.215-9.11,11.474,11.474,0,0,0-11.215,9.11" transform="translate(-1637.321 -484.135)" fill="none"/>
    </clipPath>
    <linearGradient id="linear-gradient" x1="-5.953" y1="8.682" x2="-5.949" y2="8.682" gradientUnits="objectBoundingBox">
      <stop offset="0" stop-color="#fdf53f"/>
      <stop offset="1" stop-color="#d93c65"/>
    </linearGradient>
    <clipPath id="clip-path-7">
      <path id="Trazado_726360" data-name="Trazado 726360" d="M1523.666,710.675a2.958,2.958,0,0,0,1.41,5.055l35.768,7.538a2.83,2.83,0,0,0,3.226-3.779c-2.036-5.394-6.921-13.718-18-15.723a26.317,26.317,0,0,0-4.695-.43,25.887,25.887,0,0,0-17.712,7.339" transform="translate(-1522.727 -703.336)" fill="none"/>
    </clipPath>
    <linearGradient id="linear-gradient-2" x1="-4.351" y1="6.271" x2="-4.348" y2="6.271" xlink:href="#linear-gradient"/>
    <clipPath id="clip-path-9">
      <rect id="Rectángulo_349773" data-name="Rectángulo 349773" width="65.966" height="17.994" fill="none"/>
    </clipPath>
    <clipPath id="clip-path-10">
      <rect id="Rectángulo_349774" data-name="Rectángulo 349774" width="65.966" height="17.996" fill="none"/>
    </clipPath>
    <clipPath id="clip-path-12">
      <rect id="Rectángulo_349776" data-name="Rectángulo 349776" width="149.724" height="35.784" fill="none"/>
    </clipPath>
    <clipPath id="clip-path-14">
      <rect id="Rectángulo_349778" data-name="Rectángulo 349778" width="20.83" height="21.66" fill="none"/>
    </clipPath>
    <clipPath id="clip-path-15">
      <rect id="Rectángulo_349779" data-name="Rectángulo 349779" width="37.133" height="13.289" fill="none"/>
    </clipPath>
    <clipPath id="clip-path-16">
      <rect id="Rectángulo_349780" data-name="Rectángulo 349780" width="20.829" height="21.66" fill="none"/>
    </clipPath>
    <clipPath id="clip-path-17">
      <rect id="Rectángulo_349781" data-name="Rectángulo 349781" width="37.132" height="13.288" fill="none"/>
    </clipPath>
    <clipPath id="clip-path-18">
      <rect id="Rectángulo_349782" data-name="Rectángulo 349782" width="16.012" height="14.525" fill="none"/>
    </clipPath>
    <clipPath id="clip-path-19">
      <rect id="Rectángulo_349783" data-name="Rectángulo 349783" width="120.269" height="29.47" fill="none"/>
    </clipPath>
    <clipPath id="clip-path-20">
      <path id="Trazado_726373" data-name="Trazado 726373" d="M1354.411,1349.306l-8.909,12.222a.624.624,0,0,1-1.1-.183l-1.521-4.9a1.945,1.945,0,0,0-2.474-1.267,2.04,2.04,0,0,0-1.339,2.378c1.573,7.047,4.911,9.227,4.911,9.227a27.24,27.24,0,0,0,11.666-16.915.694.694,0,0,0-.685-.853.667.667,0,0,0-.548.288" transform="translate(-1339.018 -1349.018)" fill="none"/>
    </clipPath>
    <linearGradient id="linear-gradient-3" x1="-6.924" y1="7.639" x2="-6.918" y2="7.639" gradientUnits="objectBoundingBox">
      <stop offset="0" stop-color="#a737d5"/>
      <stop offset="1" stop-color="#ef497a"/>
    </linearGradient>
    <clipPath id="clip-path-23">
      <rect id="Rectángulo_349787" data-name="Rectángulo 349787" width="120.269" height="29.472" fill="none"/>
    </clipPath>
    <clipPath id="clip-path-24">
      <path id="Trazado_726377" data-name="Trazado 726377" d="M1311.272,1553.994l-8.909,12.223a.624.624,0,0,1-1.1-.183l-1.521-4.9a1.944,1.944,0,0,0-2.474-1.267,2.04,2.04,0,0,0-1.339,2.378c1.573,7.048,4.911,9.227,4.911,9.227a27.242,27.242,0,0,0,11.666-16.915.694.694,0,0,0-.686-.853.668.668,0,0,0-.547.288" transform="translate(-1295.878 -1553.706)" fill="none"/>
    </clipPath>
    <linearGradient id="linear-gradient-4" x1="-6.695" y1="6.553" x2="-6.69" y2="6.553" xlink:href="#linear-gradient-3"/>
    <clipPath id="clip-path-27">
      <rect id="Rectángulo_349791" data-name="Rectángulo 349791" width="120.269" height="29.471" fill="none"/>
    </clipPath>
    <clipPath id="clip-path-28">
      <path id="Trazado_726381" data-name="Trazado 726381" d="M1268.132,1758.683l-8.909,12.223a.625.625,0,0,1-1.1-.183l-1.521-4.9a1.944,1.944,0,0,0-2.474-1.267,2.04,2.04,0,0,0-1.339,2.379c1.573,7.047,4.911,9.227,4.911,9.227a27.241,27.241,0,0,0,11.666-16.915.694.694,0,0,0-.686-.853.667.667,0,0,0-.547.288" transform="translate(-1252.739 -1758.395)" fill="none"/>
    </clipPath>
    <linearGradient id="linear-gradient-5" x1="-6.482" y1="5.455" x2="-6.477" y2="5.455" xlink:href="#linear-gradient-3"/>
    <clipPath id="clip-path-32">
      <path id="Trazado_726385" data-name="Trazado 726385" d="M1224.992,1963.371l-8.909,12.222a.624.624,0,0,1-1.1-.182l-1.521-4.9a1.945,1.945,0,0,0-2.474-1.267,2.039,2.039,0,0,0-1.339,2.378c1.573,7.048,4.911,9.227,4.911,9.227a27.241,27.241,0,0,0,11.666-16.915.694.694,0,0,0-.685-.853.667.667,0,0,0-.548.288" transform="translate(-1209.599 -1963.083)" fill="none"/>
    </clipPath>
    <linearGradient id="linear-gradient-6" x1="-6.239" y1="4.382" x2="-6.233" y2="4.382" xlink:href="#linear-gradient-3"/>
    <clipPath id="clip-path-34">
      <rect id="Rectángulo_349798" data-name="Rectángulo 349798" width="243.048" height="293.239" fill="none"/>
    </clipPath>
    <clipPath id="clip-path-35">
      <rect id="Rectángulo_349799" data-name="Rectángulo 349799" width="76.817" height="68.505" fill="none"/>
    </clipPath>
    <clipPath id="clip-path-36">
      <rect id="Rectángulo_349800" data-name="Rectángulo 349800" width="66.748" height="16.05" fill="none"/>
    </clipPath>
    <clipPath id="clip-path-37">
      <rect id="Rectángulo_349801" data-name="Rectángulo 349801" width="66.747" height="16.05" fill="none"/>
    </clipPath>
    <clipPath id="clip-path-39">
      <rect id="Rectángulo_349803" data-name="Rectángulo 349803" width="150.892" height="32.749" fill="none"/>
    </clipPath>
    <clipPath id="clip-path-40">
      <rect id="Rectángulo_349804" data-name="Rectángulo 349804" width="150.892" height="32.748" fill="none"/>
    </clipPath>
    <clipPath id="clip-path-41">
      <rect id="Rectángulo_349805" data-name="Rectángulo 349805" width="23.542" height="21.096" fill="none"/>
    </clipPath>
    <clipPath id="clip-path-42">
      <rect id="Rectángulo_349806" data-name="Rectángulo 349806" width="37.96" height="11.411" fill="none"/>
    </clipPath>
    <clipPath id="clip-path-44">
      <rect id="Rectángulo_349808" data-name="Rectángulo 349808" width="37.959" height="11.411" fill="none"/>
    </clipPath>
    <clipPath id="clip-path-45">
      <rect id="Rectángulo_349809" data-name="Rectángulo 349809" width="17.133" height="14.738" fill="none"/>
    </clipPath>
    <clipPath id="clip-path-46">
      <rect id="Rectángulo_349810" data-name="Rectángulo 349810" width="120.35" height="29.084" fill="none"/>
    </clipPath>
    <clipPath id="clip-path-48">
      <rect id="Rectángulo_349812" data-name="Rectángulo 349812" width="120.35" height="29.083" fill="none"/>
    </clipPath>
    <clipPath id="clip-path-49">
      <rect id="Rectángulo_349813" data-name="Rectángulo 349813" width="17.133" height="14.737" fill="none"/>
    </clipPath>
    <clipPath id="clip-path-52">
      <rect id="Rectángulo_349816" data-name="Rectángulo 349816" width="120.349" height="29.083" fill="none"/>
    </clipPath>
    <clipPath id="clip-path-53">
      <path id="Trazado_726412" data-name="Trazado 726412" d="M647.176,2090.236l-3.327,14.755a.624.624,0,0,1-1.083.269l-3.34-3.892a1.945,1.945,0,0,0-2.774-.181,2.039,2.039,0,0,0-.285,2.714c4.241,5.844,8.17,6.52,8.17,6.52a27.24,27.24,0,0,0,3.994-20.156.681.681,0,0,0-.684-.569.672.672,0,0,0-.672.54" transform="translate(-635.978 -2089.696)" fill="none"/>
    </clipPath>
    <linearGradient id="linear-gradient-7" x1="-3.198" y1="4.352" x2="-3.193" y2="4.352" xlink:href="#linear-gradient-3"/>
    <clipPath id="clip-path-55">
      <rect id="Rectángulo_349819" data-name="Rectángulo 349819" width="51.459" height="83.918" fill="none"/>
    </clipPath>
    <clipPath id="clip-path-56">
      <rect id="Rectángulo_349820" data-name="Rectángulo 349820" width="49.865" height="33.401" fill="none"/>
    </clipPath>
    <clipPath id="clip-path-57">
      <path id="Trazado_726417" data-name="Trazado 726417" d="M626.007,455.482a19.648,19.648,0,0,0-19.648,19.648V718.937A12.117,12.117,0,0,0,618.7,731.052l191.5-3.48a12.765,12.765,0,0,0,12.517-13.412L810.383,471.912a17.31,17.31,0,0,0-17.288-16.43Z" transform="translate(-606.359 -455.482)" fill="#115089"/>
    </clipPath>
    <clipPath id="clip-path-59">
      <rect id="Rectángulo_349823" data-name="Rectángulo 349823" width="184.049" height="257.441" fill="none"/>
    </clipPath>
    <clipPath id="clip-path-60">
      <rect id="Rectángulo_349824" data-name="Rectángulo 349824" width="63.791" height="57.322" fill="none"/>
    </clipPath>
    <clipPath id="clip-path-61">
      <path id="Trazado_726421" data-name="Trazado 726421" d="M1049.638,736.22a10.792,10.792,0,1,0,10.792-10.792,10.792,10.792,0,0,0-10.792,10.792" transform="translate(-1049.638 -725.428)" fill="#ffa031"/>
    </clipPath>
    <clipPath id="clip-path-62">
      <path id="Trazado_726422" data-name="Trazado 726422" d="M1004.816,936.416a23.968,23.968,0,0,0-19.283,10.7,2.782,2.782,0,0,0,2.278,4.379h34.382a2.662,2.662,0,0,0,2.236-4.1c-2.856-4.469-8.764-10.99-18.924-10.99q-.341,0-.689.01" transform="translate(-985.025 -936.406)" fill="#ffa031"/>
    </clipPath>
    <clipPath id="clip-path-64">
      <rect id="Rectángulo_349828" data-name="Rectángulo 349828" width="63.682" height="4.478" fill="none"/>
    </clipPath>
    <clipPath id="clip-path-67">
      <rect id="Rectángulo_349831" data-name="Rectángulo 349831" width="144.336" height="4.497" fill="none"/>
    </clipPath>
    <clipPath id="clip-path-68">
      <rect id="Rectángulo_349832" data-name="Rectángulo 349832" width="144.336" height="4.496" fill="none"/>
    </clipPath>
    <clipPath id="clip-path-69">
      <path id="Trazado_726428" data-name="Trazado 726428" d="M898.483,1356.56c-3.5.049-9.856.17-13.25.43a2.259,2.259,0,0,0-2.073,2.466L884.3,1371.6a3.1,3.1,0,0,0,3.054,2.812l12.913.139a2.816,2.816,0,0,0,2.842-2.757,51.7,51.7,0,0,0-1.489-12.812,3.171,3.171,0,0,0-3.086-2.425h-.045" transform="translate(-883.15 -1356.56)" fill="#115089"/>
    </clipPath>
    <clipPath id="clip-path-71">
      <rect id="Rectángulo_349835" data-name="Rectángulo 349835" width="35.877" height="5.874" fill="none"/>
    </clipPath>
    <clipPath id="clip-path-72">
      <path id="Trazado_726430" data-name="Trazado 726430" d="M1440.48,1356.56c-3.5.049-9.856.17-13.25.43a2.259,2.259,0,0,0-2.073,2.466l1.135,12.148a3.1,3.1,0,0,0,3.054,2.812l12.913.139a2.816,2.816,0,0,0,2.842-2.757,51.689,51.689,0,0,0-1.49-12.812,3.171,3.171,0,0,0-3.086-2.425h-.045" transform="translate(-1425.147 -1356.56)" fill="#115089"/>
    </clipPath>
    <clipPath id="clip-path-75">
      <rect id="Rectángulo_349839" data-name="Rectángulo 349839" width="14.774" height="12.308" fill="none"/>
    </clipPath>
    <clipPath id="clip-path-76">
      <rect id="Rectángulo_349840" data-name="Rectángulo 349840" width="115.448" height="5.917" fill="none"/>
    </clipPath>
    <clipPath id="clip-path-77">
      <path id="Trazado_726435" data-name="Trazado 726435" d="M951.949,1574.68l-5.829,12.978a.587.587,0,0,1-1.048.045l-2.35-4.213a1.829,1.829,0,0,0-2.523-.686,1.918,1.918,0,0,0-.771,2.449c2.815,6.181,6.31,7.54,6.31,7.54a25.623,25.623,0,0,0,7.455-17.831.647.647,0,0,0-.661-.666.627.627,0,0,0-.584.385" transform="translate(-939.255 -1574.295)" fill="#115089"/>
    </clipPath>
    <clipPath id="clip-path-81">
      <path id="Trazado_726439" data-name="Trazado 726439" d="M951.949,1771.437l-5.829,12.978a.587.587,0,0,1-1.048.046l-2.35-4.213a1.829,1.829,0,0,0-2.523-.686,1.918,1.918,0,0,0-.771,2.449c2.815,6.181,6.31,7.54,6.31,7.54a25.623,25.623,0,0,0,7.455-17.831.647.647,0,0,0-.661-.667.627.627,0,0,0-.584.385" transform="translate(-939.255 -1771.052)" fill="#115089"/>
    </clipPath>
    <clipPath id="clip-path-85">
      <path id="Trazado_726443" data-name="Trazado 726443" d="M951.949,1968.2l-5.829,12.978a.587.587,0,0,1-1.048.045l-2.35-4.213a1.829,1.829,0,0,0-2.523-.686,1.918,1.918,0,0,0-.771,2.449c2.815,6.181,6.31,7.54,6.31,7.54a25.623,25.623,0,0,0,7.455-17.831.647.647,0,0,0-.661-.666.627.627,0,0,0-.584.385" transform="translate(-939.255 -1967.811)" fill="#115089"/>
    </clipPath>
    <clipPath id="clip-path-89">
      <path id="Trazado_726447" data-name="Trazado 726447" d="M951.949,2164.954l-5.829,12.978a.587.587,0,0,1-1.048.045l-2.35-4.213a1.829,1.829,0,0,0-2.523-.687,1.919,1.919,0,0,0-.771,2.449c2.815,6.181,6.31,7.54,6.31,7.54a25.623,25.623,0,0,0,7.455-17.831.647.647,0,0,0-.661-.667.627.627,0,0,0-.584.385" transform="translate(-939.255 -2164.568)" fill="#115089"/>
    </clipPath>
    <clipPath id="clip-path-90">
      <path id="Trazado_726448" data-name="Trazado 726448" d="M1332.481,185.769a4.727,4.727,0,1,1,4.727,4.727,4.727,4.727,0,0,1-4.727-4.727m-1.914-12.327a7.369,7.369,0,0,0-5.234,7.747l1.593,17.39,18.958,1.682s11.5-15.559-.34-23.793a18.419,18.419,0,0,0-10.613-3.66,15.383,15.383,0,0,0-4.365.634" transform="translate(-1325.302 -172.807)" fill="#1c466d"/>
    </clipPath>
    <clipPath id="clip-path-92">
      <path id="Trazado_726450" data-name="Trazado 726450" d="M1138.463,354.815v8.743l71.3,1.266-.5-8.4a5.189,5.189,0,0,0-5-4.875l-60.278-2.065q-.094,0-.186,0a5.336,5.336,0,0,0-5.332,5.335" transform="translate(-1138.463 -349.48)" fill="#1c466d"/>
    </clipPath>
    <clipPath id="clip-path-94">
      <path id="Trazado_726453" data-name="Trazado 726453" d="M1594.1,509.965a1.8,1.8,0,0,0-1.79,1.968q.567,5.888.863,12.186a243.026,243.026,0,0,1-1.06,36.2l14.19-11.571,14.19,11.571c.53-9.453.792-19.455.68-29.954q-.1-9.654-.588-18.7a1.8,1.8,0,0,0-1.794-1.7Z" transform="translate(-1592.112 -509.965)" fill="#ffa031"/>
    </clipPath>
    <clipPath id="clip-path-95">
      <path id="Trazado_726454" data-name="Trazado 726454" d="M1058.716,433.271l-105.409,0a5.68,5.68,0,0,0-5.674,5.407l-.233,4.84a4.35,4.35,0,0,0,4.345,4.559H1059.89a6.691,6.691,0,0,0,6.593-7.832l-.089-.515a7.791,7.791,0,0,0-7.677-6.462h0" transform="translate(-947.396 -433.271)" fill="#265e91"/>
    </clipPath>
    <clipPath id="clip-path-96">
      <path id="Trazado_726455" data-name="Trazado 726455" d="M2272.823,2648.755c-6.264,2-13.75,7.035-17,9.348,3.569.184,8.914.343,14.436.089,6.045-.278,8.128-1.518,8.84-2.407-.52-5.071-1.977-7.287-1.977-7.287Z" transform="translate(-2255.824 -2648.498)" fill="#1c466d"/>
    </clipPath>
    <clipPath id="clip-path-97">
      <path id="Trazado_726456" data-name="Trazado 726456" d="M2267.828,2707.048c-5.522.255-10.867.095-14.436-.089l-.044.032a.754.754,0,0,0,.4,1.368c5.407.284,16.62-.49,21.142-.832a2.014,2.014,0,0,0,1.85-2.174c-.019-.246-.044-.478-.068-.711-.713.889-2.8,2.129-8.841,2.407" transform="translate(-2253.03 -2704.641)" fill="none"/>
    </clipPath>
    <linearGradient id="linear-gradient-8" x1="-14.148" y1="0.798" x2="-14.141" y2="0.798" gradientUnits="objectBoundingBox">
      <stop offset="0" stop-color="#090056"/>
      <stop offset="1" stop-color="#020039"/>
    </linearGradient>
    <clipPath id="clip-path-98">
      <path id="Trazado_726457" data-name="Trazado 726457" d="M2672.711,2651.094c-.5.958-1.15,4.706-1.554,7.3a2.148,2.148,0,0,0,.3,1.478l10.773-.377a1.211,1.211,0,0,0-.163-.644c-1.039-1.807-2.571-4.47-3.125-5.406a7.138,7.138,0,0,0-2.758-2.349,5.533,5.533,0,0,0-2.226-.668,1.3,1.3,0,0,0-1.251.668" transform="translate(-2671.131 -2650.426)" fill="#1c466d"/>
    </clipPath>
    <clipPath id="clip-path-99">
      <path id="Trazado_726458" data-name="Trazado 726458" d="M2673.667,2720.659a2.165,2.165,0,0,0,1.9,1.026l7.675-.211a1.227,1.227,0,0,0,1.194-1.192Z" transform="translate(-2673.667 -2720.282)" fill="none"/>
    </clipPath>
    <linearGradient id="linear-gradient-9" x1="-38.4" y1="1.098" x2="-38.386" y2="1.098" xlink:href="#linear-gradient-8"/>
    <clipPath id="clip-path-100">
      <path id="Trazado_726459" data-name="Trazado 726459" d="M2664.99,2580.17c.093.311,1.485,7.06,2.094,10.022a1.692,1.692,0,0,0,1.741,1.352c.456-.023.986-.064,1.542-.136a2.043,2.043,0,0,0,1.776-1.947c.1-2.595.147-7.576-.805-9.506a2.129,2.129,0,0,0-2.086-1.13,10.636,10.636,0,0,0-4.262,1.345" transform="translate(-2664.99 -2578.825)" fill="none"/>
    </clipPath>
    <linearGradient id="linear-gradient-10" x1="-47.372" y1="1.877" x2="-47.355" y2="1.877" gradientUnits="objectBoundingBox">
      <stop offset="0" stop-color="#febbba"/>
      <stop offset="1" stop-color="#ff928e"/>
    </linearGradient>
    <clipPath id="clip-path-101">
      <path id="Trazado_726460" data-name="Trazado 726460" d="M2380.91,2595.441a1.732,1.732,0,0,0,1.6,1.56c.559.045,1.11.054,1.575.048a1.569,1.569,0,0,0,1.435-1.237c.9-3.049.068-6.151.666-6.132l-6-2.147Z" transform="translate(-2380.175 -2587.533)" fill="none"/>
    </clipPath>
    <linearGradient id="linear-gradient-11" x1="-49.485" y1="2.396" x2="-49.464" y2="2.396" xlink:href="#linear-gradient-10"/>
    <clipPath id="clip-path-102">
      <path id="Trazado_726461" data-name="Trazado 726461" d="M2297.759,1930.673c.267,1.3,9.673,56.165,10.245,84.556a.966.966,0,0,0,.832.941,18.982,18.982,0,0,0,5.774-.038.68.68,0,0,0,.561-.625c.329-5.291,2.973-50.024-.265-71.083,0,0,26.747,56.292,30.8,71.814a.817.817,0,0,0,.835.611,20.218,20.218,0,0,0,5.419-.963,1.417,1.417,0,0,0,.893-1.664c-2.265-9.289-18.14-73.289-28.918-87.389Z" transform="translate(-2297.759 -1926.833)" fill="#1c466d"/>
    </clipPath>
    <clipPath id="clip-path-103">
      <path id="Trazado_726462" data-name="Trazado 726462" d="M2399.668,2031.547a.352.352,0,0,0,0,.5l3.582,3.662a.351.351,0,0,0,.5-.491l-3.582-3.663a.351.351,0,0,0-.5-.005" transform="translate(-2399.563 -2031.447)" fill="none"/>
    </clipPath>
    <linearGradient id="linear-gradient-12" x1="-50.783" y1="15.673" x2="-50.761" y2="15.673" gradientUnits="objectBoundingBox">
      <stop offset="0" stop-color="#cb236d"/>
      <stop offset="1" stop-color="#4c246d"/>
    </linearGradient>
    <clipPath id="clip-path-104">
      <path id="Trazado_726463" data-name="Trazado 726463" d="M2178.294,1400.2c-5.963.9-7.422,23.265-7.422,23.265l3.148,4.475,37.114,4,1.11-31.662a53.394,53.394,0,0,0-14.521-1.674,136.306,136.306,0,0,0-19.43,1.595" transform="translate(-2170.872 -1398.601)" fill="#006f6e"/>
    </clipPath>
    <clipPath id="clip-path-105">
      <path id="Trazado_726464" data-name="Trazado 726464" d="M2278.709,1281.8l-1.939,14.928c2.454,1.764,12.764.077,12.764.077.14-3.917-.6-16.51-.6-16.51Z" transform="translate(-2276.771 -1280.292)" fill="none"/>
    </clipPath>
    <linearGradient id="linear-gradient-13" x1="-21.286" y1="10.222" x2="-21.277" y2="10.222" xlink:href="#linear-gradient-10"/>
    <clipPath id="clip-path-106">
      <path id="Trazado_726465" data-name="Trazado 726465" d="M2252.027,1194.39c-.656,3.988-1.8,6.5,2.752,7.807s8.71-.583,11.258-4.352c0,0,3.98-5.8,3.508-8.4s-12.712-6.326-12.712-6.326-4.151,7.287-4.806,11.276" transform="translate(-2251.4 -1183.114)" fill="none"/>
    </clipPath>
    <linearGradient id="linear-gradient-14" x1="-10.091" y1="7.364" x2="-10.086" y2="7.364" xlink:href="#linear-gradient-10"/>
    <clipPath id="clip-path-107">
      <path id="Trazado_726466" data-name="Trazado 726466" d="M2266.072,1117.705a5.582,5.582,0,0,0-2.967,7.4c1.494,3.18,9.721,5.8,11.75,6.9s-.921,5.8-.921,5.8l.587.063,1.25.135a.317.317,0,0,1,.278.369l-.594,3.483a.318.318,0,0,0,.2.352c.536.2,1.981.5,4.592-.552,2.552-1.03,1.726-2.1,1.145-2.572a.315.315,0,0,1,.039-.507c3.75-2.449,4.762-5.809,3.332-7.3-.822-.858-1.511-.809-1.961-.6a.317.317,0,0,1-.46-.311c.333-3.966-3.2-6.691-8.813-8.364-3.954-1.179-5.3-2.792-5.762-3.745a.316.316,0,0,0-.574.025.317.317,0,0,1-.587,0l-.154-.387a.321.321,0,0,0-.292-.2.294.294,0,0,0-.089.014" transform="translate(-2262.615 -1117.691)" fill="#1c466d"/>
    </clipPath>
    <clipPath id="clip-path-108">
      <path id="Trazado_726467" data-name="Trazado 726467" d="M2352.622,1255.393l.333,2.2c1.78.007,5.547-3.738,3.505-5.343a1.39,1.39,0,0,0-.866-.331c-1.658,0-2.972,3.473-2.972,3.473" transform="translate(-2352.622 -1251.92)" fill="none"/>
    </clipPath>
    <linearGradient id="linear-gradient-15" x1="-37.241" y1="24.146" x2="-37.225" y2="24.146" xlink:href="#linear-gradient-10"/>
    <clipPath id="clip-path-109">
      <path id="Trazado_726468" data-name="Trazado 726468" d="M2011.095,1553.214l-.984,3.869,95.371,43.719,5.651-26.787a3.883,3.883,0,0,0-3.023-4.6l-92.689-18.91a3.693,3.693,0,0,0-4.325,2.713" transform="translate(-2010.111 -1550.426)" fill="#ffa031"/>
    </clipPath>
    <clipPath id="clip-path-111">
      <path id="Trazado_726471" data-name="Trazado 726471" d="M1913.882,1629.7l-6.056,48.44a4.885,4.885,0,0,0,4.2,5.447l95.63,12.771a3.989,3.989,0,0,0,4.448-3.214l8.332-44.142a3.686,3.686,0,0,0-2.939-4.305l-98.645-18.619a4.213,4.213,0,0,0-4.969,3.622" transform="translate(-1907.787 -1626.003)" fill="#ffa031"/>
    </clipPath>
    <clipPath id="clip-path-112">
      <path id="Trazado_726472" data-name="Trazado 726472" d="M2033.215,1613.558a3.786,3.786,0,0,0,3.019,4.424l21.995,4.151a3.787,3.787,0,0,0,1.4-7.443l-21.995-4.151a3.783,3.783,0,0,0-4.424,3.019" transform="translate(-2033.148 -1610.472)" fill="#ffa031"/>
    </clipPath>
    <clipPath id="clip-path-113">
      <path id="Trazado_726473" data-name="Trazado 726473" d="M2409.879,1425.3c10.653,13.57,16.581,23.8,19.8,31.355l10.377-5.061c-3.192-22.429-19.826-40.1-19.826-40.1Z" transform="translate(-2409.879 -1411.498)" fill="#006f6e"/>
    </clipPath>
    <clipPath id="clip-path-114">
      <path id="Trazado_726474" data-name="Trazado 726474" d="M2516.362,1725.521c5.239,12.286,3.311,17.476,2.874,18.391l-9.745,2.99c-.061,1.111,1.539,2.108,3.581,1.857a5,5,0,0,1,3.107.422,60.225,60.225,0,0,0-4.786,7.177c-.471.788-4.884,8.642,4.777,2.846,3.7-2.221,6.925-12.229,6.925-12.229a46.745,46.745,0,0,0,3.644-26.513Z" transform="translate(-2509.489 -1720.46)" fill="none"/>
    </clipPath>
    <linearGradient id="linear-gradient-16" x1="-6.333" y1="3.129" x2="-6.33" y2="3.129" xlink:href="#linear-gradient-10"/>
  </defs>
  <g id="Grupo_1025940" data-name="Grupo 1025940" clip-path="url(#clip-path)">
    <g id="Grupo_1025656" data-name="Grupo 1025656" transform="translate(3.988 0)">
      <g id="Grupo_1025655" data-name="Grupo 1025655" clip-path="url(#clip-path-2)">
        <rect id="Rectángulo_349767" data-name="Rectángulo 349767" width="543.707" height="542.281" transform="translate(-200.739 164.067) rotate(-41.276)" fill="#d7e6f0"/>
      </g>
    </g>
    <g id="Grupo_1025664" data-name="Grupo 1025664" transform="translate(0 0)">
      <g id="Grupo_1025663" data-name="Grupo 1025663" clip-path="url(#clip-path-3)">
        <path id="Trazado_726356" data-name="Trazado 726356" d="M993.007,110.248a6.068,6.068,0,0,1,7.982-4.5c23.059,8.222,102.586,35.381,171.166,44.424a5.611,5.611,0,0,1,4.821,6.424l-39.9,255.97a6.457,6.457,0,0,1-7.336,5.393c-28.738-4.3-147-22.445-187.774-35.6a5.115,5.115,0,0,1-3.435-5.9Z" transform="translate(-816.629 -91.711)" fill="#91b3fa"/>
        <g id="Grupo_1025659" data-name="Grupo 1025659" transform="translate(125.314 20.794)" opacity="0.6">
          <g id="Grupo_1025658" data-name="Grupo 1025658">
            <g id="Grupo_1025657" data-name="Grupo 1025657" clip-path="url(#clip-path-4)">
              <path id="Trazado_726357" data-name="Trazado 726357" d="M1018.028,164.888a5.839,5.839,0,0,1,7.682-4.333c22.19,7.912,98.723,34.049,164.72,42.751a5.4,5.4,0,0,1,4.64,6.182L1156.676,455.82a6.214,6.214,0,0,1-7.06,5.19c-27.656-4.14-141.465-21.6-180.7-34.259a4.922,4.922,0,0,1-3.305-5.676Z" transform="translate(-965.506 -160.213)" fill="#fff"/>
            </g>
          </g>
        </g>
        <g id="Grupo_1025662" data-name="Grupo 1025662" transform="translate(186.399 45.678)" opacity="0.78">
          <g id="Grupo_1025661" data-name="Grupo 1025661">
            <g id="Grupo_1025660" data-name="Grupo 1025660" clip-path="url(#clip-path-5)">
              <path id="Trazado_726358" data-name="Trazado 726358" d="M1449.2,352.04a3.608,3.608,0,0,0-4.428,2.923L1436.19,407.7a3.393,3.393,0,0,0,2.554,3.846c9.615,2.311,39.6,9.4,56.8,12.1a3.789,3.789,0,0,0,4.267-2.844c2.389-9.726,9.107-38.083,9.387-50.471a4.276,4.276,0,0,0-3.255-4.241Z" transform="translate(-1436.145 -351.933)" fill="#fff"/>
            </g>
          </g>
        </g>
      </g>
    </g>
    <g id="Grupo_1025666" data-name="Grupo 1025666" transform="translate(212.51 62.837)">
      <g id="Grupo_1025665" data-name="Grupo 1025665" clip-path="url(#clip-path-6)">
        <rect id="Rectángulo_349771" data-name="Rectángulo 349771" width="34.71" height="34.689" transform="translate(-13.058 11.674) rotate(-44.211)" fill="url(#linear-gradient)"/>
      </g>
    </g>
    <g id="Grupo_1025668" data-name="Grupo 1025668" transform="translate(197.637 91.287)">
      <g id="Grupo_1025667" data-name="Grupo 1025667" clip-path="url(#clip-path-7)">
        <rect id="Rectángulo_349772" data-name="Rectángulo 349772" width="45" height="44.561" transform="matrix(0.717, -0.697, 0.697, 0.717, -11, 9.916)" fill="url(#linear-gradient-2)"/>
      </g>
    </g>
    <g id="Grupo_1025703" data-name="Grupo 1025703" transform="translate(0 0)">
      <g id="Grupo_1025702" data-name="Grupo 1025702" clip-path="url(#clip-path-3)">
        <g id="Grupo_1025671" data-name="Grupo 1025671" transform="translate(273.511 65.456)" opacity="0.6">
          <g id="Grupo_1025670" data-name="Grupo 1025670">
            <g id="Grupo_1025669" data-name="Grupo 1025669" clip-path="url(#clip-path-9)">
              <path id="Trazado_726361" data-name="Trazado 726361" d="M2170.9,522.252a1.891,1.891,0,0,0,2.355-1.333,2.073,2.073,0,0,0-1.711-2.228l-62.456-14.33a1.353,1.353,0,0,0-1.757,1.6l.121.915a3.156,3.156,0,0,0,2.309,2.493Z" transform="translate(-2107.309 -504.309)" fill="#fff"/>
            </g>
          </g>
        </g>
        <g id="Grupo_1025674" data-name="Grupo 1025674" transform="translate(271.459 75.191)" opacity="0.6">
          <g id="Grupo_1025673" data-name="Grupo 1025673">
            <g id="Grupo_1025672" data-name="Grupo 1025672" clip-path="url(#clip-path-10)">
              <path id="Trazado_726362" data-name="Trazado 726362" d="M2093.274,579.374a1.353,1.353,0,0,0-1.757,1.6l.12.915a3.158,3.158,0,0,0,2.309,2.493l61.14,12.885a1.891,1.891,0,0,0,2.355-1.334,2.073,2.073,0,0,0-1.711-2.228Z" transform="translate(-2091.499 -579.322)" fill="#fff"/>
            </g>
          </g>
        </g>
        <g id="Grupo_1025677" data-name="Grupo 1025677" transform="translate(269.377 85.07)" opacity="0.6">
          <g id="Grupo_1025676" data-name="Grupo 1025676">
            <g id="Grupo_1025675" data-name="Grupo 1025675" clip-path="url(#clip-path-9)">
              <path id="Trazado_726363" data-name="Trazado 726363" d="M2077.234,655.478a1.352,1.352,0,0,0-1.757,1.6l.121.915a3.156,3.156,0,0,0,2.308,2.493l61.14,12.886a1.891,1.891,0,0,0,2.354-1.334,2.073,2.073,0,0,0-1.71-2.228Z" transform="translate(-2075.459 -655.427)" fill="#fff"/>
            </g>
          </g>
        </g>
        <g id="Grupo_1025680" data-name="Grupo 1025680" transform="translate(181.596 116.199)" opacity="0.6">
          <g id="Grupo_1025679" data-name="Grupo 1025679">
            <g id="Grupo_1025678" data-name="Grupo 1025678" clip-path="url(#clip-path-12)">
              <path id="Trazado_726364" data-name="Trazado 726364" d="M1546.553,931a1.81,1.81,0,0,0,2.29-1.347,2.142,2.142,0,0,0-1.78-2.222l-146.625-32.111c-1.118-.245-1.613.392-1.1,1.415l.883,1.76a4.9,4.9,0,0,0,2.97,2.29Z" transform="translate(-1399.136 -895.269)" fill="#fff"/>
            </g>
          </g>
        </g>
        <g id="Grupo_1025683" data-name="Grupo 1025683" transform="translate(179.544 125.934)" opacity="0.6">
          <g id="Grupo_1025682" data-name="Grupo 1025682">
            <g id="Grupo_1025681" data-name="Grupo 1025681" clip-path="url(#clip-path-12)">
              <path id="Trazado_726365" data-name="Trazado 726365" d="M1384.629,970.335c-1.118-.245-1.613.392-1.1,1.415l.883,1.76a4.9,4.9,0,0,0,2.969,2.29l143.363,30.215a1.81,1.81,0,0,0,2.29-1.347,2.142,2.142,0,0,0-1.78-2.222Z" transform="translate(-1383.327 -970.282)" fill="#fff"/>
            </g>
          </g>
        </g>
        <g id="Grupo_1025686" data-name="Grupo 1025686" transform="translate(172.556 142.083)" opacity="0.6">
          <g id="Grupo_1025685" data-name="Grupo 1025685">
            <g id="Grupo_1025684" data-name="Grupo 1025684" clip-path="url(#clip-path-14)">
              <path id="Trazado_726366" data-name="Trazado 726366" d="M1333.695,1094.716c3.588.474,10.228,1.742,13.879,2.458a3.371,3.371,0,0,1,2.725,3.209,54.971,54.971,0,0,1-1.259,13.655,2.994,2.994,0,0,1-3.561,2.245l-13.4-2.976a3.3,3.3,0,0,1-2.561-3.595l1.482-12.886a2.4,2.4,0,0,1,2.7-2.111" transform="translate(-1329.493 -1094.696)" fill="#fff"/>
            </g>
          </g>
        </g>
        <g id="Grupo_1025689" data-name="Grupo 1025689" transform="translate(198.232 152.465)" opacity="0.6">
          <g id="Grupo_1025688" data-name="Grupo 1025688">
            <g id="Grupo_1025687" data-name="Grupo 1025687" clip-path="url(#clip-path-15)">
              <path id="Trazado_726367" data-name="Trazado 726367" d="M1529.586,1174.756a1.656,1.656,0,0,0-2.139,1.564l-.131,2.235a2.5,2.5,0,0,0,1.915,2.507l32.624,6.876a2.057,2.057,0,0,0,2.441-1.613l.109-.553a2.229,2.229,0,0,0-1.613-2.556Z" transform="translate(-1527.312 -1174.693)" fill="#fff"/>
            </g>
          </g>
        </g>
        <g id="Grupo_1025692" data-name="Grupo 1025692" transform="translate(245.739 157.506)" opacity="0.6">
          <g id="Grupo_1025691" data-name="Grupo 1025691">
            <g id="Grupo_1025690" data-name="Grupo 1025690" clip-path="url(#clip-path-16)">
              <path id="Trazado_726368" data-name="Trazado 726368" d="M1897.539,1213.55c3.588.474,10.228,1.742,13.879,2.458a3.371,3.371,0,0,1,2.725,3.21,54.942,54.942,0,0,1-1.259,13.654,2.994,2.994,0,0,1-3.561,2.245l-13.4-2.976a3.3,3.3,0,0,1-2.561-3.595l1.482-12.886a2.4,2.4,0,0,1,2.7-2.111" transform="translate(-1893.338 -1213.529)" fill="#fff"/>
            </g>
          </g>
        </g>
        <g id="Grupo_1025695" data-name="Grupo 1025695" transform="translate(271.415 167.889)" opacity="0.6">
          <g id="Grupo_1025694" data-name="Grupo 1025694">
            <g id="Grupo_1025693" data-name="Grupo 1025693" clip-path="url(#clip-path-17)">
              <path id="Trazado_726369" data-name="Trazado 726369" d="M2093.431,1293.591a1.656,1.656,0,0,0-2.139,1.564l-.131,2.234a2.5,2.5,0,0,0,1.915,2.507l32.625,6.876a2.057,2.057,0,0,0,2.44-1.613l.11-.553a2.229,2.229,0,0,0-1.614-2.556Z" transform="translate(-2091.157 -1293.529)" fill="#fff"/>
            </g>
          </g>
        </g>
        <path id="Trazado_726370" data-name="Trazado 726370" d="M1324.409,1384.07l-.034-.007L1312,1381.331a3.405,3.405,0,0,1-2.8-3.551l1.1-10.63a2.308,2.308,0,0,1,.892-1.587,2.782,2.782,0,0,1,2.094-.536c1.059.149,2.556.334,4.141.529,3.337.412,7.491.925,9.792,1.38a3.541,3.541,0,0,1,2.96,3.159c.142,2.523-.866,7.031-2,11.819a3.13,3.13,0,0,1-3.77,2.155m-11.255-18.079a1.8,1.8,0,0,0-1.359.339,1.342,1.342,0,0,0-.524.921l-1.1,10.63a2.437,2.437,0,0,0,2.046,2.5l12.37,2.731.025.005a2.158,2.158,0,0,0,2.622-1.428c1.12-4.716,2.115-9.147,1.979-11.54a2.614,2.614,0,0,0-2.177-2.26c-2.267-.448-6.4-.958-9.723-1.368-1.589-.2-3.09-.382-4.158-.531" transform="translate(-1139.264 -1187.833)" fill="#fff"/>
        <g id="Grupo_1025698" data-name="Grupo 1025698" transform="translate(172.161 179.493)" opacity="0.6">
          <g id="Grupo_1025697" data-name="Grupo 1025697">
            <g id="Grupo_1025696" data-name="Grupo 1025696" clip-path="url(#clip-path-18)">
              <path id="Trazado_726371" data-name="Trazado 726371" d="M1329.275,1382.947c2.641.371,8.422.989,11.113,1.521a2.452,2.452,0,0,1,2.052,2.166c.115,2.025-.759,5.828-1.591,9.333a2.107,2.107,0,0,1-2.577,1.427l-9.886-2.183a2.339,2.339,0,0,1-1.937-2.418l.881-8.495a1.645,1.645,0,0,1,1.946-1.352" transform="translate(-1326.439 -1382.928)" fill="#fff"/>
            </g>
          </g>
        </g>
        <g id="Grupo_1025701" data-name="Grupo 1025701" transform="translate(197.483 188.321)" opacity="0.6">
          <g id="Grupo_1025700" data-name="Grupo 1025700">
            <g id="Grupo_1025699" data-name="Grupo 1025699" clip-path="url(#clip-path-19)">
              <path id="Trazado_726372" data-name="Trazado 726372" d="M1521.546,1454.251a3.145,3.145,0,0,0,2.519,2.926l114.9,23.194a2.379,2.379,0,0,0,.972-4.657l-114.582-24.7a3.145,3.145,0,0,0-3.8,3.232" transform="translate(-1521.542 -1450.947)" fill="#fff"/>
            </g>
          </g>
        </g>
      </g>
    </g>
    <g id="Grupo_1025705" data-name="Grupo 1025705" transform="translate(173.793 175.091)">
      <g id="Grupo_1025704" data-name="Grupo 1025704" clip-path="url(#clip-path-20)">
        <rect id="Rectángulo_349785" data-name="Rectángulo 349785" width="24.526" height="24.469" transform="matrix(0.673, -0.74, 0.74, 0.673, -9.022, 9.731)" fill="url(#linear-gradient-3)"/>
      </g>
    </g>
    <g id="Grupo_1025713" data-name="Grupo 1025713" transform="translate(0 0)">
      <g id="Grupo_1025712" data-name="Grupo 1025712" clip-path="url(#clip-path-3)">
        <path id="Trazado_726374" data-name="Trazado 726374" d="M1281.269,1588.758l-.034-.007-12.37-2.731a3.4,3.4,0,0,1-2.8-3.551l1.1-10.63a2.311,2.311,0,0,1,.892-1.587,2.783,2.783,0,0,1,2.094-.536c1.059.149,2.556.333,4.141.529,3.337.412,7.491.925,9.792,1.379l.05.01a3.533,3.533,0,0,1,2.909,3.149c.143,2.523-.867,7.031-2,11.819a3.13,3.13,0,0,1-3.77,2.155m-11.255-18.079a1.8,1.8,0,0,0-1.359.339,1.344,1.344,0,0,0-.524.921l-1.1,10.63a2.437,2.437,0,0,0,2.046,2.5l12.371,2.731.025.006a2.158,2.158,0,0,0,2.622-1.428c1.12-4.716,2.114-9.147,1.979-11.54a2.6,2.6,0,0,0-2.177-2.26c-2.267-.448-6.4-.958-9.723-1.368-1.589-.2-3.09-.382-4.158-.531" transform="translate(-1101.724 -1365.955)" fill="#fff"/>
        <g id="Grupo_1025708" data-name="Grupo 1025708" transform="translate(166.561 206.06)" opacity="0.6">
          <g id="Grupo_1025707" data-name="Grupo 1025707">
            <g id="Grupo_1025706" data-name="Grupo 1025706" clip-path="url(#clip-path-18)">
              <path id="Trazado_726375" data-name="Trazado 726375" d="M1286.135,1587.636c2.641.371,8.422.989,11.114,1.521a2.452,2.452,0,0,1,2.052,2.166c.115,2.025-.759,5.828-1.591,9.333a2.108,2.108,0,0,1-2.578,1.427l-9.885-2.183a2.339,2.339,0,0,1-1.937-2.418l.881-8.495a1.645,1.645,0,0,1,1.945-1.352" transform="translate(-1283.299 -1587.617)" fill="#fff"/>
            </g>
          </g>
        </g>
        <g id="Grupo_1025711" data-name="Grupo 1025711" transform="translate(191.884 214.887)" opacity="0.6">
          <g id="Grupo_1025710" data-name="Grupo 1025710">
            <g id="Grupo_1025709" data-name="Grupo 1025709" clip-path="url(#clip-path-23)">
              <path id="Trazado_726376" data-name="Trazado 726376" d="M1478.406,1658.939a3.146,3.146,0,0,0,2.519,2.925l114.9,23.194a2.378,2.378,0,0,0,.972-4.656l-114.582-24.7a3.146,3.146,0,0,0-3.8,3.233" transform="translate(-1478.402 -1655.634)" fill="#fff"/>
            </g>
          </g>
        </g>
      </g>
    </g>
    <g id="Grupo_1025715" data-name="Grupo 1025715" transform="translate(168.194 201.658)">
      <g id="Grupo_1025714" data-name="Grupo 1025714" clip-path="url(#clip-path-24)">
        <rect id="Rectángulo_349789" data-name="Rectángulo 349789" width="24.526" height="24.469" transform="translate(-9.022 9.731) rotate(-47.734)" fill="url(#linear-gradient-4)"/>
      </g>
    </g>
    <g id="Grupo_1025723" data-name="Grupo 1025723" transform="translate(0 0)">
      <g id="Grupo_1025722" data-name="Grupo 1025722" clip-path="url(#clip-path-3)">
        <path id="Trazado_726378" data-name="Trazado 726378" d="M1238.129,1793.447l-.034-.007-12.371-2.732a3.4,3.4,0,0,1-2.8-3.55l1.1-10.63a2.31,2.31,0,0,1,.892-1.587,2.782,2.782,0,0,1,2.094-.536c1.059.149,2.557.333,4.142.529,3.337.412,7.49.924,9.792,1.379l.05.01a3.533,3.533,0,0,1,2.909,3.149c.143,2.523-.866,7.031-2,11.819a3.13,3.13,0,0,1-3.77,2.156m-11.255-18.079a1.8,1.8,0,0,0-1.359.339,1.343,1.343,0,0,0-.524.921l-1.1,10.63a2.435,2.435,0,0,0,2.045,2.5l12.371,2.732.025.005a2.158,2.158,0,0,0,2.622-1.428c1.12-4.716,2.115-9.147,1.979-11.54a2.6,2.6,0,0,0-2.177-2.26c-2.267-.448-6.4-.958-9.723-1.368-1.589-.2-3.09-.382-4.157-.531" transform="translate(-1064.183 -1544.077)" fill="#fff"/>
        <g id="Grupo_1025718" data-name="Grupo 1025718" transform="translate(160.962 232.626)" opacity="0.6">
          <g id="Grupo_1025717" data-name="Grupo 1025717">
            <g id="Grupo_1025716" data-name="Grupo 1025716" clip-path="url(#clip-path-18)">
              <path id="Trazado_726379" data-name="Trazado 726379" d="M1243,1792.325c2.641.371,8.422.989,11.113,1.521a2.453,2.453,0,0,1,2.052,2.166c.114,2.025-.759,5.828-1.592,9.333a2.108,2.108,0,0,1-2.578,1.427l-9.885-2.183a2.339,2.339,0,0,1-1.937-2.418l.881-8.495a1.645,1.645,0,0,1,1.946-1.352" transform="translate(-1240.159 -1792.306)" fill="#fff"/>
            </g>
          </g>
        </g>
        <g id="Grupo_1025721" data-name="Grupo 1025721" transform="translate(186.284 241.454)" opacity="0.6">
          <g id="Grupo_1025720" data-name="Grupo 1025720">
            <g id="Grupo_1025719" data-name="Grupo 1025719" clip-path="url(#clip-path-27)">
              <path id="Trazado_726380" data-name="Trazado 726380" d="M1435.268,1863.628a3.145,3.145,0,0,0,2.519,2.925l114.9,23.194a2.378,2.378,0,0,0,.972-4.656l-114.582-24.7a3.146,3.146,0,0,0-3.8,3.233" transform="translate(-1435.263 -1860.324)" fill="#fff"/>
            </g>
          </g>
        </g>
      </g>
    </g>
    <g id="Grupo_1025725" data-name="Grupo 1025725" transform="translate(162.595 228.225)">
      <g id="Grupo_1025724" data-name="Grupo 1025724" clip-path="url(#clip-path-28)">
        <rect id="Rectángulo_349793" data-name="Rectángulo 349793" width="24.474" height="24.528" transform="matrix(0.738, -0.675, 0.675, 0.738, -9.027, 8.095)" fill="url(#linear-gradient-5)"/>
      </g>
    </g>
    <g id="Grupo_1025733" data-name="Grupo 1025733" transform="translate(0 0)">
      <g id="Grupo_1025732" data-name="Grupo 1025732" clip-path="url(#clip-path-3)">
        <path id="Trazado_726382" data-name="Trazado 726382" d="M1194.989,1998.135l-.034-.007-12.37-2.731a3.4,3.4,0,0,1-2.8-3.55l1.1-10.63a2.313,2.313,0,0,1,.892-1.588,2.785,2.785,0,0,1,2.094-.536c1.059.149,2.556.334,4.141.53,3.337.411,7.491.925,9.793,1.379l.05.01a3.532,3.532,0,0,1,2.909,3.149c.143,2.523-.866,7.031-2,11.82a3.131,3.131,0,0,1-3.77,2.155m-11.255-18.079a1.8,1.8,0,0,0-1.359.339,1.343,1.343,0,0,0-.524.921l-1.1,10.63a2.436,2.436,0,0,0,2.045,2.5l12.371,2.731.025.006a2.159,2.159,0,0,0,2.623-1.428c1.12-4.716,2.114-9.147,1.979-11.54a2.591,2.591,0,0,0-2.177-2.26c-2.267-.448-6.4-.958-9.723-1.368-1.589-.2-3.09-.381-4.157-.531" transform="translate(-1026.642 -1722.198)" fill="#fff"/>
        <g id="Grupo_1025728" data-name="Grupo 1025728" transform="translate(155.363 259.193)" opacity="0.6">
          <g id="Grupo_1025727" data-name="Grupo 1025727">
            <g id="Grupo_1025726" data-name="Grupo 1025726" clip-path="url(#clip-path-18)">
              <path id="Trazado_726383" data-name="Trazado 726383" d="M1199.856,1997.013c2.641.371,8.422.989,11.114,1.521a2.453,2.453,0,0,1,2.052,2.166c.114,2.025-.759,5.828-1.592,9.333a2.107,2.107,0,0,1-2.578,1.427l-9.885-2.183a2.339,2.339,0,0,1-1.937-2.418l.881-8.495a1.644,1.644,0,0,1,1.946-1.352" transform="translate(-1197.019 -1996.994)" fill="#fff"/>
            </g>
          </g>
        </g>
        <g id="Grupo_1025731" data-name="Grupo 1025731" transform="translate(180.685 268.021)" opacity="0.6">
          <g id="Grupo_1025730" data-name="Grupo 1025730">
            <g id="Grupo_1025729" data-name="Grupo 1025729" clip-path="url(#clip-path-27)">
              <path id="Trazado_726384" data-name="Trazado 726384" d="M1392.128,2068.317h0a3.146,3.146,0,0,0,2.519,2.926l114.9,23.193a2.379,2.379,0,0,0,.972-4.657l-114.582-24.7a3.145,3.145,0,0,0-3.8,3.232" transform="translate(-1392.123 -2065.012)" fill="#fff"/>
            </g>
          </g>
        </g>
      </g>
    </g>
    <g id="Grupo_1025735" data-name="Grupo 1025735" transform="translate(156.996 254.791)">
      <g id="Grupo_1025734" data-name="Grupo 1025734" clip-path="url(#clip-path-32)">
        <rect id="Rectángulo_349797" data-name="Rectángulo 349797" width="24.526" height="24.469" transform="translate(-9.022 9.731) rotate(-47.734)" fill="url(#linear-gradient-6)"/>
      </g>
    </g>
    <g id="Grupo_1025794" data-name="Grupo 1025794" transform="translate(0 0)">
      <g id="Grupo_1025793" data-name="Grupo 1025793" clip-path="url(#clip-path-3)">
        <path id="Trazado_726386" data-name="Trazado 726386" d="M26.3,176.378a6.068,6.068,0,0,1,5.54-7.3c24.428-1.6,108.2-8.238,174.739-27.154a5.611,5.611,0,0,1,6.975,3.983l64.966,250.783a6.457,6.457,0,0,1-4.593,7.862c-28.085,7.456-143.836,37.737-186.482,41.845a5.115,5.115,0,0,1-5.493-4.05Z" transform="translate(-22.775 -123.313)" fill="#91b3fa"/>
        <g id="Grupo_1025738" data-name="Grupo 1025738" transform="translate(7.492 25.482)" opacity="0.6">
          <g id="Grupo_1025737" data-name="Grupo 1025737">
            <g id="Grupo_1025736" data-name="Grupo 1025736" clip-path="url(#clip-path-34)">
              <path id="Trazado_726387" data-name="Trazado 726387" d="M57.852,229.7a5.839,5.839,0,0,1,5.331-7.026c23.508-1.544,104.129-7.928,168.159-26.132a5.4,5.4,0,0,1,6.712,3.833l62.52,241.339a6.214,6.214,0,0,1-4.42,7.566c-27.028,7.175-138.42,36.316-179.46,40.269a4.923,4.923,0,0,1-5.287-3.9Z" transform="translate(-57.726 -196.33)" fill="#fff"/>
            </g>
          </g>
        </g>
        <g id="Grupo_1025741" data-name="Grupo 1025741" transform="translate(32.507 59.231)" opacity="0.78">
          <g id="Grupo_1025740" data-name="Grupo 1025740">
            <g id="Grupo_1025739" data-name="Grupo 1025739" clip-path="url(#clip-path-35)">
              <path id="Trazado_726388" data-name="Trazado 726388" d="M250.565,470.479l13.053,51.812a3.393,3.393,0,0,0,3.871,2.516c9.743-1.694,40.077-7.089,56.94-11.439a3.789,3.789,0,0,0,2.788-4.3c-1.667-9.875-6.755-38.57-11.414-50.051a4.276,4.276,0,0,0-4.671-2.6l-57.664,9.627a3.608,3.608,0,0,0-2.9,4.44" transform="translate(-250.454 -456.353)" fill="#fff"/>
            </g>
          </g>
        </g>
        <path id="Trazado_726389" data-name="Trazado 726389" d="M468.715,578.485a11.474,11.474,0,1,1-13.528-8.96,11.474,11.474,0,0,1,13.528,8.96" transform="translate(-388.109 -495.403)" fill="#91b3fa"/>
        <path id="Trazado_726390" data-name="Trazado 726390" d="M430.677,805.027l35.822-7.276A2.83,2.83,0,0,0,467.96,793c-4.01-4.143-11.8-9.845-22.758-7.29a25.482,25.482,0,0,0-17.825,15.234,2.958,2.958,0,0,0,3.3,4.08" transform="translate(-371.689 -683.181)" fill="#91b3fa"/>
        <g id="Grupo_1025744" data-name="Grupo 1025744" transform="translate(111.715 45.25)" opacity="0.6">
          <g id="Grupo_1025743" data-name="Grupo 1025743">
            <g id="Grupo_1025742" data-name="Grupo 1025742" clip-path="url(#clip-path-36)">
              <path id="Trazado_726391" data-name="Trazado 726391" d="M925.8,352.2a1.891,1.891,0,0,0,1.632-2.159,2.072,2.072,0,0,0-2.454-1.366l-63.014,11.634a1.353,1.353,0,0,0-.979,2.164l.474.792a3.156,3.156,0,0,0,3.108,1.372Z" transform="translate(-860.728 -348.632)" fill="#fff"/>
            </g>
          </g>
        </g>
        <g id="Grupo_1025747" data-name="Grupo 1025747" transform="translate(113.695 55.001)" opacity="0.6">
          <g id="Grupo_1025746" data-name="Grupo 1025746">
            <g id="Grupo_1025745" data-name="Grupo 1025745" clip-path="url(#clip-path-37)">
              <path id="Trazado_726392" data-name="Trazado 726392" d="M877.226,435.434a1.353,1.353,0,0,0-.979,2.164l.474.792a3.156,3.156,0,0,0,3.108,1.372l61.233-12.437a1.891,1.891,0,0,0,1.632-2.159,2.072,2.072,0,0,0-2.454-1.366Z" transform="translate(-875.987 -423.76)" fill="#fff"/>
            </g>
          </g>
        </g>
        <g id="Grupo_1025750" data-name="Grupo 1025750" transform="translate(115.705 64.894)" opacity="0.6">
          <g id="Grupo_1025749" data-name="Grupo 1025749">
            <g id="Grupo_1025748" data-name="Grupo 1025748" clip-path="url(#clip-path-36)">
              <path id="Trazado_726393" data-name="Trazado 726393" d="M892.706,511.654a1.353,1.353,0,0,0-.979,2.164l.474.792a3.156,3.156,0,0,0,3.108,1.372l61.233-12.437a1.891,1.891,0,0,0,1.632-2.159,2.072,2.072,0,0,0-2.454-1.366Z" transform="translate(-891.467 -499.98)" fill="#fff"/>
            </g>
          </g>
        </g>
        <g id="Grupo_1025753" data-name="Grupo 1025753" transform="translate(47.299 111.404)" opacity="0.6">
          <g id="Grupo_1025752" data-name="Grupo 1025752">
            <g id="Grupo_1025751" data-name="Grupo 1025751" clip-path="url(#clip-path-39)">
              <path id="Trazado_726394" data-name="Trazado 726394" d="M513.691,861.853a1.81,1.81,0,0,0,1.568-2.145,2.142,2.142,0,0,0-2.515-1.333L365.416,887.091c-1.124.219-1.325,1-.448,1.736l1.508,1.265a4.9,4.9,0,0,0,3.635.923Z" transform="translate(-364.421 -858.33)" fill="#fff"/>
            </g>
          </g>
        </g>
        <g id="Grupo_1025756" data-name="Grupo 1025756" transform="translate(49.279 121.156)" opacity="0.6">
          <g id="Grupo_1025755" data-name="Grupo 1025755">
            <g id="Grupo_1025754" data-name="Grupo 1025754" clip-path="url(#clip-path-40)">
              <path id="Trazado_726395" data-name="Trazado 726395" d="M380.675,962.219c-1.124.219-1.325,1-.448,1.736l1.509,1.265a4.9,4.9,0,0,0,3.634.923L528.95,936.982a1.81,1.81,0,0,0,1.568-2.145A2.142,2.142,0,0,0,528,933.5Z" transform="translate(-379.681 -933.458)" fill="#fff"/>
            </g>
          </g>
        </g>
        <g id="Grupo_1025759" data-name="Grupo 1025759" transform="translate(51.175 163.003)" opacity="0.6">
          <g id="Grupo_1025758" data-name="Grupo 1025758">
            <g id="Grupo_1025757" data-name="Grupo 1025757" clip-path="url(#clip-path-41)">
              <path id="Trazado_726396" data-name="Trazado 726396" d="M396.025,1259.208c3.482-.99,10.079-2.46,13.714-3.252a3.372,3.372,0,0,1,3.775,1.864,54.954,54.954,0,0,1,4.263,13.033,2.994,2.994,0,0,1-2.377,3.474l-13.483,2.588a3.3,3.3,0,0,1-3.777-2.284l-3.753-12.416a2.4,2.4,0,0,1,1.638-3.007" transform="translate(-394.284 -1255.879)" fill="#fff"/>
            </g>
          </g>
        </g>
        <g id="Grupo_1025762" data-name="Grupo 1025762" transform="translate(77.389 161.037)" opacity="0.6">
          <g id="Grupo_1025761" data-name="Grupo 1025761">
            <g id="Grupo_1025760" data-name="Grupo 1025760" clip-path="url(#clip-path-42)">
              <path id="Trazado_726397" data-name="Trazado 726397" d="M597.718,1246.173a1.657,1.657,0,0,0-1.343,2.285l.766,2.1a2.5,2.5,0,0,0,2.752,1.541l32.674-6.636a2.056,2.056,0,0,0,1.6-2.449l-.119-.551a2.229,2.229,0,0,0-2.495-1.706Z" transform="translate(-596.256 -1240.734)" fill="#fff"/>
            </g>
          </g>
        </g>
        <g id="Grupo_1025765" data-name="Grupo 1025765" transform="translate(124.468 148.116)" opacity="0.6">
          <g id="Grupo_1025764" data-name="Grupo 1025764">
            <g id="Grupo_1025763" data-name="Grupo 1025763" clip-path="url(#clip-path-41)">
              <path id="Trazado_726398" data-name="Trazado 726398" d="M960.725,1144.512c3.481-.99,10.079-2.46,13.714-3.251a3.371,3.371,0,0,1,3.775,1.864,54.942,54.942,0,0,1,4.263,13.033,2.994,2.994,0,0,1-2.377,3.474l-13.483,2.588a3.3,3.3,0,0,1-3.777-2.284l-3.753-12.416a2.4,2.4,0,0,1,1.638-3.008" transform="translate(-958.984 -1141.183)" fill="#fff"/>
            </g>
          </g>
        </g>
        <g id="Grupo_1025768" data-name="Grupo 1025768" transform="translate(150.683 146.151)" opacity="0.6">
          <g id="Grupo_1025767" data-name="Grupo 1025767">
            <g id="Grupo_1025766" data-name="Grupo 1025766" clip-path="url(#clip-path-44)">
              <path id="Trazado_726399" data-name="Trazado 726399" d="M1162.418,1131.479a1.656,1.656,0,0,0-1.343,2.284l.767,2.1a2.5,2.5,0,0,0,2.752,1.541l32.674-6.637a2.056,2.056,0,0,0,1.6-2.449l-.119-.55a2.229,2.229,0,0,0-2.495-1.706Z" transform="translate(-1160.956 -1126.04)" fill="#fff"/>
            </g>
          </g>
        </g>
        <path id="Trazado_726400" data-name="Trazado 726400" d="M500.008,1525.19l-.034.007-12.439,2.4a3.4,3.4,0,0,1-3.982-2.147l-3.207-10.194a2.311,2.311,0,0,1,.189-1.811,2.783,2.783,0,0,1,1.709-1.323c1.031-.284,2.479-.708,4.011-1.158,3.227-.947,7.243-2.125,9.536-2.62a3.54,3.54,0,0,1,3.97,1.725c1.132,2.26,1.995,6.8,2.851,11.644a3.131,3.131,0,0,1-2.6,3.474M482.5,1513.062a1.8,1.8,0,0,0-1.113.851,1.345,1.345,0,0,0-.115,1.053l3.207,10.194a2.437,2.437,0,0,0,2.87,1.484l12.438-2.4.025,0a2.159,2.159,0,0,0,1.84-2.352c-.844-4.773-1.69-9.235-2.763-11.378A2.614,2.614,0,0,0,496,1509.3c-2.259.489-6.256,1.661-9.467,2.6-1.537.451-2.988.876-4.027,1.162" transform="translate(-417.91 -1312.499)" fill="#fff"/>
        <g id="Grupo_1025771" data-name="Grupo 1025771" transform="translate(64.831 198.289)" opacity="0.6">
          <g id="Grupo_1025770" data-name="Grupo 1025770">
            <g id="Grupo_1025769" data-name="Grupo 1025769" clip-path="url(#clip-path-45)">
              <path id="Trazado_726401" data-name="Trazado 726401" d="M500.818,1530.832c2.572-.708,8.123-2.435,10.8-3.014a2.452,2.452,0,0,1,2.743,1.173c.909,1.813,1.616,5.651,2.243,9.2a2.107,2.107,0,0,1-1.8,2.333l-9.94,1.92a2.339,2.339,0,0,1-2.738-1.45l-2.563-8.147a1.644,1.644,0,0,1,1.249-2.013" transform="translate(-499.503 -1527.754)" fill="#fff"/>
            </g>
          </g>
        </g>
        <g id="Grupo_1025774" data-name="Grupo 1025774" transform="translate(91.27 176.231)" opacity="0.6">
          <g id="Grupo_1025773" data-name="Grupo 1025773">
            <g id="Grupo_1025772" data-name="Grupo 1025772" clip-path="url(#clip-path-46)">
              <path id="Trazado_726402" data-name="Trazado 726402" d="M703.532,1385.129a3.146,3.146,0,0,0,3.473,1.686l114.664-24.309a2.379,2.379,0,0,0-.956-4.66l-114.973,22.807a3.145,3.145,0,0,0-2.209,4.477" transform="translate(-703.206 -1357.8)" fill="#fff"/>
            </g>
          </g>
        </g>
        <path id="Trazado_726403" data-name="Trazado 726403" d="M541.645,1730.167l-.034.007-12.439,2.4a3.4,3.4,0,0,1-3.982-2.146l-3.207-10.195a2.308,2.308,0,0,1,.189-1.811,2.781,2.781,0,0,1,1.709-1.323c1.031-.284,2.479-.709,4.011-1.158,3.227-.947,7.242-2.125,9.536-2.62l.05-.01a3.532,3.532,0,0,1,3.92,1.736c1.132,2.26,1.995,6.8,2.851,11.644a3.131,3.131,0,0,1-2.6,3.474m-17.505-12.128a1.8,1.8,0,0,0-1.113.85,1.344,1.344,0,0,0-.115,1.053l3.207,10.195a2.437,2.437,0,0,0,2.87,1.484l12.439-2.4.025-.005a2.158,2.158,0,0,0,1.84-2.352c-.844-4.773-1.689-9.235-2.763-11.378a2.6,2.6,0,0,0-2.895-1.21c-2.259.489-6.256,1.661-9.467,2.6-1.537.45-2.988.876-4.027,1.162" transform="translate(-454.144 -1490.869)" fill="#fff"/>
        <g id="Grupo_1025777" data-name="Grupo 1025777" transform="translate(70.235 224.896)" opacity="0.6">
          <g id="Grupo_1025776" data-name="Grupo 1025776">
            <g id="Grupo_1025775" data-name="Grupo 1025775" clip-path="url(#clip-path-45)">
              <path id="Trazado_726404" data-name="Trazado 726404" d="M542.454,1735.832c2.572-.708,8.123-2.435,10.8-3.014a2.452,2.452,0,0,1,2.743,1.173c.909,1.813,1.616,5.651,2.243,9.2a2.108,2.108,0,0,1-1.8,2.333l-9.94,1.919a2.339,2.339,0,0,1-2.738-1.45l-2.563-8.146a1.644,1.644,0,0,1,1.249-2.013" transform="translate(-541.14 -1732.754)" fill="#fff"/>
            </g>
          </g>
        </g>
        <g id="Grupo_1025780" data-name="Grupo 1025780" transform="translate(96.674 202.838)" opacity="0.6">
          <g id="Grupo_1025779" data-name="Grupo 1025779">
            <g id="Grupo_1025778" data-name="Grupo 1025778" clip-path="url(#clip-path-48)">
              <path id="Trazado_726405" data-name="Trazado 726405" d="M745.17,1590.129a3.145,3.145,0,0,0,3.473,1.686l114.665-24.309a2.378,2.378,0,0,0-.956-4.659l-114.973,22.806a3.145,3.145,0,0,0-2.209,4.477" transform="translate(-744.844 -1562.801)" fill="#fff"/>
            </g>
          </g>
        </g>
        <path id="Trazado_726406" data-name="Trazado 726406" d="M583.283,1935.165l-.034.007-12.439,2.4a3.4,3.4,0,0,1-3.982-2.146l-3.207-10.194a2.309,2.309,0,0,1,.189-1.811,2.781,2.781,0,0,1,1.709-1.323c1.031-.284,2.479-.709,4.011-1.158,3.227-.947,7.242-2.125,9.536-2.62l.05-.011a3.533,3.533,0,0,1,3.92,1.736c1.132,2.26,1.995,6.8,2.851,11.644a3.131,3.131,0,0,1-2.6,3.474m-17.505-12.128a1.8,1.8,0,0,0-1.113.85,1.345,1.345,0,0,0-.115,1.054l3.207,10.194a2.436,2.436,0,0,0,2.87,1.483l12.439-2.4.025,0a2.158,2.158,0,0,0,1.84-2.352c-.844-4.773-1.689-9.235-2.763-11.378a2.6,2.6,0,0,0-2.9-1.21c-2.259.488-6.256,1.661-9.467,2.6-1.536.451-2.988.876-4.027,1.162" transform="translate(-490.377 -1669.259)" fill="#fff"/>
        <g id="Grupo_1025783" data-name="Grupo 1025783" transform="translate(75.639 251.504)" opacity="0.6">
          <g id="Grupo_1025782" data-name="Grupo 1025782">
            <g id="Grupo_1025781" data-name="Grupo 1025781" clip-path="url(#clip-path-49)">
              <path id="Trazado_726407" data-name="Trazado 726407" d="M584.093,1940.831c2.572-.708,8.123-2.435,10.8-3.014a2.452,2.452,0,0,1,2.743,1.173c.909,1.813,1.617,5.651,2.243,9.2a2.108,2.108,0,0,1-1.8,2.333l-9.94,1.919a2.339,2.339,0,0,1-2.738-1.45l-2.563-8.146a1.644,1.644,0,0,1,1.249-2.013" transform="translate(-582.777 -1937.754)" fill="#fff"/>
            </g>
          </g>
        </g>
        <g id="Grupo_1025786" data-name="Grupo 1025786" transform="translate(102.078 229.446)" opacity="0.6">
          <g id="Grupo_1025785" data-name="Grupo 1025785">
            <g id="Grupo_1025784" data-name="Grupo 1025784" clip-path="url(#clip-path-48)">
              <path id="Trazado_726408" data-name="Trazado 726408" d="M786.807,1795.13a3.146,3.146,0,0,0,3.473,1.686l114.665-24.309a2.378,2.378,0,0,0-.956-4.66l-114.973,22.806a3.146,3.146,0,0,0-2.209,4.477" transform="translate(-786.48 -1767.8)" fill="#fff"/>
            </g>
          </g>
        </g>
        <path id="Trazado_726409" data-name="Trazado 726409" d="M624.92,2140.166l-.034.007-12.438,2.4a3.4,3.4,0,0,1-3.982-2.146l-3.207-10.194a2.31,2.31,0,0,1,.189-1.811,2.782,2.782,0,0,1,1.709-1.323c1.032-.284,2.479-.708,4.011-1.158,3.227-.946,7.242-2.125,9.536-2.62l.05-.011a3.532,3.532,0,0,1,3.92,1.736c1.132,2.26,1.995,6.8,2.851,11.645a3.131,3.131,0,0,1-2.6,3.474m-17.505-12.128a1.8,1.8,0,0,0-1.113.851,1.344,1.344,0,0,0-.115,1.054l3.207,10.194a2.434,2.434,0,0,0,2.87,1.483l12.439-2.4.025,0a2.159,2.159,0,0,0,1.84-2.352c-.844-4.773-1.689-9.235-2.763-11.378a2.592,2.592,0,0,0-2.895-1.21c-2.259.489-6.256,1.661-9.467,2.6-1.536.451-2.988.876-4.027,1.163" transform="translate(-526.61 -1847.653)" fill="#fff"/>
        <g id="Grupo_1025789" data-name="Grupo 1025789" transform="translate(81.044 278.112)" opacity="0.6">
          <g id="Grupo_1025788" data-name="Grupo 1025788">
            <g id="Grupo_1025787" data-name="Grupo 1025787" clip-path="url(#clip-path-49)">
              <path id="Trazado_726410" data-name="Trazado 726410" d="M625.729,2145.831c2.572-.708,8.123-2.435,10.8-3.015a2.454,2.454,0,0,1,2.743,1.173c.909,1.813,1.616,5.652,2.243,9.2a2.107,2.107,0,0,1-1.8,2.333l-9.94,1.919a2.339,2.339,0,0,1-2.738-1.45l-2.563-8.146a1.644,1.644,0,0,1,1.249-2.013" transform="translate(-624.414 -2142.753)" fill="#fff"/>
            </g>
          </g>
        </g>
        <g id="Grupo_1025792" data-name="Grupo 1025792" transform="translate(107.482 256.053)" opacity="0.6">
          <g id="Grupo_1025791" data-name="Grupo 1025791">
            <g id="Grupo_1025790" data-name="Grupo 1025790" clip-path="url(#clip-path-52)">
              <path id="Trazado_726411" data-name="Trazado 726411" d="M828.444,2000.129h0a3.145,3.145,0,0,0,3.473,1.686l114.664-24.309a2.378,2.378,0,0,0-.956-4.66l-114.973,22.806a3.146,3.146,0,0,0-2.209,4.477" transform="translate(-828.117 -1972.799)" fill="#fff"/>
            </g>
          </g>
        </g>
      </g>
    </g>
    <g id="Grupo_1025796" data-name="Grupo 1025796" transform="translate(82.544 271.225)">
      <g id="Grupo_1025795" data-name="Grupo 1025795" clip-path="url(#clip-path-53)">
        <rect id="Rectángulo_349818" data-name="Rectángulo 349818" width="24.158" height="20.006" transform="translate(-6.571 18.553) rotate(-71.112)" fill="url(#linear-gradient-7)"/>
      </g>
    </g>
    <g id="Grupo_1025804" data-name="Grupo 1025804" transform="translate(0 0)">
      <g id="Grupo_1025803" data-name="Grupo 1025803" clip-path="url(#clip-path-3)">
        <path id="Trazado_726413" data-name="Trazado 726413" d="M128.875,1333.945A332,332,0,0,0,135.9,1375.3h2.017a225.663,225.663,0,0,1-6.852-64.853c1.136-26.15,7.54-57.9-4.4-73.068-9.94-12.623-52.116-14.51-65.985-14.788a2.046,2.046,0,0,0-1.646,3.319c5.317,6.69,16.451,22.184,17.421,35.714,1.279,17.833,15.139,31.83,28.91,37.657s21.188,10.271,23.513,34.664" transform="translate(-50.979 -1063.909)" fill="#91b3fa"/>
        <g id="Grupo_1025799" data-name="Grupo 1025799" transform="translate(26.658 169.696)" opacity="0.5">
          <g id="Grupo_1025798" data-name="Grupo 1025798">
            <g id="Grupo_1025797" data-name="Grupo 1025797" clip-path="url(#clip-path-55)">
              <path id="Trazado_726414" data-name="Trazado 726414" d="M205.774,1307.463a66.5,66.5,0,0,1,23.66,11.387,52.044,52.044,0,0,1,9.505,9.257,45,45,0,0,1,6.624,11.548l.59,1.564c.193.523.337,1.062.508,1.592s.335,1.069.475,1.6l.421,1.585q.85,3.168,1.658,6.347,1.614,6.358,3.026,12.767c1.888,8.542,3.512,17.14,4.608,25.835a.381.381,0,0,1-.752.117l0-.011c-.779-4.28-1.64-8.56-2.583-12.815q-1.384-6.39-2.918-12.747l-1.551-6.351-1.623-6.334q-.809-3.167-1.672-6.321l-.425-1.579c-.141-.527-.31-1.025-.464-1.54s-.3-1.027-.478-1.529l-.558-1.5a44.684,44.684,0,0,0-6.279-11.14,49.361,49.361,0,0,0-4.248-4.828l-.566-.574-.588-.552c-.393-.366-.778-.743-1.179-1.1-.813-.7-1.617-1.421-2.469-2.083a66.664,66.664,0,0,0-10.87-7.026,69.36,69.36,0,0,0-12-4.97l-.019-.006a.305.305,0,0,1,.164-.588" transform="translate(-205.393 -1307.453)" fill="#fff"/>
            </g>
          </g>
        </g>
        <path id="Trazado_726415" data-name="Trazado 726415" d="M78.293,1909.581c7.213,10.59,6.287,16.516,6.509,21.534.039.891.088,2.151.191,3.639h1.97a43.187,43.187,0,0,1-.79-6.123c-.7-13.861-3.828-37.52-15.782-51.672s-25.044-15.444-41.538-2.578C15.109,1885.1,6.535,1890.514,1.507,1891.52a1.9,1.9,0,0,0-1.275,2.771c3.225,5.939,12.343,19.581,27.653,18.621,19.528-1.225,43.2-13.92,50.409-3.33" transform="translate(0 -1623.362)" fill="#91b3fa"/>
        <g id="Grupo_1025802" data-name="Grupo 1025802" transform="translate(34.346 257.751)" opacity="0.5">
          <g id="Grupo_1025801" data-name="Grupo 1025801">
            <g id="Grupo_1025800" data-name="Grupo 1025800" clip-path="url(#clip-path-56)">
              <path id="Trazado_726416" data-name="Trazado 726416" d="M264.72,1996.2a39.293,39.293,0,0,1,3.406-2.849c1.18-.891,2.4-1.74,3.664-2.515a36.7,36.7,0,0,1,8.088-3.806,25.368,25.368,0,0,1,4.424-.994,18.856,18.856,0,0,1,4.589-.018c.381.062.767.1,1.145.183s.763.161,1.127.265l2.153.668,2.106.819,2.042.981a25.714,25.714,0,0,1,7.112,5.561,31.96,31.96,0,0,1,4.926,7.49l.49,1c.168.333.291.685.438,1.026.278.689.577,1.37.836,2.064l.725,2.1c.257.7.42,1.418.627,2.127a77.436,77.436,0,0,1,1.869,8.636.3.3,0,0,1-.581.12l0-.01c-.688-2.841-1.349-5.686-2.3-8.439-.429-1.391-.973-2.736-1.479-4.094-.273-.671-.583-1.324-.873-1.986-.153-.327-.281-.667-.454-.983l-.5-.957a32.546,32.546,0,0,0-4.88-7.039,25.026,25.026,0,0,0-6.737-5.141l-1.926-.913-2-.763-2.049-.624c-.34-.1-.674-.16-1.011-.243s-.683-.112-1.024-.171a17.174,17.174,0,0,0-4.18-.01,23.888,23.888,0,0,0-4.16.844,39.941,39.941,0,0,0-7.921,3.374c-1.264.7-2.517,1.438-3.733,2.234s-2.41,1.637-3.552,2.521l-.007.006a.309.309,0,0,1-.4-.468" transform="translate(-264.625 -1985.882)" fill="#fff"/>
            </g>
          </g>
        </g>
      </g>
    </g>
    <g id="Grupo_1025806" data-name="Grupo 1025806" transform="translate(78.7 59.118)">
      <g id="Grupo_1025805" data-name="Grupo 1025805" clip-path="url(#clip-path-57)">
        <rect id="Rectángulo_349822" data-name="Rectángulo 349822" width="225.91" height="282.853" transform="translate(-9.303 0.314) rotate(-1.935)" fill="#115089"/>
      </g>
    </g>
    <g id="Grupo_1025814" data-name="Grupo 1025814" transform="translate(0 0)">
      <g id="Grupo_1025813" data-name="Grupo 1025813" clip-path="url(#clip-path-3)">
        <path id="Trazado_726418" data-name="Trazado 726418" d="M711.825,445.692A5.707,5.707,0,0,1,718.3,440c22.818,3.094,101.281,12.664,166.153,7.684a5.278,5.278,0,0,1,5.683,4.977l12.932,243.327a6.073,6.073,0,0,1-5.706,6.387c-27.284,1.615-139.649,7.856-179.728,3.659a4.811,4.811,0,0,1-4.305-4.762Z" transform="translate(-619.436 -382.845)" fill="#91b3fa"/>
        <g id="Grupo_1025809" data-name="Grupo 1025809" transform="translate(95.077 63.415)" opacity="0.6">
          <g id="Grupo_1025808" data-name="Grupo 1025808">
            <g id="Grupo_1025807" data-name="Grupo 1025807" clip-path="url(#clip-path-59)">
              <path id="Trazado_726419" data-name="Trazado 726419" d="M732.533,494.122a5.492,5.492,0,0,1,6.229-5.478c21.958,2.978,97.467,12.188,159.9,7.395a5.079,5.079,0,0,1,5.469,4.79l12.445,234.164a5.844,5.844,0,0,1-5.491,6.146c-26.257,1.554-134.39,7.561-172.96,3.521a4.63,4.63,0,0,1-4.143-4.583Z" transform="translate(-732.533 -488.593)" fill="#fff"/>
            </g>
          </g>
        </g>
        <g id="Grupo_1025812" data-name="Grupo 1025812" transform="translate(115.4 83.447)" opacity="0.78">
          <g id="Grupo_1025811" data-name="Grupo 1025811">
            <g id="Grupo_1025810" data-name="Grupo 1025810" clip-path="url(#clip-path-60)">
              <path id="Trazado_726420" data-name="Trazado 726420" d="M889.123,646.481l2.332,50.2a3.191,3.191,0,0,0,3.1,3.044c9.3.262,38.269.969,54.628.116a3.564,3.564,0,0,0,3.376-3.445c.312-9.415.995-36.817-1.151-48.272a4.022,4.022,0,0,0-3.818-3.272l-54.955-1.922a3.394,3.394,0,0,0-3.508,3.549" transform="translate(-889.119 -642.93)" fill="#fff"/>
            </g>
          </g>
        </g>
      </g>
    </g>
    <g id="Grupo_1025816" data-name="Grupo 1025816" transform="translate(136.234 94.154)">
      <g id="Grupo_1025815" data-name="Grupo 1025815" clip-path="url(#clip-path-61)">
        <rect id="Rectángulo_349826" data-name="Rectángulo 349826" width="29.468" height="29.468" transform="translate(-9.325 5.359) rotate(-29.886)" fill="#ffa031"/>
      </g>
    </g>
    <g id="Grupo_1025818" data-name="Grupo 1025818" transform="translate(127.848 121.537)">
      <g id="Grupo_1025817" data-name="Grupo 1025817" clip-path="url(#clip-path-62)">
        <rect id="Rectángulo_349827" data-name="Rectángulo 349827" width="43.347" height="33.676" transform="translate(-7.303 3.748) rotate(-29.887)" fill="#ffa031"/>
      </g>
    </g>
    <g id="Grupo_1025835" data-name="Grupo 1025835" transform="translate(0 0)">
      <g id="Grupo_1025834" data-name="Grupo 1025834" clip-path="url(#clip-path-3)">
        <g id="Grupo_1025821" data-name="Grupo 1025821" transform="translate(191.12 86.891)" opacity="0.6">
          <g id="Grupo_1025820" data-name="Grupo 1025820">
            <g id="Grupo_1025819" data-name="Grupo 1025819" clip-path="url(#clip-path-64)">
              <path id="Trazado_726423" data-name="Trazado 726423" d="M1534.293,673.94a1.778,1.778,0,0,0,1.908-1.684,1.949,1.949,0,0,0-2.007-1.719l-60.262-1.074a1.272,1.272,0,0,0-1.307,1.812l.288.819a2.969,2.969,0,0,0,2.608,1.846Z" transform="translate(-1472.521 -669.462)" fill="#fff"/>
            </g>
          </g>
        </g>
        <g id="Grupo_1025824" data-name="Grupo 1025824" transform="translate(191.12 96.25)" opacity="0.6">
          <g id="Grupo_1025823" data-name="Grupo 1025823">
            <g id="Grupo_1025822" data-name="Grupo 1025822" clip-path="url(#clip-path-64)">
              <path id="Trazado_726424" data-name="Trazado 726424" d="M1473.933,741.57a1.272,1.272,0,0,0-1.307,1.812l.288.819a2.969,2.969,0,0,0,2.608,1.847h58.771a1.779,1.779,0,0,0,1.908-1.684,1.949,1.949,0,0,0-2.007-1.719Z" transform="translate(-1472.521 -741.57)" fill="#fff"/>
            </g>
          </g>
        </g>
        <g id="Grupo_1025827" data-name="Grupo 1025827" transform="translate(191.12 105.744)" opacity="0.6">
          <g id="Grupo_1025826" data-name="Grupo 1025826">
            <g id="Grupo_1025825" data-name="Grupo 1025825" clip-path="url(#clip-path-64)">
              <path id="Trazado_726425" data-name="Trazado 726425" d="M1473.933,814.725a1.272,1.272,0,0,0-1.307,1.812l.288.819a2.969,2.969,0,0,0,2.608,1.847h58.771a1.778,1.778,0,0,0,1.908-1.684,1.949,1.949,0,0,0-2.007-1.719Z" transform="translate(-1472.521 -814.724)" fill="#fff"/>
            </g>
          </g>
        </g>
        <g id="Grupo_1025830" data-name="Grupo 1025830" transform="translate(116.26 151.515)" opacity="0.6">
          <g id="Grupo_1025829" data-name="Grupo 1025829">
            <g id="Grupo_1025828" data-name="Grupo 1025828" clip-path="url(#clip-path-67)">
              <path id="Trazado_726426" data-name="Trazado 726426" d="M1038.232,1171.867a1.7,1.7,0,0,0,1.847-1.684,2.015,2.015,0,0,0-2.069-1.7l-141.179-1.113c-1.077-.008-1.409.674-.738,1.516l1.154,1.449a4.61,4.61,0,0,0,3.177,1.532Z" transform="translate(-895.747 -1167.37)" fill="#fff"/>
            </g>
          </g>
        </g>
        <g id="Grupo_1025833" data-name="Grupo 1025833" transform="translate(116.26 160.874)" opacity="0.6">
          <g id="Grupo_1025832" data-name="Grupo 1025832">
            <g id="Grupo_1025831" data-name="Grupo 1025831" clip-path="url(#clip-path-68)">
              <path id="Trazado_726427" data-name="Trazado 726427" d="M896.832,1239.479c-1.077-.008-1.409.674-.738,1.516l1.154,1.449a4.609,4.609,0,0,0,3.177,1.532h137.808a1.7,1.7,0,0,0,1.847-1.684,2.015,2.015,0,0,0-2.069-1.7Z" transform="translate(-895.747 -1239.479)" fill="#fff"/>
            </g>
          </g>
        </g>
      </g>
    </g>
    <g id="Grupo_1025837" data-name="Grupo 1025837" transform="translate(114.625 176.07)">
      <g id="Grupo_1025836" data-name="Grupo 1025836" clip-path="url(#clip-path-69)">
        <rect id="Rectángulo_349834" data-name="Rectángulo 349834" width="26.668" height="27.007" transform="translate(-8.892 10.989) rotate(-51.362)" fill="#115089"/>
      </g>
    </g>
    <g id="Grupo_1025842" data-name="Grupo 1025842" transform="translate(0 0)">
      <g id="Grupo_1025841" data-name="Grupo 1025841" clip-path="url(#clip-path-3)">
        <g id="Grupo_1025840" data-name="Grupo 1025840" transform="translate(138.9 181.486)" opacity="0.6">
          <g id="Grupo_1025839" data-name="Grupo 1025839">
            <g id="Grupo_1025838" data-name="Grupo 1025838" clip-path="url(#clip-path-71)">
              <path id="Trazado_726429" data-name="Trazado 726429" d="M1071.867,1398.292a1.558,1.558,0,0,0-1.665,1.854l.313,2.082a2.352,2.352,0,0,0,2.249,1.936h31.361a1.934,1.934,0,0,0,1.933-1.958l-.006-.53a2.1,2.1,0,0,0-1.98-2.039Z" transform="translate(-1070.18 -1398.291)" fill="#fff"/>
            </g>
          </g>
        </g>
      </g>
    </g>
    <g id="Grupo_1025844" data-name="Grupo 1025844" transform="translate(184.972 176.07)">
      <g id="Grupo_1025843" data-name="Grupo 1025843" clip-path="url(#clip-path-72)">
        <rect id="Rectángulo_349837" data-name="Rectángulo 349837" width="26.668" height="27.007" transform="translate(-8.892 10.989) rotate(-51.363)" fill="#115089"/>
      </g>
    </g>
    <g id="Grupo_1025855" data-name="Grupo 1025855" transform="translate(0 0)">
      <g id="Grupo_1025854" data-name="Grupo 1025854" clip-path="url(#clip-path-3)">
        <g id="Grupo_1025847" data-name="Grupo 1025847" transform="translate(209.247 181.486)" opacity="0.6">
          <g id="Grupo_1025846" data-name="Grupo 1025846">
            <g id="Grupo_1025845" data-name="Grupo 1025845" clip-path="url(#clip-path-71)">
              <path id="Trazado_726431" data-name="Trazado 726431" d="M1613.864,1398.292a1.558,1.558,0,0,0-1.666,1.854l.313,2.082a2.352,2.352,0,0,0,2.249,1.936h31.36a1.934,1.934,0,0,0,1.934-1.958l-.006-.53a2.1,2.1,0,0,0-1.98-2.039Z" transform="translate(-1612.178 -1398.291)" fill="#fff"/>
            </g>
          </g>
        </g>
        <path id="Trazado_726432" data-name="Trazado 726432" d="M930.446,1621.814h-.033L918.5,1621.7a3.2,3.2,0,0,1-3.269-2.724l-1.047-10a2.173,2.173,0,0,1,.513-1.634,2.618,2.618,0,0,1,1.823-.9c1-.068,2.418-.189,3.914-.316,3.151-.269,7.073-.6,9.28-.63a3.33,3.33,0,0,1,3.337,2.334c.621,2.294.566,6.639.448,11.267a2.945,2.945,0,0,1-3.051,2.715m-13.865-14.457a1.7,1.7,0,0,0-1.185.576,1.264,1.264,0,0,0-.3.949l1.047,10a2.293,2.293,0,0,0,2.368,1.905l11.915.114h.024a2.03,2.03,0,0,0,2.137-1.823c.116-4.558.172-8.829-.417-11.005a2.458,2.458,0,0,0-2.442-1.657c-2.174.027-6.078.359-9.214.627-1.5.128-2.918.248-3.93.317" transform="translate(-795.519 -1397.119)" fill="#fff"/>
        <g id="Grupo_1025850" data-name="Grupo 1025850" transform="translate(120.808 210.516)" opacity="0.6">
          <g id="Grupo_1025849" data-name="Grupo 1025849">
            <g id="Grupo_1025848" data-name="Grupo 1025848" clip-path="url(#clip-path-75)">
              <path id="Trazado_726433" data-name="Trazado 726433" d="M932.321,1622.707c2.5-.171,7.943-.723,10.524-.755a2.307,2.307,0,0,1,2.309,1.594c.5,1.842.432,5.512.345,8.9a1.982,1.982,0,0,1-2.1,1.813l-9.522-.092a2.2,2.2,0,0,1-2.252-1.849l-.837-7.989a1.547,1.547,0,0,1,1.529-1.622" transform="translate(-930.785 -1621.952)" fill="#fff"/>
            </g>
          </g>
        </g>
        <g id="Grupo_1025853" data-name="Grupo 1025853" transform="translate(145.294 214.344)" opacity="0.6">
          <g id="Grupo_1025852" data-name="Grupo 1025852">
            <g id="Grupo_1025851" data-name="Grupo 1025851" clip-path="url(#clip-path-76)">
              <path id="Trazado_726434" data-name="Trazado 726434" d="M1119.536,1655.166a2.959,2.959,0,0,0,2.886,2.2l110.245-.94a2.237,2.237,0,0,0-.009-4.474l-110.248-.5a2.959,2.959,0,0,0-2.874,3.713" transform="translate(-1119.437 -1651.453)" fill="#fff"/>
            </g>
          </g>
        </g>
      </g>
    </g>
    <g id="Grupo_1025857" data-name="Grupo 1025857" transform="translate(121.907 204.33)">
      <g id="Grupo_1025856" data-name="Grupo 1025856" clip-path="url(#clip-path-77)">
        <rect id="Rectángulo_349842" data-name="Rectángulo 349842" width="23.127" height="21.584" transform="matrix(0.506, -0.863, 0.863, 0.506, -8.302, 13.77)" fill="#115089"/>
      </g>
    </g>
    <g id="Grupo_1025865" data-name="Grupo 1025865" transform="translate(0 0)">
      <g id="Grupo_1025864" data-name="Grupo 1025864" clip-path="url(#clip-path-3)">
        <path id="Trazado_726436" data-name="Trazado 726436" d="M930.446,1818.569h-.033l-11.915-.114a3.2,3.2,0,0,1-3.269-2.724l-1.047-10a2.174,2.174,0,0,1,.513-1.634,2.62,2.62,0,0,1,1.823-.9c1-.068,2.418-.189,3.914-.316,3.151-.269,7.073-.6,9.28-.63h.048a3.323,3.323,0,0,1,3.288,2.334c.621,2.295.566,6.639.448,11.267a2.945,2.945,0,0,1-3.051,2.715m-13.865-14.456a1.7,1.7,0,0,0-1.185.575,1.266,1.266,0,0,0-.3.95l1.047,10a2.293,2.293,0,0,0,2.368,1.905l11.915.114h.024a2.03,2.03,0,0,0,2.137-1.823c.116-4.557.172-8.828-.417-11a2.445,2.445,0,0,0-2.442-1.657c-2.174.027-6.077.359-9.214.626-1.5.128-2.918.249-3.93.318" transform="translate(-795.519 -1568.336)" fill="#fff"/>
        <g id="Grupo_1025860" data-name="Grupo 1025860" transform="translate(120.808 236.053)" opacity="0.6">
          <g id="Grupo_1025859" data-name="Grupo 1025859">
            <g id="Grupo_1025858" data-name="Grupo 1025858" clip-path="url(#clip-path-75)">
              <path id="Trazado_726437" data-name="Trazado 726437" d="M932.321,1819.466c2.5-.171,7.943-.724,10.524-.756a2.307,2.307,0,0,1,2.309,1.595c.5,1.841.432,5.511.345,8.9a1.982,1.982,0,0,1-2.1,1.813l-9.522-.091a2.2,2.2,0,0,1-2.252-1.849l-.837-7.99a1.546,1.546,0,0,1,1.529-1.621" transform="translate(-930.785 -1818.709)" fill="#fff"/>
            </g>
          </g>
        </g>
        <g id="Grupo_1025863" data-name="Grupo 1025863" transform="translate(145.294 239.882)" opacity="0.6">
          <g id="Grupo_1025862" data-name="Grupo 1025862">
            <g id="Grupo_1025861" data-name="Grupo 1025861" clip-path="url(#clip-path-76)">
              <path id="Trazado_726438" data-name="Trazado 726438" d="M1119.536,1851.923a2.959,2.959,0,0,0,2.886,2.2l110.245-.94a2.237,2.237,0,0,0-.009-4.474l-110.248-.5a2.959,2.959,0,0,0-2.874,3.713" transform="translate(-1119.437 -1848.21)" fill="#fff"/>
            </g>
          </g>
        </g>
      </g>
    </g>
    <g id="Grupo_1025867" data-name="Grupo 1025867" transform="translate(121.907 229.867)">
      <g id="Grupo_1025866" data-name="Grupo 1025866" clip-path="url(#clip-path-81)">
        <rect id="Rectángulo_349846" data-name="Rectángulo 349846" width="23.127" height="21.584" transform="matrix(0.506, -0.863, 0.863, 0.506, -8.302, 13.77)" fill="#115089"/>
      </g>
    </g>
    <g id="Grupo_1025875" data-name="Grupo 1025875" transform="translate(0 0)">
      <g id="Grupo_1025874" data-name="Grupo 1025874" clip-path="url(#clip-path-3)">
        <path id="Trazado_726440" data-name="Trazado 726440" d="M930.446,2015.326h-.033l-11.915-.114a3.2,3.2,0,0,1-3.269-2.724l-1.047-10a2.172,2.172,0,0,1,.513-1.634,2.617,2.617,0,0,1,1.823-.9c1-.068,2.418-.189,3.914-.316,3.151-.269,7.073-.6,9.28-.63h.048a3.323,3.323,0,0,1,3.288,2.334c.621,2.3.566,6.639.448,11.268a2.945,2.945,0,0,1-3.051,2.715m-13.865-14.456a1.693,1.693,0,0,0-1.185.575,1.265,1.265,0,0,0-.3.95l1.047,10a2.291,2.291,0,0,0,2.367,1.9l11.916.115h.024a2.03,2.03,0,0,0,2.137-1.823c.116-4.558.172-8.829-.417-11.005a2.441,2.441,0,0,0-2.442-1.657c-2.174.027-6.077.36-9.214.627-1.5.128-2.918.249-3.93.318" transform="translate(-795.519 -1739.555)" fill="#fff"/>
        <g id="Grupo_1025870" data-name="Grupo 1025870" transform="translate(120.808 261.591)" opacity="0.6">
          <g id="Grupo_1025869" data-name="Grupo 1025869">
            <g id="Grupo_1025868" data-name="Grupo 1025868" clip-path="url(#clip-path-75)">
              <path id="Trazado_726441" data-name="Trazado 726441" d="M932.321,2016.223c2.5-.171,7.943-.724,10.524-.756a2.307,2.307,0,0,1,2.309,1.6c.5,1.841.432,5.511.345,8.9a1.982,1.982,0,0,1-2.1,1.814l-9.522-.092a2.2,2.2,0,0,1-2.252-1.85l-.837-7.989a1.546,1.546,0,0,1,1.529-1.621" transform="translate(-930.785 -2015.467)" fill="#fff"/>
            </g>
          </g>
        </g>
        <g id="Grupo_1025873" data-name="Grupo 1025873" transform="translate(145.294 265.42)" opacity="0.6">
          <g id="Grupo_1025872" data-name="Grupo 1025872">
            <g id="Grupo_1025871" data-name="Grupo 1025871" clip-path="url(#clip-path-76)">
              <path id="Trazado_726442" data-name="Trazado 726442" d="M1119.536,2048.681a2.959,2.959,0,0,0,2.886,2.2l110.245-.94a2.237,2.237,0,0,0-.009-4.474l-110.248-.5a2.959,2.959,0,0,0-2.874,3.713" transform="translate(-1119.437 -2044.968)" fill="#fff"/>
            </g>
          </g>
        </g>
      </g>
    </g>
    <g id="Grupo_1025877" data-name="Grupo 1025877" transform="translate(121.907 255.405)">
      <g id="Grupo_1025876" data-name="Grupo 1025876" clip-path="url(#clip-path-85)">
        <rect id="Rectángulo_349850" data-name="Rectángulo 349850" width="23.295" height="22.302" transform="translate(-8.994 12.214) rotate(-54.351)" fill="#115089"/>
      </g>
    </g>
    <g id="Grupo_1025885" data-name="Grupo 1025885" transform="translate(0 0)">
      <g id="Grupo_1025884" data-name="Grupo 1025884" clip-path="url(#clip-path-3)">
        <path id="Trazado_726444" data-name="Trazado 726444" d="M930.446,2212.085h-.033l-11.915-.114a3.2,3.2,0,0,1-3.269-2.724l-1.047-10a2.175,2.175,0,0,1,.513-1.635,2.618,2.618,0,0,1,1.823-.9c1-.068,2.418-.189,3.914-.317,3.151-.268,7.073-.6,9.28-.63h.048a3.323,3.323,0,0,1,3.288,2.334c.621,2.3.566,6.639.448,11.267a2.944,2.944,0,0,1-3.051,2.715m-13.865-14.456a1.693,1.693,0,0,0-1.185.575,1.264,1.264,0,0,0-.3.95l1.047,10a2.291,2.291,0,0,0,2.367,1.9l11.916.114h.024a2.03,2.03,0,0,0,2.137-1.823c.116-4.558.172-8.829-.417-11.005a2.438,2.438,0,0,0-2.442-1.658c-2.174.028-6.077.36-9.214.627-1.5.127-2.918.248-3.93.317" transform="translate(-795.519 -1910.777)" fill="#fff"/>
        <g id="Grupo_1025880" data-name="Grupo 1025880" transform="translate(120.808 287.128)" opacity="0.6">
          <g id="Grupo_1025879" data-name="Grupo 1025879">
            <g id="Grupo_1025878" data-name="Grupo 1025878" clip-path="url(#clip-path-75)">
              <path id="Trazado_726445" data-name="Trazado 726445" d="M932.321,2212.981c2.5-.171,7.943-.724,10.524-.756a2.308,2.308,0,0,1,2.309,1.6c.5,1.841.432,5.511.345,8.9a1.982,1.982,0,0,1-2.1,1.813l-9.522-.091a2.2,2.2,0,0,1-2.252-1.85l-.837-7.989a1.547,1.547,0,0,1,1.529-1.622" transform="translate(-930.785 -2212.225)" fill="#fff"/>
            </g>
          </g>
        </g>
        <g id="Grupo_1025883" data-name="Grupo 1025883" transform="translate(145.294 290.957)" opacity="0.6">
          <g id="Grupo_1025882" data-name="Grupo 1025882">
            <g id="Grupo_1025881" data-name="Grupo 1025881" clip-path="url(#clip-path-76)">
              <path id="Trazado_726446" data-name="Trazado 726446" d="M1119.536,2245.439h0a2.96,2.96,0,0,0,2.886,2.2l110.245-.94a2.237,2.237,0,0,0-.009-4.474l-110.248-.5a2.959,2.959,0,0,0-2.874,3.713" transform="translate(-1119.437 -2241.726)" fill="#fff"/>
            </g>
          </g>
        </g>
      </g>
    </g>
    <g id="Grupo_1025887" data-name="Grupo 1025887" transform="translate(121.907 280.942)">
      <g id="Grupo_1025886" data-name="Grupo 1025886" clip-path="url(#clip-path-89)">
        <rect id="Rectángulo_349854" data-name="Rectángulo 349854" width="23.127" height="21.584" transform="translate(-8.302 13.77) rotate(-59.634)" fill="#115089"/>
      </g>
    </g>
    <g id="Grupo_1025889" data-name="Grupo 1025889" transform="translate(172.013 22.429)">
      <g id="Grupo_1025888" data-name="Grupo 1025888" clip-path="url(#clip-path-90)">
        <rect id="Rectángulo_349855" data-name="Rectángulo 349855" width="41.444" height="42.382" transform="translate(-13.516 17.399) rotate(-52.759)" fill="#1c466d"/>
      </g>
    </g>
    <g id="Grupo_1025891" data-name="Grupo 1025891" transform="translate(0 0)">
      <g id="Grupo_1025890" data-name="Grupo 1025890" clip-path="url(#clip-path-3)">
        <path id="Trazado_726449" data-name="Trazado 726449" d="M1344.534,208.335a.457.457,0,0,1-.455-.416l-.254-2.769a.457.457,0,1,1,.911-.083l.254,2.769a.457.457,0,0,1-.414.5l-.042,0m-.5-5.427a.457.457,0,0,1-.455-.416l-.193-2.1a7.034,7.034,0,0,1,4.987-7.38,14.168,14.168,0,0,1,6.929-.285.457.457,0,0,1-.183.9,13.28,13.28,0,0,0-6.487.266,6.117,6.117,0,0,0-4.335,6.419l.193,2.1a.457.457,0,0,1-.414.5l-.042,0" transform="translate(-1169.003 -167.45)" fill="#fff"/>
      </g>
    </g>
    <g id="Grupo_1025893" data-name="Grupo 1025893" transform="translate(147.763 45.36)">
      <g id="Grupo_1025892" data-name="Grupo 1025892" clip-path="url(#clip-path-92)">
        <rect id="Rectángulo_349857" data-name="Rectángulo 349857" width="55.366" height="66.049" transform="matrix(0.605, -0.796, 0.796, 0.605, -7.393, 9.725)" fill="#1c466d"/>
      </g>
    </g>
    <g id="Grupo_1025895" data-name="Grupo 1025895" transform="translate(0 0)">
      <g id="Grupo_1025894" data-name="Grupo 1025894" clip-path="url(#clip-path-3)">
        <path id="Trazado_726451" data-name="Trazado 726451" d="M1291.189,368.753H1288.6a.457.457,0,1,1,0-.915h2.592a.457.457,0,1,1,0,.915" transform="translate(-1120.95 -320.095)" fill="#fff"/>
        <path id="Trazado_726452" data-name="Trazado 726452" d="M1160.535,376.787a.457.457,0,0,1-.458-.458v-3.537a4.962,4.962,0,0,1,4.956-4.956h9.531a.457.457,0,0,1,0,.915h-9.531a4.046,4.046,0,0,0-4.041,4.041v3.537a.457.457,0,0,1-.457.458" transform="translate(-1009.509 -320.094)" fill="#fff"/>
      </g>
    </g>
    <g id="Grupo_1025897" data-name="Grupo 1025897" transform="translate(206.643 66.189)">
      <g id="Grupo_1025896" data-name="Grupo 1025896" clip-path="url(#clip-path-94)">
        <rect id="Rectángulo_349859" data-name="Rectángulo 349859" width="57.982" height="52.785" transform="matrix(0.574, -0.819, 0.819, 0.574, -23.663, 33.782)" fill="#ffa031"/>
      </g>
    </g>
    <g id="Grupo_1025899" data-name="Grupo 1025899" transform="translate(122.964 56.235)">
      <g id="Grupo_1025898" data-name="Grupo 1025898" clip-path="url(#clip-path-95)">
        <rect id="Rectángulo_349860" data-name="Rectángulo 349860" width="70.355" height="112.388" transform="translate(-6.335 11.422) rotate(-61.427)" fill="#265e91"/>
      </g>
    </g>
    <g id="Grupo_1025901" data-name="Grupo 1025901" transform="translate(292.787 343.752)">
      <g id="Grupo_1025900" data-name="Grupo 1025900" clip-path="url(#clip-path-96)">
        <rect id="Rectángulo_349861" data-name="Rectángulo 349861" width="23.276" height="9.948" fill="#1c466d"/>
      </g>
    </g>
    <g id="Grupo_1025903" data-name="Grupo 1025903" transform="translate(292.424 351.039)">
      <g id="Grupo_1025902" data-name="Grupo 1025902" clip-path="url(#clip-path-97)">
        <rect id="Rectángulo_349862" data-name="Rectángulo 349862" width="20.767" height="18.824" transform="matrix(0.754, -0.657, 0.657, 0.754, -2.245, 1.727)" fill="url(#linear-gradient-8)"/>
      </g>
    </g>
    <g id="Grupo_1025905" data-name="Grupo 1025905" transform="translate(346.69 344.003)">
      <g id="Grupo_1025904" data-name="Grupo 1025904" clip-path="url(#clip-path-98)">
        <rect id="Rectángulo_349863" data-name="Rectángulo 349863" width="11.167" height="9.444" transform="translate(-0.058 0)" fill="#1c466d"/>
      </g>
    </g>
    <g id="Grupo_1025907" data-name="Grupo 1025907" transform="translate(347.019 353.069)">
      <g id="Grupo_1025906" data-name="Grupo 1025906" clip-path="url(#clip-path-99)">
        <rect id="Rectángulo_349864" data-name="Rectángulo 349864" width="9.059" height="8.154" transform="translate(-0.706 0.616) rotate(-41.072)" fill="url(#linear-gradient-9)"/>
      </g>
    </g>
    <g id="Grupo_1025909" data-name="Grupo 1025909" transform="translate(345.893 334.709)">
      <g id="Grupo_1025908" data-name="Grupo 1025908" clip-path="url(#clip-path-100)">
        <rect id="Rectángulo_349865" data-name="Rectángulo 349865" width="7.302" height="12.76" transform="translate(0 0)" fill="url(#linear-gradient-10)"/>
      </g>
    </g>
    <g id="Grupo_1025911" data-name="Grupo 1025911" transform="translate(308.926 335.84)">
      <g id="Grupo_1025910" data-name="Grupo 1025910" clip-path="url(#clip-path-101)">
        <rect id="Rectángulo_349866" data-name="Rectángulo 349866" width="6.243" height="9.522" transform="translate(0)" fill="url(#linear-gradient-11)"/>
      </g>
    </g>
    <g id="Grupo_1025913" data-name="Grupo 1025913" transform="translate(298.229 250.086)">
      <g id="Grupo_1025912" data-name="Grupo 1025912" clip-path="url(#clip-path-102)">
        <rect id="Rectángulo_349867" data-name="Rectángulo 349867" width="105.274" height="89.863" transform="matrix(0.45, -0.893, 0.893, 0.45, -36.176, 71.813)" fill="#1c466d"/>
      </g>
    </g>
    <g id="Grupo_1025915" data-name="Grupo 1025915" transform="translate(311.443 263.664)">
      <g id="Grupo_1025914" data-name="Grupo 1025914" clip-path="url(#clip-path-103)">
        <rect id="Rectángulo_349868" data-name="Rectángulo 349868" width="6.115" height="6.117" transform="matrix(0.791, -0.612, 0.612, 0.791, -2.148, 1.634)" fill="url(#linear-gradient-12)"/>
      </g>
    </g>
    <g id="Grupo_1025917" data-name="Grupo 1025917" transform="translate(281.761 181.526)">
      <g id="Grupo_1025916" data-name="Grupo 1025916" clip-path="url(#clip-path-104)">
        <rect id="Rectángulo_349869" data-name="Rectángulo 349869" width="52.187" height="48.871" transform="translate(-13.83 7.365) rotate(-28.037)" fill="#006f6e"/>
      </g>
    </g>
    <g id="Grupo_1025919" data-name="Grupo 1025919" transform="translate(295.505 166.171)">
      <g id="Grupo_1025918" data-name="Grupo 1025918" clip-path="url(#clip-path-105)">
        <rect id="Rectángulo_349870" data-name="Rectángulo 349870" width="13.86" height="18.862" transform="translate(-0.973 0.052) rotate(-3.069)" fill="url(#linear-gradient-13)"/>
      </g>
    </g>
    <g id="Grupo_1025921" data-name="Grupo 1025921" transform="translate(292.212 153.558)">
      <g id="Grupo_1025920" data-name="Grupo 1025920" clip-path="url(#clip-path-106)">
        <rect id="Rectángulo_349871" data-name="Rectángulo 349871" width="28.414" height="28.393" transform="matrix(0.689, -0.725, 0.725, 0.689, -11.356, 10.706)" fill="url(#linear-gradient-14)"/>
      </g>
    </g>
    <g id="Grupo_1025923" data-name="Grupo 1025923" transform="translate(293.668 145.067)">
      <g id="Grupo_1025922" data-name="Grupo 1025922" clip-path="url(#clip-path-107)">
        <rect id="Rectángulo_349872" data-name="Rectángulo 349872" width="30.568" height="30.227" transform="matrix(0.262, -0.965, 0.965, 0.262, -7.274, 23.299)" fill="#1c466d"/>
      </g>
    </g>
    <g id="Grupo_1025925" data-name="Grupo 1025925" transform="translate(305.35 162.489)">
      <g id="Grupo_1025924" data-name="Grupo 1025924" clip-path="url(#clip-path-108)">
        <rect id="Rectángulo_349873" data-name="Rectángulo 349873" width="8.169" height="8.176" transform="matrix(0.689, -0.725, 0.725, 0.689, -2.837, 2.983)" fill="url(#linear-gradient-15)"/>
      </g>
    </g>
    <g id="Grupo_1025927" data-name="Grupo 1025927" transform="translate(260.895 201.232)">
      <g id="Grupo_1025926" data-name="Grupo 1025926" clip-path="url(#clip-path-109)">
        <rect id="Rectángulo_349874" data-name="Rectángulo 349874" width="109.105" height="105.341" transform="translate(-25.052 22.567) rotate(-42.013)" fill="#ffa031"/>
      </g>
    </g>
    <g id="Grupo_1025929" data-name="Grupo 1025929" transform="translate(0 0)">
      <g id="Grupo_1025928" data-name="Grupo 1025928" clip-path="url(#clip-path-3)">
        <path id="Trazado_726469" data-name="Trazado 726469" d="M1942.4,1617.442l6.971-50.1a1.792,1.792,0,0,1,2.163-1.5l95.2,21.14a3.747,3.747,0,0,1,2.838,4.5l-7.99,34.634Z" transform="translate(-1690.294 -1362.565)" fill="#fff"/>
        <path id="Trazado_726470" data-name="Trazado 726470" d="M1961.771,1634.524l2.67-44.722a1.884,1.884,0,0,1,2.271-1.73l96.2,20.356a2.6,2.6,0,0,1,2.033,2.956l-5.124,32.305Z" transform="translate(-1707.15 -1381.918)" fill="#fff"/>
      </g>
    </g>
    <g id="Grupo_1025931" data-name="Grupo 1025931" transform="translate(247.615 211.041)">
      <g id="Grupo_1025930" data-name="Grupo 1025930" clip-path="url(#clip-path-111)">
        <rect id="Rectángulo_349876" data-name="Rectángulo 349876" width="133.059" height="124.404" transform="translate(-34.16 25.295) rotate(-36.757)" fill="#ffa031"/>
      </g>
    </g>
    <g id="Grupo_1025933" data-name="Grupo 1025933" transform="translate(263.885 209.025)">
      <g id="Grupo_1025932" data-name="Grupo 1025932" clip-path="url(#clip-path-112)">
        <rect id="Rectángulo_349877" data-name="Rectángulo 349877" width="31.416" height="27.733" transform="matrix(0.801, -0.598, 0.598, 0.801, -6.098, 4.315)" fill="#ffa031"/>
      </g>
    </g>
    <g id="Grupo_1025935" data-name="Grupo 1025935" transform="translate(312.782 183.2)">
      <g id="Grupo_1025934" data-name="Grupo 1025934" clip-path="url(#clip-path-113)">
        <rect id="Rectángulo_349878" data-name="Rectángulo 349878" width="47.864" height="54.046" transform="translate(-18.736 9.978) rotate(-28.037)" fill="#006f6e"/>
      </g>
    </g>
    <g id="Grupo_1025937" data-name="Grupo 1025937" transform="translate(325.71 223.301)">
      <g id="Grupo_1025936" data-name="Grupo 1025936" clip-path="url(#clip-path-114)">
        <rect id="Rectángulo_349879" data-name="Rectángulo 349879" width="48.798" height="43.02" transform="translate(-23.858 30.019) rotate(-55.182)" fill="url(#linear-gradient-16)"/>
      </g>
    </g>
    <g id="Grupo_1025939" data-name="Grupo 1025939" transform="translate(0 0)">
      <g id="Grupo_1025938" data-name="Grupo 1025938" clip-path="url(#clip-path-3)">
        <path id="Trazado_726475" data-name="Trazado 726475" d="M596.029,992.148l-2.045,2.589-.008.01a.435.435,0,1,1-.683-.539l.006-.008,2.121-2.558a.4.4,0,0,1,.615.5Z" transform="translate(-516.208 -862.81)" fill="#fff"/>
        <path id="Trazado_726476" data-name="Trazado 726476" d="M530.976,1063.473,527.51,1069l-.017.026a.6.6,0,1,1-1.015-.636l.006-.01,3.6-5.511a.535.535,0,0,1,.9.577Z" transform="translate(-458.066 -924.709)" fill="#fff"/>
        <path id="Trazado_726477" data-name="Trazado 726477" d="M475.922,1161.735l-2.78,5.9-.016.036a.732.732,0,0,1-1.324-.624l.006-.012,2.917-5.913a.674.674,0,0,1,1.214.584Z" transform="translate(-410.505 -1010.087)" fill="#fff"/>
        <path id="Trazado_726478" data-name="Trazado 726478" d="M433.809,1266.378l-2.018,6.188-.015.047a.865.865,0,1,1-1.645-.536l0-.014,2.158-6.24a.806.806,0,0,1,1.529.513Z" transform="translate(-374.267 -1101.056)" fill="#fff"/>
        <path id="Trazado_726479" data-name="Trazado 726479" d="M406.25,1376.095l-1.2,6.387-.011.056a.963.963,0,1,1-1.892-.357l0-.01,1.295-6.483a.927.927,0,0,1,1.82.353Z" transform="translate(-350.805 -1196.486)" fill="#fff"/>
        <path id="Trazado_726480" data-name="Trazado 726480" d="M394.192,1489.424l-.318,6.485,0,.063a1.044,1.044,0,1,1-2.085-.1v-.011l.4-6.6a1.008,1.008,0,0,1,2.013.109Z" transform="translate(-340.934 -1295.136)" fill="#fff"/>
        <path id="Trazado_726481" data-name="Trazado 726481" d="M394.552,1604.081l.575,6.464.006.067a1.125,1.125,0,1,1-2.242.2v-.012l-.516-6.6a1.089,1.089,0,0,1,2.171-.182Z" transform="translate(-341.445 -1394.964)" fill="#fff"/>
        <path id="Trazado_726482" data-name="Trazado 726482" d="M408.08,1717.883l1.453,6.321.016.07a1.207,1.207,0,1,1-2.352.541l0-.013-1.414-6.474a1.171,1.171,0,0,1,2.284-.513Z" transform="translate(-353.089 -1494.066)" fill="#fff"/>
        <path id="Trazado_726483" data-name="Trazado 726483" d="M437.021,1828.686l2.266,6.074.026.068a1.269,1.269,0,0,1-2.377.887l0-.006-2.286-6.223a1.252,1.252,0,0,1,2.35-.863Z" transform="translate(-378.167 -1590.569)" fill="#fff"/>
        <path id="Trazado_726484" data-name="Trazado 726484" d="M480.756,1934.98l3.029,5.733.034.064a1.3,1.3,0,0,1-2.291,1.21l0,0-3.075-5.872a1.284,1.284,0,0,1,2.274-1.191Z" transform="translate(-416.224 -1683.185)" fill="#fff"/>
        <path id="Trazado_726485" data-name="Trazado 726485" d="M537.813,2034.8l3.726,5.307.041.059a1.322,1.322,0,1,1-2.165,1.519l0,0-3.789-5.438a1.311,1.311,0,0,1,2.151-1.5Z" transform="translate(-465.9 -1770.168)" fill="#fff"/>
        <path id="Trazado_726486" data-name="Trazado 726486" d="M606.942,2126.667l4.359,4.8.05.055a1.349,1.349,0,0,1-2,1.815l0,0-4.441-4.924a1.337,1.337,0,0,1,1.986-1.792Z" transform="translate(-526.098 -1850.215)" fill="#fff"/>
        <path id="Trazado_726487" data-name="Trazado 726487" d="M687.1,2209.036l4.942,4.183.063.054a1.376,1.376,0,0,1-1.778,2.1l0,0-5.051-4.307a1.364,1.364,0,1,1,1.771-2.076Z" transform="translate(-595.914 -1921.995)" fill="#fff"/>
        <path id="Trazado_726488" data-name="Trazado 726488" d="M777.557,2279.87l2.74,1.708,1.369.854c.459.28.906.581,1.377.842a1.4,1.4,0,1,1-1.356,2.457l0,0-.037-.02c-.485-.271-.944-.582-1.417-.872l-1.409-.886L776,2282.18a1.391,1.391,0,0,1,1.481-2.355Z" transform="translate(-674.72 -1983.737)" fill="#fff"/>
        <path id="Trazado_726489" data-name="Trazado 726489" d="M878.026,2336.06q2.935,1.341,5.959,2.482a1.412,1.412,0,0,1-.992,2.643q-3.114-1.165-6.145-2.544a1.418,1.418,0,0,1,1.179-2.581Z" transform="translate(-762.318 -2032.746)" fill="#fff"/>
        <path id="Trazado_726490" data-name="Trazado 726490" d="M985.965,2375.583l6.276,1.557.085.021a1.392,1.392,0,0,1-.667,2.7l-6.452-1.583a1.4,1.4,0,1,1,.667-2.72h0Z" transform="translate(-856.408 -2067.198)" fill="#fff"/>
        <path id="Trazado_726491" data-name="Trazado 726491" d="M1098.918,2398.9l6.44.685.077.009a1.371,1.371,0,0,1-.286,2.727l-6.6-.68a1.382,1.382,0,0,1,.283-2.749h0Z" transform="translate(-954.889 -2087.528)" fill="#fff"/>
        <path id="Trazado_726492" data-name="Trazado 726492" d="M1214.144,2406.429l6.486-.1h.068a1.314,1.314,0,0,1,.053,2.628l-6.623.157a1.339,1.339,0,1,1-.063-2.678h.08Z" transform="translate(-1055.351 -2094.003)" fill="#fff"/>
        <path id="Trazado_726493" data-name="Trazado 726493" d="M1329.639,2395.875l6.442-.834.059-.008a1.257,1.257,0,0,1,.332,2.491l-6.554.9a1.283,1.283,0,1,1-.35-2.542h.01Z" transform="translate(-1156.038 -2084.169)" fill="#fff"/>
        <path id="Trazado_726494" data-name="Trazado 726494" d="M1444,2373.58l6.334-1.475.048-.011a1.146,1.146,0,0,1,.537,2.229l-6.411,1.594a1.195,1.195,0,1,1-.576-2.319l.011,0Z" transform="translate(-1255.737 -2064.188)" fill="#fff"/>
        <path id="Trazado_726495" data-name="Trazado 726495" d="M1556.1,2340.314l6.171-2.079.04-.014a1.036,1.036,0,0,1,.676,1.959l-6.222,2.2a1.085,1.085,0,1,1-.722-2.045l.009,0Z" transform="translate(-1353.456 -2034.692)" fill="#fff"/>
        <path id="Trazado_726496" data-name="Trazado 726496" d="M1664.924,2297.067l5.967-2.628.032-.015a.926.926,0,0,1,.759,1.689l-5.993,2.746a.975.975,0,1,1-.812-1.772l.008,0Z" transform="translate(-1448.295 -1996.559)" fill="#fff"/>
        <path id="Trazado_726497" data-name="Trazado 726497" d="M1769.948,2245.166l5.742-3.1.024-.013a.758.758,0,0,1,.736,1.324l-5.716,3.27a.837.837,0,1,1-.831-1.453l.014-.008Z" transform="translate(-1539.818 -1950.97)" fill="#fff"/>
        <path id="Trazado_726498" data-name="Trazado 726498" d="M1870.774,2185.092l5.477-3.564.017-.011a.578.578,0,0,1,.642.96l-5.425,3.719a.657.657,0,1,1-.742-1.083l.01-.007Z" transform="translate(-1627.687 -1898.293)" fill="#fff"/>
        <path id="Trazado_726499" data-name="Trazado 726499" d="M1966.99,2130.985l2.647-1.983.005,0a.4.4,0,0,1,.485.625l-2.593,2.076a.449.449,0,1,1-.561-.7l.01-.007Z" transform="translate(-1711.53 -1852.603)" fill="#fff"/>
      </g>
    </g>
  </g>
</svg>
