<svg xmlns="http://www.w3.org/2000/svg" width="88" height="88" viewBox="0 0 88 88">
  <g id="Grupo_1029974" data-name="Grupo 1029974" transform="translate(-224 -427)">
    <g id="Grupo_1013412" data-name="Grupo 1013412" transform="translate(0 18)">
      <path id="Trazado_710239" data-name="Trazado 710239" d="M44,0A44,44,0,1,1,0,44,44,44,0,0,1,44,0Z" transform="translate(224 409)" fill="#d2e1f1"/>
    </g>
    <g id="Grupo_1029764" data-name="Grupo 1029764" transform="translate(231 308.392)">
      <path id="path8614" d="M484.687,242.29H463.165V218.115h14.87l6.652,11.195Z" transform="translate(-415.585 -70.053)" fill="#d9e7ec"/>
      <path id="path8618" d="M592.032,229.315v12.979h-2.579V229.315L582.8,218.12h2.581Z" transform="translate(-522.93 -70.057)" fill="#c5d3dd"/>
      <path id="path8622" d="M78.075,457.348h-63.7L10,453.439H78.075Z" transform="translate(-8.973 -281.202)" fill="#a8d3d8"/>
      <path id="path8624" d="M650.139,457.349H647.56V453.44h2.579Z" transform="translate(-581.037 -281.203)" fill="#8ebac5"/>
      <path id="path8628" d="M26.96,150.04v31.168H10V167Z" transform="translate(-8.973 -8.971)" fill="#065958"/>
      <path id="path8632" d="M150.424,150.04v31.168H147.6V152.864Z" transform="translate(-132.438 -8.971)" fill="#017b4e"/>
      <path id="path8634" d="M204.686,181.208H175.093V150.04h29.593Z" transform="translate(-157.107 -8.971)" fill="#065958"/>
      <path id="path8636" d="M433.622,181.208H430.24V150.04h3.382Z" transform="translate(-386.042 -8.971)" fill="#065958"/>
      <path id="path8640" d="M517.8,268.409h-12.23v-6.921h8.248Z" transform="translate(-453.632 -108.97)" fill="#8ac9fe"/>
      <path id="path8644" d="M564.114,268.4h-2.945l-3.982-6.921h2.945Z" transform="translate(-499.948 -108.963)" fill="#60b8fe"/>
      <path id="path8646" d="M581.5,333.548h-4.936v-4.693H581.5Z" transform="translate(-517.337 -169.416)" fill="#a8d3d8"/>
      <g id="g8656" transform="translate(51.165 171.921)">
        <path id="path8658" d="M506.51,454.587a4.225,4.225,0,1,1-4.225-4.225,4.225,4.225,0,0,1,4.225,4.225" transform="translate(-498.059 -450.362)" fill="#afafaf"/>
      </g>
      <g id="g8664" transform="translate(26.78 171.921)">
        <path id="path8666" d="M269.147,454.587a4.225,4.225,0,1,1-4.225-4.225,4.225,4.225,0,0,1,4.225,4.225" transform="translate(-260.696 -450.362)" fill="#afafaf"/>
      </g>
      <g id="g8672" transform="translate(13.761 171.921)">
        <path id="path8674" d="M142.416,454.587a4.225,4.225,0,1,1-4.225-4.225,4.225,4.225,0,0,1,4.225,4.225" transform="translate(-133.965 -450.362)" fill="#afafaf"/>
      </g>
      <g id="g8680" transform="translate(1.284 141.38)">
        <path id="path8682" d="M26.381,155.58,15.016,166.945,12.5,164.431l11.365-11.365Z" transform="translate(-12.502 -153.066)" fill="#ffa031"/>
      </g>
      <g id="g8684" transform="translate(46.553 147.035)">
        <path id="Trazado_728950" data-name="Trazado 728950" d="M475.714,234.344a1.027,1.027,0,0,1-1.027-1.027v-12.7l-6.209-10.45H455.22v23.147a1.027,1.027,0,0,1-2.055,0V209.142a1.027,1.027,0,0,1,1.027-1.027h14.87a1.027,1.027,0,0,1,.883.5l6.652,11.195a1.027,1.027,0,0,1,.144.525v12.98A1.027,1.027,0,0,1,475.714,234.344Z" transform="translate(-453.165 -208.115)"/>
      </g>
      <g id="g8688" transform="translate(55.967 171.21)">
        <path id="Trazado_728951" data-name="Trazado 728951" d="M557.939,449.4h-9.487a1.027,1.027,0,0,1,0-2.055h8.459v-1.855H545.831a1.027,1.027,0,0,1,0-2.055h12.108a1.027,1.027,0,0,1,1.027,1.027v3.909A1.027,1.027,0,0,1,557.939,449.4Z" transform="translate(-544.804 -443.438)"/>
      </g>
      <g id="g8692" transform="translate(31.583 171.21)">
        <path id="Trazado_728952" data-name="Trazado 728952" d="M329.644,445.493H308.468a1.027,1.027,0,1,1,0-2.055h21.176a1.027,1.027,0,1,1,0,2.055Z" transform="translate(-307.441 -443.438)"/>
      </g>
      <g id="g8696" transform="translate(18.563 171.21)">
        <path id="Trazado_728953" data-name="Trazado 728953" d="M191.547,445.493h-9.811a1.027,1.027,0,0,1,0-2.055h9.811a1.027,1.027,0,0,1,0,2.055Z" transform="translate(-180.709 -443.438)"/>
      </g>
      <g id="g8700" transform="translate(-0.001 171.21)">
        <path id="Trazado_728954" data-name="Trazado 728954" d="M13.761,449.4H5.4a1.028,1.028,0,0,1-.684-.261L.342,445.231a1.027,1.027,0,0,1,.684-1.793H16.383a1.027,1.027,0,1,1,0,2.055H3.719L5.8,447.347h7.966a1.027,1.027,0,1,1,0,2.055Z" transform="translate(0.001 -443.438)"/>
      </g>
      <g id="g8704" transform="translate(21.185 175.119)">
        <path id="Trazado_728955" data-name="Trazado 728955" d="M211.822,483.548h-4.568a1.027,1.027,0,0,1,0-2.055h4.568a1.027,1.027,0,0,1,0,2.055Z" transform="translate(-206.226 -481.493)"/>
      </g>
      <g id="g8708" transform="translate(34.204 175.119)">
        <path id="Trazado_728956" data-name="Trazado 728956" d="M345.234,483.548H333.986a1.027,1.027,0,1,1,0-2.055h11.247a1.027,1.027,0,1,1,0,2.055Z" transform="translate(-332.959 -481.493)"/>
      </g>
      <g id="g8712" transform="translate(-0.001 140.042)">
        <path id="Trazado_728957" data-name="Trazado 728957" d="M47.581,173.264a1.027,1.027,0,0,1-1.027-1.027V142.1H18.413L2.055,158.455v13.782a1.027,1.027,0,0,1-2.055,0V158.029a1.028,1.028,0,0,1,.3-.726l16.96-16.96a1.027,1.027,0,0,1,.726-.3H47.581a1.027,1.027,0,0,1,1.027,1.027v31.168A1.027,1.027,0,0,1,47.581,173.264Z" transform="translate(0 -140.042)"/>
      </g>
      <g id="g8716" transform="translate(16.96 145.311)">
        <path id="Trazado_728958" data-name="Trazado 728958" d="M166.123,218.97a1.027,1.027,0,0,1-1.027-1.027V192.36a1.027,1.027,0,0,1,2.055,0v25.582A1.027,1.027,0,0,1,166.123,218.97Z" transform="translate(-165.096 -191.333)"/>
      </g>
      <g id="g8720" transform="translate(50.909 151.491)">
        <path id="Trazado_728959" data-name="Trazado 728959" d="M508.824,260.462h-12.23a1.027,1.027,0,0,1-1.027-1.027v-6.921a1.027,1.027,0,0,1,1.027-1.027h8.248a1.027,1.027,0,0,1,.89.515l3.982,6.921a1.027,1.027,0,0,1-.89,1.54Zm-11.2-2.055h9.426l-2.8-4.866h-6.626Z" transform="translate(-495.567 -251.487)"/>
      </g>
      <path id="Trazado_728960" data-name="Trazado 728960" d="M572.53,325.6h-4.936a1.027,1.027,0,0,1-1.027-1.027v-4.693a1.027,1.027,0,0,1,1.027-1.027h4.936a1.027,1.027,0,0,1,1.027,1.027v4.693A1.027,1.027,0,0,1,572.53,325.6Zm-3.909-2.055H571.5v-2.638h-2.882Z" transform="translate(-508.364 -160.443)"/>
      <g id="g8726" transform="translate(50.137 170.894)">
        <path id="Trazado_728961" data-name="Trazado 728961" d="M493.311,450.867a5.253,5.253,0,1,1,5.253-5.253A5.259,5.259,0,0,1,493.311,450.867Zm0-8.451a3.2,3.2,0,1,0,3.2,3.2A3.2,3.2,0,0,0,493.311,442.416Z" transform="translate(-488.059 -440.361)"/>
      </g>
      <g id="g8730" transform="translate(25.753 170.894)">
        <path id="Trazado_728962" data-name="Trazado 728962" d="M255.949,450.867a5.253,5.253,0,1,1,5.253-5.253A5.259,5.259,0,0,1,255.949,450.867Zm0-8.451a3.2,3.2,0,1,0,3.2,3.2A3.2,3.2,0,0,0,255.949,442.416Z" transform="translate(-250.696 -440.361)"/>
      </g>
      <g id="g8734" transform="translate(12.734 170.894)">
        <path id="Trazado_728963" data-name="Trazado 728963" d="M129.218,450.867a5.253,5.253,0,1,1,5.253-5.253A5.259,5.259,0,0,1,129.218,450.867Zm0-8.451a3.2,3.2,0,1,0,3.2,3.2A3.2,3.2,0,0,0,129.218,442.416Z" transform="translate(-123.965 -440.361)"/>
      </g>
      <g id="g8762" transform="translate(0.256 140.353)">
        <path id="Trazado_728970" data-name="Trazado 728970" d="M6.042,159a1.024,1.024,0,0,1-.726-.3L2.8,156.185a1.027,1.027,0,0,1,0-1.453l1.671-1.671a1.027,1.027,0,0,1,1.453,1.453l-.944.944,1.061,1.061,9.912-9.912-1.061-1.061-5.629,5.629a1.027,1.027,0,1,1-1.453-1.453l6.355-6.355a1.027,1.027,0,0,1,1.453,0l2.514,2.514a1.027,1.027,0,0,1,0,1.453L6.769,158.7A1.024,1.024,0,0,1,6.042,159Z" transform="translate(-2.501 -143.067)"/>
      </g>
      <g id="g8766" transform="translate(54.362 175.119)">
        <path id="path8768" d="M531.244,482.521a1.027,1.027,0,1,1-1.027-1.027,1.027,1.027,0,0,1,1.027,1.027" transform="translate(-529.189 -481.494)"/>
      </g>
      <g id="g8770" transform="translate(29.978 175.119)">
        <path id="path8772" d="M293.882,482.521a1.027,1.027,0,1,1-1.027-1.027,1.027,1.027,0,0,1,1.027,1.027" transform="translate(-291.827 -481.494)"/>
      </g>
      <g id="g8774" transform="translate(16.96 175.119)">
        <path id="path8776" d="M167.151,482.521a1.027,1.027,0,1,1-1.027-1.027,1.027,1.027,0,0,1,1.027,1.027" transform="translate(-165.096 -481.494)"/>
      </g>
    </g>
  </g>
</svg>
