<svg xmlns="http://www.w3.org/2000/svg" width="86" height="86" viewBox="0 0 86 86">
  <g id="Grupo_1029972" data-name="Grupo 1029972" transform="translate(-180 -8557)">
    <circle id="resina-cloruro-polivinilo-resina-pvc-pvc-plastificado-utilizado-industria-general-polvo-plastico-fotografia-macro" cx="43" cy="43" r="43" transform="translate(180 8557)" fill="#115089"/>
    <g id="Grupo_1029751" data-name="Grupo 1029751" transform="matrix(1, -0.017, 0.017, 1, 151.007, 8582.209)">
      <path id="Trazado_728929" data-name="Trazado 728929" d="M145.725,105.445c1.236-6.6-.137-10.708-1.375-12.893l.562-.3c1.544,2.745,3.248,8.258.431,17.413a2.26,2.26,0,1,0,4.321,1.33c3.218-10.46,1.252-17.2-.786-20.875a13.25,13.25,0,0,0-2.589-3.41,7.005,7.005,0,0,1-10.52-.669h-2.023c-.032,0-.064,0-.1,0Z" transform="translate(-73.43 -87.573)" fill="#fff"/>
      <path id="Trazado_728930" data-name="Trazado 728930" d="M276.777,348.534l1.662-1.034.767,1.233-1.662,1.034Z" transform="translate(-198.87 -316.727)" fill="#fff"/>
      <path id="Trazado_728931" data-name="Trazado 728931" d="M249.17,306.246l1.662-1.034-2.953-4.745a2.9,2.9,0,0,1-1.869.7Z" transform="translate(-171.905 -275.505)" fill="#fff"/>
      <path id="Trazado_728932" data-name="Trazado 728932" d="M77.582,24.458l-1.631-2.621L74.288,22.87l1.5,2.405A2.9,2.9,0,0,1,77.582,24.458Z" transform="translate(-21.402 -31.305)" fill="#fff"/>
      <path id="Trazado_728933" data-name="Trazado 728933" d="M284.3,368.774a15.467,15.467,0,0,0-1.243,11.525c1.355,4.536,9.09-.75,9.09-.75a19.739,19.739,0,0,0,4.022-3.075l-2.7-3.443,3.428,2.575c.918-1.275,1.246-2.67-.048-3.874a15.464,15.464,0,0,0-10.883-3.991l-1.113-1.788-1.662,1.034Z" transform="translate(-203.844 -332.899)" fill="#fff"/>
      <path id="Trazado_728934" data-name="Trazado 728934" d="M116.762,78.87l-.914,2.238,13.422,21.569q.4-1.369.672-2.625Z" transform="translate(-57.827 -81.291)" fill="#fff"/>
      <path id="Trazado_728935" data-name="Trazado 728935" d="M49.957,60.359c-.014.05-.025.1-.036.151-.005.024-.012.047-.016.071s-.011.077-.016.115-.011.072-.014.108,0,.045,0,.067c0,.051-.006.1,0,.153,0,.008,0,.016,0,.024,0,.064.005.129.012.192,0,.014,0,.027.006.041.008.057.016.115.028.171s.032.135.053.2v.005a2.246,2.246,0,0,0,.266.563l.015.024c.025.036.052.071.079.107s.036.05.056.074.039.043.059.065.062.07.1.1c.015.014.031.028.046.042.04.038.081.075.125.11l.009.008.016.01a2.237,2.237,0,0,0,.289.193l.03.018a2.207,2.207,0,0,0,.22.1c.027.011.054.019.081.029l.074.026a2.23,2.23,0,0,0,.308.078l.054.008a2.26,2.26,0,0,0,.336.028h.021a2.292,2.292,0,0,0,.275-.02l.092-.015q.108-.019.213-.048c.027-.007.054-.014.08-.023a2.243,2.243,0,0,0,.544-.255c.022-.014.042-.03.063-.044q.091-.063.177-.136c.026-.022.052-.044.077-.068.051-.048.1-.1.148-.154.021-.024.044-.047.065-.072l.014-.016a21.564,21.564,0,0,1,4.236-4V72.2l-2.41,29.552a3.493,3.493,0,0,0,6.964.568l2.1-25.736h1.978l2.1,25.736a3.493,3.493,0,0,0,6.964-.568L74.163,81.364l-.854-1.372c-.031-.008-.062-.015-.092-.024a2.914,2.914,0,0,1-2-3.338L57.731,54.959l-.786,1.926-.615-.212,2.177-5.334a2.261,2.261,0,0,0-4.186-1.708L52.05,55.2l-2.014,4.935,0,.01c-.022.054-.04.11-.058.165-.005.017-.012.034-.017.051Z" transform="translate(0 -54.432)" fill="#fff"/>
      <circle id="Elipse_8611" data-name="Elipse 8611" cx="6.355" cy="6.355" r="6.355" transform="translate(59.811 -1.869) rotate(-70.94)" fill="#fff"/>
      <path id="Trazado_728936" data-name="Trazado 728936" d="M385.4,486.478l-1.7.188-.188,1.319.93.765,2.084-.106.565-.883.848-1.095-.848-.942Z" transform="translate(-292.422 -437.871)" fill="#fff"/>
      <path id="Trazado_728937" data-name="Trazado 728937" d="M422.241,493.482l-.612,1.271,1.648.283.895-1.319-.612-.754Z" transform="translate(-325.823 -444.216)" fill="#fff"/>
      <path id="Trazado_728938" data-name="Trazado 728938" d="M359.892,496.617l1.317.226.715-1.054-.489-.6-1.054.414Z" transform="translate(-271.714 -446.164)" fill="#fff"/>
      <path id="Trazado_728939" data-name="Trazado 728939" d="M431.4,423.965a.745.745,0,0,0,.5,1.186,1.073,1.073,0,0,1,.367.771,1.069,1.069,0,0,0,.479-.313,1.077,1.077,0,0,0-1.345-1.643Z" transform="translate(-334.385 -383.618)" fill="#fff"/>
      <path id="Trazado_728940" data-name="Trazado 728940" d="M416.74,423.817a1.006,1.006,0,0,0-.356-.2c-.019.027-.034.054-.056.08a1.073,1.073,0,0,1-.556.338,1.013,1.013,0,1,0-1.185-1.586c-.01.011-.016.025-.026.036a8.3,8.3,0,0,1,.848,2.861,1.014,1.014,0,0,0,1.331-1.529Z" transform="translate(-319.433 -382.109)" fill="#fff"/>
      <circle id="Elipse_8612" data-name="Elipse 8612" cx="0.494" cy="0.494" r="0.494" transform="translate(96.653 38.882)" fill="#fff"/>
      <circle id="Elipse_8613" data-name="Elipse 8613" cx="0.494" cy="0.494" r="0.494" transform="translate(96.859 44.779)" fill="#fff"/>
      <circle id="Elipse_8614" data-name="Elipse 8614" cx="0.494" cy="0.494" r="0.494" transform="translate(99.83 41.368)" fill="#fff"/>
      <circle id="Elipse_8615" data-name="Elipse 8615" cx="0.494" cy="0.494" r="0.494" transform="translate(94.341 36.587)" fill="#fff"/>
    </g>
  </g>
</svg>
