<svg xmlns="http://www.w3.org/2000/svg" width="86" height="86" viewBox="0 0 86 86">
  <g id="Grupo_1029973" data-name="Grupo 1029973" transform="translate(-810 -8557)">
    <circle id="resina-cloruro-polivinilo-resina-pvc-pvc-plastificado-utilizado-industria-general-polvo-plastico-fotografia-macro" cx="43" cy="43" r="43" transform="translate(810 8557)" fill="#115089"/>
    <g id="Grupo_1029750" data-name="Grupo 1029750" transform="translate(816.333 8473.498)">
      <circle id="Elipse_8610" data-name="Elipse 8610" cx="6.331" cy="6.331" r="6.331" transform="translate(47.131 104.835)" fill="#fff"/>
      <path id="Trazado_728923" data-name="Trazado 728923" d="M2.861,294.439a3.517,3.517,0,1,0,1.314,6.911l15.891-3.02a3.518,3.518,0,0,0,1.642-.794l8.552-7.387a12.249,12.249,0,0,1-1.247-.76A7.172,7.172,0,0,1,25.57,284.9l-7.746,6.69Z" transform="translate(0 -155.251)" fill="#fff"/>
      <path id="Trazado_728924" data-name="Trazado 728924" d="M248,160.754a2.9,2.9,0,0,1,2.013,5.435l-7.422,2.749,4.6,10.375a2.9,2.9,0,0,1-1.25,3.711l10.681,7.6a1.128,1.128,0,0,0-.042.292,1.146,1.146,0,0,0,.019.188h-3.589a.621.621,0,0,0-.62.62v.145a.621.621,0,0,0,.62.62h9.417a.621.621,0,0,0,.62-.62v-.145a.621.621,0,0,0-.62-.62h-3.589a1.1,1.1,0,0,0-1.25-1.314l-6.24-4.442-.531-.378,5.835-6.409a3.517,3.517,0,0,0-2.946-5.868l-7.659.755c1.035-1.2,2.132-2.32,3.188-3.362.957-.943,1.878-1.816,2.688-2.6l1.9,4.558c.077,0,.153-.011.229-.011a4.153,4.153,0,0,1,4.019,5.22l9.266,4.849.224.587h-.478a.7.7,0,1,0,0,1.407h1.258a2.245,2.245,0,0,0,3.055.02,3.141,3.141,0,0,1,2.389,1.517l.049.082h-5.96a1.13,1.13,0,0,0-1.105.914h-.038c-1.135,0-2.591.594-2.591,2.072v2.078c0,1.477,1.456,2.072,2.591,2.072h9.14c1.135,0,2.591-.594,2.591-2.072v-.617H267.918v-.844h10.551V188.7a2.274,2.274,0,0,0-2.456-2.067c-.006-.012-.01-.025-.017-.037l-.993-1.68a4.558,4.558,0,0,0-2.9-2.11,2.238,2.238,0,0,0-.118-1.154l-.743-1.951a2.253,2.253,0,0,0-1.06-1.193l-11.236-5.88-4.659-11.175a2.242,2.242,0,0,0-.146-.285,3.055,3.055,0,0,0-.5-.8c-1.636-1.858-5.242-2.764-8.75-.18-1.2.9-2.253,1.742-3.2,2.6-.189.169-.372.339-.553.51Z" transform="translate(-207.901 -46.348)" fill="#fff"/>
      <path id="Trazado_728925" data-name="Trazado 728925" d="M230.518,336.047a2.888,2.888,0,0,1-1.438-.39l-3.3,3.627a3.517,3.517,0,0,0,5.2,4.735l4.533-4.979-4.321-3.076A2.875,2.875,0,0,1,230.518,336.047Z" transform="translate(-193.87 -199.008)" fill="#fff"/>
      <path id="Trazado_728926" data-name="Trazado 728926" d="M192.814,284.682a4.972,4.972,0,0,0,2.336,1.072,3.515,3.515,0,0,0,.961.04l1.016-.1-.159-.359-7.4-5.267C189.709,282.286,191.3,283.663,192.814,284.682Z" transform="translate(-163.44 -151.081)" fill="#fff"/>
      <path id="Trazado_728927" data-name="Trazado 728927" d="M42.676,163.426l-4.543-10.239c-.552.893-1.1,1.862-1.674,2.934a9.226,9.226,0,0,0-.4,1.077l-.554-.395L11.928,140.017l-.359.5-.359.5Z" transform="translate(-9.664 -30.333)" fill="#fff"/>
      <path id="Trazado_728928" data-name="Trazado 728928" d="M213.127,197.838a2.251,2.251,0,0,0,4.115-1.826l-4.882-11.005,8.068-2.988a2.251,2.251,0,0,0-1.564-4.222l-10.316,3.821a2.251,2.251,0,0,0-1.276,3.024Z" transform="translate(-178.538 -62.784)" fill="#fff"/>
    </g>
  </g>
</svg>
